<?xml version="1.0" encoding="UTF-8" standalone="no"?>
<!DOCTYPE svg PUBLIC "-//W3C//DTD SVG 1.1//EN"
 "http://www.w3.org/Graphics/SVG/1.1/DTD/svg11.dtd">
<!-- Generated by graphviz version 2.40.1 (20161225.0304)
 -->
<!-- Title: dependencies Pages: 1 -->
<svg width="1126pt" height="284pt"
 viewBox="0.00 0.00 1126.00 284.00" xmlns="http://www.w3.org/2000/svg" xmlns:xlink="http://www.w3.org/1999/xlink">
<g id="graph0" class="graph" transform="scale(1 1) rotate(0) translate(4 280)">
<title>dependencies</title>
<polygon fill="#ffffff" stroke="transparent" points="-4,4 -4,-280 1122,-280 1122,4 -4,4"/>
<text text-anchor="start" x="538.0091" y="-42.4" font-family="sans-serif" font-weight="bold" font-size="14.00" fill="#000000">Legend</text>
<polygon fill="#ffffb3" stroke="transparent" points="325,-10 325,-30 345,-30 345,-10 325,-10"/>
<text text-anchor="start" x="348.629" y="-15.4" font-family="sans-serif" font-size="14.00" fill="#000000"> &#160;Declarations</text>
<polygon fill="#8dd3c7" stroke="transparent" points="438,-10 438,-30 458,-30 458,-10 438,-10"/>
<text text-anchor="start" x="461.7251" y="-15.4" font-family="sans-serif" font-size="14.00" fill="#000000"> &#160;Module</text>
<polygon fill="#80b1d3" stroke="transparent" points="524,-10 524,-30 544,-30 544,-10 524,-10"/>
<text text-anchor="start" x="547.7812" y="-15.4" font-family="sans-serif" font-size="14.00" fill="#000000"> &#160;Bootstrap</text>
<polygon fill="#fdb462" stroke="transparent" points="621,-10 621,-30 641,-30 641,-10 621,-10"/>
<text text-anchor="start" x="644.6732" y="-15.4" font-family="sans-serif" font-size="14.00" fill="#000000"> &#160;Providers</text>
<polygon fill="#fb8072" stroke="transparent" points="717,-10 717,-30 737,-30 737,-10 717,-10"/>
<text text-anchor="start" x="740.7258" y="-15.4" font-family="sans-serif" font-size="14.00" fill="#000000"> &#160;Exports</text>
<g id="clust1" class="cluster">
<title>cluster_TestPageModule</title>
<polygon fill="none" stroke="#000000" stroke-dasharray="1,5" points="8,-70 8,-268 1110,-268 1110,-70 8,-70"/>
</g>
<g id="clust2" class="cluster">
<title>cluster_TestPageModule_declarations</title>
<polygon fill="none" stroke="#000000" points="954,-78 954,-130 1102,-130 1102,-78 954,-78"/>
</g>
<g id="clust4" class="cluster">
<title>cluster_TestPageModule_imports</title>
<polygon fill="none" stroke="#000000" points="16,-78 16,-130 946,-130 946,-78 16,-78"/>
</g>
<g id="clust5" class="cluster">
<title>cluster_TestPageModule_exports</title>
<polygon fill="none" stroke="#000000" points="481,-208 481,-260 633,-260 633,-208 481,-208"/>
</g>
<!-- TestPageComponent -->
<g id="node1" class="node">
<title>TestPageComponent</title>
<polygon fill="#ffffb3" stroke="#000000" points="1094.1471,-122 961.8529,-122 961.8529,-86 1094.1471,-86 1094.1471,-122"/>
<text text-anchor="middle" x="1028" y="-99.8" font-family="Times,serif" font-size="14.00" fill="#000000">TestPageComponent</text>
</g>
<!-- TestPageModule -->
<g id="node2" class="node">
<title>TestPageModule</title>
<polygon fill="#8dd3c7" stroke="#000000" points="612.3641,-187 609.3641,-191 588.3641,-191 585.3641,-187 501.6359,-187 501.6359,-151 612.3641,-151 612.3641,-187"/>
<text text-anchor="middle" x="557" y="-164.8" font-family="Times,serif" font-size="14.00" fill="#000000">TestPageModule</text>
</g>
<!-- TestPageComponent&#45;&gt;TestPageModule -->
<g id="edge1" class="edge">
<title>TestPageComponent&#45;&gt;TestPageModule</title>
<path fill="none" stroke="#000000" d="M1028,-122.2921C1028,-144.2057 1028,-178 1028,-178 1028,-178 622.4147,-178 622.4147,-178"/>
<polygon fill="#000000" stroke="#000000" points="622.4147,-174.5001 612.4147,-178 622.4147,-181.5001 622.4147,-174.5001"/>
</g>
<!-- TestPageComponent  -->
<g id="node10" class="node">
<title>TestPageComponent </title>
<polygon fill="#fb8072" stroke="#000000" points="625.1467,-252 488.8533,-252 488.8533,-216 625.1467,-216 625.1467,-252"/>
<text text-anchor="middle" x="557" y="-229.8" font-family="Times,serif" font-size="14.00" fill="#000000">TestPageComponent </text>
</g>
<!-- TestPageModule&#45;&gt;TestPageComponent  -->
<g id="edge9" class="edge">
<title>TestPageModule&#45;&gt;TestPageComponent </title>
<path fill="none" stroke="#000000" stroke-dasharray="5,2" d="M557,-187.1061C557,-187.1061 557,-205.991 557,-205.991"/>
<polygon fill="#000000" stroke="#000000" points="553.5001,-205.9909 557,-215.991 560.5001,-205.991 553.5001,-205.9909"/>
</g>
<!-- CardModule -->
<g id="node3" class="node">
<title>CardModule</title>
<polygon fill="#8dd3c7" stroke="#000000" points="938.2619,-122 935.2619,-126 914.2619,-126 911.2619,-122 851.7381,-122 851.7381,-86 938.2619,-86 938.2619,-122"/>
<text text-anchor="middle" x="895" y="-99.8" font-family="Times,serif" font-size="14.00" fill="#000000">CardModule</text>
</g>
<!-- CardModule&#45;&gt;TestPageModule -->
<g id="edge2" class="edge">
<title>CardModule&#45;&gt;TestPageModule</title>
<path fill="none" stroke="#000000" d="M895,-122.1061C895,-141.3391 895,-169 895,-169 895,-169 622.4353,-169 622.4353,-169"/>
<polygon fill="#000000" stroke="#000000" points="622.4354,-165.5001 612.4353,-169 622.4353,-172.5001 622.4354,-165.5001"/>
</g>
<!-- ContextMenuModule -->
<g id="node4" class="node">
<title>ContextMenuModule</title>
<polygon fill="#8dd3c7" stroke="#000000" points="833.0422,-122 830.0422,-126 809.0422,-126 806.0422,-122 696.9578,-122 696.9578,-86 833.0422,-86 833.0422,-122"/>
<text text-anchor="middle" x="765" y="-99.8" font-family="Times,serif" font-size="14.00" fill="#000000">ContextMenuModule</text>
</g>
<!-- ContextMenuModule&#45;&gt;TestPageModule -->
<g id="edge3" class="edge">
<title>ContextMenuModule&#45;&gt;TestPageModule</title>
<path fill="none" stroke="#000000" d="M765,-122.027C765,-138.3976 765,-160 765,-160 765,-160 622.4669,-160 622.4669,-160"/>
<polygon fill="#000000" stroke="#000000" points="622.467,-156.5001 612.4669,-160 622.4669,-163.5001 622.467,-156.5001"/>
</g>
<!-- DividerModule -->
<g id="node5" class="node">
<title>DividerModule</title>
<polygon fill="#8dd3c7" stroke="#000000" points="679.3133,-122 676.3133,-126 655.3133,-126 652.3133,-122 576.6867,-122 576.6867,-86 679.3133,-86 679.3133,-122"/>
<text text-anchor="middle" x="628" y="-99.8" font-family="Times,serif" font-size="14.00" fill="#000000">DividerModule</text>
</g>
<!-- DividerModule&#45;&gt;TestPageModule -->
<g id="edge4" class="edge">
<title>DividerModule&#45;&gt;TestPageModule</title>
<path fill="none" stroke="#000000" d="M594.6378,-122.1061C594.6378,-122.1061 594.6378,-140.991 594.6378,-140.991"/>
<polygon fill="#000000" stroke="#000000" points="591.1379,-140.9909 594.6378,-150.991 598.1379,-140.991 591.1379,-140.9909"/>
</g>
<!-- DynamicFormsModule -->
<g id="node6" class="node">
<title>DynamicFormsModule</title>
<polygon fill="#8dd3c7" stroke="#000000" points="559.1456,-122 556.1456,-126 535.1456,-126 532.1456,-122 412.8544,-122 412.8544,-86 559.1456,-86 559.1456,-122"/>
<text text-anchor="middle" x="486" y="-99.8" font-family="Times,serif" font-size="14.00" fill="#000000">DynamicFormsModule</text>
</g>
<!-- DynamicFormsModule&#45;&gt;TestPageModule -->
<g id="edge5" class="edge">
<title>DynamicFormsModule&#45;&gt;TestPageModule</title>
<path fill="none" stroke="#000000" d="M530.4453,-122.1061C530.4453,-122.1061 530.4453,-140.991 530.4453,-140.991"/>
<polygon fill="#000000" stroke="#000000" points="526.9454,-140.9909 530.4453,-150.991 533.9454,-140.991 526.9454,-140.9909"/>
</g>
<!-- EditableFieldModule -->
<g id="node7" class="node">
<title>EditableFieldModule</title>
<polygon fill="#8dd3c7" stroke="#000000" points="394.4818,-122 391.4818,-126 370.4818,-126 367.4818,-122 259.5182,-122 259.5182,-86 394.4818,-86 394.4818,-122"/>
<text text-anchor="middle" x="327" y="-99.8" font-family="Times,serif" font-size="14.00" fill="#000000">EditableFieldModule</text>
</g>
<!-- EditableFieldModule&#45;&gt;TestPageModule -->
<g id="edge6" class="edge">
<title>EditableFieldModule&#45;&gt;TestPageModule</title>
<path fill="none" stroke="#000000" d="M327,-122.027C327,-138.3976 327,-160 327,-160 327,-160 491.6166,-160 491.6166,-160"/>
<polygon fill="#000000" stroke="#000000" points="491.6166,-163.5001 501.6166,-160 491.6165,-156.5001 491.6166,-163.5001"/>
</g>
<!-- IconsModule -->
<g id="node8" class="node">
<title>IconsModule</title>
<polygon fill="#8dd3c7" stroke="#000000" points="241.8697,-122 238.8697,-126 217.8697,-126 214.8697,-122 152.1303,-122 152.1303,-86 241.8697,-86 241.8697,-122"/>
<text text-anchor="middle" x="197" y="-99.8" font-family="Times,serif" font-size="14.00" fill="#000000">IconsModule</text>
</g>
<!-- IconsModule&#45;&gt;TestPageModule -->
<g id="edge7" class="edge">
<title>IconsModule&#45;&gt;TestPageModule</title>
<path fill="none" stroke="#000000" d="M197,-122.1061C197,-141.3391 197,-169 197,-169 197,-169 491.539,-169 491.539,-169"/>
<polygon fill="#000000" stroke="#000000" points="491.539,-172.5001 501.539,-169 491.5389,-165.5001 491.539,-172.5001"/>
</g>
<!-- SelectorsModule -->
<g id="node9" class="node">
<title>SelectorsModule</title>
<polygon fill="#8dd3c7" stroke="#000000" points="134.3627,-122 131.3627,-126 110.3627,-126 107.3627,-122 23.6373,-122 23.6373,-86 134.3627,-86 134.3627,-122"/>
<text text-anchor="middle" x="79" y="-99.8" font-family="Times,serif" font-size="14.00" fill="#000000">SelectorsModule</text>
</g>
<!-- SelectorsModule&#45;&gt;TestPageModule -->
<g id="edge8" class="edge">
<title>SelectorsModule&#45;&gt;TestPageModule</title>
<path fill="none" stroke="#000000" d="M79,-122.2921C79,-144.2057 79,-178 79,-178 79,-178 491.2318,-178 491.2318,-178"/>
<polygon fill="#000000" stroke="#000000" points="491.2319,-181.5001 501.2318,-178 491.2318,-174.5001 491.2319,-181.5001"/>
</g>
</g>
</svg>
