<svg xmlns="http://www.w3.org/2000/svg" width="109" height="31" viewBox="0 0 109 31">
    <g fill="none" fill-rule="evenodd">
        <path fill="#0A0B09" d="M108.972 27.892c0 1.717-1.403 3.108-3.138 3.108H3.142C1.408 31 0 29.61 0 27.892V3.112C0 1.395 1.408 0 3.142 0h102.691c1.736 0 3.139 1.396 3.139 3.111v24.781"/>
        <path fill="#FFFFFE" d="M24.019 14.744c-.023-2.497 2.091-3.712 2.188-3.769-1.198-1.707-3.054-1.94-3.706-1.959-1.559-.16-3.07.912-3.865.912-.81 0-2.032-.896-3.35-.87-1.696.026-3.283.986-4.153 2.477-1.796 3.04-.456 7.507 1.264 9.964.86 1.204 1.867 2.547 3.183 2.5 1.288-.051 1.769-.802 3.323-.802 1.54 0 1.991.802 3.333.771 1.382-.02 2.253-1.208 3.083-2.423.995-1.378 1.394-2.737 1.41-2.807-.032-.01-2.683-1.001-2.71-3.994"/>
        <path fill="#FFFFFE" d="M21.553 7.47c.697-.927 1.174-2.19 1.042-3.47-1.01.048-2.271.743-2.998 1.65-.643.8-1.217 2.11-1.069 3.342 1.134.09 2.298-.608 3.025-1.522M39.974 20.413l-.927-2.872c-.098-.293-.282-.984-.552-2.072h-.033a87.442 87.442 0 0 1-.52 2.072l-.911 2.872h2.943zM43.178 25h-1.87l-1.025-3.231h-3.561L35.746 25h-1.82l3.528-11h2.18l3.544 11zM50.738 19.984c0-.751-.163-1.37-.492-1.858-.36-.507-.841-.761-1.446-.761-.41 0-.782.141-1.114.42a1.962 1.962 0 0 0-.654 1.104 2.309 2.309 0 0 0-.077.522v1.286c0 .56.167 1.034.5 1.422.333.385.767.58 1.3.58.625 0 1.112-.25 1.46-.747.349-.497.523-1.153.523-1.968zm1.692-.063c0 1.312-.345 2.349-1.036 3.11a2.993 2.993 0 0 1-2.304 1.016c-.99 0-1.702-.364-2.134-1.094V27h-1.66v-8.306c0-.824-.022-1.668-.062-2.535h1.46l.093 1.223h.031C47.372 16.46 48.212 16 49.34 16c.882 0 1.618.36 2.207 1.079.588.72.883 1.668.883 2.842zM59.99 19.984c0-.751-.164-1.37-.493-1.858-.36-.507-.84-.761-1.444-.761-.41 0-.782.141-1.116.42a1.96 1.96 0 0 0-.653 1.104c-.05.212-.078.385-.078.522v1.286c0 .56.168 1.034.5 1.422.333.385.766.58 1.3.58.627 0 1.113-.25 1.46-.747.35-.497.524-1.153.524-1.968zm1.692-.063c0 1.312-.345 2.349-1.036 3.11a2.994 2.994 0 0 1-2.304 1.016c-.99 0-1.702-.364-2.134-1.094V27h-1.66v-8.306a54.2 54.2 0 0 0-.062-2.535h1.46l.093 1.223h.031C56.623 16.46 57.463 16 58.592 16c.88 0 1.617.36 2.207 1.079.587.72.883 1.668.883 2.842zM71.963 21.845c0 .91-.296 1.65-.884 2.22-.648.623-1.551.935-2.71.935-1.07 0-1.927-.221-2.575-.665l.369-1.427a4.2 4.2 0 0 0 2.302.666c.6 0 1.068-.146 1.4-.436.335-.29.504-.679.504-1.164 0-.434-.14-.798-.414-1.094-.276-.295-.732-.57-1.372-.824-1.742-.697-2.613-1.718-2.613-3.06 0-.876.308-1.594.922-2.155.615-.56 1.43-.841 2.442-.841.905 0 1.66.17 2.258.507l-.4 1.396c-.563-.328-1.2-.492-1.91-.492-.563 0-1.004.149-1.319.444-.265.265-.4.587-.4.968 0 .422.153.772.458 1.047.265.252.748.528 1.446.823.856.371 1.485.803 1.888 1.3.406.495.608 1.114.608 1.852M77.103 18.277h-2.067v3.824c0 .973.364 1.458 1.094 1.458.335 0 .613-.027.833-.081l.052 1.328c-.37.13-.856.194-1.458.194-.74 0-1.32-.21-1.737-.633-.417-.422-.626-1.128-.626-2.123v-3.97h-1.231v-1.313h1.231v-1.442L75.036 15v1.96h2.067v1.317M83.635 19.471c0-.615-.145-1.142-.437-1.583-.342-.533-.832-.8-1.467-.8-.654 0-1.155.267-1.497.8-.292.441-.438.978-.438 1.611 0 .616.146 1.145.438 1.584.353.533.845.8 1.483.8.624 0 1.114-.272 1.467-.813.3-.452.451-.983.451-1.599zm1.692-.034c0 1.032-.323 1.879-.968 2.54-.674.683-1.572 1.023-2.69 1.023-1.08 0-1.938-.327-2.578-.98-.64-.653-.96-1.477-.96-2.471 0-1.04.33-1.892.99-2.554.66-.663 1.55-.995 2.669-.995 1.078 0 1.944.327 2.6.98.625.634.937 1.453.937 2.457zM91.495 17.482a3.331 3.331 0 0 0-.538-.043c-.6 0-1.064.202-1.391.608-.284.357-.426.809-.426 1.354V23h-1.707v-4.699c0-.79-.017-1.51-.05-2.159h1.487l.062 1.312h.048c.18-.45.464-.814.853-1.086.38-.246.791-.368 1.234-.368.158 0 .3.01.427.028l.001 1.454M98.25 18.806c.01-.443-.091-.825-.3-1.149-.267-.416-.678-.623-1.228-.623-.504 0-.915.202-1.228.609a2.19 2.19 0 0 0-.456 1.162l3.211.001zm1.47.388c0 .268-.019.494-.057.678h-4.626c.018.664.242 1.173.671 1.524.39.312.894.47 1.513.47a5.26 5.26 0 0 0 1.872-.318l.242 1.036c-.657.278-1.432.416-2.327.416-1.076 0-1.921-.307-2.536-.92-.613-.613-.92-1.437-.92-2.47 0-1.013.285-1.858.857-2.531.6-.72 1.409-1.079 2.427-1.079 1 0 1.757.36 2.272 1.079.407.57.612 1.276.612 2.115zM38.314 7.916l-.515-1.306a16.546 16.546 0 0 1-.307-.942h-.018c-.064.215-.154.527-.29.942l-.505 1.306h1.635zM40.094 10h-1.04l-.569-1.468h-1.977L35.965 10h-1.012l1.96-5h1.21l1.97 5zM44.206 6l-1.62 4h-.925l-1.568-4h1.022l.731 2.115c.123.354.229.691.308 1.012h.026c.07-.287.176-.625.308-1.012L43.21 6h.996M47.74 8.003c-.618 0-.927.23-.927.773 0 .403.16.6.38.6.284 0 .547-.331.547-.78v-.593zm.077 1.91l-.041-.441h-.015c-.17.355-.418.528-.732.528-.448 0-.767-.481-.767-1.129 0-.946.535-1.435 1.462-1.435v-.07c0-.506-.175-.759-.52-.759a.899.899 0 0 0-.654.285l-.113-.56a1.2 1.2 0 0 1 .86-.332c.655 0 .985.528.985 1.586v1.412c0 .387.01.687.036.916h-.5zM49.44 10h.84V6.504h-.84V10zm.404-4.072c-.28 0-.498-.202-.498-.468S49.57 5 49.86 5c.288 0 .522.194.514.46 0 .281-.218.468-.53.468zM52.43 10h1.028V5H52.43zM55.965 8.004c-.619 0-.928.229-.928.773 0 .402.16.599.381.599.284 0 .547-.331.547-.78v-.592zm.077 1.91l-.041-.442h-.015c-.17.355-.418.528-.732.528-.448 0-.768-.481-.768-1.128 0-.946.536-1.436 1.463-1.436v-.07c0-.505-.175-.758-.52-.758a.9.9 0 0 0-.654.284l-.114-.56c.232-.221.52-.332.86-.332.655 0 .986.528.986 1.586v1.412c0 .387.01.686.035.915h-.5zM59.6 6.483a1.06 1.06 0 0 0-1.044 1.075v.708c0 .559.448 1.017 1.029 1.017.71 0 1.133-.55 1.133-1.425-.001-.816-.441-1.375-1.117-1.375zM59.795 10c-.606 0-1.053-.242-1.342-.717h-.02l-.054.625h-.808c.027-.324.036-.692.036-1.091V4h.949v2.451h.018c.281-.45.737-.675 1.36-.675 1.029 0 1.75.834 1.75 2.05 0 1.257-.8 2.174-1.89 2.174zM63.738 10h1.028V5h-1.028zM68.929 7.605c0-.593-.362-1.012-1.02-1.012a1.12 1.12 0 0 0-1.123 1.012h2.143zm.942.609h-3.085c.02.727.599 1.138 1.456 1.138.457 0 .876-.064 1.247-.182l.16.593c-.438.158-.952.237-1.551.237-1.448 0-2.304-.76-2.304-1.936 0-1.179.877-2.064 2.188-2.064 1.18 0 1.924.727 1.924 1.827.004.15-.005.284-.035.387zM74.019 6.623c-.673 0-1.105.575-1.105 1.38 0 .79.44 1.365 1.096 1.365.656 0 1.096-.615 1.096-1.381 0-.78-.431-1.364-1.087-1.364zM73.983 10c-1.226 0-2.02-.837-2.02-1.972 0-1.184.811-2.028 2.09-2.028 1.209 0 2.022.797 2.022 1.965 0 1.198-.838 2.035-2.092 2.035zM81.215 10h-1.042V7.75c0-.693-.318-1.04-.946-1.04-.618 0-1.044.443-1.044.96V10h-1.042V7.202c0-.347-.01-.719-.038-1.122h.917l.049.606h.029c.278-.42.85-.686 1.486-.686.984 0 1.631.629 1.631 1.653V10M85.327 6.637h-.826V8.55c0 .487.145.73.437.73.132 0 .244-.017.334-.041l.02.664a1.458 1.458 0 0 1-.583.098c-.592 0-.945-.38-.945-1.378V6.637h-.493v-.656h.493V5.26l.737-.26v.98h.826v.657M91.495 10h-1.053V8.046c0-.613-.321-.923-.955-.923-.545 0-1.05.268-1.05.81V10h-1.054V5h1.053v2.059h.02c.332-.374.81-.558 1.423-.558 1.003 0 1.616.564 1.616 1.46V10"/>
        <path fill="#FFFFFE" d="M93.602 7.605c0-.593-.361-1.012-1.018-1.012-.591 0-1.057.427-1.124 1.012h2.142zm.942.609H91.46c.02.727.598 1.138 1.455 1.138.458 0 .876-.064 1.247-.182l.16.593c-.437.158-.952.237-1.55.237-1.448 0-2.305-.76-2.305-1.936 0-1.179.877-2.064 2.188-2.064 1.18 0 1.924.727 1.924 1.827a1.37 1.37 0 0 1-.035.387z"/>
    </g>
</svg>
