<svg xmlns="http://www.w3.org/2000/svg" width="32" height="32" viewBox="0 0 32 32">
    <defs>
        <linearGradient id="a" x1=".618%" x2="99.382%" y1="49.382%" y2="49.382%">
            <stop offset="0%" stop-color="#45ADFF"/>
            <stop offset="100%" stop-color="#80DEFF"/>
        </linearGradient>
        <linearGradient id="b" x1="100%" x2="0%" y1="50%" y2="50%">
            <stop offset="0%" stop-color="#F09B5F"/>
            <stop offset="100%" stop-color="#E10E61"/>
        </linearGradient>
    </defs>
    <g fill="none" fill-rule="nonzero">
        <path fill="url(#a)" d="M1.54 12.958L13.177 1.32a3.657 3.657 0 1 1 5.172 5.172L6.712 18.13a3.657 3.657 0 0 1-5.172-5.172z" transform="matrix(0 1 1 0 0 6)"/>
        <path fill="url(#b)" d="M1.845 25.234l11.637-11.637a3.657 3.657 0 1 1 5.172 5.172L7.017 30.406a3.657 3.657 0 0 1-5.172-5.172z" transform="matrix(0 1 1 0 0 6)"/>
    </g>
</svg>
