<svg xmlns="http://www.w3.org/2000/svg" width="208" height="206" viewBox="0 0 208 206">
    <g fill="none" fill-rule="nonzero">
        <g fill="#A3AFC6">
            <path d="M191.226 34.626l-20.85-20.85-18.765 14.595 25.02 25.017zM95.315 126.364l8.34 8.341 20.85-20.85a5.898 5.898 0 1 0-8.34-8.34l-20.85 20.849zM70.296 101.345l8.338 8.338 20.852-20.85a5.898 5.898 0 0 0-8.341-8.338l-20.85 20.85z"/>
        </g>
        <path fill="#5D6D8B" d="M14 182.661L22.341 191l8.341-8.338-8.34-8.34z"/>
        <path fill="#A3AFC6" d="M16.084 168.064l20.85 20.85L55.7 174.317l-25.02-25.017z"/>
        <path fill="#182844" d="M55.7 103.431l45.87 45.87a5.898 5.898 0 1 0 8.34-8.342L64.04 95.09a5.898 5.898 0 1 0-8.34 8.341"/>
        <path fill="#5D6D8B" d="M32.17 150.789l22.04 22.043c4.368 4.365 11.364 4.624 16.042.59l31.317-24.12-45.869-45.87-24.123 31.317a11.789 11.789 0 0 0 .593 16.04"/>
        <path fill="#A3AFC6" d="M55.16 144.59l5.247 5.246c5.46 5.463 14.314 5.463 19.774 0l10.965-10.962-25.023-25.017-10.963 10.96c-5.459 5.463-5.459 14.314 0 19.773"/>
        <g fill="#5D6D8B">
            <path d="M193.31 20.028l-8.34-8.338-8.342 8.338 8.341 8.341zM161.34 18.329c-.792 0-1.583.303-2.186.905a3.088 3.088 0 0 0 0 4.372l6.95 6.95a3.088 3.088 0 0 0 4.37 0 3.088 3.088 0 0 0 0-4.372l-6.949-6.95a3.083 3.083 0 0 0-2.185-.905M176.63 33.617c-.792 0-1.583.303-2.186.906a3.088 3.088 0 0 0 0 4.371l6.95 6.95a3.088 3.088 0 0 0 4.371 0 3.088 3.088 0 0 0 0-4.371l-6.95-6.95a3.083 3.083 0 0 0-2.185-.906"/>
        </g>
        <path fill="#182844" d="M151.61 99.259l-45.869-45.87a5.898 5.898 0 1 0-8.341 8.342l45.87 45.869a5.898 5.898 0 0 0 8.34-8.341"/>
        <path fill="#5D6D8B" d="M175.14 51.901L153.1 29.858c-4.368-4.365-11.364-4.625-16.042-.59l-31.317 24.12 45.87 45.87 24.123-31.318a11.789 11.789 0 0 0-.594-16.039"/>
        <path fill="#A3AFC6" d="M152.21 58.16l-5.367-5.367c-5.429-5.429-14.227-5.429-19.653 0l-11.024 11.021 25.02 25.02L152.21 77.81c5.426-5.426 5.426-14.225 0-19.65"/>
        <g fill="#5D6D8B">
            <path d="M39.02 171.228c-.79 0-1.582.303-2.185.906a3.088 3.088 0 0 0 0 4.371l6.95 6.95a3.088 3.088 0 0 0 4.371 0 3.088 3.088 0 0 0 0-4.371l-6.95-6.95a3.083 3.083 0 0 0-2.185-.906M23.73 155.94c-.79 0-1.582.302-2.185.905a3.088 3.088 0 0 0 0 4.371l6.95 6.95a3.088 3.088 0 0 0 4.371 0 3.088 3.088 0 0 0 0-4.371l-6.95-6.95a3.083 3.083 0 0 0-2.185-.906"/>
        </g>
        <g fill="#A3AFC6" opacity=".3" transform="translate(-1 -1)">
            <rect width="48" height="6" x="43.122" y="21.156" rx="3" transform="rotate(70 67.122 24.156)"/>
            <rect width="48" height="6" x=".122" y="64.156" rx="3" transform="rotate(20 24.122 67.156)"/>
        </g>
        <g fill="#A3AFC6" opacity=".3" transform="rotate(180 104.5 103.5)">
            <rect width="48" height="6" x="43.122" y="21.156" rx="3" transform="rotate(70 67.122 24.156)"/>
            <rect width="48" height="6" x=".122" y="64.156" rx="3" transform="rotate(20 24.122 67.156)"/>
        </g>
    </g>
</svg>
