<svg xmlns="http://www.w3.org/2000/svg" xmlns:xlink="http://www.w3.org/1999/xlink" width="800" height="378" viewBox="0 0 800 378">
    <defs>
        <linearGradient id="b" x1="146.167%" x2="-26.998%" y1="-51.413%" y2="129.778%">
            <stop offset="0%" stop-color="#7BD6FF"/>
            <stop offset="100%" stop-color="#45ADFF"/>
        </linearGradient>
        <path id="a" d="M0 0h800v378H0z"/>
    </defs>
    <g fill="none" fill-rule="evenodd">
        <mask id="c" fill="#fff">
            <use xlink:href="#a"/>
        </mask>
        <use fill="url(#b)" fill-rule="nonzero" xlink:href="#a"/>
        <text fill="#FFF" font-family="SourceSansPro-SemiBold, Source Sans Pro" font-size="78" font-weight="500" mask="url(#c)">
            <tspan x="247" y="217">Welcome</tspan>
        </text>
        <path fill="#FFF" d="M209.95 257.892a.982.982 0 0 1-.155.913l-1.053 1.35.15 1.726a.968.968 0 0 1-.362.848.905.905 0 0 1-.887.131l-1.567-.619-1.544.683a.9.9 0 0 1-.891-.096.969.969 0 0 1-.395-.832l.085-1.731-1.103-1.307a.981.981 0 0 1-.188-.906.94.94 0 0 1 .643-.646l1.62-.452.86-1.488a.918.918 0 0 1 .775-.466c.349.01.619.158.793.434l.916 1.453 1.634.386c.31.073.564.307.668.62zM206 252a1 1 0 0 1-.926-.622c-.486-1.19-2.074-5.171-2.074-6.378 0-1.654 1.346-3 3-3s3 1.346 3 3c0 1.207-1.588 5.188-2.074 6.378A1 1 0 0 1 206 252zm-.926 13.567c.307-.756 1.545-.756 1.852 0 .486 1.198 2.074 5.201 2.074 6.415 0 1.664-1.346 3.018-3 3.018s-3-1.354-3-3.018c0-1.214 1.588-5.217 2.074-6.415zM192.467 254.6c-1.401-.828-1.883-2.666-1.075-4.099.81-1.434 2.607-1.925 4.01-1.1h.002c1.022.605 3.62 3.97 4.39 4.988.244.32.274.76.075 1.112a.973.973 0 0 1-.98.491c-1.248-.174-5.4-.79-6.422-1.392zm26.066 7.802c1.401.828 1.883 2.666 1.075 4.099-.811 1.435-2.611 1.924-4.01 1.1-1.024-.605-3.621-3.97-4.392-4.988a1.017 1.017 0 0 1-.075-1.112.97.97 0 0 1 .98-.491c1.248.174 5.4.79 6.422 1.392zm-18.664-.901c.199.351.17.792-.075 1.112-.77 1.018-3.368 4.382-4.39 4.987a2.907 2.907 0 0 1-4.012-1.099c-.808-1.433-.326-3.271 1.075-4.099 1.023-.602 5.174-1.218 6.421-1.393a.976.976 0 0 1 .981.492zm11.262-6a1.017 1.017 0 0 1 .075-1.112c.77-1.018 3.368-4.382 4.39-4.987h.001c1.402-.827 3.2-.334 4.011 1.099.808 1.434.326 3.271-1.075 4.099-1.023.602-5.174 1.218-6.421 1.392a.973.973 0 0 1-.981-.49zm-10.997-3.049l-2-3.804c-.276-.526-.112-1.197.366-1.5.476-.303 1.09-.123 1.366.402l2 3.804c.276.525.112 1.196-.366 1.5-.476.301-1.088.126-1.366-.402zm-1.268-7.951a1 1 0 1 1-1.73 1 1 1 0 0 1 1.73-1zm12 20.05l2 3.804c.276.525.112 1.195-.366 1.499-.476.301-1.088.126-1.366-.402l-2-3.803c-.276-.525-.112-1.196.366-1.5.475-.305 1.089-.124 1.366.402zm3 6.95a1 1 0 1 1-1.733 1 1 1 0 0 1 1.733-1zM198 258a1 1 0 1 1 0 2h-4a1 1 0 1 1 0-2h4zm-7 1a1 1 0 1 1-2 0 1 1 0 0 1 2 0zm22-1h4a1 1 0 1 1 0 2h-4a1 1 0 1 1 0-2zm9 1a1 1 0 1 1-2 0 1 1 0 0 1 2 0zm-20.5 5.149c.478.303.642.974.366 1.499l-2 3.803c-.278.528-.89.703-1.366.402-.478-.303-.642-.974-.366-1.5l2-3.803c.277-.526.886-.707 1.366-.401zm-3 6.985a1 1 0 1 1-1 1.732 1 1 0 0 1 1-1.732zm11-18.281c-.478-.303-.642-.975-.366-1.5l2-3.804c.275-.525.888-.705 1.366-.402.478.303.642.974.366 1.5l-2 3.804c-.278.528-.89.703-1.366.402zm4-8.719a1 1 0 1 1-1 1.732 1 1 0 0 1 1-1.732zM615.95 316.892a.982.982 0 0 1-.155.913l-1.053 1.35.15 1.726a.968.968 0 0 1-.362.848.905.905 0 0 1-.887.131l-1.567-.619-1.544.683a.9.9 0 0 1-.891-.096.969.969 0 0 1-.395-.832l.085-1.731-1.103-1.307a.981.981 0 0 1-.188-.906.94.94 0 0 1 .643-.646l1.62-.452.86-1.488a.918.918 0 0 1 .775-.466c.349.01.619.158.793.434l.916 1.453 1.634.386c.31.073.564.307.668.62zM612 311a1 1 0 0 1-.926-.622c-.486-1.19-2.074-5.171-2.074-6.378 0-1.654 1.346-3 3-3s3 1.346 3 3c0 1.207-1.588 5.188-2.074 6.378A1 1 0 0 1 612 311zm-.926 13.567c.307-.756 1.545-.756 1.852 0 .486 1.198 2.074 5.201 2.074 6.415 0 1.664-1.346 3.018-3 3.018s-3-1.354-3-3.018c0-1.214 1.588-5.217 2.074-6.415zM598.467 313.6c-1.401-.828-1.883-2.666-1.075-4.099.81-1.434 2.607-1.925 4.01-1.1h.002c1.022.605 3.62 3.97 4.39 4.988.244.32.274.76.075 1.112a.973.973 0 0 1-.98.491c-1.248-.174-5.4-.79-6.422-1.392zm26.066 7.802c1.401.828 1.883 2.666 1.075 4.099-.811 1.435-2.611 1.924-4.01 1.1-1.024-.605-3.621-3.97-4.392-4.988a1.017 1.017 0 0 1-.075-1.112.97.97 0 0 1 .98-.491c1.248.174 5.4.79 6.422 1.392zm-18.664-.901c.199.351.17.792-.075 1.112-.77 1.018-3.368 4.382-4.39 4.987a2.907 2.907 0 0 1-4.012-1.099c-.808-1.433-.326-3.271 1.075-4.099 1.023-.602 5.174-1.218 6.421-1.393a.976.976 0 0 1 .981.492zm11.262-6a1.017 1.017 0 0 1 .075-1.112c.77-1.018 3.368-4.382 4.39-4.987h.001c1.402-.827 3.2-.334 4.011 1.099.808 1.434.326 3.271-1.075 4.099-1.023.602-5.174 1.218-6.421 1.392a.973.973 0 0 1-.981-.49zm-10.997-3.049l-2-3.804c-.276-.526-.112-1.197.366-1.5.476-.303 1.09-.123 1.366.402l2 3.804c.276.525.112 1.196-.366 1.5-.476.301-1.088.126-1.366-.402zm-1.268-7.951a1 1 0 1 1-1.73 1 1 1 0 0 1 1.73-1zm12 20.05l2 3.804c.276.525.112 1.195-.366 1.499-.476.301-1.088.126-1.366-.402l-2-3.803c-.276-.525-.112-1.196.366-1.5.475-.305 1.089-.124 1.366.402zm3 6.95a1 1 0 1 1-1.733 1 1 1 0 0 1 1.733-1zM604 317a1 1 0 1 1 0 2h-4a1 1 0 1 1 0-2h4zm-7 1a1 1 0 1 1-2 0 1 1 0 0 1 2 0zm22-1h4a1 1 0 1 1 0 2h-4a1 1 0 1 1 0-2zm9 1a1 1 0 1 1-2 0 1 1 0 0 1 2 0zm-20.5 5.149c.478.303.642.974.366 1.499l-2 3.803c-.278.528-.89.703-1.366.402-.478-.303-.642-.974-.366-1.5l2-3.803c.277-.526.886-.707 1.366-.401zm-3 6.985a1 1 0 1 1-1 1.732 1 1 0 0 1 1-1.732zm11-18.281c-.478-.303-.642-.975-.366-1.5l2-3.804c.275-.524.888-.705 1.366-.402.478.303.642.974.366 1.5l-2 3.804c-.278.528-.89.703-1.366.402zm4-8.719a1 1 0 1 1-1 1.732 1 1 0 0 1 1-1.732z" mask="url(#c)"/>
        <path fill="#FFF" fill-rule="nonzero" d="M134.279 44.34a2.052 2.052 0 0 1 1.743-2.32 2.05 2.05 0 0 1 2.319 1.746l3.248 22.985a2.052 2.052 0 0 1-2.034 2.34 2.052 2.052 0 0 1-2.028-1.766l-3.248-22.984zm54.073 7.861l-1.606 1.608a2.054 2.054 0 0 0 0 2.903 2.05 2.05 0 0 0 2.9 0l1.607-1.607 1.605 1.607c.401.401.926.601 1.45.601a2.054 2.054 0 0 0 1.45-3.505l-1.605-1.607 1.607-1.608a2.054 2.054 0 0 0 0-2.903 2.05 2.05 0 0 0-2.901 0l-1.607 1.608-1.606-1.608a2.05 2.05 0 0 0-2.901 0 2.054 2.054 0 0 0 0 2.903l1.607 1.608zM128.83 78.87a2.047 2.047 0 0 0 2.876.381c.899-.69 1.07-1.978.38-2.878L113.98 52.717a2.05 2.05 0 0 0-2.876-.381c-.899.69-1.07 1.978-.38 2.878L128.83 78.87zM95.163 59.695l.679.522a2.048 2.048 0 0 0 2.877-.377 2.054 2.054 0 0 0-.378-2.879l-.679-.522a2.05 2.05 0 0 0-2.876.377c-.69.899-.522 2.188.377 2.879zM93.43 85.14a2.053 2.053 0 1 0-.539 4.07l20.978 2.78a2.052 2.052 0 0 0 2.303-1.766 2.053 2.053 0 0 0-1.764-2.304L93.43 85.14zm8.42-20.301l19.939 15.337a2.048 2.048 0 0 0 2.877-.377 2.054 2.054 0 0 0-.377-2.88l-19.94-15.336a2.05 2.05 0 0 0-2.876.377 2.054 2.054 0 0 0 .376 2.879zm44.116 4.445a2.052 2.052 0 0 0 2.308-1.759l3.142-23.183a2.05 2.05 0 1 0-4.065-.552l-3.142 23.184a2.053 2.053 0 0 0 1.757 2.31zM192.728 98.3l-28.134-3.728a2.053 2.053 0 0 0-.539 4.07l28.134 3.729a2.052 2.052 0 0 0 .539-4.07zm1.774-11.316a2.052 2.052 0 0 0-2.3-1.77l-21.108 2.766a2.053 2.053 0 0 0 .532 4.071l21.108-2.765a2.052 2.052 0 0 0 1.768-2.302zM181.317 61.64L161.458 76.87a2.055 2.055 0 0 0 1.25 3.682c.434 0 .873-.138 1.245-.423l19.86-15.228c.898-.69 1.069-1.978.38-2.878a2.05 2.05 0 0 0-2.876-.382zm-5.486-10.917a2.048 2.048 0 0 0 2.877-.375l.18-.235a2.054 2.054 0 0 0-.375-2.88 2.05 2.05 0 0 0-2.876.376l-.181.235a2.054 2.054 0 0 0 .375 2.88zm3.651-4.758a2.048 2.048 0 0 0 2.877-.375l.19-.248a2.054 2.054 0 0 0-.374-2.879 2.05 2.05 0 0 0-2.876.375l-.191.248a2.054 2.054 0 0 0 .374 2.88zM154.04 79.131a2.047 2.047 0 0 0 2.877-.377l18.038-23.492a2.055 2.055 0 0 0-.377-2.88 2.05 2.05 0 0 0-2.876.377l-18.038 23.493c-.691.899-.523 2.188.376 2.879zM92.034 54.697c.69-.899.521-2.188-.377-2.879l-.356-.274a2.05 2.05 0 0 0-2.877.378c-.69.899-.52 2.188.378 2.879l.356.274a2.047 2.047 0 0 0 2.876-.378zm63.86 55.038a2.054 2.054 0 0 1-3.129 2.2l-9.609-6.413-10.357 6.448a2.048 2.048 0 0 1-2.315-.101 2.054 2.054 0 0 1-.743-2.197l3.125-11.128-9.328-7.866a2.054 2.054 0 0 1 1.24-3.622l11.54-.464 4.591-11.31a2.051 2.051 0 0 1 3.824.06l4.008 10.842 12.166.876a2.052 2.052 0 0 1 1.124 3.659l-9.063 7.164 2.927 11.852zm-6.506-14.254l5.952-4.705-8.212-.592a2.051 2.051 0 0 1-1.776-1.335l-2.632-7.12-3.1 7.634a2.051 2.051 0 0 1-1.818 1.278l-7.579.306 6.296 5.31c.615.518.87 1.35.653 2.125l-2.052 7.308 6.991-4.352a2.05 2.05 0 0 1 2.222.035l6.31 4.211-1.975-8a2.055 2.055 0 0 1 .72-2.103zm33.938 47.83a2.05 2.05 0 0 0-2.876-.38c-.899.69-1.07 1.978-.38 2.878l.297.387a2.047 2.047 0 0 0 2.876.38c.899-.69 1.069-1.978.38-2.878l-.297-.387zM93.461 79.266l1.606-1.607 1.606 1.607a2.045 2.045 0 0 0 2.9 0 2.054 2.054 0 0 0 .001-2.903l-1.606-1.608 1.606-1.607a2.054 2.054 0 0 0 0-2.904 2.05 2.05 0 0 0-2.9 0l-1.607 1.608-1.606-1.608a2.05 2.05 0 0 0-2.901 0 2.054 2.054 0 0 0 0 2.904l1.606 1.607-1.606 1.608a2.054 2.054 0 0 0 0 2.903 2.05 2.05 0 0 0 2.901 0zm85.919 58.887l-.296-.387a2.05 2.05 0 0 0-2.876-.38c-.9.69-1.07 1.978-.38 2.878l.296.387a2.047 2.047 0 0 0 2.876.38c.9-.69 1.07-1.978.38-2.878zm16.413-23.75l1.606-1.608a2.054 2.054 0 0 0 0-2.904 2.05 2.05 0 0 0-2.901 0l-1.606 1.608-1.606-1.608a2.05 2.05 0 0 0-2.902 0 2.054 2.054 0 0 0 0 2.903l1.607 1.608-1.606 1.607a2.054 2.054 0 0 0 0 2.904 2.05 2.05 0 0 0 2.901 0l1.606-1.608 1.606 1.608c.4.4.925.601 1.45.601a2.054 2.054 0 0 0 1.45-3.505l-1.605-1.607zm-12.024 8.268l-19.114-14.703a2.05 2.05 0 0 0-2.877.377 2.054 2.054 0 0 0 .377 2.879l19.114 14.703a2.048 2.048 0 0 0 2.877-.377c.69-.9.522-2.188-.377-2.879zm-19.072-3.698a2.05 2.05 0 0 0-2.875-.381c-.9.69-1.07 1.978-.381 2.878l10.199 13.323a2.047 2.047 0 0 0 2.875.381c.9-.69 1.07-1.978.381-2.878l-10.199-13.323zm-40.781-10.73a2.05 2.05 0 0 0-2.876-.382l-19.234 14.749a2.055 2.055 0 0 0 1.25 3.683c.434 0 .873-.138 1.245-.424l19.234-14.748c.9-.69 1.07-1.979.38-2.879zm-20.851 27.194a2.05 2.05 0 0 0-2.901 0l-1.607 1.608-1.606-1.607a2.05 2.05 0 0 0-2.9 0 2.054 2.054 0 0 0 0 2.903l1.605 1.608-1.606 1.607a2.054 2.054 0 0 0 0 2.903 2.05 2.05 0 0 0 2.901 0l1.606-1.607 1.606 1.607c.401.4.926.601 1.45.601a2.054 2.054 0 0 0 1.45-3.505l-1.605-1.607 1.606-1.607a2.054 2.054 0 0 0 .001-2.904zm20.068-39.104a2.055 2.055 0 0 0-2.3-1.77l-27.948 3.662a2.053 2.053 0 0 0 .532 4.071l27.949-3.661a2.053 2.053 0 0 0 1.767-2.302zm25.141 24.075a2.053 2.053 0 0 0-2.308-1.759 2.053 2.053 0 0 0-1.757 2.31l3.142 23.185a2.052 2.052 0 1 0 4.065-.552l-3.142-23.184zm-8.429-1.545a2.052 2.052 0 0 0-2.318 1.746l-3.248 22.984a2.053 2.053 0 0 0 2.033 2.34c1.005 0 1.884-.74 2.028-1.765l3.249-22.984a2.052 2.052 0 0 0-1.744-2.32zm-16.085-.3a2.05 2.05 0 0 0-2.877.378l-10.218 13.307a2.055 2.055 0 0 0 1.625 3.304c.615 0 1.224-.276 1.628-.802l10.218-13.307c.69-.9.522-2.188-.376-2.88zM385.014 291.555c-.108-.746.423-1.436 1.186-1.541.764-.106 1.469.413 1.577 1.16l2.21 15.27c.107.747-.424 1.437-1.187 1.542a1.385 1.385 0 0 1-1.577-1.16l-2.21-15.27zm35.499 4.945l-1.1 1.1a1.406 1.406 0 1 0 1.987 1.988l1.1-1.1 1.1 1.1a1.401 1.401 0 0 0 1.988 0 1.406 1.406 0 0 0 0-1.987l-1.1-1.1 1.1-1.102a1.406 1.406 0 1 0-1.987-1.987l-1.101 1.1-1.1-1.1a1.405 1.405 0 1 0-1.988 1.987l1.1 1.101zm-38.998 16.978c.273.342.684.522 1.1.522.295 0 .59-.09.842-.275a1.297 1.297 0 0 0 .257-1.866l-12.229-15.337a1.423 1.423 0 0 0-1.942-.248 1.297 1.297 0 0 0-.257 1.867l12.229 15.337zm-22.012-11.092l.426.338c.234.186.51.276.783.276a1.27 1.27 0 0 0 1.022-.52 1.361 1.361 0 0 0-.237-1.866l-.426-.338a1.259 1.259 0 0 0-1.804.244 1.36 1.36 0 0 0 .236 1.866zm-.93 15.627c-.761-.108-1.46.466-1.56 1.282-.102.816.434 1.565 1.195 1.674l14.22 2.018c.061.009.123.013.183.013.687 0 1.284-.545 1.377-1.295.1-.816-.435-1.565-1.196-1.673l-14.219-2.019zm4.96-12.741l13.27 9.466c.248.176.54.262.83.262.41 0 .815-.17 1.084-.495.46-.555.348-1.35-.25-1.777l-13.27-9.466c-.597-.426-1.455-.322-1.914.233-.46.555-.348 1.35.25 1.777zm29.692 2.716c.065.008.13.012.193.012.697 0 1.304-.493 1.4-1.172l2.169-15.292c.105-.74-.438-1.423-1.213-1.524-.776-.1-1.487.42-1.593 1.16l-2.168 15.292c-.105.74.438 1.423 1.212 1.524zm30.614 18.881l-18.327-2.855c-.731-.113-1.403.49-1.5 1.352-.097.86.417 1.65 1.149 1.765l18.327 2.855c.06.01.119.014.177.014.66 0 1.234-.575 1.323-1.366.097-.86-.417-1.651-1.149-1.765zm.15-7.569c-.1-.818-.795-1.394-1.552-1.287l-14.233 2.012c-.758.107-1.291.857-1.192 1.675.091.752.685 1.3 1.37 1.3.06 0 .12-.004.18-.013l14.234-2.012c.758-.107 1.291-.857 1.192-1.675zm-7.192-16.037l-13.26 9.451c-.6.428-.715 1.228-.255 1.787.27.327.677.499 1.089.499.29 0 .583-.086.832-.263l13.26-9.451c.6-.428.715-1.228.255-1.787-.46-.558-1.32-.664-1.92-.236zm-4.236-7.557c.26.198.569.294.874.294.431 0 .857-.19 1.14-.554l.127-.162a1.407 1.407 0 0 0-.263-1.99 1.449 1.449 0 0 0-2.014.26l-.127.162a1.407 1.407 0 0 0 .263 1.99zm1.998-3c.26.198.568.294.873.294.43 0 .855-.19 1.137-.552l.133-.171a1.402 1.402 0 0 0-.261-1.983 1.446 1.446 0 0 0-2.01.258l-.133.17a1.402 1.402 0 0 0 .261 1.984zm-16.016 21.017c.252.187.55.277.846.277.417 0 .829-.18 1.103-.523l12.22-15.322a1.307 1.307 0 0 0-.255-1.878 1.425 1.425 0 0 0-1.948.246l-12.221 15.322a1.307 1.307 0 0 0 .255 1.878zm-40.829-15.273a1.424 1.424 0 0 0-.253-1.971l-.24-.188a1.363 1.363 0 0 0-1.935.259 1.424 1.424 0 0 0 .253 1.971l.24.188c.25.196.547.291.84.291.414 0 .824-.19 1.095-.55zm40.79 35.82a1.427 1.427 0 0 1-.527 1.476 1.285 1.285 0 0 1-1.506.02l-6.246-4.356-6.731 4.38a1.289 1.289 0 0 1-1.505-.07 1.43 1.43 0 0 1-.483-1.492l2.03-7.558-6.062-5.343c-.42-.371-.58-.974-.402-1.519a1.342 1.342 0 0 1 1.208-.941l7.5-.316 2.985-7.682a1.335 1.335 0 0 1 1.256-.869c.55.01 1.039.37 1.23.91l2.604 7.364 7.907.595c.55.042 1.017.431 1.179.981a1.433 1.433 0 0 1-.448 1.505l-5.89 4.866 1.902 8.05zm-2.533-9.087L400 322.04l-5.558-.395a1.386 1.386 0 0 1-1.202-.892L391.458 316l-2.098 5.098a1.388 1.388 0 0 1-1.23.853l-5.13.204 4.261 3.545c.417.347.59.902.442 1.42l-1.389 4.88 4.732-2.906a1.403 1.403 0 0 1 1.504.023l4.271 2.812-1.337-5.341c-.13-.523.06-1.072.487-1.405zm21.538 31.354a1.418 1.418 0 0 0-1.961-.254c-.613.46-.73 1.32-.26 1.922l.203.258c.275.352.69.537 1.111.537.297 0 .596-.092.85-.283.613-.46.73-1.32.26-1.922l-.203-.258zm-59.11-41.949l1.101-1.1 1.1 1.1a1.402 1.402 0 0 0 1.988 0 1.405 1.405 0 0 0 0-1.987l-1.1-1.1 1.1-1.102a1.405 1.405 0 1 0-1.988-1.987l-1.1 1.1-1.1-1.1a1.406 1.406 0 0 0-1.988 1.987l1.1 1.101-1.1 1.1a1.405 1.405 0 1 0 1.988 1.988zm56.312 39.207l-.202-.258a1.418 1.418 0 0 0-1.961-.254c-.613.46-.73 1.32-.26 1.922l.203.258c.275.352.69.537 1.111.537.297 0 .596-.092.85-.283.613-.46.73-1.321.26-1.922zm10.777-16.295l1.1-1.1a1.406 1.406 0 1 0-1.987-1.988l-1.1 1.1-1.102-1.1a1.406 1.406 0 0 0-1.987 1.987l1.1 1.101-1.1 1.1a1.406 1.406 0 1 0 1.988 1.988l1.1-1.1 1.1 1.1a1.401 1.401 0 0 0 1.988 0 1.406 1.406 0 0 0 0-1.988l-1.1-1.1zm-7.006 5.152l-12.35-9.38a1.336 1.336 0 0 0-1.857.24 1.3 1.3 0 0 0 .243 1.836l12.35 9.38c.24.184.524.272.806.272.397 0 .79-.176 1.052-.512a1.3 1.3 0 0 0-.244-1.836zm-12.91-2.098a1.448 1.448 0 0 0-2.01-.262 1.4 1.4 0 0 0-.266 1.981l7.131 9.173a1.44 1.44 0 0 0 1.14.554c.304 0 .61-.095.871-.291a1.4 1.4 0 0 0 .266-1.982l-7.131-9.173zm-27.844-7.042a1.326 1.326 0 0 0-1.848-.242l-12.363 9.386a1.299 1.299 0 0 0-.245 1.832c.26.336.651.512 1.047.512.28 0 .562-.088.801-.27l12.363-9.386c.578-.439.688-1.26.245-1.832zm-13.14 17.9a1.405 1.405 0 0 0-1.987 0l-1.101 1.1-1.1-1.1a1.406 1.406 0 1 0-1.988 1.988l1.1 1.1-1.1 1.1a1.405 1.405 0 1 0 1.987 1.988l1.1-1.1 1.101 1.1a1.402 1.402 0 0 0 1.988 0 1.406 1.406 0 0 0 0-1.988l-1.1-1.1 1.1-1.1c.55-.55.55-1.44 0-1.988zm13.4-26.032c-.096-.869-.773-1.48-1.507-1.367l-18.311 2.829c-.736.113-1.255.91-1.158 1.778.088.799.666 1.38 1.33 1.38.059 0 .117-.004.177-.014l18.311-2.828c.736-.114 1.255-.91 1.158-1.778zm16.83 15.792c-.104-.74-.82-1.26-1.593-1.16-.774.1-1.317.783-1.212 1.524l2.168 15.292c.097.68.704 1.172 1.401 1.172.064 0 .128-.004.192-.012.775-.101 1.318-.783 1.213-1.524l-2.168-15.292zm-6.018-1.158c-.761-.106-1.469.413-1.577 1.16l-2.21 15.27c-.107.747.424 1.437 1.187 1.542a1.386 1.386 0 0 0 1.577-1.16l2.209-15.27c.108-.747-.423-1.437-1.186-1.542zm-10.36.279a1.444 1.444 0 0 0-2.008.26l-7.135 9.17a1.403 1.403 0 0 0 .262 1.984c.26.197.568.293.872.293.43 0 .855-.19 1.137-.553l7.135-9.17a1.403 1.403 0 0 0-.263-1.984zM569.014 61.555c-.108-.746.423-1.436 1.186-1.541.764-.106 1.469.413 1.577 1.16l2.21 15.27c.107.747-.424 1.437-1.187 1.542a1.385 1.385 0 0 1-1.577-1.16l-2.21-15.27zm35.499 5.945l-1.1 1.1a1.406 1.406 0 1 0 1.987 1.988l1.1-1.1 1.1 1.1a1.401 1.401 0 0 0 1.988 0 1.406 1.406 0 0 0 0-1.987l-1.1-1.1 1.1-1.102a1.406 1.406 0 1 0-1.987-1.987l-1.101 1.1-1.1-1.1a1.405 1.405 0 1 0-1.988 1.987l1.1 1.101zM565.68 83.478a1.264 1.264 0 0 0 1.813.247 1.358 1.358 0 0 0 .24-1.866l-11.415-15.337a1.269 1.269 0 0 0-1.812-.248 1.358 1.358 0 0 0-.24 1.867l11.414 15.337zm-22.178-11.092l.426.338c.234.186.51.276.783.276a1.27 1.27 0 0 0 1.022-.52 1.361 1.361 0 0 0-.237-1.866l-.426-.338a1.259 1.259 0 0 0-1.804.244 1.36 1.36 0 0 0 .236 1.866zm-1.022 15.627c-.717-.108-1.375.466-1.47 1.282-.094.816.41 1.565 1.126 1.674l13.383 2.018c.058.009.116.013.173.013.646 0 1.208-.545 1.296-1.295.094-.816-.41-1.565-1.126-1.673l-13.382-2.019zm5.052-12.552l13.27 10.255a1.36 1.36 0 0 0 1.914-.252 1.378 1.378 0 0 0-.25-1.925l-13.27-10.255a1.36 1.36 0 0 0-1.914.252 1.377 1.377 0 0 0 .25 1.925zm29.692 2.527c.065.008.13.012.193.012.697 0 1.304-.493 1.4-1.172l2.169-15.292c.105-.74-.438-1.423-1.213-1.524-.776-.1-1.487.42-1.593 1.16l-2.168 15.292c-.105.74.438 1.423 1.212 1.524zm30.614 18.881l-18.327-2.855c-.731-.113-1.403.49-1.5 1.352-.097.86.417 1.65 1.149 1.765l18.327 2.855c.06.01.119.014.177.014.66 0 1.234-.575 1.323-1.366.097-.86-.417-1.651-1.149-1.765zm.15-7.569c-.093-.818-.747-1.394-1.46-1.287l-13.396 2.012c-.713.107-1.215.857-1.122 1.675.086.752.645 1.3 1.29 1.3.056 0 .112-.004.17-.013l13.396-2.012c.713-.107 1.215-.857 1.122-1.675zm-8.192-16.015l-13.26 10.239c-.6.463-.715 1.33-.255 1.935a1.364 1.364 0 0 0 1.92.256l13.261-10.239c.6-.463.715-1.33.255-1.935a1.363 1.363 0 0 0-1.92-.256zm-4.236-7.58c.26.199.569.295.874.295.431 0 .857-.19 1.14-.554l.127-.162a1.407 1.407 0 0 0-.263-1.99 1.449 1.449 0 0 0-2.014.26l-.127.162a1.407 1.407 0 0 0 .263 1.99zm2.998-2.999c.26.198.568.294.873.294.43 0 .855-.19 1.137-.552l.133-.171a1.402 1.402 0 0 0-.261-1.983 1.446 1.446 0 0 0-2.01.258l-.133.17a1.402 1.402 0 0 0 .261 1.984zm-16.052 21.017c.235.187.513.277.79.277.388 0 .773-.18 1.028-.523l11.406-15.322a1.368 1.368 0 0 0-.238-1.878 1.27 1.27 0 0 0-1.818.246l-11.406 15.322a1.368 1.368 0 0 0 .238 1.878zM541.714 68.45a1.424 1.424 0 0 0-.253-1.971l-.24-.188a1.363 1.363 0 0 0-1.935.259 1.424 1.424 0 0 0 .253 1.971l.24.188c.25.196.547.291.84.291.414 0 .824-.19 1.095-.55zm41.79 35.887c.133.538-.077 1.101-.527 1.42a1.327 1.327 0 0 1-1.506.018l-6.246-4.189-6.731 4.212a1.326 1.326 0 0 1-1.505-.067 1.345 1.345 0 0 1-.483-1.435l2.03-7.268-6.062-5.137a1.346 1.346 0 0 1-.402-1.46 1.334 1.334 0 0 1 1.208-.905l7.5-.304 2.985-7.386a1.335 1.335 0 0 1 1.256-.836c.55.009 1.039.357 1.23.876l2.604 7.08 7.907.572c.55.04 1.017.415 1.179.944a1.345 1.345 0 0 1-.448 1.446l-5.89 4.68 1.902 7.74zm-4.296-8.728L583 92.663l-5.231-.37a1.304 1.304 0 0 1-1.132-.836L574.961 87l-1.975 4.779c-.193.467-.646.78-1.158.8L567 92.77l4.01 3.324c.393.325.555.845.417 1.33L570.119 102l4.454-2.725a1.325 1.325 0 0 1 1.415.022l4.02 2.637-1.258-5.008a1.274 1.274 0 0 1 .458-1.317zm22.301 30.928a1.418 1.418 0 0 0-1.961-.254c-.613.46-.73 1.32-.26 1.922l.203.258c.275.352.69.537 1.111.537.297 0 .596-.092.85-.283.613-.46.73-1.32.26-1.922l-.203-.258zm-59.11-41.949l1.101-1.1 1.1 1.1a1.402 1.402 0 0 0 1.988 0 1.405 1.405 0 0 0 0-1.987l-1.1-1.1 1.1-1.102a1.405 1.405 0 1 0-1.988-1.987l-1.1 1.1-1.1-1.1a1.406 1.406 0 0 0-1.988 1.987l1.1 1.101-1.1 1.1a1.405 1.405 0 1 0 1.988 1.988zm56.312 39.207l-.202-.258a1.418 1.418 0 0 0-1.961-.254c-.613.46-.73 1.32-.26 1.922l.203.258c.275.352.69.537 1.111.537.297 0 .596-.092.85-.283.613-.46.73-1.321.26-1.922zm10.777-16.295l1.1-1.1a1.406 1.406 0 1 0-1.987-1.988l-1.1 1.1-1.102-1.1a1.406 1.406 0 0 0-1.987 1.987l1.1 1.101-1.1 1.1a1.406 1.406 0 1 0 1.988 1.988l1.1-1.1 1.1 1.1a1.401 1.401 0 0 0 1.988 0 1.406 1.406 0 0 0 0-1.988l-1.1-1.1zm-8.006 5.956l-12.35-10.162c-.58-.478-1.411-.361-1.857.26-.446.622-.338 1.512.243 1.99l12.35 10.162c.24.198.524.294.806.294.397 0 .79-.19 1.052-.554.445-.622.337-1.513-.244-1.99zm-12.166-2.948a1.288 1.288 0 0 0-1.81-.24 1.3 1.3 0 0 0-.24 1.816l6.418 8.408a1.287 1.287 0 0 0 1.81.24 1.3 1.3 0 0 0 .24-1.816l-6.418-8.408zm-26.588-6.953c-.443-.62-1.27-.739-1.848-.263l-12.363 10.169c-.578.475-.688 1.364-.245 1.984.26.364.651.555 1.047.555.28 0 .562-.095.801-.292l12.363-10.169c.578-.475.688-1.364.245-1.984zm-13.14 17.857a1.405 1.405 0 0 0-1.987 0l-1.101 1.1-1.1-1.1a1.406 1.406 0 1 0-1.988 1.988l1.1 1.1-1.1 1.1a1.405 1.405 0 1 0 1.987 1.988l1.1-1.1 1.101 1.1a1.402 1.402 0 0 0 1.988 0 1.406 1.406 0 0 0 0-1.988l-1.1-1.1 1.1-1.1c.55-.55.55-1.44 0-1.988zm12.4-26.262a1.342 1.342 0 0 0-1.507-1.139l-18.311 2.357a1.326 1.326 0 0 0-1.158 1.482 1.337 1.337 0 0 0 1.507 1.139l18.311-2.357a1.326 1.326 0 0 0 1.158-1.482zm16.83 16.022c-.104-.74-.82-1.26-1.593-1.16-.774.1-1.317.783-1.212 1.524l2.168 15.292c.097.68.704 1.172 1.401 1.172.064 0 .128-.004.192-.012.775-.101 1.318-.783 1.213-1.524l-2.168-15.292zm-6.018-1.158c-.761-.106-1.469.413-1.577 1.16l-2.21 15.27c-.107.747.424 1.437 1.187 1.542a1.386 1.386 0 0 0 1.577-1.16l2.209-15.27c.108-.747-.423-1.437-1.186-1.542zm-10.304.255a1.284 1.284 0 0 0-1.807.238l-6.422 8.406a1.302 1.302 0 0 0 .237 1.818 1.284 1.284 0 0 0 1.808-.238l6.421-8.406a1.302 1.302 0 0 0-.237-1.818z" mask="url(#c)"/>
    </g>
</svg>
