<svg xmlns="http://www.w3.org/2000/svg" xmlns:xlink="http://www.w3.org/1999/xlink" width="210" height="184" viewBox="0 0 210 184">
    <defs>
        <path id="a" d="M.495 3.227V.409h4.083L.495 3.227"/>
        <path id="c" d="M4.271 5.96V.43v5.53M.188 3.386V.43H4.27L.188 3.387"/>
        <path id="e" d="M.465 3.227V.409h4.08v.002L.465 3.227M.46.41V.409h.004L.46.411"/>
        <path id="g" d="M.158 3.227V.409h4.083L.158 3.227"/>
        <path id="i" d="M4.708 25.909H.238v-7.976L27.363.42v2.886L4.708 17.933v7.976m81.373-7.976v-2.887L108.734.42v2.886L86.081 17.933m-27.124 0v-2.887.001L81.607.421l.004-.002v2.886L58.957 17.933m-27.124 0v-2.887L54.486.42v2.886L31.833 17.933"/>
        <path id="k" d="M4.324 10.777H.12L10.566.324V4.53l-6.242 6.246"/>
        <path id="m" d="M5.962 6.15H.334L5.962.517V6.15"/>
        <path id="o" d="M.12 10.777V.324h10.446L.12 10.777"/>
        <path id="q" d="M4.637 10.777H.433L10.878.324V4.53l-6.241 6.246"/>
        <path id="s" d="M6.215 6.15H.025L6.215.517V6.15"/>
        <path id="u" d="M.433 10.777V.324h10.445L.433 10.777"/>
        <path id="w" d="M4.18 10.777H.084L10.258.324V4.53L4.18 10.777"/>
        <path id="y" d="M6.525 6.15H.335L6.525.517V6.15"/>
        <path id="A" d="M.085 10.777V.324h10.173L.085 10.777"/>
        <path id="C" d="M4.603 10.777H.399L10.845.324V4.53l-6.242 6.246"/>
        <path id="E" d="M6.213 6.15H.586L6.213.517V6.15"/>
        <path id="G" d="M.4 10.777V.324h10.445L.399 10.777"/>
        <path id="I" d="M4.324 10.219H.12L10.566.038v4.097L4.324 10.22"/>
        <path id="K" d="M5.962 6.482H.334L5.962.288v6.194"/>
        <path id="M" d="M.12 10.219V.038h10.446L.12 10.218"/>
        <path id="O" d="M4.637 10.219H.433L10.878.038v4.097L4.637 10.22"/>
        <path id="Q" d="M.433 10.219V.038h10.445L.433 10.218"/>
        <path id="S" d="M4.18 10.219H.084L10.258.038v4.097L4.18 10.22"/>
        <path id="U" d="M6.525 6.482H.335L6.525.288v6.194"/>
        <path id="W" d="M.085 10.219V.038h10.173L.085 10.218"/>
        <path id="Y" d="M4.603 10.219H.399L10.845.038v4.097L4.603 10.22"/>
        <path id="aa" d="M6.213 6.482H.586L6.213.288v6.194"/>
        <path id="ac" d="M.4 10.219V.038h10.445L.399 10.218"/>
    </defs>
    <g fill="none" fill-rule="evenodd">
        <path fill="#C3AC86" d="M0 184h209.067v-15.878H0z"/>
        <path fill="#9E8A69" d="M0 176.406h209.067V168H0z"/>
        <path fill="#5D6D8B" d="M37.958 0h83.466c4.47 0 8.09 3.66 8.09 8.173s-3.62 8.173-8.09 8.173h31.016c4.47 0 8.093 3.658 8.093 8.172 0 4.514-3.622 8.172-8.093 8.172H68.974c-4.469 0-8.091-3.658-8.091-8.172 0-4.514 3.622-8.172 8.091-8.172H37.958c-4.469 0-8.091-3.66-8.091-8.173C29.867 3.659 33.489 0 37.958 0"/>
        <path fill="#A3AFC6" d="M43.558 0h83.466c4.469 0 8.09 3.66 8.09 8.173s-3.621 8.173-8.09 8.173h31.016c4.47 0 8.093 3.658 8.093 8.172 0 4.514-3.623 8.172-8.093 8.172H74.574c-4.47 0-8.092-3.658-8.092-8.172 0-4.514 3.623-8.172 8.092-8.172H43.558c-4.47 0-8.091-3.66-8.091-8.173 0-4.514 3.622-8.173 8.09-8.173M24 175.594h108v-42.03H24z"/>
        <path fill="#C13E3C" d="M100.8 125.673v-17.328l-27.066 17.328v-17.328l-27.067 17.328v-17.328L19.6 125.673v7.89h108.267v-25.218L100.8 125.673"/>
        <path fill="#D94847" d="M105.2 125.673v-17.328l-27.066 17.328v-17.328l-27.067 17.328v-17.328L24 125.673v7.89h108.267v-25.218L105.2 125.673"/>
        <path fill="#A3AFC6" d="M135 176.03h54.133V134H135z"/>
        <path fill="#5D6D8B" d="M135 134.34h54.133V125H135z"/>
        <path fill="#534434" d="M152.133 175.594H162.4V146.64h-10.267zM170.8 175.594h1.867V146.64H170.8z"/>
        <path fill="#60513F" d="M162.4 175.594h8.4V146.64h-8.4z"/>
        <path fill="#A3AFC6" d="M164.267 165.32h1.866v-9.34h-1.866z"/>
        <path fill="#5D6D8B" d="M158.667 165.32h1.866v-9.34h-1.866z"/>
        <path fill="#007B9F" d="M43.867 141.97L33.6 152.244h4.132l6.135-6.14v-4.134"/>
        <path fill="#0F90B5" d="M43.867 146.64l-5.6 5.604h5.6v-5.604"/>
        <path fill="#006D85" d="M33.6 152.244l10.267-10.274H33.6v10.274"/>
        <path fill="#007B9F" d="M68.133 141.97l-10.266 10.274h4.132l6.134-6.14v-4.134"/>
        <path fill="#0F90B5" d="M68.133 146.64l-5.6 5.604h5.6v-5.604"/>
        <path fill="#006D85" d="M57.867 152.244l10.266-10.274H57.867v10.274"/>
        <path fill="#007B9F" d="M93.333 141.97l-10.266 10.274h4.132l6.134-6.14v-4.134"/>
        <path fill="#0F90B5" d="M92.4 146.64l-5.6 5.604h5.6v-5.604"/>
        <path fill="#006D85" d="M83.067 152.244l10.266-10.274H83.067v10.274"/>
        <path fill="#007B9F" d="M117.6 141.97l-10.267 10.274h4.132l6.135-6.14v-4.134"/>
        <path fill="#0F90B5" d="M116.667 146.64l-5.6 5.604h5.6v-5.604"/>
        <path fill="#006D85" d="M107.333 152.244L117.6 141.97h-10.267v10.274"/>
        <path fill="#007B9F" d="M43.867 158.782L33.6 169.056h4.132l6.135-6.14v-4.134"/>
        <path fill="#0F90B5" d="M43.867 162.518l-5.6 5.604h5.6v-5.604"/>
        <path fill="#006D85" d="M33.6 169.056l10.267-10.274H33.6v10.274"/>
        <path fill="#007B9F" d="M68.133 158.782l-10.266 10.274h4.132l6.134-6.14v-4.134"/>
        <path fill="#0F90B5" d="M68.133 162.518l-5.6 5.604h5.6v-5.604"/>
        <path fill="#006D85" d="M57.867 169.056l10.266-10.274H57.867v10.274"/>
        <path fill="#007B9F" d="M93.333 158.782l-10.266 10.274h4.132l6.134-6.14v-4.134"/>
        <path fill="#0F90B5" d="M92.4 162.518l-5.6 5.604h5.6v-5.604"/>
        <path fill="#006D85" d="M83.067 169.056l10.266-10.274H83.067v10.274"/>
        <path fill="#007B9F" d="M117.6 158.782l-10.267 10.274h4.132l6.135-6.14v-4.134"/>
        <path fill="#0F90B5" d="M116.667 162.518l-5.6 5.604h5.6v-5.604"/>
        <path fill="#006D85" d="M107.333 169.056l10.267-10.274h-10.267v10.274"/>
        <path fill="#5D6D8B" d="M19.6 175.528h4.667v-42.03H19.6z"/>
        <path fill="#555D5B" d="M153.74 116H150v9h13v-9h-9.26"/>
        <path fill="#727A7A" d="M162 125h13v-9h-13z"/>
        <path fill="#A3AFC6" d="M162.4 78.457h-7.967L154 91.533h8.4V78.457"/>
        <path fill="#E6EBF5" d="M162.4 91.533h8.4l-.463-13.076H162.4v13.076"/>
        <path fill="#D94847" d="M162 104.61h9.333l-.471-13.077H162v13.076"/>
        <path fill="#C13E3C" d="M162.43 91.533h-8.505l-.425 13.076h8.93V91.533"/>
        <path fill="#A3AFC6" d="M162.4 104h-8.942l-.391 12h9.333v-12"/>
        <path fill="#E6EBF5" d="M162.4 116h9.333l-.415-12H162.4v12"/>
        <path fill="#D94847" d="M161.9 78.457h8.4l-.469-13.076H161.9v13.076"/>
        <path fill="#C13E3C" d="M162.9 65.38h-8.053l-.447 13.077h8.5V65.38"/>
        <path fill="#D94847" d="M169.367 52.305l-.456-12.143H161.9v12.143h7.467"/>
        <path fill="#C13E3C" d="M162.697 40.162h-7.047l-.42 12.143h7.467V40.162"/>
        <path fill="#A3AFC6" d="M162.297 52.239h-7.052l-.415 13.076h7.467V52.239"/>
        <path fill="#E6EBF5" d="M162.4 65.315h7.467l-.446-13.076H162.4v13.076"/>
        <path fill="#9F3133" d="M168.93 40.162H155.6l-.13 3.736h13.6l-.14-3.736"/>
        <path fill="#555D5B" d="M150 125h25v-3h-25z"/>
        <path fill="#182844" d="M131.6 134.497h3.733v-9.34H131.6z"/>
        <path fill="#5D6D8B" d="M131.6 176.528h3.733v-42.03H131.6z"/>
        <g transform="translate(45.733 108.345)">
            <mask id="b" fill="#fff">
                <use xlink:href="#a"/>
            </mask>
            <path d="M.495 3.227V.409h4.083L.495 3.227" mask="url(#b)"/>
        </g>
        <g transform="translate(72.8 108.345)">
            <mask id="d" fill="#fff">
                <use xlink:href="#c"/>
            </mask>
            <path d="M4.271 5.96V.43v5.53M.188 3.386V.43H4.27L.188 3.387" mask="url(#d)"/>
        </g>
        <g transform="translate(99.867 108.345)">
            <mask id="f" fill="#fff">
                <use xlink:href="#e"/>
            </mask>
            <path d="M.465 3.227V.409h4.08v.002L.465 3.227M.46.41V.409h.004L.46.411" mask="url(#f)"/>
        </g>
        <g transform="translate(126.933 108.345)">
            <mask id="h" fill="#fff">
                <use xlink:href="#g"/>
            </mask>
            <path d="M.158 3.227V.409h4.083L.158 3.227" mask="url(#h)"/>
        </g>
        <g transform="translate(18.667 108.345)">
            <mask id="j" fill="#fff">
                <use xlink:href="#i"/>
            </mask>
            <path d="M4.708 25.909H.238v-7.976L27.363.42v2.886L4.708 17.933v7.976m81.373-7.976v-2.887L108.734.42v2.886L86.081 17.933m-27.124 0v-2.887.001L81.607.421l.004-.002v2.886L58.957 17.933m-27.124 0v-2.887L54.486.42v2.886L31.833 17.933" mask="url(#j)"/>
        </g>
        <g transform="translate(33.6 141.97)">
            <mask id="l" fill="#fff">
                <use xlink:href="#k"/>
            </mask>
            <path d="M4.324 10.777H.12L10.566.324V4.53l-6.242 6.246" mask="url(#l)"/>
        </g>
        <g transform="translate(37.333 145.706)">
            <mask id="n" fill="#fff">
                <use xlink:href="#m"/>
            </mask>
            <path d="M5.962 6.15H.334L5.962.517V6.15" mask="url(#n)"/>
        </g>
        <g transform="translate(33.6 141.97)">
            <mask id="p" fill="#fff">
                <use xlink:href="#o"/>
            </mask>
            <path d="M.12 10.777V.324h10.446L.12 10.777" mask="url(#p)"/>
        </g>
        <g transform="translate(57.867 141.97)">
            <mask id="r" fill="#fff">
                <use xlink:href="#q"/>
            </mask>
            <path d="M4.637 10.777H.433L10.878.324V4.53l-6.241 6.246" mask="url(#r)"/>
        </g>
        <g transform="translate(62.533 145.706)">
            <mask id="t" fill="#fff">
                <use xlink:href="#s"/>
            </mask>
            <path d="M6.215 6.15H.025L6.215.517V6.15" mask="url(#t)"/>
        </g>
        <g transform="translate(57.867 141.97)">
            <mask id="v" fill="#fff">
                <use xlink:href="#u"/>
            </mask>
            <path d="M.433 10.777V.324h10.445L.433 10.777" mask="url(#v)"/>
        </g>
        <g transform="translate(83.067 141.97)">
            <mask id="x" fill="#fff">
                <use xlink:href="#w"/>
            </mask>
            <path d="M4.18 10.777H.084L10.258.324V4.53L4.18 10.777" mask="url(#x)"/>
        </g>
        <g transform="translate(86.8 145.706)">
            <mask id="z" fill="#fff">
                <use xlink:href="#y"/>
            </mask>
            <path d="M6.525 6.15H.335L6.525.517V6.15" mask="url(#z)"/>
        </g>
        <g transform="translate(83.067 141.97)">
            <mask id="B" fill="#fff">
                <use xlink:href="#A"/>
            </mask>
            <path d="M.085 10.777V.324h10.173L.085 10.777" mask="url(#B)"/>
        </g>
        <g transform="translate(107.333 141.97)">
            <mask id="D" fill="#fff">
                <use xlink:href="#C"/>
            </mask>
            <path d="M4.603 10.777H.399L10.845.324V4.53l-6.242 6.246" mask="url(#D)"/>
        </g>
        <g transform="translate(111.067 145.706)">
            <mask id="F" fill="#fff">
                <use xlink:href="#E"/>
            </mask>
            <path d="M6.213 6.15H.586L6.213.517V6.15" mask="url(#F)"/>
        </g>
        <g transform="translate(107.333 141.97)">
            <mask id="H" fill="#fff">
                <use xlink:href="#G"/>
            </mask>
            <path d="M.4 10.777V.324h10.445L.399 10.777" mask="url(#H)"/>
        </g>
        <g transform="translate(33.6 158.782)">
            <mask id="J" fill="#fff">
                <use xlink:href="#I"/>
            </mask>
            <path d="M4.324 10.219H.12L10.566.038v4.097L4.324 10.22" mask="url(#J)"/>
        </g>
        <g transform="translate(37.333 162.518)">
            <mask id="L" fill="#fff">
                <use xlink:href="#K"/>
            </mask>
            <path d="M5.962 6.482H.334L5.962.288v6.194" mask="url(#L)"/>
        </g>
        <g transform="translate(33.6 158.782)">
            <mask id="N" fill="#fff">
                <use xlink:href="#M"/>
            </mask>
            <path d="M.12 10.219V.038h10.446L.12 10.218" mask="url(#N)"/>
        </g>
        <g transform="translate(57.867 158.782)">
            <mask id="P" fill="#fff">
                <use xlink:href="#O"/>
            </mask>
            <path d="M4.637 10.219H.433L10.878.038v4.097L4.637 10.22" mask="url(#P)"/>
        </g>
        <g transform="translate(57.867 158.782)">
            <mask id="R" fill="#fff">
                <use xlink:href="#Q"/>
            </mask>
            <path d="M.433 10.219V.038h10.445L.433 10.218" mask="url(#R)"/>
        </g>
        <g transform="translate(83.067 158.782)">
            <mask id="T" fill="#fff">
                <use xlink:href="#S"/>
            </mask>
            <path d="M4.18 10.219H.084L10.258.038v4.097L4.18 10.22" mask="url(#T)"/>
        </g>
        <g transform="translate(86.8 162.518)">
            <mask id="V" fill="#fff">
                <use xlink:href="#U"/>
            </mask>
            <path d="M6.525 6.482H.335L6.525.288v6.194" mask="url(#V)"/>
        </g>
        <g transform="translate(83.067 158.782)">
            <mask id="X" fill="#fff">
                <use xlink:href="#W"/>
            </mask>
            <path d="M.085 10.219V.038h10.173L.085 10.218" mask="url(#X)"/>
        </g>
        <g transform="translate(107.333 158.782)">
            <mask id="Z" fill="#fff">
                <use xlink:href="#Y"/>
            </mask>
            <path d="M4.603 10.219H.399L10.845.038v4.097L4.603 10.22" mask="url(#Z)"/>
        </g>
        <g transform="translate(111.067 162.518)">
            <mask id="ab" fill="#fff">
                <use xlink:href="#aa"/>
            </mask>
            <path d="M6.213 6.482H.586L6.213.288v6.194" mask="url(#ab)"/>
        </g>
        <g transform="translate(107.333 158.782)">
            <mask id="ad" fill="#fff">
                <use xlink:href="#ac"/>
            </mask>
            <path d="M.4 10.219V.038h10.445L.399 10.218" mask="url(#ad)"/>
        </g>
    </g>
</svg>
