<?xml version="1.0" encoding="UTF-8" standalone="no"?>
<!DOCTYPE svg PUBLIC "-//W3C//DTD SVG 1.1//EN"
 "http://www.w3.org/Graphics/SVG/1.1/DTD/svg11.dtd">
<!-- Generated by graphviz version 2.40.1 (20161225.0304)
 -->
<!-- Title: dependencies Pages: 1 -->
<svg width="1234pt" height="284pt"
 viewBox="0.00 0.00 1234.00 284.00" xmlns="http://www.w3.org/2000/svg" xmlns:xlink="http://www.w3.org/1999/xlink">
<g id="graph0" class="graph" transform="scale(1 1) rotate(0) translate(4 280)">
<title>dependencies</title>
<polygon fill="#ffffff" stroke="transparent" points="-4,4 -4,-280 1230,-280 1230,4 -4,4"/>
<text text-anchor="start" x="592.0091" y="-42.4" font-family="sans-serif" font-weight="bold" font-size="14.00" fill="#000000">Legend</text>
<polygon fill="#ffffb3" stroke="transparent" points="379,-10 379,-30 399,-30 399,-10 379,-10"/>
<text text-anchor="start" x="402.629" y="-15.4" font-family="sans-serif" font-size="14.00" fill="#000000"> &#160;Declarations</text>
<polygon fill="#8dd3c7" stroke="transparent" points="492,-10 492,-30 512,-30 512,-10 492,-10"/>
<text text-anchor="start" x="515.7251" y="-15.4" font-family="sans-serif" font-size="14.00" fill="#000000"> &#160;Module</text>
<polygon fill="#80b1d3" stroke="transparent" points="578,-10 578,-30 598,-30 598,-10 578,-10"/>
<text text-anchor="start" x="601.7812" y="-15.4" font-family="sans-serif" font-size="14.00" fill="#000000"> &#160;Bootstrap</text>
<polygon fill="#fdb462" stroke="transparent" points="675,-10 675,-30 695,-30 695,-10 675,-10"/>
<text text-anchor="start" x="698.6732" y="-15.4" font-family="sans-serif" font-size="14.00" fill="#000000"> &#160;Providers</text>
<polygon fill="#fb8072" stroke="transparent" points="771,-10 771,-30 791,-30 791,-10 771,-10"/>
<text text-anchor="start" x="794.7258" y="-15.4" font-family="sans-serif" font-size="14.00" fill="#000000"> &#160;Exports</text>
<g id="clust1" class="cluster">
<title>cluster_SelectorsModule</title>
<polygon fill="none" stroke="#000000" stroke-dasharray="1,5" points="8,-70 8,-268 1218,-268 1218,-70 8,-70"/>
</g>
<g id="clust2" class="cluster">
<title>cluster_SelectorsModule_declarations</title>
<polygon fill="none" stroke="#000000" points="239,-78 239,-130 1210,-130 1210,-78 239,-78"/>
</g>
<g id="clust10" class="cluster">
<title>cluster_SelectorsModule_imports</title>
<polygon fill="none" stroke="#000000" points="16,-78 16,-130 231,-130 231,-78 16,-78"/>
</g>
<g id="clust11" class="cluster">
<title>cluster_SelectorsModule_exports</title>
<polygon fill="none" stroke="#000000" points="107,-208 107,-260 1103,-260 1103,-208 107,-208"/>
</g>
<!-- CheckboxComponent -->
<g id="node1" class="node">
<title>CheckboxComponent</title>
<polygon fill="#ffffb3" stroke="#000000" points="1202.0982,-122 1063.9018,-122 1063.9018,-86 1202.0982,-86 1202.0982,-122"/>
<text text-anchor="middle" x="1133" y="-99.8" font-family="Times,serif" font-size="14.00" fill="#000000">CheckboxComponent</text>
</g>
<!-- SelectorsModule -->
<g id="node8" class="node">
<title>SelectorsModule</title>
<polygon fill="#8dd3c7" stroke="#000000" points="641.3627,-187 638.3627,-191 617.3627,-191 614.3627,-187 530.6373,-187 530.6373,-151 641.3627,-151 641.3627,-187"/>
<text text-anchor="middle" x="586" y="-164.8" font-family="Times,serif" font-size="14.00" fill="#000000">SelectorsModule</text>
</g>
<!-- CheckboxComponent&#45;&gt;SelectorsModule -->
<g id="edge1" class="edge">
<title>CheckboxComponent&#45;&gt;SelectorsModule</title>
<path fill="none" stroke="#000000" d="M1079.375,-122.1061C1079.375,-141.3391 1079.375,-169 1079.375,-169 1079.375,-169 651.6373,-169 651.6373,-169"/>
<polygon fill="#000000" stroke="#000000" points="651.6374,-165.5001 641.6373,-169 651.6373,-172.5001 651.6374,-165.5001"/>
</g>
<!-- ErrorComponent -->
<g id="node2" class="node">
<title>ErrorComponent</title>
<polygon fill="#ffffb3" stroke="#000000" points="1046.3669,-122 935.6331,-122 935.6331,-86 1046.3669,-86 1046.3669,-122"/>
<text text-anchor="middle" x="991" y="-99.8" font-family="Times,serif" font-size="14.00" fill="#000000">ErrorComponent</text>
</g>
<!-- ErrorComponent&#45;&gt;SelectorsModule -->
<g id="edge2" class="edge">
<title>ErrorComponent&#45;&gt;SelectorsModule</title>
<path fill="none" stroke="#000000" d="M944.3838,-122.302C944.3838,-140.2699 944.3838,-165 944.3838,-165 944.3838,-165 651.6042,-165 651.6042,-165"/>
<polygon fill="#000000" stroke="#000000" points="651.6043,-161.5001 641.6042,-165 651.6042,-168.5001 651.6043,-161.5001"/>
</g>
<!-- FormFieldComponent -->
<g id="node3" class="node">
<title>FormFieldComponent</title>
<polygon fill="#ffffb3" stroke="#000000" points="917.4453,-122 776.5547,-122 776.5547,-86 917.4453,-86 917.4453,-122"/>
<text text-anchor="middle" x="847" y="-99.8" font-family="Times,serif" font-size="14.00" fill="#000000">FormFieldComponent</text>
</g>
<!-- FormFieldComponent&#45;&gt;SelectorsModule -->
<g id="edge3" class="edge">
<title>FormFieldComponent&#45;&gt;SelectorsModule</title>
<path fill="none" stroke="#000000" d="M789.875,-122.027C789.875,-138.3976 789.875,-160 789.875,-160 789.875,-160 651.4404,-160 651.4404,-160"/>
<polygon fill="#000000" stroke="#000000" points="651.4405,-156.5001 641.4404,-160 651.4404,-163.5001 651.4405,-156.5001"/>
</g>
<!-- HintComponent -->
<g id="node4" class="node">
<title>HintComponent</title>
<polygon fill="#ffffb3" stroke="#000000" points="759.2204,-122 652.7796,-122 652.7796,-86 759.2204,-86 759.2204,-122"/>
<text text-anchor="middle" x="706" y="-99.8" font-family="Times,serif" font-size="14.00" fill="#000000">HintComponent</text>
</g>
<!-- HintComponent&#45;&gt;SelectorsModule -->
<g id="edge4" class="edge">
<title>HintComponent&#45;&gt;SelectorsModule</title>
<path fill="none" stroke="#000000" d="M725.7493,-122.1871C725.7493,-137.1824 725.7493,-156 725.7493,-156 725.7493,-156 651.6342,-156 651.6342,-156"/>
<polygon fill="#000000" stroke="#000000" points="651.6342,-152.5001 641.6342,-156 651.6341,-159.5001 651.6342,-152.5001"/>
</g>
<!-- InputDirective -->
<g id="node5" class="node">
<title>InputDirective</title>
<polygon fill="#ffffb3" stroke="#000000" points="634.6347,-122 537.3653,-122 537.3653,-86 634.6347,-86 634.6347,-122"/>
<text text-anchor="middle" x="586" y="-99.8" font-family="Times,serif" font-size="14.00" fill="#000000">InputDirective</text>
</g>
<!-- InputDirective&#45;&gt;SelectorsModule -->
<g id="edge5" class="edge">
<title>InputDirective&#45;&gt;SelectorsModule</title>
<path fill="none" stroke="#000000" d="M586,-122.1061C586,-122.1061 586,-140.991 586,-140.991"/>
<polygon fill="#000000" stroke="#000000" points="582.5001,-140.9909 586,-150.991 589.5001,-140.991 582.5001,-140.9909"/>
</g>
<!-- LabelComponent -->
<g id="node6" class="node">
<title>LabelComponent</title>
<polygon fill="#ffffb3" stroke="#000000" points="519.705,-122 406.295,-122 406.295,-86 519.705,-86 519.705,-122"/>
<text text-anchor="middle" x="463" y="-99.8" font-family="Times,serif" font-size="14.00" fill="#000000">LabelComponent</text>
</g>
<!-- LabelComponent&#45;&gt;SelectorsModule -->
<g id="edge6" class="edge">
<title>LabelComponent&#45;&gt;SelectorsModule</title>
<path fill="none" stroke="#000000" d="M446.1443,-122.1871C446.1443,-137.1824 446.1443,-156 446.1443,-156 446.1443,-156 520.3235,-156 520.3235,-156"/>
<polygon fill="#000000" stroke="#000000" points="520.3235,-159.5001 530.3235,-156 520.3234,-152.5001 520.3235,-159.5001"/>
</g>
<!-- RestrictInputDirective -->
<g id="node7" class="node">
<title>RestrictInputDirective</title>
<polygon fill="#ffffb3" stroke="#000000" points="388.6769,-122 247.3231,-122 247.3231,-86 388.6769,-86 388.6769,-122"/>
<text text-anchor="middle" x="318" y="-99.8" font-family="Times,serif" font-size="14.00" fill="#000000">RestrictInputDirective</text>
</g>
<!-- RestrictInputDirective&#45;&gt;SelectorsModule -->
<g id="edge7" class="edge">
<title>RestrictInputDirective&#45;&gt;SelectorsModule</title>
<path fill="none" stroke="#000000" d="M314.6279,-122.027C314.6279,-138.3976 314.6279,-160 314.6279,-160 314.6279,-160 520.429,-160 520.429,-160"/>
<polygon fill="#000000" stroke="#000000" points="520.429,-163.5001 530.429,-160 520.4289,-156.5001 520.429,-163.5001"/>
</g>
<!-- CheckboxComponent  -->
<g id="node11" class="node">
<title>CheckboxComponent </title>
<polygon fill="#fb8072" stroke="#000000" points="1094.5988,-252 953.4012,-252 953.4012,-216 1094.5988,-216 1094.5988,-252"/>
<text text-anchor="middle" x="1024" y="-229.8" font-family="Times,serif" font-size="14.00" fill="#000000">CheckboxComponent </text>
</g>
<!-- SelectorsModule&#45;&gt;CheckboxComponent  -->
<g id="edge10" class="edge">
<title>SelectorsModule&#45;&gt;CheckboxComponent </title>
<path fill="none" stroke="#000000" stroke-dasharray="5,2" d="M641.3798,-174C754.1412,-174 999.8172,-174 999.8172,-174 999.8172,-174 999.8172,-205.998 999.8172,-205.998"/>
<polygon fill="#000000" stroke="#000000" points="996.3172,-205.998 999.8172,-215.998 1003.3172,-205.9981 996.3172,-205.998"/>
</g>
<!-- ErrorComponent  -->
<g id="node12" class="node">
<title>ErrorComponent </title>
<polygon fill="#fb8072" stroke="#000000" points="935.3674,-252 820.6326,-252 820.6326,-216 935.3674,-216 935.3674,-252"/>
<text text-anchor="middle" x="878" y="-229.8" font-family="Times,serif" font-size="14.00" fill="#000000">ErrorComponent </text>
</g>
<!-- SelectorsModule&#45;&gt;ErrorComponent  -->
<g id="edge11" class="edge">
<title>SelectorsModule&#45;&gt;ErrorComponent </title>
<path fill="none" stroke="#000000" stroke-dasharray="5,2" d="M641.5778,-178C724.0006,-178 869.0195,-178 869.0195,-178 869.0195,-178 869.0195,-205.973 869.0195,-205.973"/>
<polygon fill="#000000" stroke="#000000" points="865.5195,-205.973 869.0195,-215.973 872.5195,-205.973 865.5195,-205.973"/>
</g>
<!-- FormFieldComponent  -->
<g id="node13" class="node">
<title>FormFieldComponent </title>
<polygon fill="#fb8072" stroke="#000000" points="802.9446,-252 659.0554,-252 659.0554,-216 802.9446,-216 802.9446,-252"/>
<text text-anchor="middle" x="731" y="-229.8" font-family="Times,serif" font-size="14.00" fill="#000000">FormFieldComponent </text>
</g>
<!-- SelectorsModule&#45;&gt;FormFieldComponent  -->
<g id="edge12" class="edge">
<title>SelectorsModule&#45;&gt;FormFieldComponent </title>
<path fill="none" stroke="#000000" stroke-dasharray="5,2" d="M641.3755,-183C667.226,-183 692.3885,-183 692.3885,-183 692.3885,-183 692.3885,-205.8757 692.3885,-205.8757"/>
<polygon fill="#000000" stroke="#000000" points="688.8886,-205.8757 692.3885,-215.8757 695.8886,-205.8757 688.8886,-205.8757"/>
</g>
<!-- HintComponent  -->
<g id="node14" class="node">
<title>HintComponent </title>
<polygon fill="#fb8072" stroke="#000000" points="640.7206,-252 531.2794,-252 531.2794,-216 640.7206,-216 640.7206,-252"/>
<text text-anchor="middle" x="586" y="-229.8" font-family="Times,serif" font-size="14.00" fill="#000000">HintComponent </text>
</g>
<!-- SelectorsModule&#45;&gt;HintComponent  -->
<g id="edge13" class="edge">
<title>SelectorsModule&#45;&gt;HintComponent </title>
<path fill="none" stroke="#000000" stroke-dasharray="5,2" d="M586,-187.1061C586,-187.1061 586,-205.991 586,-205.991"/>
<polygon fill="#000000" stroke="#000000" points="582.5001,-205.9909 586,-215.991 589.5001,-205.991 582.5001,-205.9909"/>
</g>
<!-- InputDirective  -->
<g id="node15" class="node">
<title>InputDirective </title>
<polygon fill="#fb8072" stroke="#000000" points="513.6341,-252 412.3659,-252 412.3659,-216 513.6341,-216 513.6341,-252"/>
<text text-anchor="middle" x="463" y="-229.8" font-family="Times,serif" font-size="14.00" fill="#000000">InputDirective </text>
</g>
<!-- SelectorsModule&#45;&gt;InputDirective  -->
<g id="edge14" class="edge">
<title>SelectorsModule&#45;&gt;InputDirective </title>
<path fill="none" stroke="#000000" stroke-dasharray="5,2" d="M530.4409,-183C504.7592,-183 479.8557,-183 479.8557,-183 479.8557,-183 479.8557,-205.8757 479.8557,-205.8757"/>
<polygon fill="#000000" stroke="#000000" points="476.3558,-205.8757 479.8557,-215.8757 483.3558,-205.8757 476.3558,-205.8757"/>
</g>
<!-- LabelComponent  -->
<g id="node16" class="node">
<title>LabelComponent </title>
<polygon fill="#fb8072" stroke="#000000" points="394.2052,-252 277.7948,-252 277.7948,-216 394.2052,-216 394.2052,-252"/>
<text text-anchor="middle" x="336" y="-229.8" font-family="Times,serif" font-size="14.00" fill="#000000">LabelComponent </text>
</g>
<!-- SelectorsModule&#45;&gt;LabelComponent  -->
<g id="edge15" class="edge">
<title>SelectorsModule&#45;&gt;LabelComponent </title>
<path fill="none" stroke="#000000" stroke-dasharray="5,2" d="M530.4524,-178C461.1395,-178 351.6081,-178 351.6081,-178 351.6081,-178 351.6081,-205.973 351.6081,-205.973"/>
<polygon fill="#000000" stroke="#000000" points="348.1082,-205.973 351.6081,-215.973 355.1082,-205.973 348.1082,-205.973"/>
</g>
<!-- RestrictInputDirective  -->
<g id="node17" class="node">
<title>RestrictInputDirective </title>
<polygon fill="#fb8072" stroke="#000000" points="259.1772,-252 114.8228,-252 114.8228,-216 259.1772,-216 259.1772,-252"/>
<text text-anchor="middle" x="187" y="-229.8" font-family="Times,serif" font-size="14.00" fill="#000000">RestrictInputDirective </text>
</g>
<!-- SelectorsModule&#45;&gt;RestrictInputDirective  -->
<g id="edge16" class="edge">
<title>SelectorsModule&#45;&gt;RestrictInputDirective </title>
<path fill="none" stroke="#000000" stroke-dasharray="5,2" d="M530.3261,-174C435.6358,-174 253.375,-174 253.375,-174 253.375,-174 253.375,-205.998 253.375,-205.998"/>
<polygon fill="#000000" stroke="#000000" points="249.8751,-205.998 253.375,-215.998 256.8751,-205.9981 249.8751,-205.998"/>
</g>
<!-- InputsModule -->
<g id="node9" class="node">
<title>InputsModule</title>
<polygon fill="#8dd3c7" stroke="#000000" points="223.0467,-122 220.0467,-126 199.0467,-126 196.0467,-122 128.9533,-122 128.9533,-86 223.0467,-86 223.0467,-122"/>
<text text-anchor="middle" x="176" y="-99.8" font-family="Times,serif" font-size="14.00" fill="#000000">InputsModule</text>
</g>
<!-- InputsModule&#45;&gt;SelectorsModule -->
<g id="edge8" class="edge">
<title>InputsModule&#45;&gt;SelectorsModule</title>
<path fill="none" stroke="#000000" d="M176,-122.302C176,-140.2699 176,-165 176,-165 176,-165 520.2789,-165 520.2789,-165"/>
<polygon fill="#000000" stroke="#000000" points="520.2789,-168.5001 530.2789,-165 520.2788,-161.5001 520.2789,-168.5001"/>
</g>
<!-- UtilsModule -->
<g id="node10" class="node">
<title>UtilsModule</title>
<polygon fill="#8dd3c7" stroke="#000000" points="110.2731,-122 107.2731,-126 86.2731,-126 83.2731,-122 23.7269,-122 23.7269,-86 110.2731,-86 110.2731,-122"/>
<text text-anchor="middle" x="67" y="-99.8" font-family="Times,serif" font-size="14.00" fill="#000000">UtilsModule</text>
</g>
<!-- UtilsModule&#45;&gt;SelectorsModule -->
<g id="edge9" class="edge">
<title>UtilsModule&#45;&gt;SelectorsModule</title>
<path fill="none" stroke="#000000" d="M67,-122.1061C67,-141.3391 67,-169 67,-169 67,-169 520.4579,-169 520.4579,-169"/>
<polygon fill="#000000" stroke="#000000" points="520.4579,-172.5001 530.4579,-169 520.4579,-165.5001 520.4579,-172.5001"/>
</g>
</g>
</svg>
