<?xml version="1.0" encoding="UTF-8" standalone="no"?>
<!DOCTYPE svg PUBLIC "-//W3C//DTD SVG 1.1//EN"
 "http://www.w3.org/Graphics/SVG/1.1/DTD/svg11.dtd">
<!-- Generated by graphviz version 2.40.1 (20161225.0304)
 -->
<!-- Title: dependencies Pages: 1 -->
<svg width="1185pt" height="284pt"
 viewBox="0.00 0.00 1185.00 284.00" xmlns="http://www.w3.org/2000/svg" xmlns:xlink="http://www.w3.org/1999/xlink">
<g id="graph0" class="graph" transform="scale(1 1) rotate(0) translate(4 280)">
<title>dependencies</title>
<polygon fill="#ffffff" stroke="transparent" points="-4,4 -4,-280 1181,-280 1181,4 -4,4"/>
<text text-anchor="start" x="567.5091" y="-42.4" font-family="sans-serif" font-weight="bold" font-size="14.00" fill="#000000">Legend</text>
<polygon fill="#ffffb3" stroke="transparent" points="354.5,-10 354.5,-30 374.5,-30 374.5,-10 354.5,-10"/>
<text text-anchor="start" x="378.129" y="-15.4" font-family="sans-serif" font-size="14.00" fill="#000000"> &#160;Declarations</text>
<polygon fill="#8dd3c7" stroke="transparent" points="467.5,-10 467.5,-30 487.5,-30 487.5,-10 467.5,-10"/>
<text text-anchor="start" x="491.2251" y="-15.4" font-family="sans-serif" font-size="14.00" fill="#000000"> &#160;Module</text>
<polygon fill="#80b1d3" stroke="transparent" points="553.5,-10 553.5,-30 573.5,-30 573.5,-10 553.5,-10"/>
<text text-anchor="start" x="577.2812" y="-15.4" font-family="sans-serif" font-size="14.00" fill="#000000"> &#160;Bootstrap</text>
<polygon fill="#fdb462" stroke="transparent" points="650.5,-10 650.5,-30 670.5,-30 670.5,-10 650.5,-10"/>
<text text-anchor="start" x="674.1732" y="-15.4" font-family="sans-serif" font-size="14.00" fill="#000000"> &#160;Providers</text>
<polygon fill="#fb8072" stroke="transparent" points="746.5,-10 746.5,-30 766.5,-30 766.5,-10 746.5,-10"/>
<text text-anchor="start" x="770.2258" y="-15.4" font-family="sans-serif" font-size="14.00" fill="#000000"> &#160;Exports</text>
<g id="clust1" class="cluster">
<title>cluster_TasksModule</title>
<polygon fill="none" stroke="#000000" stroke-dasharray="1,5" points="8,-70 8,-268 1169,-268 1169,-70 8,-70"/>
</g>
<g id="clust2" class="cluster">
<title>cluster_TasksModule_declarations</title>
<polygon fill="none" stroke="#000000" points="645,-78 645,-130 1161,-130 1161,-78 645,-78"/>
</g>
<g id="clust6" class="cluster">
<title>cluster_TasksModule_imports</title>
<polygon fill="none" stroke="#000000" points="16,-78 16,-130 637,-130 637,-78 16,-78"/>
</g>
<g id="clust7" class="cluster">
<title>cluster_TasksModule_exports</title>
<polygon fill="none" stroke="#000000" points="420,-208 420,-260 606,-260 606,-208 420,-208"/>
</g>
<!-- NewTaskDlgComponent -->
<g id="node1" class="node">
<title>NewTaskDlgComponent</title>
<polygon fill="#ffffb3" stroke="#000000" points="1152.9692,-122 997.0308,-122 997.0308,-86 1152.9692,-86 1152.9692,-122"/>
<text text-anchor="middle" x="1075" y="-99.8" font-family="Times,serif" font-size="14.00" fill="#000000">NewTaskDlgComponent</text>
</g>
<!-- TasksModule -->
<g id="node4" class="node">
<title>TasksModule</title>
<polygon fill="#8dd3c7" stroke="#000000" points="559.2064,-187 556.2064,-191 535.2064,-191 532.2064,-187 466.7936,-187 466.7936,-151 559.2064,-151 559.2064,-187"/>
<text text-anchor="middle" x="513" y="-164.8" font-family="Times,serif" font-size="14.00" fill="#000000">TasksModule</text>
</g>
<!-- NewTaskDlgComponent&#45;&gt;TasksModule -->
<g id="edge1" class="edge">
<title>NewTaskDlgComponent&#45;&gt;TasksModule</title>
<path fill="none" stroke="#000000" d="M1075,-122.2921C1075,-144.2057 1075,-178 1075,-178 1075,-178 569.469,-178 569.469,-178"/>
<polygon fill="#000000" stroke="#000000" points="569.469,-174.5001 559.469,-178 569.4689,-181.5001 569.469,-174.5001"/>
</g>
<!-- TasksListViewComponent -->
<g id="node2" class="node">
<title>TasksListViewComponent</title>
<polygon fill="#ffffb3" stroke="#000000" points="979.0856,-122 812.9144,-122 812.9144,-86 979.0856,-86 979.0856,-122"/>
<text text-anchor="middle" x="896" y="-99.8" font-family="Times,serif" font-size="14.00" fill="#000000">TasksListViewComponent</text>
</g>
<!-- TasksListViewComponent&#45;&gt;TasksModule -->
<g id="edge2" class="edge">
<title>TasksListViewComponent&#45;&gt;TasksModule</title>
<path fill="none" stroke="#000000" d="M896,-122.1061C896,-141.3391 896,-169 896,-169 896,-169 569.1987,-169 569.1987,-169"/>
<polygon fill="#000000" stroke="#000000" points="569.1988,-165.5001 559.1987,-169 569.1987,-172.5001 569.1988,-165.5001"/>
</g>
<!-- TasksPageComponent -->
<g id="node3" class="node">
<title>TasksPageComponent</title>
<polygon fill="#ffffb3" stroke="#000000" points="794.7007,-122 653.2993,-122 653.2993,-86 794.7007,-86 794.7007,-122"/>
<text text-anchor="middle" x="724" y="-99.8" font-family="Times,serif" font-size="14.00" fill="#000000">TasksPageComponent</text>
</g>
<!-- TasksPageComponent&#45;&gt;TasksModule -->
<g id="edge3" class="edge">
<title>TasksPageComponent&#45;&gt;TasksModule</title>
<path fill="none" stroke="#000000" d="M724,-122.027C724,-138.3976 724,-160 724,-160 724,-160 569.3048,-160 569.3048,-160"/>
<polygon fill="#000000" stroke="#000000" points="569.3049,-156.5001 559.3048,-160 569.3048,-163.5001 569.3049,-156.5001"/>
</g>
<!-- TasksListViewComponent  -->
<g id="node10" class="node">
<title>TasksListViewComponent </title>
<polygon fill="#fb8072" stroke="#000000" points="597.5861,-252 428.4139,-252 428.4139,-216 597.5861,-216 597.5861,-252"/>
<text text-anchor="middle" x="513" y="-229.8" font-family="Times,serif" font-size="14.00" fill="#000000">TasksListViewComponent </text>
</g>
<!-- TasksModule&#45;&gt;TasksListViewComponent  -->
<g id="edge9" class="edge">
<title>TasksModule&#45;&gt;TasksListViewComponent </title>
<path fill="none" stroke="#000000" stroke-dasharray="5,2" d="M513,-187.1061C513,-187.1061 513,-205.991 513,-205.991"/>
<polygon fill="#000000" stroke="#000000" points="509.5001,-205.9909 513,-215.991 516.5001,-205.991 509.5001,-205.9909"/>
</g>
<!-- DialogModule -->
<g id="node5" class="node">
<title>DialogModule</title>
<polygon fill="#8dd3c7" stroke="#000000" points="628.6528,-122 625.6528,-126 604.6528,-126 601.6528,-122 531.3472,-122 531.3472,-86 628.6528,-86 628.6528,-122"/>
<text text-anchor="middle" x="580" y="-99.8" font-family="Times,serif" font-size="14.00" fill="#000000">DialogModule</text>
</g>
<!-- DialogModule&#45;&gt;TasksModule -->
<g id="edge4" class="edge">
<title>DialogModule&#45;&gt;TasksModule</title>
<path fill="none" stroke="#000000" d="M545.1385,-122.1061C545.1385,-122.1061 545.1385,-140.991 545.1385,-140.991"/>
<polygon fill="#000000" stroke="#000000" points="541.6386,-140.9909 545.1385,-150.991 548.6386,-140.991 541.6386,-140.9909"/>
</g>
<!-- SelectionBarModule -->
<g id="node6" class="node">
<title>SelectionBarModule</title>
<polygon fill="#8dd3c7" stroke="#000000" points="512.8599,-122 509.8599,-126 488.8599,-126 485.8599,-122 381.1401,-122 381.1401,-86 512.8599,-86 512.8599,-122"/>
<text text-anchor="middle" x="447" y="-99.8" font-family="Times,serif" font-size="14.00" fill="#000000">SelectionBarModule</text>
</g>
<!-- SelectionBarModule&#45;&gt;TasksModule -->
<g id="edge5" class="edge">
<title>SelectionBarModule&#45;&gt;TasksModule</title>
<path fill="none" stroke="#000000" d="M489.9134,-122.1061C489.9134,-122.1061 489.9134,-140.991 489.9134,-140.991"/>
<polygon fill="#000000" stroke="#000000" points="486.4135,-140.9909 489.9134,-150.991 493.4135,-140.991 486.4135,-140.9909"/>
</g>
<!-- SharedModule -->
<g id="node7" class="node">
<title>SharedModule</title>
<polygon fill="#8dd3c7" stroke="#000000" points="363.4231,-122 360.4231,-126 339.4231,-126 336.4231,-122 264.5769,-122 264.5769,-86 363.4231,-86 363.4231,-122"/>
<text text-anchor="middle" x="314" y="-99.8" font-family="Times,serif" font-size="14.00" fill="#000000">SharedModule</text>
</g>
<!-- SharedModule&#45;&gt;TasksModule -->
<g id="edge6" class="edge">
<title>SharedModule&#45;&gt;TasksModule</title>
<path fill="none" stroke="#000000" d="M314,-122.027C314,-138.3976 314,-160 314,-160 314,-160 456.8452,-160 456.8452,-160"/>
<polygon fill="#000000" stroke="#000000" points="456.8452,-163.5001 466.8452,-160 456.8452,-156.5001 456.8452,-163.5001"/>
</g>
<!-- TableModule -->
<g id="node8" class="node">
<title>TableModule</title>
<polygon fill="#8dd3c7" stroke="#000000" points="246.9232,-122 243.9232,-126 222.9232,-126 219.9232,-122 155.0768,-122 155.0768,-86 246.9232,-86 246.9232,-122"/>
<text text-anchor="middle" x="201" y="-99.8" font-family="Times,serif" font-size="14.00" fill="#000000">TableModule</text>
</g>
<!-- TableModule&#45;&gt;TasksModule -->
<g id="edge7" class="edge">
<title>TableModule&#45;&gt;TasksModule</title>
<path fill="none" stroke="#000000" d="M201,-122.1061C201,-141.3391 201,-169 201,-169 201,-169 456.6273,-169 456.6273,-169"/>
<polygon fill="#000000" stroke="#000000" points="456.6274,-172.5001 466.6273,-169 456.6273,-165.5001 456.6274,-172.5001"/>
</g>
<!-- TopPanelModule -->
<g id="node9" class="node">
<title>TopPanelModule</title>
<polygon fill="#8dd3c7" stroke="#000000" points="137.705,-122 134.705,-126 113.705,-126 110.705,-122 24.295,-122 24.295,-86 137.705,-86 137.705,-122"/>
<text text-anchor="middle" x="81" y="-99.8" font-family="Times,serif" font-size="14.00" fill="#000000">TopPanelModule</text>
</g>
<!-- TopPanelModule&#45;&gt;TasksModule -->
<g id="edge8" class="edge">
<title>TopPanelModule&#45;&gt;TasksModule</title>
<path fill="none" stroke="#000000" d="M81,-122.2921C81,-144.2057 81,-178 81,-178 81,-178 456.7684,-178 456.7684,-178"/>
<polygon fill="#000000" stroke="#000000" points="456.7685,-181.5001 466.7684,-178 456.7684,-174.5001 456.7685,-181.5001"/>
</g>
</g>
</svg>
