<?xml version="1.0" encoding="UTF-8" standalone="no"?>
<!DOCTYPE svg PUBLIC "-//W3C//DTD SVG 1.1//EN"
 "http://www.w3.org/Graphics/SVG/1.1/DTD/svg11.dtd">
<!-- Generated by graphviz version 2.40.1 (20161225.0304)
 -->
<!-- Title: dependencies Pages: 1 -->
<svg width="1600pt" height="284pt"
 viewBox="0.00 0.00 1600.00 284.00" xmlns="http://www.w3.org/2000/svg" xmlns:xlink="http://www.w3.org/1999/xlink">
<g id="graph0" class="graph" transform="scale(1 1) rotate(0) translate(4 280)">
<title>dependencies</title>
<polygon fill="#ffffff" stroke="transparent" points="-4,4 -4,-280 1596,-280 1596,4 -4,4"/>
<text text-anchor="start" x="775.0091" y="-42.4" font-family="sans-serif" font-weight="bold" font-size="14.00" fill="#000000">Legend</text>
<polygon fill="#ffffb3" stroke="transparent" points="562,-10 562,-30 582,-30 582,-10 562,-10"/>
<text text-anchor="start" x="585.629" y="-15.4" font-family="sans-serif" font-size="14.00" fill="#000000"> &#160;Declarations</text>
<polygon fill="#8dd3c7" stroke="transparent" points="675,-10 675,-30 695,-30 695,-10 675,-10"/>
<text text-anchor="start" x="698.7251" y="-15.4" font-family="sans-serif" font-size="14.00" fill="#000000"> &#160;Module</text>
<polygon fill="#80b1d3" stroke="transparent" points="761,-10 761,-30 781,-30 781,-10 761,-10"/>
<text text-anchor="start" x="784.7812" y="-15.4" font-family="sans-serif" font-size="14.00" fill="#000000"> &#160;Bootstrap</text>
<polygon fill="#fdb462" stroke="transparent" points="858,-10 858,-30 878,-30 878,-10 858,-10"/>
<text text-anchor="start" x="881.6732" y="-15.4" font-family="sans-serif" font-size="14.00" fill="#000000"> &#160;Providers</text>
<polygon fill="#fb8072" stroke="transparent" points="954,-10 954,-30 974,-30 974,-10 954,-10"/>
<text text-anchor="start" x="977.7258" y="-15.4" font-family="sans-serif" font-size="14.00" fill="#000000"> &#160;Exports</text>
<g id="clust1" class="cluster">
<title>cluster_SharedModule</title>
<polygon fill="none" stroke="#000000" stroke-dasharray="1,5" points="8,-70 8,-268 1584,-268 1584,-70 8,-70"/>
</g>
<g id="clust3" class="cluster">
<title>cluster_SharedModule_imports</title>
<polygon fill="none" stroke="#000000" points="41,-78 41,-130 1554,-130 1554,-78 41,-78"/>
</g>
<g id="clust4" class="cluster">
<title>cluster_SharedModule_exports</title>
<polygon fill="none" stroke="#000000" points="16,-208 16,-260 1576,-260 1576,-208 16,-208"/>
</g>
<!-- CardModule -->
<g id="node1" class="node">
<title>CardModule</title>
<polygon fill="#8dd3c7" stroke="#000000" points="1546.2619,-122 1543.2619,-126 1522.2619,-126 1519.2619,-122 1459.7381,-122 1459.7381,-86 1546.2619,-86 1546.2619,-122"/>
<text text-anchor="middle" x="1503" y="-99.8" font-family="Times,serif" font-size="14.00" fill="#000000">CardModule</text>
</g>
<!-- SharedModule -->
<g id="node14" class="node">
<title>SharedModule</title>
<polygon fill="#8dd3c7" stroke="#000000" points="845.4231,-187 842.4231,-191 821.4231,-191 818.4231,-187 746.5769,-187 746.5769,-151 845.4231,-151 845.4231,-187"/>
<text text-anchor="middle" x="796" y="-164.8" font-family="Times,serif" font-size="14.00" fill="#000000">SharedModule</text>
</g>
<!-- CardModule&#45;&gt;SharedModule -->
<g id="edge1" class="edge">
<title>CardModule&#45;&gt;SharedModule</title>
<path fill="none" stroke="#000000" d="M1468.8878,-122.1686C1468.8878,-141.0898 1468.8878,-168 1468.8878,-168 1468.8878,-168 855.479,-168 855.479,-168"/>
<polygon fill="#000000" stroke="#000000" points="855.4791,-164.5001 845.479,-168 855.479,-171.5001 855.4791,-164.5001"/>
</g>
<!-- DividerModule -->
<g id="node2" class="node">
<title>DividerModule</title>
<polygon fill="#8dd3c7" stroke="#000000" points="1441.3133,-122 1438.3133,-126 1417.3133,-126 1414.3133,-122 1338.6867,-122 1338.6867,-86 1441.3133,-86 1441.3133,-122"/>
<text text-anchor="middle" x="1390" y="-99.8" font-family="Times,serif" font-size="14.00" fill="#000000">DividerModule</text>
</g>
<!-- DividerModule&#45;&gt;SharedModule -->
<g id="edge2" class="edge">
<title>DividerModule&#45;&gt;SharedModule</title>
<path fill="none" stroke="#000000" d="M1346.4686,-122.302C1346.4686,-140.2699 1346.4686,-165 1346.4686,-165 1346.4686,-165 855.3349,-165 855.3349,-165"/>
<polygon fill="#000000" stroke="#000000" points="855.3349,-161.5001 845.3349,-165 855.3348,-168.5001 855.3349,-161.5001"/>
</g>
<!-- EditableFieldModule -->
<g id="node3" class="node">
<title>EditableFieldModule</title>
<polygon fill="#8dd3c7" stroke="#000000" points="1320.4818,-122 1317.4818,-126 1296.4818,-126 1293.4818,-122 1185.5182,-122 1185.5182,-86 1320.4818,-86 1320.4818,-122"/>
<text text-anchor="middle" x="1253" y="-99.8" font-family="Times,serif" font-size="14.00" fill="#000000">EditableFieldModule</text>
</g>
<!-- EditableFieldModule&#45;&gt;SharedModule -->
<g id="edge3" class="edge">
<title>EditableFieldModule&#45;&gt;SharedModule</title>
<path fill="none" stroke="#000000" d="M1191.6341,-122.0225C1191.6341,-139.3734 1191.6341,-163 1191.6341,-163 1191.6341,-163 855.3074,-163 855.3074,-163"/>
<polygon fill="#000000" stroke="#000000" points="855.3074,-159.5001 845.3074,-163 855.3074,-166.5001 855.3074,-159.5001"/>
</g>
<!-- IconsModule -->
<g id="node4" class="node">
<title>IconsModule</title>
<polygon fill="#8dd3c7" stroke="#000000" points="1167.8697,-122 1164.8697,-126 1143.8697,-126 1140.8697,-122 1078.1303,-122 1078.1303,-86 1167.8697,-86 1167.8697,-122"/>
<text text-anchor="middle" x="1123" y="-99.8" font-family="Times,serif" font-size="14.00" fill="#000000">IconsModule</text>
</g>
<!-- IconsModule&#45;&gt;SharedModule -->
<g id="edge4" class="edge">
<title>IconsModule&#45;&gt;SharedModule</title>
<path fill="none" stroke="#000000" d="M1082.1902,-122.027C1082.1902,-138.3976 1082.1902,-160 1082.1902,-160 1082.1902,-160 855.5238,-160 855.5238,-160"/>
<polygon fill="#000000" stroke="#000000" points="855.5238,-156.5001 845.5238,-160 855.5238,-163.5001 855.5238,-156.5001"/>
</g>
<!-- InputsModule -->
<g id="node5" class="node">
<title>InputsModule</title>
<polygon fill="#8dd3c7" stroke="#000000" points="1060.0467,-122 1057.0467,-126 1036.0467,-126 1033.0467,-122 965.9533,-122 965.9533,-86 1060.0467,-86 1060.0467,-122"/>
<text text-anchor="middle" x="1013" y="-99.8" font-family="Times,serif" font-size="14.00" fill="#000000">InputsModule</text>
</g>
<!-- InputsModule&#45;&gt;SharedModule -->
<g id="edge5" class="edge">
<title>InputsModule&#45;&gt;SharedModule</title>
<path fill="none" stroke="#000000" d="M1030.1743,-122.2396C1030.1743,-137.5706 1030.1743,-157 1030.1743,-157 1030.1743,-157 855.3762,-157 855.3762,-157"/>
<polygon fill="#000000" stroke="#000000" points="855.3762,-153.5001 845.3762,-157 855.3762,-160.5001 855.3762,-153.5001"/>
</g>
<!-- ListModule -->
<g id="node6" class="node">
<title>ListModule</title>
<polygon fill="#8dd3c7" stroke="#000000" points="947.8289,-122 944.8289,-126 923.8289,-126 920.8289,-122 866.1711,-122 866.1711,-86 947.8289,-86 947.8289,-122"/>
<text text-anchor="middle" x="907" y="-99.8" font-family="Times,serif" font-size="14.00" fill="#000000">ListModule</text>
</g>
<!-- ListModule&#45;&gt;SharedModule -->
<g id="edge6" class="edge">
<title>ListModule&#45;&gt;SharedModule</title>
<path fill="none" stroke="#000000" d="M920.9714,-122.0511C920.9714,-136.373 920.9714,-154 920.9714,-154 920.9714,-154 855.392,-154 855.392,-154"/>
<polygon fill="#000000" stroke="#000000" points="855.392,-150.5001 845.392,-154 855.392,-157.5001 855.392,-150.5001"/>
</g>
<!-- LoadersModule -->
<g id="node7" class="node">
<title>LoadersModule</title>
<polygon fill="#8dd3c7" stroke="#000000" points="848.1374,-122 845.1374,-126 824.1374,-126 821.1374,-122 743.8626,-122 743.8626,-86 848.1374,-86 848.1374,-122"/>
<text text-anchor="middle" x="796" y="-99.8" font-family="Times,serif" font-size="14.00" fill="#000000">LoadersModule</text>
</g>
<!-- LoadersModule&#45;&gt;SharedModule -->
<g id="edge7" class="edge">
<title>LoadersModule&#45;&gt;SharedModule</title>
<path fill="none" stroke="#000000" d="M796,-122.1061C796,-122.1061 796,-140.991 796,-140.991"/>
<polygon fill="#000000" stroke="#000000" points="792.5001,-140.9909 796,-150.991 799.5001,-140.991 792.5001,-140.9909"/>
</g>
<!-- MoqModule -->
<g id="node8" class="node">
<title>MoqModule</title>
<polygon fill="#8dd3c7" stroke="#000000" points="725.9944,-122 722.9944,-126 701.9944,-126 698.9944,-122 640.0056,-122 640.0056,-86 725.9944,-86 725.9944,-122"/>
<text text-anchor="middle" x="683" y="-99.8" font-family="Times,serif" font-size="14.00" fill="#000000">MoqModule</text>
</g>
<!-- MoqModule&#45;&gt;SharedModule -->
<g id="edge8" class="edge">
<title>MoqModule&#45;&gt;SharedModule</title>
<path fill="none" stroke="#000000" d="M695.8324,-122.0511C695.8324,-136.373 695.8324,-154 695.8324,-154 695.8324,-154 736.5031,-154 736.5031,-154"/>
<polygon fill="#000000" stroke="#000000" points="736.5031,-157.5001 746.5031,-154 736.5031,-150.5001 736.5031,-157.5001"/>
</g>
<!-- PanelModule -->
<g id="node9" class="node">
<title>PanelModule</title>
<polygon fill="#8dd3c7" stroke="#000000" points="622.1529,-122 619.1529,-126 598.1529,-126 595.1529,-122 531.8471,-122 531.8471,-86 622.1529,-86 622.1529,-122"/>
<text text-anchor="middle" x="577" y="-99.8" font-family="Times,serif" font-size="14.00" fill="#000000">PanelModule</text>
</g>
<!-- PanelModule&#45;&gt;SharedModule -->
<g id="edge9" class="edge">
<title>PanelModule&#45;&gt;SharedModule</title>
<path fill="none" stroke="#000000" d="M587.942,-122.2396C587.942,-137.5706 587.942,-157 587.942,-157 587.942,-157 736.6932,-157 736.6932,-157"/>
<polygon fill="#000000" stroke="#000000" points="736.6932,-160.5001 746.6932,-157 736.6931,-153.5001 736.6932,-160.5001"/>
</g>
<!-- PriceModule -->
<g id="node10" class="node">
<title>PriceModule</title>
<polygon fill="#8dd3c7" stroke="#000000" points="514.3134,-122 511.3134,-126 490.3134,-126 487.3134,-122 425.6866,-122 425.6866,-86 514.3134,-86 514.3134,-122"/>
<text text-anchor="middle" x="470" y="-99.8" font-family="Times,serif" font-size="14.00" fill="#000000">PriceModule</text>
</g>
<!-- PriceModule&#45;&gt;SharedModule -->
<g id="edge10" class="edge">
<title>PriceModule&#45;&gt;SharedModule</title>
<path fill="none" stroke="#000000" d="M509.0314,-122.027C509.0314,-138.3976 509.0314,-160 509.0314,-160 509.0314,-160 736.6683,-160 736.6683,-160"/>
<polygon fill="#000000" stroke="#000000" points="736.6684,-163.5001 746.6683,-160 736.6683,-156.5001 736.6684,-163.5001"/>
</g>
<!-- SelectorsModule -->
<g id="node11" class="node">
<title>SelectorsModule</title>
<polygon fill="#8dd3c7" stroke="#000000" points="407.3627,-122 404.3627,-126 383.3627,-126 380.3627,-122 296.6373,-122 296.6373,-86 407.3627,-86 407.3627,-122"/>
<text text-anchor="middle" x="352" y="-99.8" font-family="Times,serif" font-size="14.00" fill="#000000">SelectorsModule</text>
</g>
<!-- SelectorsModule&#45;&gt;SharedModule -->
<g id="edge11" class="edge">
<title>SelectorsModule&#45;&gt;SharedModule</title>
<path fill="none" stroke="#000000" d="M400.8063,-122.0225C400.8063,-139.3734 400.8063,-163 400.8063,-163 400.8063,-163 736.7475,-163 736.7475,-163"/>
<polygon fill="#000000" stroke="#000000" points="736.7475,-166.5001 746.7475,-163 736.7475,-159.5001 736.7475,-166.5001"/>
</g>
<!-- UserPictureModule -->
<g id="node12" class="node">
<title>UserPictureModule</title>
<polygon fill="#8dd3c7" stroke="#000000" points="278.6303,-122 275.6303,-126 254.6303,-126 251.6303,-122 153.3697,-122 153.3697,-86 278.6303,-86 278.6303,-122"/>
<text text-anchor="middle" x="216" y="-99.8" font-family="Times,serif" font-size="14.00" fill="#000000">UserPictureModule</text>
</g>
<!-- UserPictureModule&#45;&gt;SharedModule -->
<g id="edge12" class="edge">
<title>UserPictureModule&#45;&gt;SharedModule</title>
<path fill="none" stroke="#000000" d="M270.1899,-122.302C270.1899,-140.2699 270.1899,-165 270.1899,-165 270.1899,-165 736.5331,-165 736.5331,-165"/>
<polygon fill="#000000" stroke="#000000" points="736.5331,-168.5001 746.5331,-165 736.533,-161.5001 736.5331,-168.5001"/>
</g>
<!-- UtilsModule -->
<g id="node13" class="node">
<title>UtilsModule</title>
<polygon fill="#8dd3c7" stroke="#000000" points="135.2731,-122 132.2731,-126 111.2731,-126 108.2731,-122 48.7269,-122 48.7269,-86 135.2731,-86 135.2731,-122"/>
<text text-anchor="middle" x="92" y="-99.8" font-family="Times,serif" font-size="14.00" fill="#000000">UtilsModule</text>
</g>
<!-- UtilsModule&#45;&gt;SharedModule -->
<g id="edge13" class="edge">
<title>UtilsModule&#45;&gt;SharedModule</title>
<path fill="none" stroke="#000000" d="M123.2858,-122.1686C123.2858,-141.0898 123.2858,-168 123.2858,-168 123.2858,-168 736.5337,-168 736.5337,-168"/>
<polygon fill="#000000" stroke="#000000" points="736.5338,-171.5001 746.5337,-168 736.5337,-164.5001 736.5338,-171.5001"/>
</g>
<!-- CardModule  -->
<g id="node15" class="node">
<title>CardModule </title>
<polygon fill="#fb8072" stroke="#000000" points="1568.262,-252 1477.738,-252 1477.738,-216 1568.262,-216 1568.262,-252"/>
<text text-anchor="middle" x="1523" y="-229.8" font-family="Times,serif" font-size="14.00" fill="#000000">CardModule </text>
</g>
<!-- SharedModule&#45;&gt;CardModule  -->
<g id="edge14" class="edge">
<title>SharedModule&#45;&gt;CardModule </title>
<path fill="none" stroke="#000000" stroke-dasharray="5,2" d="M845.2222,-171C1007.0152,-171 1512.125,-171 1512.125,-171 1512.125,-171 1512.125,-205.7778 1512.125,-205.7778"/>
<polygon fill="#000000" stroke="#000000" points="1508.6251,-205.7778 1512.125,-215.7778 1515.6251,-205.7778 1508.6251,-205.7778"/>
</g>
<!-- DividerModule  -->
<g id="node16" class="node">
<title>DividerModule </title>
<polygon fill="#fb8072" stroke="#000000" points="1459.813,-252 1354.187,-252 1354.187,-216 1459.813,-216 1459.813,-252"/>
<text text-anchor="middle" x="1407" y="-229.8" font-family="Times,serif" font-size="14.00" fill="#000000">DividerModule </text>
</g>
<!-- SharedModule&#45;&gt;DividerModule  -->
<g id="edge15" class="edge">
<title>SharedModule&#45;&gt;DividerModule </title>
<path fill="none" stroke="#000000" stroke-dasharray="5,2" d="M845.2335,-174C988.9191,-174 1397.625,-174 1397.625,-174 1397.625,-174 1397.625,-205.998 1397.625,-205.998"/>
<polygon fill="#000000" stroke="#000000" points="1394.1251,-205.998 1397.625,-215.998 1401.1251,-205.9981 1394.1251,-205.998"/>
</g>
<!-- EditableFieldModule  -->
<g id="node17" class="node">
<title>EditableFieldModule </title>
<polygon fill="#fb8072" stroke="#000000" points="1336.4826,-252 1197.5174,-252 1197.5174,-216 1336.4826,-216 1336.4826,-252"/>
<text text-anchor="middle" x="1267" y="-229.8" font-family="Times,serif" font-size="14.00" fill="#000000">EditableFieldModule </text>
</g>
<!-- SharedModule&#45;&gt;EditableFieldModule  -->
<g id="edge16" class="edge">
<title>SharedModule&#45;&gt;EditableFieldModule </title>
<path fill="none" stroke="#000000" stroke-dasharray="5,2" d="M845.5625,-176C965.0361,-176 1259.125,-176 1259.125,-176 1259.125,-176 1259.125,-205.9664 1259.125,-205.9664"/>
<polygon fill="#000000" stroke="#000000" points="1255.6251,-205.9663 1259.125,-215.9664 1262.6251,-205.9664 1255.6251,-205.9663"/>
</g>
<!-- IconsModule  -->
<g id="node18" class="node">
<title>IconsModule </title>
<polygon fill="#fb8072" stroke="#000000" points="1179.8703,-252 1086.1297,-252 1086.1297,-216 1179.8703,-216 1179.8703,-252"/>
<text text-anchor="middle" x="1133" y="-229.8" font-family="Times,serif" font-size="14.00" fill="#000000">IconsModule </text>
</g>
<!-- SharedModule&#45;&gt;IconsModule  -->
<g id="edge17" class="edge">
<title>SharedModule&#45;&gt;IconsModule </title>
<path fill="none" stroke="#000000" stroke-dasharray="5,2" d="M845.2152,-179C937.4564,-179 1127.125,-179 1127.125,-179 1127.125,-179 1127.125,-205.9909 1127.125,-205.9909"/>
<polygon fill="#000000" stroke="#000000" points="1123.6251,-205.9909 1127.125,-215.9909 1130.6251,-205.991 1123.6251,-205.9909"/>
</g>
<!-- InputsModule  -->
<g id="node19" class="node">
<title>InputsModule </title>
<polygon fill="#fb8072" stroke="#000000" points="1068.0456,-252 969.9544,-252 969.9544,-216 1068.0456,-216 1068.0456,-252"/>
<text text-anchor="middle" x="1019" y="-229.8" font-family="Times,serif" font-size="14.00" fill="#000000">InputsModule </text>
</g>
<!-- SharedModule&#45;&gt;InputsModule  -->
<g id="edge18" class="edge">
<title>SharedModule&#45;&gt;InputsModule </title>
<path fill="none" stroke="#000000" stroke-dasharray="5,2" d="M845.401,-182C905.7978,-182 1000.0757,-182 1000.0757,-182 1000.0757,-182 1000.0757,-205.8129 1000.0757,-205.8129"/>
<polygon fill="#000000" stroke="#000000" points="996.5758,-205.8129 1000.0757,-215.8129 1003.5758,-205.813 996.5758,-205.8129"/>
</g>
<!-- ListModule  -->
<g id="node20" class="node">
<title>ListModule </title>
<polygon fill="#fb8072" stroke="#000000" points="952.3284,-252 867.6716,-252 867.6716,-216 952.3284,-216 952.3284,-252"/>
<text text-anchor="middle" x="910" y="-229.8" font-family="Times,serif" font-size="14.00" fill="#000000">ListModule </text>
</g>
<!-- SharedModule&#45;&gt;ListModule  -->
<g id="edge19" class="edge">
<title>SharedModule&#45;&gt;ListModule </title>
<path fill="none" stroke="#000000" stroke-dasharray="5,2" d="M845.4272,-185C869.9006,-185 894.2786,-185 894.2786,-185 894.2786,-185 894.2786,-205.7542 894.2786,-205.7542"/>
<polygon fill="#000000" stroke="#000000" points="890.7787,-205.7542 894.2786,-215.7542 897.7787,-205.7542 890.7787,-205.7542"/>
</g>
<!-- LoadersModule  -->
<g id="node21" class="node">
<title>LoadersModule </title>
<polygon fill="#fb8072" stroke="#000000" points="850.1369,-252 741.8631,-252 741.8631,-216 850.1369,-216 850.1369,-252"/>
<text text-anchor="middle" x="796" y="-229.8" font-family="Times,serif" font-size="14.00" fill="#000000">LoadersModule </text>
</g>
<!-- SharedModule&#45;&gt;LoadersModule  -->
<g id="edge20" class="edge">
<title>SharedModule&#45;&gt;LoadersModule </title>
<path fill="none" stroke="#000000" stroke-dasharray="5,2" d="M796,-187.1061C796,-187.1061 796,-205.991 796,-205.991"/>
<polygon fill="#000000" stroke="#000000" points="792.5001,-205.9909 796,-215.991 799.5001,-205.991 792.5001,-205.9909"/>
</g>
<!-- MoqModule  -->
<g id="node22" class="node">
<title>MoqModule </title>
<polygon fill="#fb8072" stroke="#000000" points="723.9958,-252 634.0042,-252 634.0042,-216 723.9958,-216 723.9958,-252"/>
<text text-anchor="middle" x="679" y="-229.8" font-family="Times,serif" font-size="14.00" fill="#000000">MoqModule </text>
</g>
<!-- SharedModule&#45;&gt;MoqModule  -->
<g id="edge21" class="edge">
<title>SharedModule&#45;&gt;MoqModule </title>
<path fill="none" stroke="#000000" stroke-dasharray="5,2" d="M746.48,-185C710.4376,-185 667.9176,-185 667.9176,-185 667.9176,-185 667.9176,-205.7542 667.9176,-205.7542"/>
<polygon fill="#000000" stroke="#000000" points="664.4177,-205.7542 667.9176,-215.7542 671.4177,-205.7542 664.4177,-205.7542"/>
</g>
<!-- PanelModule  -->
<g id="node23" class="node">
<title>PanelModule </title>
<polygon fill="#fb8072" stroke="#000000" points="616.1523,-252 521.8477,-252 521.8477,-216 616.1523,-216 616.1523,-252"/>
<text text-anchor="middle" x="569" y="-229.8" font-family="Times,serif" font-size="14.00" fill="#000000">PanelModule </text>
</g>
<!-- SharedModule&#45;&gt;PanelModule  -->
<g id="edge22" class="edge">
<title>SharedModule&#45;&gt;PanelModule </title>
<path fill="none" stroke="#000000" stroke-dasharray="5,2" d="M746.7739,-182C677.5528,-182 559.808,-182 559.808,-182 559.808,-182 559.808,-205.8129 559.808,-205.8129"/>
<polygon fill="#000000" stroke="#000000" points="556.3081,-205.8129 559.808,-215.8129 563.3081,-205.813 556.3081,-205.8129"/>
</g>
<!-- PriceModule  -->
<g id="node24" class="node">
<title>PriceModule </title>
<polygon fill="#fb8072" stroke="#000000" points="503.813,-252 412.187,-252 412.187,-216 503.813,-216 503.813,-252"/>
<text text-anchor="middle" x="458" y="-229.8" font-family="Times,serif" font-size="14.00" fill="#000000">PriceModule </text>
</g>
<!-- SharedModule&#45;&gt;PriceModule  -->
<g id="edge23" class="edge">
<title>SharedModule&#45;&gt;PriceModule </title>
<path fill="none" stroke="#000000" stroke-dasharray="5,2" d="M746.7848,-179C654.5436,-179 464.875,-179 464.875,-179 464.875,-179 464.875,-205.9909 464.875,-205.9909"/>
<polygon fill="#000000" stroke="#000000" points="461.3751,-205.9909 464.875,-215.9909 468.3751,-205.991 461.3751,-205.9909"/>
</g>
<!-- SelectorsModule  -->
<g id="node25" class="node">
<title>SelectorsModule </title>
<polygon fill="#fb8072" stroke="#000000" points="394.3632,-252 279.6368,-252 279.6368,-216 394.3632,-216 394.3632,-252"/>
<text text-anchor="middle" x="337" y="-229.8" font-family="Times,serif" font-size="14.00" fill="#000000">SelectorsModule </text>
</g>
<!-- SharedModule&#45;&gt;SelectorsModule  -->
<g id="edge24" class="edge">
<title>SharedModule&#45;&gt;SelectorsModule </title>
<path fill="none" stroke="#000000" stroke-dasharray="5,2" d="M746.4862,-176C629.4261,-176 345.375,-176 345.375,-176 345.375,-176 345.375,-205.9664 345.375,-205.9664"/>
<polygon fill="#000000" stroke="#000000" points="341.8751,-205.9663 345.375,-215.9664 348.8751,-205.9664 341.8751,-205.9663"/>
</g>
<!-- UserPictureModule  -->
<g id="node26" class="node">
<title>UserPictureModule </title>
<polygon fill="#fb8072" stroke="#000000" points="261.6299,-252 132.3701,-252 132.3701,-216 261.6299,-216 261.6299,-252"/>
<text text-anchor="middle" x="197" y="-229.8" font-family="Times,serif" font-size="14.00" fill="#000000">UserPictureModule </text>
</g>
<!-- SharedModule&#45;&gt;UserPictureModule  -->
<g id="edge25" class="edge">
<title>SharedModule&#45;&gt;UserPictureModule </title>
<path fill="none" stroke="#000000" stroke-dasharray="5,2" d="M746.5743,-174C604.8841,-174 207.375,-174 207.375,-174 207.375,-174 207.375,-205.998 207.375,-205.998"/>
<polygon fill="#000000" stroke="#000000" points="203.8751,-205.998 207.375,-215.998 210.8751,-205.9981 203.8751,-205.998"/>
</g>
<!-- UtilsModule  -->
<g id="node27" class="node">
<title>UtilsModule </title>
<polygon fill="#fb8072" stroke="#000000" points="114.2732,-252 23.7268,-252 23.7268,-216 114.2732,-216 114.2732,-252"/>
<text text-anchor="middle" x="69" y="-229.8" font-family="Times,serif" font-size="14.00" fill="#000000">UtilsModule </text>
</g>
<!-- SharedModule&#45;&gt;UtilsModule  -->
<g id="edge26" class="edge">
<title>SharedModule&#45;&gt;UtilsModule </title>
<path fill="none" stroke="#000000" stroke-dasharray="5,2" d="M746.599,-171C584.8409,-171 81.375,-171 81.375,-171 81.375,-171 81.375,-205.7778 81.375,-205.7778"/>
<polygon fill="#000000" stroke="#000000" points="77.8751,-205.7778 81.375,-215.7778 84.8751,-205.7778 77.8751,-205.7778"/>
</g>
</g>
</svg>
