<?xml version="1.0" encoding="UTF-8" standalone="no"?>
<!DOCTYPE svg PUBLIC "-//W3C//DTD SVG 1.1//EN"
 "http://www.w3.org/Graphics/SVG/1.1/DTD/svg11.dtd">
<!-- Generated by graphviz version 2.40.1 (20161225.0304)
 -->
<!-- Title: dependencies Pages: 1 -->
<svg width="2538pt" height="211pt"
 viewBox="0.00 0.00 2538.00 211.00" xmlns="http://www.w3.org/2000/svg" xmlns:xlink="http://www.w3.org/1999/xlink">
<g id="graph0" class="graph" transform="scale(1 1) rotate(0) translate(4 207)">
<title>dependencies</title>
<polygon fill="#ffffff" stroke="transparent" points="-4,4 -4,-207 2534,-207 2534,4 -4,4"/>
<text text-anchor="start" x="1244.0091" y="-42.4" font-family="sans-serif" font-weight="bold" font-size="14.00" fill="#000000">Legend</text>
<polygon fill="#ffffb3" stroke="transparent" points="1031,-10 1031,-30 1051,-30 1051,-10 1031,-10"/>
<text text-anchor="start" x="1054.629" y="-15.4" font-family="sans-serif" font-size="14.00" fill="#000000"> &#160;Declarations</text>
<polygon fill="#8dd3c7" stroke="transparent" points="1144,-10 1144,-30 1164,-30 1164,-10 1144,-10"/>
<text text-anchor="start" x="1167.7251" y="-15.4" font-family="sans-serif" font-size="14.00" fill="#000000"> &#160;Module</text>
<polygon fill="#80b1d3" stroke="transparent" points="1230,-10 1230,-30 1250,-30 1250,-10 1230,-10"/>
<text text-anchor="start" x="1253.7812" y="-15.4" font-family="sans-serif" font-size="14.00" fill="#000000"> &#160;Bootstrap</text>
<polygon fill="#fdb462" stroke="transparent" points="1327,-10 1327,-30 1347,-30 1347,-10 1327,-10"/>
<text text-anchor="start" x="1350.6732" y="-15.4" font-family="sans-serif" font-size="14.00" fill="#000000"> &#160;Providers</text>
<polygon fill="#fb8072" stroke="transparent" points="1423,-10 1423,-30 1443,-30 1443,-10 1423,-10"/>
<text text-anchor="start" x="1446.7258" y="-15.4" font-family="sans-serif" font-size="14.00" fill="#000000"> &#160;Exports</text>
<g id="clust1" class="cluster">
<title>cluster_SettingsModule</title>
<polygon fill="none" stroke="#000000" stroke-dasharray="1,5" points="8,-70 8,-195 2522,-195 2522,-70 8,-70"/>
</g>
<g id="clust2" class="cluster">
<title>cluster_SettingsModule_declarations</title>
<polygon fill="none" stroke="#000000" points="1339,-78 1339,-130 2514,-130 2514,-78 1339,-78"/>
</g>
<g id="clust9" class="cluster">
<title>cluster_SettingsModule_imports</title>
<polygon fill="none" stroke="#000000" points="329,-78 329,-130 1331,-130 1331,-78 329,-78"/>
</g>
<g id="clust12" class="cluster">
<title>cluster_SettingsModule_providers</title>
<polygon fill="none" stroke="#000000" points="16,-78 16,-130 321,-130 321,-78 16,-78"/>
</g>
<!-- InviteUserDlgComponent -->
<g id="node1" class="node">
<title>InviteUserDlgComponent</title>
<polygon fill="#ffffb3" stroke="#000000" points="2505.9129,-122 2344.0871,-122 2344.0871,-86 2505.9129,-86 2505.9129,-122"/>
<text text-anchor="middle" x="2425" y="-99.8" font-family="Times,serif" font-size="14.00" fill="#000000">InviteUserDlgComponent</text>
</g>
<!-- SettingsModule -->
<g id="node7" class="node">
<title>SettingsModule</title>
<polygon fill="#8dd3c7" stroke="#000000" points="1105.1639,-187 1102.1639,-191 1081.1639,-191 1078.1639,-187 1000.8361,-187 1000.8361,-151 1105.1639,-151 1105.1639,-187"/>
<text text-anchor="middle" x="1053" y="-164.8" font-family="Times,serif" font-size="14.00" fill="#000000">SettingsModule</text>
</g>
<!-- InviteUserDlgComponent&#45;&gt;SettingsModule -->
<g id="edge1" class="edge">
<title>InviteUserDlgComponent&#45;&gt;SettingsModule</title>
<path fill="none" stroke="#000000" d="M2425,-122.3228C2425,-145.6602 2425,-183 2425,-183 2425,-183 1115.5253,-183 1115.5253,-183"/>
<polygon fill="#000000" stroke="#000000" points="1115.5253,-179.5001 1105.5253,-183 1115.5252,-186.5001 1115.5253,-179.5001"/>
</g>
<!-- NewTeamDlgComponent -->
<g id="node2" class="node">
<title>NewTeamDlgComponent</title>
<polygon fill="#ffffb3" stroke="#000000" points="2326.1302,-122 2165.8698,-122 2165.8698,-86 2326.1302,-86 2326.1302,-122"/>
<text text-anchor="middle" x="2246" y="-99.8" font-family="Times,serif" font-size="14.00" fill="#000000">NewTeamDlgComponent</text>
</g>
<!-- NewTeamDlgComponent&#45;&gt;SettingsModule -->
<g id="edge2" class="edge">
<title>NewTeamDlgComponent&#45;&gt;SettingsModule</title>
<path fill="none" stroke="#000000" d="M2246,-122.2921C2246,-144.2057 2246,-178 2246,-178 2246,-178 1115.4143,-178 1115.4143,-178"/>
<polygon fill="#000000" stroke="#000000" points="1115.4143,-174.5001 1105.4143,-178 1115.4143,-181.5001 1115.4143,-174.5001"/>
</g>
<!-- SettingsComponent -->
<g id="node3" class="node">
<title>SettingsComponent</title>
<polygon fill="#ffffb3" stroke="#000000" points="2147.4468,-122 2020.5532,-122 2020.5532,-86 2147.4468,-86 2147.4468,-122"/>
<text text-anchor="middle" x="2084" y="-99.8" font-family="Times,serif" font-size="14.00" fill="#000000">SettingsComponent</text>
</g>
<!-- SettingsComponent&#45;&gt;SettingsModule -->
<g id="edge3" class="edge">
<title>SettingsComponent&#45;&gt;SettingsModule</title>
<path fill="none" stroke="#000000" d="M2084,-122.0267C2084,-142.7672 2084,-174 2084,-174 2084,-174 1115.1889,-174 1115.1889,-174"/>
<polygon fill="#000000" stroke="#000000" points="1115.1889,-170.5001 1105.1889,-174 1115.1889,-177.5001 1115.1889,-170.5001"/>
</g>
<!-- SettingsProfileComponent -->
<g id="node4" class="node">
<title>SettingsProfileComponent</title>
<polygon fill="#ffffb3" stroke="#000000" points="2003.0462,-122 1838.9538,-122 1838.9538,-86 2003.0462,-86 2003.0462,-122"/>
<text text-anchor="middle" x="1921" y="-99.8" font-family="Times,serif" font-size="14.00" fill="#000000">SettingsProfileComponent</text>
</g>
<!-- SettingsProfileComponent&#45;&gt;SettingsModule -->
<g id="edge4" class="edge">
<title>SettingsProfileComponent&#45;&gt;SettingsModule</title>
<path fill="none" stroke="#000000" d="M1921,-122.1061C1921,-141.3391 1921,-169 1921,-169 1921,-169 1115.3426,-169 1115.3426,-169"/>
<polygon fill="#000000" stroke="#000000" points="1115.3426,-165.5001 1105.3426,-169 1115.3425,-172.5001 1115.3426,-165.5001"/>
</g>
<!-- SettingsTeamMembersPageComponent -->
<g id="node5" class="node">
<title>SettingsTeamMembersPageComponent</title>
<polygon fill="#ffffb3" stroke="#000000" points="1821.4001,-122 1582.5999,-122 1582.5999,-86 1821.4001,-86 1821.4001,-122"/>
<text text-anchor="middle" x="1702" y="-99.8" font-family="Times,serif" font-size="14.00" fill="#000000">SettingsTeamMembersPageComponent</text>
</g>
<!-- SettingsTeamMembersPageComponent&#45;&gt;SettingsModule -->
<g id="edge5" class="edge">
<title>SettingsTeamMembersPageComponent&#45;&gt;SettingsModule</title>
<path fill="none" stroke="#000000" d="M1702,-122.302C1702,-140.2699 1702,-165 1702,-165 1702,-165 1115.2867,-165 1115.2867,-165"/>
<polygon fill="#000000" stroke="#000000" points="1115.2867,-161.5001 1105.2867,-165 1115.2866,-168.5001 1115.2867,-161.5001"/>
</g>
<!-- TeamMembersListViewComponent -->
<g id="node6" class="node">
<title>TeamMembersListViewComponent</title>
<polygon fill="#ffffb3" stroke="#000000" points="1565.1713,-122 1346.8287,-122 1346.8287,-86 1565.1713,-86 1565.1713,-122"/>
<text text-anchor="middle" x="1456" y="-99.8" font-family="Times,serif" font-size="14.00" fill="#000000">TeamMembersListViewComponent</text>
</g>
<!-- TeamMembersListViewComponent&#45;&gt;SettingsModule -->
<g id="edge6" class="edge">
<title>TeamMembersListViewComponent&#45;&gt;SettingsModule</title>
<path fill="none" stroke="#000000" d="M1456,-122.027C1456,-138.3976 1456,-160 1456,-160 1456,-160 1115.2721,-160 1115.2721,-160"/>
<polygon fill="#000000" stroke="#000000" points="1115.2721,-156.5001 1105.2721,-160 1115.272,-163.5001 1115.2721,-156.5001"/>
</g>
<!-- ContextMenuModule -->
<g id="node8" class="node">
<title>ContextMenuModule</title>
<polygon fill="#8dd3c7" stroke="#000000" points="1323.0422,-122 1320.0422,-126 1299.0422,-126 1296.0422,-122 1186.9578,-122 1186.9578,-86 1323.0422,-86 1323.0422,-122"/>
<text text-anchor="middle" x="1255" y="-99.8" font-family="Times,serif" font-size="14.00" fill="#000000">ContextMenuModule</text>
</g>
<!-- ContextMenuModule&#45;&gt;SettingsModule -->
<g id="edge7" class="edge">
<title>ContextMenuModule&#45;&gt;SettingsModule</title>
<path fill="none" stroke="#000000" d="M1255,-122.1871C1255,-137.1824 1255,-156 1255,-156 1255,-156 1115.2827,-156 1115.2827,-156"/>
<polygon fill="#000000" stroke="#000000" points="1115.2828,-152.5001 1105.2827,-156 1115.2827,-159.5001 1115.2828,-152.5001"/>
</g>
<!-- DialogModule -->
<g id="node9" class="node">
<title>DialogModule</title>
<polygon fill="#8dd3c7" stroke="#000000" points="1168.6528,-122 1165.6528,-126 1144.6528,-126 1141.6528,-122 1071.3472,-122 1071.3472,-86 1168.6528,-86 1168.6528,-122"/>
<text text-anchor="middle" x="1120" y="-99.8" font-family="Times,serif" font-size="14.00" fill="#000000">DialogModule</text>
</g>
<!-- DialogModule&#45;&gt;SettingsModule -->
<g id="edge8" class="edge">
<title>DialogModule&#45;&gt;SettingsModule</title>
<path fill="none" stroke="#000000" d="M1088.2528,-122.1061C1088.2528,-122.1061 1088.2528,-140.991 1088.2528,-140.991"/>
<polygon fill="#000000" stroke="#000000" points="1084.7529,-140.9909 1088.2528,-150.991 1091.7529,-140.991 1084.7529,-140.9909"/>
</g>
<!-- SelectionBarModule -->
<g id="node10" class="node">
<title>SelectionBarModule</title>
<polygon fill="#8dd3c7" stroke="#000000" points="1052.8599,-122 1049.8599,-126 1028.8599,-126 1025.8599,-122 921.1401,-122 921.1401,-86 1052.8599,-86 1052.8599,-122"/>
<text text-anchor="middle" x="987" y="-99.8" font-family="Times,serif" font-size="14.00" fill="#000000">SelectionBarModule</text>
</g>
<!-- SelectionBarModule&#45;&gt;SettingsModule -->
<g id="edge9" class="edge">
<title>SelectionBarModule&#45;&gt;SettingsModule</title>
<path fill="none" stroke="#000000" d="M1026.7991,-122.1061C1026.7991,-122.1061 1026.7991,-140.991 1026.7991,-140.991"/>
<polygon fill="#000000" stroke="#000000" points="1023.2992,-140.9909 1026.7991,-150.991 1030.2992,-140.991 1023.2992,-140.9909"/>
</g>
<!-- SharedModule -->
<g id="node11" class="node">
<title>SharedModule</title>
<polygon fill="#8dd3c7" stroke="#000000" points="903.4231,-122 900.4231,-126 879.4231,-126 876.4231,-122 804.5769,-122 804.5769,-86 903.4231,-86 903.4231,-122"/>
<text text-anchor="middle" x="854" y="-99.8" font-family="Times,serif" font-size="14.00" fill="#000000">SharedModule</text>
</g>
<!-- SharedModule&#45;&gt;SettingsModule -->
<g id="edge10" class="edge">
<title>SharedModule&#45;&gt;SettingsModule</title>
<path fill="none" stroke="#000000" d="M854,-122.1871C854,-137.1824 854,-156 854,-156 854,-156 990.7151,-156 990.7151,-156"/>
<polygon fill="#000000" stroke="#000000" points="990.7151,-159.5001 1000.7151,-156 990.7151,-152.5001 990.7151,-159.5001"/>
</g>
<!-- SidenavModule -->
<g id="node12" class="node">
<title>SidenavModule</title>
<polygon fill="#8dd3c7" stroke="#000000" points="786.1528,-122 783.1528,-126 762.1528,-126 759.1528,-122 681.8472,-122 681.8472,-86 786.1528,-86 786.1528,-122"/>
<text text-anchor="middle" x="734" y="-99.8" font-family="Times,serif" font-size="14.00" fill="#000000">SidenavModule</text>
</g>
<!-- SidenavModule&#45;&gt;SettingsModule -->
<g id="edge11" class="edge">
<title>SidenavModule&#45;&gt;SettingsModule</title>
<path fill="none" stroke="#000000" d="M734,-122.027C734,-138.3976 734,-160 734,-160 734,-160 990.6808,-160 990.6808,-160"/>
<polygon fill="#000000" stroke="#000000" points="990.6809,-163.5001 1000.6808,-160 990.6808,-156.5001 990.6809,-163.5001"/>
</g>
<!-- TableModule -->
<g id="node13" class="node">
<title>TableModule</title>
<polygon fill="#8dd3c7" stroke="#000000" points="663.9232,-122 660.9232,-126 639.9232,-126 636.9232,-122 572.0768,-122 572.0768,-86 663.9232,-86 663.9232,-122"/>
<text text-anchor="middle" x="618" y="-99.8" font-family="Times,serif" font-size="14.00" fill="#000000">TableModule</text>
</g>
<!-- TableModule&#45;&gt;SettingsModule -->
<g id="edge12" class="edge">
<title>TableModule&#45;&gt;SettingsModule</title>
<path fill="none" stroke="#000000" d="M618,-122.302C618,-140.2699 618,-165 618,-165 618,-165 990.5288,-165 990.5288,-165"/>
<polygon fill="#000000" stroke="#000000" points="990.5289,-168.5001 1000.5288,-165 990.5288,-161.5001 990.5289,-168.5001"/>
</g>
<!-- TopPanelModule -->
<g id="node14" class="node">
<title>TopPanelModule</title>
<polygon fill="#8dd3c7" stroke="#000000" points="554.705,-122 551.705,-126 530.705,-126 527.705,-122 441.295,-122 441.295,-86 554.705,-86 554.705,-122"/>
<text text-anchor="middle" x="498" y="-99.8" font-family="Times,serif" font-size="14.00" fill="#000000">TopPanelModule</text>
</g>
<!-- TopPanelModule&#45;&gt;SettingsModule -->
<g id="edge13" class="edge">
<title>TopPanelModule&#45;&gt;SettingsModule</title>
<path fill="none" stroke="#000000" d="M498,-122.1061C498,-141.3391 498,-169 498,-169 498,-169 990.7869,-169 990.7869,-169"/>
<polygon fill="#000000" stroke="#000000" points="990.787,-172.5001 1000.7869,-169 990.7869,-165.5001 990.787,-172.5001"/>
</g>
<!-- UserModule -->
<g id="node15" class="node">
<title>UserModule</title>
<polygon fill="#8dd3c7" stroke="#000000" points="422.9762,-122 419.9762,-126 398.9762,-126 395.9762,-122 337.0238,-122 337.0238,-86 422.9762,-86 422.9762,-122"/>
<text text-anchor="middle" x="380" y="-99.8" font-family="Times,serif" font-size="14.00" fill="#000000">UserModule</text>
</g>
<!-- UserModule&#45;&gt;SettingsModule -->
<g id="edge14" class="edge">
<title>UserModule&#45;&gt;SettingsModule</title>
<path fill="none" stroke="#000000" d="M380,-122.0267C380,-142.7672 380,-174 380,-174 380,-174 990.7508,-174 990.7508,-174"/>
<polygon fill="#000000" stroke="#000000" points="990.7509,-177.5001 1000.7508,-174 990.7508,-170.5001 990.7509,-177.5001"/>
</g>
<!-- MemberService -->
<g id="node16" class="node">
<title>MemberService</title>
<ellipse fill="#fdb462" stroke="#000000" cx="240" cy="-104" rx="72.9102" ry="18"/>
<text text-anchor="middle" x="240" y="-99.8" font-family="Times,serif" font-size="14.00" fill="#000000">MemberService</text>
</g>
<!-- MemberService&#45;&gt;SettingsModule -->
<g id="edge15" class="edge">
<title>MemberService&#45;&gt;SettingsModule</title>
<path fill="none" stroke="#000000" d="M240,-122.2921C240,-144.2057 240,-178 240,-178 240,-178 990.5952,-178 990.5952,-178"/>
<polygon fill="#000000" stroke="#000000" points="990.5953,-181.5001 1000.5952,-178 990.5952,-174.5001 990.5953,-181.5001"/>
</g>
<!-- MenuService -->
<g id="node17" class="node">
<title>MenuService</title>
<ellipse fill="#fdb462" stroke="#000000" cx="87" cy="-104" rx="62.5392" ry="18"/>
<text text-anchor="middle" x="87" y="-99.8" font-family="Times,serif" font-size="14.00" fill="#000000">MenuService</text>
</g>
<!-- MenuService&#45;&gt;SettingsModule -->
<g id="edge16" class="edge">
<title>MenuService&#45;&gt;SettingsModule</title>
<path fill="none" stroke="#000000" d="M87,-122.3228C87,-145.6602 87,-183 87,-183 87,-183 990.7211,-183 990.7211,-183"/>
<polygon fill="#000000" stroke="#000000" points="990.7212,-186.5001 1000.7211,-183 990.7211,-179.5001 990.7212,-186.5001"/>
</g>
</g>
</svg>
