<?xml version="1.0" encoding="UTF-8" standalone="no"?>
<!DOCTYPE svg PUBLIC "-//W3C//DTD SVG 1.1//EN"
 "http://www.w3.org/Graphics/SVG/1.1/DTD/svg11.dtd">
<!-- Generated by graphviz version 2.40.1 (20161225.0304)
 -->
<!-- Title: dependencies Pages: 1 -->
<svg width="2707pt" height="211pt"
 viewBox="0.00 0.00 2707.00 211.00" xmlns="http://www.w3.org/2000/svg" xmlns:xlink="http://www.w3.org/1999/xlink">
<g id="graph0" class="graph" transform="scale(1 1) rotate(0) translate(4 207)">
<title>dependencies</title>
<polygon fill="#ffffff" stroke="transparent" points="-4,4 -4,-207 2703,-207 2703,4 -4,4"/>
<text text-anchor="start" x="1328.5091" y="-42.4" font-family="sans-serif" font-weight="bold" font-size="14.00" fill="#000000">Legend</text>
<polygon fill="#ffffb3" stroke="transparent" points="1115.5,-10 1115.5,-30 1135.5,-30 1135.5,-10 1115.5,-10"/>
<text text-anchor="start" x="1139.129" y="-15.4" font-family="sans-serif" font-size="14.00" fill="#000000"> &#160;Declarations</text>
<polygon fill="#8dd3c7" stroke="transparent" points="1228.5,-10 1228.5,-30 1248.5,-30 1248.5,-10 1228.5,-10"/>
<text text-anchor="start" x="1252.2251" y="-15.4" font-family="sans-serif" font-size="14.00" fill="#000000"> &#160;Module</text>
<polygon fill="#80b1d3" stroke="transparent" points="1314.5,-10 1314.5,-30 1334.5,-30 1334.5,-10 1314.5,-10"/>
<text text-anchor="start" x="1338.2812" y="-15.4" font-family="sans-serif" font-size="14.00" fill="#000000"> &#160;Bootstrap</text>
<polygon fill="#fdb462" stroke="transparent" points="1411.5,-10 1411.5,-30 1431.5,-30 1431.5,-10 1411.5,-10"/>
<text text-anchor="start" x="1435.1732" y="-15.4" font-family="sans-serif" font-size="14.00" fill="#000000"> &#160;Providers</text>
<polygon fill="#fb8072" stroke="transparent" points="1507.5,-10 1507.5,-30 1527.5,-30 1527.5,-10 1507.5,-10"/>
<text text-anchor="start" x="1531.2258" y="-15.4" font-family="sans-serif" font-size="14.00" fill="#000000"> &#160;Exports</text>
<g id="clust1" class="cluster">
<title>cluster_SettingsModule</title>
<polygon fill="none" stroke="#000000" stroke-dasharray="1,5" points="8,-70 8,-195 2691,-195 2691,-70 8,-70"/>
</g>
<g id="clust2" class="cluster">
<title>cluster_SettingsModule_declarations</title>
<polygon fill="none" stroke="#000000" points="1508,-78 1508,-130 2683,-130 2683,-78 1508,-78"/>
</g>
<g id="clust9" class="cluster">
<title>cluster_SettingsModule_imports</title>
<polygon fill="none" stroke="#000000" points="498,-78 498,-130 1500,-130 1500,-78 498,-78"/>
</g>
<g id="clust12" class="cluster">
<title>cluster_SettingsModule_providers</title>
<polygon fill="none" stroke="#000000" points="16,-78 16,-130 490,-130 490,-78 16,-78"/>
</g>
<!-- InviteUserDlgComponent -->
<g id="node1" class="node">
<title>InviteUserDlgComponent</title>
<polygon fill="#ffffb3" stroke="#000000" points="2674.9129,-122 2513.0871,-122 2513.0871,-86 2674.9129,-86 2674.9129,-122"/>
<text text-anchor="middle" x="2594" y="-99.8" font-family="Times,serif" font-size="14.00" fill="#000000">InviteUserDlgComponent</text>
</g>
<!-- SettingsModule -->
<g id="node7" class="node">
<title>SettingsModule</title>
<polygon fill="#8dd3c7" stroke="#000000" points="1208.1639,-187 1205.1639,-191 1184.1639,-191 1181.1639,-187 1103.8361,-187 1103.8361,-151 1208.1639,-151 1208.1639,-187"/>
<text text-anchor="middle" x="1156" y="-164.8" font-family="Times,serif" font-size="14.00" fill="#000000">SettingsModule</text>
</g>
<!-- InviteUserDlgComponent&#45;&gt;SettingsModule -->
<g id="edge1" class="edge">
<title>InviteUserDlgComponent&#45;&gt;SettingsModule</title>
<path fill="none" stroke="#000000" d="M2594,-122.3228C2594,-145.6602 2594,-183 2594,-183 2594,-183 1218.4559,-183 1218.4559,-183"/>
<polygon fill="#000000" stroke="#000000" points="1218.4559,-179.5001 1208.4559,-183 1218.4558,-186.5001 1218.4559,-179.5001"/>
</g>
<!-- NewTeamDlgComponent -->
<g id="node2" class="node">
<title>NewTeamDlgComponent</title>
<polygon fill="#ffffb3" stroke="#000000" points="2495.1302,-122 2334.8698,-122 2334.8698,-86 2495.1302,-86 2495.1302,-122"/>
<text text-anchor="middle" x="2415" y="-99.8" font-family="Times,serif" font-size="14.00" fill="#000000">NewTeamDlgComponent</text>
</g>
<!-- NewTeamDlgComponent&#45;&gt;SettingsModule -->
<g id="edge2" class="edge">
<title>NewTeamDlgComponent&#45;&gt;SettingsModule</title>
<path fill="none" stroke="#000000" d="M2415,-122.1554C2415,-144.3519 2415,-179 2415,-179 2415,-179 1218.4948,-179 1218.4948,-179"/>
<polygon fill="#000000" stroke="#000000" points="1218.4948,-175.5001 1208.4948,-179 1218.4947,-182.5001 1218.4948,-175.5001"/>
</g>
<!-- SettingsComponent -->
<g id="node3" class="node">
<title>SettingsComponent</title>
<polygon fill="#ffffb3" stroke="#000000" points="2316.4468,-122 2189.5532,-122 2189.5532,-86 2316.4468,-86 2316.4468,-122"/>
<text text-anchor="middle" x="2253" y="-99.8" font-family="Times,serif" font-size="14.00" fill="#000000">SettingsComponent</text>
</g>
<!-- SettingsComponent&#45;&gt;SettingsModule -->
<g id="edge3" class="edge">
<title>SettingsComponent&#45;&gt;SettingsModule</title>
<path fill="none" stroke="#000000" d="M2253,-122.2843C2253,-143.3211 2253,-175 2253,-175 2253,-175 1218.1726,-175 1218.1726,-175"/>
<polygon fill="#000000" stroke="#000000" points="1218.1726,-171.5001 1208.1726,-175 1218.1726,-178.5001 1218.1726,-171.5001"/>
</g>
<!-- SettingsProfileComponent -->
<g id="node4" class="node">
<title>SettingsProfileComponent</title>
<polygon fill="#ffffb3" stroke="#000000" points="2172.0462,-122 2007.9538,-122 2007.9538,-86 2172.0462,-86 2172.0462,-122"/>
<text text-anchor="middle" x="2090" y="-99.8" font-family="Times,serif" font-size="14.00" fill="#000000">SettingsProfileComponent</text>
</g>
<!-- SettingsProfileComponent&#45;&gt;SettingsModule -->
<g id="edge4" class="edge">
<title>SettingsProfileComponent&#45;&gt;SettingsModule</title>
<path fill="none" stroke="#000000" d="M2090,-122.308C2090,-142.1455 2090,-171 2090,-171 2090,-171 1218.2172,-171 1218.2172,-171"/>
<polygon fill="#000000" stroke="#000000" points="1218.2173,-167.5001 1208.2172,-171 1218.2172,-174.5001 1218.2173,-167.5001"/>
</g>
<!-- SettingsTeamMembersPageComponent -->
<g id="node5" class="node">
<title>SettingsTeamMembersPageComponent</title>
<polygon fill="#ffffb3" stroke="#000000" points="1990.4001,-122 1751.5999,-122 1751.5999,-86 1990.4001,-86 1990.4001,-122"/>
<text text-anchor="middle" x="1871" y="-99.8" font-family="Times,serif" font-size="14.00" fill="#000000">SettingsTeamMembersPageComponent</text>
</g>
<!-- SettingsTeamMembersPageComponent&#45;&gt;SettingsModule -->
<g id="edge5" class="edge">
<title>SettingsTeamMembersPageComponent&#45;&gt;SettingsModule</title>
<path fill="none" stroke="#000000" d="M1871,-122.2222C1871,-140.8285 1871,-167 1871,-167 1871,-167 1218.286,-167 1218.286,-167"/>
<polygon fill="#000000" stroke="#000000" points="1218.286,-163.5001 1208.286,-167 1218.2859,-170.5001 1218.286,-163.5001"/>
</g>
<!-- TeamMembersListViewComponent -->
<g id="node6" class="node">
<title>TeamMembersListViewComponent</title>
<polygon fill="#ffffb3" stroke="#000000" points="1734.1713,-122 1515.8287,-122 1515.8287,-86 1734.1713,-86 1734.1713,-122"/>
<text text-anchor="middle" x="1625" y="-99.8" font-family="Times,serif" font-size="14.00" fill="#000000">TeamMembersListViewComponent</text>
</g>
<!-- TeamMembersListViewComponent&#45;&gt;SettingsModule -->
<g id="edge6" class="edge">
<title>TeamMembersListViewComponent&#45;&gt;SettingsModule</title>
<path fill="none" stroke="#000000" d="M1625,-122.0225C1625,-139.3734 1625,-163 1625,-163 1625,-163 1218.4351,-163 1218.4351,-163"/>
<polygon fill="#000000" stroke="#000000" points="1218.4351,-159.5001 1208.4351,-163 1218.4351,-166.5001 1218.4351,-159.5001"/>
</g>
<!-- ContextMenuModule -->
<g id="node8" class="node">
<title>ContextMenuModule</title>
<polygon fill="#8dd3c7" stroke="#000000" points="1492.0422,-122 1489.0422,-126 1468.0422,-126 1465.0422,-122 1355.9578,-122 1355.9578,-86 1492.0422,-86 1492.0422,-122"/>
<text text-anchor="middle" x="1424" y="-99.8" font-family="Times,serif" font-size="14.00" fill="#000000">ContextMenuModule</text>
</g>
<!-- ContextMenuModule&#45;&gt;SettingsModule -->
<g id="edge7" class="edge">
<title>ContextMenuModule&#45;&gt;SettingsModule</title>
<path fill="none" stroke="#000000" d="M1424,-122.0091C1424,-138.0494 1424,-159 1424,-159 1424,-159 1218.3093,-159 1218.3093,-159"/>
<polygon fill="#000000" stroke="#000000" points="1218.3093,-155.5001 1208.3093,-159 1218.3093,-162.5001 1218.3093,-155.5001"/>
</g>
<!-- DialogModule -->
<g id="node9" class="node">
<title>DialogModule</title>
<polygon fill="#8dd3c7" stroke="#000000" points="1337.6528,-122 1334.6528,-126 1313.6528,-126 1310.6528,-122 1240.3472,-122 1240.3472,-86 1337.6528,-86 1337.6528,-122"/>
<text text-anchor="middle" x="1289" y="-99.8" font-family="Times,serif" font-size="14.00" fill="#000000">DialogModule</text>
</g>
<!-- DialogModule&#45;&gt;SettingsModule -->
<g id="edge8" class="edge">
<title>DialogModule&#45;&gt;SettingsModule</title>
<path fill="none" stroke="#000000" d="M1289,-122.1243C1289,-136.7832 1289,-155 1289,-155 1289,-155 1218.1834,-155 1218.1834,-155"/>
<polygon fill="#000000" stroke="#000000" points="1218.1834,-151.5001 1208.1834,-155 1218.1834,-158.5001 1218.1834,-151.5001"/>
</g>
<!-- SelectionBarModule -->
<g id="node10" class="node">
<title>SelectionBarModule</title>
<polygon fill="#8dd3c7" stroke="#000000" points="1221.8599,-122 1218.8599,-126 1197.8599,-126 1194.8599,-122 1090.1401,-122 1090.1401,-86 1221.8599,-86 1221.8599,-122"/>
<text text-anchor="middle" x="1156" y="-99.8" font-family="Times,serif" font-size="14.00" fill="#000000">SelectionBarModule</text>
</g>
<!-- SelectionBarModule&#45;&gt;SettingsModule -->
<g id="edge9" class="edge">
<title>SelectionBarModule&#45;&gt;SettingsModule</title>
<path fill="none" stroke="#000000" d="M1156,-122.1061C1156,-122.1061 1156,-140.991 1156,-140.991"/>
<polygon fill="#000000" stroke="#000000" points="1152.5001,-140.9909 1156,-150.991 1159.5001,-140.991 1152.5001,-140.9909"/>
</g>
<!-- SharedModule -->
<g id="node11" class="node">
<title>SharedModule</title>
<polygon fill="#8dd3c7" stroke="#000000" points="1072.4231,-122 1069.4231,-126 1048.4231,-126 1045.4231,-122 973.5769,-122 973.5769,-86 1072.4231,-86 1072.4231,-122"/>
<text text-anchor="middle" x="1023" y="-99.8" font-family="Times,serif" font-size="14.00" fill="#000000">SharedModule</text>
</g>
<!-- SharedModule&#45;&gt;SettingsModule -->
<g id="edge10" class="edge">
<title>SharedModule&#45;&gt;SettingsModule</title>
<path fill="none" stroke="#000000" d="M1023,-122.1243C1023,-136.7832 1023,-155 1023,-155 1023,-155 1093.8166,-155 1093.8166,-155"/>
<polygon fill="#000000" stroke="#000000" points="1093.8166,-158.5001 1103.8166,-155 1093.8166,-151.5001 1093.8166,-158.5001"/>
</g>
<!-- SidenavModule -->
<g id="node12" class="node">
<title>SidenavModule</title>
<polygon fill="#8dd3c7" stroke="#000000" points="955.1528,-122 952.1528,-126 931.1528,-126 928.1528,-122 850.8472,-122 850.8472,-86 955.1528,-86 955.1528,-122"/>
<text text-anchor="middle" x="903" y="-99.8" font-family="Times,serif" font-size="14.00" fill="#000000">SidenavModule</text>
</g>
<!-- SidenavModule&#45;&gt;SettingsModule -->
<g id="edge11" class="edge">
<title>SidenavModule&#45;&gt;SettingsModule</title>
<path fill="none" stroke="#000000" d="M903,-122.0091C903,-138.0494 903,-159 903,-159 903,-159 1093.5782,-159 1093.5782,-159"/>
<polygon fill="#000000" stroke="#000000" points="1093.5783,-162.5001 1103.5782,-159 1093.5782,-155.5001 1093.5783,-162.5001"/>
</g>
<!-- TableModule -->
<g id="node13" class="node">
<title>TableModule</title>
<polygon fill="#8dd3c7" stroke="#000000" points="832.9232,-122 829.9232,-126 808.9232,-126 805.9232,-122 741.0768,-122 741.0768,-86 832.9232,-86 832.9232,-122"/>
<text text-anchor="middle" x="787" y="-99.8" font-family="Times,serif" font-size="14.00" fill="#000000">TableModule</text>
</g>
<!-- TableModule&#45;&gt;SettingsModule -->
<g id="edge12" class="edge">
<title>TableModule&#45;&gt;SettingsModule</title>
<path fill="none" stroke="#000000" d="M787,-122.0225C787,-139.3734 787,-163 787,-163 787,-163 1093.5232,-163 1093.5232,-163"/>
<polygon fill="#000000" stroke="#000000" points="1093.5232,-166.5001 1103.5232,-163 1093.5231,-159.5001 1093.5232,-166.5001"/>
</g>
<!-- TopPanelModule -->
<g id="node14" class="node">
<title>TopPanelModule</title>
<polygon fill="#8dd3c7" stroke="#000000" points="723.705,-122 720.705,-126 699.705,-126 696.705,-122 610.295,-122 610.295,-86 723.705,-86 723.705,-122"/>
<text text-anchor="middle" x="667" y="-99.8" font-family="Times,serif" font-size="14.00" fill="#000000">TopPanelModule</text>
</g>
<!-- TopPanelModule&#45;&gt;SettingsModule -->
<g id="edge13" class="edge">
<title>TopPanelModule&#45;&gt;SettingsModule</title>
<path fill="none" stroke="#000000" d="M667,-122.2222C667,-140.8285 667,-167 667,-167 667,-167 1093.6684,-167 1093.6684,-167"/>
<polygon fill="#000000" stroke="#000000" points="1093.6685,-170.5001 1103.6684,-167 1093.6684,-163.5001 1093.6685,-170.5001"/>
</g>
<!-- UserModule -->
<g id="node15" class="node">
<title>UserModule</title>
<polygon fill="#8dd3c7" stroke="#000000" points="591.9762,-122 588.9762,-126 567.9762,-126 564.9762,-122 506.0238,-122 506.0238,-86 591.9762,-86 591.9762,-122"/>
<text text-anchor="middle" x="549" y="-99.8" font-family="Times,serif" font-size="14.00" fill="#000000">UserModule</text>
</g>
<!-- UserModule&#45;&gt;SettingsModule -->
<g id="edge14" class="edge">
<title>UserModule&#45;&gt;SettingsModule</title>
<path fill="none" stroke="#000000" d="M549,-122.308C549,-142.1455 549,-171 549,-171 549,-171 1093.7222,-171 1093.7222,-171"/>
<polygon fill="#000000" stroke="#000000" points="1093.7222,-174.5001 1103.7222,-171 1093.7221,-167.5001 1093.7222,-174.5001"/>
</g>
<!-- MemberService -->
<g id="node16" class="node">
<title>MemberService</title>
<ellipse fill="#fdb462" stroke="#000000" cx="409" cy="-104" rx="72.9102" ry="18"/>
<text text-anchor="middle" x="409" y="-99.8" font-family="Times,serif" font-size="14.00" fill="#000000">MemberService</text>
</g>
<!-- MemberService&#45;&gt;SettingsModule -->
<g id="edge15" class="edge">
<title>MemberService&#45;&gt;SettingsModule</title>
<path fill="none" stroke="#000000" d="M409,-122.2843C409,-143.3211 409,-175 409,-175 409,-175 1093.7693,-175 1093.7693,-175"/>
<polygon fill="#000000" stroke="#000000" points="1093.7693,-178.5001 1103.7693,-175 1093.7693,-171.5001 1093.7693,-178.5001"/>
</g>
<!-- MenuService -->
<g id="node17" class="node">
<title>MenuService</title>
<ellipse fill="#fdb462" stroke="#000000" cx="256" cy="-104" rx="62.5392" ry="18"/>
<text text-anchor="middle" x="256" y="-99.8" font-family="Times,serif" font-size="14.00" fill="#000000">MenuService</text>
</g>
<!-- MenuService&#45;&gt;SettingsModule -->
<g id="edge16" class="edge">
<title>MenuService&#45;&gt;SettingsModule</title>
<path fill="none" stroke="#000000" d="M256,-122.1554C256,-144.3519 256,-179 256,-179 256,-179 1093.7221,-179 1093.7221,-179"/>
<polygon fill="#000000" stroke="#000000" points="1093.7221,-182.5001 1103.7221,-179 1093.722,-175.5001 1093.7221,-182.5001"/>
</g>
<!-- SelectionService -->
<g id="node18" class="node">
<title>SelectionService</title>
<ellipse fill="#fdb462" stroke="#000000" cx="100" cy="-104" rx="75.8566" ry="18"/>
<text text-anchor="middle" x="100" y="-99.8" font-family="Times,serif" font-size="14.00" fill="#000000">SelectionService</text>
</g>
<!-- SelectionService&#45;&gt;SettingsModule -->
<g id="edge17" class="edge">
<title>SelectionService&#45;&gt;SettingsModule</title>
<path fill="none" stroke="#000000" d="M100,-122.3228C100,-145.6602 100,-183 100,-183 100,-183 1093.6328,-183 1093.6328,-183"/>
<polygon fill="#000000" stroke="#000000" points="1093.6328,-186.5001 1103.6328,-183 1093.6328,-179.5001 1093.6328,-186.5001"/>
</g>
</g>
</svg>
