<?xml version="1.0" encoding="UTF-8" standalone="no"?>
<!DOCTYPE svg PUBLIC "-//W3C//DTD SVG 1.1//EN"
 "http://www.w3.org/Graphics/SVG/1.1/DTD/svg11.dtd">
<!-- Generated by graphviz version 2.40.1 (20161225.0304)
 -->
<!-- Title: dependencies Pages: 1 -->
<svg width="1105pt" height="284pt"
 viewBox="0.00 0.00 1105.00 284.00" xmlns="http://www.w3.org/2000/svg" xmlns:xlink="http://www.w3.org/1999/xlink">
<g id="graph0" class="graph" transform="scale(1 1) rotate(0) translate(4 280)">
<title>dependencies</title>
<polygon fill="#ffffff" stroke="transparent" points="-4,4 -4,-280 1101,-280 1101,4 -4,4"/>
<text text-anchor="start" x="527.5091" y="-42.4" font-family="sans-serif" font-weight="bold" font-size="14.00" fill="#000000">Legend</text>
<polygon fill="#ffffb3" stroke="transparent" points="314.5,-10 314.5,-30 334.5,-30 334.5,-10 314.5,-10"/>
<text text-anchor="start" x="338.129" y="-15.4" font-family="sans-serif" font-size="14.00" fill="#000000"> &#160;Declarations</text>
<polygon fill="#8dd3c7" stroke="transparent" points="427.5,-10 427.5,-30 447.5,-30 447.5,-10 427.5,-10"/>
<text text-anchor="start" x="451.2251" y="-15.4" font-family="sans-serif" font-size="14.00" fill="#000000"> &#160;Module</text>
<polygon fill="#80b1d3" stroke="transparent" points="513.5,-10 513.5,-30 533.5,-30 533.5,-10 513.5,-10"/>
<text text-anchor="start" x="537.2812" y="-15.4" font-family="sans-serif" font-size="14.00" fill="#000000"> &#160;Bootstrap</text>
<polygon fill="#fdb462" stroke="transparent" points="610.5,-10 610.5,-30 630.5,-30 630.5,-10 610.5,-10"/>
<text text-anchor="start" x="634.1732" y="-15.4" font-family="sans-serif" font-size="14.00" fill="#000000"> &#160;Providers</text>
<polygon fill="#fb8072" stroke="transparent" points="706.5,-10 706.5,-30 726.5,-30 726.5,-10 706.5,-10"/>
<text text-anchor="start" x="730.2258" y="-15.4" font-family="sans-serif" font-size="14.00" fill="#000000"> &#160;Exports</text>
<g id="clust1" class="cluster">
<title>cluster_EditableFieldModule</title>
<polygon fill="none" stroke="#000000" stroke-dasharray="1,5" points="8,-70 8,-268 1089,-268 1089,-70 8,-70"/>
</g>
<g id="clust2" class="cluster">
<title>cluster_EditableFieldModule_declarations</title>
<polygon fill="none" stroke="#000000" points="733,-78 733,-130 1081,-130 1081,-78 733,-78"/>
</g>
<g id="clust5" class="cluster">
<title>cluster_EditableFieldModule_imports</title>
<polygon fill="none" stroke="#000000" points="16,-78 16,-130 725,-130 725,-78 16,-78"/>
</g>
<g id="clust6" class="cluster">
<title>cluster_EditableFieldModule_exports</title>
<polygon fill="none" stroke="#000000" points="327,-208 327,-260 682,-260 682,-208 327,-208"/>
</g>
<!-- EditableLabelComponent -->
<g id="node1" class="node">
<title>EditableLabelComponent</title>
<polygon fill="#ffffb3" stroke="#000000" points="1072.8585,-122 913.1415,-122 913.1415,-86 1072.8585,-86 1072.8585,-122"/>
<text text-anchor="middle" x="993" y="-99.8" font-family="Times,serif" font-size="14.00" fill="#000000">EditableLabelComponent</text>
</g>
<!-- EditableFieldModule -->
<g id="node3" class="node">
<title>EditableFieldModule</title>
<polygon fill="#8dd3c7" stroke="#000000" points="570.4818,-187 567.4818,-191 546.4818,-191 543.4818,-187 435.5182,-187 435.5182,-151 570.4818,-151 570.4818,-187"/>
<text text-anchor="middle" x="503" y="-164.8" font-family="Times,serif" font-size="14.00" fill="#000000">EditableFieldModule</text>
</g>
<!-- EditableLabelComponent&#45;&gt;EditableFieldModule -->
<g id="edge1" class="edge">
<title>EditableLabelComponent&#45;&gt;EditableFieldModule</title>
<path fill="none" stroke="#000000" d="M993,-122.2921C993,-144.2057 993,-178 993,-178 993,-178 580.6179,-178 580.6179,-178"/>
<polygon fill="#000000" stroke="#000000" points="580.618,-174.5001 570.6179,-178 580.6179,-181.5001 580.618,-174.5001"/>
</g>
<!-- EditableTextComponent -->
<g id="node2" class="node">
<title>EditableTextComponent</title>
<polygon fill="#ffffb3" stroke="#000000" points="894.6442,-122 741.3558,-122 741.3558,-86 894.6442,-86 894.6442,-122"/>
<text text-anchor="middle" x="818" y="-99.8" font-family="Times,serif" font-size="14.00" fill="#000000">EditableTextComponent</text>
</g>
<!-- EditableTextComponent&#45;&gt;EditableFieldModule -->
<g id="edge2" class="edge">
<title>EditableTextComponent&#45;&gt;EditableFieldModule</title>
<path fill="none" stroke="#000000" d="M818,-122.1061C818,-141.3391 818,-169 818,-169 818,-169 580.5754,-169 580.5754,-169"/>
<polygon fill="#000000" stroke="#000000" points="580.5754,-165.5001 570.5754,-169 580.5754,-172.5001 580.5754,-165.5001"/>
</g>
<!-- EditableLabelComponent  -->
<g id="node10" class="node">
<title>EditableLabelComponent </title>
<polygon fill="#fb8072" stroke="#000000" points="673.8588,-252 510.1412,-252 510.1412,-216 673.8588,-216 673.8588,-252"/>
<text text-anchor="middle" x="592" y="-229.8" font-family="Times,serif" font-size="14.00" fill="#000000">EditableLabelComponent </text>
</g>
<!-- EditableFieldModule&#45;&gt;EditableLabelComponent  -->
<g id="edge9" class="edge">
<title>EditableFieldModule&#45;&gt;EditableLabelComponent </title>
<path fill="none" stroke="#000000" stroke-dasharray="5,2" d="M540.4059,-187.1061C540.4059,-187.1061 540.4059,-205.991 540.4059,-205.991"/>
<polygon fill="#000000" stroke="#000000" points="536.9059,-205.9909 540.4059,-215.991 543.9059,-205.991 536.9059,-205.9909"/>
</g>
<!-- EditableTextComponent  -->
<g id="node11" class="node">
<title>EditableTextComponent </title>
<polygon fill="#fb8072" stroke="#000000" points="492.6439,-252 335.3561,-252 335.3561,-216 492.6439,-216 492.6439,-252"/>
<text text-anchor="middle" x="414" y="-229.8" font-family="Times,serif" font-size="14.00" fill="#000000">EditableTextComponent </text>
</g>
<!-- EditableFieldModule&#45;&gt;EditableTextComponent  -->
<g id="edge10" class="edge">
<title>EditableFieldModule&#45;&gt;EditableTextComponent </title>
<path fill="none" stroke="#000000" stroke-dasharray="5,2" d="M464.0405,-187.1061C464.0405,-187.1061 464.0405,-205.991 464.0405,-205.991"/>
<polygon fill="#000000" stroke="#000000" points="460.5406,-205.9909 464.0405,-215.991 467.5406,-205.991 460.5406,-205.9909"/>
</g>
<!-- BadgeModule -->
<g id="node4" class="node">
<title>BadgeModule</title>
<polygon fill="#8dd3c7" stroke="#000000" points="716.8161,-122 713.8161,-126 692.8161,-126 689.8161,-122 621.1839,-122 621.1839,-86 716.8161,-86 716.8161,-122"/>
<text text-anchor="middle" x="669" y="-99.8" font-family="Times,serif" font-size="14.00" fill="#000000">BadgeModule</text>
</g>
<!-- BadgeModule&#45;&gt;EditableFieldModule -->
<g id="edge3" class="edge">
<title>BadgeModule&#45;&gt;EditableFieldModule</title>
<path fill="none" stroke="#000000" d="M647.5107,-122.027C647.5107,-138.3976 647.5107,-160 647.5107,-160 647.5107,-160 580.6011,-160 580.6011,-160"/>
<polygon fill="#000000" stroke="#000000" points="580.6012,-156.5001 570.6011,-160 580.6011,-163.5001 580.6012,-156.5001"/>
</g>
<!-- IconsModule -->
<g id="node5" class="node">
<title>IconsModule</title>
<polygon fill="#8dd3c7" stroke="#000000" points="602.8697,-122 599.8697,-126 578.8697,-126 575.8697,-122 513.1303,-122 513.1303,-86 602.8697,-86 602.8697,-122"/>
<text text-anchor="middle" x="558" y="-99.8" font-family="Times,serif" font-size="14.00" fill="#000000">IconsModule</text>
</g>
<!-- IconsModule&#45;&gt;EditableFieldModule -->
<g id="edge4" class="edge">
<title>IconsModule&#45;&gt;EditableFieldModule</title>
<path fill="none" stroke="#000000" d="M541.7781,-122.1061C541.7781,-122.1061 541.7781,-140.991 541.7781,-140.991"/>
<polygon fill="#000000" stroke="#000000" points="538.2781,-140.9909 541.7781,-150.991 545.2781,-140.991 538.2781,-140.9909"/>
</g>
<!-- InputsModule -->
<g id="node6" class="node">
<title>InputsModule</title>
<polygon fill="#8dd3c7" stroke="#000000" points="495.0467,-122 492.0467,-126 471.0467,-126 468.0467,-122 400.9533,-122 400.9533,-86 495.0467,-86 495.0467,-122"/>
<text text-anchor="middle" x="448" y="-99.8" font-family="Times,serif" font-size="14.00" fill="#000000">InputsModule</text>
</g>
<!-- InputsModule&#45;&gt;EditableFieldModule -->
<g id="edge5" class="edge">
<title>InputsModule&#45;&gt;EditableFieldModule</title>
<path fill="none" stroke="#000000" d="M465.391,-122.1061C465.391,-122.1061 465.391,-140.991 465.391,-140.991"/>
<polygon fill="#000000" stroke="#000000" points="461.891,-140.9909 465.391,-150.991 468.891,-140.991 461.891,-140.9909"/>
</g>
<!-- SelectorsModule -->
<g id="node7" class="node">
<title>SelectorsModule</title>
<polygon fill="#8dd3c7" stroke="#000000" points="382.3627,-122 379.3627,-126 358.3627,-126 355.3627,-122 271.6373,-122 271.6373,-86 382.3627,-86 382.3627,-122"/>
<text text-anchor="middle" x="327" y="-99.8" font-family="Times,serif" font-size="14.00" fill="#000000">SelectorsModule</text>
</g>
<!-- SelectorsModule&#45;&gt;EditableFieldModule -->
<g id="edge6" class="edge">
<title>SelectorsModule&#45;&gt;EditableFieldModule</title>
<path fill="none" stroke="#000000" d="M358.9297,-122.027C358.9297,-138.3976 358.9297,-160 358.9297,-160 358.9297,-160 425.1835,-160 425.1835,-160"/>
<polygon fill="#000000" stroke="#000000" points="425.1835,-163.5001 435.1835,-160 425.1835,-156.5001 425.1835,-163.5001"/>
</g>
<!-- UserPictureModule -->
<g id="node8" class="node">
<title>UserPictureModule</title>
<polygon fill="#8dd3c7" stroke="#000000" points="253.6303,-122 250.6303,-126 229.6303,-126 226.6303,-122 128.3697,-122 128.3697,-86 253.6303,-86 253.6303,-122"/>
<text text-anchor="middle" x="191" y="-99.8" font-family="Times,serif" font-size="14.00" fill="#000000">UserPictureModule</text>
</g>
<!-- UserPictureModule&#45;&gt;EditableFieldModule -->
<g id="edge7" class="edge">
<title>UserPictureModule&#45;&gt;EditableFieldModule</title>
<path fill="none" stroke="#000000" d="M191,-122.1061C191,-141.3391 191,-169 191,-169 191,-169 425.3006,-169 425.3006,-169"/>
<polygon fill="#000000" stroke="#000000" points="425.3007,-172.5001 435.3006,-169 425.3006,-165.5001 425.3007,-172.5001"/>
</g>
<!-- UtilsModule -->
<g id="node9" class="node">
<title>UtilsModule</title>
<polygon fill="#8dd3c7" stroke="#000000" points="110.2731,-122 107.2731,-126 86.2731,-126 83.2731,-122 23.7269,-122 23.7269,-86 110.2731,-86 110.2731,-122"/>
<text text-anchor="middle" x="67" y="-99.8" font-family="Times,serif" font-size="14.00" fill="#000000">UtilsModule</text>
</g>
<!-- UtilsModule&#45;&gt;EditableFieldModule -->
<g id="edge8" class="edge">
<title>UtilsModule&#45;&gt;EditableFieldModule</title>
<path fill="none" stroke="#000000" d="M67,-122.2921C67,-144.2057 67,-178 67,-178 67,-178 425.3534,-178 425.3534,-178"/>
<polygon fill="#000000" stroke="#000000" points="425.3534,-181.5001 435.3534,-178 425.3533,-174.5001 425.3534,-181.5001"/>
</g>
</g>
</svg>
