<?xml version="1.0" encoding="UTF-8" standalone="no"?>
<!DOCTYPE svg PUBLIC "-//W3C//DTD SVG 1.1//EN"
 "http://www.w3.org/Graphics/SVG/1.1/DTD/svg11.dtd">
<!-- Generated by graphviz version 2.40.1 (20161225.0304)
 -->
<!-- Title: dependencies Pages: 1 -->
<svg width="962pt" height="284pt"
 viewBox="0.00 0.00 962.00 284.00" xmlns="http://www.w3.org/2000/svg" xmlns:xlink="http://www.w3.org/1999/xlink">
<g id="graph0" class="graph" transform="scale(1 1) rotate(0) translate(4 280)">
<title>dependencies</title>
<polygon fill="#ffffff" stroke="transparent" points="-4,4 -4,-280 958,-280 958,4 -4,4"/>
<text text-anchor="start" x="456.0091" y="-42.4" font-family="sans-serif" font-weight="bold" font-size="14.00" fill="#000000">Legend</text>
<polygon fill="#ffffb3" stroke="transparent" points="243,-10 243,-30 263,-30 263,-10 243,-10"/>
<text text-anchor="start" x="266.629" y="-15.4" font-family="sans-serif" font-size="14.00" fill="#000000"> &#160;Declarations</text>
<polygon fill="#8dd3c7" stroke="transparent" points="356,-10 356,-30 376,-30 376,-10 356,-10"/>
<text text-anchor="start" x="379.7251" y="-15.4" font-family="sans-serif" font-size="14.00" fill="#000000"> &#160;Module</text>
<polygon fill="#80b1d3" stroke="transparent" points="442,-10 442,-30 462,-30 462,-10 442,-10"/>
<text text-anchor="start" x="465.7812" y="-15.4" font-family="sans-serif" font-size="14.00" fill="#000000"> &#160;Bootstrap</text>
<polygon fill="#fdb462" stroke="transparent" points="539,-10 539,-30 559,-30 559,-10 539,-10"/>
<text text-anchor="start" x="562.6732" y="-15.4" font-family="sans-serif" font-size="14.00" fill="#000000"> &#160;Providers</text>
<polygon fill="#fb8072" stroke="transparent" points="635,-10 635,-30 655,-30 655,-10 635,-10"/>
<text text-anchor="start" x="658.7258" y="-15.4" font-family="sans-serif" font-size="14.00" fill="#000000"> &#160;Exports</text>
<g id="clust1" class="cluster">
<title>cluster_CarouselModule</title>
<polygon fill="none" stroke="#000000" stroke-dasharray="1,5" points="8,-70 8,-268 946,-268 946,-70 8,-70"/>
</g>
<g id="clust2" class="cluster">
<title>cluster_CarouselModule_declarations</title>
<polygon fill="none" stroke="#000000" points="238,-78 238,-130 938,-130 938,-78 238,-78"/>
</g>
<g id="clust7" class="cluster">
<title>cluster_CarouselModule_imports</title>
<polygon fill="none" stroke="#000000" points="16,-78 16,-130 230,-130 230,-78 16,-78"/>
</g>
<g id="clust8" class="cluster">
<title>cluster_CarouselModule_exports</title>
<polygon fill="none" stroke="#000000" points="75,-208 75,-260 790,-260 790,-208 75,-208"/>
</g>
<!-- CarouselCardComponent -->
<g id="node1" class="node">
<title>CarouselCardComponent</title>
<polygon fill="#ffffb3" stroke="#000000" points="930.3061,-122 771.6939,-122 771.6939,-86 930.3061,-86 930.3061,-122"/>
<text text-anchor="middle" x="851" y="-99.8" font-family="Times,serif" font-size="14.00" fill="#000000">CarouselCardComponent</text>
</g>
<!-- CarouselModule -->
<g id="node5" class="node">
<title>CarouselModule</title>
<polygon fill="#8dd3c7" stroke="#000000" points="473.8118,-187 470.8118,-191 449.8118,-191 446.8118,-187 364.1882,-187 364.1882,-151 473.8118,-151 473.8118,-187"/>
<text text-anchor="middle" x="419" y="-164.8" font-family="Times,serif" font-size="14.00" fill="#000000">CarouselModule</text>
</g>
<!-- CarouselCardComponent&#45;&gt;CarouselModule -->
<g id="edge1" class="edge">
<title>CarouselCardComponent&#45;&gt;CarouselModule</title>
<path fill="none" stroke="#000000" d="M776.875,-122.1061C776.875,-141.3391 776.875,-169 776.875,-169 776.875,-169 483.7431,-169 483.7431,-169"/>
<polygon fill="#000000" stroke="#000000" points="483.7431,-165.5001 473.7431,-169 483.743,-172.5001 483.7431,-165.5001"/>
</g>
<!-- CarouselComponent -->
<g id="node2" class="node">
<title>CarouselComponent</title>
<polygon fill="#ffffb3" stroke="#000000" points="753.594,-122 622.406,-122 622.406,-86 753.594,-86 753.594,-122"/>
<text text-anchor="middle" x="688" y="-99.8" font-family="Times,serif" font-size="14.00" fill="#000000">CarouselComponent</text>
</g>
<!-- CarouselComponent&#45;&gt;CarouselModule -->
<g id="edge2" class="edge">
<title>CarouselComponent&#45;&gt;CarouselModule</title>
<path fill="none" stroke="#000000" d="M709.849,-122.027C709.849,-138.3976 709.849,-160 709.849,-160 709.849,-160 483.7065,-160 483.7065,-160"/>
<polygon fill="#000000" stroke="#000000" points="483.7065,-156.5001 473.7065,-160 483.7064,-163.5001 483.7065,-156.5001"/>
</g>
<!-- ImagePreviewerComponent -->
<g id="node3" class="node">
<title>ImagePreviewerComponent</title>
<polygon fill="#ffffb3" stroke="#000000" points="604.5576,-122 431.4424,-122 431.4424,-86 604.5576,-86 604.5576,-122"/>
<text text-anchor="middle" x="518" y="-99.8" font-family="Times,serif" font-size="14.00" fill="#000000">ImagePreviewerComponent</text>
</g>
<!-- ImagePreviewerComponent&#45;&gt;CarouselModule -->
<g id="edge3" class="edge">
<title>ImagePreviewerComponent&#45;&gt;CarouselModule</title>
<path fill="none" stroke="#000000" d="M452.5635,-122.1061C452.5635,-122.1061 452.5635,-140.991 452.5635,-140.991"/>
<polygon fill="#000000" stroke="#000000" points="449.0635,-140.9909 452.5635,-150.991 456.0635,-140.991 449.0635,-140.9909"/>
</g>
<!-- ModalCarouselComponent -->
<g id="node4" class="node">
<title>ModalCarouselComponent</title>
<polygon fill="#ffffb3" stroke="#000000" points="413.6442,-122 246.3558,-122 246.3558,-86 413.6442,-86 413.6442,-122"/>
<text text-anchor="middle" x="330" y="-99.8" font-family="Times,serif" font-size="14.00" fill="#000000">ModalCarouselComponent</text>
</g>
<!-- ModalCarouselComponent&#45;&gt;CarouselModule -->
<g id="edge4" class="edge">
<title>ModalCarouselComponent&#45;&gt;CarouselModule</title>
<path fill="none" stroke="#000000" d="M389.0831,-122.1061C389.0831,-122.1061 389.0831,-140.991 389.0831,-140.991"/>
<polygon fill="#000000" stroke="#000000" points="385.5832,-140.9909 389.0831,-150.991 392.5832,-140.991 385.5832,-140.9909"/>
</g>
<!-- CarouselCardComponent  -->
<g id="node8" class="node">
<title>CarouselCardComponent </title>
<polygon fill="#fb8072" stroke="#000000" points="781.8059,-252 620.1941,-252 620.1941,-216 781.8059,-216 781.8059,-252"/>
<text text-anchor="middle" x="701" y="-229.8" font-family="Times,serif" font-size="14.00" fill="#000000">CarouselCardComponent </text>
</g>
<!-- CarouselModule&#45;&gt;CarouselCardComponent  -->
<g id="edge7" class="edge">
<title>CarouselModule&#45;&gt;CarouselCardComponent </title>
<path fill="none" stroke="#000000" stroke-dasharray="5,2" d="M473.8508,-178C546.6635,-178 666.151,-178 666.151,-178 666.151,-178 666.151,-205.973 666.151,-205.973"/>
<polygon fill="#000000" stroke="#000000" points="662.6511,-205.973 666.151,-215.973 669.6511,-205.973 662.6511,-205.973"/>
</g>
<!-- CarouselComponent  -->
<g id="node9" class="node">
<title>CarouselComponent </title>
<polygon fill="#fb8072" stroke="#000000" points="602.0946,-252 467.9054,-252 467.9054,-216 602.0946,-216 602.0946,-252"/>
<text text-anchor="middle" x="535" y="-229.8" font-family="Times,serif" font-size="14.00" fill="#000000">CarouselComponent </text>
</g>
<!-- CarouselModule&#45;&gt;CarouselComponent  -->
<g id="edge8" class="edge">
<title>CarouselModule&#45;&gt;CarouselComponent </title>
<path fill="none" stroke="#000000" stroke-dasharray="5,2" d="M458.4909,-187.1061C458.4909,-206.3391 458.4909,-234 458.4909,-234 458.4909,-234 459.4291,-234 459.4291,-234"/>
<polygon fill="#000000" stroke="#000000" points="457.8725,-237.5001 467.8724,-234 457.8724,-230.5001 457.8725,-237.5001"/>
</g>
<!-- ImagePreviewerComponent  -->
<g id="node10" class="node">
<title>ImagePreviewerComponent </title>
<polygon fill="#fb8072" stroke="#000000" points="449.0582,-252 272.9418,-252 272.9418,-216 449.0582,-216 449.0582,-252"/>
<text text-anchor="middle" x="361" y="-229.8" font-family="Times,serif" font-size="14.00" fill="#000000">ImagePreviewerComponent </text>
</g>
<!-- CarouselModule&#45;&gt;ImagePreviewerComponent  -->
<g id="edge9" class="edge">
<title>CarouselModule&#45;&gt;ImagePreviewerComponent </title>
<path fill="none" stroke="#000000" stroke-dasharray="5,2" d="M406.8116,-187.1061C406.8116,-187.1061 406.8116,-205.991 406.8116,-205.991"/>
<polygon fill="#000000" stroke="#000000" points="403.3116,-205.9909 406.8116,-215.991 410.3116,-205.991 403.3116,-205.9909"/>
</g>
<!-- ModalCarouselComponent  -->
<g id="node11" class="node">
<title>ModalCarouselComponent </title>
<polygon fill="#fb8072" stroke="#000000" points="254.6439,-252 83.3561,-252 83.3561,-216 254.6439,-216 254.6439,-252"/>
<text text-anchor="middle" x="169" y="-229.8" font-family="Times,serif" font-size="14.00" fill="#000000">ModalCarouselComponent </text>
</g>
<!-- CarouselModule&#45;&gt;ModalCarouselComponent  -->
<g id="edge10" class="edge">
<title>CarouselModule&#45;&gt;ModalCarouselComponent </title>
<path fill="none" stroke="#000000" stroke-dasharray="5,2" d="M364.2523,-178C315.0149,-178 250.375,-178 250.375,-178 250.375,-178 250.375,-205.973 250.375,-205.973"/>
<polygon fill="#000000" stroke="#000000" points="246.8751,-205.973 250.375,-215.973 253.8751,-205.973 246.8751,-205.973"/>
</g>
<!-- FileModule -->
<g id="node6" class="node">
<title>FileModule</title>
<polygon fill="#8dd3c7" stroke="#000000" points="221.8289,-122 218.8289,-126 197.8289,-126 194.8289,-122 140.1711,-122 140.1711,-86 221.8289,-86 221.8289,-122"/>
<text text-anchor="middle" x="181" y="-99.8" font-family="Times,serif" font-size="14.00" fill="#000000">FileModule</text>
</g>
<!-- FileModule&#45;&gt;CarouselModule -->
<g id="edge5" class="edge">
<title>FileModule&#45;&gt;CarouselModule</title>
<path fill="none" stroke="#000000" d="M181,-122.027C181,-138.3976 181,-160 181,-160 181,-160 354.0992,-160 354.0992,-160"/>
<polygon fill="#000000" stroke="#000000" points="354.0992,-163.5001 364.0992,-160 354.0991,-156.5001 354.0992,-163.5001"/>
</g>
<!-- SharedModule -->
<g id="node7" class="node">
<title>SharedModule</title>
<polygon fill="#8dd3c7" stroke="#000000" points="122.4231,-122 119.4231,-126 98.4231,-126 95.4231,-122 23.5769,-122 23.5769,-86 122.4231,-86 122.4231,-122"/>
<text text-anchor="middle" x="73" y="-99.8" font-family="Times,serif" font-size="14.00" fill="#000000">SharedModule</text>
</g>
<!-- SharedModule&#45;&gt;CarouselModule -->
<g id="edge6" class="edge">
<title>SharedModule&#45;&gt;CarouselModule</title>
<path fill="none" stroke="#000000" d="M102.8196,-122.1061C102.8196,-141.3391 102.8196,-169 102.8196,-169 102.8196,-169 354.2865,-169 354.2865,-169"/>
<polygon fill="#000000" stroke="#000000" points="354.2866,-172.5001 364.2865,-169 354.2865,-165.5001 354.2866,-172.5001"/>
</g>
</g>
</svg>
