<?xml version="1.0" encoding="UTF-8" standalone="no"?>
<!DOCTYPE svg PUBLIC "-//W3C//DTD SVG 1.1//EN"
 "http://www.w3.org/Graphics/SVG/1.1/DTD/svg11.dtd">
<!-- Generated by graphviz version 2.40.1 (20161225.0304)
 -->
<!-- Title: dependencies Pages: 1 -->
<svg width="1719pt" height="211pt"
 viewBox="0.00 0.00 1719.00 211.00" xmlns="http://www.w3.org/2000/svg" xmlns:xlink="http://www.w3.org/1999/xlink">
<g id="graph0" class="graph" transform="scale(1 1) rotate(0) translate(4 207)">
<title>dependencies</title>
<polygon fill="#ffffff" stroke="transparent" points="-4,4 -4,-207 1715,-207 1715,4 -4,4"/>
<text text-anchor="start" x="834.5091" y="-42.4" font-family="sans-serif" font-weight="bold" font-size="14.00" fill="#000000">Legend</text>
<polygon fill="#ffffb3" stroke="transparent" points="621.5,-10 621.5,-30 641.5,-30 641.5,-10 621.5,-10"/>
<text text-anchor="start" x="645.129" y="-15.4" font-family="sans-serif" font-size="14.00" fill="#000000"> &#160;Declarations</text>
<polygon fill="#8dd3c7" stroke="transparent" points="734.5,-10 734.5,-30 754.5,-30 754.5,-10 734.5,-10"/>
<text text-anchor="start" x="758.2251" y="-15.4" font-family="sans-serif" font-size="14.00" fill="#000000"> &#160;Module</text>
<polygon fill="#80b1d3" stroke="transparent" points="820.5,-10 820.5,-30 840.5,-30 840.5,-10 820.5,-10"/>
<text text-anchor="start" x="844.2812" y="-15.4" font-family="sans-serif" font-size="14.00" fill="#000000"> &#160;Bootstrap</text>
<polygon fill="#fdb462" stroke="transparent" points="917.5,-10 917.5,-30 937.5,-30 937.5,-10 917.5,-10"/>
<text text-anchor="start" x="941.1732" y="-15.4" font-family="sans-serif" font-size="14.00" fill="#000000"> &#160;Providers</text>
<polygon fill="#fb8072" stroke="transparent" points="1013.5,-10 1013.5,-30 1033.5,-30 1033.5,-10 1013.5,-10"/>
<text text-anchor="start" x="1037.2258" y="-15.4" font-family="sans-serif" font-size="14.00" fill="#000000"> &#160;Exports</text>
<g id="clust1" class="cluster">
<title>cluster_AuthModule</title>
<polygon fill="none" stroke="#000000" stroke-dasharray="1,5" points="8,-70 8,-195 1703,-195 1703,-70 8,-70"/>
</g>
<g id="clust2" class="cluster">
<title>cluster_AuthModule_declarations</title>
<polygon fill="none" stroke="#000000" points="850,-78 850,-130 1695,-130 1695,-78 850,-78"/>
</g>
<g id="clust8" class="cluster">
<title>cluster_AuthModule_imports</title>
<polygon fill="none" stroke="#000000" points="728,-78 728,-130 842,-130 842,-78 728,-78"/>
</g>
<g id="clust11" class="cluster">
<title>cluster_AuthModule_providers</title>
<polygon fill="none" stroke="#000000" points="16,-78 16,-130 720,-130 720,-78 16,-78"/>
</g>
<!-- AccountCreatedComponent -->
<g id="node1" class="node">
<title>AccountCreatedComponent</title>
<polygon fill="#ffffb3" stroke="#000000" points="1687.2906,-122 1514.7094,-122 1514.7094,-86 1687.2906,-86 1687.2906,-122"/>
<text text-anchor="middle" x="1601" y="-99.8" font-family="Times,serif" font-size="14.00" fill="#000000">AccountCreatedComponent</text>
</g>
<!-- AuthModule -->
<g id="node6" class="node">
<title>AuthModule</title>
<polygon fill="#8dd3c7" stroke="#000000" points="902.5482,-187 899.5482,-191 878.5482,-191 875.5482,-187 815.4518,-187 815.4518,-151 902.5482,-151 902.5482,-187"/>
<text text-anchor="middle" x="859" y="-164.8" font-family="Times,serif" font-size="14.00" fill="#000000">AuthModule</text>
</g>
<!-- AccountCreatedComponent&#45;&gt;AuthModule -->
<g id="edge1" class="edge">
<title>AccountCreatedComponent&#45;&gt;AuthModule</title>
<path fill="none" stroke="#000000" d="M1601,-122.0109C1601,-144.4852 1601,-180 1601,-180 1601,-180 912.6453,-180 912.6453,-180"/>
<polygon fill="#000000" stroke="#000000" points="912.6454,-176.5001 902.6453,-180 912.6453,-183.5001 912.6454,-176.5001"/>
</g>
<!-- ForgotPasswordComponent -->
<g id="node2" class="node">
<title>ForgotPasswordComponent</title>
<polygon fill="#ffffb3" stroke="#000000" points="1497.3201,-122 1324.6799,-122 1324.6799,-86 1497.3201,-86 1497.3201,-122"/>
<text text-anchor="middle" x="1411" y="-99.8" font-family="Times,serif" font-size="14.00" fill="#000000">ForgotPasswordComponent</text>
</g>
<!-- ForgotPasswordComponent&#45;&gt;AuthModule -->
<g id="edge2" class="edge">
<title>ForgotPasswordComponent&#45;&gt;AuthModule</title>
<path fill="none" stroke="#000000" d="M1411,-122.1289C1411,-142.5724 1411,-173 1411,-173 1411,-173 912.7759,-173 912.7759,-173"/>
<polygon fill="#000000" stroke="#000000" points="912.7759,-169.5001 902.7759,-173 912.7759,-176.5001 912.7759,-169.5001"/>
</g>
<!-- LoginComponent -->
<g id="node3" class="node">
<title>LoginComponent</title>
<polygon fill="#ffffb3" stroke="#000000" points="1306.2758,-122 1191.7242,-122 1191.7242,-86 1306.2758,-86 1306.2758,-122"/>
<text text-anchor="middle" x="1249" y="-99.8" font-family="Times,serif" font-size="14.00" fill="#000000">LoginComponent</text>
</g>
<!-- LoginComponent&#45;&gt;AuthModule -->
<g id="edge3" class="edge">
<title>LoginComponent&#45;&gt;AuthModule</title>
<path fill="none" stroke="#000000" d="M1249,-122.2667C1249,-140.5552 1249,-166 1249,-166 1249,-166 912.6027,-166 912.6027,-166"/>
<polygon fill="#000000" stroke="#000000" points="912.6028,-162.5001 902.6027,-166 912.6027,-169.5001 912.6028,-162.5001"/>
</g>
<!-- PwResettedComponent -->
<g id="node4" class="node">
<title>PwResettedComponent</title>
<polygon fill="#ffffb3" stroke="#000000" points="1173.9284,-122 1026.0716,-122 1026.0716,-86 1173.9284,-86 1173.9284,-122"/>
<text text-anchor="middle" x="1100" y="-99.8" font-family="Times,serif" font-size="14.00" fill="#000000">PwResettedComponent</text>
</g>
<!-- PwResettedComponent&#45;&gt;AuthModule -->
<g id="edge4" class="edge">
<title>PwResettedComponent&#45;&gt;AuthModule</title>
<path fill="none" stroke="#000000" d="M1100,-122.0091C1100,-138.0494 1100,-159 1100,-159 1100,-159 912.6433,-159 912.6433,-159"/>
<polygon fill="#000000" stroke="#000000" points="912.6433,-155.5001 902.6433,-159 912.6432,-162.5001 912.6433,-155.5001"/>
</g>
<!-- RegistrationComponent -->
<g id="node5" class="node">
<title>RegistrationComponent</title>
<polygon fill="#ffffb3" stroke="#000000" points="1007.766,-122 858.234,-122 858.234,-86 1007.766,-86 1007.766,-122"/>
<text text-anchor="middle" x="933" y="-99.8" font-family="Times,serif" font-size="14.00" fill="#000000">RegistrationComponent</text>
</g>
<!-- RegistrationComponent&#45;&gt;AuthModule -->
<g id="edge5" class="edge">
<title>RegistrationComponent&#45;&gt;AuthModule</title>
<path fill="none" stroke="#000000" d="M880.4453,-122.1061C880.4453,-122.1061 880.4453,-140.991 880.4453,-140.991"/>
<polygon fill="#000000" stroke="#000000" points="876.9454,-140.9909 880.4453,-150.991 883.9454,-140.991 876.9454,-140.9909"/>
</g>
<!-- SharedModule -->
<g id="node7" class="node">
<title>SharedModule</title>
<polygon fill="#8dd3c7" stroke="#000000" points="834.4231,-122 831.4231,-126 810.4231,-126 807.4231,-122 735.5769,-122 735.5769,-86 834.4231,-86 834.4231,-122"/>
<text text-anchor="middle" x="785" y="-99.8" font-family="Times,serif" font-size="14.00" fill="#000000">SharedModule</text>
</g>
<!-- SharedModule&#45;&gt;AuthModule -->
<g id="edge6" class="edge">
<title>SharedModule&#45;&gt;AuthModule</title>
<path fill="none" stroke="#000000" d="M824.7188,-122.1061C824.7188,-122.1061 824.7188,-140.991 824.7188,-140.991"/>
<polygon fill="#000000" stroke="#000000" points="821.2189,-140.9909 824.7188,-150.991 828.2189,-140.991 821.2189,-140.9909"/>
</g>
<!-- AuthGuardService -->
<g id="node8" class="node">
<title>AuthGuardService</title>
<ellipse fill="#fdb462" stroke="#000000" cx="629" cy="-104" rx="83.3674" ry="18"/>
<text text-anchor="middle" x="629" y="-99.8" font-family="Times,serif" font-size="14.00" fill="#000000">AuthGuardService</text>
</g>
<!-- AuthGuardService&#45;&gt;AuthModule -->
<g id="edge7" class="edge">
<title>AuthGuardService&#45;&gt;AuthModule</title>
<path fill="none" stroke="#000000" d="M629,-122.0091C629,-138.0494 629,-159 629,-159 629,-159 805.1974,-159 805.1974,-159"/>
<polygon fill="#000000" stroke="#000000" points="805.1974,-162.5001 815.1974,-159 805.1973,-155.5001 805.1974,-162.5001"/>
</g>
<!-- AuthHttpService -->
<g id="node9" class="node">
<title>AuthHttpService</title>
<ellipse fill="#fdb462" stroke="#000000" cx="451" cy="-104" rx="76.442" ry="18"/>
<text text-anchor="middle" x="451" y="-99.8" font-family="Times,serif" font-size="14.00" fill="#000000">AuthHttpService</text>
</g>
<!-- AuthHttpService&#45;&gt;AuthModule -->
<g id="edge8" class="edge">
<title>AuthHttpService&#45;&gt;AuthModule</title>
<path fill="none" stroke="#000000" d="M451,-122.2667C451,-140.5552 451,-166 451,-166 451,-166 805.3369,-166 805.3369,-166"/>
<polygon fill="#000000" stroke="#000000" points="805.3369,-169.5001 815.3369,-166 805.3368,-162.5001 805.3369,-169.5001"/>
</g>
<!-- TokenService -->
<g id="node10" class="node">
<title>TokenService</title>
<ellipse fill="#fdb462" stroke="#000000" cx="292" cy="-104" rx="64.8273" ry="18"/>
<text text-anchor="middle" x="292" y="-99.8" font-family="Times,serif" font-size="14.00" fill="#000000">TokenService</text>
</g>
<!-- TokenService&#45;&gt;AuthModule -->
<g id="edge9" class="edge">
<title>TokenService&#45;&gt;AuthModule</title>
<path fill="none" stroke="#000000" d="M292,-122.1289C292,-142.5724 292,-173 292,-173 292,-173 805.4499,-173 805.4499,-173"/>
<polygon fill="#000000" stroke="#000000" points="805.45,-176.5001 815.4499,-173 805.4499,-169.5001 805.45,-176.5001"/>
</g>
<!-- UnauthGuardService -->
<g id="node11" class="node">
<title>UnauthGuardService</title>
<ellipse fill="#fdb462" stroke="#000000" cx="117" cy="-104" rx="92.5977" ry="18"/>
<text text-anchor="middle" x="117" y="-99.8" font-family="Times,serif" font-size="14.00" fill="#000000">UnauthGuardService</text>
</g>
<!-- UnauthGuardService&#45;&gt;AuthModule -->
<g id="edge10" class="edge">
<title>UnauthGuardService&#45;&gt;AuthModule</title>
<path fill="none" stroke="#000000" d="M117,-122.0109C117,-144.4852 117,-180 117,-180 117,-180 805.3547,-180 805.3547,-180"/>
<polygon fill="#000000" stroke="#000000" points="805.3547,-183.5001 815.3547,-180 805.3546,-176.5001 805.3547,-183.5001"/>
</g>
</g>
</svg>
