<?xml version="1.0" encoding="UTF-8" standalone="no"?>
<!DOCTYPE svg PUBLIC "-//W3C//DTD SVG 1.1//EN"
 "http://www.w3.org/Graphics/SVG/1.1/DTD/svg11.dtd">
<!-- Generated by graphviz version 2.40.1 (20161225.0304)
 -->
<!-- Title: dependencies Pages: 1 -->
<svg width="3007pt" height="284pt"
 viewBox="0.00 0.00 3007.00 284.00" xmlns="http://www.w3.org/2000/svg" xmlns:xlink="http://www.w3.org/1999/xlink">
<g id="graph0" class="graph" transform="scale(1 1) rotate(0) translate(4 280)">
<title>dependencies</title>
<polygon fill="#ffffff" stroke="transparent" points="-4,4 -4,-280 3003,-280 3003,4 -4,4"/>
<text text-anchor="start" x="1478.5091" y="-42.4" font-family="sans-serif" font-weight="bold" font-size="14.00" fill="#000000">Legend</text>
<polygon fill="#ffffb3" stroke="transparent" points="1265.5,-10 1265.5,-30 1285.5,-30 1285.5,-10 1265.5,-10"/>
<text text-anchor="start" x="1289.129" y="-15.4" font-family="sans-serif" font-size="14.00" fill="#000000"> &#160;Declarations</text>
<polygon fill="#8dd3c7" stroke="transparent" points="1378.5,-10 1378.5,-30 1398.5,-30 1398.5,-10 1378.5,-10"/>
<text text-anchor="start" x="1402.2251" y="-15.4" font-family="sans-serif" font-size="14.00" fill="#000000"> &#160;Module</text>
<polygon fill="#80b1d3" stroke="transparent" points="1464.5,-10 1464.5,-30 1484.5,-30 1484.5,-10 1464.5,-10"/>
<text text-anchor="start" x="1488.2812" y="-15.4" font-family="sans-serif" font-size="14.00" fill="#000000"> &#160;Bootstrap</text>
<polygon fill="#fdb462" stroke="transparent" points="1561.5,-10 1561.5,-30 1581.5,-30 1581.5,-10 1561.5,-10"/>
<text text-anchor="start" x="1585.1732" y="-15.4" font-family="sans-serif" font-size="14.00" fill="#000000"> &#160;Providers</text>
<polygon fill="#fb8072" stroke="transparent" points="1657.5,-10 1657.5,-30 1677.5,-30 1677.5,-10 1657.5,-10"/>
<text text-anchor="start" x="1681.2258" y="-15.4" font-family="sans-serif" font-size="14.00" fill="#000000"> &#160;Exports</text>
<g id="clust1" class="cluster">
<title>cluster_AppRootModule</title>
<polygon fill="none" stroke="#000000" stroke-dasharray="1,5" points="8,-70 8,-268 2991,-268 2991,-70 8,-70"/>
</g>
<g id="clust2" class="cluster">
<title>cluster_AppRootModule_declarations</title>
<polygon fill="none" stroke="#000000" points="2728,-78 2728,-130 2983,-130 2983,-78 2728,-78"/>
</g>
<g id="clust5" class="cluster">
<title>cluster_AppRootModule_imports</title>
<polygon fill="none" stroke="#000000" points="449,-78 449,-130 2720,-130 2720,-78 449,-78"/>
</g>
<g id="clust7" class="cluster">
<title>cluster_AppRootModule_bootstrap</title>
<polygon fill="none" stroke="#000000" points="1423,-208 1423,-260 1547,-260 1547,-208 1423,-208"/>
</g>
<g id="clust8" class="cluster">
<title>cluster_AppRootModule_providers</title>
<polygon fill="none" stroke="#000000" points="16,-78 16,-130 441,-130 441,-78 16,-78"/>
</g>
<!-- AppComponent -->
<g id="node1" class="node">
<title>AppComponent</title>
<polygon fill="#ffffb3" stroke="#000000" points="2974.9399,-122 2869.0601,-122 2869.0601,-86 2974.9399,-86 2974.9399,-122"/>
<text text-anchor="middle" x="2922" y="-99.8" font-family="Times,serif" font-size="14.00" fill="#000000">AppComponent</text>
</g>
<!-- AppRootModule -->
<g id="node3" class="node">
<title>AppRootModule</title>
<polygon fill="#8dd3c7" stroke="#000000" points="1540.3837,-187 1537.3837,-191 1516.3837,-191 1513.3837,-187 1429.6163,-187 1429.6163,-151 1540.3837,-151 1540.3837,-187"/>
<text text-anchor="middle" x="1485" y="-164.8" font-family="Times,serif" font-size="14.00" fill="#000000">AppRootModule</text>
</g>
<!-- AppComponent&#45;&gt;AppRootModule -->
<g id="edge1" class="edge">
<title>AppComponent&#45;&gt;AppRootModule</title>
<path fill="none" stroke="#000000" d="M2922,-122.1532C2922,-145.7566 2922,-184 2922,-184 2922,-184 1550.4516,-184 1550.4516,-184"/>
<polygon fill="#000000" stroke="#000000" points="1550.4516,-180.5001 1540.4516,-184 1550.4516,-187.5001 1550.4516,-180.5001"/>
</g>
<!-- HomeComponent -->
<g id="node2" class="node">
<title>HomeComponent</title>
<polygon fill="#ffffb3" stroke="#000000" points="2851.5451,-122 2736.4549,-122 2736.4549,-86 2851.5451,-86 2851.5451,-122"/>
<text text-anchor="middle" x="2794" y="-99.8" font-family="Times,serif" font-size="14.00" fill="#000000">HomeComponent</text>
</g>
<!-- HomeComponent&#45;&gt;AppRootModule -->
<g id="edge2" class="edge">
<title>HomeComponent&#45;&gt;AppRootModule</title>
<path fill="none" stroke="#000000" d="M2794,-122.2479C2794,-145.0179 2794,-181 2794,-181 2794,-181 1550.41,-181 1550.41,-181"/>
<polygon fill="#000000" stroke="#000000" points="1550.41,-177.5001 1540.41,-181 1550.41,-184.5001 1550.41,-177.5001"/>
</g>
<!-- AppComponent  -->
<g id="node22" class="node">
<title>AppComponent </title>
<polygon fill="#80b1d3" stroke="#000000" points="1539.439,-252 1430.561,-252 1430.561,-216 1539.439,-216 1539.439,-252"/>
<text text-anchor="middle" x="1485" y="-229.8" font-family="Times,serif" font-size="14.00" fill="#000000">AppComponent </text>
</g>
<!-- AppRootModule&#45;&gt;AppComponent  -->
<g id="edge22" class="edge">
<title>AppRootModule&#45;&gt;AppComponent </title>
<path fill="none" stroke="#000000" stroke-dasharray="1,5" d="M1485,-187.1061C1485,-187.1061 1485,-205.991 1485,-205.991"/>
<polygon fill="#000000" stroke="#000000" points="1481.5001,-205.9909 1485,-215.991 1488.5001,-205.991 1481.5001,-205.9909"/>
</g>
<!-- AppApolloModule -->
<g id="node4" class="node">
<title>AppApolloModule</title>
<polygon fill="#8dd3c7" stroke="#000000" points="2712.045,-122 2709.045,-126 2688.045,-126 2685.045,-122 2589.955,-122 2589.955,-86 2712.045,-86 2712.045,-122"/>
<text text-anchor="middle" x="2651" y="-99.8" font-family="Times,serif" font-size="14.00" fill="#000000">AppApolloModule</text>
</g>
<!-- AppApolloModule&#45;&gt;AppRootModule -->
<g id="edge3" class="edge">
<title>AppApolloModule&#45;&gt;AppRootModule</title>
<path fill="none" stroke="#000000" d="M2651,-122.2921C2651,-144.2057 2651,-178 2651,-178 2651,-178 1550.4542,-178 1550.4542,-178"/>
<polygon fill="#000000" stroke="#000000" points="1550.4542,-174.5001 1540.4542,-178 1550.4542,-181.5001 1550.4542,-174.5001"/>
</g>
<!-- AuthModule -->
<g id="node5" class="node">
<title>AuthModule</title>
<polygon fill="#8dd3c7" stroke="#000000" points="2571.5482,-122 2568.5482,-126 2547.5482,-126 2544.5482,-122 2484.4518,-122 2484.4518,-86 2571.5482,-86 2571.5482,-122"/>
<text text-anchor="middle" x="2528" y="-99.8" font-family="Times,serif" font-size="14.00" fill="#000000">AuthModule</text>
</g>
<!-- AuthModule&#45;&gt;AppRootModule -->
<g id="edge4" class="edge">
<title>AuthModule&#45;&gt;AppRootModule</title>
<path fill="none" stroke="#000000" d="M2528,-122.2843C2528,-143.3211 2528,-175 2528,-175 2528,-175 1550.7075,-175 1550.7075,-175"/>
<polygon fill="#000000" stroke="#000000" points="1550.7075,-171.5001 1540.7075,-175 1550.7074,-178.5001 1550.7075,-171.5001"/>
</g>
<!-- CardModule -->
<g id="node6" class="node">
<title>CardModule</title>
<polygon fill="#8dd3c7" stroke="#000000" points="2466.2619,-122 2463.2619,-126 2442.2619,-126 2439.2619,-122 2379.7381,-122 2379.7381,-86 2466.2619,-86 2466.2619,-122"/>
<text text-anchor="middle" x="2423" y="-99.8" font-family="Times,serif" font-size="14.00" fill="#000000">CardModule</text>
</g>
<!-- CardModule&#45;&gt;AppRootModule -->
<g id="edge5" class="edge">
<title>CardModule&#45;&gt;AppRootModule</title>
<path fill="none" stroke="#000000" d="M2423,-122.2228C2423,-142.3652 2423,-172 2423,-172 2423,-172 1550.5202,-172 1550.5202,-172"/>
<polygon fill="#000000" stroke="#000000" points="1550.5203,-168.5001 1540.5202,-172 1550.5202,-175.5001 1550.5203,-168.5001"/>
</g>
<!-- DataManagementModule -->
<g id="node7" class="node">
<title>DataManagementModule</title>
<polygon fill="#8dd3c7" stroke="#000000" points="2361.5604,-122 2358.5604,-126 2337.5604,-126 2334.5604,-122 2202.4396,-122 2202.4396,-86 2361.5604,-86 2361.5604,-122"/>
<text text-anchor="middle" x="2282" y="-99.8" font-family="Times,serif" font-size="14.00" fill="#000000">DataManagementModule</text>
</g>
<!-- DataManagementModule&#45;&gt;AppRootModule -->
<g id="edge6" class="edge">
<title>DataManagementModule&#45;&gt;AppRootModule</title>
<path fill="none" stroke="#000000" d="M2282,-122.1061C2282,-141.3391 2282,-169 2282,-169 2282,-169 1550.4107,-169 1550.4107,-169"/>
<polygon fill="#000000" stroke="#000000" points="1550.4108,-165.5001 1540.4107,-169 1550.4107,-172.5001 1550.4108,-165.5001"/>
</g>
<!-- DialogModule -->
<g id="node8" class="node">
<title>DialogModule</title>
<polygon fill="#8dd3c7" stroke="#000000" points="2184.6528,-122 2181.6528,-126 2160.6528,-126 2157.6528,-122 2087.3472,-122 2087.3472,-86 2184.6528,-86 2184.6528,-122"/>
<text text-anchor="middle" x="2136" y="-99.8" font-family="Times,serif" font-size="14.00" fill="#000000">DialogModule</text>
</g>
<!-- DialogModule&#45;&gt;AppRootModule -->
<g id="edge7" class="edge">
<title>DialogModule&#45;&gt;AppRootModule</title>
<path fill="none" stroke="#000000" d="M2136,-122.2667C2136,-140.5552 2136,-166 2136,-166 2136,-166 1550.5039,-166 1550.5039,-166"/>
<polygon fill="#000000" stroke="#000000" points="1550.5039,-162.5001 1540.5039,-166 1550.5039,-169.5001 1550.5039,-162.5001"/>
</g>
<!-- EventModule -->
<g id="node9" class="node">
<title>EventModule</title>
<polygon fill="#8dd3c7" stroke="#000000" points="2069.2078,-122 2066.2078,-126 2045.2078,-126 2042.2078,-122 1976.7922,-122 1976.7922,-86 2069.2078,-86 2069.2078,-122"/>
<text text-anchor="middle" x="2023" y="-99.8" font-family="Times,serif" font-size="14.00" fill="#000000">EventModule</text>
</g>
<!-- EventModule&#45;&gt;AppRootModule -->
<g id="edge8" class="edge">
<title>EventModule&#45;&gt;AppRootModule</title>
<path fill="none" stroke="#000000" d="M2023,-122.0225C2023,-139.3734 2023,-163 2023,-163 2023,-163 1550.5491,-163 1550.5491,-163"/>
<polygon fill="#000000" stroke="#000000" points="1550.5491,-159.5001 1540.5491,-163 1550.5491,-166.5001 1550.5491,-159.5001"/>
</g>
<!-- IconsModule -->
<g id="node10" class="node">
<title>IconsModule</title>
<polygon fill="#8dd3c7" stroke="#000000" points="1958.8697,-122 1955.8697,-126 1934.8697,-126 1931.8697,-122 1869.1303,-122 1869.1303,-86 1958.8697,-86 1958.8697,-122"/>
<text text-anchor="middle" x="1914" y="-99.8" font-family="Times,serif" font-size="14.00" fill="#000000">IconsModule</text>
</g>
<!-- IconsModule&#45;&gt;AppRootModule -->
<g id="edge9" class="edge">
<title>IconsModule&#45;&gt;AppRootModule</title>
<path fill="none" stroke="#000000" d="M1914,-122.027C1914,-138.3976 1914,-160 1914,-160 1914,-160 1550.6445,-160 1550.6445,-160"/>
<polygon fill="#000000" stroke="#000000" points="1550.6445,-156.5001 1540.6445,-160 1550.6444,-163.5001 1550.6445,-156.5001"/>
</g>
<!-- LocalStorageModule -->
<g id="node11" class="node">
<title>LocalStorageModule</title>
<polygon fill="#8dd3c7" stroke="#000000" points="1851.1853,-122 1848.1853,-126 1827.1853,-126 1824.1853,-122 1716.8147,-122 1716.8147,-86 1851.1853,-86 1851.1853,-122"/>
<text text-anchor="middle" x="1784" y="-99.8" font-family="Times,serif" font-size="14.00" fill="#000000">LocalStorageModule</text>
</g>
<!-- LocalStorageModule&#45;&gt;AppRootModule -->
<g id="edge10" class="edge">
<title>LocalStorageModule&#45;&gt;AppRootModule</title>
<path fill="none" stroke="#000000" d="M1784,-122.2396C1784,-137.5706 1784,-157 1784,-157 1784,-157 1550.5389,-157 1550.5389,-157"/>
<polygon fill="#000000" stroke="#000000" points="1550.5389,-153.5001 1540.5389,-157 1550.5388,-160.5001 1550.5389,-153.5001"/>
</g>
<!-- NotificationsModule -->
<g id="node12" class="node">
<title>NotificationsModule</title>
<polygon fill="#8dd3c7" stroke="#000000" points="1699.1443,-122 1696.1443,-126 1675.1443,-126 1672.1443,-122 1566.8557,-122 1566.8557,-86 1699.1443,-86 1699.1443,-122"/>
<text text-anchor="middle" x="1633" y="-99.8" font-family="Times,serif" font-size="14.00" fill="#000000">NotificationsModule</text>
</g>
<!-- NotificationsModule&#45;&gt;AppRootModule -->
<g id="edge11" class="edge">
<title>NotificationsModule&#45;&gt;AppRootModule</title>
<path fill="none" stroke="#000000" d="M1633,-122.0511C1633,-136.373 1633,-154 1633,-154 1633,-154 1550.5308,-154 1550.5308,-154"/>
<polygon fill="#000000" stroke="#000000" points="1550.5308,-150.5001 1540.5308,-154 1550.5308,-157.5001 1550.5308,-150.5001"/>
</g>
<!-- PickATeamModule -->
<g id="node13" class="node">
<title>PickATeamModule</title>
<polygon fill="#8dd3c7" stroke="#000000" points="1548.4173,-122 1545.4173,-126 1524.4173,-126 1521.4173,-122 1421.5827,-122 1421.5827,-86 1548.4173,-86 1548.4173,-122"/>
<text text-anchor="middle" x="1485" y="-99.8" font-family="Times,serif" font-size="14.00" fill="#000000">PickATeamModule</text>
</g>
<!-- PickATeamModule&#45;&gt;AppRootModule -->
<g id="edge12" class="edge">
<title>PickATeamModule&#45;&gt;AppRootModule</title>
<path fill="none" stroke="#000000" d="M1485,-122.1061C1485,-122.1061 1485,-140.991 1485,-140.991"/>
<polygon fill="#000000" stroke="#000000" points="1481.5001,-140.9909 1485,-150.991 1488.5001,-140.991 1481.5001,-140.9909"/>
</g>
<!-- ProductModule -->
<g id="node14" class="node">
<title>ProductModule</title>
<polygon fill="#8dd3c7" stroke="#000000" points="1403.5982,-122 1400.5982,-126 1379.5982,-126 1376.5982,-122 1300.4018,-122 1300.4018,-86 1403.5982,-86 1403.5982,-122"/>
<text text-anchor="middle" x="1352" y="-99.8" font-family="Times,serif" font-size="14.00" fill="#000000">ProductModule</text>
</g>
<!-- ProductModule&#45;&gt;AppRootModule -->
<g id="edge13" class="edge">
<title>ProductModule&#45;&gt;AppRootModule</title>
<path fill="none" stroke="#000000" d="M1352,-122.0511C1352,-136.373 1352,-154 1352,-154 1352,-154 1419.3667,-154 1419.3667,-154"/>
<polygon fill="#000000" stroke="#000000" points="1419.3667,-157.5001 1429.3667,-154 1419.3666,-150.5001 1419.3667,-157.5001"/>
</g>
<!-- ProjectModule -->
<g id="node15" class="node">
<title>ProjectModule</title>
<polygon fill="#8dd3c7" stroke="#000000" points="1282.7036,-122 1279.7036,-126 1258.7036,-126 1255.7036,-122 1183.2964,-122 1183.2964,-86 1282.7036,-86 1282.7036,-122"/>
<text text-anchor="middle" x="1233" y="-99.8" font-family="Times,serif" font-size="14.00" fill="#000000">ProjectModule</text>
</g>
<!-- ProjectModule&#45;&gt;AppRootModule -->
<g id="edge14" class="edge">
<title>ProjectModule&#45;&gt;AppRootModule</title>
<path fill="none" stroke="#000000" d="M1233,-122.2396C1233,-137.5706 1233,-157 1233,-157 1233,-157 1419.3856,-157 1419.3856,-157"/>
<polygon fill="#000000" stroke="#000000" points="1419.3856,-160.5001 1429.3856,-157 1419.3855,-153.5001 1419.3856,-160.5001"/>
</g>
<!-- SettingsModule -->
<g id="node16" class="node">
<title>SettingsModule</title>
<polygon fill="#8dd3c7" stroke="#000000" points="1165.1639,-122 1162.1639,-126 1141.1639,-126 1138.1639,-122 1060.8361,-122 1060.8361,-86 1165.1639,-86 1165.1639,-122"/>
<text text-anchor="middle" x="1113" y="-99.8" font-family="Times,serif" font-size="14.00" fill="#000000">SettingsModule</text>
</g>
<!-- SettingsModule&#45;&gt;AppRootModule -->
<g id="edge15" class="edge">
<title>SettingsModule&#45;&gt;AppRootModule</title>
<path fill="none" stroke="#000000" d="M1113,-122.027C1113,-138.3976 1113,-160 1113,-160 1113,-160 1419.3078,-160 1419.3078,-160"/>
<polygon fill="#000000" stroke="#000000" points="1419.3079,-163.5001 1429.3078,-160 1419.3078,-156.5001 1419.3079,-163.5001"/>
</g>
<!-- SuppliersModule -->
<g id="node17" class="node">
<title>SuppliersModule</title>
<polygon fill="#8dd3c7" stroke="#000000" points="1042.4342,-122 1039.4342,-126 1018.4342,-126 1015.4342,-122 929.5658,-122 929.5658,-86 1042.4342,-86 1042.4342,-122"/>
<text text-anchor="middle" x="986" y="-99.8" font-family="Times,serif" font-size="14.00" fill="#000000">SuppliersModule</text>
</g>
<!-- SuppliersModule&#45;&gt;AppRootModule -->
<g id="edge16" class="edge">
<title>SuppliersModule&#45;&gt;AppRootModule</title>
<path fill="none" stroke="#000000" d="M986,-122.0225C986,-139.3734 986,-163 986,-163 986,-163 1419.2109,-163 1419.2109,-163"/>
<polygon fill="#000000" stroke="#000000" points="1419.2109,-166.5001 1429.2109,-163 1419.2108,-159.5001 1419.2109,-166.5001"/>
</g>
<!-- TasksModule -->
<g id="node18" class="node">
<title>TasksModule</title>
<polygon fill="#8dd3c7" stroke="#000000" points="912.2064,-122 909.2064,-126 888.2064,-126 885.2064,-122 819.7936,-122 819.7936,-86 912.2064,-86 912.2064,-122"/>
<text text-anchor="middle" x="866" y="-99.8" font-family="Times,serif" font-size="14.00" fill="#000000">TasksModule</text>
</g>
<!-- TasksModule&#45;&gt;AppRootModule -->
<g id="edge17" class="edge">
<title>TasksModule&#45;&gt;AppRootModule</title>
<path fill="none" stroke="#000000" d="M866,-122.2667C866,-140.5552 866,-166 866,-166 866,-166 1419.5231,-166 1419.5231,-166"/>
<polygon fill="#000000" stroke="#000000" points="1419.5232,-169.5001 1429.5231,-166 1419.5231,-162.5001 1419.5232,-169.5001"/>
</g>
<!-- TemplateModule -->
<g id="node19" class="node">
<title>TemplateModule</title>
<polygon fill="#8dd3c7" stroke="#000000" points="802.4188,-122 799.4188,-126 778.4188,-126 775.4188,-122 689.5812,-122 689.5812,-86 802.4188,-86 802.4188,-122"/>
<text text-anchor="middle" x="746" y="-99.8" font-family="Times,serif" font-size="14.00" fill="#000000">TemplateModule</text>
</g>
<!-- TemplateModule&#45;&gt;AppRootModule -->
<g id="edge18" class="edge">
<title>TemplateModule&#45;&gt;AppRootModule</title>
<path fill="none" stroke="#000000" d="M727.2637,-122.2228C727.2637,-142.3652 727.2637,-172 727.2637,-172 727.2637,-172 1419.5888,-172 1419.5888,-172"/>
<polygon fill="#000000" stroke="#000000" points="1419.5889,-175.5001 1429.5888,-172 1419.5888,-168.5001 1419.5889,-175.5001"/>
</g>
<!-- TemplateModule&#45;&gt;AppRootModule -->
<g id="edge19" class="edge">
<title>TemplateModule&#45;&gt;AppRootModule</title>
<path fill="none" stroke="#000000" d="M764.7363,-122.1061C764.7363,-141.3391 764.7363,-169 764.7363,-169 764.7363,-169 1419.3801,-169 1419.3801,-169"/>
<polygon fill="#000000" stroke="#000000" points="1419.3801,-172.5001 1429.3801,-169 1419.3801,-165.5001 1419.3801,-172.5001"/>
</g>
<!-- TestPageModule -->
<g id="node20" class="node">
<title>TestPageModule</title>
<polygon fill="#8dd3c7" stroke="#000000" points="671.3641,-122 668.3641,-126 647.3641,-126 644.3641,-122 560.6359,-122 560.6359,-86 671.3641,-86 671.3641,-122"/>
<text text-anchor="middle" x="616" y="-99.8" font-family="Times,serif" font-size="14.00" fill="#000000">TestPageModule</text>
</g>
<!-- TestPageModule&#45;&gt;AppRootModule -->
<g id="edge20" class="edge">
<title>TestPageModule&#45;&gt;AppRootModule</title>
<path fill="none" stroke="#000000" d="M616,-122.2843C616,-143.3211 616,-175 616,-175 616,-175 1419.3182,-175 1419.3182,-175"/>
<polygon fill="#000000" stroke="#000000" points="1419.3182,-178.5001 1429.3182,-175 1419.3182,-171.5001 1419.3182,-178.5001"/>
</g>
<!-- UserModule -->
<g id="node21" class="node">
<title>UserModule</title>
<polygon fill="#8dd3c7" stroke="#000000" points="542.9762,-122 539.9762,-126 518.9762,-126 515.9762,-122 457.0238,-122 457.0238,-86 542.9762,-86 542.9762,-122"/>
<text text-anchor="middle" x="500" y="-99.8" font-family="Times,serif" font-size="14.00" fill="#000000">UserModule</text>
</g>
<!-- UserModule&#45;&gt;AppRootModule -->
<g id="edge21" class="edge">
<title>UserModule&#45;&gt;AppRootModule</title>
<path fill="none" stroke="#000000" d="M500,-122.2921C500,-144.2057 500,-178 500,-178 500,-178 1419.5762,-178 1419.5762,-178"/>
<polygon fill="#000000" stroke="#000000" points="1419.5762,-181.5001 1429.5762,-178 1419.5762,-174.5001 1419.5762,-181.5001"/>
</g>
<!-- AuthGuardService -->
<g id="node23" class="node">
<title>AuthGuardService</title>
<ellipse fill="#fdb462" stroke="#000000" cx="350" cy="-104" rx="83.3674" ry="18"/>
<text text-anchor="middle" x="350" y="-99.8" font-family="Times,serif" font-size="14.00" fill="#000000">AuthGuardService</text>
</g>
<!-- AuthGuardService&#45;&gt;AppRootModule -->
<g id="edge23" class="edge">
<title>AuthGuardService&#45;&gt;AppRootModule</title>
<path fill="none" stroke="#000000" d="M350,-122.2479C350,-145.0179 350,-181 350,-181 350,-181 1419.4883,-181 1419.4883,-181"/>
<polygon fill="#000000" stroke="#000000" points="1419.4883,-184.5001 1429.4883,-181 1419.4882,-177.5001 1419.4883,-184.5001"/>
</g>
<!-- HttpApiRedirectorService -->
<g id="node24" class="node">
<title>HttpApiRedirectorService</title>
<ellipse fill="#fdb462" stroke="#000000" cx="136" cy="-104" rx="112.2936" ry="18"/>
<text text-anchor="middle" x="136" y="-99.8" font-family="Times,serif" font-size="14.00" fill="#000000">HttpApiRedirectorService</text>
</g>
<!-- HttpApiRedirectorService&#45;&gt;AppRootModule -->
<g id="edge24" class="edge">
<title>HttpApiRedirectorService&#45;&gt;AppRootModule</title>
<path fill="none" stroke="#000000" d="M136,-122.1532C136,-145.7566 136,-184 136,-184 136,-184 1419.6026,-184 1419.6026,-184"/>
<polygon fill="#000000" stroke="#000000" points="1419.6027,-187.5001 1429.6026,-184 1419.6026,-180.5001 1419.6027,-187.5001"/>
</g>
</g>
</svg>
