<?xml version="1.0" standalone="no"?>
<!DOCTYPE svg PUBLIC "-//W3C//DTD SVG 1.1//EN" "http://www.w3.org/Graphics/SVG/1.1/DTD/svg11.dtd" >
<svg xmlns="http://www.w3.org/2000/svg">
<metadata>Generated by IcoMoon</metadata>
<defs>
<font id="icomoon" horiz-adv-x="1024">
<font-face units-per-em="1024" ascent="960" descent="-64" />
<missing-glyph horiz-adv-x="1024" />
<glyph unicode="&#x20;" horiz-adv-x="512" d="" />
<glyph unicode="&#xe900;" glyph-name="task" horiz-adv-x="811" d="M677.671 840.533h-91.428v17.306c0 18.688-16.402 33.894-36.572 33.894h-54.857v17.306c0 28.109-24.614 50.961-54.857 50.961h-109.715c-30.245 0-54.857-22.853-54.857-50.961v-17.306h-54.857c-20.169 0-36.572-15.207-36.572-33.894v-17.306h-91.428c-50.414 0-91.428-38.28-91.428-85.333v-733.867c0-47.053 41.014-85.333 91.428-85.333h585.143c50.414 0 91.428 38.28 91.428 85.333v733.867c0 47.051-41.016 85.333-91.43 85.333zM214.435 824.242v31.030h75.853c10.467 0 18.962 6.95 18.962 15.514v31.249c0 8.581 8.325 15.298 18.962 15.298h113.779c10.639 0 18.962-6.717 18.962-15.298v-31.247c0-8.564 8.495-15.514 18.962-15.514l75.853 0.216-0.285-108.824h-341.049v77.575zM324.149 294.4l243.81 238.933 30.476-29.867-274.286-268.8-152.381 149.333 30.476 29.867 121.905-119.467z" />
<glyph unicode="&#xe901;" glyph-name="kanban" d="M34.138 21.333c-18.866 0-34.138 17.355-34.138 38.795v775.752c0 21.431 15.279 38.787 34.138 38.787h187.73c18.852 0 34.131-17.355 34.131-38.787v-775.752c0-21.439-15.279-38.795-34.131-38.795h-187.73zM386.851-64c-25.155 0-45.518 20.826-45.518 46.554v930.902c0 25.718 20.372 46.544 45.518 46.544h250.307c25.136 0 45.509-20.826 45.509-46.544v-930.902c0-25.727-20.372-46.554-45.509-46.554h-250.307zM802.138 21.333c-18.866 0-34.138 17.355-34.138 38.795v775.752c0 21.431 15.279 38.787 34.138 38.787h187.73c18.852 0 34.131-17.355 34.131-38.787v-775.752c0-21.439-15.279-38.795-34.131-38.795h-187.73z" />
<glyph unicode="&#xe902;" glyph-name="status" d="M1019.418 463.907c6.11-6.554 6.11-16.724 0-23.276l-238.933-255.999c-3.226-3.466-7.748-5.428-12.476-5.428h-273.064c-6.912 0-13.142 4.164-15.77 10.53-2.662 6.382-1.194 13.72 3.704 18.602l243.915 243.933-243.915 243.933c-4.898 4.88-6.366 12.22-3.704 18.602 2.628 6.366 8.858 10.53 15.77 10.53h273.064c4.728 0 9.25-1.964 12.476-5.428l238.933-255.999zM541.552 463.907c6.11-6.554 6.11-16.724 0.002-23.276l-238.933-255.999c-3.226-3.466-7.748-5.428-12.476-5.428h-273.064c-6.912 0-13.142 4.164-15.77 10.53-2.662 6.382-1.194 13.72 3.704 18.602l243.915 243.933-243.915 243.933c-4.898 4.88-6.366 12.22-3.704 18.602 2.628 6.366 8.858 10.53 15.77 10.53h273.062c4.728 0 9.25-1.964 12.476-5.428l238.933-255.999z" />
<glyph unicode="&#xe903;" glyph-name="export" d="M272 618.667h-144v-448h640v128l128 102.4v-230.912c0-69.888-57.472-127.488-128.384-127.488h-639.232c-70.976 0-128.384 57.088-128.384 127.488v449.024c0 69.888 57.472 127.488 128.384 127.488h303.616l-160-128zM704 748.139v126.528l320-256-320-256v127.552c-213.312 7.68-341.696-87.424-450.112-193.024 0 251.008 223.616 448.704 450.112 450.944z" />
<glyph unicode="&#xe904;" glyph-name="location" horiz-adv-x="853" d="M412.082 959.74c-212.497-7.138-389.029-165.864-409.423-368.471-4.167-40.521-1.754-79.783 5.702-117.365 0 0 0.658-4.409 2.851-12.807 6.579-28.134 16.447-55.428 28.728-81.043 42.762-96.999 141.664-259.294 363.591-435.866 13.596-10.918 33.552-10.918 47.368 0 221.926 176.362 320.828 338.657 363.81 436.076 12.5 25.614 22.149 52.699 28.728 81.043 1.974 8.188 2.851 12.807 2.851 12.807 5.044 25.195 7.675 51.019 7.675 77.473 0 230.53-199.339 416.34-441.879 408.152zM427.213 348.351c-114.472 0-207.234 88.811-207.234 198.407s92.762 198.407 207.234 198.407c114.472 0 207.234-88.811 207.234-198.407s-92.762-198.407-207.234-198.407z" />
<glyph unicode="&#xe905;" glyph-name="sample" horiz-adv-x="981" d="M978.358 698.049c6.045-21.208 2.805-43.355-9.067-62.302l-346.815-553.618 64.86 235.219 220.336 351.759c3.095 4.94 2.446 9.659 1.799 12.021-0.678 2.377-2.591 6.794-7.916 9.659l-96.747 52.459 9.498 34.668c3.24 11.647 4.041 23.286 3.856 34.798l119.282-64.646c20.406-11.031 34.911-28.824 40.914-50.016zM593.899 445.321l99.624 361.385c2.303 8.467-3.167 17.106-12.243 19.282l-87.383 20.843v31.035c0 13.688-2.919 26.645-7.123 39.099l112.179-26.765c47.154-11.249 75.694-56.092 63.603-99.969l-168.656-611.765v266.856zM452.124 960h-363.837c-48.667 0-88.287-36.839-88.287-82.134v-727.135c0-9.329 4.204-18.232 11.618-24.509l199.075-168.765c16.304-13.841 37.471-21.457 59.493-21.457 22.102 0 43.188 7.616 59.493 21.445l199.107 168.779c7.382 6.277 11.627 15.18 11.627 24.509v727.133c0 45.296-39.591 82.134-88.287 82.134zM223.831 849.521c12.524 0 22.597-9.389 22.597-21.021v-79.477c0-11.62-10.076-21.009-22.597-21.009h-85.448c-12.448 0-22.595 9.391-22.595 21.009v79.477c0 11.633 10.145 21.021 22.595 21.021h85.448zM402.029 849.521c12.479 0 22.595-9.389 22.597-21.021v-79.477c0-11.62-10.118-21.009-22.597-21.009h-85.48c-12.459 0-22.606 9.391-22.606 21.009v79.477c0 11.633 10.147 21.021 22.606 21.021h85.48zM223.831 683.807c12.524 0 22.597-9.41 22.597-21.009v-79.511c0-11.604-10.076-21.009-22.597-21.009h-85.448c-12.448 0-22.595 9.405-22.595 21.009v79.511c0 11.599 10.145 21.009 22.595 21.009h85.448zM402.029 683.807c12.479 0 22.595-9.41 22.597-21.009v-79.511c0-11.604-10.118-21.009-22.597-21.009h-85.48c-12.459 0-22.606 9.405-22.606 21.009v79.511c0 11.599 10.147 21.009 22.606 21.009h85.48zM223.831 518.086c12.524 0 22.597-9.407 22.597-21.023v-79.496c0-11.599-10.076-21.009-22.597-21.009h-85.448c-12.448 0-22.595 9.41-22.595 21.009v79.496c0 11.614 10.145 21.023 22.595 21.023h85.448zM402.029 518.086c12.479 0 22.595-9.407 22.597-21.023v-79.496c0-11.599-10.118-21.009-22.597-21.009h-85.48c-12.459 0-22.606 9.41-22.606 21.009v79.496c0 11.614 10.147 21.023 22.606 21.023h85.48zM223.831 352.353c12.524 0 22.597-9.391 22.597-21.023v-79.477c0-11.62-10.076-21.009-22.597-21.009h-85.448c-12.448 0-22.595 9.391-22.595 21.009v79.477c0 11.633 10.145 21.023 22.595 21.023h85.448zM402.029 352.353c12.479 0 22.595-9.391 22.597-21.023v-79.477c0-11.62-10.118-21.009-22.597-21.009h-85.48c-12.459 0-22.606 9.391-22.606 21.009v79.477c0 11.633 10.147 21.023 22.606 21.023h85.48z" />
<glyph unicode="&#xe906;" glyph-name="inspiraiton" d="M511.99 960c184.408 0 334.433-150.030 334.433-334.442 0-51.376-13.082-101.552-38.881-149.132-20.96-38.652-50.003-74.308-84.496-103.86v-150.566h-422.112v150.566c-34.493 29.552-63.537 65.208-84.494 103.86-25.801 47.582-38.883 97.756-38.883 149.132 0 184.412 150.027 334.442 334.433 334.442zM528.524 389.744l75.971 202.596h-83.908l59.459 147.098h-133.515l-26.597-200.718h92.906l15.686-148.976zM300.934 162h422.112v-112.838h-90.528v-113.162h-241.055v113.162h-90.528v112.838zM0 678.86h106.298v-60h-106.298v60zM61.818 762.068l33.282 49.928 63.774-42.514-33.282-49.928-63.774 42.514zM61.849 536.962l63.774 42.514 33.282-49.928-63.774-42.514-33.282 49.928zM917.702 678.86h106.298v-60h-106.298v60zM865.116 769.469l63.76 42.51 33.279-49.917-63.76-42.51-33.279 49.917zM865.114 529.509l33.279 49.917 63.76-42.51-33.279-49.917-63.76 42.51z" />
<glyph unicode="&#xe907;" glyph-name="files" horiz-adv-x="939" d="M469.267-64h-377.494c-38.881 0-70.439 28.577-70.439 63.787v668.038h24.501c1.997-0.121 4.128-0.241 6.125-0.241h192.942c54.727 0 99.2 40.275 99.2 89.835v174.727c0 2.291-0.134 4.582-0.399 6.753v21.102h503.193c38.881 0 70.439-28.578 70.439-63.789v-896.424c0-35.209-31.558-63.787-70.439-63.787h-377.628zM483.514 152.809c18.375 0 33.422 13.507 33.422 30.146 0 16.642-14.913 30.146-33.289 30.146h-246.337c-18.375 0-33.289-13.504-33.289-30.146 0-16.639 14.913-30.146 33.289-30.146h246.204zM729.851 306.673c18.375 0 33.289 13.507 33.289 30.146 0 16.642-14.913 30.146-33.289 30.146h-492.54c-18.375 0-33.289-13.504-33.289-30.146 0-16.639 14.913-30.146 33.289-30.146h492.54zM237.311 530.358c-18.375 0-33.289-13.505-33.289-30.146s14.913-30.146 33.289-30.146h492.54c18.375 0 33.289 13.505 33.289 30.146s-14.913 30.146-33.289 30.146h-492.54zM51.959 703.759c-26.498 0-39.68 28.94-21.038 45.822l222.503 201.496c6.125 5.547 13.449 7.959 20.772 7.959 15.178 0 29.825-10.732 29.825-26.89v-174.847c0-0.121 0-0.362 0-0.482-0.266-29.181-26.365-52.816-58.588-53.057-0.133 0-0.399 0-0.533 0h-192.942z" />
<glyph unicode="&#xe908;" glyph-name="edit" d="M896 605.72v-541.72c0-70.688-57.312-128-128-128h-640c-70.688 0-128 57.312-128 128v640c0 70.688 57.312 128 128 128h541.688l-127.938-128h-413.75v-640h640v413.688l128 128.032zM810.667 874.667l-42.667-42.659 128-128.008 42.667 42.659-128 128.008zM896 960l-42.667-42.659 128-128.008 42.667 42.689-128 127.977zM298.667 373.309l138.667-138.642 416 415.992-138.667 138.675-416-416.025zM256 192h128l-128 128v-128z" />
<glyph unicode="&#xe909;" glyph-name="dots-horizontal" d="M128 320c-70.692 0-128 57.308-128 128s57.308 128 128 128c70.692 0 128-57.308 128-128s-57.308-128-128-128zM537.6 320c-70.692 0-128 57.308-128 128s57.308 128 128 128c70.692 0 128-57.308 128-128s-57.308-128-128-128zM896 320c-70.692 0-128 57.308-128 128s57.308 128 128 128c70.692 0 128-57.308 128-128s-57.308-128-128-128z" />
<glyph unicode="&#xe90a;" glyph-name="request-quotation" d="M85.333 832h853.333c47.128 0 85.333-38.205 85.333-85.333v-597.333c0-47.128-38.205-85.333-85.333-85.333h-853.333c-47.128 0-85.333 38.205-85.333 85.333v597.333c0 47.128 38.205 85.333 85.333 85.333zM516.468 320l251.532 256-512-8.784 260.468-247.216z" />
<glyph unicode="&#xe90b;" glyph-name="project" d="M560.403 898.584l22.985-55.335h-583.388v40.741c0 41.957 27.242 76.010 60.808 76.010h418.721c33.931 0 65.186-23.715 80.874-61.416zM963.278 704c33.586 0 60.844-33.489 60.722-74.752v-618.496c0-41.264-27.258-74.752-60.844-74.752h-902.312c-33.586 0-60.844 33.487-60.844 74.752v693.248h963.278z" />
<glyph unicode="&#xe90c;" glyph-name="star" d="M511.999 960l158.198-337.080 353.803-54.051-256.001-262.379 60.415-370.491-316.416 174.919-316.435-174.919 60.437 370.491-256.001 262.379 353.781 54.051z" />
<glyph unicode="&#xe90d;" glyph-name="plus-square-background" d="M512 960c-282.752 0-512-229.248-512-512s229.248-512 512-512c282.752 0 512 229.248 512 512s-229.248 512-512 512zM768 384h-192v-192h-128v192h-192v128h192v192h128v-192h192v-128z" />
<glyph unicode="&#xe90e;" glyph-name="camera" d="M512 544c-84.838 0-153.6-64.493-153.6-144 0-79.536 68.762-144 153.6-144 84.818 0 153.6 64.464 153.6 144 0 79.507-68.782 144-153.6 144zM921.6 688h-122.88c-16.896 0-35.103 12.288-40.438 27.322l-31.764 89.366c-5.356 15.024-23.542 27.312-40.438 27.312h-348.16c-16.896 0-35.103-12.288-40.438-27.322l-31.764-89.366c-5.356-15.024-23.542-27.312-40.438-27.312h-122.88c-56.32 0-102.4-43.2-102.4-96v-432c0-52.8 46.080-96 102.4-96h819.2c56.32 0 102.4 43.2 102.4 96v432c0 52.8-46.080 96-102.4 96zM512 160c-141.384 0-256 107.453-256 240 0 132.538 114.616 240 256 240 141.363 0 256-107.462 256-240 0-132.547-114.637-240-256-240zM885.76 524.867c-19.784 0-35.84 15.034-35.84 33.6 0 18.547 16.056 33.6 35.84 33.6 19.804 0 35.84-15.053 35.84-33.6 0-18.566-16.046-33.6-35.84-33.6z" />
<glyph unicode="&#xe90f;" glyph-name="shipping" d="M967.671 903.672c-37.541 37.55-82.771 56.328-135.656 56.328h-640.013c-52.885 0-98.115-18.778-135.672-56.328-37.55-37.557-56.329-82.784-56.329-135.67v-639.996c0-52.882 18.779-98.114 56.329-135.67 37.557-37.557 82.788-56.335 135.672-56.335h640.006c52.885 0 98.115 18.778 135.656 56.335 37.557 37.557 56.336 82.786 56.336 135.67v639.996c-0.002 52.886-18.781 98.121-56.329 135.67zM853.343 426.673c0-18.666-8.679-31.771-26.003-39.331-5.77-2.221-11.346-3.332-16.67-3.332-11.988 0-21.992 4.229-29.999 12.665l-95.995 95.998-355.989-356.004c-8.455-8.439-18.447-12.668-30.006-12.668-11.563 0-21.564 4.229-30.008 12.668l-68 68.010c-8.446 8.429-12.67 18.449-12.67 29.998 0 11.544 4.224 21.55 12.67 29.989l356.010 356.009-96.002 95.998c-13.782 12.889-16.89 28.436-9.338 46.666 7.552 17.328 20.67 26.003 39.337 26.003h319.992c11.554 0 21.557-4.226 30.015-12.675 8.437-8.439 12.658-18.442 12.658-29.998v-319.996h-0.002z" />
<glyph unicode="&#xe910;" glyph-name="share" d="M828.623 309.183c-59.284 0-111.576-28.244-145.74-71.496l-316.881 162.053c4.148 15.472 7.13 31.459 7.13 48.284 0 18.316-3.541 35.56-8.483 52.34l315.483 161.305c33.976-45.209 87.621-74.758 148.536-74.758 103.188 0 186.661 83.472 186.661 186.568 0.002 103.002-83.472 186.522-186.658 186.522-102.955 0-186.52-83.52-186.52-186.52 0-16.872 2.984-32.905 7.178-48.424l-316.835-162.053c-34.21 43.297-86.597 71.634-145.973 71.634-103.095 0-186.52-83.565-186.52-186.613s83.427-186.568 186.52-186.568c61.008 0 114.607 29.642 148.722 74.897l315.342-161.305c-4.941-16.732-8.528-34.117-8.528-52.48 0-103.048 83.565-186.568 186.52-186.568 103.188 0 186.66 83.52 186.66 186.568 0.048 103.141-83.425 186.615-186.613 186.615z" />
<glyph unicode="&#xe911;" glyph-name="check" d="M365.714 230.4l585.143 580.267 73.143-72.533-658.286-652.8-365.714 362.667 73.143 72.533 292.571-290.133z" />
<glyph unicode="&#xe912;" glyph-name="chevron__right" horiz-adv-x="555" d="M554.667 468.443l-508.9 491.557-44.164-40.886 482.514-471.114-484.116-471.114 46.034-40.886 508.632 491.557z" />
<glyph unicode="&#xe913;" glyph-name="chevron__bottom" d="M532.443 170.667l491.557 508.9-40.886 44.164-471.114-482.514-471.114 484.116-40.886-46.034 491.557-508.632z" />
<glyph unicode="&#xe914;" glyph-name="more" d="M42.667 789.333h938.667c23.564 0 42.667-19.103 42.667-42.667s-19.103-42.667-42.667-42.667h-938.667c-23.564 0-42.667 19.103-42.667 42.667s19.103 42.667 42.667 42.667zM42.667 490.667h938.667c23.564 0 42.667-19.103 42.667-42.667s-19.103-42.667-42.667-42.667h-938.667c-23.564 0-42.667 19.103-42.667 42.667s19.103 42.667 42.667 42.667zM42.667 192h938.667c23.564 0 42.667-19.103 42.667-42.667s-19.103-42.667-42.667-42.667h-938.667c-23.564 0-42.667 19.103-42.667 42.667s19.103 42.667 42.667 42.667z" />
<glyph unicode="&#xe915;" glyph-name="product" d="M603.99 444.152l416.387 210.301v-473.493l-468.406-236.641v473.493l52.018 26.34zM688.761 868.757l-481.169-243.174-180.378 91.243 481.41 243.174 180.138-91.243zM989.793 716.826l-481.169-243.174-180.138 91.032-27.454 12.433 481.169 243.174 207.592-103.465zM264.667 403.061v115.265l201.089-101.357v-470.122l-465.034 234.955v470.122l177.729-89.557v-120.533l86.216-38.773z" />
<glyph unicode="&#xe916;" glyph-name="caret-down" horiz-adv-x="2025" d="M2024.672 960l-1012.336-1024-1012.336 1024z" />
<glyph unicode="&#xe917;" glyph-name="file" d="M512.384-63.040h377.024c38.848 0 70.336 28.544 70.336 63.744v895.552c0 35.2-31.488 63.744-70.336 63.744h-502.4v-21.12c0.32-2.112 0.448-4.48 0.448-6.72v-174.528c0-49.536-44.416-89.792-99.072-89.792h-192.64c-2.203 0.029-4.321 0.121-6.421 0.276l0.341-0.020h-24.448v-667.392c0-35.2 31.488-63.744 70.336-63.744h376.832zM526.592 153.6h-245.76c-18.368 0-33.28 13.44-33.28 30.080s14.912 30.080 33.28 30.080h245.888c18.304 0 33.216-13.44 33.216-30.080s-15.040-30.080-33.408-30.080zM772.544 307.264h-491.712c-18.368 0-33.28 13.504-33.28 30.144s14.912 30.080 33.28 30.080h491.712c18.368 0 33.28-13.44 33.28-30.080s-14.912-30.080-33.28-30.080zM280.832 530.752h491.712c18.368 0 33.28-13.44 33.28-30.080s-14.912-30.144-33.28-30.144h-491.712c-18.368 0-33.28 13.44-33.28 30.080s14.912 30.144 33.28 30.144zM95.744 704h193.216c32.128 0.256 58.24 23.872 58.432 52.992v175.232c0 16.064-14.592 26.816-29.76 26.816-0.035 0-0.077 0-0.119 0-7.935 0-15.161-3.040-20.574-8.020l0.022 0.020-222.080-201.28c-18.688-16.832-5.504-45.76 20.928-45.76z" />
<glyph unicode="&#xe918;" glyph-name="image" horiz-adv-x="1317" d="M1278 960h-1239.429c-21.302 0-38.571-16.774-38.571-37.463v-546.966h501.398l133.007 101.848c14.007 10.727 33.755 10.727 47.762 0l634.405-485.783v930.901c0 20.69-17.27 37.463-38.571 37.463zM995.143 485.463c-92.163 0-167.143 72.826-167.143 162.341s74.98 162.341 167.143 162.341c92.163 0 167.143-72.826 167.143-162.341s-74.98-162.341-167.143-162.341zM0 300.644h403.547l-403.547-309.011v309.011zM658.286 400.294l606.34-464.294h-1212.678l606.338 464.294z" />
<glyph unicode="&#xe919;" glyph-name="check-square" d="M170 954c-90.072-0.013-163.087-73.028-163.1-163.099v-688.101c0.042-90.060 73.039-163.057 163.096-163.1l688.104-0.1c90.087 0.042 163.1 73.082 163.1 163.174 0 0.009 0 0.018 0 0.027v-0.001 688.1c-0.042 90.060-73.039 163.057-163.096 163.1h-688.104zM851.8 739.4c13.233-0.545 25.189-5.601 34.469-13.659l-0.069 0.059c23.552-20.224 26.275-55.499 6-79l-384.1-448.3c-11.264-12.902-26.828-19.7-42.7-19.7-11.776 0-23.614 3.927-33.7 11.3l-256.1 192.4c-12.168 10.34-19.837 25.657-19.837 42.764 0 30.935 25.078 56.013 56.013 56.013 11.561 0 22.303-3.502 31.225-9.504l-0.2 0.127 214.1-160.6 350.2 408.5c10.336 12.052 25.58 19.64 42.596 19.64 0.74 0 1.477-0.014 2.209-0.043l-0.105 0.003z" />
<glyph unicode="&#xe91a;" glyph-name="thumbs-up-background" d="M512 960c-282.77 0-512-229.23-512-512v0c0-282.77 229.23-512 512-512v0c282.77 0 512 229.23 512 512v0c0 282.77-229.23 512-512 512v0zM559.25 703.875c0.47 0.013 1.023 0.021 1.578 0.021 10.057 0 19.54-2.457 27.881-6.804l-0.334 0.159c34.048-17.472 41.913-66.497 29.625-98.625l-17.75-46.5c0 0 127.123 0.384 129.875 0 44.928-7.36 57.839-65.945 19.375-89.625 3.948-6.815 6.278-14.994 6.278-23.717 0-17.317-9.182-32.489-22.944-40.913l-0.21-0.119c3.981-6.838 6.332-15.049 6.332-23.81 0-17.339-9.206-32.527-22.996-40.945l-0.211-0.12c18.688-31.808-6.112-72.375-44-72.375h-281.125v259.125c0 0 81.324 70.738 107.5 95.25 15.040 14.080 24.785 32.852 28.625 52.5 1.536 7.808 1.087 15.96 5.375 23 3.861 6.107 9.864 10.562 16.932 12.334l0.193 0.041c2.953 0.614 6.394 1.019 9.911 1.123l0.089 0.002zM274.75 548.75h74.75c10.304 0 18.75-7.473 18.75-16.625v-299.375c0-9.216-8.385-16.625-18.625-16.625h-74.875c-10.304 0-18.75 7.409-18.75 16.625v299.375c0 9.152 8.51 16.625 18.75 16.625z" />
<glyph unicode="&#xe91b;" glyph-name="thumbs-down-background" d="M512-64c-282.77 0-512 229.23-512 512v0c0 282.77 229.23 512 512 512v0c282.77 0 512-229.23 512-512v0c0-282.77-229.23-512-512-512v0zM559.25 192.125c0.47-0.013 1.023-0.021 1.578-0.021 10.057 0 19.54 2.457 27.881 6.804l-0.334-0.159c34.048 17.472 41.913 66.497 29.625 98.625l-17.75 46.5c0 0 127.123-0.384 129.875 0 44.928 7.36 57.839 65.945 19.375 89.625 3.948 6.815 6.278 14.994 6.278 23.717 0 17.317-9.182 32.489-22.944 40.913l-0.21 0.119c3.981 6.838 6.332 15.049 6.332 23.81 0 17.339-9.206 32.527-22.996 40.945l-0.211 0.12c18.688 31.808-6.112 72.375-44 72.375h-281.125v-259.125c0 0 81.324-70.738 107.5-95.25 15.040-14.080 24.785-32.852 28.625-52.5 1.536-7.808 1.087-15.96 5.375-23 3.861-6.107 9.864-10.562 16.932-12.334l0.193-0.041c2.953-0.614 6.394-1.019 9.911-1.123l0.089-0.002zM274.75 347.25h74.75c10.304 0 18.75 7.473 18.75 16.625v299.375c0 9.216-8.385 16.625-18.625 16.625h-74.875c-10.304 0-18.75-7.409-18.75-16.625v-299.375c0-9.152 8.51-16.625 18.75-16.625z" />
<glyph unicode="&#xe91c;" glyph-name="check-round" horiz-adv-x="1088" d="M521.625 955.625c-282.77 0-512-229.23-512-512v0c0-282.77 229.23-512 512-512v0c282.77 0 512 229.23 512 512v0c0 282.77-229.23 512-512 512v0zM775.125 641.5l68-67.875-384.75-384.625-67.875 67.75v0.125l-181 181 67.875 67.875 181-181 316.75 316.75z" />
<glyph unicode="&#xe91d;" glyph-name="thumbs" horiz-adv-x="931" d="M93.091 215.273c51.413 0 93.091-41.678 93.091-93.091v-93.091c0-51.413-41.678-93.091-93.091-93.091s-93.091 41.678-93.091 93.091v93.091c0 51.413 41.678 93.091 93.091 93.091zM465.455 215.273c51.413 0 93.091-41.678 93.091-93.091v-93.091c0-51.413-41.678-93.091-93.091-93.091s-93.091 41.678-93.091 93.091v93.091c0 51.413 41.678 93.091 93.091 93.091zM837.818 215.273c51.413 0 93.091-41.678 93.091-93.091v-93.091c0-51.413-41.678-93.091-93.091-93.091s-93.091 41.678-93.091 93.091v93.091c0 51.413 41.678 93.091 93.091 93.091zM93.091 587.636c51.413 0 93.091-41.678 93.091-93.091v-93.091c0-51.413-41.678-93.091-93.091-93.091s-93.091 41.678-93.091 93.091v93.091c0 51.413 41.678 93.091 93.091 93.091zM465.455 587.636c51.413 0 93.091-41.678 93.091-93.091v-93.091c0-51.413-41.678-93.091-93.091-93.091s-93.091 41.678-93.091 93.091v93.091c0 51.413 41.678 93.091 93.091 93.091zM837.818 587.636c51.413 0 93.091-41.678 93.091-93.091v-93.091c0-51.413-41.678-93.091-93.091-93.091s-93.091 41.678-93.091 93.091v93.091c0 51.413 41.678 93.091 93.091 93.091zM93.091 960c51.413 0 93.091-41.678 93.091-93.091v-93.091c0-51.413-41.678-93.091-93.091-93.091s-93.091 41.678-93.091 93.091v93.091c0 51.413 41.678 93.091 93.091 93.091zM465.455 960c51.413 0 93.091-41.678 93.091-93.091v-93.091c0-51.413-41.678-93.091-93.091-93.091s-93.091 41.678-93.091 93.091v93.091c0 51.413 41.678 93.091 93.091 93.091zM837.818 960c51.413 0 93.091-41.678 93.091-93.091v-93.091c0-51.413-41.678-93.091-93.091-93.091s-93.091 41.678-93.091 93.091v93.091c0 51.413 41.678 93.091 93.091 93.091z" />
<glyph unicode="&#xe91e;" glyph-name="team" d="M607.616 693.717c0-52.807-42.809-95.616-95.616-95.616s-95.616 42.809-95.616 95.616c0 52.807 42.809 95.616 95.616 95.616s95.616-42.809 95.616-95.616zM655.232 338.176l-21.675 169.045c-2.406 24.259-22.707 43.051-47.397 43.051-0.047 0-0.094 0-0.141 0h-26.19c-6.61-0.007-12.595-2.679-16.94-6.998l0.001 0.001-30.891-30.848-30.891 30.891c-4.344 4.318-10.328 6.99-16.937 6.997h-26.156c-24.661 0-45.141-18.517-47.531-42.411l-21.76-169.728c-0.126-0.923-0.199-1.989-0.199-3.072 0-13.172 10.678-23.851 23.851-23.851 0.025 0 0.050 0 0.075 0h25.852l19.968-243.883c2.447-24.243 22.748-43.008 47.431-43.008 0.050 0 0.1 0 0.15 0h52.344c0.007 0 0.016 0 0.024 0 24.875 0 45.31 19.006 47.578 43.288l0.014 0.19 19.968 243.413h25.771c0.010 0 0.022 0 0.034 0 13.172 0 23.851 10.678 23.851 23.851 0 1.098-0.074 2.179-0.218 3.238l0.014-0.123zM846.677 693.717c0-52.807-42.809-95.616-95.616-95.616s-95.616 42.809-95.616 95.616c0 52.807 42.809 95.616 95.616 95.616s95.616-42.809 95.616-95.616zM272.939 789.333c-52.778-0.073-95.543-42.838-95.616-95.609v-0.007c0.048-52.781 42.799-95.562 95.564-95.659h0.009c52.845 0.024 95.677 42.857 95.701 95.699v0.002c-0.121 52.756-42.892 95.482-95.654 95.531h-0.005zM894.293 338.176l-21.675 169.003c-2.385 24.279-22.696 43.094-47.401 43.094-0.046 0-0.091 0-0.137 0h-26.19c-6.61-0.007-12.595-2.679-16.94-6.998l-30.89-30.89-30.891 30.891c-4.324 4.299-10.274 6.966-16.847 6.997h-26.246c-2.944 0-5.632-1.067-8.448-1.579 6.187-10.923 11.008-22.741 12.416-35.968l21.675-168.533c2.688-20.48-3.712-41.131-17.493-56.661-6.508-7.088-14.407-12.786-23.278-16.679l-0.445-0.174 15.872-155.52c2.426-24.263 22.737-43.051 47.435-43.051 0.048 0 0.097 0 0.145 0h52.345c0.006 0 0.013 0 0.020 0 24.89 0 45.335 19.029 47.582 43.332l0.014 0.188 19.925 195.584h25.771c0.010 0 0.022 0 0.034 0 13.172 0 23.851 10.678 23.851 23.851 0 1.098-0.074 2.179-0.218 3.238l0.014-0.123zM338.645 287.744c-11.112 12.554-17.897 29.162-17.897 47.354 0 3.191 0.209 6.333 0.613 9.414l-0.039-0.362 21.76 169.771c1.237 12.715 5.931 24.192 11.904 34.816-2.688 0.469-5.205 1.536-8.021 1.536h-26.24c-6.595-0.019-12.562-2.689-16.897-6.998l-30.89-30.89-30.891 30.891c-4.334 4.309-10.301 6.978-16.892 6.997h-26.201c-24.661 0-45.141-18.517-47.531-42.411l-21.76-169.728c-0.126-0.923-0.199-1.989-0.199-3.072 0-13.172 10.678-23.851 23.851-23.851 0.025 0 0.050 0 0.075 0h25.809l20.011-196.053c2.426-24.263 22.737-43.051 47.435-43.051 0.048 0 0.097 0 0.145 0h52.302c0.006 0 0.013 0 0.020 0 24.89 0 45.335 19.029 47.582 43.332l0.014 0.188 15.872 155.136c-9.394 4.142-17.37 9.876-23.938 16.937l-0.040 0.044z" />
<glyph unicode="&#xe91f;" glyph-name="task1" horiz-adv-x="910" d="M144.515 535.946v-77.101h387.113l45.735 48.875v28.226zM144.515 381.744v-77.101h242.826l72.146 77.101zM144.517 227.544h216.424v-77.101h-216.424v77.101zM890.974 624.832l-51.013 54.518c-14.079 15.047-36.93 15.047-51.009 0-13.594-14.529-26.079-27.872-38.048-40.664l102.024-109.038c12.061 12.89 24.578 26.267 38.046 40.664 14.083 15.049 14.083 39.471 0 54.52zM725.466 611.358c-129.471-138.375-167.63-179.014-328.456-350.902 0-66.709 0-52.253 0-110.019 86.836 0.002 64.869-0.041 101.262 0.169 8.003 8.553 15.619 16.692 23.083 24.67l128.15 136.9v-277.391h-577.132v693.911h72.146v-77.101h432.844v77.101h72.141v-143.883l72.141 77.099v66.784c0 42.584-32.297 77.101-72.141 77.101h-100.15c-13.36 15.861-30.52 27.997-50.238 34.059-16.611 5.103-29.393 18.764-34.168 36.517-12.997 48.294-54.643 83.626-104.010 83.626s-91.011-35.332-104.010-83.623c-4.782-17.772-17.596-31.416-34.224-36.536-19.699-6.067-36.842-18.191-50.188-34.043h-100.144c-39.842 0-72.141-34.517-72.141-77.101v-693.911c0-42.582 32.299-77.101 72.141-77.101h577.132c39.845 0 72.141 34.52 72.141 77.101v354.461l105.845 113.074-102.026 109.038zM483.244 189.068c-13.441-0.082-15.014-0.082-49.457-0.077l-0.706-0.002v55.503l11.755 12.565 51.011-54.52-12.602-13.469zM361.402 882.901c19.922 0 36.071-17.259 36.071-38.551 0-21.29-16.148-38.551-36.071-38.551s-36.071 17.261-36.071 38.551c0 21.292 16.151 38.551 36.071 38.551z" />
<glyph unicode="&#xe920;" glyph-name="supplier-icon" d="M408.789 704h-138.005c-8.165 0-14.784-6.619-14.784-14.784v0-34.496h167.573v34.496c0 8.165-6.619 14.784-14.784 14.784v0zM753.28 563.051c-2.112 1.233-4.65 1.961-7.358 1.961-2.753 0-5.33-0.752-7.537-2.063l0.068 0.038-146.304-85.547v72.789c-0.001 8.164-6.62 14.781-14.784 14.781-2.752 0-5.328-0.752-7.535-2.062l0.068 0.038-146.325-85.547v147.691h-167.573v-411.051c0-8.171 6.613-14.784 14.784-14.784h475.136c8.171 0 14.784 6.613 14.784 14.784v336.149c-0.008 5.448-2.962 10.204-7.354 12.762l-0.070 0.038zM482.731 303.296c0-8.171-6.613-14.784-14.784-14.784h-59.157c-8.165 0-14.784 6.619-14.784 14.784v0 59.136c0 8.171 6.613 14.784 14.784 14.784h59.157c8.149 0 14.784-6.613 14.784-14.784v-59.136zM651.285 303.296c0-8.171-6.613-14.784-14.784-14.784h-59.136c-0.006 0-0.014 0-0.021 0-8.165 0-14.784 6.619-14.784 14.784v0 59.136c0 8.171 6.613 14.784 14.805 14.784h59.136c8.171 0 14.784-6.613 14.784-14.784v-59.136z" />
<glyph unicode="&#xe921;" glyph-name="settings-project-menu" d="M1020.794 504.854c-1.603 14.381-18.387 25.199-32.946 25.199-0.264-0.002-0.576-0.003-0.889-0.003-47.098 0-87.511 28.624-104.792 69.424l-0.281 0.746c-17.853 43.631-6.367 94.52 28.627 126.62 5.683 5.219 9.232 12.684 9.232 20.978 0 6.682-2.304 12.826-6.16 17.681l0.045-0.058c-24.208 30.609-50.834 57.489-80.155 81.167l-0.963 0.753c-4.83 3.889-11.040 6.243-17.799 6.243-8.361 0-15.88-3.601-21.092-9.336l-0.021-0.023c-30.542-33.837-85.348-46.392-127.733-28.717-41.091 17.746-69.327 57.921-69.327 104.69 0 2.28 0.067 4.544 0.199 6.791l-0.015-0.31c0.031 0.493 0.048 1.070 0.048 1.65 0 14.559-10.954 26.56-25.070 28.211l-0.133 0.013c-38.244 4.452-76.8 4.586-115.178 0.312-14.346-1.616-25.394-13.68-25.394-28.325 0-0.341 0.006-0.681 0.018-1.020l-0.001 0.049c0.045-1.194 0.070-2.596 0.070-4.004 0-47.105-28.587-87.533-69.358-104.882l-0.745-0.282c-41.85-17.096-96.301-4.675-126.753 28.85-5.237 5.723-12.74 9.298-21.077 9.298-6.654 0-12.776-2.277-17.629-6.094l0.061 0.046c-30.675-24.086-58.591-51.645-82.81-81.92-3.901-4.834-6.262-11.052-6.262-17.822 0-8.348 3.59-15.858 9.311-21.069l0.023-0.020c35.617-32.234 47.104-83.612 28.627-127.733-17.675-42.073-61.44-69.187-111.438-69.187-0.556 0.040-1.205 0.062-1.859 0.062-14.449 0-26.326-11.013-27.695-25.103l-0.009-0.114c-2.182-17.765-3.426-38.33-3.426-59.187 0-20.167 1.164-40.061 3.428-59.621l-0.224 2.383c1.603-14.47 18.922-25.199 33.569-25.199 44.611 1.158 87.396-26.446 105.338-70.166 17.898-43.631 6.411-94.475-28.627-126.575-5.674-5.225-9.216-12.69-9.216-20.982 0-6.678 2.297-12.819 6.145-17.677l-0.045 0.059c23.819-30.275 51.111-57.878 81.030-81.92 4.838-3.913 11.067-6.282 17.848-6.282 8.358 0 15.876 3.599 21.088 9.331l0.021 0.023c30.631 33.837 85.482 46.392 127.644 28.717 41.158-17.662 69.462-57.84 69.462-104.629 0-2.286-0.068-4.556-0.201-6.808l0.015 0.311c-0.031-0.496-0.048-1.076-0.048-1.66 0-14.553 10.927-26.553 25.023-28.245l0.136-0.013c17.703-2.183 38.195-3.429 58.979-3.429 19.815 0 39.366 1.132 58.591 3.336l-2.348-0.219c14.326 1.636 25.351 13.691 25.351 28.32 0 0.359-0.007 0.716-0.020 1.071l0.002-0.051c-0.047 1.22-0.074 2.653-0.074 4.091 0 47.082 28.593 87.486 69.361 104.795l0.745 0.281c42.162 17.185 96.345 4.63 126.842-28.85 5.25-5.705 12.753-9.266 21.087-9.266 6.646 0 12.762 2.264 17.62 6.064l-0.063-0.047c30.954 24.433 58.129 51.325 82.053 80.95l0.758 0.97c3.92 4.83 6.295 11.054 6.295 17.832 0 8.352-3.604 15.861-9.342 21.059l-0.024 0.022c-22.993 20.841-37.374 50.82-37.374 84.159 0 15.725 3.199 30.702 8.983 44.316l-0.28-0.743c17.927 40.99 58.023 69.164 104.728 69.409h0.032l6.322-0.178c0.498-0.031 1.079-0.049 1.665-0.049 14.561 0 26.572 10.923 28.285 25.022l0.014 0.137c2.183 17.765 3.429 38.33 3.429 59.186 0 20.167-1.165 40.061-3.431 59.62l0.224-2.382zM512.801 276.146c-94.282 0.101-170.684 76.504-170.785 170.776v0.010c0.101 94.282 76.504 170.684 170.776 170.785h0.010c94.282-0.101 170.684-76.504 170.785-170.776v-0.010c-0.101-94.282-76.504-170.684-170.776-170.785h-0.010z" />
<glyph unicode="&#xe922;" glyph-name="sample-box" horiz-adv-x="1161" d="M965.564 634.368l188.279 104.585-41.574 22.46-343.586 187.187-189.303-103.287-194.492 105.813-384.887-209.374 40.96-23.074 150.050-83.354-1.775-0.887h-0.137v-0.137l-185.822-101.239 185.822-99.806v-251.017l387.755-193.126 387.755 193.126v250.334l187.392 100.557-186.436 101.239zM768.683 889.481l277.231-150.938-134.144-74.684-280.439 150.733 137.353 74.957zM107.52 741.274l277.299 150.869 137.489-74.889-280.576-150.733-134.212 74.752zM112.23 533.333l137.353 75.093 280.166-151.552-137.079-74.069-280.439 150.528zM241.050 214.528v190.669l152.166-81.647 157.696 87.654v-350.891l-309.931 154.283zM912.794 214.528l-309.794-154.214v351.369l158.515-88.132 151.347 81.237v-190.259zM1042.773 533.47l-280.576-150.665-134.827 74.069 277.572 151.552 137.762-74.957z" />
<glyph unicode="&#xe923;" glyph-name="arrow-right-rectangle" horiz-adv-x="512" d="M0 959.096l511.096-511.096-511.096-511.096z" />
<glyph unicode="&#xe924;" glyph-name="dots-vertical" d="M640 96c0-53.019-42.981-96-96-96s-96 42.981-96 96c0 53.019 42.981 96 96 96s96-42.981 96-96zM640 416c0-53.019-42.981-96-96-96s-96 42.981-96 96c0 53.019 42.981 96 96 96s96-42.981 96-96zM640 736c0-53.019-42.981-96-96-96s-96 42.981-96 96c0 53.019 42.981 96 96 96s96-42.981 96-96z" />
<glyph unicode="&#xe925;" glyph-name="poll" d="M910.208 960h-796.416c-62.848 0-113.792-50.944-113.792-113.792v-796.416c0-62.848 50.944-113.792 113.792-113.792h796.416c62.848 0 113.792 50.944 113.792 113.792v796.416c0 62.848-50.944 113.792-113.792 113.792zM341.312 163.584h-113.728v398.208h113.728v-398.208zM568.896 163.584h-113.856v568.832h113.92v-568.832zM796.416 163.584h-113.728v227.456h113.728v-227.52z" />
<glyph unicode="&#xe926;" glyph-name="plus-square" d="M553.899 404.608l-7.424-426.624-85.333 1.493 7.467 426.624-426.624 7.424 1.493 85.333 426.624-7.467 7.424 426.624 85.333-1.493-7.467-426.624 426.624-7.424-1.493-85.333z" />
<glyph unicode="&#xe927;" glyph-name="pencil" d="M636.587 789.333l208.213-208.213-527.132-527.132-208.1 208.213 527.019 527.246zM1002.951 839.623l-92.956 92.843c-16.669 16.626-39.674 26.907-65.081 26.907s-48.412-10.281-65.083-26.909l0.002 0.002-88.974-88.86 208.213-208.213 103.879 103.652c12.9 12.857 20.882 30.641 20.882 50.29s-7.982 37.433-20.88 50.288l-0.002 0.002zM0.569-30.549c-0.354-1.533-0.556-3.293-0.556-5.1 0-13.070 10.596-23.666 23.666-23.666 1.974 0 3.892 0.242 5.725 0.697l-0.163-0.034 232.107 56.206-208.213 208.213-52.565-236.316z" />
<glyph unicode="&#xe928;" glyph-name="list-project-menu" d="M341.333 789.333h640c23.564 0 42.667-19.103 42.667-42.667v-42.667c0-23.564-19.103-42.667-42.667-42.667h-640c-23.564 0-42.667 19.103-42.667 42.667v42.667c0 23.564 19.103 42.667 42.667 42.667zM341.333 490.667h640c23.564 0 42.667-19.103 42.667-42.667v-42.667c0-23.564-19.103-42.667-42.667-42.667h-640c-23.564 0-42.667 19.103-42.667 42.667v42.667c0 23.564 19.103 42.667 42.667 42.667zM341.333 192h640c23.564 0 42.667-19.103 42.667-42.667v-42.667c0-23.564-19.103-42.667-42.667-42.667h-640c-23.564 0-42.667 19.103-42.667 42.667v42.667c0 23.564 19.103 42.667 42.667 42.667zM42.667 789.333h85.333c23.564 0 42.667-19.103 42.667-42.667v-42.667c0-23.564-19.103-42.667-42.667-42.667h-85.333c-23.564 0-42.667 19.103-42.667 42.667v42.667c0 23.564 19.103 42.667 42.667 42.667zM42.667 490.667h85.333c23.564 0 42.667-19.103 42.667-42.667v-42.667c0-23.564-19.103-42.667-42.667-42.667h-85.333c-23.564 0-42.667 19.103-42.667 42.667v42.667c0 23.564 19.103 42.667 42.667 42.667zM42.667 192h85.333c23.564 0 42.667-19.103 42.667-42.667v-42.667c0-23.564-19.103-42.667-42.667-42.667h-85.333c-23.564 0-42.667 19.103-42.667 42.667v42.667c0 23.564 19.103 42.667 42.667 42.667z" />
<glyph unicode="&#xe929;" glyph-name="list" horiz-adv-x="1229" d="M307.2 38.4c0 56.554 45.846 102.4 102.4 102.4h716.8c56.554 0 102.4-45.846 102.4-102.4s-45.846-102.4-102.4-102.4h-716.8c-56.554 0-102.4 45.846-102.4 102.4zM0 38.4c0 56.554 45.846 102.4 102.4 102.4s102.4-45.846 102.4-102.4c0-56.554-45.846-102.4-102.4-102.4s-102.4 45.846-102.4 102.4zM307.2 448c0 56.554 45.846 102.4 102.4 102.4h716.8c56.554 0 102.4-45.846 102.4-102.4s-45.846-102.4-102.4-102.4h-716.8c-56.554 0-102.4 45.846-102.4 102.4zM0 448c0 56.554 45.846 102.4 102.4 102.4s102.4-45.846 102.4-102.4c0-56.554-45.846-102.4-102.4-102.4s-102.4 45.846-102.4 102.4zM307.2 857.6c0 56.554 45.846 102.4 102.4 102.4h716.8c56.554 0 102.4-45.846 102.4-102.4s-45.846-102.4-102.4-102.4h-716.8c-56.554 0-102.4 45.846-102.4 102.4zM0 857.6c0 56.554 45.846 102.4 102.4 102.4s102.4-45.846 102.4-102.4c0-56.554-45.846-102.4-102.4-102.4s-102.4 45.846-102.4 102.4z" />
<glyph unicode="&#xe92a;" glyph-name="home-project-menu" d="M69.376 228.011v-146.005c0-8.875 8.192-16.299 18.517-16.299h128.256c10.112 0 18.517 7.253 18.517 16.299v256.853l-93.141-81.963c-19.372-16.707-44.364-27.382-71.801-28.872l-0.306-0.013zM298.581 340.736v-258.731c0-8.875 8.192-16.299 18.517-16.299h128.256c10.069 0 18.475 7.253 18.475 16.299v152.32c-29.555 0.204-56.53 11.085-77.297 28.974l0.156-0.131-88.107 77.568zM527.787 250.411v-168.405c0-8.875 8.192-16.299 18.475-16.299h128.256c10.112 0 18.517 7.253 18.517 16.299v310.699l-146.987-129.323c-5.368-4.734-11.346-9.027-17.731-12.69l-0.53-0.28zM909.824 583.68l-152.875-134.528v-367.147c0-8.875 8.192-16.299 18.517-16.299h128.256c10.112 0 18.517 7.253 18.517 16.299v491.52c-4.224 3.157-7.381 5.931-9.685 7.765l-2.731 2.432zM1014.741 822.059c-6.101 5.717-15.36 8.704-27.136 8.704h-3.328c-59.733-2.389-119.253-4.992-178.944-7.424-8.021-0.341-18.944-0.725-27.563-8.32-2.669-2.361-4.86-5.192-6.455-8.374l-0.073-0.16c-8.832-16.811 3.584-27.733 9.472-32.896l14.933-13.355c10.325-9.259 20.821-18.475 31.317-27.563l-360.789-317.739-162.133 142.677c-9.609 8.276-22.211 13.315-35.989 13.315-0.202 0-0.405-0.001-0.607-0.003h0.031c-13.909 0-26.709-4.821-36.395-13.312l-215.936-189.867c-20.181-17.792-20.181-46.464 0-64.213l9.685-8.533c9.643-8.533 22.699-13.312 36.565-13.312s26.709 4.821 36.395 13.312l169.685 149.333 162.133-142.677c9.643-8.533 22.656-13.312 36.565-13.312 13.867 0 26.709 4.821 36.565 13.312l407.083 358.315 46.080-40.363c5.419-4.821 13.013-11.477 24.576-11.477 5.369 0.039 10.428 1.327 14.913 3.587l-0.193-0.088c3.37 1.631 6.273 3.552 8.884 5.804l-0.052-0.044c9.045 7.936 10.709 18.133 11.136 26.069 1.707 34.091 3.584 68.139 5.461 102.4l2.731 51.2c0.64 10.752-2.133 19.072-8.619 25.003z" />
<glyph unicode="&#xe92b;" glyph-name="add" d="M409.6 550.4v358.4c0 28.277 22.923 51.2 51.2 51.2h102.4c28.277 0 51.2-22.923 51.2-51.2v-358.4h358.4c28.277 0 51.2-22.923 51.2-51.2v-102.4c0-28.277-22.923-51.2-51.2-51.2h-358.4v-358.4c0-28.277-22.923-51.2-51.2-51.2h-102.4c-28.277 0-51.2 22.923-51.2 51.2v358.4h-358.4c-28.277 0-51.2 22.923-51.2 51.2v102.4c0 28.277 22.923 51.2 51.2 51.2h358.4z" />
<glyph unicode="&#xe92c;" glyph-name="envelope" d="M512 280.405l-126.72 87.723-362.155-245.76c13.141-9.643 30.891-15.701 50.517-15.701h876.715c19.541 0 37.205 5.973 50.347 15.701l-361.984 245.76-126.72-87.723zM1000.96 772.352c-13.538 10.595-30.807 16.989-49.57 16.989-0.393 0-0.786-0.003-1.177-0.008l0.059 0.001h-876.629c-0.235 0.002-0.512 0.004-0.79 0.004-18.771 0-36.041-6.427-49.729-17.201l0.172 0.131 488.704-358.4 488.96 358.485zM0 721.92v-552.704l353.536 273.237zM670.464 442.453l353.536-273.237v552.96z" />
<glyph unicode="&#xe92d;" glyph-name="heart" horiz-adv-x="1170" d="M1170.286 649.402c0 159.526-132.632 289.7-295.172 289.7-176.843 0-271.766-109.754-289.971-176.117-15.604 68.915-135.233 176.117-289.971 176.117-163.84 0-295.172-128.897-295.172-289.7 0-283.319 474.616-578.124 585.143-713.402 104.025 150.593 585.143 419.874 585.143 713.402z" />
<glyph unicode="&#xe92e;" glyph-name="pdf" horiz-adv-x="1069" d="M655.462 25.048v-88.353l-655.462 82.788v859.819l655.462 80.698v-85.722c1.453 0.063 2.932 0.196 4.414 0.196h335.821c39.273 0 71.235-29.489 71.235-65.717v-718.184c0-36.233-31.961-65.719-71.235-65.719h-335.821c-1.491 0-2.961 0.12-4.414 0.193zM995.696 62.39c16.834 0 30.527 12.643 30.527 28.166v175.787c-0.684-0.476-1.272-1.036-2.026-1.476l-2.228-1.092c0 0-2.047-0.88-5.844-1.667-16.555-3.448-59.408-3.906-99.527 66.075l-9.946 17.794c-84.046 18.216-181.217 9.772-251.191-1.384v-281.783c1.453-0.2 2.912-0.421 4.414-0.421h335.821zM683.944 377.992l0.737 0.127-0.895-0.963c61.247 7.811 135.712 11.799 205.058 0.871l-0.835 1.478 0.079-0.019c-24.388 44.117-59.807 108.753-81.292 150.54l-0.298-0.422-0.1 0.207c-27.369-37.41-69.865-92.649-122.454-151.818zM807.652 654.090c-4.77-7.745-5.486-28.276 5.367-63.434 4.709 6.935 7.214 10.777 7.214 10.777h0.021c19.36 31.937 15.76 45.033 13.276 49.162-4.093 6.933-15.065 7.597-15.165 7.606-5.525 0.224-8.607-0.683-10.713-4.112zM947.696 334.452c29.137-46.803 54.677-46.070 61.1-44.978 0.119 0.191 0.158 0.384 0.198 0.577 0.754 3.997-3.4 12.469-7.892 18.356-15.642 10.285-33.511 18.985-53.405 26.045zM659.875 836.915c-1.511 0-2.961-0.216-4.421-0.414v-446.083c61.644 68.834 109.822 132.92 136.377 169.972-1.56 3.484-2.742 6.252-3.479 8.411-16.576 46.734-19.002 80.129-7.274 99.194 7.693 12.486 21.864 19.042 38.48 18.345 10.276-0.315 30.39-5.275 40.487-21.787 11.139-18.244 6.737-44.107-13.406-77.236-0.318-0.49-7.265-11.2-20.195-29.573 22.33-45.101 75.449-141.409 101.097-187.616 35.975-9.14 67.379-22.662 93.436-40.211l1.689-1.154 1.293-1.542c0.488-0.56 1.312-1.594 2.265-2.851v484.382c0 15.525-13.693 28.164-30.527 28.164h-335.821zM167.89 454.16c12.029 11.099 18.662 27.519 18.662 46.887 0 19.348-8.72 35.654-21.644 45.353-13.403 10.214-33.279 15.009-60.721 14.39-26.856-0.602-45.673-2.723-58.97-5.276v-188.432l43.046-1.1v69.017c4.039-0.605 9.266-0.935 15.050-0.989 26.297-0.221 49.078 5.968 64.577 20.151zM285.356 529.706c41.917 0.589 68.551-21.61 68.235-64.328 0-49.119-29.259-71.783-73.323-70.699-5.983 0.11-12.606 0.219-16.676 1.182v131.736c4.080 0.972 10.987 1.963 21.764 2.109zM369.982 383.3c21.536 16.485 37.217 43.723 37.217 83.572 0 36.763-14.694 62.179-37.849 77.791-21.325 14.567-48.234 20.981-89.083 20.059-24.21-0.544-46.892-2.535-64.14-5.565v-195.558c11.682-1.779 29.014-3.694 53.72-4.346 41.938-1.081 76.885 6.547 100.134 24.047zM441.028 566.753l-0.015-0.002v-209.755l52.716-1.34v85.355l85.987-0.549v39.785l-85.987-0.196v48.49l92.11 1.233v40.171l-144.81-3.19zM106.519 527.761c22.217 0.33 34.892-10.23 34.89-28.229 0-20.005-14.722-31.909-38.374-31.892-6.4 0-11.032 0.29-14.763 1.156v56.984c3.187 0.913 9.259 1.852 18.248 1.98z" />
<glyph unicode="&#xe92f;" glyph-name="tag" d="M927.829 960h-288.683c-52.907 0-126.805-30.635-164.181-68.011l-446.891-446.976c-17.347-17.432-28.070-41.469-28.070-68.011s10.723-50.578 28.074-68.014l344.913-344.913c17.432-17.347 41.469-28.070 68.011-28.070s50.578 10.723 68.014 28.074l446.972 446.972c37.376 37.376 68.011 111.275 68.011 164.181v288.597c-0.145 53.055-43.116 96.025-96.157 96.171h-0.014zM800 640c-53.019 0-96 42.981-96 96s42.981 96 96 96v0c53.019 0 96-42.981 96-96s-42.981-96-96-96v0z" />
<glyph unicode="&#xe930;" glyph-name="thumbs-down" d="M811.264 263.744h136.064c18.688 0 33.984 13.696 33.984 30.528v549.824c0 16.896-15.232 30.592-33.984 30.592h-136.064c-18.752 0-33.984-13.696-33.984-30.592v-549.696c0-16.896 15.36-30.592 33.984-30.592zM119.232 257.728c4.928-0.768 236.16 0 236.16 0l-32.32-85.44c-22.336-59.072-7.872-149.184 53.952-181.248 20.096-10.432 48.256-15.68 70.912-10.112 13.268 3.331 24.224 11.513 31.107 22.506l0.125 0.214c7.872 12.8 7.040 27.904 9.856 42.176 7.345 38.18 25.841 71.186 51.917 96.399l0.051 0.049c47.616 45.056 195.456 174.976 195.456 174.976v475.968h-510.976c-68.928 0-114.112-74.688-80.128-133.056-40.512-25.152-54.4-78.208-30.656-118.976-40.512-25.152-54.4-78.208-30.656-118.976-69.952-43.52-46.528-151.040 35.2-164.48z" />
<glyph unicode="&#xe931;" glyph-name="thumbs-up" d="M212.736 632.256h-136.064c-18.688 0-33.984-13.696-33.984-30.528v-549.824c0-16.896 15.232-30.592 33.984-30.592h136.064c18.752 0 33.984 13.696 33.984 30.592v549.696c0 16.896-15.36 30.592-33.984 30.592zM904.768 638.272c-4.928 0.768-236.16 0-236.16 0l32.32 85.44c22.336 59.072 7.872 149.184-53.952 181.248-20.096 10.432-48.256 15.68-70.912 10.112-13.268-3.331-24.224-11.513-31.107-22.506l-0.125-0.214c-7.872-12.8-7.040-27.904-9.856-42.176-7.345-38.18-25.841-71.186-51.917-96.399l-0.051-0.049c-47.616-45.056-195.456-174.976-195.456-174.976v-475.968h510.976c68.928 0 114.112 74.688 80.128 133.056 40.512 25.152 54.4 78.208 30.656 118.976 40.512 25.152 54.4 78.208 30.656 118.976 69.952 43.52 46.528 151.040-35.2 164.48z" />
<glyph unicode="&#xe932;" glyph-name="feedback" horiz-adv-x="1195" d="M0 789.333h170.667v-853.333h-170.667v853.333zM341.333 960h170.667v-1024h-170.667v1024zM682.667 704h170.667v-768h-170.667v768zM1024 533.333h170.667v-597.333h-170.667v597.333z" />
<glyph unicode="&#xe933;" glyph-name="export1" horiz-adv-x="1195" d="M896 118.857v146.286l149.333 117.029v-409.6h-1045.333v804.571h504l-186.667-146.286h-168v-512h746.667zM296.203 263.461c0 286.866 260.811 512.805 525.131 515.365v144.603l373.333-292.571-373.333-292.571v145.774c-248.864 8.704-398.645-99.913-525.131-220.599z" />
<glyph unicode="&#xe934;" glyph-name="excel" horiz-adv-x="1092" d="M1058.133 823.421h-443.733v102.4c0 10.172-4.506 19.797-12.356 26.283-7.782 6.485-18.227 9.284-28.058 7.236l-546.133-102.4c-16.179-3.004-27.853-17.067-27.853-33.519v-750.933c0-16.384 11.674-30.515 27.853-33.519l546.133-102.4c2.048-0.41 4.164-0.614 6.281-0.614 7.919 0 15.633 2.731 21.777 7.851 7.851 6.485 12.356 16.179 12.356 26.283v102.4h443.733c18.842 0 34.133 15.292 34.133 34.133v682.667c0 18.842-15.292 34.133-34.133 34.133zM469.402 333.88c12.425-14.131 10.991-35.703-3.209-48.128-6.485-5.666-14.473-8.465-22.46-8.465-9.489 0-18.91 3.959-25.668 11.674l-99.26 113.391-87.040-111.957c-6.758-8.602-16.862-13.107-26.965-13.107-7.305 0-14.677 2.321-20.958 7.168-14.882 11.605-17.545 33.041-6.007 47.923l95.164 122.334-93.867 107.315c-12.425 14.131-10.991 35.703 3.209 48.128 14.131 12.425 35.635 11.059 48.196-3.209l85.197-97.348 101.103 129.98c11.605 14.814 33.041 17.545 47.923 5.939 14.882-11.537 17.545-32.973 5.939-47.923l-109.227-140.356 107.93-123.358zM1024 140.754h-409.6v68.267h102.4c18.842 0 34.133 15.292 34.133 34.133s-15.292 34.133-34.133 34.133h-102.4v68.267h102.4c18.842 0 34.133 15.292 34.133 34.133s-15.292 34.133-34.133 34.133h-102.4v68.267h102.4c18.842 0 34.133 15.292 34.133 34.133s-15.292 34.133-34.133 34.133h-102.4v68.267h102.4c18.842 0 34.133 15.292 34.133 34.133s-15.292 34.133-34.133 34.133h-102.4v68.267h409.6v-614.4z" />
<glyph unicode="&#xe935;" glyph-name="event-icon" horiz-adv-x="960" d="M929.024 792.128c-12.806 13.381-30.809 21.699-50.755 21.699-0.224 0-0.448-0.001-0.672-0.003h-73.054v54.784c0 25.152-8.96 46.656-26.88 64.576-17.792 17.856-39.296 26.816-64.448 26.816h-36.48c-25.152 0-46.72-8.96-64.576-26.88-17.92-17.856-26.88-39.36-26.88-64.512v-54.784h-219.2v54.784c0 25.152-8.96 46.656-26.88 64.576-17.92 17.856-39.36 26.816-64.512 26.816h-36.48c-25.152 0-46.72-8.96-64.576-26.88-17.92-17.856-26.88-39.36-26.88-64.512v-54.784h-73.024c-19.84 0-36.928-7.232-51.392-21.76-14.464-14.4-21.76-31.552-21.76-51.328v-730.88c0-19.84 7.296-36.928 21.76-51.456 14.464-14.464 31.552-21.696 51.392-21.696h803.968c19.84 0 36.928 7.232 51.392 21.76 14.464 14.4 21.696 31.552 21.696 51.328v730.88c0 19.84-7.232 36.992-21.696 51.456zM238.080 9.856h-164.48v164.48h164.48v-164.48zM238.080 210.816h-164.48v182.784h164.48v-182.72zM238.080 430.080h-164.48v164.48h164.48v-164.48zM225.28 691.328c-3.355 3.2-5.44 7.705-5.44 12.697 0 0.036 0 0.073 0 0.109v-0.006 164.48c0 4.992 1.792 9.28 5.44 12.864 3.2 3.355 7.705 5.44 12.697 5.44 0.036 0 0.073 0 0.109 0h36.538c4.992 0 9.28-1.792 12.864-5.44 3.355-3.2 5.44-7.705 5.44-12.697 0-0.036 0-0.073 0-0.109v0.006-164.48c0-0.023 0-0.049 0-0.076 0-5-2.085-9.514-5.434-12.718l-0.006-0.006c-3.205-3.392-7.734-5.504-12.757-5.504-0.015 0-0.030 0-0.045 0h-36.606c-0.031 0-0.067 0-0.103 0-4.992 0-9.497 2.086-12.69 5.433l-0.007 0.007zM457.344 9.856h-182.72v164.48h182.72v-164.48zM457.344 210.816h-182.72v182.784h182.72v-182.72zM457.344 430.080h-182.72v164.48h182.72v-164.48zM676.672 9.792h-182.784v164.48h182.784v-164.48zM676.672 210.816h-182.784v182.784h182.784v-182.72zM676.672 430.080h-182.784v164.48h182.784v-164.48zM663.808 691.328c-3.355 3.2-5.44 7.705-5.44 12.697 0 0.036 0 0.073 0 0.109v-0.006 164.48c0 4.992 1.792 9.28 5.44 12.864 3.2 3.355 7.705 5.44 12.697 5.44 0.036 0 0.073 0 0.109 0h36.538c4.992 0 9.28-1.792 12.864-5.44 3.355-3.2 5.44-7.705 5.44-12.697 0-0.036 0-0.073 0-0.109v0.006-164.48c0-0.031 0-0.067 0-0.103 0-4.992-2.086-9.497-5.433-12.69l-0.007-0.007c-3.205-3.392-7.734-5.504-12.757-5.504-0.015 0-0.030 0-0.045 0h-36.542c-0.050-0.001-0.108-0.001-0.167-0.001-4.992 0-9.497 2.086-12.691 5.434l-0.007 0.007zM877.568 9.856h-164.416v164.48h164.48v-164.48zM877.568 210.816h-164.416v182.784h164.48v-182.72zM877.568 430.080h-164.416v164.48h164.48v-164.48z" />
<glyph unicode="&#xe936;" glyph-name="trash-bin" d="M182.4 99.584c0-54.784 48.768-99.584 108.608-99.584h434.752c59.776 0 108.736 44.8 108.736 99.584v597.312h-652.096v-597.312zM888.832 846.208h-190.208l-54.336 49.792h-271.744l-54.336-49.792h-190.208v-99.52h760.896v99.52z" />
<glyph unicode="&#xe937;" glyph-name="supplier" d="M360.97 960c19.292 0 34.933-12.617 34.933-28.18v-65.753h-395.903v65.753c0 15.563 15.64 28.18 34.933 28.18h326.038zM1008.928 629.25c9.322-5.024 15.072-14.347 15.072-24.443v-640.626c0-15.563-13.432-28.18-30-28.18h-964c-16.568 0-30 12.617-30 28.18v783.405h340v-281.522l296.856 163.068c9.278 5.099 20.748 5.142 30.072 0.118 9.322-5.024 15.072-14.347 15.072-24.443v-138.743l296.856 163.068c9.278 5.099 20.748 5.142 30.072 0.118zM460 134.2v112.72c0 15.563-13.432 28.18-30 28.18h-120c-16.568 0-30-12.617-30-28.18v-112.72c0-15.563 13.432-28.18 30-28.18h120c16.568 0 30 12.617 30 28.18zM802 134.2v112.72c0 15.563-13.432 28.18-30 28.18h-120c-16.568 0-30-12.617-30-28.18v-112.72c0-15.563 13.432-28.18 30-28.18h120c16.568 0 30 12.617 30 28.18z" />
<glyph unicode="&#xe938;" glyph-name="delete" horiz-adv-x="755" d="M200.443 821.008l13.125 52.5c12.25 49.001 60.206 86.492 110.696 86.492h105.999c50.495 0 98.439-37.467 110.696-86.492l13.125-52.5h154.112c25.588 0 46.331-20.743 46.331-46.331 0-21.128-14.143-38.954-33.478-44.525l-24.195-665.358c-1.97-54.181-46.986-97.593-101.253-97.593h-436.675c-54.187 0-99.286 43.509-101.253 97.593l-24.195 665.358c-19.335 5.571-33.478 23.396-33.478 44.525 0 25.588 20.743 46.331 46.331 46.331h154.112zM295.956 821.008h162.615l-7.507 30.026c-1.948 7.791-12.842 16.304-20.801 16.304h-105.999c-7.947 0-18.858-8.53-20.801-16.304l-7.507-30.026zM126.266 728.347l24.007-660.185c0.155-4.262 4.34-8.299 8.653-8.299h436.675c4.4 0 8.494 3.948 8.653 8.299l24.007 660.185h-501.994zM344.17 609.211c0 18.277 14.816 33.093 33.093 33.093s33.093-14.816 33.093-33.093v-450.068c0-18.277-14.816-33.093-33.093-33.093s-33.093 14.816-33.093 33.093v450.068zM191.955 608.239c-0.537 18.269 13.837 33.515 32.106 34.052s33.514-13.837 34.052-32.106l13.237-450.068c0.537-18.269-13.837-33.515-32.106-34.052s-33.515 13.837-34.052 32.106l-13.237 450.068zM496.413 610.184c0.537 18.269 15.783 32.643 34.052 32.106s32.643-15.783 32.106-34.052l-13.237-450.068c-0.537-18.269-15.783-32.643-34.052-32.106s-32.643 15.783-32.106 34.052l13.237 450.068z" />
<glyph unicode="&#xe939;" glyph-name="data-cleansing" d="M965.973 902.059c-9.099 8.327-21.269 13.429-34.632 13.429-13.953 0-26.606-5.563-35.864-14.591l0.011 0.010-477.611-473.045-9.003 8.619c-6.114 5.781-14.386 9.334-23.488 9.334s-17.374-3.554-23.504-9.349l0.016 0.015c-5.913-5.611-9.593-13.526-9.593-22.301 0-4.796 1.099-9.336 3.059-13.38l-0.080 0.183c-16.64 5.888-34.133 9.387-52.181 9.387-39.979 0-78.379-15.232-106.667-42.368l-146.901-140.8c-4.187-4.028-6.788-9.678-6.788-15.936s2.601-11.908 6.78-15.929l0.007-0.007 27.52-26.368 143.573 104.235-108.757-137.6 65.707-62.933 90.027 65.408-68.224-86.315 30.293-29.056c4.341-4.090 10.208-6.604 16.661-6.604s12.32 2.514 16.674 6.615l-0.012-0.011 146.859 140.8c27.059 25.588 43.9 61.738 43.9 101.822 0 18.084-3.428 35.367-9.669 51.235l0.329-0.95c4.020-1.817 8.716-2.876 13.659-2.876 9.029 0 17.233 3.532 23.305 9.29l-0.015-0.014c6.011 5.65 9.755 13.652 9.755 22.528s-3.744 16.878-9.739 22.513l-0.016 0.015-9.003 8.619 493.611 457.685c20.309 20.053 19.755 50.347 0 68.693zM62.293 550.827c-0.191-0.454-0.301-0.981-0.301-1.534 0-1.323 0.634-2.498 1.614-3.237l0.010-0.007c0.73-0.574 1.663-0.921 2.677-0.921 0.912 0 1.758 0.28 2.458 0.76l-0.015-0.010 67.072 45.653 76.032-29.867c1.792-0.725 3.84-0.213 5.035 1.237 0.6 0.686 0.967 1.59 0.967 2.58 0 0.894-0.299 1.719-0.803 2.379l0.007-0.010-47.659 64.256 31.147 72.875c0.197 0.46 0.312 0.996 0.312 1.559 0 1.308-0.62 2.472-1.582 3.213l-0.009 0.007c-0.73 0.574-1.663 0.921-2.677 0.921-0.912 0-1.758-0.28-2.458-0.76l0.015 0.010-67.072-45.653-76.075 29.867c-0.482 0.195-1.041 0.309-1.626 0.309-1.343 0-2.547-0.597-3.361-1.54l-0.005-0.006c-0.593-0.689-0.955-1.593-0.955-2.582 0-0.892 0.294-1.715 0.791-2.378l-0.007 0.010 47.659-64.171-31.147-72.917zM763.307 291.499l-55.253 3.925-26.155 46.848c-0.765 1.317-2.169 2.188-3.776 2.188-0.325 0-0.642-0.036-0.946-0.103l0.029 0.005c-1.838-0.328-3.242-1.834-3.412-3.696l-0.001-0.016-4.053-52.992-48.896-25.045c-1.331-0.683-2.226-2.046-2.226-3.618 0-0.305 0.034-0.603 0.098-0.889l-0.005 0.027c0.434-1.79 1.966-3.119 3.827-3.242l0.013-0.001 55.253-3.925 26.155-46.848c0.765-1.317 2.169-2.188 3.776-2.188 0.325 0 0.642 0.036 0.946 0.103l-0.029-0.005c1.831 0.342 3.227 1.84 3.412 3.695l0.001 0.017 4.096 52.992 48.853 25.045c1.354 0.663 2.271 2.031 2.271 3.614 0 0.307-0.035 0.606-0.1 0.893l0.005-0.027c-0.434 1.79-1.966 3.119-3.827 3.242l-0.013 0.001zM369.195 824.32l-1.707-29.44c-0.003-0.056-0.004-0.122-0.004-0.188 0-1.845 1.208-3.409 2.876-3.943l0.029-0.008c1.792-0.597 3.84 0 4.907 1.493l17.877 24.021 30.72-1.621c0.076-0.005 0.165-0.007 0.254-0.007 1.815 0 3.367 1.121 4.002 2.709l0.010 0.029c0.151 0.406 0.239 0.874 0.239 1.364 0 1.381-0.698 2.599-1.761 3.321l-0.014 0.009-25.045 17.152 1.707 29.44c0.004 0.065 0.006 0.142 0.006 0.219 0 1.838-1.211 3.393-2.878 3.912l-0.029 0.008c-0.422 0.148-0.908 0.234-1.414 0.234-1.419 0-2.681-0.673-3.485-1.717l-0.008-0.010-17.92-24.021-30.72 1.579c-0.076 0.005-0.165 0.007-0.254 0.007-1.815 0-3.367-1.121-4.002-2.709l-0.010-0.029c-0.64-1.707 0-3.669 1.579-4.693l25.045-17.152z" />
<glyph unicode="&#xe93a;" glyph-name="comment" d="M521.933 872.55c-265.728 0-481.894-178.074-481.894-396.902 0-103.322 47.258-200.192 133.53-274.278l-96.768-193.229c-8.55-16.998 9.472-35.174 26.419-27.136l258.458 120.218c51.354-14.848 105.165-22.374 160.256-22.374 265.728 0 481.843 178.022 481.843 396.8 0 218.829-216.166 396.902-481.843 396.902zM341.35 587.52h261.018c11.085 0 20.070-8.986 20.070-20.070s-8.986-20.070-20.070-20.070h-261.018c-11.085 0-20.070 8.986-20.070 20.070s8.986 20.070 20.070 20.070v0zM722.79 306.432h-381.44c-11.099 0-20.096 8.997-20.096 20.096s8.997 20.096 20.096 20.096v0h381.44c11.099 0 20.096-8.997 20.096-20.096s-8.997-20.096-20.096-20.096v0zM722.79 426.906h-381.44c-11.099 0-20.096 8.997-20.096 20.096s8.997 20.096 20.096 20.096v0h381.44c11.099 0 20.096-8.997 20.096-20.096s-8.997-20.096-20.096-20.096v0z" />
<glyph unicode="&#xe93b;" glyph-name="close" d="M941.322 955.719l85.186-85.186-937.041-937.041-85.186 85.186 937.041 937.041zM1026.508 18.678l-85.186-85.186-937.041 937.041 85.186 85.186 937.041-937.041z" />
<glyph unicode="&#xe93c;" glyph-name="comments" d="M922.795 960c55.808 0 101.205-45.397 101.205-101.205v-360.789c0-55.808-45.397-101.205-101.205-101.205h-35.328v223.078c0 74.615-60.723 135.322-135.339 135.322h-581.461v103.595c0 55.808 45.397 101.205 101.205 101.205h650.923zM752.128 721.067c55.808 0 101.205-45.397 101.205-101.188v-360.806c0-55.808-45.397-101.205-101.205-101.205h-352.051l-165.581-182.153c-3.294-3.618-7.919-5.581-12.629-5.581-2.065 0-4.147 0.375-6.144 1.143-6.588 2.543-10.923 8.875-10.923 15.923v170.667h-103.595c-55.808 0-101.205 45.397-101.205 101.205v360.806c0 55.791 45.397 101.188 101.205 101.188h650.923zM204.8 550.144c-9.438 0-17.067-7.646-17.067-17.067s7.629-17.067 17.067-17.067h238.933c9.438 0 17.067 7.646 17.067 17.067s-7.629 17.067-17.067 17.067h-238.933zM665.6 311.211c9.438 0 17.067 7.646 17.067 17.067s-7.629 17.067-17.067 17.067h-460.8c-9.438 0-17.067-7.646-17.067-17.067s7.629-17.067 17.067-17.067h460.8zM665.6 413.611c9.438 0 17.067 7.646 17.067 17.067s-7.629 17.067-17.067 17.067h-460.8c-9.438 0-17.067-7.646-17.067-17.067s7.629-17.067 17.067-17.067h460.8z" />
<glyph unicode="&#xe93d;" glyph-name="thumbs-down-line" d="M938.667 353.86v560.606h-118.784v-560.606h118.784zM811.281 308.395c-0.186-0.004-0.405-0.006-0.624-0.006-18.151 0-32.918 14.486-33.372 32.527l-0.001 0.042v586.411c0 18.022 15.223 32.631 33.997 32.631h136.055c18.773 0 33.997-14.609 33.997-32.563v-586.479c-0.455-18.083-15.222-32.569-33.372-32.569-0.219 0-0.439 0.002-0.657 0.006h-136.022zM693.794 823.467h-468.309c-36.591 0-60.416-42.121-43.281-73.455l20.89-38.229-35.226-23.347c-13.393-9.279-22.054-24.568-22.054-41.879 0-8.571 2.123-16.646 5.872-23.728l-0.133 0.276 20.89-38.229-35.226-23.347c-13.408-9.278-22.080-24.575-22.080-41.897 0-8.591 2.133-16.683 5.898-23.777l-0.133 0.275 20.89-38.229-35.226-23.347c-35.977-23.893-23.825-84.241 19.524-91.819-1.775 0.341 65.741 0.205 111.070 0.273 41.53 0.077 76.979 0.176 112.421 0.306l-11.523-0.033h17.067l61.986 0.273-21.845-61.781-32.29-91.204c-17.749-50.244-2.048-117.146 33.655-136.806 12.629-6.963 30.174-9.899 41.165-7.031 2.084 0.594 3.798 1.909 4.895 3.651l0.021 0.035c1.092 3.887 1.826 8.395 2.043 13.039l0.005 0.136 0.205 1.638c6.227 55.77 30.503 104.949 66.763 142.474l-0.067-0.069c17.34 17.545 48.196 47.377 89.020 86.221l2.389 2.253c20.918 19.978 50.463 47.945 80.090 75.827l10.636 9.916v441.617zM344.951 268.459l10.377 29.355-45.67-0.137c-67.584-0.205-186.914-0.478-190.464 0.137-81.647 14.336-105.131 129.024-35.157 175.445-23.757 43.418-9.899 100.011 30.72 126.908-23.757 43.418-9.899 100.079 30.583 126.976-33.997 62.123 11.196 141.858 80.145 141.858h510.976v-507.699s-147.866-138.581-195.447-186.709c-26.378-27.407-44.903-62.548-51.845-101.692l-0.174-1.186c-2.731-15.223-1.98-31.198-9.83-44.988-6.763-11.782-17.745-20.495-30.837-24.149l-0.361-0.086c-22.733-5.871-50.859-0.273-70.997 10.854-61.781 34.133-76.186 130.389-53.931 193.331l16.179 45.602 5.734 16.247z" />
<glyph unicode="&#xe93e;" glyph-name="thumbs-up-line" d="M85.333 606.242v-560.606h118.784v560.606h-118.784zM212.719 651.776c18.705 0 33.997-14.609 33.997-32.563v-586.479c-0.379-18.106-15.146-32.639-33.307-32.639-0.242 0-0.484 0.003-0.726 0.008l0.036-0.001h-136.055c-0.205-0.005-0.447-0.007-0.69-0.007-18.161 0-32.928 14.533-33.307 32.603l-0.001 0.035v586.411c0 18.022 15.292 32.631 33.997 32.631h136.055zM330.206 136.636h468.309c36.591 0 60.416 42.121 43.281 73.523l-20.89 38.229 35.226 23.279c13.408 9.278 22.080 24.575 22.080 41.897 0 8.591-2.133 16.683-5.898 23.777l0.133-0.275-20.89 38.229 35.226 23.347c13.393 9.279 22.054 24.568 22.054 41.879 0 8.571-2.123 16.646-5.872 23.728l0.133-0.276-20.89 38.229 35.226 23.347c35.977 23.893 23.825 84.241-19.524 91.819 1.775-0.273-65.741-0.137-111.070-0.273-41.526-0.077-76.989-0.176-112.444-0.306l11.546 0.033h-17.067l-61.986-0.273 21.845 61.85 32.29 91.136c17.749 50.244 2.048 117.146-33.655 136.875-12.629 6.963-30.174 9.83-41.165 6.963-2.084-0.594-3.798-1.909-4.895-3.651l-0.021-0.035c-1.092-3.887-1.826-8.395-2.043-13.039l-0.005-0.136-0.205-1.638c-6.227-55.77-30.503-104.949-66.763-142.474l0.067 0.069c-17.34-17.545-48.196-47.309-89.020-86.153l-2.389-2.253c-21.035-20.103-50.579-48.091-80.204-75.993l-10.522-9.819v-441.617zM700.894 753.493l-32.222-91.204 29.355 0.137h16.316c67.584 0.205 186.914 0.478 190.464-0.137 81.715-14.336 105.131-129.024 35.157-175.445 23.757-43.418 9.899-100.011-30.72-126.908 23.757-43.418 9.899-100.011-30.583-126.908 33.997-62.259-11.196-141.926-80.145-141.858h-510.976v507.699s147.866 138.581 195.447 186.641c27.307 27.58 44.919 64.239 52.019 102.878 2.731 15.223 1.98 31.266 9.83 44.988 6.763 11.782 17.745 20.495 30.837 24.149l0.361 0.086c22.733 5.939 50.859 0.341 70.997-10.786 61.781-34.202 76.186-130.389 53.931-193.331z" />
<glyph unicode="&#xe93f;" glyph-name="category" d="M1007.412 712.857l-482.016 243.951c-3.904 1.988-8.514 3.153-13.396 3.153s-9.492-1.165-13.568-3.232l0.171 0.079-482.016-244.037c-9.844-5.067-16.461-15.157-16.461-26.793s6.617-21.727 16.293-26.714l0.167-0.079 482.016-240.027c3.903-1.995 8.513-3.163 13.396-3.163s9.493 1.169 13.566 3.242l-0.17-0.079 482.016 240.027c9.891 5.052 16.546 15.166 16.546 26.835s-6.655 21.784-16.376 26.757l-0.17 0.079zM1007.412 232.89l-121.251 59.559-333.887-166.901c-11.739-5.967-25.599-9.461-40.273-9.461s-28.535 3.496-40.791 9.698l0.517-0.237-335.849 166.901-119.288-59.473c-9.938-5.036-16.631-15.176-16.631-26.878s6.693-21.843 16.46-26.799l0.171-0.079 482.016-239.941c3.903-1.995 8.513-3.163 13.396-3.163s9.493 1.169 13.566 3.242l-0.17-0.079 482.016 240.027c9.891 5.052 16.546 15.166 16.546 26.835s-6.655 21.784-16.376 26.757l-0.17 0.079zM1007.412 472.83l-121.251 59.644-333.887-166.986c-11.739-5.967-25.599-9.461-40.273-9.461s-28.535 3.496-40.791 9.698l0.517-0.237-335.849 166.986-119.288-59.729c-9.891-5.052-16.546-15.166-16.546-26.835s6.655-21.784 16.376-26.757l0.17-0.079 482.016-239.856c3.903-1.995 8.513-3.163 13.396-3.163s9.493 1.169 13.566 3.242l-0.17-0.079 482.016 239.941c9.891 5.052 16.546 15.166 16.546 26.835s-6.655 21.784-16.376 26.757l-0.17 0.079z" />
<glyph unicode="&#xe940;" glyph-name="caret" horiz-adv-x="1664" d="M248.238 861.758c-45.334 45.334-118.836 45.334-164.17 0s-45.334-118.836 0-164.17l663.347-663.347c45.334-45.334 118.836-45.334 164.17 0l663.347 663.347c45.334 45.334 45.334 118.836 0 164.17s-118.836 45.334-164.17 0l-581.579-581.579-580.944 581.579z" />
<glyph unicode="&#xe941;" glyph-name="back-arrow" d="M989.286 499.2h-842.394l141.67 168.602c7.858 9.842 12.609 22.466 12.609 36.198s-4.751 26.356-12.699 36.316l0.090-0.117c-16.845 20.019-44.032 20.019-60.826 0l-215.040-256c-16.64-19.763-16.845-52.429 0-72.448l215.040-255.949c16.794-20.019 44.032-20.019 60.826 0 7.858 9.842 12.609 22.466 12.609 36.198s-4.751 26.356-12.699 36.316l0.090-0.117-141.67 168.602h842.394c23.706 0 43.008 22.886 43.008 51.2 0 28.262-19.302 51.2-43.008 51.2z" />
<glyph unicode="&#xe942;" glyph-name="heart-line" horiz-adv-x="1170" d="M667.794 109.861c17.701 14.994 133.632 109.934 168.448 139.703 190.318 162.377 285.257 286.72 285.257 404.407 0 127.561-110.299 232.887-246.418 232.887-129.024 0-224.11-68.681-242.981-135.68-13.751-48.567-83.017-46.958-94.427 2.194-13.385 57.198-126.683 133.486-242.469 133.486-137.509 0-246.491-104.009-246.491-232.887 0-14.629 1.755-29.769 5.12-45.275 22.967-105.838 117.979-222.647 282.258-366.226-18.432 16.091 159.817-132.389 245.687-210.944 21.65 22.455 49.664 47.689 85.943 78.336zM555.154 819.2c-7.314-13.531-12.946-27.429-16.969-41.545l43.154-1.024c1.609-4.169 2.926-8.265 3.803-12.215 1.407 4.973 2.803 8.984 4.393 12.896l-0.297-0.827 43.374-1.024c-4.169 16.902-10.373 31.771-18.483 45.371l0.417-0.754c43.154 56.686 129.243 115.566 260.535 115.566 162.597 0 295.205-126.537 295.205-281.673 0-285.403-481.134-547.182-585.143-693.614-110.519 131.511-585.143 418.158-585.143 693.614 0 156.306 131.365 281.6 295.205 281.6 116.151 0 212.553-58.734 259.95-116.297z" />
<glyph unicode="&#xe943;" glyph-name="arrow-left-rectangle" horiz-adv-x="512" d="M512 959.096l-511.096-511.096 511.096-511.096z" />
<glyph unicode="&#xe944;" glyph-name="search" d="M442.494 948.291c-237.972 0-431.778-194.018-431.778-431.778 0-237.777 194.001-431.778 431.778-431.778 98.367 0 187.148 36.215 259.889 91.889l214.444-214.444c10.869-10.869 25.060-16.778 40-16.778 14.267 0 29.004 5.623 40.111 17 21.807 22.013 21.821 57.845-0.114 79.778l-214.442 214.444c55.674 72.741 91.889 161.522 91.889 259.889 0 237.972-194.018 431.778-431.778 431.778zM442.271 834.736c175.867 0 318.333-142.561 318.333-318.222s-142.487-318.556-318.333-318.556c-175.64 0-318.222 142.689-318.222 318.556s142.561 318.222 318.222 318.222z" />
<glyph unicode="&#xe945;" glyph-name="folder-line" d="M479.529 917.333h-418.721c-7.4 0-17.47-12.29-18.109-31.417h476.657c-9.614 20.277-25.115 31.417-39.827 31.417zM560.403 898.584l22.985-55.335h-583.388v40.741c0 41.957 27.242 76.010 60.808 76.010h418.721c33.931 0 65.186-23.715 80.874-61.416zM42.667 661.333v-650.582c0-19.413 10.315-32.085 18.177-32.085h902.312c7.862 0 18.177 12.672 18.177 32.085v618.622c0.057 19.331-10.208 31.959-18.056 31.959h-920.611zM963.278 704c33.586 0 60.844-33.489 60.722-74.752v-618.496c0-41.264-27.258-74.752-60.844-74.752h-902.312c-33.586 0-60.844 33.487-60.844 74.752v693.248h963.278z" />
<glyph unicode="&#xe946;" glyph-name="event-calendar" horiz-adv-x="911" d="M791.701 849.117c65.753 0 119.088-53.667 119.088-119.42v-56.217h-910.789v56.217c0 65.864 53.445 119.42 119.088 119.42h39.252v33.597c0 42.69 33.597 77.285 74.846 77.285 41.359 0 74.846-34.595 74.846-77.285v-33.597h76.842v33.597c0 42.69 33.487 77.285 74.846 77.285 41.248 0 74.735-34.595 74.735-77.285v-33.597h76.842v33.597c0 42.69 33.487 77.285 74.846 77.285 41.248 0 74.846-34.595 74.846-77.285v-33.597zM266.007 745.221v137.494c0 19.404-14.747 35.15-32.821 35.15s-32.71-15.745-32.71-35.15v-137.494c0-19.404 14.636-35.15 32.71-35.15s32.821 15.745 32.821 35.15zM492.429 745.221v137.494c0 19.404-14.636 35.15-32.71 35.15s-32.821-15.745-32.821-35.15v-137.494c0-19.404 14.747-35.15 32.821-35.15s32.71 15.745 32.71 35.15zM718.962 745.221v137.494c0 19.404-14.747 35.15-32.821 35.15s-32.821-15.745-32.821-35.15v-137.494c0-19.404 14.747-35.15 32.821-35.15s32.821 15.745 32.821 35.15zM0 55.42v564.614h910.789v-564.614c0-65.864-53.334-119.42-119.088-119.42h-672.613c-65.811 0.189-119.088 53.583-119.088 119.42 0 0 0 0 0 0v0zM648.884 529.776v-114.874h128.845v114.874zM648.884 376.425v-114.763h128.845v114.763zM648.884 223.075v-114.763h128.845v114.763zM477.017 529.776v-114.874h128.845v114.874zM477.017 376.425v-114.763h128.845v114.763zM477.017 223.075v-114.763h128.845v114.763zM305.149 529.776v-114.874h128.624v114.874zM305.149 376.425v-114.763h128.624v114.763zM305.149 223.075v-114.763h128.624v114.763zM133.059 376.425v-114.763h128.956v114.763h-128.845zM133.059 223.075v-114.763h128.956v114.763h-128.845z" />
<glyph unicode="&#xe947;" glyph-name="combined-arrows" horiz-adv-x="1117" d="M512.047 430.499c-12.055-27.415-22.342-50.455-30.813-69.12-8.518-18.711-19.735-40.495-33.652-65.396-13.917-24.948-27.183-45.708-39.843-62.324-12.66-16.57-28.020-33.839-46.080-51.665-18.106-17.873-36.771-32.116-56.087-42.682-41.985-22.95-91.972-36.447-145.112-36.447-0.333 0-0.666 0.001-0.999 0.002h-139.491c-0.208-0.008-0.453-0.013-0.699-0.013-5.316 0-10.134 2.138-13.639 5.6l0.002-0.002c-3.46 3.51-5.597 8.333-5.597 13.656 0 0.239 0.004 0.478 0.013 0.715l-0.001-0.034v119.622c0 5.818 1.862 10.566 5.585 14.289s8.471 5.585 14.289 5.585h139.543c19.921 0 38.028 3.165 54.179 9.356 16.198 6.237 30.534 15.593 43.008 28.067s23.040 25.228 31.744 38.307c8.751 13.079 18.106 29.184 28.067 48.268 13.265 25.74 29.463 61.254 48.593 106.543 12.009 27.415 22.342 50.455 30.813 69.12 8.518 18.711 19.735 40.495 33.652 65.443 13.871 24.902 27.183 45.661 39.843 62.278s28.020 33.839 46.080 51.665c18.106 17.873 36.771 32.116 56.087 42.682 41.928 22.95 91.857 36.447 144.938 36.447 0.411 0 0.821-0.001 1.231-0.002h159.354v119.622c0 5.818 1.862 10.566 5.585 14.336 3.77 3.724 8.518 5.585 14.336 5.585 4.98 0 10.007-2.048 14.988-6.237l198.703-198.703c3.724-3.724 5.585-8.518 5.585-14.336s-1.862-10.566-5.585-14.336l-199.354-199.308c-3.49-3.461-8.295-5.599-13.6-5.599-0.259 0-0.516 0.005-0.773 0.015l0.037-0.001c-0.053-0.001-0.116-0.001-0.179-0.001-5.412 0-10.299 2.247-13.779 5.86l-0.006 0.006c-3.646 3.489-5.913 8.395-5.913 13.83 0 0.080 0 0.16 0.001 0.239v-0.012 119.622h-159.465c-19.968 0-38.028-3.165-54.225-9.402-16.779-6.546-31.093-16.061-42.954-28.013l-0.008-0.008c-11.583-11.444-22.042-23.972-31.23-37.437l-0.56-0.87c-8.704-13.079-18.060-29.184-28.020-48.268-13.316-25.274-29.619-60.322-44.663-96.031l-3.931-10.511zM19.921 660.992c-0.208-0.008-0.453-0.013-0.699-0.013-5.316 0-10.134 2.138-13.639 5.6l0.002-0.002c-3.461 3.497-5.599 8.308-5.599 13.619 0 0.252 0.005 0.503 0.014 0.753l-0.001-0.036v119.622c0 5.818 1.862 10.566 5.585 14.336 3.724 3.724 8.518 5.585 14.336 5.585h139.543c103.796 0 188.975-46.732 255.395-140.148-24.902-38.214-53.341-94.906-85.318-170.077-10.527 21.991-18.225 36.788-26.219 51.401l3.132-6.252c-8.681 15.425-17.026 28.347-26.047 40.746l0.819-1.182c-9.182 13.415-19.657 24.998-31.491 35.026l-0.253 0.209c-11.257 8.818-24.233 16.174-38.229 21.45l-1.009 0.334c-14.664 5.721-31.641 9.037-49.392 9.037-0.489 0-0.977-0.003-1.464-0.008l0.075 0.001h-139.543zM911.965 395.636l198.703-198.749c3.724-3.724 5.585-8.471 5.585-14.289s-1.862-10.566-5.585-14.336l-199.354-199.308c-3.496-3.46-8.307-5.597-13.617-5.597-0.236 0-0.472 0.004-0.706 0.013l0.034-0.001c-0.067-0.001-0.146-0.001-0.225-0.001-5.412 0-10.299 2.247-13.779 5.86l-0.006 0.006c-3.646 3.497-5.912 8.408-5.912 13.849 0 0.073 0 0.146 0.001 0.218v-0.011 119.622c-36.683-0.036-72.967-0.391-109.174-1.062l5.75 0.084c-11.636-0.186-26.81 0-45.475 0.605-16.086 0.398-31.399 1.537-46.49 3.393l2.271-0.228c-10.799 1.396-24.111 3.584-39.889 6.516-14.74 2.471-27.92 6.47-40.318 11.92l1.080-0.423c-10.38 4.794-22.435 10.705-36.119 17.78-14.002 7.198-26.075 15.481-36.968 25.072l0.197-0.17c-12.137 10.864-23.307 21.739-34.009 33.061l-0.248 0.265c-12.296 13.014-23.766 27.143-34.129 42.097l-0.78 1.19c24.529 38.633 52.783 95.325 84.713 170.077 9.169-18.711 16.849-33.745 23.087-45.149 6.237-11.45 14.615-24.669 25.228-39.564 10.612-14.988 21.178-26.717 31.744-35.235 10.612-8.518 23.692-15.779 39.284-21.783 15.546-6.051 32.489-9.076 50.735-9.076h159.511v119.622c0 5.818 1.862 10.612 5.585 14.336s8.518 5.585 14.289 5.585c5.027 0 10.007-2.048 14.988-6.191z" />
<glyph unicode="&#xe948;" glyph-name="user" d="M682.667 661.333c0-94.257-76.41-170.667-170.667-170.667s-170.667 76.41-170.667 170.667c0 94.257 76.41 170.667 170.667 170.667s170.667-76.41 170.667-170.667zM896 64c0-212.077-171.923-384-384-384s-384 171.923-384 384c0 212.077 171.923 384 384 384s384-171.923 384-384z" />
<glyph unicode="&#xe949;" glyph-name="fields" d="M149.333 533.333c-58.355 0-106.667-48.311-106.667-106.667s48.311-106.667 106.667-106.667h725.333c58.355 0 106.667 48.311 106.667 106.667s-48.311 106.667-106.667 106.667zM137.802 461.838h748.396c12.557 0 21.333-22.614 21.333-35.171s-8.777-35.171-21.333-35.171h-748.396c-12.557 0-21.333 22.614-21.333 35.171s8.777 35.171 21.333 35.171zM149.333 789.333c-58.355 0-106.667-48.311-106.667-106.667s48.311-106.667 106.667-106.667h725.333c58.355 0 106.667 48.311 106.667 106.667s-48.311 106.667-106.667 106.667zM137.802 717.838h748.396c12.557 0 21.333-22.614 21.333-35.171s-8.777-35.171-21.333-35.171h-748.396c-12.557 0-21.333 22.614-21.333 35.171s8.777 35.171 21.333 35.171zM149.333 277.333c-58.355 0-106.667-48.311-106.667-106.667s48.311-106.667 106.667-106.667h725.333c58.355 0 106.667 48.311 106.667 106.667s-48.311 106.667-106.667 106.667zM137.802 205.838h748.396c12.557 0 21.333-22.614 21.333-35.171s-8.777-35.171-21.333-35.171h-748.396c-12.557 0-21.333 22.614-21.333 35.171s8.777 35.171 21.333 35.171z" />
<glyph unicode="&#xe94a;" glyph-name="check-empty-round" d="M512 931.556c-266.723 0-483.556-216.832-483.556-483.556s216.832-483.556 483.556-483.556c266.723 0 483.556 216.832 483.556 483.556s-216.832 483.556-483.556 483.556zM512 874.667c235.978 0 426.667-190.688 426.667-426.667s-190.688-426.667-426.667-426.667c-235.978 0-426.667 190.688-426.667 426.667s190.688 426.667 426.667 426.667zM234.553 442.88l60.359 60.302 221.298-221.241-60.359-53.383zM455.456 341.905l281.938 281.938 60.359-60.302-281.543-281.6z" />
<glyph unicode="&#xe94b;" glyph-name="bell" horiz-adv-x="846" d="M422.87 918.87c-52.985 0-96.348-43.363-96.348-96.348v-60.609c-113.589-40.312-196.435-146.194-196.435-273.304v-98.522c0-57.308-15.588-113.48-45.043-162.609l-67.478-112.435c-7-11.589-7.127-26.034-0.522-37.739 6.657-11.74 19.138-18.957 32.609-18.957h257.565c-0.009-0.742-0.351-1.156-0.348-1.913 0.049-63.782 52.205-116 116-116 63.824 0 115.993 52.193 116.087 116v0.089c0 0.646-0.511 1.181-0.522 1.826h257.652c13.468 0 25.952 7.207 32.609 18.957v0.089c6.601 11.701 6.477 26.062-0.522 37.652l-5.217 8.609-62.261 103.826c-29.455 49.124-45.043 105.296-45.043 162.604v98.522c0 127.111-82.845 232.993-196.435 273.304v60.609c0 52.985-43.363 96.348-96.348 96.348zM422.87 844c12.049 0 21.478-9.429 21.478-21.478v-45.478c-7.469 0.576-13.866 4.348-21.478 4.348s-14.009-3.772-21.478-4.348v45.478c0 12.049 9.429 21.478 21.478 21.478zM422.87 706.522c120.334 0 217.913-97.579 217.913-217.913v-98.522c0-70.873 19.227-140.381 55.652-201.13l33.478-55.739h-614.087l33.391 55.739c36.467 60.753 55.739 130.258 55.739 201.13v98.522c0 120.334 97.579 217.913 217.913 217.913zM381.826 58.346h81.652c0.033-0.642 0.522-1.19 0.522-1.826 0-22.827-18.304-41.13-41.13-41.13s-41.043 18.304-41.043 41.13z" />
<glyph unicode="&#xe94c;" glyph-name="smile" d="M874.027 810.027c-92.148 92.641-219.714 149.975-360.671 149.975-0.476 0-0.953-0.001-1.429-0.002h0.073c-0.402 0.001-0.879 0.002-1.355 0.002-140.957 0-268.522-57.334-360.649-149.953l-0.022-0.023c-92.641-92.148-149.975-219.714-149.975-360.671 0-0.476 0.001-0.953 0.002-1.429v0.073c0-136.747 53.248-265.344 149.973-362.027 92.148-92.641 219.714-149.975 360.671-149.975 0.476 0 0.953 0.001 1.429 0.002h-0.073c136.747 0 265.344 53.248 362.027 149.973 92.641 92.148 149.975 219.714 149.975 360.671 0 0.476-0.001 0.953-0.002 1.429v-0.073c0 136.747-53.248 265.344-149.973 362.027zM306.389 541.867c1.412 27.57 24.11 49.39 51.904 49.39s50.492-21.82 51.899-49.264l0.005-0.126c0-28.587-23.296-51.925-51.883-51.925s-51.925 23.296-51.925 51.925zM690.389 304.384c-36.411-61.914-102.646-102.85-178.453-102.997h-0.021c-75.949 0.149-142.274 41.215-178.117 102.322l-0.528 0.974c-2.67 4.396-4.251 9.71-4.251 15.393 0 16.566 13.429 29.995 29.995 29.995 11.221 0 21.002-6.161 26.146-15.285l0.078-0.15c25.796-44.056 72.87-73.192 126.753-73.259h0.010c53.753 0.125 100.698 29.152 126.133 72.359l0.374 0.686c5.287 9.027 14.939 14.993 25.984 14.993 16.575 0 30.012-13.437 30.012-30.012 0-5.53-1.496-10.711-4.105-15.16l0.077 0.141zM665.429 489.984c-28.629 0-51.925 23.253-51.925 51.883 1.412 27.57 24.11 49.39 51.904 49.39s50.492-21.82 51.899-49.264l0.005-0.126c0-28.587-23.296-51.925-51.883-51.925z" />
<glyph unicode="&#xe952;" glyph-name="workflow" d="M874.667 917.333c-73.302-0.095-134.223-54.874-146.781-127.059l-0.136-0.941h-258.417c-46.623 0-85.333-38.71-85.333-85.333v-213.333h-128c0 47.128-38.205 85.333-85.333 85.333v0h-85.333c-47.128 0-85.333-38.205-85.333-85.333v0-85.333c0-47.128 38.205-85.333 85.333-85.333v0h85.333c47.128 0 85.333 38.205 85.333 85.333v0h128v-213.333c0-46.623 38.71-85.333 85.333-85.333h258.25c12.704-73.184 73.713-127.993 147.083-128h0.001c82.475 0 149.333 69.247 149.333 154.667v0c-0.082 77.556-55.266 141.738-127.183 152.813l-0.817 0.103v323.5c72.734 11.179 127.918 75.36 128 152.908v0.009c0 85.42-66.859 154.667-149.333 154.667v0zM469.333 704h267.25c14.49-35.787 40.53-64.087 73.191-80.431l0.892-0.402v-350.25c-33.599-16.75-59.673-45.083-73.8-79.898l-0.367-1.018h-267.167v512z" />
<glyph unicode="&#xe953;" glyph-name="kanban-2" d="M89.083 832c-47.337 0-89.083-37.178-89.083-85.333v-597.333c0-48.155 41.747-85.333 89.083-85.333h845.833c47.337 0 89.083 37.178 89.083 85.333v597.333c0 48.155-41.747 85.333-89.083 85.333zM85.333 746.667c0-1.819-0.967 0 3.75 0h845.833c4.717 0 3.75-1.819 3.75 0v-597.333c0 1.819 0.967 0-3.75 0h-845.833c-4.717 0-3.75 1.819-3.75 0zM298.667 746.667h85.333v-597.333h-85.333zM640 746.667h85.333l-1.153-597.333h-89.946z" />
<glyph unicode="&#x1f441;" glyph-name="eye" horiz-adv-x="1718" d="M858.915 960c-328.226 0-625.823-179.529-845.482-471.262-8.388-11.184-13.433-25.296-13.433-40.586s5.044-29.402 13.559-40.763l-0.127 0.177c219.66-292.037 517.256-471.566 845.482-471.566s625.924 179.529 845.583 471.262c8.388 11.184 13.433 25.296 13.433 40.586s-5.044 29.402-13.559 40.763l0.127-0.177c-219.66 292.037-517.358 471.566-845.583 471.566zM882.468 87.427c-6.966-0.478-15.098-0.751-23.293-0.751-199.697 0-361.584 161.887-361.584 361.584 0 8.196 0.273 16.327 0.809 24.387l-0.058-1.094c12.512 180.876 156.145 324.508 335.889 336.958l1.131 0.063c6.966 0.478 15.098 0.751 23.293 0.751 199.697 0 361.584-161.887 361.584-361.584 0-8.196-0.273-16.327-0.809-24.387l0.058 1.094c-13.040-180.644-156.377-323.98-335.845-336.952l-1.176-0.068zM871.652 254.016c-3.844-0.271-8.331-0.426-12.853-0.426-107.302 0-194.287 86.985-194.287 194.287 0 4.489 0.152 8.942 0.452 13.355l-0.032-0.597c6.065 97.042 84.71 175.384 181.752 181.752 3.818 0.267 8.274 0.42 12.765 0.42 107.302 0 194.287-86.985 194.287-194.287 0-4.558-0.157-9.079-0.466-13.559l0.033 0.605c-6.847-97.445-84.206-174.804-181.033-181.616l-0.619-0.035z" />
</font>
</defs>
</svg>
