
<svg width="10px" height="10px" viewBox="0 0 10 10" version="1.1" xmlns="http://www.w3.org/2000/svg" xmlns:xlink="http://www.w3.org/1999/xlink">
    <!-- Generator: Sketch 48.2 (47327) - http://www.bohemiancoding.com/sketch -->
    <desc>Created with Sketch.</desc>
    <defs></defs>
    <g id="Maquettes" stroke="none" stroke-width="1" fill="none" fill-rule="evenodd">
        <g id="Catalogue---Thumb-View---20180219" transform="translate(-1250.000000, -125.000000)" fill="#FFFFFF">
            <g id="Stacked-Group-7" transform="translate(863.000000, 110.000000)">
                <g id="Create-Product-Button" transform="translate(362.000000, 0.000000)">
                    <g id="Group" transform="translate(25.000000, 10.000000)">
                        <path d="M4,9 L4,5.5 C4,5.22385763 4.22385763,5 4.5,5 L5.5,5 C5.77614237,5 6,5.22385763 6,5.5 L6,9 L9.5,9 C9.77614237,9 10,9.22385763 10,9.5 L10,10.5 C10,10.7761424 9.77614237,11 9.5,11 L6,11 L6,14.5 C6,14.7761424 5.77614237,15 5.5,15 L4.5,15 C4.22385763,15 4,14.7761424 4,14.5 L4,11 L0.5,11 C0.223857625,11 3.38176876e-17,10.7761424 0,10.5 L0,9.5 C-3.38176876e-17,9.22385763 0.223857625,9 0.5,9 L4,9 Z" id="Combined-Shape"></path>
                    </g>
                </g>
            </g>
        </g>
    </g>
</svg>
