
<svg width="23px" height="23px" viewBox="0 0 23 23" version="1.1" xmlns="http://www.w3.org/2000/svg" xmlns:xlink="http://www.w3.org/1999/xlink">
    <!-- Generator: Sketch 48.2 (47327) - http://www.bohemiancoding.com/sketch -->
    <desc>Created with Sketch.</desc>
    <defs></defs>
    <g id="Symbols" stroke="none" stroke-width="1" fill="none" fill-rule="evenodd">
        <g id="Icons/Notification" transform="translate(-2.000000, 0.000000)" fill="#A3AFC6" fill-rule="nonzero" stroke="#A3AFC6" stroke-width="0.8">
            <path d="M20.2588421,19.1848094 L18.7429621,16.6595422 C18.044146,15.4939801 17.6744302,14.1598767 17.6744302,12.8001715 L17.6744302,10.5881225 C17.6744302,7.18317255 14.9029892,4.41173149 11.4980393,4.41173149 C8.09308932,4.41173149 5.32164826,7.18317255 5.32164826,10.5881225 L5.32164826,12.8001715 C5.32164826,14.1598767 4.95193253,15.4939801 4.25311645,16.6595422 L2.73723646,19.1848094 C2.65517851,19.3206765 2.65340004,19.4909964 2.73107384,19.628642 C2.8096162,19.7671561 2.95694,19.852771 3.11576184,19.852771 L19.8802753,19.852771 C20.0390971,19.852771 20.1864623,19.7671975 20.2649633,19.628642 C20.3426371,19.490955 20.3409,19.3206765 20.2588421,19.1848094 Z M3.89489876,18.9703999 L5.00929865,17.113053 C5.79104124,15.8107139 6.20397802,14.3195671 6.20397802,12.8001715 L6.20397802,10.5881225 C6.20397802,7.66844771 8.57836448,5.29406124 11.4980393,5.29406124 C14.417714,5.29406124 16.7921005,7.66844771 16.7921005,10.5881225 L16.7921005,12.8001715 C16.7921005,14.3195671 17.2050373,15.8107139 17.9859113,17.113053 L19.1011798,18.9703999 L3.89489876,18.9703999 Z M11.4980393,1.32351531 C12.471278,1.32351531 13.2627401,2.11497747 13.2627401,3.08821618 L13.2627401,4.85287568 C13.2627401,5.0964025 13.0650814,5.29406124 12.8215546,5.29406124 C12.5780277,5.29406124 12.380369,5.0964025 12.380369,4.85291704 L12.380369,3.08821618 C12.380369,2.60116254 11.9850929,2.20588642 11.4980393,2.20588642 C11.0109856,2.20588642 10.6157095,2.60116254 10.6157095,3.08821618 L10.6157095,4.85287568 C10.6157095,5.0964025 10.4180508,5.29406124 10.1745239,5.29406124 C9.93099713,5.29406124 9.73333839,5.0964025 9.73333839,4.85291704 L9.73333839,3.08821618 C9.73333839,2.11497747 10.5248005,1.32351531 11.4980393,1.32351531 Z M13.4074169,19.188325 C13.6024286,19.5218508 13.7056628,19.9038918 13.7056628,20.2939152 C13.7038843,21.5106394 12.7148048,22.4997603 11.4980393,22.4997603 C10.2812737,22.4997603 9.29219419,21.5106394 9.29215283,20.2939152 C9.29215283,19.9038918 9.39538703,19.5218508 9.59039874,19.188325 C9.71389926,18.9782996 9.98215927,18.9094768 10.1947903,19.0303717 C10.4048156,19.1538722 10.4753755,19.4238693 10.3527436,19.6347632 C10.2380527,19.8297749 10.1753925,20.0635822 10.1753925,20.2938738 C10.1753925,21.0235857 10.7691959,21.6173892 11.4989078,21.6173892 C12.2286197,21.6173892 12.8224231,21.0235857 12.8224231,20.2938738 C12.8224231,20.0635822 12.7597629,19.8297749 12.6450721,19.6347632 C12.5215715,19.4247792 12.5921315,19.1539136 12.8030254,19.0303717 C13.0138779,18.9095182 13.2830064,18.978341 13.4074169,19.188325 Z" id="Combined-Shape"></path>
        </g>
    </g>
</svg>
