<svg xmlns="http://www.w3.org/2000/svg" xmlns:xlink="http://www.w3.org/1999/xlink" width="20" height="20" viewBox="0 0 20 20">
    <defs>
        <path id="a" d="M.029.095v19.81H19.81V.096z"/>
    </defs>
    <g fill="none" fill-rule="evenodd">
        <mask id="b" fill="#fff">
            <use xlink:href="#a"/>
        </mask>
        <path fill="#CCC" d="M16.624 19.906H3.186A3.187 3.187 0 0 1 0 16.719V3.281A3.186 3.186 0 0 1 3.186.095h13.438a3.187 3.187 0 0 1 3.186 3.186V16.72a3.187 3.187 0 0 1-3.186 3.187z" mask="url(#b)"/>
        <path fill="#FFF" d="M8.954 15.235c-.23 0-.46-.076-.657-.22l-5.002-3.758A1.094 1.094 0 0 1 4.608 9.51l4.18 3.137 6.841-7.979a1.094 1.094 0 0 1 1.545-.117c.46.395.513 1.085.117 1.544L9.788 14.85c-.22.252-.524.386-.834.386z"/>
    </g>
</svg>
