
<svg width="14px" height="19px" viewBox="0 0 14 19" version="1.1" xmlns="http://www.w3.org/2000/svg" xmlns:xlink="http://www.w3.org/1999/xlink">
    <!-- Generator: Sketch 48.2 (47327) - http://www.bohemiancoding.com/sketch -->
    <desc>Created with Sketch.</desc>
    <defs></defs>
    <g id="Symbols" stroke="none" stroke-width="1" fill="none" fill-rule="evenodd">
        <g id="Product/Thumb-Mouse-Over" transform="translate(-208.000000, -76.000000)" fill="#FFFFFF" fill-rule="nonzero">
            <path d="M211.719157,78.5789474 L211.962686,77.6048305 C212.189987,76.6956277 213.079792,76 214.016611,76 L215.983389,76 C216.920304,76 217.809902,76.6951819 218.037314,77.6048305 L218.280843,78.5789474 L221.140351,78.5789474 C221.615122,78.5789474 222,78.9638254 222,79.4385965 C222,79.8306272 221.737581,80.1613668 221.37882,80.264739 L220.929893,92.6102438 C220.893336,93.6155645 220.058075,94.4210526 219.051182,94.4210526 L210.948818,94.4210526 C209.943389,94.4210526 209.106599,93.613752 209.070107,92.6102438 L208.62118,80.264739 C208.262419,80.1613668 208,79.8306272 208,79.4385965 C208,78.9638254 208.384878,78.5789474 208.859649,78.5789474 L211.719157,78.5789474 Z M213.491369,78.5789474 L216.508631,78.5789474 L216.369349,78.0218216 C216.333208,77.8772573 216.131074,77.7192982 215.983389,77.7192982 L214.016611,77.7192982 C213.869163,77.7192982 213.666714,77.8775675 213.630651,78.0218216 L213.491369,78.5789474 Z M210.342833,80.2982456 L210.78827,92.5477652 C210.791145,92.6268374 210.868799,92.7017544 210.948818,92.7017544 L219.051182,92.7017544 C219.132824,92.7017544 219.208794,92.6284918 219.21173,92.5477652 L219.657167,80.2982456 L210.342833,80.2982456 Z M214.385965,82.5087719 C214.385965,82.1696497 214.660878,81.8947368 215,81.8947368 C215.339122,81.8947368 215.614035,82.1696497 215.614035,82.5087719 L215.614035,90.8596491 C215.614035,91.1987713 215.339122,91.4736842 215,91.4736842 C214.660878,91.4736842 214.385965,91.1987713 214.385965,90.8596491 L214.385965,82.5087719 Z M211.561669,82.526824 C211.551699,82.1878484 211.818411,81.9049721 212.157387,81.8950023 C212.496362,81.8850324 212.779238,82.1517442 212.789208,82.4907199 L213.034822,90.8415971 C213.044792,91.1805727 212.77808,91.4634489 212.439105,91.4734188 C212.100129,91.4833887 211.817253,91.2166768 211.807283,90.8777012 L211.561669,82.526824 Z M217.210792,82.4907199 C217.220762,82.1517442 217.503638,81.8850324 217.842613,81.8950023 C218.181589,81.9049721 218.448301,82.1878484 218.438331,82.526824 L218.192717,90.8777012 C218.182747,91.2166768 217.899871,91.4833887 217.560895,91.4734188 C217.22192,91.4634489 216.955208,91.1805727 216.965178,90.8415971 L217.210792,82.4907199 Z" id="Combined-Shape"></path>
        </g>
    </g>
</svg>
