<svg xmlns="http://www.w3.org/2000/svg" xmlns:xlink="http://www.w3.org/1999/xlink" width="24" height="24" viewBox="0 0 24 24">
    <defs>
        <circle id="a" cx="12" cy="12" r="12"/>
    </defs>
    <g fill="none" fill-rule="evenodd">
        <mask id="b" fill="#fff">
            <use xlink:href="#a"/>
        </mask>
        <use fill="#E6EBF5" xlink:href="#a"/>
        <g mask="url(#b)">
            <path fill="#A3AFC6" fill-rule="nonzero" d="M16.677 8.64a.756.756 0 0 0-.535-.212h-.761v-.536a.833.833 0 0 0-.28-.63A.948.948 0 0 0 14.43 7h-.38a.948.948 0 0 0-.673.262.833.833 0 0 0-.28.63v.536h-2.283v-.536a.833.833 0 0 0-.28-.63A.948.948 0 0 0 9.861 7h-.38a.948.948 0 0 0-.673.262.833.833 0 0 0-.28.63v.536h-.76a.756.756 0 0 0-.536.212.666.666 0 0 0-.226.501v7.138c0 .193.075.36.226.502.15.141.329.212.535.212h8.375c.206 0 .385-.07.535-.212a.666.666 0 0 0 .226-.502V9.141a.666.666 0 0 0-.226-.502zM9.48 16.28H7.767v-1.607H9.48v1.606zm0-1.964H7.767v-1.784H9.48v1.784zm0-2.141H7.767v-1.606H9.48v1.606zm-.134-2.551a.166.166 0 0 1-.056-.126V7.892c0-.048.019-.09.056-.125a.189.189 0 0 1 .134-.053h.38c.052 0 .097.018.135.053a.166.166 0 0 1 .056.125v1.606c0 .049-.019.09-.056.126a.189.189 0 0 1-.134.053h-.38a.189.189 0 0 1-.135-.053zm2.418 6.655H9.861v-1.606h1.903v1.606zm0-1.963H9.861v-1.784h1.903v1.784zm0-2.141H9.861v-1.606h1.903v1.606zm2.284 4.104h-1.903v-1.606h1.903v1.606zm0-1.963h-1.903v-1.784h1.903v1.784zm0-2.141h-1.903v-1.606h1.903v1.606zm-.133-2.551a.166.166 0 0 1-.057-.126V7.892c0-.048.019-.09.057-.125a.189.189 0 0 1 .133-.053h.381a.19.19 0 0 1 .134.053.166.166 0 0 1 .056.125v1.606c0 .049-.019.09-.056.126a.189.189 0 0 1-.134.053h-.38a.189.189 0 0 1-.134-.053zm2.227 6.655h-1.713v-1.606h1.713v1.606zm0-1.963h-1.713v-1.784h1.713v1.784zm0-2.141h-1.713v-1.606h1.713v1.606z"/>
        </g>
    </g>
</svg>
