
<svg width="48px" height="45px" viewBox="0 0 48 45" version="1.1" xmlns="http://www.w3.org/2000/svg" xmlns:xlink="http://www.w3.org/1999/xlink">
    <!-- Generator: Sketch 48.2 (47327) - http://www.bohemiancoding.com/sketch -->
    <desc>Created with Sketch.</desc>
    <defs></defs>
    <g id="Maquettes" stroke="none" stroke-width="1" fill="none" fill-rule="evenodd">
        <g id="Catalogue---Thumb---Export-Selection---20180219" transform="translate(-562.000000, -504.000000)" fill="#41AFFF" fill-rule="nonzero">
            <g id="Group-21" transform="translate(420.000000, 260.000000)">
                <g id="Group-12" transform="translate(48.000000, 203.000000)">
                    <path d="M140.5,47.0020213 L121,47.0020213 L121,42.5020213 C121,42.0550213 120.802,41.6320213 120.457,41.3470213 C120.115,41.0620213 119.656,40.9390213 119.224,41.0290213 L95.224,45.5290213 C94.513,45.6610213 94,46.2790213 94,47.0020213 L94,80.0020213 C94,80.7220213 94.513,81.3430213 95.224,81.4750213 L119.224,85.9750213 C119.314,85.9930213 119.407,86.0020213 119.5,86.0020213 C119.848,86.0020213 120.187,85.8820213 120.457,85.6570213 C120.802,85.3720213 121,84.9460213 121,84.5020213 L121,80.0020213 L140.5,80.0020213 C141.328,80.0020213 142,79.3300213 142,78.5020213 L142,48.5020213 C142,47.6740213 141.328,47.0020213 140.5,47.0020213 Z M114.628,68.5150213 C115.174,69.1360213 115.111,70.0840213 114.487,70.6300213 C114.202,70.8790213 113.851,71.0020213 113.5,71.0020213 C113.083,71.0020213 112.669,70.8280213 112.372,70.4890213 L108.01,65.5060213 L104.185,70.4260213 C103.888,70.8040213 103.444,71.0020213 103,71.0020213 C102.679,71.0020213 102.355,70.9000213 102.079,70.6870213 C101.425,70.1770213 101.308,69.2350213 101.815,68.5810213 L105.997,63.2050213 L101.872,58.4890213 C101.326,57.8680213 101.389,56.9200213 102.013,56.3740213 C102.634,55.8280213 103.579,55.8880213 104.131,56.5150213 L107.875,60.7930213 L112.318,55.0810213 C112.828,54.4300213 113.77,54.3100213 114.424,54.8200213 C115.078,55.3270213 115.195,56.2690213 114.685,56.9260213 L109.885,63.0940213 L114.628,68.5150213 Z M139,77.0020213 L121,77.0020213 L121,74.0020213 L125.5,74.0020213 C126.328,74.0020213 127,73.3300213 127,72.5020213 C127,71.6740213 126.328,71.0020213 125.5,71.0020213 L121,71.0020213 L121,68.0020213 L125.5,68.0020213 C126.328,68.0020213 127,67.3300213 127,66.5020213 C127,65.6740213 126.328,65.0020213 125.5,65.0020213 L121,65.0020213 L121,62.0020213 L125.5,62.0020213 C126.328,62.0020213 127,61.3300213 127,60.5020213 C127,59.6740213 126.328,59.0020213 125.5,59.0020213 L121,59.0020213 L121,56.0020213 L125.5,56.0020213 C126.328,56.0020213 127,55.3300213 127,54.5020213 C127,53.6740213 126.328,53.0020213 125.5,53.0020213 L121,53.0020213 L121,50.0020213 L139,50.0020213 L139,77.0020213 Z" id="Shape"></path>
                </g>
            </g>
        </g>
    </g>
</svg>
