<svg xmlns="http://www.w3.org/2000/svg" width="36" height="36" viewBox="0 0 36 36">
    <g fill="none" fill-rule="evenodd">
        <circle cx="18" cy="18" r="18" fill="#E6EBF5"/>
        <g fill-rule="nonzero" transform="translate(7.714 7.714)">
            <circle cx="10.062" cy="2.46" r="2.46" fill="#5D6D8B"/>
            <path fill="#5D6D8B" d="M13.858 12.032l-.575-4.6a1.275 1.275 0 0 0-1.26-1.171h-.694a.63.63 0 0 0-.449.19l-.818.84-.819-.84a.63.63 0 0 0-.448-.19h-.693c-.654 0-1.196.503-1.26 1.154l-.576 4.618a.66.66 0 0 0 .153.512c.12.14.293.22.475.22h.685l.53 6.636c.062.666.606 1.17 1.26 1.17h1.387c.654 0 1.196-.504 1.262-1.182l.528-6.623h.683c.183 0 .355-.081.476-.221a.652.652 0 0 0 .153-.513z"/>
            <circle cx="16.77" cy="2.46" r="2.46" fill="#A3AFC6"/>
            <path fill="#A3AFC6" d="M3.801 0a2.462 2.462 0 0 0-2.46 2.46 2.462 2.462 0 0 0 2.46 2.46 2.463 2.463 0 0 0 2.46-2.46A2.463 2.463 0 0 0 3.8 0zM20.566 12.014l-.583-4.585a1.284 1.284 0 0 0-1.277-1.168h-.704a.644.644 0 0 0-.455.19l-.83.837-.83-.838a.643.643 0 0 0-.454-.19h-.704c-.08 0-.151.03-.227.044.166.295.295.616.334.975l.582 4.57c.072.557-.1 1.117-.47 1.538a1.863 1.863 0 0 1-.637.457l.426 4.219a1.285 1.285 0 0 0 1.278 1.167h1.407c.663 0 1.213-.503 1.28-1.18l.534-5.305h.693c.185 0 .36-.08.481-.22a.643.643 0 0 0 .156-.511zM5.616 13.38a1.956 1.956 0 0 1-.464-1.528l.584-4.605c.033-.345.159-.657.32-.945-.072-.013-.14-.041-.216-.041h-.704a.643.643 0 0 0-.454.19l-.83.837-.83-.838a.643.643 0 0 0-.453-.19h-.703A1.28 1.28 0 0 0 .589 7.412l-.584 4.604a.651.651 0 0 0 .637.73h.693l.537 5.318A1.284 1.284 0 0 0 3.15 19.23h1.406c.662 0 1.212-.503 1.279-1.18l.426-4.207a1.926 1.926 0 0 1-.645-.462z"/>
        </g>
    </g>
</svg>
