
<svg width="16px" height="14px" viewBox="0 0 16 14" version="1.1" xmlns="http://www.w3.org/2000/svg" xmlns:xlink="http://www.w3.org/1999/xlink">
    <!-- Generator: Sketch 48.2 (47327) - http://www.bohemiancoding.com/sketch -->
    <desc>Created with Sketch.</desc>
    <defs></defs>
    <g id="Symbols" stroke="none" stroke-width="1" fill="none" fill-rule="evenodd">
        <path d="M16,3.96074155 C16,7.9738277 9.42222222,11.655398 8,13.7142857 C6.48888889,11.8647764 0,7.83424209 0,3.96074155 C0,1.76226827 1.79555556,0 4.03555556,0 C6.15111111,0 7.78666667,1.46564885 8,2.40785169 C8.24888889,1.50054526 9.54666667,0 11.9644444,0 C14.1866667,0 16,1.77971647 16,3.96074155 Z M14.4392554,4.25915885 C14.4392554,2.62339004 13.3044191,1.41673074 11.6377525,1.41673074 C9.82441913,1.41673074 8.18666667,3.94597944 8,4.62645926 C7.84,3.91980714 5.99434994,1.41673074 4.40768327,1.41673074 C2.72768327,1.41673074 1.66266792,2.61030389 1.66266792,4.25915885 C1.66266792,7.16428426 6.86666667,10.2578972 8,11.6450291 C9.06666667,10.1008634 14.4392554,7.26897346 14.4392554,4.25915885 Z" id="Combined-Shape" fill="#F94259" fill-rule="nonzero"></path>
    </g>
</svg>
