
<svg width="16px" height="15px" viewBox="0 0 16 15" version="1.1" xmlns="http://www.w3.org/2000/svg" xmlns:xlink="http://www.w3.org/1999/xlink">
    <!-- Generator: Sketch 48.2 (47327) - http://www.bohemiancoding.com/sketch -->
    <desc>Created with Sketch.</desc>
    <defs></defs>
    <g id="Symbols" stroke="none" stroke-width="1" fill="none" fill-rule="evenodd" stroke-linecap="round" stroke-linejoin="round">
        <g id="Produt/Thumb" transform="translate(-218.000000, -20.000000)" fill-rule="nonzero" stroke="#5D6D8B" stroke-width="2">
            <g id="Indicators/Fav/off" transform="translate(218.000000, 20.000000)">
                <path d="M7.97482016,2.10353568 C8.70093263,1.44274201 9.75916912,1 10.9733333,1 C13.192712,1 15,2.81073702 15,5.03244275 C15,6.89581276 13.8325025,8.50138878 11.5663141,10.5312608 C11.1952895,10.8635953 10.002791,11.8894434 9.83284726,12.0400473 C9.29723047,12.5147101 8.97862014,12.8381395 8.82820494,13.0604254 L8.06747306,14.1846463 L7.21926808,13.1248661 C6.94901135,12.7871969 4.34733934,10.5092299 4.44063385,10.5948845 C2.53184025,8.84240165 1.40583761,7.39006324 1.08397426,5.83358916 C1.02852096,5.56542684 1,5.29819883 1,5.03244275 C1,2.79737824 2.79395467,1 5.02666667,1 C6.13033755,1 7.215038,1.45129537 7.97482016,2.10353568 Z" id="Shape"></path>
            </g>
        </g>
    </g>
</svg>
