<svg xmlns="http://www.w3.org/2000/svg" width="24" height="24" viewBox="0 0 24 24">
    <g fill="#182844" fill-rule="nonzero">
        <path d="M1.626 17.156v3.422c0 .208.192.382.434.382h3.006c.237 0 .434-.17.434-.382v-6.02l-2.183 1.921a2.822 2.822 0 0 1-1.69.677zM6.998 14.514v6.064c0 .208.192.382.434.382h3.006c.236 0 .433-.17.433-.382v-3.57a2.806 2.806 0 0 1-1.808-.676l-2.065-1.818zM12.37 16.631v3.947c0 .208.192.382.433.382h3.006c.237 0 .434-.17.434-.382v-7.282l-3.445 3.031a2.55 2.55 0 0 1-.428.304zM21.324 8.82l-3.583 3.153v8.605c0 .208.192.382.434.382h3.006c.237 0 .434-.17.434-.382V9.058c-.099-.074-.173-.139-.227-.182l-.064-.057z"/>
        <path d="M23.783 3.233c-.143-.134-.36-.204-.636-.204h-.078c-1.4.056-2.795.117-4.194.174-.188.008-.444.017-.646.195a.649.649 0 0 0-.153.2c-.207.394.084.65.222.771l.35.313c.242.217.488.433.734.646l-8.456 7.447-3.8-3.344a1.296 1.296 0 0 0-.857-.312c-.326 0-.626.113-.853.312l-5.061 4.45c-.473.417-.473 1.089 0 1.505l.227.2c.226.2.532.312.857.312.325 0 .626-.113.853-.312l3.977-3.5 3.8 3.344c.226.2.531.312.857.312.325 0 .626-.113.857-.312l9.541-8.398 1.08.946c.127.113.305.269.576.269a.79.79 0 0 0 .345-.082.941.941 0 0 0 .207-.135c.212-.186.251-.425.261-.611.04-.799.084-1.597.128-2.4l.064-1.2c.015-.252-.05-.447-.202-.586z"/>
    </g>
</svg>
