<?xml version="1.0" encoding="UTF-8" standalone="no"?>
<svg
   xmlns:dc="http://purl.org/dc/elements/1.1/"
   xmlns:cc="http://creativecommons.org/ns#"
   xmlns:rdf="http://www.w3.org/1999/02/22-rdf-syntax-ns#"
   xmlns:svg="http://www.w3.org/2000/svg"
   xmlns="http://www.w3.org/2000/svg"
   xmlns:sodipodi="http://sodipodi.sourceforge.net/DTD/sodipodi-0.dtd"
   xmlns:inkscape="http://www.inkscape.org/namespaces/inkscape"
   width="40"
   height="42"
   viewBox="0 0 40 42"
   version="1.1"
   id="svg207"
   sodipodi:docname="image.svg"
   inkscape:version="0.92.3 (2405546, 2018-03-11)">
  <metadata
     id="metadata213">
    <rdf:RDF>
      <cc:Work
         rdf:about="">
        <dc:format>image/svg+xml</dc:format>
        <dc:type
           rdf:resource="http://purl.org/dc/dcmitype/StillImage" />
      </cc:Work>
    </rdf:RDF>
  </metadata>
  <defs
     id="defs211" />
  <sodipodi:namedview
     pagecolor="#ffffff"
     bordercolor="#666666"
     borderopacity="1"
     objecttolerance="10"
     gridtolerance="10"
     guidetolerance="10"
     inkscape:pageopacity="0"
     inkscape:pageshadow="2"
     inkscape:window-width="1858"
     inkscape:window-height="1057"
     id="namedview209"
     showgrid="false"
     inkscape:zoom="14.950258"
     inkscape:cx="20.212704"
     inkscape:cy="18.688241"
     inkscape:window-x="54"
     inkscape:window-y="-8"
     inkscape:window-maximized="1"
     inkscape:current-layer="svg207" />
  <g
     fill="none"
     fill-rule="nonzero"
     transform="translate(1 1)"
     id="g205">
    <path
       style="color:#000000;font-style:normal;font-variant:normal;font-weight:normal;font-stretch:normal;font-size:medium;line-height:normal;font-family:sans-serif;font-variant-ligatures:normal;font-variant-position:normal;font-variant-caps:normal;font-variant-numeric:normal;font-variant-alternates:normal;font-feature-settings:normal;text-indent:0;text-align:start;text-decoration:none;text-decoration-line:none;text-decoration-style:solid;text-decoration-color:#000000;letter-spacing:normal;word-spacing:normal;text-transform:none;writing-mode:lr-tb;direction:ltr;text-orientation:mixed;dominant-baseline:auto;baseline-shift:baseline;text-anchor:start;white-space:normal;shape-padding:0;clip-rule:nonzero;display:inline;overflow:visible;visibility:visible;opacity:1;isolation:auto;mix-blend-mode:normal;color-interpolation:sRGB;color-interpolation-filters:linearRGB;solid-color:#000000;solid-opacity:1;vector-effect:none;fill:#e6ebf5;fill-opacity:1;fill-rule:nonzero;stroke:none;stroke-width:2;stroke-linecap:butt;stroke-linejoin:miter;stroke-miterlimit:4;stroke-dasharray:none;stroke-dashoffset:0;stroke-opacity:1;color-rendering:auto;image-rendering:auto;shape-rendering:auto;text-rendering:auto;enable-background:accumulate"
       d="M -1,-1 V 0 41 H 39 V -1 Z M 1,1 H 37 V 39 H 1 Z"
       id="path195"
       inkscape:connector-curvature="0" />
    <ellipse
       cx="9.5"
       cy="10.055"
       fill="#E6EBF5"
       rx="3.617"
       ry="3.655"
       id="ellipse197" />
    <path
       fill="#E6EBF5"
       d="M0 32h38v8H0z"
       id="path199" />
    <path
       fill="#A3AFC6"
       d="M37.208 24.889L36.417 24l-9.5-8.8-8.313 9.2 4.34 4.386L26.126 32h11.083z"
       id="path201" />
    <path
       fill="#A3AFC6"
       d="M22.945 28.786l-8.682-8.772L.792 32h25.333z"
       id="path203" />
  </g>
  <path
     style="fill:#5d6d8b;fill-opacity:1;stroke:#5d6d8b;stroke-width:0.06688848;stroke-opacity:1"
     d="M 1.9922825,17.412393 V 2.0144677 H 19.985283 37.978284 V 13.797545 25.580621 l -0.484941,-0.506686 c -0.756716,-0.790648 -9.543507,-8.889986 -9.603991,-8.852604 -0.02965,0.01832 -1.902969,2.081013 -4.162932,4.583753 l -4.109023,4.550436 -2.182958,-2.181067 -2.182958,-2.181066 -6.3787672,5.670487 c -3.5083222,3.118769 -6.491642,5.777578 -6.6295995,5.908466 l -0.2508318,0.237978 z m 9.6583085,-2.913458 c 1.455056,-0.528156 2.349469,-1.713504 2.42999,-3.220413 0.0607,-1.135934 -0.276839,-2.0173886 -1.077736,-2.8144411 -0.731322,-0.727812 -1.468657,-1.0293958 -2.520307,-1.0308525 -0.9949432,-0.00138 -1.8098743,0.3421153 -2.5371808,1.0694218 -1.4230018,1.4230015 -1.410688,3.6839268 0.027899,5.1225138 1.0010611,1.001061 2.4065878,1.335028 3.6773348,0.873771 z"
     id="path223"
     inkscape:connector-curvature="0" />
</svg>
