<svg xmlns="http://www.w3.org/2000/svg" xmlns:xlink="http://www.w3.org/1999/xlink" width="400" height="400" viewBox="0 0 400 400">
    <defs>
        <path id="a" d="M0 0h400v400H0z"/>
    </defs>
    <g fill="none" fill-rule="evenodd">
        <path fill="#F9FAFC" d="M0 0h400v400H0z"/>
        <mask id="b" fill="#fff">
            <use xlink:href="#a"/>
        </mask>
        <g mask="url(#b)" opacity=".759">
            <path fill="#2D404E" d="M176.551 97.04a.85.85 0 0 1-.78.938l-.828.081c-.486.048-.925-.295-.98-.765l-.987-8.365a.85.85 0 0 1 .78-.937l.828-.081c.486-.048.925.295.981.765l.986 8.364zM172.665 87.906l-.722.095.89 8.058.75-.081z"/>
            <path fill="#A3AFC6" d="M172.265 84.885l.11 2.854.636 8.416s.101 1.02.235 1.273c0 0-.588.727-.86.679 0 0-.184-.405-.316-2.118-.133-1.713-.565-7.516-.565-7.516s-.087-.96-.054-1.727c.034-.768-.028-2.01-.028-2.01l.842.149z"/>
            <path fill="#5D6D8B" d="M171.846 96.126c-.096-1.706-.407-7.488-.407-7.488s-.064-.956-.023-1.722c.042-.766.004-2.004.004-2.004l-1.04.074s-.577 3.096-.701 5.212c-.125 2.117.112 4.659.47 5.629.357.97.488 1.203.488 1.203s1.092 1.08 1.467 1.203c0 0-.162-.4-.258-2.107z"/>
            <path fill="#D89932" d="M173.188 96.023s.051.787.138.98c0 0 .096-.346.023-1.01l-.16.03z"/>
            <path fill="#5D6D8B" d="M170.844 85.668s-.164-1.329.238-2.477c.402-1.147 1.347-2.957 2.802-4.596l-.445-.377s-1.71 2.109-2.3 3.196c-.59 1.088-1.427 3.566-1.547 4.25l1.252.004z"/>
            <path fill="#A3AFC6" d="M170.86 84.791s-.087-1.23.254-2.307c.342-1.078 1.121-2.788 2.286-4.353l.397.416s-2.52 2.81-2.264 6.363l-.674-.119z"/>
            <path fill="#2D404E" d="M184.697 98.184a.85.85 0 0 0 .412 1.148l.75.36c.441.21.971.04 1.184-.384l3.787-7.523a.85.85 0 0 0-.412-1.148l-.75-.36c-.441-.21-.97-.038-1.184.385l-3.787 7.522zM191.251 91.185l.646.337-3.592 7.267-.677-.332z"/>
            <path fill="#A3AFC6" d="M192.52 89.282l-1.08 2.645-3.476 7.69s-.444.925-.657 1.116c0 0 .304.884.577.932 0 0 .311-.317 1.021-1.881s3.102-6.87 3.102-6.87.41-.872.64-1.605c.232-.732.715-1.878.715-1.878l-.843-.149z"/>
            <path fill="#5D6D8B" d="M194.317 89.68l-.952-.425s-.46 1.15-.682 1.884c-.223.734-.611 1.61-.611 1.61s-2.27 5.327-2.943 6.898c-.674 1.57-.964 1.892-.964 1.892.395.012 1.791-.63 1.791-.63s.202-.174.87-.963c.668-.789 1.76-3.097 2.367-5.128s1.124-5.137 1.124-5.137z"/>
            <path fill="#D89932" d="M187.492 99.077s-.317.722-.465.874c0 0 .029-.358.325-.958l.14.084z"/>
            <path fill="#5D6D8B" d="M193.367 89.76s.609-1.192.624-2.408c.015-1.216-.254-3.24-1.061-5.278l.548-.201s.885 2.566 1.067 3.79c.183 1.223.122 3.838.001 4.522l-1.179-.425z"/>
            <path fill="#A3AFC6" d="M193.452 89.072s.502-1.126.55-2.255c.047-1.13-.1-3.003-.66-4.872l-.515.255s1.407 3.502-.048 6.753l.673.12z"/>
            <path fill="#5D6D8B" d="M190.394 75.259c-2.272-1.792-5.023-2.22-5.023-2.22s-2.731-.539-5.479.368c-2.747.907-5.003 2.879-5.955 4.008l.857.866s1.027-1.248 3.158-2.508c0 0 .143-.708 1.045-1.245.902-.537 2.902-1.256 6.258-.833 3.299.75 4.932 2.11 5.596 2.923.664.813.557 1.527.557 1.527 1.57 1.913 2.11 3.437 2.11 3.437l1.1-.52c-.507-1.387-1.953-4.011-4.224-5.803z"/>
            <path fill="#2D404E" d="M189.66 77.767l-.127.056s.36.393.383.796c0 0 1.397 1.469 2.042 2.6 0 0 .196-.403-.046-.897-.24-.493-2.252-2.555-2.252-2.555zM184.937 74c-2.965-.392-4.78.08-5.671.49 0 0 .32.392.808.601.486.21 1.244.297 1.672.35.429.052 2.855.464 2.855.464s2.421.442 2.842.54c.42.097 1.162.274 1.691.244.53-.03.965-.289.965-.289-.697-.69-2.242-1.754-5.162-2.4zM192.765 95.208l.396.225s.413-.59.94-.292c.529.3.472.767.076 1.485-.582 1.053-.896.993-1.028.918l-.73 1.323-.446-.27.718-1.3s-.462-.1.059-1.068l-.335-.189.35-.832z"/>
            <path fill="#2D404E" d="M192.413 98.831s-4.01 6.845-10.67 5.67l-.098.553s6.707 1.54 11.204-5.95l-.436-.273zM181.202 103.963c-.026.152-.234.242-.463.202l-2.125-.375c-.229-.04-.393-.196-.366-.348l.077-.436c.026-.151.234-.241.463-.201l2.125.375c.229.04.393.196.366.347l-.077.436zM178.388 75.248l.1.096s-.473.246-.632.617c0 0-1.815.903-2.808 1.745 0 0-.046-.446.35-.827.395-.38 2.99-1.63 2.99-1.63z"/>
            <path fill="#5D6D8B" d="M171.851 96.095c.092 1.732.253 2.138.253 2.138-.374-.124-1.465-1.218-1.465-1.218s-.13-.236-.485-1.22c-.355-.983-.585-3.563-.455-5.71.13-2.15.715-5.293.715-5.293l.227-.017s-.634 3.783-.586 5.624c.05 1.84.742 4.929 1.202 5.359.461.43.594.337.594.337zM189.134 99.616c-.678 1.596-.969 1.923-.969 1.923.395.011 1.794-.643 1.794-.643s.202-.178.873-.98c.67-.803 1.768-3.15 2.381-5.212.613-2.063 1.138-5.218 1.138-5.218l-.208-.094s-.697 3.773-1.373 5.486c-.675 1.712-2.382 4.378-2.962 4.624-.58.247-.674.114-.674.114zM169.841 85.668s.456-1.505.877-2.649c.422-1.144 1.623-2.965 3.195-4.584l-.223-.172s-1.842 2.085-2.472 3.165c-.63 1.08-1.507 3.552-1.626 4.236l.25.004z"/>
            <path fill="#5D6D8B" d="M194.31 90.104s.086-1.57.082-2.79c-.005-1.22-.51-3.341-1.434-5.4l.268-.086s1.018 2.59 1.24 3.82c.222 1.231.201 3.854.08 4.537l-.236-.081zM174.085 77.543l-.118-.098c.881-.867 2.99-2.36 5.606-2.996 0 0-3.07.866-5.488 3.094zM193.76 81.368l.13-.048c-.53-1.117-2.001-3.246-4.241-4.739 0 0 2.46 1.629 4.11 4.787zM171.143 84.841l-.243-.043s-.15-1.24.223-2.313c.374-1.072 1.254-2.764 2.606-4.296l.114.099s-1.933 2.135-2.54 4.229c-.425 1.345-.16 2.324-.16 2.324z"/>
            <path fill="#A3AFC6" d="M193.168 89.022l.243.043s.566-1.114.582-2.25c.015-1.136-.233-3.026-.98-4.928l-.14.054s1.086 2.667.94 4.842c-.06 1.41-.645 2.239-.645 2.239z"/>
            <path fill="#5D6D8B" d="M172.149 97.981c-.155.118-.313.205-.425.185 0 0-.21-.41-.387-2.13-.176-1.72-.757-7.55-.757-7.55s-.112-.964-.09-1.733c.023-.77-.067-2.017-.067-2.017l.259.046s.023 2.467.15 3.692.803 7.472.985 8.363c.181.89.332 1.144.332 1.144zM188.21 101.287c.105.163.224.3.336.319 0 0 .338-.313 1.092-1.87.754-1.556 3.294-6.835 3.294-6.835s.435-.868.676-1.599c.242-.73.754-1.871.754-1.871l-.26-.046s-.865 2.31-1.403 3.418-3.31 6.747-3.786 7.522c-.475.775-.703.962-.703.962z"/>
            <path fill="#253744" d="M173.871 87.839c-.544.04-.929.467-.859.952l1.246 8.627c.07.485.569.845 1.113.804l-1.5-10.383zM190.392 90.283c.498.225.713.757.482 1.189l-4.122 7.68c-.231.432-.823.6-1.32.375l4.96-9.244z"/>
            <path fill="#223440" d="M172.438 87.866l-.48.052 1.07 8.175.542-.046zM191.478 91.225l.434.214-3.803 7.316-.493-.229z"/>
            <path fill="#253744" d="M179.35 75.046c-.096-.112-.148-.193-.148-.193.915-.549 2.765-1.213 5.735-.853 2.915.678 4.425 1.934 5.098 2.763 0 0-.062.047-.167.109 0 0-1.496-1.592-5.046-2.218-3.55-.626-5.473.392-5.473.392zM193.009 98.883l-.071-.062.568-1.379s-.305-.072.107-1.098l-.214-.173.29-.875.253.204s.317-.631.654-.358c0 0-.188-.107-.492.542-.305.649-.632 1.425-.462 1.668l-.633 1.53zM178.314 104.568c-.03.173.13.345.36.385l2.125.375c.229.04.439-.066.47-.239l-2.955-.52z"/>
            <path fill="#A3AFC6" d="M179.198 102.966l.985.173-.174.985-.985-.173z"/>
            <path fill="#D89932" d="M179.139 104.802l.985.173-.174.985-.985-.174z"/>
            <path fill="#2D404E" d="M245.551 284.04a.85.85 0 0 1-.78.938l-.828.081c-.486.048-.925-.295-.98-.765l-.987-8.365a.85.85 0 0 1 .78-.937l.828-.081c.486-.048.925.295.981.765l.986 8.364zM241.665 274.906l-.722.095.89 8.058.75-.081z"/>
            <path fill="#A3AFC6" d="M241.265 271.885l.11 2.854.636 8.416s.101 1.02.235 1.273c0 0-.588.727-.86.679 0 0-.184-.405-.316-2.118-.133-1.713-.565-7.516-.565-7.516s-.087-.96-.054-1.727c.034-.768-.028-2.01-.028-2.01l.842.149z"/>
            <path fill="#5D6D8B" d="M240.846 283.126c-.096-1.706-.407-7.488-.407-7.488s-.064-.956-.023-1.722c.042-.766.004-2.004.004-2.004l-1.04.074s-.577 3.096-.701 5.212c-.125 2.117.112 4.659.47 5.629.357.97.488 1.203.488 1.203s1.092 1.08 1.467 1.203c0 0-.162-.4-.258-2.107z"/>
            <path fill="#D89932" d="M242.188 283.023s.051.787.138.98c0 0 .096-.346.023-1.01l-.16.03z"/>
            <path fill="#5D6D8B" d="M239.844 272.668s-.164-1.329.238-2.477c.402-1.147 1.347-2.957 2.802-4.596l-.445-.377s-1.71 2.109-2.3 3.196c-.59 1.088-1.427 3.566-1.547 4.25l1.252.004z"/>
            <path fill="#A3AFC6" d="M239.86 271.791s-.087-1.23.254-2.307c.342-1.078 1.121-2.788 2.286-4.353l.397.416s-2.52 2.81-2.264 6.363l-.674-.119z"/>
            <path fill="#2D404E" d="M253.697 285.184a.85.85 0 0 0 .412 1.148l.75.36c.441.21.971.04 1.184-.384l3.787-7.523a.85.85 0 0 0-.412-1.148l-.75-.36c-.441-.21-.97-.038-1.184.385l-3.787 7.522zM260.251 278.185l.646.337-3.592 7.267-.677-.332z"/>
            <path fill="#A3AFC6" d="M261.52 276.282l-1.08 2.645-3.476 7.69s-.444.925-.657 1.116c0 0 .304.884.577.932 0 0 .311-.317 1.021-1.881s3.102-6.87 3.102-6.87.41-.872.64-1.605c.232-.732.715-1.878.715-1.878l-.843-.149z"/>
            <path fill="#5D6D8B" d="M263.317 276.68l-.952-.425s-.46 1.15-.682 1.884c-.223.734-.611 1.61-.611 1.61s-2.27 5.327-2.943 6.898c-.674 1.57-.964 1.892-.964 1.892.395.012 1.791-.63 1.791-.63s.202-.174.87-.963c.668-.789 1.76-3.097 2.367-5.128s1.124-5.137 1.124-5.137z"/>
            <path fill="#D89932" d="M256.492 286.077s-.317.722-.465.874c0 0 .029-.358.325-.958l.14.084z"/>
            <path fill="#5D6D8B" d="M262.367 276.76s.609-1.192.624-2.408c.015-1.216-.254-3.24-1.061-5.278l.548-.201s.885 2.566 1.067 3.79c.183 1.223.122 3.838.001 4.522l-1.179-.425z"/>
            <path fill="#A3AFC6" d="M262.452 276.072s.502-1.126.55-2.255c.047-1.13-.1-3.003-.66-4.872l-.515.255s1.407 3.502-.048 6.753l.673.12z"/>
            <path fill="#5D6D8B" d="M259.394 262.259c-2.272-1.792-5.023-2.22-5.023-2.22s-2.731-.539-5.479.368c-2.747.907-5.003 2.879-5.955 4.008l.857.866s1.027-1.248 3.158-2.508c0 0 .143-.708 1.045-1.245.902-.537 2.902-1.256 6.258-.833 3.299.75 4.932 2.11 5.596 2.923.664.813.557 1.527.557 1.527 1.57 1.913 2.11 3.437 2.11 3.437l1.1-.52c-.507-1.387-1.953-4.011-4.224-5.803z"/>
            <path fill="#2D404E" d="M258.66 264.767l-.127.056s.36.393.383.796c0 0 1.397 1.469 2.042 2.6 0 0 .196-.403-.046-.897-.24-.493-2.252-2.555-2.252-2.555zM253.937 261c-2.965-.392-4.78.08-5.671.49 0 0 .32.392.808.601.486.21 1.244.297 1.672.35.429.052 2.855.464 2.855.464s2.421.442 2.842.54c.42.097 1.162.274 1.691.244.53-.03.965-.289.965-.289-.697-.69-2.242-1.754-5.162-2.4zM261.765 282.208l.396.225s.413-.59.94-.292c.529.3.472.767.076 1.485-.582 1.053-.896.993-1.028.918l-.73 1.323-.446-.27.718-1.3s-.462-.1.059-1.068l-.335-.189.35-.832z"/>
            <path fill="#2D404E" d="M261.413 285.831s-4.01 6.845-10.67 5.67l-.098.553s6.707 1.54 11.204-5.95l-.436-.273zM250.202 290.963c-.026.152-.234.242-.463.202l-2.125-.375c-.229-.04-.393-.196-.366-.348l.077-.436c.026-.151.234-.241.463-.201l2.125.375c.229.04.393.196.366.347l-.077.436zM247.388 262.248l.1.096s-.473.246-.632.617c0 0-1.815.903-2.808 1.745 0 0-.046-.446.35-.827.395-.38 2.99-1.63 2.99-1.63z"/>
            <path fill="#5D6D8B" d="M240.851 283.095c.092 1.732.253 2.138.253 2.138-.374-.124-1.465-1.218-1.465-1.218s-.13-.236-.485-1.22c-.355-.983-.585-3.563-.455-5.71.13-2.15.715-5.293.715-5.293l.227-.017s-.634 3.783-.586 5.624c.05 1.84.742 4.929 1.202 5.359.461.43.594.337.594.337zM258.134 286.616c-.678 1.596-.969 1.923-.969 1.923.395.011 1.794-.643 1.794-.643s.202-.178.873-.98c.67-.803 1.768-3.15 2.381-5.212.613-2.063 1.138-5.218 1.138-5.218l-.208-.094s-.697 3.773-1.373 5.486c-.675 1.712-2.382 4.378-2.962 4.624-.58.247-.674.114-.674.114zM238.841 272.668s.456-1.505.877-2.649c.422-1.144 1.623-2.965 3.195-4.584l-.223-.172s-1.842 2.085-2.472 3.165c-.63 1.08-1.507 3.552-1.626 4.236l.25.004z"/>
            <path fill="#5D6D8B" d="M263.31 277.104s.086-1.57.082-2.79c-.005-1.22-.51-3.341-1.434-5.4l.268-.086s1.018 2.59 1.24 3.82c.222 1.231.201 3.854.08 4.537l-.236-.081zM243.085 264.543l-.118-.098c.881-.867 2.99-2.36 5.606-2.996 0 0-3.07.866-5.488 3.094zM262.76 268.368l.13-.048c-.53-1.117-2.001-3.246-4.241-4.739 0 0 2.46 1.629 4.11 4.787zM240.143 271.841l-.243-.043s-.15-1.24.223-2.313c.374-1.072 1.254-2.764 2.606-4.296l.114.099s-1.933 2.135-2.54 4.229c-.425 1.345-.16 2.324-.16 2.324z"/>
            <path fill="#A3AFC6" d="M262.168 276.022l.243.043s.566-1.114.582-2.25c.015-1.136-.233-3.026-.98-4.928l-.14.054s1.086 2.667.94 4.842c-.06 1.41-.645 2.239-.645 2.239z"/>
            <path fill="#5D6D8B" d="M241.149 284.981c-.155.118-.313.205-.425.185 0 0-.21-.41-.387-2.13-.176-1.72-.757-7.55-.757-7.55s-.112-.964-.09-1.733c.023-.77-.067-2.017-.067-2.017l.259.046s.023 2.467.15 3.692.803 7.472.985 8.363c.181.89.332 1.144.332 1.144zM257.21 288.287c.105.163.224.3.336.319 0 0 .338-.313 1.092-1.87.754-1.556 3.294-6.835 3.294-6.835s.435-.868.676-1.599c.242-.73.754-1.871.754-1.871l-.26-.046s-.865 2.31-1.403 3.418-3.31 6.747-3.786 7.522c-.475.775-.703.962-.703.962z"/>
            <path fill="#253744" d="M242.871 274.839c-.544.04-.929.467-.859.952l1.246 8.627c.07.485.569.845 1.113.804l-1.5-10.383zM259.392 277.283c.498.225.713.757.482 1.189l-4.122 7.68c-.231.432-.823.6-1.32.375l4.96-9.244z"/>
            <path fill="#223440" d="M241.438 274.866l-.48.052 1.07 8.175.542-.046zM260.478 278.225l.434.214-3.803 7.316-.493-.229z"/>
            <path fill="#253744" d="M248.35 262.046c-.096-.112-.148-.193-.148-.193.915-.549 2.765-1.213 5.735-.853 2.915.678 4.425 1.934 5.098 2.763 0 0-.062.047-.167.109 0 0-1.496-1.592-5.046-2.218-3.55-.626-5.473.392-5.473.392zM262.009 285.883l-.071-.062.568-1.379s-.305-.072.107-1.098l-.214-.173.29-.875.253.204s.317-.631.654-.358c0 0-.188-.107-.492.542-.305.649-.632 1.425-.462 1.668l-.633 1.53zM247.314 291.568c-.03.173.13.345.36.385l2.125.375c.229.04.439-.066.47-.239l-2.955-.52z"/>
            <path fill="#A3AFC6" d="M248.198 289.966l.985.173-.174.985-.985-.173z"/>
            <path fill="#D89932" d="M248.139 291.802l.985.173-.174.985-.985-.174z"/>
            <path fill="#2D404E" d="M46.551 283.04a.85.85 0 0 1-.78.938l-.828.081c-.486.048-.925-.295-.98-.765l-.987-8.365a.85.85 0 0 1 .78-.937l.828-.081c.486-.048.925.295.981.765l.986 8.364zM42.665 273.906l-.722.095.89 8.058.75-.081z"/>
            <path fill="#A3AFC6" d="M42.265 270.885l.11 2.854.636 8.416s.101 1.02.235 1.273c0 0-.588.727-.86.679 0 0-.184-.405-.316-2.118-.133-1.713-.565-7.516-.565-7.516s-.087-.96-.054-1.727c.034-.768-.028-2.01-.028-2.01l.842.149z"/>
            <path fill="#5D6D8B" d="M41.846 282.126c-.096-1.706-.407-7.488-.407-7.488s-.064-.956-.023-1.722c.042-.766.004-2.004.004-2.004l-1.04.074s-.577 3.096-.701 5.212c-.125 2.117.112 4.659.47 5.629.357.97.488 1.203.488 1.203s1.092 1.08 1.467 1.203c0 0-.162-.4-.258-2.107z"/>
            <path fill="#D89932" d="M43.188 282.023s.051.787.138.98c0 0 .096-.346.023-1.01l-.16.03z"/>
            <path fill="#5D6D8B" d="M40.844 271.668s-.164-1.329.238-2.477c.402-1.147 1.347-2.957 2.802-4.596l-.445-.377s-1.71 2.109-2.3 3.196c-.59 1.088-1.427 3.566-1.547 4.25l1.252.004z"/>
            <path fill="#A3AFC6" d="M40.86 270.791s-.087-1.23.254-2.307c.342-1.078 1.121-2.788 2.286-4.353l.397.416s-2.52 2.81-2.264 6.363l-.674-.119z"/>
            <path fill="#2D404E" d="M54.697 284.184a.85.85 0 0 0 .412 1.148l.75.36c.441.21.971.04 1.184-.384l3.787-7.523a.85.85 0 0 0-.412-1.148l-.75-.36c-.441-.21-.97-.038-1.184.385l-3.787 7.522zM61.251 277.185l.646.337-3.592 7.267-.677-.332z"/>
            <path fill="#A3AFC6" d="M62.52 275.282l-1.08 2.645-3.476 7.69s-.444.925-.657 1.116c0 0 .304.884.577.932 0 0 .311-.317 1.021-1.881s3.102-6.87 3.102-6.87.41-.872.64-1.605c.232-.732.715-1.878.715-1.878l-.843-.149z"/>
            <path fill="#5D6D8B" d="M64.317 275.68l-.952-.425s-.46 1.15-.682 1.884c-.223.734-.611 1.61-.611 1.61s-2.27 5.327-2.943 6.898c-.674 1.57-.964 1.892-.964 1.892.395.012 1.791-.63 1.791-.63s.202-.174.87-.963c.668-.789 1.76-3.097 2.367-5.128s1.124-5.137 1.124-5.137z"/>
            <path fill="#D89932" d="M57.492 285.077s-.317.722-.465.874c0 0 .029-.358.325-.958l.14.084z"/>
            <path fill="#5D6D8B" d="M63.367 275.76s.609-1.192.624-2.408c.015-1.216-.254-3.24-1.061-5.278l.548-.201s.885 2.566 1.067 3.79c.183 1.223.122 3.838.001 4.522l-1.179-.425z"/>
            <path fill="#A3AFC6" d="M63.452 275.072s.502-1.126.55-2.255c.047-1.13-.1-3.003-.66-4.872l-.515.255s1.407 3.502-.048 6.753l.673.12z"/>
            <path fill="#5D6D8B" d="M60.394 261.259c-2.272-1.792-5.023-2.22-5.023-2.22s-2.731-.539-5.479.368c-2.747.907-5.003 2.879-5.955 4.008l.857.866s1.027-1.248 3.158-2.508c0 0 .143-.708 1.045-1.245.902-.537 2.902-1.256 6.258-.833 3.299.75 4.932 2.11 5.596 2.923.664.813.557 1.527.557 1.527 1.57 1.913 2.11 3.437 2.11 3.437l1.1-.52c-.507-1.387-1.953-4.011-4.224-5.803z"/>
            <path fill="#2D404E" d="M59.66 263.767l-.127.056s.36.393.383.796c0 0 1.397 1.469 2.042 2.6 0 0 .196-.403-.046-.897-.24-.493-2.252-2.555-2.252-2.555zM54.937 260c-2.965-.392-4.78.08-5.671.49 0 0 .32.392.808.601.486.21 1.244.297 1.672.35.429.052 2.855.464 2.855.464s2.421.442 2.842.54c.42.097 1.162.274 1.691.244.53-.03.965-.289.965-.289-.697-.69-2.242-1.754-5.162-2.4zM62.765 281.208l.396.225s.413-.59.94-.292c.529.3.472.767.076 1.485-.582 1.053-.896.993-1.028.918l-.73 1.323-.446-.27.718-1.3s-.462-.1.059-1.068l-.335-.189.35-.832z"/>
            <path fill="#2D404E" d="M62.413 284.831s-4.01 6.845-10.67 5.67l-.098.553s6.707 1.54 11.204-5.95l-.436-.273zM51.202 289.963c-.026.152-.234.242-.463.202l-2.125-.375c-.229-.04-.393-.196-.366-.348l.077-.436c.026-.151.234-.241.463-.201l2.125.375c.229.04.393.196.366.347l-.077.436zM48.388 261.248l.1.096s-.473.246-.632.617c0 0-1.815.903-2.808 1.745 0 0-.046-.446.35-.827.395-.38 2.99-1.63 2.99-1.63z"/>
            <path fill="#5D6D8B" d="M41.851 282.095c.092 1.732.253 2.138.253 2.138-.374-.124-1.465-1.218-1.465-1.218s-.13-.236-.485-1.22c-.355-.983-.585-3.563-.455-5.71.13-2.15.715-5.293.715-5.293l.227-.017s-.634 3.783-.586 5.624c.05 1.84.742 4.929 1.202 5.359.461.43.594.337.594.337zM59.134 285.616c-.678 1.596-.969 1.923-.969 1.923.395.011 1.794-.643 1.794-.643s.202-.178.873-.98c.67-.803 1.768-3.15 2.381-5.212.613-2.063 1.138-5.218 1.138-5.218l-.208-.094s-.697 3.773-1.373 5.486c-.675 1.712-2.382 4.378-2.962 4.624-.58.247-.674.114-.674.114zM39.841 271.668s.456-1.505.877-2.649c.422-1.144 1.623-2.965 3.195-4.584l-.223-.172s-1.842 2.085-2.472 3.165c-.63 1.08-1.507 3.552-1.626 4.236l.25.004z"/>
            <path fill="#5D6D8B" d="M64.31 276.104s.086-1.57.082-2.79c-.005-1.22-.51-3.341-1.434-5.4l.268-.086s1.018 2.59 1.24 3.82c.222 1.231.201 3.854.08 4.537l-.236-.081zM44.085 263.543l-.118-.098c.881-.867 2.99-2.36 5.606-2.996 0 0-3.07.866-5.488 3.094zM63.76 267.368l.13-.048c-.53-1.117-2.001-3.246-4.241-4.739 0 0 2.46 1.629 4.11 4.787zM41.143 270.841l-.243-.043s-.15-1.24.223-2.313c.374-1.072 1.254-2.764 2.606-4.296l.114.099s-1.933 2.135-2.54 4.229c-.425 1.345-.16 2.324-.16 2.324z"/>
            <path fill="#A3AFC6" d="M63.168 275.022l.243.043s.566-1.114.582-2.25c.015-1.136-.233-3.026-.98-4.928l-.14.054s1.086 2.667.94 4.842c-.06 1.41-.645 2.239-.645 2.239z"/>
            <path fill="#5D6D8B" d="M42.149 283.981c-.155.118-.313.205-.425.185 0 0-.21-.41-.387-2.13-.176-1.72-.757-7.55-.757-7.55s-.112-.964-.09-1.733c.023-.77-.067-2.017-.067-2.017l.259.046s.023 2.467.15 3.692.803 7.472.985 8.363c.181.89.332 1.144.332 1.144zM58.21 287.287c.105.163.224.3.336.319 0 0 .338-.313 1.092-1.87.754-1.556 3.294-6.835 3.294-6.835s.435-.868.676-1.599c.242-.73.754-1.871.754-1.871l-.26-.046s-.865 2.31-1.403 3.418-3.31 6.747-3.786 7.522c-.475.775-.703.962-.703.962z"/>
            <path fill="#253744" d="M43.871 273.839c-.544.04-.929.467-.859.952l1.246 8.627c.07.485.568.845 1.113.804l-1.5-10.383zM60.392 276.283c.498.225.713.757.482 1.189l-4.122 7.68c-.231.432-.823.6-1.32.375l4.96-9.244z"/>
            <path fill="#223440" d="M42.438 273.866l-.48.052 1.07 8.175.542-.046zM61.478 277.225l.434.214-3.803 7.316-.493-.229z"/>
            <path fill="#253744" d="M49.35 261.046c-.096-.112-.148-.193-.148-.193.915-.549 2.765-1.213 5.735-.853 2.915.678 4.425 1.934 5.098 2.763 0 0-.062.047-.167.109 0 0-1.496-1.592-5.046-2.218-3.55-.626-5.473.392-5.473.392zM63.009 284.883l-.071-.062.568-1.379s-.305-.072.107-1.098l-.214-.173.29-.875.253.204s.317-.631.654-.358c0 0-.188-.107-.492.542-.305.649-.632 1.425-.462 1.668l-.633 1.53zM48.314 290.568c-.03.173.13.345.36.385l2.125.375c.229.04.439-.066.47-.239l-2.955-.52z"/>
            <path fill="#A3AFC6" d="M49.198 288.966l.985.173-.174.985-.985-.173z"/>
            <path fill="#D89932" d="M49.139 290.802l.985.173-.174.985-.985-.174z"/>
            <path fill="#2D404E" d="M384.803 95.702a.85.85 0 0 1-.78.938l-.829.08c-.486.048-.925-.294-.98-.764l-.987-8.365a.85.85 0 0 1 .78-.938l.829-.08c.486-.048.925.294.98.764l.987 8.365zM380.916 86.567l-.722.096.89 8.057.75-.08z"/>
            <path fill="#A3AFC6" d="M380.516 83.546l.11 2.855.636 8.416s.102 1.02.236 1.273c0 0-.588.726-.86.678 0 0-.185-.404-.317-2.117s-.565-7.516-.565-7.516-.086-.96-.053-1.728c.033-.767-.029-2.01-.029-2.01l.842.15z"/>
            <path fill="#5D6D8B" d="M380.097 94.788c-.096-1.707-.406-7.488-.406-7.488s-.065-.957-.023-1.722c.041-.766.003-2.004.003-2.004l-1.04.074s-.577 3.096-.701 5.212c-.124 2.116.112 4.659.47 5.628.358.97.488 1.203.488 1.203s1.093 1.08 1.468 1.204c0 0-.163-.4-.259-2.107z"/>
            <path fill="#D89932" d="M381.44 94.685s.05.787.138.98c0 0 .095-.346.023-1.011l-.161.03z"/>
            <path fill="#5D6D8B" d="M379.096 84.33s-.164-1.33.237-2.477c.402-1.148 1.347-2.958 2.803-4.596l-.446-.377s-1.71 2.109-2.3 3.196c-.59 1.088-1.427 3.566-1.547 4.25l1.253.003z"/>
            <path fill="#A3AFC6" d="M379.11 83.453s-.086-1.23.256-2.308c.342-1.078 1.12-2.787 2.286-4.352l.396.416s-2.52 2.81-2.264 6.363l-.673-.12z"/>
            <path fill="#2D404E" d="M392.948 96.846a.85.85 0 0 0 .412 1.148l.75.36c.441.21.971.039 1.184-.384l3.788-7.523a.85.85 0 0 0-.412-1.148l-.751-.36c-.44-.21-.97-.039-1.183.384l-3.788 7.523zM399.503 89.847l.646.337-3.593 7.267-.676-.333z"/>
            <path fill="#A3AFC6" d="M400.77 87.944l-1.079 2.644-3.476 7.692s-.444.923-.656 1.115c0 0 .304.884.576.932 0 0 .312-.317 1.022-1.881.71-1.565 3.101-6.87 3.101-6.87s.41-.873.64-1.605c.232-.732.715-1.878.715-1.878l-.842-.149z"/>
            <path fill="#5D6D8B" d="M402.568 88.342l-.952-.425s-.46 1.15-.682 1.884c-.223.734-.61 1.61-.61 1.61s-2.27 5.327-2.944 6.898c-.673 1.57-.963 1.891-.963 1.891.394.013 1.79-.629 1.79-.629s.203-.174.87-.963c.669-.789 1.76-3.097 2.367-5.128s1.124-5.138 1.124-5.138z"/>
            <path fill="#D89932" d="M395.743 97.738s-.317.723-.464.875c0 0 .028-.359.324-.959l.14.084z"/>
            <path fill="#5D6D8B" d="M401.619 88.422s.608-1.193.624-2.409c.015-1.215-.254-3.24-1.062-5.277l.548-.202s.885 2.566 1.068 3.79c.182 1.224.121 3.84 0 4.522l-1.178-.424z"/>
            <path fill="#A3AFC6" d="M401.703 87.734s.503-1.126.55-2.256c.047-1.13-.1-3.002-.66-4.872l-.514.255s1.407 3.503-.049 6.754l.673.119z"/>
            <path fill="#5D6D8B" d="M398.645 73.92c-2.271-1.791-5.022-2.22-5.022-2.22s-2.732-.538-5.48.369c-2.747.907-5.003 2.878-5.954 4.008l.856.866s1.028-1.248 3.158-2.509c0 0 .144-.708 1.046-1.244.902-.537 2.902-1.256 6.258-.834 3.298.751 4.932 2.111 5.595 2.924.665.813.557 1.527.557 1.527 1.571 1.913 2.11 3.437 2.11 3.437l1.1-.52c-.507-1.387-1.953-4.011-4.224-5.803z"/>
            <path fill="#2D404E" d="M397.912 76.429l-.127.055s.36.394.383.797c0 0 1.397 1.469 2.04 2.6 0 0 .197-.404-.044-.897s-2.252-2.555-2.252-2.555zM393.189 72.662c-2.965-.392-4.78.08-5.672.49 0 0 .321.392.808.601.487.21 1.244.297 1.673.349.428.052 2.855.465 2.855.465s2.42.442 2.841.54c.421.097 1.163.274 1.692.244.529-.03.964-.289.964-.289-.697-.69-2.241-1.754-5.161-2.4zM400.664 97.493s-4.009 6.845-10.67 5.67l-.097.552s6.707 1.54 11.203-5.949l-.436-.273zM389.454 102.625c-.027.151-.234.242-.463.201l-2.126-.374c-.229-.04-.392-.197-.366-.348l.077-.436c.027-.152.234-.242.463-.201l2.125.374c.23.04.393.196.367.348l-.077.436zM386.64 73.91l.1.095s-.473.247-.633.618c0 0-1.815.902-2.807 1.744 0 0-.047-.446.349-.826.395-.381 2.99-1.631 2.99-1.631z"/>
            <path fill="#5D6D8B" d="M380.103 94.757c.091 1.732.253 2.138.253 2.138-.375-.124-1.466-1.218-1.466-1.218s-.13-.236-.485-1.22c-.355-.983-.585-3.563-.455-5.711.13-2.149.715-5.292.715-5.292l.227-.018s-.634 3.784-.585 5.625c.049 1.84.74 4.928 1.202 5.358.46.43.594.338.594.338zM397.386 98.278c-.678 1.596-.97 1.922-.97 1.922.395.012 1.794-.643 1.794-.643s.203-.177.873-.98c.67-.803 1.769-3.148 2.381-5.212.613-2.063 1.138-5.217 1.138-5.217l-.207-.094s-.698 3.772-1.374 5.485c-.675 1.713-2.382 4.378-2.962 4.625-.58.246-.673.114-.673.114zM378.093 84.33s.455-1.505.877-2.65c.421-1.143 1.622-2.965 3.194-4.583l-.222-.172s-1.842 2.085-2.472 3.165c-.63 1.08-1.507 3.552-1.627 4.235l.25.005z"/>
            <path fill="#5D6D8B" d="M402.561 88.765s.087-1.57.082-2.79c-.004-1.219-.51-3.34-1.434-5.399l.268-.086s1.018 2.59 1.24 3.82c.223 1.23.202 3.853.08 4.536l-.236-.08zM382.336 76.205l-.117-.098c.88-.867 2.99-2.361 5.605-2.996 0 0-3.07.866-5.488 3.094zM402.01 80.03l.132-.048c-.531-1.118-2.002-3.246-4.242-4.74 0 0 2.46 1.63 4.11 4.787zM379.394 83.503l-.242-.043s-.151-1.24.223-2.313c.374-1.072 1.253-2.764 2.606-4.296l.113.099s-1.933 2.135-2.54 4.229c-.425 1.344-.16 2.324-.16 2.324z"/>
            <path fill="#A3AFC6" d="M401.42 87.684l.242.042s.567-1.114.582-2.25c.015-1.135-.232-3.025-.98-4.928l-.14.054s1.087 2.668.94 4.843c-.06 1.409-.644 2.239-.644 2.239z"/>
            <path fill="#5D6D8B" d="M380.4 96.643c-.154.117-.313.205-.425.185 0 0-.21-.41-.387-2.13-.176-1.72-.757-7.55-.757-7.55s-.112-.965-.09-1.734c.024-.769-.067-2.016-.067-2.016l.26.046s.022 2.466.15 3.691c.126 1.225.803 7.473.984 8.364.182.89.332 1.144.332 1.144zM396.461 99.948c.105.164.224.3.336.32 0 0 .338-.313 1.092-1.87.754-1.556 3.294-6.835 3.294-6.835s.435-.868.677-1.599c.241-.73.753-1.871.753-1.871l-.26-.046s-.864 2.31-1.403 3.418c-.538 1.107-3.31 6.746-3.786 7.522-.475.775-.703.961-.703.961z"/>
            <path fill="#253744" d="M382.123 86.5c-.545.041-.93.467-.86.952l1.247 8.627c.07.485.568.845 1.112.804l-1.5-10.383zM398.644 88.945c.497.224.713.756.481 1.188l-4.121 7.68c-.232.433-.823.6-1.32.376l4.96-9.244z"/>
            <path fill="#223440" d="M380.69 86.527l-.481.052 1.071 8.176.542-.046zM399.73 89.887l.433.213-3.803 7.316-.493-.228z"/>
            <path fill="#253744" d="M387.6 73.707c-.094-.111-.147-.192-.147-.192.916-.549 2.765-1.213 5.736-.853 2.914.677 4.424 1.934 5.097 2.763 0 0-.062.047-.167.109 0 0-1.496-1.592-5.046-2.218-3.55-.626-5.472.391-5.472.391zM386.565 103.23c-.03.172.13.345.36.385l2.125.375c.229.04.44-.067.47-.24l-2.955-.52z"/>
            <path fill="#A3AFC6" d="M387.45 101.627l.985.174-.174.984-.984-.173z"/>
            <path fill="#D89932" d="M387.39 103.464l.986.173-.174.985-.985-.174z"/>
            <path fill="#2D404E" d="M128.528 50.666a.68.68 0 0 1-.165.961l-.542.388a.714.714 0 0 1-.985-.138l-4.03-5.4a.68.68 0 0 1 .166-.962l.542-.388a.714.714 0 0 1 .985.138l4.03 5.4z"/>
            <path fill="#2D404E" d="M122.966 45.966l-.37.339 3.754 5.878.391-.338z"/>
            <path fill="#A3AFC6" d="M121.65 44.166l1.16 1.863 3.624 5.376s.454.642.638.76c0 0-.104.708-.3.779 0 0-.273-.2-1.012-1.294-.74-1.093-3.234-4.802-3.234-4.802s-.422-.608-.693-1.132a22.007 22.007 0 0 0-.785-1.33l.603-.22z"/>
            <path fill="#5D6D8B" d="M125.14 51.33c-.805-1.069-3.52-4.698-3.52-4.698s-.46-.594-.747-1.113-.844-1.309-.844-1.309l-.883.53s.8 2.286 1.584 3.725c.784 1.438 2.066 2.987 2.79 3.455.724.467.937.559.937.559s1.418.2 1.8.107c0 0-.312-.187-1.117-1.256z"/>
            <path fill="#D89932" d="M126.397 50.7s.407.667.559.798c0 0-.096-.345-.46-.896l-.099.097z"/>
            <path fill="#5D6D8B" d="M120.634 45.245s-.628-.963-.865-1.994c-.236-1.032-.432-2.773-.271-4.57l-.404-.126s-.115 2.252-.01 3.306c.106 1.054.633 3.27.84 3.841l.71-.457z"/>
            <path fill="#A3AFC6" d="M119.934 44.667s-.632-.861-.82-1.815c-.188-.954-.28-2.58.032-4.284l.535.116s-.934 3.264.895 5.749l-.642.234z"/>
            <path fill="#2D404E" d="M135.822 48.014a.68.68 0 0 0 .745.63l.664-.05c.39-.03.688-.361.667-.74l-.385-6.726a.68.68 0 0 0-.745-.63l-.664.05a.714.714 0 0 0-.667.74l.385 6.726z"/>
            <path fill="#2D404E" d="M136.975 40.599l.5.022.904 6.916-.517-.008z"/>
            <path fill="#A3AFC6" d="M137.264 38.579l.309 2.173.68 6.447s.065.784 0 .992c0 0 .534.475.73.404 0 0 .08-.33-.056-1.641-.137-1.313-.61-5.757-.61-5.757s-.067-.737-.197-1.314c-.13-.576-.253-1.523-.253-1.523l-.603.22v-.001z"/>
            <path fill="#5D6D8B" d="M138.902 38.372l-1.017.163s.082.963.196 1.545c.114.581.143 1.333.143 1.333s.252 4.524.323 5.86c.07 1.337-.049 1.68-.049 1.68.352-.174 1.31-1.238 1.31-1.238s.104-.207.359-1.03c.254-.824.24-2.835-.084-4.441-.323-1.606-1.18-3.872-1.18-3.872z"/>
            <path fill="#D89932" d="M137.635 47.613s.118.773.086.97c0 0-.148-.326-.224-.982l.138.012z"/>
            <path fill="#5D6D8B" d="M137.967 38.124s-.137-1.142-.62-2.084c-.481-.942-1.45-2.402-2.729-3.675l.229-.356s1.535 1.651 2.132 2.527c.597.875 1.618 2.912 1.825 3.482l-.837.106z"/>
            <path fill="#A3AFC6" d="M137.453 38.114s-.07-1.066-.538-1.918c-.47-.851-1.444-2.155-2.778-3.26l-.336.432s2.814 1.9 3.01 4.98l.642-.234z"/>
            <path fill="#5D6D8B" d="M129.69 30.128c-2.274-.214-4.378.594-4.378.594s-2.13.734-3.734 2.359-2.463 3.711-2.715 4.774l.928.197s.261-1.164 1.297-2.766c0 0-.162-.49.275-1.17.437-.68 1.583-1.9 4.112-2.946 2.611-.824 4.272-.626 5.044-.387.773.24.963.72.963.72 1.823.56 2.772 1.285 2.772 1.285l.584-.747c-.876-.653-2.875-1.698-5.148-1.913z"/>
            <path fill="#2D404E" d="M131.458 30.947l-.055.075s.34.106.487.332c0 0 1.296.382 2.045.82 0 0-.021-.298-.325-.502-.304-.205-2.152-.725-2.152-.725zM125.825 30.631c-2.253.958-3.298 2.168-3.726 2.919 0 0 .408.203.846.172.438-.03 1.008-.286 1.331-.428.324-.142 2.211-.845 2.211-.845s1.897-.674 2.237-.773c.339-.1.94-.27 1.295-.528.355-.259.537-.677.537-.677-.811-.3-2.39-.554-4.73.16zM140.49 42.173l.442-.04s.118-.564.707-.617c.59-.053.735.27.684.908-.075.936-.376 1.042-.524 1.055l-.094 1.175-.504.033.092-1.155s-.448.15-.392-.704l-.374.033-.037-.688z"/>
            <path fill="#2D404E" d="M140.87 44.544s.152 6.87-4.933 8.721l.168.461s5.272-1.59 5.182-9.153l-.416-.029zM135.683 53.937a.28.28 0 0 1-.169.358l-1.352.492a.28.28 0 0 1-.359-.166l-.151-.416a.28.28 0 0 1 .168-.358l1.352-.492a.28.28 0 0 1 .36.166l.15.416zM121.193 34.316l.09.021s-.191.3-.16.567c0 0-.747 1.127-1.039 1.944 0 0-.175-.242-.074-.594.101-.352 1.183-1.938 1.183-1.938z"/>
            <path fill="#5D6D8B" d="M125.131 51.307c.812 1.088 1.126 1.279 1.126 1.279-.382.092-1.804-.118-1.804-.118s-.213-.094-.941-.571-2.02-2.055-2.813-3.516c-.793-1.462-1.605-3.784-1.605-3.784l.192-.116s1.04 2.762 1.86 3.94c.82 1.179 2.733 2.873 3.32 2.94.588.068.665-.054.665-.054zM138.539 47.251c.077 1.355-.04 1.703-.04 1.703.351-.175 1.305-1.25 1.305-1.25s.103-.209.354-1.042c.251-.834.227-2.872-.105-4.502-.333-1.63-1.203-3.93-1.203-3.93l-.222.034s.98 2.784 1.108 4.214c.13 1.43-.247 3.958-.653 4.387-.406.43-.544.386-.544.386z"/>
            <path fill="#5D6D8B" d="M120.068 45.614s-.35-1.326-.574-2.363c-.223-1.035-.28-2.88-.045-4.703l-.195-.051s-.2 2.282-.119 3.346c.08 1.063.582 3.289.79 3.86l.143-.089zM138.638 38.043s-.585-1.241-1.08-2.179c-.494-.937-1.636-2.386-2.988-3.632l.117-.165s1.62 1.62 2.241 2.487c.623.866 1.669 2.894 1.876 3.464l-.166.025zM119.572 38.098l-.126-.035c.195-1.142.933-3.367 2.417-5.055 0 0-1.686 2.088-2.291 5.09z"/>
            <path fill="#5D6D8B" d="M135.14 32.8l.067-.099c-.884-.751-2.88-1.984-5.103-2.325 0 0 2.437.365 5.036 2.423zM120.204 44.568l-.231.085s-.693-.839-.85-1.804c-.158-.965-.154-2.626.337-4.395l.144.018s-.726 2.489-.31 4.315c.236 1.189.91 1.781.91 1.781z"/>
            <path fill="#A3AFC6" d="M137.183 38.212l.231-.084s-.008-1.088-.508-1.928c-.5-.841-1.57-2.11-3.084-3.15l-.098.107s2.156 1.44 3.011 3.105c.584 1.063.448 1.95.448 1.95z"/>
            <path fill="#5D6D8B" d="M126.22 52.572c-.056.136-.125.255-.206.284 0 0-.292-.194-1.063-1.275-.77-1.082-3.37-4.752-3.37-4.752s-.441-.602-.72-1.123c-.279-.522-.813-1.32-.813-1.32l.185-.068s.956 1.637 1.506 2.407 3.371 4.682 3.829 5.208c.457.526.652.639.652.639zM138.4 48.598c.131.069.26.115.34.085 0 0 .1-.336-.005-1.66-.104-1.324-.472-5.807-.472-5.807s-.049-.744-.17-1.323c-.123-.578-.226-1.533-.226-1.533l-.186.067s.32 1.869.394 2.812c.074.942.427 5.754.415 6.45-.013.698-.09.909-.09.909z"/>
            <path fill="#253744" d="M122.897 45.14c-.336.238-.417.682-.182.992l4.186 5.525c.235.311.699.37 1.034.134l-5.038-6.65zM136.701 40.484c.41-.034.758.253.777.643l.345 6.923c.02.389-.297.732-.707.767l-.415-8.333z"/>
            <path fill="#223440" d="M122.821 46.018l-.25.217 3.904 5.903.287-.235zM137.12 40.546l.33.005.804 7.031-.371.005z"/>
            <path fill="#253744" d="M122.418 34c-.119-.056-.193-.104-.193-.104.38-.883 1.358-2.277 3.6-3.265 2.353-.684 3.998-.245 4.857.187 0 0-.021.068-.065.168 0 0-1.793-.739-4.564.27-2.772 1.008-3.635 2.744-3.635 2.744zM141.292 44.622l-.089-.007-.072-1.135s-.3.094-.362-.747l-.26-.011-.11-.689.309.014s.016-.546.427-.528c0 0-.21.018-.209.57.002.552.037 1.195.287 1.27l.079 1.263zM133.684 54.792c.048.134.206.2.351.146l1.352-.492c.146-.053.225-.204.176-.338l-1.88.684z"/>
            <path fill="#A3AFC6" d="M133.378 53.644l.94-.342.341.94-.94.342z"/>
            <path fill="#D89932" d="M133.504 54.493l.94-.342.342.94-.94.342z"/>
            <path fill="#2D404E" d="M197.528 237.666a.68.68 0 0 1-.165.961l-.542.388a.714.714 0 0 1-.985-.138l-4.03-5.4a.68.68 0 0 1 .166-.962l.542-.388a.714.714 0 0 1 .985.138l4.03 5.4z"/>
            <path fill="#2D404E" d="M191.966 232.966l-.37.339 3.754 5.878.391-.338z"/>
            <path fill="#A3AFC6" d="M190.65 231.166l1.16 1.863 3.624 5.376s.454.642.638.76c0 0-.104.708-.3.779 0 0-.273-.2-1.012-1.294-.74-1.093-3.234-4.802-3.234-4.802s-.422-.608-.693-1.132a22.007 22.007 0 0 0-.785-1.33l.603-.22z"/>
            <path fill="#5D6D8B" d="M194.14 238.33c-.805-1.069-3.52-4.698-3.52-4.698s-.46-.594-.747-1.113-.844-1.309-.844-1.309l-.883.53s.8 2.286 1.584 3.725c.784 1.438 2.066 2.987 2.79 3.455.724.467.937.559.937.559s1.418.2 1.8.107c0 0-.312-.187-1.117-1.256z"/>
            <path fill="#D89932" d="M195.397 237.7s.407.667.559.798c0 0-.096-.345-.46-.896l-.099.097z"/>
            <path fill="#5D6D8B" d="M189.634 232.245s-.628-.963-.865-1.994c-.236-1.032-.432-2.773-.271-4.57l-.404-.126s-.115 2.252-.01 3.306c.106 1.054.633 3.27.84 3.841l.71-.457z"/>
            <path fill="#A3AFC6" d="M188.934 231.667s-.632-.861-.82-1.815c-.188-.954-.28-2.58.032-4.284l.535.116s-.934 3.264.895 5.749l-.642.234z"/>
            <path fill="#2D404E" d="M204.822 235.014a.68.68 0 0 0 .745.63l.664-.05c.39-.03.688-.361.667-.74l-.385-6.726a.68.68 0 0 0-.745-.63l-.664.05a.714.714 0 0 0-.667.74l.385 6.726z"/>
            <path fill="#2D404E" d="M205.975 227.599l.5.022.904 6.916-.517-.008z"/>
            <path fill="#A3AFC6" d="M206.264 225.579l.309 2.173.68 6.447s.065.784 0 .992c0 0 .534.475.73.404 0 0 .08-.33-.056-1.641-.137-1.313-.61-5.757-.61-5.757s-.067-.737-.197-1.314c-.13-.576-.253-1.523-.253-1.523l-.603.22v-.001z"/>
            <path fill="#5D6D8B" d="M207.902 225.372l-1.017.163s.082.963.196 1.545c.114.581.143 1.333.143 1.333s.252 4.524.323 5.86c.07 1.337-.049 1.68-.049 1.68.352-.174 1.31-1.238 1.31-1.238s.104-.207.359-1.03c.254-.824.24-2.835-.084-4.441-.323-1.606-1.18-3.872-1.18-3.872z"/>
            <path fill="#D89932" d="M206.635 234.613s.118.773.086.97c0 0-.148-.326-.224-.982l.138.012z"/>
            <path fill="#5D6D8B" d="M206.967 225.124s-.137-1.142-.62-2.084c-.481-.942-1.45-2.402-2.729-3.675l.229-.356s1.535 1.651 2.132 2.527c.597.875 1.618 2.912 1.825 3.482l-.837.106z"/>
            <path fill="#A3AFC6" d="M206.453 225.114s-.07-1.066-.538-1.918c-.47-.851-1.444-2.155-2.778-3.26l-.336.432s2.814 1.9 3.01 4.98l.642-.234z"/>
            <path fill="#5D6D8B" d="M198.69 217.128c-2.274-.214-4.378.594-4.378.594s-2.13.734-3.734 2.359-2.463 3.711-2.715 4.774l.928.197s.261-1.164 1.297-2.766c0 0-.162-.49.275-1.17.437-.68 1.583-1.9 4.112-2.946 2.611-.824 4.272-.626 5.044-.387.773.24.963.72.963.72 1.823.56 2.772 1.285 2.772 1.285l.584-.747c-.876-.653-2.875-1.698-5.148-1.913z"/>
            <path fill="#2D404E" d="M200.458 217.947l-.055.075s.34.106.487.332c0 0 1.296.382 2.045.82 0 0-.021-.298-.325-.502-.304-.205-2.152-.725-2.152-.725zM194.825 217.631c-2.253.958-3.298 2.168-3.726 2.919 0 0 .408.203.846.172.438-.03 1.008-.286 1.331-.428.324-.142 2.211-.845 2.211-.845s1.897-.674 2.237-.773c.339-.1.94-.27 1.295-.528.355-.259.537-.677.537-.677-.811-.3-2.39-.554-4.73.16zM209.49 229.173l.442-.04s.118-.564.707-.617c.59-.053.735.27.684.908-.075.936-.376 1.042-.524 1.055l-.094 1.175-.504.033.092-1.155s-.448.15-.392-.704l-.374.033-.037-.688z"/>
            <path fill="#2D404E" d="M209.87 231.544s.152 6.87-4.933 8.721l.168.461s5.272-1.59 5.182-9.153l-.416-.029zM204.683 240.937a.28.28 0 0 1-.169.358l-1.352.492a.28.28 0 0 1-.359-.166l-.151-.416a.28.28 0 0 1 .168-.358l1.352-.492a.28.28 0 0 1 .36.166l.15.416zM190.193 221.316l.09.021s-.191.3-.16.567c0 0-.747 1.127-1.039 1.944 0 0-.175-.242-.074-.594.101-.352 1.183-1.938 1.183-1.938z"/>
            <path fill="#5D6D8B" d="M194.131 238.307c.812 1.088 1.126 1.279 1.126 1.279-.382.092-1.804-.118-1.804-.118s-.213-.094-.941-.571-2.02-2.055-2.813-3.516c-.793-1.462-1.605-3.784-1.605-3.784l.192-.116s1.04 2.762 1.86 3.94c.82 1.179 2.733 2.873 3.32 2.94.588.068.665-.054.665-.054zM207.539 234.251c.077 1.355-.04 1.703-.04 1.703.351-.175 1.305-1.25 1.305-1.25s.104-.209.354-1.042c.251-.834.227-2.872-.105-4.502-.333-1.63-1.203-3.93-1.203-3.93l-.222.034s.98 2.784 1.108 4.214c.13 1.43-.247 3.958-.653 4.387-.406.43-.544.386-.544.386z"/>
            <path fill="#5D6D8B" d="M189.068 232.614s-.35-1.326-.574-2.363c-.223-1.035-.28-2.88-.045-4.703l-.195-.051s-.2 2.282-.119 3.346c.08 1.063.582 3.289.79 3.86l.143-.089zM207.638 225.043s-.585-1.241-1.08-2.179c-.494-.937-1.636-2.386-2.988-3.632l.117-.165s1.62 1.62 2.241 2.487c.623.866 1.669 2.894 1.876 3.464l-.166.025zM188.572 225.098l-.126-.035c.195-1.142.933-3.367 2.417-5.055 0 0-1.686 2.088-2.291 5.09z"/>
            <path fill="#5D6D8B" d="M204.14 219.8l.067-.099c-.884-.751-2.88-1.984-5.103-2.325 0 0 2.437.365 5.036 2.423zM189.204 231.568l-.231.085s-.693-.839-.85-1.804c-.158-.965-.154-2.626.337-4.395l.144.018s-.726 2.489-.31 4.315c.236 1.189.91 1.781.91 1.781z"/>
            <path fill="#A3AFC6" d="M206.183 225.212l.231-.084s-.008-1.088-.508-1.928c-.5-.841-1.57-2.11-3.084-3.15l-.098.107s2.156 1.44 3.011 3.105c.584 1.063.448 1.95.448 1.95z"/>
            <path fill="#5D6D8B" d="M195.22 239.572c-.056.136-.125.255-.206.284 0 0-.292-.194-1.063-1.275-.77-1.082-3.37-4.752-3.37-4.752s-.441-.602-.72-1.123a20.147 20.147 0 0 0-.813-1.32l.185-.068s.956 1.637 1.506 2.407 3.371 4.683 3.829 5.208c.457.526.652.639.652.639zM207.4 235.598c.131.069.26.115.34.085 0 0 .1-.336-.005-1.66-.104-1.324-.472-5.807-.472-5.807s-.049-.744-.17-1.323a20.147 20.147 0 0 1-.226-1.533l-.186.067s.32 1.869.394 2.812c.074.942.427 5.754.415 6.45-.013.698-.09.909-.09.909z"/>
            <path fill="#253744" d="M191.897 232.14c-.336.238-.417.682-.182.992l4.186 5.525c.235.311.699.37 1.034.134l-5.038-6.65zM205.701 227.484c.41-.034.758.253.777.643l.345 6.923c.02.389-.297.732-.707.767l-.415-8.333z"/>
            <path fill="#223440" d="M191.821 233.018l-.25.217 3.904 5.903.287-.235zM206.12 227.546l.33.005.804 7.031-.371.005z"/>
            <path fill="#253744" d="M191.418 221c-.119-.056-.193-.104-.193-.104.38-.883 1.358-2.277 3.6-3.265 2.353-.684 3.998-.245 4.857.187 0 0-.021.068-.065.168 0 0-1.793-.739-4.564.27-2.772 1.008-3.635 2.744-3.635 2.744zM210.292 231.622l-.089-.007-.072-1.135s-.3.094-.362-.747l-.26-.011-.11-.689.309.014s.016-.546.427-.528c0 0-.21.018-.209.57.002.552.037 1.195.287 1.27l.079 1.263zM202.684 241.792c.048.134.206.2.351.146l1.352-.492c.146-.053.225-.204.176-.338l-1.88.684z"/>
            <path fill="#A3AFC6" d="M202.378 240.644l.94-.342.341.94-.94.342z"/>
            <path fill="#D89932" d="M202.504 241.493l.94-.342.342.94-.94.342z"/>
            <path fill="#2D404E" d="M5.822 234.014a.68.68 0 0 0 .745.63l.664-.05c.39-.03.688-.361.667-.74l-.385-6.726a.68.68 0 0 0-.745-.63l-.664.05a.714.714 0 0 0-.667.74l.385 6.726z"/>
            <path fill="#2D404E" d="M6.975 226.599l.5.022.904 6.916-.517-.008z"/>
            <path fill="#A3AFC6" d="M7.264 224.579l.309 2.173.68 6.447s.065.784 0 .992c0 0 .534.475.73.404 0 0 .08-.33-.056-1.641-.137-1.313-.61-5.757-.61-5.757s-.067-.737-.197-1.314c-.13-.576-.253-1.523-.253-1.523l-.603.22v-.001z"/>
            <path fill="#5D6D8B" d="M8.902 224.372l-1.017.163s.082.963.196 1.545c.114.581.143 1.333.143 1.333s.252 4.524.323 5.86c.07 1.337-.049 1.68-.049 1.68.352-.174 1.31-1.238 1.31-1.238s.104-.207.359-1.03c.254-.824.24-2.835-.084-4.441-.323-1.606-1.18-3.872-1.18-3.872z"/>
            <path fill="#D89932" d="M7.635 233.613s.118.773.086.97c0 0-.148-.326-.224-.982l.138.012z"/>
            <path fill="#5D6D8B" d="M7.967 224.124s-.137-1.142-.62-2.084c-.481-.942-1.45-2.402-2.729-3.675l.229-.356s1.535 1.651 2.132 2.527c.597.875 1.618 2.912 1.825 3.482l-.837.106z"/>
            <path fill="#A3AFC6" d="M7.453 224.114s-.07-1.066-.538-1.918c-.47-.851-1.444-2.155-2.778-3.26l-.336.432s2.814 1.9 3.01 4.98l.642-.234z"/>
            <path fill="#5D6D8B" d="M-.31 216.128c-2.274-.214-4.378.594-4.378.594s-2.13.734-3.734 2.359-2.463 3.711-2.715 4.774l.928.197s.261-1.164 1.297-2.766c0 0-.162-.49.275-1.17.437-.68 1.583-1.9 4.112-2.946 2.611-.824 4.272-.626 5.044-.387.773.24.963.72.963.72 1.823.56 2.772 1.285 2.772 1.285l.584-.747c-.876-.653-2.875-1.698-5.148-1.913z"/>
            <path fill="#2D404E" d="M1.458 216.947l-.055.075s.34.106.487.332c0 0 1.296.382 2.045.82 0 0-.021-.298-.325-.502-.304-.205-2.152-.725-2.152-.725zM-4.175 216.631c-2.253.958-3.298 2.168-3.726 2.919 0 0 .408.203.846.172.438-.03 1.008-.286 1.331-.428.324-.142 2.211-.845 2.211-.845s1.897-.674 2.237-.773c.339-.1.94-.27 1.295-.528.355-.259.537-.677.537-.677-.811-.3-2.39-.554-4.73.16zM10.49 228.173l.442-.04s.118-.564.707-.617c.59-.053.735.27.684.908-.075.936-.376 1.042-.524 1.055l-.094 1.175-.504.033.092-1.155s-.448.15-.392-.704l-.374.033-.037-.688z"/>
            <path fill="#2D404E" d="M10.87 230.544s.152 6.87-4.933 8.721l.168.461s5.272-1.59 5.182-9.153l-.416-.029zM5.683 239.937a.28.28 0 0 1-.169.358l-1.352.492a.28.28 0 0 1-.359-.166l-.151-.416a.28.28 0 0 1 .168-.358l1.352-.492a.28.28 0 0 1 .36.166l.15.416z"/>
            <path fill="#5D6D8B" d="M8.539 233.251c.077 1.355-.04 1.703-.04 1.703.351-.175 1.305-1.25 1.305-1.25s.103-.209.354-1.042c.251-.834.227-2.872-.105-4.502-.333-1.63-1.203-3.93-1.203-3.93l-.222.034s.98 2.784 1.108 4.214c.13 1.43-.247 3.958-.653 4.387-.406.43-.544.386-.544.386zM8.638 224.043s-.585-1.241-1.08-2.179c-.494-.937-1.636-2.386-2.988-3.632l.117-.165s1.62 1.62 2.241 2.487c.623.866 1.669 2.894 1.876 3.464l-.166.025z"/>
            <path fill="#5D6D8B" d="M5.14 218.8l.067-.099c-.884-.751-2.88-1.984-5.103-2.325 0 0 2.437.365 5.036 2.423z"/>
            <path fill="#A3AFC6" d="M7.183 224.212l.231-.084s-.008-1.088-.508-1.928c-.5-.841-1.57-2.11-3.084-3.15l-.098.107s2.156 1.44 3.011 3.105c.584 1.063.448 1.95.448 1.95z"/>
            <path fill="#5D6D8B" d="M8.4 234.598c.131.069.26.115.34.085 0 0 .1-.336-.005-1.66-.104-1.324-.472-5.807-.472-5.807s-.049-.744-.17-1.323a20.147 20.147 0 0 1-.226-1.533l-.186.067s.32 1.869.394 2.812c.074.942.427 5.754.415 6.45-.013.698-.09.909-.09.909z"/>
            <path fill="#253744" d="M6.701 226.484c.41-.034.758.253.777.643l.345 6.923c.02.389-.297.732-.707.767l-.415-8.333z"/>
            <path fill="#223440" d="M7.12 226.546l.33.005.804 7.031-.371.005z"/>
            <path fill="#253744" d="M-7.582 220c-.119-.056-.193-.104-.193-.104.38-.883 1.358-2.277 3.6-3.265 2.353-.684 3.998-.245 4.857.187 0 0-.021.068-.065.168 0 0-1.793-.739-4.564.27C-6.72 218.264-7.582 220-7.582 220zM11.292 230.622l-.089-.007-.072-1.135s-.3.094-.362-.747l-.26-.011-.11-.689.309.014s.016-.546.427-.528c0 0-.21.018-.209.57.002.552.037 1.195.287 1.27l.079 1.263zM3.684 240.792c.048.134.206.2.351.146l1.352-.492c.146-.053.225-.204.176-.338l-1.88.684z"/>
            <path fill="#A3AFC6" d="M3.378 239.644l.94-.342.341.94-.94.342z"/>
            <path fill="#D89932" d="M3.504 240.493l.94-.342.342.94-.94.342z"/>
            <path fill="#2D404E" d="M336.78 49.327a.68.68 0 0 1-.166.962l-.541.388a.714.714 0 0 1-.986-.138l-4.029-5.4a.68.68 0 0 1 .165-.962l.542-.388a.714.714 0 0 1 .985.138l4.03 5.4z"/>
            <path fill="#2D404E" d="M331.217 44.628l-.37.338 3.755 5.879.39-.338z"/>
            <path fill="#A3AFC6" d="M329.902 42.828l1.16 1.863 3.623 5.376s.455.642.638.76c0 0-.104.707-.299.778 0 0-.273-.2-1.013-1.293-.739-1.093-3.233-4.802-3.233-4.802s-.422-.608-.694-1.133c-.27-.524-.785-1.33-.785-1.33l.603-.219z"/>
            <path fill="#5D6D8B" d="M333.391 49.992c-.805-1.07-3.52-4.698-3.52-4.698s-.46-.594-.747-1.113-.843-1.309-.843-1.309l-.884.53s.8 2.286 1.584 3.724c.785 1.438 2.066 2.988 2.79 3.455.725.468.938.56.938.56s1.417.2 1.8.106c0 0-.313-.186-1.118-1.255z"/>
            <path fill="#D89932" d="M334.649 49.361s.406.668.558.799c0 0-.096-.346-.46-.897l-.098.098z"/>
            <path fill="#5D6D8B" d="M328.886 43.907s-.63-.963-.865-1.995c-.237-1.031-.433-2.772-.272-4.569l-.404-.126s-.114 2.252-.01 3.306c.106 1.054.633 3.27.841 3.84l.71-.456z"/>
            <path fill="#A3AFC6" d="M328.185 43.328s-.632-.86-.82-1.814c-.188-.955-.28-2.58.032-4.284l.535.116s-.934 3.263.895 5.749l-.642.233z"/>
            <path fill="#2D404E" d="M344.074 46.676a.68.68 0 0 0 .744.63l.664-.05c.39-.03.689-.362.667-.74l-.385-6.727a.68.68 0 0 0-.745-.63l-.664.051a.714.714 0 0 0-.666.74l.385 6.726z"/>
            <path fill="#2D404E" d="M345.226 39.26l.501.022.903 6.917-.517-.008z"/>
            <path fill="#A3AFC6" d="M345.515 37.24l.31 2.174.68 6.446s.064.785 0 .993c0 0 .534.475.729.404 0 0 .08-.33-.056-1.642-.136-1.312-.61-5.757-.61-5.757s-.067-.737-.196-1.313c-.13-.576-.254-1.524-.254-1.524l-.603.22z"/>
            <path fill="#5D6D8B" d="M347.154 37.034l-1.017.163s.081.962.195 1.544c.114.582.143 1.333.143 1.333s.253 4.525.323 5.861c.071 1.337-.048 1.68-.048 1.68.352-.174 1.31-1.238 1.31-1.238s.104-.207.358-1.031c.255-.824.24-2.834-.083-4.44-.324-1.606-1.181-3.872-1.181-3.872z"/>
            <path fill="#D89932" d="M345.887 46.274s.118.773.086.971c0 0-.149-.326-.224-.982l.138.011z"/>
            <path fill="#5D6D8B" d="M346.218 36.786s-.137-1.142-.619-2.084c-.482-.942-1.45-2.402-2.73-3.675l.229-.356s1.535 1.65 2.132 2.526c.597.876 1.618 2.912 1.826 3.483l-.838.106z"/>
            <path fill="#A3AFC6" d="M345.705 36.775s-.07-1.065-.539-1.917c-.47-.852-1.444-2.156-2.778-3.26l-.335.432s2.813 1.9 3.01 4.979l.642-.234z"/>
            <path fill="#5D6D8B" d="M337.94 28.79c-2.272-.214-4.376.594-4.376.594s-2.131.733-3.735 2.358c-1.603 1.626-2.463 3.712-2.714 4.775l.927.197s.262-1.165 1.298-2.767c0 0-.163-.49.274-1.17.438-.68 1.583-1.898 4.113-2.946 2.61-.823 4.272-.626 5.044-.386.772.24.962.72.962.72 1.823.56 2.772 1.285 2.772 1.285l.584-.747c-.875-.653-2.875-1.699-5.148-1.913z"/>
            <path fill="#2D404E" d="M339.71 29.609l-.055.074s.339.107.486.332c0 0 1.296.383 2.045.82 0 0-.021-.297-.325-.502-.303-.204-2.152-.724-2.152-.724zM334.077 29.293c-2.253.957-3.298 2.167-3.727 2.918 0 0 .408.203.846.173.439-.03 1.008-.286 1.332-.428.323-.142 2.21-.845 2.21-.845s1.898-.675 2.237-.774c.34-.099.94-.27 1.295-.528s.537-.676.537-.676c-.81-.3-2.389-.555-4.73.16zM348.741 40.834l.442-.04s.118-.563.708-.616c.589-.053.734.27.683.907-.075.936-.376 1.042-.523 1.055l-.094 1.175-.505.034.092-1.155s-.448.149-.392-.705l-.374.034-.037-.689z"/>
            <path fill="#2D404E" d="M349.122 43.206s.151 6.87-4.933 8.72l.167.462s5.272-1.591 5.182-9.153l-.416-.029zM343.934 52.599a.28.28 0 0 1-.168.358l-1.352.492a.28.28 0 0 1-.36-.166l-.15-.416a.28.28 0 0 1 .168-.358l1.352-.492a.28.28 0 0 1 .359.166l.151.416zM329.444 32.977l.09.022s-.19.3-.16.567c0 0-.746 1.126-1.038 1.943 0 0-.176-.242-.075-.593.102-.352 1.183-1.939 1.183-1.939z"/>
            <path fill="#5D6D8B" d="M333.383 49.97c.811 1.087 1.125 1.277 1.125 1.277-.382.093-1.803-.117-1.803-.117s-.214-.094-.942-.571c-.728-.478-2.02-2.055-2.812-3.517-.793-1.461-1.606-3.783-1.606-3.783l.193-.117s1.04 2.762 1.86 3.94c.82 1.18 2.733 2.874 3.32 2.942.587.067.665-.055.665-.055zM346.79 45.913c.078 1.355-.04 1.702-.04 1.702.352-.175 1.306-1.249 1.306-1.249s.103-.21.354-1.043c.25-.833.226-2.872-.106-4.501-.332-1.63-1.202-3.93-1.202-3.93l-.222.034s.979 2.784 1.108 4.214c.129 1.43-.247 3.958-.653 4.387-.407.43-.545.386-.545.386z"/>
            <path fill="#5D6D8B" d="M328.32 44.276s-.35-1.327-.574-2.363c-.224-1.036-.28-2.88-.045-4.703l-.195-.051s-.2 2.282-.12 3.345c.08 1.064.582 3.29.79 3.86l.143-.088zM346.89 36.704s-.585-1.24-1.08-2.178c-.494-.938-1.637-2.386-2.989-3.632l.117-.165s1.62 1.62 2.242 2.487c.622.866 1.668 2.893 1.876 3.464l-.166.024zM327.823 36.76l-.126-.036c.195-1.142.933-3.366 2.417-5.055 0 0-1.686 2.088-2.29 5.09zM343.392 31.461l.066-.098c-.883-.751-2.88-1.984-5.103-2.326 0 0 2.437.366 5.037 2.424z"/>
            <path fill="#5D6D8B" d="M328.456 43.23l-.232.084s-.692-.838-.85-1.804c-.158-.965-.153-2.625.338-4.394l.143.018s-.725 2.489-.31 4.314c.236 1.19.91 1.782.91 1.782z"/>
            <path fill="#A3AFC6" d="M345.434 36.874l.232-.084s-.009-1.088-.509-1.929c-.5-.84-1.57-2.11-3.083-3.15l-.098.107s2.155 1.44 3.01 3.106c.584 1.063.448 1.95.448 1.95z"/>
            <path fill="#5D6D8B" d="M334.471 51.233c-.055.137-.125.255-.205.284 0 0-.292-.193-1.063-1.275-.771-1.081-3.371-4.752-3.371-4.752s-.441-.6-.72-1.123c-.278-.522-.813-1.32-.813-1.32l.186-.067s.956 1.637 1.505 2.407c.55.77 3.372 4.682 3.83 5.208.457.526.651.638.651.638zM346.652 47.26c.13.068.26.114.34.085 0 0 .1-.336-.005-1.66-.105-1.324-.472-5.807-.472-5.807s-.05-.744-.171-1.323c-.122-.579-.226-1.534-.226-1.534l-.185.068s.32 1.869.393 2.811c.074.943.428 5.754.415 6.451-.012.697-.089.908-.089.908z"/>
            <path fill="#253744" d="M331.149 43.802c-.336.237-.418.681-.183.992l4.186 5.525c.236.31.699.37 1.035.133l-5.038-6.65zM344.953 39.146c.41-.035.757.253.777.642l.345 6.923c.02.39-.297.733-.707.767l-.415-8.332z"/>
            <path fill="#223440" d="M331.073 44.68l-.25.217 3.903 5.902.288-.234zM345.37 39.208l.332.004.803 7.032-.37.005z"/>
            <path fill="#253744" d="M330.67 32.662a1.84 1.84 0 0 1-.194-.105c.38-.882 1.359-2.276 3.6-3.264 2.353-.684 3.998-.245 4.857.186 0 0-.02.068-.065.169 0 0-1.792-.74-4.564.27-2.772 1.008-3.634 2.744-3.634 2.744zM349.543 43.284l-.088-.007-.073-1.136s-.3.095-.362-.746l-.26-.012-.11-.688.309.014s.016-.546.427-.528c0 0-.21.018-.208.57.001.552.036 1.194.286 1.27l.08 1.263zM341.935 53.454c.049.133.206.199.352.146l1.352-.492c.145-.053.224-.205.175-.338l-1.879.684z"/>
            <path fill="#A3AFC6" d="M341.629 52.307l.94-.343.341.94-.94.342z"/>
            <path fill="#D89932" d="M341.756 53.155l.94-.342.341.94-.94.342z"/>
            <path fill="#323B4C" d="M173.612 156.092l-9.7 2.6c-1.32.353-2.101 1.736-1.74 3.081l4.645 17.336c.36 1.346 1.728 2.153 3.047 1.799l9.701-2.6c1.32-.353 2.101-1.736 1.74-3.081l-4.645-17.336c-.36-1.346-1.727-2.153-3.048-1.799z"/>
            <path fill="#323B4C" d="M173.572 156.04l-5.174 1.387 5.953 22.216 5.174-1.386c1.408-.377 2.26-1.779 1.9-3.124l-4.645-17.336c-.36-1.346-1.8-2.133-3.208-1.756z"/>
            <path fill="#A3AFC6" d="M169.203 160.136a4.005 4.005 0 0 0-2.828 4.9 4.004 4.004 0 0 0 4.899 2.828 4.004 4.004 0 0 0 2.828-4.9 4.004 4.004 0 0 0-4.899-2.828zM172.203 169.136a4.005 4.005 0 0 0-2.828 4.9 4.005 4.005 0 0 0 4.899 2.828 4.004 4.004 0 0 0 2.828-4.9 4.004 4.004 0 0 0-4.899-2.828z"/>
            <path fill="#5D6D8B" d="M172.39 168.622c-.04.01-.079.023-.118.035l2.07 7.721.119-.028c2.065-.554 3.28-2.737 2.71-4.868-.571-2.13-2.716-3.413-4.78-2.86zM170.34 159.636l-.068.02 2.07 7.724c.023-.006.046-.01.069-.017 2.092-.56 3.33-2.75 2.76-4.88-.571-2.131-2.738-3.408-4.83-2.847z"/>
            <path fill="#12254C" d="M171.627 164.949c-.534.143-1.102-.25-1.27-.876l-.169-.629c-.168-.626.129-1.25.662-1.393.534-.143 1.102.25 1.27.876l.169.629c.168.626-.129 1.25-.662 1.393zM173.627 174.949c-.534.143-1.102-.25-1.27-.876l-.169-.629c-.168-.626.129-1.25.662-1.393.534-.143 1.102.25 1.27.876l.169.628c.168.627-.129 1.251-.662 1.394z"/>
            <g fill="#08172D">
                <path d="M170.866 162.34a.626.626 0 0 0-.103.038l.647 2.416a.651.651 0 0 0 .109-.018c.422-.114.651-.633.51-1.16l-.142-.528c-.141-.527-.598-.862-1.021-.749zM173.297 171.413a.651.651 0 0 0-.103.039l.647 2.416a.626.626 0 0 0 .109-.018c.423-.114.651-.633.51-1.16l-.141-.528c-.142-.527-.599-.862-1.022-.749z"/>
            </g>
            <path fill="#323B4C" d="M242.612 343.092l-9.7 2.6c-1.32.353-2.101 1.736-1.74 3.081l4.645 17.336c.36 1.346 1.728 2.153 3.047 1.799l9.701-2.6c1.32-.353 2.101-1.736 1.74-3.081l-4.645-17.336c-.36-1.346-1.727-2.153-3.048-1.799z"/>
            <path fill="#323B4C" d="M242.572 343.04l-5.174 1.387 5.953 22.216 5.174-1.386c1.408-.377 2.26-1.779 1.9-3.124l-4.645-17.336c-.36-1.346-1.8-2.133-3.208-1.756z"/>
            <path fill="#A3AFC6" d="M238.203 347.136a4.005 4.005 0 0 0-2.828 4.9 4.004 4.004 0 0 0 4.899 2.828 4.004 4.004 0 0 0 2.828-4.9 4.004 4.004 0 0 0-4.899-2.828zM241.203 356.136a4.005 4.005 0 0 0-2.828 4.9 4.005 4.005 0 0 0 4.899 2.828 4.004 4.004 0 0 0 2.828-4.9 4.004 4.004 0 0 0-4.899-2.828z"/>
            <path fill="#5D6D8B" d="M241.39 355.622c-.04.01-.079.023-.118.035l2.07 7.721.119-.028c2.065-.554 3.28-2.737 2.71-4.868-.571-2.13-2.716-3.413-4.78-2.86zM239.34 346.636l-.068.02 2.07 7.724c.023-.006.046-.01.069-.017 2.092-.56 3.33-2.75 2.76-4.88-.571-2.131-2.738-3.408-4.83-2.847z"/>
            <path fill="#12254C" d="M240.627 351.949c-.534.143-1.102-.25-1.27-.876l-.169-.629c-.168-.626.129-1.25.662-1.393.534-.143 1.102.25 1.27.876l.169.629c.168.626-.129 1.25-.662 1.393zM242.627 361.949c-.534.143-1.102-.25-1.27-.876l-.169-.629c-.168-.626.129-1.25.662-1.393.534-.143 1.102.25 1.27.876l.169.628c.168.627-.129 1.251-.662 1.394z"/>
            <g fill="#08172D">
                <path d="M239.866 349.34a.626.626 0 0 0-.103.038l.647 2.416a.651.651 0 0 0 .109-.018c.422-.114.651-.633.51-1.16l-.142-.528c-.141-.527-.598-.862-1.021-.749zM242.297 358.413a.651.651 0 0 0-.103.039l.647 2.416a.626.626 0 0 0 .109-.018c.423-.114.651-.633.51-1.16l-.141-.528c-.142-.527-.599-.862-1.022-.749z"/>
            </g>
            <path fill="#323B4C" d="M43.612 342.092l-9.7 2.6c-1.32.353-2.101 1.736-1.74 3.081l4.645 17.336c.36 1.346 1.728 2.153 3.047 1.799l9.701-2.6c1.32-.353 2.101-1.736 1.74-3.081L46.66 343.89c-.36-1.346-1.727-2.153-3.048-1.799z"/>
            <path fill="#323B4C" d="M43.572 342.04l-5.174 1.387 5.953 22.216 5.174-1.386c1.408-.377 2.26-1.779 1.9-3.124l-4.645-17.336c-.36-1.346-1.8-2.133-3.208-1.756z"/>
            <path fill="#A3AFC6" d="M39.203 346.136a4.005 4.005 0 0 0-2.828 4.9 4.004 4.004 0 0 0 4.899 2.828 4.004 4.004 0 0 0 2.828-4.9 4.004 4.004 0 0 0-4.899-2.828zM42.203 355.136a4.005 4.005 0 0 0-2.828 4.9 4.005 4.005 0 0 0 4.899 2.828 4.004 4.004 0 0 0 2.828-4.9 4.004 4.004 0 0 0-4.899-2.828z"/>
            <path fill="#5D6D8B" d="M42.39 354.622c-.04.01-.079.023-.118.035l2.07 7.721.119-.028c2.065-.554 3.28-2.737 2.71-4.868-.571-2.13-2.716-3.413-4.78-2.86zM40.34 345.636l-.068.02 2.07 7.724c.023-.006.046-.01.069-.017 2.092-.56 3.33-2.75 2.76-4.88-.571-2.131-2.738-3.408-4.83-2.847z"/>
            <path fill="#12254C" d="M41.627 350.949c-.534.143-1.102-.25-1.27-.876l-.169-.629c-.168-.626.129-1.25.662-1.393.534-.143 1.102.25 1.27.876l.169.629c.168.626-.129 1.25-.662 1.393zM43.627 360.949c-.534.143-1.102-.25-1.27-.876l-.169-.629c-.168-.626.129-1.25.662-1.393.534-.143 1.102.25 1.27.876l.169.628c.168.627-.129 1.251-.662 1.394z"/>
            <g fill="#08172D">
                <path d="M40.866 348.34a.626.626 0 0 0-.103.038l.647 2.416a.651.651 0 0 0 .109-.018c.422-.114.651-.633.51-1.16l-.142-.528c-.141-.527-.598-.862-1.021-.749zM43.297 357.413a.651.651 0 0 0-.103.039l.647 2.416a.626.626 0 0 0 .109-.018c.423-.114.651-.633.51-1.16l-.141-.528c-.142-.527-.599-.862-1.022-.749z"/>
            </g>
            <path fill="#323B4C" d="M381.864 154.754l-9.701 2.6c-1.32.353-2.1 1.735-1.74 3.08l4.645 17.337c.36 1.345 1.728 2.152 3.048 1.798l9.7-2.599c1.32-.354 2.101-1.736 1.74-3.082l-4.644-17.335c-.36-1.346-1.728-2.153-3.048-1.8z"/>
            <path fill="#323B4C" d="M381.823 154.703l-5.173 1.386 5.953 22.216 5.173-1.386c1.408-.378 2.26-1.78 1.9-3.125l-4.645-17.336c-.36-1.345-1.8-2.133-3.208-1.755z"/>
            <path fill="#A3AFC6" d="M377.455 158.798a4.005 4.005 0 0 0-2.829 4.899 4.004 4.004 0 0 0 4.9 2.828 4.004 4.004 0 0 0 2.828-4.899 4.004 4.004 0 0 0-4.9-2.828zM380.455 167.798a4.005 4.005 0 0 0-2.829 4.899 4.005 4.005 0 0 0 4.9 2.828 4.004 4.004 0 0 0 2.828-4.899 4.004 4.004 0 0 0-4.9-2.828z"/>
            <path fill="#5D6D8B" d="M380.641 167.284c-.04.01-.078.023-.117.035l2.068 7.72c.04-.008.08-.017.12-.028 2.065-.553 3.28-2.737 2.71-4.867-.571-2.13-2.715-3.414-4.78-2.86zM378.591 158.297l-.068.02 2.07 7.724.069-.016c2.093-.561 3.33-2.75 2.76-4.881-.571-2.13-2.738-3.408-4.83-2.847z"/>
            <path fill="#12254C" d="M379.878 163.61c-.533.144-1.102-.249-1.27-.875l-.168-.629c-.168-.626.128-1.25.662-1.393.533-.143 1.102.249 1.27.875l.168.63c.168.626-.129 1.25-.662 1.393zM381.878 173.61c-.533.144-1.102-.249-1.27-.875l-.168-.629c-.168-.626.128-1.25.662-1.393.533-.143 1.102.249 1.27.875l.168.629c.168.627-.129 1.25-.662 1.394z"/>
            <g fill="#08172D">
                <path d="M379.117 161a.626.626 0 0 0-.103.04l.647 2.415a.651.651 0 0 0 .109-.018c.423-.113.651-.632.51-1.159l-.141-.529c-.142-.526-.599-.861-1.022-.748zM381.549 170.075a.651.651 0 0 0-.104.039l.648 2.415a.626.626 0 0 0 .108-.018c.423-.113.652-.632.51-1.159l-.141-.528c-.141-.527-.599-.862-1.021-.749z"/>
            </g>
            <path fill="#323B4C" d="M111.882 105.12l-10.55-1.86c-1.435-.253-2.817.754-3.08 2.245l-3.387 19.212c-.263 1.49.691 2.91 2.127 3.163l10.55 1.86c1.435.253 2.817-.754 3.08-2.245l3.387-19.212c.263-1.49-.69-2.91-2.127-3.163z"/>
            <path fill="#323B4C" d="M111.943 104.425l-5.274-.93-4.342 24.62 5.275.93c1.436.254 2.818-.754 3.08-2.245l3.388-19.211c.263-1.491-.691-2.91-2.127-3.164z"/>
            <path fill="#A3AFC6" d="M106.719 107.068a4.505 4.505 0 0 0-5.213 3.65 4.505 4.505 0 0 0 3.65 5.214 4.505 4.505 0 0 0 5.213-3.65 4.505 4.505 0 0 0-3.65-5.214zM104.719 117.068a4.505 4.505 0 0 0-5.213 3.65 4.505 4.505 0 0 0 3.65 5.214 4.505 4.505 0 0 0 5.213-3.65 4.505 4.505 0 0 0-3.65-5.214z"/>
            <path fill="#5D6D8B" d="M105.37 116.742c-.04-.007-.081-.012-.122-.017l-1.561 8.856c.04.008.08.018.12.025 2.106.37 4.169-1.315 4.6-3.759.43-2.443-.931-4.733-3.037-5.105zM107.319 106.733l-.07-.01-1.563 8.86.07.014c2.134.376 4.22-1.306 4.65-3.75.432-2.443-.953-4.737-3.087-5.114z"/>
            <path fill="#12254C" d="M105.177 112.977c-.544-.096-.894-.691-.781-1.33l.113-.641c.113-.639.645-1.08 1.189-.983.543.096.893.691.78 1.33l-.113.641c-.112.639-.645 1.08-1.188.983zM104.177 122.977c-.544-.096-.894-.691-.781-1.33l.113-.641c.113-.639.645-1.08 1.189-.983.543.096.893.691.78 1.33l-.113.64c-.112.64-.645 1.08-1.188.984z"/>
            <g fill="#08172D">
                <path d="M106.718 109.09a.58.58 0 0 0-.11-.008l-.47 2.668c.034.013.07.024.106.03.431.077.864-.333.966-.915l.103-.584c.103-.582-.164-1.115-.595-1.191zM104.951 119.112a.603.603 0 0 0-.11-.008l-.47 2.668a.58.58 0 0 0 .106.031c.43.076.864-.334.966-.916l.103-.584c.103-.582-.164-1.115-.595-1.19z"/>
            </g>
            <path fill="#323B4C" d="M180.882 292.12l-10.55-1.86c-1.435-.253-2.817.754-3.08 2.245l-3.387 19.212c-.263 1.49.691 2.91 2.127 3.163l10.55 1.86c1.435.253 2.817-.754 3.08-2.245l3.387-19.212c.263-1.49-.69-2.91-2.127-3.163z"/>
            <path fill="#323B4C" d="M180.943 291.425l-5.274-.93-4.342 24.62 5.275.93c1.436.254 2.818-.754 3.08-2.245l3.388-19.211c.263-1.491-.691-2.91-2.127-3.164z"/>
            <path fill="#A3AFC6" d="M175.719 294.068a4.505 4.505 0 0 0-5.213 3.65 4.505 4.505 0 0 0 3.65 5.214 4.505 4.505 0 0 0 5.213-3.65 4.505 4.505 0 0 0-3.65-5.214zM173.719 304.068a4.505 4.505 0 0 0-5.213 3.65 4.505 4.505 0 0 0 3.65 5.214 4.505 4.505 0 0 0 5.213-3.65 4.505 4.505 0 0 0-3.65-5.214z"/>
            <path fill="#5D6D8B" d="M174.37 303.742c-.04-.007-.081-.012-.122-.017l-1.561 8.856c.04.008.08.018.12.025 2.106.37 4.169-1.315 4.6-3.759.43-2.443-.931-4.733-3.037-5.105zM176.319 293.733l-.07-.01-1.563 8.86.07.014c2.134.376 4.22-1.306 4.65-3.75.432-2.443-.953-4.737-3.087-5.114z"/>
            <path fill="#12254C" d="M174.177 299.977c-.544-.096-.894-.691-.781-1.33l.113-.641c.113-.639.645-1.08 1.189-.983.543.096.893.691.78 1.33l-.113.641c-.112.639-.645 1.08-1.188.983zM173.177 309.977c-.544-.096-.894-.691-.781-1.33l.113-.641c.113-.639.645-1.08 1.189-.983.543.096.893.691.78 1.33l-.113.64c-.112.64-.645 1.08-1.188.984z"/>
            <g fill="#08172D">
                <path d="M175.718 296.09a.58.58 0 0 0-.11-.008l-.47 2.668c.034.013.07.024.106.03.431.077.864-.333.966-.915l.103-.584c.103-.582-.164-1.115-.595-1.191zM173.951 306.112a.603.603 0 0 0-.11-.008l-.47 2.668a.58.58 0 0 0 .106.031c.43.076.864-.334.966-.916l.103-.584c.103-.582-.164-1.115-.595-1.19z"/>
            </g>
            <path fill="#323B4C" d="M320.134 103.782l-10.55-1.86c-1.435-.254-2.817.754-3.08 2.245l-3.388 19.211c-.263 1.491.691 2.91 2.127 3.164l10.55 1.86c1.435.253 2.817-.754 3.08-2.245l3.388-19.212c.263-1.491-.691-2.91-2.127-3.163z"/>
            <path fill="#323B4C" d="M320.195 103.087l-5.275-.93-4.341 24.62 5.274.93c1.436.253 2.818-.754 3.081-2.245l3.388-19.212c.262-1.49-.692-2.91-2.127-3.163z"/>
            <path fill="#A3AFC6" d="M314.97 105.73a4.505 4.505 0 0 0-5.213 3.65 4.505 4.505 0 0 0 3.65 5.213 4.505 4.505 0 0 0 5.213-3.65 4.505 4.505 0 0 0-3.65-5.213zM312.97 115.73a4.505 4.505 0 0 0-5.213 3.65 4.505 4.505 0 0 0 3.65 5.213 4.505 4.505 0 0 0 5.213-3.65 4.505 4.505 0 0 0-3.65-5.213z"/>
            <path fill="#5D6D8B" d="M313.621 115.404c-.04-.007-.08-.012-.121-.018l-1.562 8.856c.04.009.08.018.12.025 2.106.372 4.17-1.314 4.6-3.758.431-2.444-.931-4.734-3.037-5.105zM315.57 105.395l-.07-.01-1.562 8.86c.023.004.046.01.07.013 2.133.377 4.22-1.305 4.65-3.749.431-2.444-.954-4.738-3.088-5.114z"/>
            <path fill="#12254C" d="M313.428 111.639c-.544-.096-.893-.692-.78-1.33l.112-.642c.113-.638.645-1.078 1.189-.983.544.096.894.692.78 1.33l-.112.642c-.113.639-.645 1.079-1.19.983zM312.428 121.639c-.544-.096-.893-.692-.78-1.33l.112-.642c.113-.638.645-1.078 1.189-.983.544.096.894.692.78 1.33l-.112.642c-.113.639-.645 1.079-1.19.983z"/>
            <g fill="#08172D">
                <path d="M314.97 107.751a.58.58 0 0 0-.11-.007l-.47 2.668c.033.013.069.024.105.03.431.076.864-.334.967-.916l.103-.584c.102-.581-.164-1.115-.595-1.19zM313.203 117.774a.603.603 0 0 0-.11-.008l-.471 2.668a.58.58 0 0 0 .106.03c.431.077.864-.333.967-.915l.103-.584c.102-.582-.164-1.115-.595-1.191z"/>
            </g>
            <path fill="#323B4C" d="M49.552 47.041l-10.55-1.86c-1.435-.253-2.817.754-3.08 2.245l-3.388 19.212c-.263 1.49.691 2.91 2.127 3.163l10.55 1.86c1.435.254 2.817-.754 3.08-2.245l3.388-19.211c.262-1.491-.692-2.91-2.127-3.164z"/>
            <path fill="#323B4C" d="M49.612 46.347l-5.274-.93-4.341 24.62 5.274.93c1.436.253 2.818-.754 3.08-2.245L51.74 49.51c.263-1.491-.69-2.91-2.127-3.163z"/>
            <path fill="#A3AFC6" d="M43.388 47.99a4.505 4.505 0 0 0-5.213 3.65 4.505 4.505 0 0 0 3.65 5.213 4.505 4.505 0 0 0 5.213-3.65 4.505 4.505 0 0 0-3.65-5.213zM41.388 58.99a4.505 4.505 0 0 0-5.213 3.65 4.505 4.505 0 0 0 3.65 5.213 4.505 4.505 0 0 0 5.213-3.65 4.505 4.505 0 0 0-3.65-5.213z"/>
            <path fill="#5D6D8B" d="M42.04 58.664c-.041-.008-.082-.013-.123-.018l-1.561 8.856c.04.009.08.018.12.025 2.106.371 4.17-1.315 4.6-3.759.43-2.443-.931-4.733-3.037-5.104zM43.988 48.655c-.023-.005-.047-.007-.07-.01l-1.562 8.859.07.014c2.133.376 4.22-1.306 4.65-3.75.43-2.443-.954-4.737-3.088-5.113z"/>
            <path fill="#12254C" d="M42.846 53.898c-.544-.096-.894-.691-.781-1.33l.113-.641c.113-.639.645-1.079 1.189-.983.543.096.893.691.78 1.33l-.112.641c-.113.64-.645 1.08-1.19.983zM40.846 64.898c-.544-.096-.894-.691-.78-1.33l.112-.641c.113-.639.645-1.079 1.189-.983.543.096.893.691.78 1.33l-.112.641c-.113.64-.645 1.08-1.19.983z"/>
            <g fill="#08172D">
                <path d="M43.388 51.01a.58.58 0 0 0-.11-.007l-.471 2.669c.034.012.07.023.106.03.431.076.864-.334.967-.916l.103-.584c.102-.582-.164-1.115-.595-1.191zM41.62 61.033a.603.603 0 0 0-.11-.008l-.47 2.669a.58.58 0 0 0 .106.03c.431.076.864-.334.966-.916l.103-.584c.103-.581-.164-1.115-.595-1.19z"/>
            </g>
            <path fill="#323B4C" d="M118.552 234.041l-10.55-1.86c-1.435-.253-2.817.754-3.08 2.245l-3.388 19.212c-.263 1.49.691 2.91 2.127 3.163l10.55 1.86c1.435.254 2.817-.754 3.08-2.245l3.388-19.211c.262-1.491-.692-2.91-2.127-3.164z"/>
            <path fill="#323B4C" d="M118.612 233.347l-5.274-.93-4.341 24.62 5.274.93c1.436.253 2.818-.754 3.08-2.245l3.388-19.212c.263-1.491-.69-2.91-2.127-3.163z"/>
            <path fill="#A3AFC6" d="M112.388 234.99a4.505 4.505 0 0 0-5.213 3.65 4.505 4.505 0 0 0 3.65 5.213 4.505 4.505 0 0 0 5.213-3.65 4.505 4.505 0 0 0-3.65-5.213zM110.388 245.99a4.505 4.505 0 0 0-5.213 3.65 4.505 4.505 0 0 0 3.65 5.213 4.505 4.505 0 0 0 5.213-3.65 4.505 4.505 0 0 0-3.65-5.213z"/>
            <path fill="#5D6D8B" d="M111.04 245.664c-.041-.008-.082-.013-.123-.018l-1.561 8.856c.04.009.08.018.12.025 2.106.371 4.17-1.315 4.6-3.759.43-2.443-.931-4.733-3.037-5.104zM112.988 235.655c-.023-.005-.047-.007-.07-.01l-1.562 8.859.07.014c2.133.376 4.22-1.306 4.65-3.75.43-2.443-.954-4.737-3.088-5.113z"/>
            <path fill="#12254C" d="M111.846 240.898c-.544-.096-.894-.691-.781-1.33l.113-.641c.113-.639.645-1.079 1.189-.983.543.096.893.691.78 1.33l-.112.641c-.113.64-.645 1.08-1.19.983zM109.846 251.898c-.544-.096-.894-.691-.78-1.33l.112-.641c.113-.639.645-1.079 1.189-.983.543.096.893.691.78 1.33l-.112.641c-.113.64-.645 1.08-1.19.983z"/>
            <g fill="#08172D">
                <path d="M112.388 238.01a.58.58 0 0 0-.11-.007l-.471 2.669c.034.012.07.023.106.03.431.076.864-.334.967-.916l.103-.584c.102-.582-.164-1.115-.595-1.191zM110.62 248.033a.603.603 0 0 0-.11-.008l-.47 2.669a.58.58 0 0 0 .106.03c.431.076.864-.334.966-.916l.103-.584c.103-.581-.164-1.115-.595-1.19z"/>
            </g>
            <path fill="#323B4C" d="M257.803 45.703l-10.55-1.86c-1.435-.253-2.817.754-3.08 2.245l-3.388 19.211c-.262 1.492.692 2.91 2.127 3.164l10.55 1.86c1.436.253 2.817-.754 3.08-2.245l3.388-19.212c.263-1.49-.691-2.91-2.127-3.163z"/>
            <path fill="#323B4C" d="M257.864 45.008l-5.275-.93-4.341 24.62 5.275.93c1.435.254 2.817-.754 3.08-2.245l3.388-19.211c.263-1.491-.691-2.91-2.127-3.164z"/>
            <path fill="#A3AFC6" d="M251.64 46.651a4.505 4.505 0 0 0-5.214 3.65 4.505 4.505 0 0 0 3.65 5.213 4.505 4.505 0 0 0 5.213-3.65 4.505 4.505 0 0 0-3.65-5.213zM249.64 57.651a4.505 4.505 0 0 0-5.214 3.65 4.505 4.505 0 0 0 3.65 5.213 4.505 4.505 0 0 0 5.213-3.65 4.505 4.505 0 0 0-3.65-5.213z"/>
            <path fill="#5D6D8B" d="M250.29 57.325c-.04-.007-.08-.012-.121-.017l-1.562 8.856.12.025c2.106.37 4.17-1.315 4.6-3.759.431-2.443-.93-4.733-3.036-5.105zM252.24 47.316l-.07-.01-1.563 8.86.07.014c2.133.376 4.22-1.306 4.65-3.75.431-2.443-.954-4.738-3.087-5.114z"/>
            <path fill="#12254C" d="M251.097 52.56c-.544-.096-.893-.691-.78-1.33l.112-.641c.113-.64.645-1.08 1.19-.983.543.096.893.691.78 1.33l-.113.641c-.113.639-.645 1.079-1.189.983zM249.097 63.56c-.544-.096-.893-.691-.78-1.33l.112-.641c.113-.64.645-1.08 1.19-.983.543.096.893.691.78 1.33l-.113.64c-.113.64-.645 1.08-1.189.984z"/>
            <g fill="#08172D">
                <path d="M251.639 49.672a.58.58 0 0 0-.11-.007l-.47 2.668c.034.013.069.024.105.03.432.076.864-.334.967-.915l.103-.584c.103-.582-.164-1.116-.595-1.192zM249.872 59.695a.603.603 0 0 0-.11-.008l-.47 2.668a.58.58 0 0 0 .105.03c.431.077.864-.333.967-.915l.103-.584c.102-.582-.164-1.115-.595-1.191z"/>
            </g>
            <path fill="#5D6D8B" d="M48.678 176.54a6.352 6.352 0 0 1-3.178 1.929 6.379 6.379 0 0 1-2.46.123l-.5-2.538 2.262-2.616 2.628.836.586 1.063.662 1.202z"/>
            <path fill="#323B4C" d="M49.24 176.011a7.872 7.872 0 0 1-3.525 2.013l-.673-1.85 3.541-1.288.657 1.125zM55.02 171.015a56.372 56.372 0 0 1-17.575 6.397c-1.868.344-3.28-.959-2.712-2.507a279.09 279.09 0 0 0 4.474-13.229c.514-1.654 2.892-2.52 4.349-1.583a274.998 274.998 0 0 0 11.93 7.259c1.43.82 1.186 2.726-.465 3.663z"/>
            <path fill="#323B4C" d="M50.082 164.768c-.06.041-.123.08-.189.118a46.858 46.858 0 0 1-14.626 5.323 2.62 2.62 0 0 1-.22.031 269.301 269.301 0 0 0 2.892-8.806c.503-1.626 2.837-2.475 4.267-1.554a270.222 270.222 0 0 0 7.876 4.888z"/>
            <path fill="#323B4C" d="M50.184 163.724a44.02 44.02 0 0 1-14.52 5.285c-1.548.268-2.742-.886-2.294-2.223a240.362 240.362 0 0 0 3.513-11.43c.4-1.43 2.366-2.145 3.592-1.307a237.507 237.507 0 0 0 10.039 6.498c1.202.736 1.029 2.387-.33 3.177z"/>
            <path fill="#323B4C" d="M45.778 157.784a41.118 41.118 0 0 1-11.277 4.104 225.81 225.81 0 0 0 2.112-5.784c.48-1.377 2.576-2.14 3.83-1.394 1.799 1.07 3.578 2.094 5.335 3.074z"/>
            <path fill="#323B4C" d="M34.857 149.856a174.377 174.377 0 0 1-3.02 8.349c-.38.977.524 1.783 1.739 1.551 4-.763 7.907-2.185 11.462-4.172 1.08-.603 1.255-1.802.334-2.306a174.586 174.586 0 0 1-7.68-4.455c-.936-.576-2.487-.011-2.835 1.033z"/>
            <g fill="#5D6D8B">
                <path d="M36.275 149.38s-1.968 10.892.805 10.265c-.976.27-1.964.496-2.957.679-1.175.216-2.062-.6-1.704-1.573a173.927 173.927 0 0 0 2.82-8.306c.15-.483.554-.86 1.036-1.065zM38.325 160.844l.124 3.797.105 3.642c-1.041.27-2.091.502-3.147.696-1.525.282-2.676-.779-2.212-2.04a232.336 232.336 0 0 0 2.111-6l3.019-.095z"/>
                <path d="M40.986 176.356h.002c-1.33.352-2.674.654-4.025.903-1.798.33-3.156-.92-2.609-2.408a259.712 259.712 0 0 0 2.156-6.089l.024-.113 3.39.58s-3.375 7.39 1.062 7.127z"/>
            </g>
            <path fill="#A3AFC6" d="M40.113 168.075a2.5 2.5 0 1 1-4.698 1.71 2.5 2.5 0 0 1 4.698-1.71zM48.113 159.075a2.5 2.5 0 1 1-4.698 1.71 2.5 2.5 0 0 1 4.698-1.71zM37.113 153.075a2.5 2.5 0 1 1-4.698 1.71 2.5 2.5 0 0 1 4.698-1.71z"/>
            <path fill="#E6EBF5" d="M38.986 170.651a2.093 2.093 0 0 1-.624.358c-1.189.433-2.536-.268-3.008-1.565-.472-1.298.11-2.7 1.298-3.133.232-.085.472-.126.708-.128-.75.62-1.052 1.732-.672 2.775s1.325 1.7 2.298 1.693zM47.986 161.651a2.096 2.096 0 0 1-.624.358c-1.189.433-2.535-.268-3.008-1.565-.472-1.298.109-2.7 1.297-3.133.234-.085.472-.127.71-.128-.751.62-1.052 1.732-.673 2.775.38 1.043 1.325 1.701 2.298 1.693zM35.986 156.651a2.105 2.105 0 0 1-.624.358c-1.189.433-2.535-.268-3.008-1.566-.472-1.297.109-2.7 1.297-3.132a2.1 2.1 0 0 1 .71-.128c-.751.62-1.053 1.732-.673 2.775.38 1.043 1.325 1.7 2.298 1.693z"/>
            <path fill="#5D6D8B" d="M117.678 362.54a6.352 6.352 0 0 1-3.178 1.929 6.379 6.379 0 0 1-2.46.123l-.5-2.538 2.262-2.616 2.628.836.586 1.063.662 1.202z"/>
            <path fill="#323B4C" d="M118.24 362.011a7.872 7.872 0 0 1-3.525 2.013l-.673-1.85 3.541-1.288.657 1.125zM124.02 357.015a56.372 56.372 0 0 1-17.575 6.397c-1.868.344-3.28-.959-2.712-2.507a279.09 279.09 0 0 0 4.474-13.229c.514-1.654 2.892-2.52 4.349-1.583a274.997 274.997 0 0 0 11.93 7.259c1.43.82 1.186 2.726-.465 3.663z"/>
            <path fill="#323B4C" d="M119.082 350.768c-.06.041-.123.08-.189.118a46.858 46.858 0 0 1-14.626 5.323 2.62 2.62 0 0 1-.22.031 269.301 269.301 0 0 0 2.892-8.806c.503-1.626 2.837-2.475 4.267-1.554a270.222 270.222 0 0 0 7.876 4.888z"/>
            <path fill="#323B4C" d="M119.184 349.724a44.02 44.02 0 0 1-14.52 5.285c-1.548.268-2.742-.886-2.294-2.223a240.367 240.367 0 0 0 3.513-11.43c.4-1.43 2.366-2.145 3.592-1.307a237.506 237.506 0 0 0 10.039 6.498c1.202.736 1.029 2.387-.33 3.177z"/>
            <path fill="#323B4C" d="M114.778 343.784a41.118 41.118 0 0 1-11.277 4.104 225.81 225.81 0 0 0 2.112-5.784c.48-1.377 2.576-2.14 3.83-1.394 1.799 1.07 3.578 2.094 5.335 3.074z"/>
            <path fill="#323B4C" d="M103.857 335.856a174.377 174.377 0 0 1-3.02 8.349c-.38.977.524 1.783 1.739 1.551 4-.763 7.907-2.185 11.462-4.172 1.08-.603 1.255-1.802.334-2.306a174.586 174.586 0 0 1-7.68-4.455c-.936-.576-2.487-.011-2.835 1.033z"/>
            <g fill="#5D6D8B">
                <path d="M105.275 335.38s-1.968 10.892.805 10.265c-.976.27-1.964.496-2.957.679-1.175.216-2.062-.6-1.704-1.573a173.927 173.927 0 0 0 2.82-8.306c.15-.483.554-.86 1.036-1.065zM107.325 346.844l.124 3.797.105 3.642c-1.041.27-2.091.502-3.147.696-1.525.282-2.676-.779-2.212-2.04a232.336 232.336 0 0 0 2.111-6l3.019-.095z"/>
                <path d="M109.986 362.356h.002c-1.33.352-2.674.654-4.025.903-1.798.33-3.156-.92-2.609-2.408a259.712 259.712 0 0 0 2.156-6.089l.024-.113 3.39.58s-3.375 7.39 1.062 7.127z"/>
            </g>
            <path fill="#A3AFC6" d="M109.113 354.075a2.5 2.5 0 1 1-4.698 1.71 2.5 2.5 0 0 1 4.698-1.71zM117.113 345.075a2.5 2.5 0 1 1-4.698 1.71 2.5 2.5 0 0 1 4.698-1.71zM106.113 339.075a2.5 2.5 0 1 1-4.698 1.71 2.5 2.5 0 0 1 4.698-1.71z"/>
            <path fill="#E6EBF5" d="M107.986 356.651a2.093 2.093 0 0 1-.624.358c-1.189.433-2.536-.268-3.008-1.565-.472-1.298.11-2.7 1.298-3.133.232-.085.472-.126.708-.128-.75.62-1.052 1.732-.672 2.775s1.325 1.7 2.298 1.693zM116.986 347.651a2.096 2.096 0 0 1-.624.358c-1.189.433-2.535-.268-3.008-1.565-.472-1.298.109-2.7 1.297-3.133.234-.085.472-.127.71-.128-.751.62-1.052 1.732-.673 2.775.38 1.043 1.325 1.701 2.298 1.693zM104.986 342.651a2.105 2.105 0 0 1-.624.358c-1.189.433-2.535-.268-3.008-1.566-.472-1.297.109-2.7 1.297-3.132a2.1 2.1 0 0 1 .71-.128c-.751.62-1.053 1.732-.673 2.775.38 1.043 1.325 1.7 2.298 1.693z"/>
            <path fill="#5D6D8B" d="M256.93 174.201a6.352 6.352 0 0 1-3.179 1.93 6.379 6.379 0 0 1-2.46.122l-.5-2.538 2.262-2.615 2.628.836.586 1.063.662 1.202z"/>
            <path fill="#323B4C" d="M257.491 173.673a7.872 7.872 0 0 1-3.524 2.013l-.673-1.85 3.54-1.288.657 1.125zM263.272 168.677a56.372 56.372 0 0 1-17.576 6.397c-1.868.344-3.279-.96-2.711-2.507a279.105 279.105 0 0 0 4.474-13.23c.513-1.654 2.891-2.52 4.348-1.582a275.002 275.002 0 0 0 11.93 7.258c1.43.821 1.186 2.726-.465 3.664z"/>
            <path fill="#323B4C" d="M258.334 162.43c-.06.04-.124.08-.19.118a46.858 46.858 0 0 1-14.625 5.323 2.62 2.62 0 0 1-.22.031 269.303 269.303 0 0 0 2.891-8.807c.503-1.625 2.837-2.475 4.267-1.553a270.222 270.222 0 0 0 7.877 4.888z"/>
            <path fill="#323B4C" d="M258.435 161.386a44.02 44.02 0 0 1-14.52 5.284c-1.548.269-2.741-.886-2.294-2.222a240.355 240.355 0 0 0 3.514-11.43c.4-1.43 2.365-2.145 3.592-1.307a237.507 237.507 0 0 0 10.038 6.497c1.202.736 1.03 2.388-.33 3.178z"/>
            <path fill="#323B4C" d="M254.029 155.445a41.118 41.118 0 0 1-11.276 4.105c.715-1.88 1.42-3.809 2.111-5.785.481-1.376 2.576-2.139 3.83-1.394 1.8 1.07 3.579 2.094 5.335 3.074z"/>
            <path fill="#323B4C" d="M243.108 147.517a174.377 174.377 0 0 1-3.019 8.35c-.382.977.523 1.783 1.738 1.55 4-.763 7.907-2.185 11.463-4.171 1.08-.604 1.254-1.802.334-2.306a174.585 174.585 0 0 1-7.68-4.455c-.937-.576-2.488-.012-2.836 1.032z"/>
            <g fill="#5D6D8B">
                <path d="M244.526 147.042s-1.967 10.892.805 10.265c-.976.269-1.963.495-2.957.678-1.174.217-2.061-.6-1.704-1.572a173.927 173.927 0 0 0 2.82-8.306c.15-.483.555-.86 1.036-1.065zM246.576 158.506l.124 3.797.106 3.642c-1.042.27-2.092.502-3.147.696-1.525.281-2.676-.78-2.212-2.041a232.336 232.336 0 0 0 2.11-6l3.019-.094z"/>
                <path d="M249.237 174.018h.002c-1.33.352-2.673.654-4.024.903-1.799.33-3.157-.92-2.61-2.409a259.712 259.712 0 0 0 2.157-6.088l.024-.114 3.39.58s-3.376 7.39 1.061 7.128z"/>
            </g>
            <path fill="#A3AFC6" d="M248.364 165.737a2.5 2.5 0 1 1-4.698 1.71 2.5 2.5 0 0 1 4.698-1.71zM256.364 156.737a2.5 2.5 0 1 1-4.698 1.71 2.5 2.5 0 0 1 4.698-1.71zM245.364 150.737a2.5 2.5 0 1 1-4.698 1.71 2.5 2.5 0 0 1 4.698-1.71z"/>
            <path fill="#E6EBF5" d="M247.238 168.313a2.093 2.093 0 0 1-.625.358c-1.188.432-2.535-.269-3.007-1.566-.472-1.297.108-2.7 1.297-3.133.233-.084.472-.126.709-.127-.75.62-1.052 1.732-.673 2.775.38 1.043 1.325 1.7 2.299 1.693zM256.238 159.313a2.096 2.096 0 0 1-.625.358c-1.189.433-2.535-.268-3.007-1.566-.472-1.297.108-2.7 1.297-3.133.233-.084.471-.126.709-.127-.75.62-1.052 1.732-.672 2.775s1.325 1.701 2.298 1.693zM244.238 154.313a2.105 2.105 0 0 1-.625.358c-1.189.433-2.535-.269-3.007-1.566-.473-1.297.108-2.7 1.297-3.133a2.1 2.1 0 0 1 .709-.127c-.75.62-1.052 1.731-.673 2.774.38 1.044 1.325 1.701 2.299 1.694z"/>
            <path fill="#323B4C" d="M396.16 293.8l-10.55-1.86c-1.435-.254-2.817.754-3.08 2.245l-3.388 19.211c-.263 1.491.692 2.91 2.127 3.164l10.55 1.86c1.435.253 2.817-.754 3.08-2.245l3.388-19.212c.263-1.49-.691-2.91-2.127-3.163z"/>
            <path fill="#323B4C" d="M396.22 293.105l-5.274-.93-4.341 24.62 5.274.93c1.436.253 2.818-.754 3.081-2.245l3.388-19.211c.263-1.492-.692-2.91-2.127-3.164z"/>
            <path fill="#A3AFC6" d="M390.996 295.748a4.505 4.505 0 0 0-5.213 3.65 4.505 4.505 0 0 0 3.65 5.213 4.505 4.505 0 0 0 5.213-3.65 4.505 4.505 0 0 0-3.65-5.213zM388.996 305.748a4.505 4.505 0 0 0-5.213 3.65 4.505 4.505 0 0 0 3.65 5.213 4.505 4.505 0 0 0 5.213-3.65 4.505 4.505 0 0 0-3.65-5.213z"/>
            <path fill="#5D6D8B" d="M389.647 305.422c-.04-.007-.08-.012-.121-.017l-1.562 8.855c.04.01.08.018.12.025 2.106.372 4.17-1.314 4.6-3.758.431-2.444-.931-4.734-3.037-5.105zM391.596 295.413l-.07-.01-1.562 8.86c.023.004.046.01.07.013 2.133.377 4.22-1.305 4.65-3.749.431-2.443-.954-4.738-3.088-5.114z"/>
            <path fill="#12254C" d="M389.454 301.657c-.544-.096-.893-.692-.78-1.33l.112-.641c.113-.64.645-1.08 1.189-.983.544.095.894.691.78 1.33l-.112.641c-.113.639-.645 1.079-1.189.983zM388.454 311.657c-.544-.096-.893-.692-.78-1.33l.112-.641c.113-.64.645-1.08 1.189-.983.544.095.894.691.78 1.33l-.112.64c-.113.64-.645 1.08-1.189.984z"/>
            <g fill="#08172D">
                <path d="M390.996 297.77a.58.58 0 0 0-.11-.008l-.47 2.668c.034.013.069.024.105.03.431.076.864-.334.967-.915l.103-.584c.102-.582-.164-1.116-.595-1.192zM389.229 307.792a.603.603 0 0 0-.11-.008l-.47 2.668a.58.58 0 0 0 .105.03c.431.077.864-.333.967-.915l.103-.584c.102-.582-.164-1.115-.595-1.191z"/>
            </g>
            <path fill="#323B4C" d="M333.83 235.72l-10.55-1.86c-1.436-.252-2.818.755-3.08 2.246l-3.388 19.212c-.263 1.49.69 2.91 2.126 3.163l10.55 1.86c1.436.253 2.818-.754 3.08-2.245l3.388-19.212c.263-1.49-.691-2.91-2.127-3.163z"/>
            <path fill="#323B4C" d="M333.89 235.026l-5.275-.93-4.341 24.62 5.275.93c1.435.254 2.817-.754 3.08-2.245l3.388-19.211c.263-1.491-.691-2.91-2.127-3.164z"/>
            <path fill="#A3AFC6" d="M327.665 236.67a4.505 4.505 0 0 0-5.213 3.65 4.505 4.505 0 0 0 3.65 5.213 4.505 4.505 0 0 0 5.213-3.65 4.505 4.505 0 0 0-3.65-5.214zM325.665 247.67a4.505 4.505 0 0 0-5.213 3.65 4.505 4.505 0 0 0 3.65 5.213 4.505 4.505 0 0 0 5.213-3.65 4.505 4.505 0 0 0-3.65-5.214z"/>
            <path fill="#5D6D8B" d="M326.317 247.343c-.041-.007-.081-.012-.122-.017l-1.562 8.856.12.025c2.106.37 4.17-1.315 4.6-3.759.431-2.443-.93-4.733-3.036-5.105zM328.266 237.334l-.07-.01-1.563 8.86.07.014c2.133.376 4.22-1.306 4.65-3.75.431-2.443-.954-4.737-3.087-5.114z"/>
            <path fill="#12254C" d="M327.123 242.578c-.544-.096-.893-.691-.78-1.33l.112-.641c.113-.64.645-1.08 1.19-.983.543.096.893.691.78 1.33l-.113.641c-.113.639-.645 1.079-1.189.983zM325.123 253.578c-.544-.096-.893-.691-.78-1.33l.112-.641c.113-.64.645-1.08 1.19-.983.543.096.893.691.78 1.33l-.113.64c-.113.64-.645 1.08-1.189.984z"/>
            <g fill="#08172D">
                <path d="M327.665 239.69a.58.58 0 0 0-.11-.007l-.47 2.668c.034.013.069.024.106.03.43.077.863-.333.966-.915l.103-.584c.103-.582-.164-1.115-.595-1.191zM325.898 249.713a.603.603 0 0 0-.11-.008l-.47 2.668a.58.58 0 0 0 .105.031c.431.076.864-.334.967-.916l.103-.584c.102-.582-.164-1.115-.595-1.191z"/>
            </g>
            <path fill="#5D6D8B" d="M332.955 364.22a6.352 6.352 0 0 1-3.178 1.929 6.379 6.379 0 0 1-2.46.122l-.5-2.538 2.262-2.615 2.628.836.586 1.063.662 1.202z"/>
            <path fill="#323B4C" d="M333.517 363.69a7.872 7.872 0 0 1-3.524 2.014l-.673-1.85 3.54-1.288.657 1.125zM339.298 358.695a56.372 56.372 0 0 1-17.576 6.397c-1.868.344-3.279-.96-2.711-2.507a279.098 279.098 0 0 0 4.474-13.23c.513-1.654 2.891-2.52 4.348-1.582a274.997 274.997 0 0 0 11.93 7.258c1.43.822 1.186 2.727-.465 3.664z"/>
            <path fill="#323B4C" d="M334.36 352.448c-.06.041-.123.08-.19.118a46.858 46.858 0 0 1-14.625 5.323 2.62 2.62 0 0 1-.22.031 269.301 269.301 0 0 0 2.891-8.807c.503-1.625 2.837-2.475 4.268-1.553a270.222 270.222 0 0 0 7.876 4.888z"/>
            <path fill="#323B4C" d="M334.461 351.404a44.02 44.02 0 0 1-14.52 5.284c-1.548.27-2.741-.885-2.294-2.222a240.367 240.367 0 0 0 3.514-11.43c.4-1.43 2.365-2.145 3.592-1.307a237.504 237.504 0 0 0 10.038 6.497c1.202.736 1.03 2.388-.33 3.178z"/>
            <path fill="#323B4C" d="M330.055 345.463a41.118 41.118 0 0 1-11.276 4.105c.715-1.88 1.42-3.809 2.111-5.784.481-1.377 2.576-2.14 3.83-1.394a226.56 226.56 0 0 0 5.335 3.073z"/>
            <path fill="#323B4C" d="M319.134 337.535a174.377 174.377 0 0 1-3.019 8.35c-.381.977.523 1.783 1.738 1.55 4-.763 7.907-2.184 11.463-4.171 1.08-.604 1.254-1.802.334-2.306a174.585 174.585 0 0 1-7.68-4.455c-.937-.576-2.488-.012-2.836 1.032z"/>
            <g fill="#5D6D8B">
                <path d="M320.552 337.06s-1.967 10.892.805 10.265c-.976.269-1.963.495-2.957.678-1.174.217-2.061-.6-1.704-1.572a173.927 173.927 0 0 0 2.82-8.306c.15-.483.555-.86 1.036-1.065zM322.602 348.524l.124 3.797.106 3.642c-1.042.27-2.092.502-3.147.696-1.525.281-2.676-.779-2.212-2.041a232.336 232.336 0 0 0 2.11-6l3.019-.094z"/>
                <path d="M325.264 364.036h.001c-1.33.352-2.673.654-4.024.903-1.799.33-3.157-.92-2.61-2.408a259.712 259.712 0 0 0 2.157-6.09l.024-.112 3.39.579s-3.376 7.39 1.062 7.128z"/>
            </g>
            <path fill="#A3AFC6" d="M324.39 355.755a2.5 2.5 0 1 1-4.698 1.71 2.5 2.5 0 0 1 4.698-1.71zM332.39 346.755a2.5 2.5 0 1 1-4.698 1.71 2.5 2.5 0 0 1 4.698-1.71zM321.39 340.755a2.5 2.5 0 1 1-4.698 1.71 2.5 2.5 0 0 1 4.698-1.71z"/>
            <path fill="#E6EBF5" d="M323.264 358.33a2.093 2.093 0 0 1-.625.359c-1.188.433-2.535-.269-3.007-1.566-.472-1.297.108-2.7 1.297-3.133.233-.084.472-.126.709-.127-.75.62-1.052 1.732-.673 2.775.38 1.043 1.325 1.7 2.299 1.693zM332.264 349.331a2.096 2.096 0 0 1-.625.358c-1.189.433-2.535-.268-3.007-1.566-.472-1.297.108-2.7 1.297-3.132.233-.085.471-.127.709-.128-.75.62-1.052 1.732-.672 2.775s1.325 1.701 2.298 1.693zM320.264 344.331a2.105 2.105 0 0 1-.625.358c-1.189.433-2.535-.269-3.007-1.566-.472-1.297.108-2.7 1.297-3.132a2.1 2.1 0 0 1 .709-.128c-.75.62-1.052 1.732-.672 2.775s1.324 1.7 2.298 1.693z"/>
        </g>
    </g>
</svg>
