<?xml version="1.0" encoding="UTF-8"?>
<svg width="106px" height="113px" viewBox="0 0 106 113" version="1.1" xmlns="http://www.w3.org/2000/svg" xmlns:xlink="http://www.w3.org/1999/xlink">
    <!-- Generator: Sketch 52.2 (67145) - http://www.bohemiancoding.com/sketch -->
    <title>Shape</title>
    <desc>Created with Sketch.</desc>
    <g id="Dashboard" stroke="none" stroke-width="1" fill="none" fill-rule="evenodd">
        <g id="Dashboard-No-pic-Yet" transform="translate(-483.000000, -325.000000)" fill="#A3AFC6" fill-rule="nonzero">
            <g id="Stacked-Group" transform="translate(196.000000, 80.000000)">
                <g id="Group-3">
                    <g id="Stacked-Group">
                        <g id="Group-12-Copy-9">
                            <g id="Group-Copy">
                                <g id="no-pics-yet" transform="translate(12.000000, 56.000000)">
                                    <g id="photos" transform="translate(275.000000, 189.000000)">
                                        <path d="M105.581372,13.8924881 L96.900018,96.3508864 C96.6034818,99.172439 94.2850198,101.280942 91.5233934,101.446612 L90.4607248,78.4355983 L92.9690317,78.6956898 L99.8547692,13.2976102 L26.8142463,5.72048136 L25.8495871,14.8903356 L20.0307627,15.1548322 L21.0862928,5.12445424 C21.4175568,1.98267119 24.2484457,-0.296098305 27.4132997,0.0312186441 L100.452279,7.60873051 C103.617326,7.93892034 105.912636,10.7507051 105.581372,13.8924881 Z M84.9125838,20.7851051 L88.7399657,103.605295 C88.8854364,106.761442 86.4288352,109.434563 83.2510548,109.578781 L9.89219437,112.9209 C6.71287054,113.06531 4.02012081,110.626617 3.87484313,107.472002 L0.0461107104,24.6520034 C-0.099359899,21.4958559 2.35724125,18.8225441 5.53502164,18.6783254 L78.8936891,15.3362068 C82.0745564,15.1917966 84.7671132,17.6304898 84.9125838,20.7851051 Z M8.83531374,90.0742153 L82.1939812,86.7322881 L79.1587775,21.0469203 L5.79991706,24.3888475 L8.83531374,90.0742153 Z M78.4069221,67.1532186 C78.3133502,65.1278373 77.4997566,63.2009 76.1102614,61.7142797 L70.9526145,56.1939424 C69.1583484,54.4872593 66.3102885,54.6173051 64.6815579,56.4796983 L55.3465507,67.2078034 L35.072308,42.4169441 C33.3299405,40.2785627 30.0296484,40.299822 28.3291471,42.4669322 L12.4826902,63.193622 C11.2602741,64.7932424 10.6409629,66.7672949 10.7345348,68.7714169 L11.5811197,87.0866102 L79.1873314,84.0076475 L78.4069221,67.1532186 Z M66.549331,44.5168288 C70.9223242,44.3182169 74.2974739,40.6430356 74.0974035,36.303261 C73.8973332,31.9619542 70.1951641,28.6114085 65.8235215,28.8102119 C61.4505283,29.0088237 58.0753787,32.6840051 58.275449,37.0237797 C58.4770627,41.3648949 62.1774955,44.7169729 66.549331,44.5168288 Z" id="Shape"></path>
                                    </g>
                                </g>
                            </g>
                        </g>
                    </g>
                </g>
            </g>
        </g>
    </g>
</svg>