
<svg width="9px" height="7px" viewBox="0 0 9 7" version="1.1" xmlns="http://www.w3.org/2000/svg" xmlns:xlink="http://www.w3.org/1999/xlink">
    <!-- Generator: Sketch 48.2 (47327) - http://www.bohemiancoding.com/sketch -->
    <desc>Created with Sketch.</desc>
    <defs></defs>
    <g id="Symbols" stroke="none" stroke-width="1" fill="none" fill-rule="evenodd">
        <g id="Produt/Thumb" transform="translate(-209.000000, -202.000000)" fill="#FFFFFF" fill-rule="nonzero">
            <g id="Group-2" transform="translate(193.000000, 196.000000)">
                <path d="M24.7363281,6 L16.2636719,6 C16.1180547,6 16,6.11466341 16,6.25609756 L16,9.99512195 L19.4275234,9.99512195 L20.336752,9.29889512 C20.4325,9.22556585 20.5675,9.22556585 20.663248,9.29889512 L25,12.619678 L25,6.25609756 C25,6.11466341 24.8819453,6 24.7363281,6 Z M22.8027344,9.24390244 C22.1727168,9.24390244 21.6601562,8.74606585 21.6601562,8.13414634 C21.6601562,7.52222683 22.1727168,7.02439024 22.8027344,7.02439024 C23.432752,7.02439024 23.9453125,7.52222683 23.9453125,8.13414634 C23.9453125,8.74606585 23.432752,9.24390244 22.8027344,9.24390244 Z M16,10.5073171 L18.758623,10.5073171 L16,12.6196951 L16,10.5073171 Z M20.5,9.82611463 L24.6449043,13 L16.3551133,13 L20.5,9.82611463 Z" id="picture"></path>
            </g>
        </g>
    </g>
</svg>
