<svg xmlns="http://www.w3.org/2000/svg" width="10" height="11" viewBox="0 0 10 11">
    <path fill="#9B9B9B" fill-rule="nonzero" d="M1.75 3.038a.75.75 0 1 0 0-1.5.75.75 0 0 0 0 1.5zm7.955 2.29c.18.18.295.43.295.71 0 .275-.11.525-.295.705l-3.5 3.5a.998.998 0 0 1-.705.295c-.275 0-.525-.115-.71-.295l-4.495-4.5A.978.978 0 0 1 0 5.038v-3.5c0-.555.445-1 1-1h3.5c.275 0 .525.11.705.29l4.5 4.5zM5.5 9.538l3.5-3.5-4.25-4.25-3.5 3.5 4.25 4.25zM4.045 3.993l.705-.705 2.75 2.75-.705.705-2.75-2.75zm-1.25 1.25l.705-.705 2 2-.705.705-2-2z"/>
</svg>
