<svg width="12px" height="10px" viewBox="0 0 12 10" version="1.1" xmlns="http://www.w3.org/2000/svg" xmlns:xlink="http://www.w3.org/1999/xlink">
    <!-- Generator: Sketch 48.2 (47327) - http://www.bohemiancoding.com/sketch -->
    <desc>Created with Sketch.</desc>
    <defs></defs>
    <g id="Maquettes" stroke="none" stroke-width="1" fill="none" fill-rule="evenodd">
        <g id="Catalogue---Thumb-View---20180219" transform="translate(-1048.000000, -126.000000)" fill="#5D6D8B">
            <g id="Stacked-Group-7" transform="translate(863.000000, 110.000000)">
                <g id="Filter" transform="translate(170.000000, 0.000000)">
                    <path d="M17,18 C17.5522847,18 18,18.4477153 18,19 L18,26 C18,26.5522847 17.5522847,27 17,27 C16.4477153,27 16,26.5522847 16,26 L16,19 C16,18.4477153 16.4477153,18 17,18 Z M17,15 C17.5522847,15 18,15.4477153 18,16 C18,16.5522847 17.5522847,17 17,17 C16.4477153,17 16,16.5522847 16,16 C16,15.4477153 16.4477153,15 17,15 Z M21,18 C21.5522847,18 22,18.4477153 22,19 L22,26 C22,26.5522847 21.5522847,27 21,27 C20.4477153,27 20,26.5522847 20,26 L20,19 C20,18.4477153 20.4477153,18 21,18 Z M21,15 C21.5522847,15 22,15.4477153 22,16 C22,16.5522847 21.5522847,17 21,17 C20.4477153,17 20,16.5522847 20,16 C20,15.4477153 20.4477153,15 21,15 Z M25,18 C25.5522847,18 26,18.4477153 26,19 L26,26 C26,26.5522847 25.5522847,27 25,27 C24.4477153,27 24,26.5522847 24,26 L24,19 C24,18.4477153 24.4477153,18 25,18 Z M25,15 C25.5522847,15 26,15.4477153 26,16 C26,16.5522847 25.5522847,17 25,17 C24.4477153,17 24,16.5522847 24,16 C24,15.4477153 24.4477153,15 25,15 Z" id="Combined-Shape" transform="translate(21.000000, 21.000000) rotate(-90.000000) translate(-21.000000, -21.000000) "></path>
                </g>
            </g>
        </g>
    </g>
</svg>
