
<svg width="48px" height="46px" viewBox="0 0 48 46" version="1.1" xmlns="http://www.w3.org/2000/svg" xmlns:xlink="http://www.w3.org/1999/xlink">
    <!-- Generator: Sketch 48.2 (47327) - http://www.bohemiancoding.com/sketch -->
    <desc>Created with Sketch.</desc>
    <defs></defs>
    <g id="Maquettes" stroke="none" stroke-width="1" fill="none" fill-rule="evenodd">
        <g id="Catalogue---Thumb---Export-Selection---20180219" transform="translate(-827.000000, -504.000000)" fill="#A3AFC6" fill-rule="nonzero">
            <g id="Group-21" transform="translate(420.000000, 260.000000)">
                <g id="Group-12-Copy" transform="translate(313.000000, 203.000000)">
                    <path d="M123.444571,82.9997963 L123.444571,86.9687606 L94,83.2497895 L94,44.6250968 L123.444571,41 L123.444571,44.8508014 C123.509841,44.8479898 123.576296,44.8419762 123.642836,44.8419762 L138.72855,44.8419762 C140.492783,44.8419762 141.92855,46.1666825 141.92855,47.7940985 L141.92855,80.0562649 C141.92855,81.6839151 140.492783,83.0084652 138.72855,83.0084652 L123.642836,83.0084652 C123.575873,83.0084652 123.509841,83.0030764 123.444571,82.9997963 Z M138.72855,81.3223192 C139.484783,81.3223192 140.099894,80.7543871 140.099894,80.0570458 L140.099894,72.1603531 C140.069164,72.1817521 140.042751,72.2068998 140.008889,72.2266587 L139.908825,72.2757046 C139.908825,72.2757046 139.816889,72.3152224 139.646307,72.350601 C138.902603,72.5054703 136.977608,72.5260883 135.175365,69.3823905 L134.72855,68.5830526 C130.953058,67.7647368 126.587937,68.1440611 123.444571,68.645219 L123.444571,81.3034194 C123.509841,81.3124007 123.575365,81.3223192 123.642836,81.3223192 L138.72855,81.3223192 Z M124.724063,67.1448693 L124.757164,67.1391681 L124.716952,67.1824346 C127.468275,66.8315382 130.813376,66.6523803 133.92855,67.1433073 L133.891048,67.0769236 L133.894603,67.0777827 C132.799069,65.0959559 131.207958,62.1924109 130.242794,60.315236 L130.229418,60.3342139 L130.224931,60.3249202 C128.995471,62.0054431 127.086476,64.4868659 124.724063,67.1448693 Z M130.281228,54.7420509 C130.066963,55.0899796 130.034794,56.0122445 130.522328,57.5916299 C130.733884,57.2800951 130.846392,57.1074975 130.846392,57.1074975 L130.847323,57.1074975 C131.716995,55.6728285 131.555302,55.0845127 131.443725,54.8990289 C131.259852,54.5875722 130.766984,54.5577385 130.762497,54.557348 C130.514286,54.5472733 130.375873,54.5880407 130.281228,54.7420509 Z M136.572275,69.1007674 C137.881143,71.2032564 139.028487,71.1702988 139.316995,71.121253 C139.322328,71.1126621 139.324106,71.1039932 139.325884,71.0953243 C139.359746,70.9157759 139.173164,70.535202 138.971344,70.2707606 C138.268698,69.8087301 137.465989,69.4179253 136.572275,69.1007674 Z M123.642836,46.5292156 C123.574942,46.5292156 123.509841,46.5388998 123.444233,46.5478031 L123.444233,66.5866995 C126.213418,63.4945467 128.377651,60.6156808 129.57054,58.9512462 C129.500444,58.7947368 129.447365,58.6704041 129.414265,58.5734058 C128.66963,56.4740407 128.560677,54.9738472 129.087492,54.1174194 C129.433058,53.5565161 130.069672,53.2620068 130.816085,53.2933243 C131.277714,53.3074601 132.181249,53.530275 132.634836,54.2720543 C133.135238,55.0916197 132.937481,56.2534126 132.032593,57.741657 C132.018286,57.7636808 131.706243,58.2447674 131.125418,59.0701121 C132.128508,61.0961426 134.514709,65.4224856 135.666878,67.4981868 C137.282963,67.9087504 138.693672,68.5162003 139.864212,69.3045263 L139.940063,69.3563837 L139.998138,69.425657 C140.020063,69.4508048 140.057058,69.4972733 140.099894,69.5537385 L140.099894,47.7944109 C140.099894,47.0969915 139.484783,46.5292156 138.72855,46.5292156 L123.642836,46.5292156 Z M101.541926,63.7232971 C102.082286,63.2247165 102.380275,62.4870764 102.380275,61.6170594 C102.380275,60.7479015 101.988571,60.015416 101.408,59.5797046 C100.805926,59.1208761 99.9130582,58.9054805 98.6802963,58.9332835 C97.4738624,58.9603056 96.6285714,59.0555857 96.0312381,59.1703124 L96.0312381,67.6350153 L97.9649524,67.6844516 L97.9649524,64.5840985 C98.1463704,64.6112767 98.3812063,64.6261154 98.6410159,64.6285365 C99.8223069,64.638455 100.845714,64.3604244 101.541926,63.7232971 Z M106.818709,60.3296061 C108.701714,60.3031307 109.898159,61.3003701 109.883937,63.2193277 C109.883937,65.4258438 108.569566,66.4439355 106.590138,66.3952801 C106.321354,66.3903599 106.023873,66.3854397 105.841016,66.3421732 L105.841016,60.4243396 C106.024296,60.3806825 106.334561,60.3361664 106.818709,60.3296061 Z M110.620275,66.9064346 C111.587725,66.1659049 112.292148,64.9423362 112.292148,63.1522411 C112.292148,61.5007708 111.632085,60.3590492 110.591915,59.657725 C109.633947,59.0033379 108.425143,58.7152326 106.590138,58.7566248 C105.502561,58.7810696 104.48364,58.8704924 103.708868,59.006618 L103.708868,67.7914465 C104.233651,67.8713413 105.012233,67.9574058 106.122074,67.9866927 C108.006011,68.0352699 109.575873,67.6925739 110.620275,66.9064346 Z M113.81181,58.6654058 L113.81181,58.6654839 L113.811132,58.6654839 L113.811132,68.0880645 L116.179217,68.1482784 L116.179217,64.3139559 L120.041905,64.338635 L120.041905,62.5514295 L116.179217,62.5602547 L116.179217,60.3820102 L120.316952,60.3266384 L120.316952,58.5220951 L113.81181,58.6654058 Z M98.7850159,60.4169983 C99.7830265,60.4021596 100.352423,60.8765297 100.352339,61.6850832 C100.352339,62.5837623 99.6910053,63.1185025 98.6284868,63.1177216 C98.3409947,63.1177216 98.1329101,63.1046791 97.965291,63.0657861 L97.965291,60.5059525 C98.1084444,60.4649508 98.3812063,60.4227776 98.7850159,60.4169983 Z" id="Combined-Shape"></path>
                </g>
            </g>
        </g>
    </g>
</svg>
