<svg xmlns="http://www.w3.org/2000/svg" xmlns:xlink="http://www.w3.org/1999/xlink" width="28" height="28" viewBox="0 0 28 28">
    <defs>
        <path id="a" d="M7.078 6.045l4.88-2.464v5.548l-5.49 2.774v-5.55l.61-.308zm.993-4.976L2.433 3.92.319 2.849 5.96 0l2.111 1.07zM11.6 2.85L8.06 4.64 5.96 5.7 3.85 4.632l-.322-.146 5.638-2.85L11.6 2.85zM3.102 6.528V5.176l2.356 1.188v5.509L.008 9.12V3.61l2.083 1.05v1.412l1.01.455z"/>
    </defs>
    <g fill="none" fill-rule="evenodd">
        <rect width="28" height="28" fill="#F9FAFC" rx="2"/>
        <g opacity=".4" transform="translate(8 8)">
            <mask id="b" fill="#fff">
                <use xlink:href="#a"/>
            </mask>
            <use fill="#A3AFC6" fill-rule="nonzero" xlink:href="#a"/>
            <g fill="#A3AFC6" fill-rule="nonzero" mask="url(#b)">
                <path d="M0 0h12v12H0z"/>
            </g>
        </g>
    </g>
</svg>
