<svg xmlns="http://www.w3.org/2000/svg" width="16" height="16" viewBox="0 0 16 16">
    <path fill="#A3AFC6" fill-rule="nonzero" d="M12.255 13.636h-.582v1.773a.592.592 0 0 1-.307.521.574.574 0 0 1-.597-.03l-3.383-2.264h-5.64C.78 13.636 0 12.843 0 11.864V4.773C0 3.793.781 3 1.745 3h10.51C13.219 3 14 3.794 14 4.773v7.09c0 .98-.781 1.773-1.745 1.773zM3.49 5.364a.586.586 0 0 0-.581.59c0 .327.26.591.581.591a.586.586 0 0 0 .582-.59c0-.327-.26-.591-.582-.591zm0 2.363a.586.586 0 0 0-.581.591c0 .327.26.591.581.591a.586.586 0 0 0 .582-.59c0-.327-.26-.592-.582-.592zm7.02-2.363H5.817a.586.586 0 0 0-.582.59c0 .327.26.591.582.591h4.693a.586.586 0 0 0 .581-.59c0-.327-.26-.591-.581-.591zm0 2.363H5.817a.586.586 0 0 0-.582.591c0 .327.26.591.582.591h4.693a.586.586 0 0 0 .581-.59c0-.327-.26-.592-.581-.592zm0 2.364H3.49a.586.586 0 0 0-.581.59c0 .327.26.592.581.592h7.02a.586.586 0 0 0 .581-.591c0-.327-.26-.591-.581-.591z"/>
</svg>
