<svg xmlns="http://www.w3.org/2000/svg" xmlns:xlink="http://www.w3.org/1999/xlink" width="21" height="21" viewBox="0 0 21 21">
    <defs>
        <path id="a" d="M11.465 3.07a.897.897 0 0 1-.106.73l-4.064 6.488.76-2.757 2.582-4.122a.175.175 0 0 0 .02-.141.186.186 0 0 0-.092-.113L9.431 2.54l.112-.406a1.42 1.42 0 0 0 .045-.408l1.398.758c.239.129.409.337.48.586zM6.96 6.03l1.167-4.235c.027-.099-.037-.2-.143-.226L6.96 1.326V.963c0-.16-.034-.313-.084-.459l1.315.314c.552.132.887.657.745 1.171L6.96 9.16V6.03zM5.298 0c.571 0 1.035.432 1.035.963v8.52c0 .11-.05.214-.136.288l-2.334 1.978a1.076 1.076 0 0 1-.697.251c-.258 0-.506-.09-.697-.251L.136 9.77A.376.376 0 0 1 0 9.484V.963C0 .432.464 0 1.035 0h4.263zM2.623 1.295c.147 0 .265.11.265.246v.931c0 .137-.118.247-.265.247H1.622c-.146 0-.265-.11-.265-.247v-.931c0-.136.119-.246.265-.246h1.001zm2.088 0c.147 0 .265.11.265.246v.931c0 .137-.118.247-.265.247H3.71c-.146 0-.265-.11-.265-.247v-.931c0-.136.119-.246.265-.246H4.71zM2.623 3.237c.147 0 .265.11.265.246v.932c0 .136-.118.246-.265.246H1.622c-.146 0-.265-.11-.265-.246v-.932c0-.136.119-.246.265-.246h1.001zm2.088 0c.147 0 .265.11.265.246v.932c0 .136-.118.246-.265.246H3.71c-.146 0-.265-.11-.265-.246v-.932c0-.136.119-.246.265-.246H4.71zM2.623 5.179c.147 0 .265.11.265.246v.932c0 .136-.118.246-.265.246H1.622c-.146 0-.265-.11-.265-.246v-.932c0-.136.119-.246.265-.246h1.001zm2.088 0c.147 0 .265.11.265.246v.932c0 .136-.118.246-.265.246H3.71c-.146 0-.265-.11-.265-.246v-.932c0-.136.119-.246.265-.246H4.71zM2.623 7.12c.147 0 .265.11.265.246V8.3c0 .136-.118.246-.265.246H1.622c-.146 0-.265-.11-.265-.246v-.932c0-.136.119-.246.265-.246h1.001zm2.088 0c.147 0 .265.11.265.246V8.3c0 .136-.118.246-.265.246H3.71c-.146 0-.265-.11-.265-.246v-.932c0-.136.119-.246.265-.246H4.71z"/>
    </defs>
    <g fill="none" fill-rule="evenodd">
        <rect width="21" height="21" fill="#E6EBF5" fill-rule="nonzero" rx="2"/>
        <g transform="translate(6 5)">
            <mask id="b" fill="#fff">
                <use xlink:href="#a"/>
            </mask>
            <use fill="#5D6D8B" xlink:href="#a"/>
            <g fill="#5D6D8B" fill-rule="nonzero" mask="url(#b)">
                <path d="M0 0h12v12H0z"/>
            </g>
        </g>
    </g>
</svg>
