
<svg width="18px" height="18px" viewBox="0 0 18 18" version="1.1" xmlns="http://www.w3.org/2000/svg" xmlns:xlink="http://www.w3.org/1999/xlink">
    <!-- Generator: Sketch 48.2 (47327) - http://www.bohemiancoding.com/sketch -->
    <desc>Created with Sketch.</desc>
    <defs></defs>
    <g id="Symbols" stroke="none" stroke-width="1" fill="none" fill-rule="evenodd">
        <g id="header" transform="translate(-1117.000000, -27.000000)" fill="#5D6D8B" fill-rule="nonzero" stroke="#5D6D8B">
            <g id="Icons/Notification-Copy" transform="translate(1116.000000, 26.000000)">
                <path d="M18.2331444,17.5306609 L14.1921153,13.4896318 C15.276114,12.2434021 15.9324125,10.6174041 15.9324125,8.84023619 C15.9324125,4.9282546 12.7504708,1.75 8.84217633,1.75 C4.93019473,1.75 1.75194013,4.93194167 1.75194013,8.84023619 C1.75194013,12.7485307 4.93388181,15.9304724 8.84217633,15.9304724 C10.6193442,15.9304724 12.2453422,15.2741739 13.491572,14.1901752 L17.532601,18.2312043 C17.6284649,18.3270681 17.7575123,18.3786871 17.8828727,18.3786871 C18.0082331,18.3786871 18.1372806,18.3307552 18.2331444,18.2312043 C18.424872,18.0394766 18.424872,17.7223886 18.2331444,17.5306609 Z M2.74376204,8.84023619 C2.74376204,5.47762808 5.47956821,2.74550898 8.83848926,2.74550898 C12.2010974,2.74550898 14.9332165,5.48131515 14.9332165,8.84023619 C14.9332165,12.1991572 12.2010974,14.9386505 8.83848926,14.9386505 C5.47956821,14.9386505 2.74376204,12.2028443 2.74376204,8.84023619 Z" id="Shape"></path>
            </g>
        </g>
    </g>
</svg>
