<svg xmlns="http://www.w3.org/2000/svg" width="23" height="23" viewBox="0 0 23 23">
    <path fill="#182844" fill-rule="nonzero" d="M22.928 10.223c-.036-.323-.413-.566-.74-.566a2.555 2.555 0 0 1-2.38-1.576c-.401-.98-.143-2.123.643-2.844a.639.639 0 0 0 .07-.867 11.38 11.38 0 0 0-1.822-1.84.64.64 0 0 0-.874.07c-.686.76-1.917 1.042-2.869.645A2.554 2.554 0 0 1 13.403.748a.638.638 0 0 0-.565-.671c-.859-.1-1.725-.103-2.587-.007a.64.64 0 0 0-.57.658A2.559 2.559 0 0 1 8.108 3.18c-.94.384-2.163.105-2.847-.648a.641.641 0 0 0-.868-.073c-.689.541-1.316 1.16-1.86 1.84a.64.64 0 0 0 .069.874c.8.724 1.058 1.878.643 2.869-.397.945-1.38 1.554-2.503 1.554a.625.625 0 0 0-.664.565 11.52 11.52 0 0 0-.005 2.615c.036.325.425.566.754.566 1.002-.026 1.963.594 2.366 1.576.402.98.144 2.122-.643 2.843a.64.64 0 0 0-.07.867c.535.68 1.148 1.3 1.82 1.84a.64.64 0 0 0 .875-.069c.688-.76 1.92-1.042 2.867-.645a2.55 2.55 0 0 1 1.556 2.496.639.639 0 0 0 .564.672 11.431 11.431 0 0 0 2.588.007.64.64 0 0 0 .569-.659 2.556 2.556 0 0 1 1.573-2.452c.947-.386 2.164-.104 2.849.648a.643.643 0 0 0 .868.073 11.449 11.449 0 0 0 1.86-1.84.638.638 0 0 0-.069-.874 2.548 2.548 0 0 1-.644-2.869 2.575 2.575 0 0 1 2.353-1.559l.142.004a.64.64 0 0 0 .673-.564 11.51 11.51 0 0 0 .005-2.615zm-11.41 5.137a3.84 3.84 0 0 1-3.836-3.836 3.84 3.84 0 0 1 3.836-3.836 3.84 3.84 0 0 1 3.836 3.836 3.84 3.84 0 0 1-3.836 3.836z"/>
</svg>
