<svg xmlns="http://www.w3.org/2000/svg" width="36" height="36" viewBox="0 0 36 36">
    <g fill="none" fill-rule="evenodd">
        <rect width="72" height="72" rx="4" transform="translate(-18 -18)"/>
        <g fill="#A3AFC6" fill-rule="nonzero">
            <path d="M10.743 0H1.04A1.04 1.04 0 0 0 0 1.04v2.426h11.783V1.04A1.04 1.04 0 0 0 10.743 0zM34.965 9.91a1.04 1.04 0 0 0-1.042.005l-10.288 6.016v-5.119a1.04 1.04 0 0 0-1.565-.897l-10.287 6.016V5.545H0v28.902c0 .575.465 1.04 1.04 1.04h33.407a1.04 1.04 0 0 0 1.04-1.04V10.812c0-.372-.2-.716-.522-.901zM15.94 28.176a1.04 1.04 0 0 1-1.04 1.04h-4.158a1.04 1.04 0 0 1-1.04-1.04v-4.159c0-.574.466-1.04 1.04-1.04h4.159c.574 0 1.04.466 1.04 1.04v4.159zm11.853 0a1.04 1.04 0 0 1-1.04 1.04h-4.159a1.04 1.04 0 0 1-1.04-1.04v-4.159c0-.574.466-1.04 1.04-1.04h4.159c.574 0 1.04.466 1.04 1.04v4.159z"/>
        </g>
    </g>
</svg>
