<svg xmlns="http://www.w3.org/2000/svg" width="51" height="51" viewBox="0 0 51 51">
    <g fill="none" fill-rule="evenodd">
        <circle cx="25.5" cy="25.5" r="25.5" fill="#E6EBF5"/>
        <g fill="#A3AFC6" fill-rule="nonzero">
            <path d="M22.185 16.358h-5.263a.564.564 0 0 0-.564.564v1.316h6.39v-1.316a.564.564 0 0 0-.563-.564zM35.32 21.733a.564.564 0 0 0-.565.003l-5.579 3.262v-2.776a.564.564 0 0 0-.848-.486l-5.58 3.262v-5.632h-6.39V35.04c0 .311.253.564.564.564H35.04a.564.564 0 0 0 .564-.564V22.222a.564.564 0 0 0-.283-.489zm-10.316 9.905a.564.564 0 0 1-.564.564h-2.255a.564.564 0 0 1-.564-.564v-2.255c0-.311.252-.564.564-.564h2.255c.311 0 .564.253.564.564v2.255zm6.427 0a.564.564 0 0 1-.563.564h-2.256a.564.564 0 0 1-.564-.564v-2.255c0-.311.253-.564.564-.564h2.256c.311 0 .563.253.563.564v2.255z"/>
        </g>
    </g>
</svg>
