
<svg width="10px" height="10px" viewBox="0 0 10 10" version="1.1" xmlns="http://www.w3.org/2000/svg" xmlns:xlink="http://www.w3.org/1999/xlink">
    <!-- Generator: Sketch 48.2 (47327) - http://www.bohemiancoding.com/sketch -->
    <desc>Created with Sketch.</desc>
    <defs></defs>
    <g id="Symbols" stroke="none" stroke-width="1" fill="none" fill-rule="evenodd">
        <g id="Produt/Thumb/Inspiration" transform="translate(-16.000000, -248.000000)" fill="#A3AFC6" fill-rule="nonzero">
            <g id="Produt/Thumb-Copy-4">
                <path d="M25.9959697,252.321396 L25.5493413,249.003585 C25.5068052,248.705832 25.294125,248.493152 24.9963727,248.450616 L21.6785615,248.003988 C21.4871493,247.98272 21.2744691,248.046524 21.146861,248.1954 L16.1914122,253.129581 C15.9361959,253.384797 15.9361959,253.788889 16.1914122,254.044106 L19.9558518,257.808545 C20.2110681,258.063762 20.6151605,258.063762 20.8703767,257.808545 L25.8258255,252.853096 C25.9534337,252.725488 26.0172377,252.534076 25.9959697,252.321396 Z M24.4008682,249.599089 C24.7411565,249.939378 24.7411565,250.471078 24.4008682,250.811366 C24.0605798,251.151655 23.5288793,251.151655 23.188591,250.811366 C22.8483026,250.471078 22.8483026,249.939378 23.188591,249.599089 C23.5288793,249.258801 24.0818478,249.258801 24.4008682,249.599089 Z M20.4662843,256.064568 L17.9353899,253.533673 C17.8077818,253.406065 17.8077818,253.214653 17.9353899,253.087045 C18.062998,252.959437 18.2544102,252.959437 18.3820183,253.087045 L20.9129128,255.617939 C21.0405209,255.745547 21.0405209,255.936959 20.9129128,256.064568 C20.8065727,256.170908 20.5938925,256.170908 20.4662843,256.064568 Z M22.4229422,254.10791 L19.8920478,251.577015 C19.7644397,251.449407 19.7644397,251.257995 19.8920478,251.130387 C20.0196559,251.002779 20.2110681,251.002779 20.3386762,251.130387 L22.8695707,253.661281 C22.9971788,253.788889 22.9971788,253.980302 22.8695707,254.10791 C22.7419625,254.235518 22.5505504,254.235518 22.4229422,254.10791 Z" id="Shape"></path>
            </g>
        </g>
    </g>
</svg>
