<svg xmlns="http://www.w3.org/2000/svg" width="64" height="64" viewBox="0 0 64 64">
    <g fill="none" fill-rule="nonzero">
        <circle cx="32" cy="7.969" r="7.969" fill="#5D6D8B"/>
        <path fill="#5D6D8B" d="M43.937 37.598l-1.809-14.09a3.97 3.97 0 0 0-3.96-3.585h-2.184c-.53 0-1.036.211-1.41.582L32 23.078l-2.574-2.573a2.007 2.007 0 0 0-1.41-.582h-2.18c-2.056 0-3.761 1.542-3.96 3.534l-1.813 14.145c-.072.566.103 1.14.482 1.566.378.43.92.677 1.494.677h2.151l1.666 20.32a3.97 3.97 0 0 0 3.964 3.587h4.363c2.056 0 3.762-1.546 3.969-3.622l1.661-20.285h2.148c.574 0 1.116-.247 1.494-.677.383-.427.558-1 .482-1.57z"/>
        <circle cx="51.922" cy="7.969" r="7.969" fill="#A3AFC6"/>
        <path fill="#A3AFC6" d="M12.078 0c-4.395 0-7.97 3.575-7.97 7.97 0 4.394 3.575 7.968 7.97 7.968 4.39 0 7.969-3.574 7.969-7.969 0-4.394-3.578-7.968-7.97-7.968zM63.86 37.598l-1.81-14.085a3.967 3.967 0 0 0-3.96-3.59h-2.184c-.53 0-1.035.211-1.41.582l-2.574 2.573-2.574-2.573a2.004 2.004 0 0 0-1.406-.582h-2.184c-.247 0-.47.087-.705.131.514.909.916 1.893 1.036 2.997l1.805 14.04a5.962 5.962 0 0 1-1.459 4.726c-.541.622-1.235 1.06-1.976 1.403l1.323 12.961a3.97 3.97 0 0 0 3.965 3.586h4.363c2.055 0 3.76-1.546 3.968-3.622l1.658-16.3h2.147c.574 0 1.116-.247 1.494-.677.383-.427.558-1 .482-1.57zM17.552 41.797A5.968 5.968 0 0 1 16.11 37.1l1.813-14.149c.103-1.06.494-2.016.992-2.9-.223-.04-.434-.128-.67-.128h-2.183c-.53 0-1.036.211-1.41.582l-2.574 2.573-2.574-2.573a2.004 2.004 0 0 0-1.407-.582H5.914c-2.056 0-3.762 1.542-3.96 3.534L.14 37.602a1.993 1.993 0 0 0 1.976 2.243h2.152l1.666 16.336a3.97 3.97 0 0 0 3.964 3.586h4.363c2.056 0 3.761-1.546 3.969-3.622l1.322-12.93c-.745-.346-1.442-.788-2-1.418z"/>
    </g>
</svg>
