<svg xmlns="http://www.w3.org/2000/svg" width="16" height="16" viewBox="0 0 16 16" style="transform: translate(8%, 0);">
    <g fill="#71e591" fill-rule="nonzero">
        <path d="M3.324 5.121H1.198c-.292 0-.531.214-.531.477v8.591c0 .264.238.478.531.478h2.126c.293 0 .531-.214.531-.478V5.6c0-.264-.24-.478-.531-.478zM14.137 5.027c-.077-.012-3.69 0-3.69 0l.505-1.335c.349-.923.123-2.331-.843-2.832C9.795.697 9.355.615 9.001.702a.797.797 0 0 0-.488.355c-.123.2-.11.436-.154.659a2.819 2.819 0 0 1-.812 1.507c-.744.704-3.054 2.734-3.054 2.734v7.437h7.984c1.077 0 1.783-1.167 1.252-2.079.633-.393.85-1.222.479-1.859.633-.393.85-1.222.479-1.859 1.093-.68.727-2.36-.55-2.57z"/>
    </g>
</svg>
