<svg width="10px" height="11px" viewBox="0 0 10 11" version="1.1" xmlns="http://www.w3.org/2000/svg" xmlns:xlink="http://www.w3.org/1999/xlink">
    <!-- Generator: Sketch 48.2 (47327) - http://www.bohemiancoding.com/sketch -->
    <desc>Created with Sketch.</desc>
    <defs></defs>
    <g id="Maquettes" stroke="none" stroke-width="1" fill="none" fill-rule="evenodd">
        <g id="Catalogue---Thumb-View---20180219" transform="translate(-1119.000000, -125.000000)" fill="#FFFFFF">
            <g id="Stacked-Group-7" transform="translate(863.000000, 110.000000)">
                <g id="Filter" transform="translate(170.000000, 0.000000)">
                    <path d="M87,23 C87.5522847,23 88,23.4477153 88,24 L88,25 C88,25.5522847 87.5522847,26 87,26 C86.4477153,26 86,25.5522847 86,25 L86,24 C86,23.4477153 86.4477153,23 87,23 Z M91,23 C91.5522847,23 92,23.4477153 92,24 L92,25 C92,25.5522847 91.5522847,26 91,26 C90.4477153,26 90,25.5522847 90,25 L90,24 C90,23.4477153 90.4477153,23 91,23 Z M95,23 C95.5522847,23 96,23.4477153 96,24 L96,25 C96,25.5522847 95.5522847,26 95,26 C94.4477153,26 94,25.5522847 94,25 L94,24 C94,23.4477153 94.4477153,23 95,23 Z M87,19 C87.5522847,19 88,19.4477153 88,20 L88,21 C88,21.5522847 87.5522847,22 87,22 C86.4477153,22 86,21.5522847 86,21 L86,20 C86,19.4477153 86.4477153,19 87,19 Z M91,19 C91.5522847,19 92,19.4477153 92,20 L92,21 C92,21.5522847 91.5522847,22 91,22 C90.4477153,22 90,21.5522847 90,21 L90,20 C90,19.4477153 90.4477153,19 91,19 Z M95,19 C95.5522847,19 96,19.4477153 96,20 L96,21 C96,21.5522847 95.5522847,22 95,22 C94.4477153,22 94,21.5522847 94,21 L94,20 C94,19.4477153 94.4477153,19 95,19 Z M87,15 C87.5522847,15 88,15.4477153 88,16 L88,17 C88,17.5522847 87.5522847,18 87,18 C86.4477153,18 86,17.5522847 86,17 L86,16 C86,15.4477153 86.4477153,15 87,15 Z M91,15 C91.5522847,15 92,15.4477153 92,16 L92,17 C92,17.5522847 91.5522847,18 91,18 C90.4477153,18 90,17.5522847 90,17 L90,16 C90,15.4477153 90.4477153,15 91,15 Z M95,15 C95.5522847,15 96,15.4477153 96,16 L96,17 C96,17.5522847 95.5522847,18 95,18 C94.4477153,18 94,17.5522847 94,17 L94,16 C94,15.4477153 94.4477153,15 95,15 Z" id="Combined-Shape"></path>
                </g>
            </g>
        </g>
    </g>
</svg>
