
<svg width="11px" height="11px" viewBox="0 0 11 11" version="1.1" xmlns="http://www.w3.org/2000/svg" xmlns:xlink="http://www.w3.org/1999/xlink">
    <!-- Generator: Sketch 48.2 (47327) - http://www.bohemiancoding.com/sketch -->
    <desc>Created with Sketch.</desc>
    <defs></defs>
    <g id="Symbols" stroke="none" stroke-width="1" fill="none" fill-rule="evenodd">
        <g id="Produt/Thumb" transform="translate(-16.000000, -302.000000)" fill="#A3AFC6" fill-rule="nonzero">
            <g id="Group-6" transform="translate(-45.000000, 217.000000)">
                <g id="Icons/Thumb-Up-Grey-Light" transform="translate(61.000000, 85.000000)">
                    <path d="M10.6175274,5.86531072 C10.8694923,5.57671116 10.995523,5.23542232 10.995523,4.84137199 C10.995523,4.48402845 10.8647746,4.17482495 10.6041685,3.91354486 C10.3430328,3.65228884 10.0338293,3.52173304 9.67648578,3.52173304 L7.77298031,3.52173304 C7.79127352,3.4576105 7.80961488,3.40263457 7.8279081,3.35682932 C7.84603282,3.31102407 7.87149891,3.2605733 7.90343982,3.20559737 C7.93540481,3.15059737 7.95839168,3.10934136 7.97208753,3.08190153 C8.05452735,2.92621663 8.11763895,2.7978512 8.16120569,2.69714223 C8.20470022,2.5962407 8.24800219,2.45884902 8.29166521,2.28475055 C8.33525602,2.11074836 8.35691904,1.93657768 8.35691904,1.76247921 C8.35691904,1.65257549 8.35559519,1.56315536 8.35342888,1.49448359 C8.35128665,1.42576368 8.33961269,1.3226477 8.31917724,1.18518381 C8.29842888,1.04779212 8.27089278,0.933242888 8.23661707,0.841656455 C8.20219694,0.750045952 8.14717287,0.646881838 8.07171335,0.532428884 C7.99608534,0.4177593 7.90449891,0.325113786 7.79673742,0.254059081 C7.689,0.183052516 7.55160832,0.123503282 7.38439387,0.0754354486 C7.21701094,0.0273194748 7.02813348,0.00327352298 6.81725602,0.00327352298 C6.69815755,0.00327352298 6.59516193,0.0468161926 6.50802845,0.133877462 C6.41641794,0.225487965 6.338407,0.340013129 6.2743326,0.477404814 C6.21016193,0.614868709 6.16546389,0.733991247 6.14023851,0.834820569 C6.1150372,0.935601751 6.0863698,1.07537637 6.05442888,1.254 C6.01305252,1.44651204 5.98226696,1.58501094 5.9615186,1.66976149 C5.94093873,1.75451204 5.90074179,1.86559519 5.8412407,2.00301094 C5.78161926,2.14052298 5.7106849,2.25040263 5.62819694,2.33291466 C5.4770372,2.4840744 5.24570022,2.75897812 4.93408972,3.15752954 C4.70954048,3.45070241 4.4782035,3.72786871 4.23998249,3.98902845 C4.00171335,4.25023632 3.82763895,4.38536543 3.71771116,4.39453611 C3.60325821,4.40368271 3.50473961,4.45064333 3.42225164,4.53544201 C3.33976368,4.62019256 3.29853173,4.71986652 3.29853173,4.83436761 L3.29853173,9.23942232 C3.29853173,9.35854486 3.34202626,9.46043326 3.42908753,9.54518381 C3.51610066,9.63003063 3.61919256,9.67468053 3.7383151,9.6792779 C3.89864551,9.68387527 4.26058643,9.78456018 4.82413786,9.98174179 C5.17685996,10.1006718 5.45284683,10.1912954 5.65214661,10.2530591 C5.85139825,10.3148228 6.12991247,10.3813042 6.48699125,10.452407 C6.844407,10.5233895 7.17421444,10.5589891 7.47650985,10.5589891 L7.5933698,10.5589891 L8.11568928,10.5589891 L8.36303282,10.5589891 C8.97250985,10.5498425 9.42358206,10.3710985 9.71689934,10.0229978 C9.98253611,9.70683807 10.0947265,9.29220788 10.0536389,8.77908315 C10.2322867,8.60958206 10.3560788,8.39434792 10.4247024,8.13314004 C10.5024726,7.85383151 10.5024726,7.58578775 10.4247024,7.32927352 C10.6354114,7.0497965 10.73393,6.73597155 10.7200897,6.38777462 C10.7206674,6.24101969 10.6863917,6.06696937 10.6175274,5.86531072 Z" id="Shape"></path>
                    <path d="M2.4190372,4.40154048 L0.43990372,4.40154048 C0.320708972,4.40154048 0.217617068,4.44508315 0.130579869,4.53214442 C0.0435426696,4.61915755 0,4.72224945 0,4.84137199 L0,9.23973523 C0,9.35868928 0.0435426696,9.46182932 0.130603939,9.5489628 C0.217713348,9.63587965 0.320805252,9.67944639 0.43992779,9.67944639 L2.4190372,9.67944639 C2.53813567,9.67944639 2.64117943,9.63587965 2.72826477,9.5489628 C2.81530197,9.46182932 2.85882057,9.35871335 2.85882057,9.23973523 L2.85882057,4.84137199 C2.85882057,4.72224945 2.8152779,4.61918162 2.72826477,4.53214442 C2.6412035,4.44505908 2.53815974,4.40154048 2.4190372,4.40154048 Z M1.62869803,8.67262144 C1.54166083,8.75737199 1.438593,8.79973523 1.31947046,8.79973523 C1.19575055,8.79973523 1.09150328,8.75737199 1.00680088,8.67262144 C0.922050328,8.5878709 0.87968709,8.48367177 0.87968709,8.35995186 C0.87968709,8.24085339 0.922026258,8.13773742 1.00680088,8.05072429 C1.09152735,7.96366302 1.19575055,7.92007221 1.31947046,7.92007221 C1.438593,7.92007221 1.54166083,7.96366302 1.62869803,8.05072429 C1.7157593,8.13771335 1.75930197,8.24082932 1.75930197,8.35995186 C1.75930197,8.48367177 1.71585558,8.58784683 1.62869803,8.67262144 Z" id="Shape"></path>
                </g>
            </g>
        </g>
    </g>
</svg>
