
<svg width="11px" height="11px" viewBox="0 0 11 11" version="1.1" xmlns="http://www.w3.org/2000/svg" xmlns:xlink="http://www.w3.org/1999/xlink">
    <!-- Generator: Sketch 48.2 (47327) - http://www.bohemiancoding.com/sketch -->
    <desc>Created with Sketch.</desc>
    <defs></defs>
    <g id="Symbols" stroke="none" stroke-width="1" fill="none" fill-rule="evenodd">
        <g id="Product/Thumb-Mouse-Over" transform="translate(-130.000000, -167.000000)" fill="#FFFFFF" fill-rule="nonzero">
            <path d="M140.62185,173.225251 C140.690743,173.426992 140.725033,173.601113 140.724455,173.747928 C140.7383,174.096267 140.639742,174.410219 140.428947,174.68981 C140.506749,174.946429 140.506749,175.214582 140.428947,175.494004 C140.360295,175.755318 140.236453,175.97064 140.057732,176.14021 C140.098837,176.653544 139.986601,177.068343 139.720856,177.384631 C139.427419,177.732874 138.976163,177.91169 138.366438,177.920841 L138.118994,177.920841 L137.596462,177.920841 L137.479554,177.920841 C137.177136,177.920841 136.847194,177.885227 136.489633,177.814215 C136.132408,177.743083 135.853781,177.676575 135.654448,177.614786 C135.455067,177.552997 135.178968,177.462337 134.826102,177.343358 C134.262321,177.146096 133.900233,177.045371 133.739837,177.040771 C133.620666,177.036172 133.517532,176.991504 133.430484,176.906623 C133.343387,176.821838 133.299875,176.719908 133.299875,176.600737 L133.299875,172.193888 C133.299875,172.079341 133.341124,171.979626 133.423645,171.894841 C133.506167,171.810008 133.604725,171.763028 133.719225,171.753878 C133.829197,171.744703 134.003343,171.609519 134.241709,171.348205 C134.480027,171.086939 134.711458,170.80966 134.936099,170.516367 C135.247836,170.117654 135.479267,169.842638 135.630489,169.691417 C135.71301,169.608871 135.783973,169.498947 135.843619,169.361379 C135.903144,169.223907 135.943358,169.112779 135.963946,169.027994 C135.984703,168.943209 136.015501,168.804653 136.056894,168.612063 C136.088848,168.433367 136.117527,168.293535 136.142739,168.192713 C136.167974,168.091842 136.212691,167.972671 136.276887,167.835151 C136.340988,167.697704 136.419031,167.583132 136.510678,167.491484 C136.597847,167.404388 136.700885,167.360827 136.820032,167.360827 C137.030995,167.360827 137.219949,167.384883 137.387401,167.433018 C137.554683,167.481106 137.692131,167.540679 137.799912,167.611715 C137.907717,167.682798 137.999341,167.775482 138.075,167.890198 C138.15049,168.004698 138.205537,168.107904 138.239971,168.199551 C138.27426,168.291175 138.301808,168.405771 138.322565,168.543219 C138.343008,168.680739 138.354687,168.783896 138.35683,168.852644 C138.358997,168.921344 138.360322,169.010801 138.360322,169.120749 C138.360322,169.294918 138.33865,169.46916 138.295041,169.643233 C138.251361,169.817402 138.208041,169.95485 138.164529,170.055793 C138.120944,170.156543 138.057807,170.28496 137.975334,170.440709 C137.961632,170.46816 137.938636,170.509432 137.906658,170.564455 C137.874704,170.619453 137.849227,170.669924 137.831095,170.715748 C137.812795,170.761572 137.794446,170.816571 137.776145,170.880719 L139.680426,170.880719 C140.037915,170.880719 140.347244,171.011328 140.608486,171.272691 C140.869198,171.534077 141,171.843406 141,172.200896 C141,172.595106 140.873918,172.936534 140.62185,173.225251 Z M132.420022,171.760885 C132.539193,171.760885 132.642279,171.804421 132.729376,171.891542 C132.816424,171.978615 132.859985,172.081724 132.859985,172.200896 L132.859985,176.60105 C132.859985,176.720076 132.816448,176.823234 132.729376,176.910403 C132.642255,176.997355 132.539169,177.04094 132.420022,177.04094 L130.440107,177.04094 C130.320936,177.04094 130.217802,176.997355 130.130657,176.910403 C130.04356,176.823234 130,176.720052 130,176.60105 L130,172.200896 C130,172.081724 130.04356,171.978591 130.130633,171.891542 C130.217706,171.804445 130.32084,171.760885 130.440083,171.760885 L132.420022,171.760885 Z" id="Combined-Shape" transform="translate(135.500000, 172.640834) scale(1, -1) translate(-135.500000, -172.640834) "></path>
        </g>
    </g>
</svg>
