<svg xmlns="http://www.w3.org/2000/svg" width="24" height="24" viewBox="0 0 24 24">
    <g fill="none" fill-rule="evenodd" transform="translate(0 1)">
        <ellipse cx="20.5" cy="3.625" fill="#182844" rx="3.5" ry="3.625"/>
        <ellipse cx="20.5" cy="18.375" fill="#182844" rx="3.5" ry="3.625"/>
        <path fill="#182844" d="M5 10h5v2H5z"/>
        <path fill="#182844" d="M2 8h2a2 2 0 0 1 2 2v2a2 2 0 0 1-2 2H2a2 2 0 0 1-2-2v-2a2 2 0 0 1 2-2z"/>
        <path stroke="#182844" stroke-width="2" d="M20 18V4h-9a1 1 0 0 0-1 1v12a1 1 0 0 0 1 1h9z"/>
    </g>
</svg>
