<?xml version="1.0" encoding="UTF-8" standalone="no"?>
<!DOCTYPE svg PUBLIC "-//W3C//DTD SVG 1.1//EN"
 "http://www.w3.org/Graphics/SVG/1.1/DTD/svg11.dtd">
<!-- Generated by graphviz version 2.40.1 (20161225.0304)
 -->
<!-- Title: dependencies Pages: 1 -->
<svg width="1626pt" height="284pt"
 viewBox="0.00 0.00 1626.00 284.00" xmlns="http://www.w3.org/2000/svg" xmlns:xlink="http://www.w3.org/1999/xlink">
<g id="graph0" class="graph" transform="scale(1 1) rotate(0) translate(4 280)">
<title>dependencies</title>
<polygon fill="#ffffff" stroke="transparent" points="-4,4 -4,-280 1622,-280 1622,4 -4,4"/>
<text text-anchor="start" x="788.0091" y="-42.4" font-family="sans-serif" font-weight="bold" font-size="14.00" fill="#000000">Legend</text>
<polygon fill="#ffffb3" stroke="transparent" points="575,-10 575,-30 595,-30 595,-10 575,-10"/>
<text text-anchor="start" x="598.629" y="-15.4" font-family="sans-serif" font-size="14.00" fill="#000000"> &#160;Declarations</text>
<polygon fill="#8dd3c7" stroke="transparent" points="688,-10 688,-30 708,-30 708,-10 688,-10"/>
<text text-anchor="start" x="711.7251" y="-15.4" font-family="sans-serif" font-size="14.00" fill="#000000"> &#160;Module</text>
<polygon fill="#80b1d3" stroke="transparent" points="774,-10 774,-30 794,-30 794,-10 774,-10"/>
<text text-anchor="start" x="797.7812" y="-15.4" font-family="sans-serif" font-size="14.00" fill="#000000"> &#160;Bootstrap</text>
<polygon fill="#fdb462" stroke="transparent" points="871,-10 871,-30 891,-30 891,-10 871,-10"/>
<text text-anchor="start" x="894.6732" y="-15.4" font-family="sans-serif" font-size="14.00" fill="#000000"> &#160;Providers</text>
<polygon fill="#fb8072" stroke="transparent" points="967,-10 967,-30 987,-30 987,-10 967,-10"/>
<text text-anchor="start" x="990.7258" y="-15.4" font-family="sans-serif" font-size="14.00" fill="#000000"> &#160;Exports</text>
<g id="clust1" class="cluster">
<title>cluster_DialogModule</title>
<polygon fill="none" stroke="#000000" stroke-dasharray="1,5" points="8,-70 8,-268 1610,-268 1610,-70 8,-70"/>
</g>
<g id="clust2" class="cluster">
<title>cluster_DialogModule_declarations</title>
<polygon fill="none" stroke="#000000" points="234,-78 234,-130 1602,-130 1602,-78 234,-78"/>
</g>
<g id="clust11" class="cluster">
<title>cluster_DialogModule_imports</title>
<polygon fill="none" stroke="#000000" points="16,-78 16,-130 226,-130 226,-78 16,-78"/>
</g>
<g id="clust12" class="cluster">
<title>cluster_DialogModule_exports</title>
<polygon fill="none" stroke="#000000" points="291,-208 291,-260 1169,-260 1169,-208 291,-208"/>
</g>
<!-- ConfirmDialogComponent -->
<g id="node1" class="node">
<title>ConfirmDialogComponent</title>
<polygon fill="#ffffb3" stroke="#000000" points="1594.3738,-122 1427.6262,-122 1427.6262,-86 1594.3738,-86 1594.3738,-122"/>
<text text-anchor="middle" x="1511" y="-99.8" font-family="Times,serif" font-size="14.00" fill="#000000">ConfirmDialogComponent</text>
</g>
<!-- DialogModule -->
<g id="node9" class="node">
<title>DialogModule</title>
<polygon fill="#8dd3c7" stroke="#000000" points="792.6528,-187 789.6528,-191 768.6528,-191 765.6528,-187 695.3472,-187 695.3472,-151 792.6528,-151 792.6528,-187"/>
<text text-anchor="middle" x="744" y="-164.8" font-family="Times,serif" font-size="14.00" fill="#000000">DialogModule</text>
</g>
<!-- ConfirmDialogComponent&#45;&gt;DialogModule -->
<g id="edge1" class="edge">
<title>ConfirmDialogComponent&#45;&gt;DialogModule</title>
<path fill="none" stroke="#000000" d="M1511,-122.2228C1511,-142.3652 1511,-172 1511,-172 1511,-172 802.8532,-172 802.8532,-172"/>
<polygon fill="#000000" stroke="#000000" points="802.8533,-168.5001 792.8532,-172 802.8532,-175.5001 802.8533,-168.5001"/>
</g>
<!-- DialogComponent -->
<g id="node2" class="node">
<title>DialogComponent</title>
<polygon fill="#ffffb3" stroke="#000000" points="1409.9356,-122 1290.0644,-122 1290.0644,-86 1409.9356,-86 1409.9356,-122"/>
<text text-anchor="middle" x="1350" y="-99.8" font-family="Times,serif" font-size="14.00" fill="#000000">DialogComponent</text>
</g>
<!-- DialogComponent&#45;&gt;DialogModule -->
<g id="edge2" class="edge">
<title>DialogComponent&#45;&gt;DialogModule</title>
<path fill="none" stroke="#000000" d="M1350,-122.2222C1350,-140.8285 1350,-167 1350,-167 1350,-167 802.8224,-167 802.8224,-167"/>
<polygon fill="#000000" stroke="#000000" points="802.8224,-163.5001 792.8224,-167 802.8224,-170.5001 802.8224,-163.5001"/>
</g>
<!-- DialogContainerComponent -->
<g id="node3" class="node">
<title>DialogContainerComponent</title>
<polygon fill="#ffffb3" stroke="#000000" points="1272.1428,-122 1097.8572,-122 1097.8572,-86 1272.1428,-86 1272.1428,-122"/>
<text text-anchor="middle" x="1185" y="-99.8" font-family="Times,serif" font-size="14.00" fill="#000000">DialogContainerComponent</text>
</g>
<!-- DialogContainerComponent&#45;&gt;DialogModule -->
<g id="edge3" class="edge">
<title>DialogContainerComponent&#45;&gt;DialogModule</title>
<path fill="none" stroke="#000000" d="M1129.5731,-122.0336C1129.5731,-139.0597 1129.5731,-162 1129.5731,-162 1129.5731,-162 802.8331,-162 802.8331,-162"/>
<polygon fill="#000000" stroke="#000000" points="802.8331,-158.5001 792.8331,-162 802.8331,-165.5001 802.8331,-158.5001"/>
</g>
<!-- DialogFooterComponent -->
<g id="node4" class="node">
<title>DialogFooterComponent</title>
<polygon fill="#ffffb3" stroke="#000000" points="1079.9832,-122 924.0168,-122 924.0168,-86 1079.9832,-86 1079.9832,-122"/>
<text text-anchor="middle" x="1002" y="-99.8" font-family="Times,serif" font-size="14.00" fill="#000000">DialogFooterComponent</text>
</g>
<!-- DialogFooterComponent&#45;&gt;DialogModule -->
<g id="edge4" class="edge">
<title>DialogFooterComponent&#45;&gt;DialogModule</title>
<path fill="none" stroke="#000000" d="M972.0398,-122.2396C972.0398,-137.5706 972.0398,-157 972.0398,-157 972.0398,-157 802.9203,-157 802.9203,-157"/>
<polygon fill="#000000" stroke="#000000" points="802.9203,-153.5001 792.9203,-157 802.9202,-160.5001 802.9203,-153.5001"/>
</g>
<!-- DialogHeaderComponent -->
<g id="node5" class="node">
<title>DialogHeaderComponent</title>
<polygon fill="#ffffb3" stroke="#000000" points="905.8459,-122 746.1541,-122 746.1541,-86 905.8459,-86 905.8459,-122"/>
<text text-anchor="middle" x="826" y="-99.8" font-family="Times,serif" font-size="14.00" fill="#000000">DialogHeaderComponent</text>
</g>
<!-- DialogHeaderComponent&#45;&gt;DialogModule -->
<g id="edge5" class="edge">
<title>DialogHeaderComponent&#45;&gt;DialogModule</title>
<path fill="none" stroke="#000000" d="M769.4516,-122.1061C769.4516,-122.1061 769.4516,-140.991 769.4516,-140.991"/>
<polygon fill="#000000" stroke="#000000" points="765.9517,-140.9909 769.4516,-150.991 772.9517,-140.991 765.9517,-140.9909"/>
</g>
<!-- DialogHostDirective -->
<g id="node6" class="node">
<title>DialogHostDirective</title>
<polygon fill="#ffffb3" stroke="#000000" points="728.1275,-122 595.8725,-122 595.8725,-86 728.1275,-86 728.1275,-122"/>
<text text-anchor="middle" x="662" y="-99.8" font-family="Times,serif" font-size="14.00" fill="#000000">DialogHostDirective</text>
</g>
<!-- DialogHostDirective&#45;&gt;DialogModule -->
<g id="edge6" class="edge">
<title>DialogHostDirective&#45;&gt;DialogModule</title>
<path fill="none" stroke="#000000" d="M711.7437,-122.1061C711.7437,-122.1061 711.7437,-140.991 711.7437,-140.991"/>
<polygon fill="#000000" stroke="#000000" points="708.2438,-140.9909 711.7437,-150.991 715.2438,-140.991 708.2438,-140.9909"/>
</g>
<!-- DialogModalComponent -->
<g id="node7" class="node">
<title>DialogModalComponent</title>
<polygon fill="#ffffb3" stroke="#000000" points="577.9846,-122 422.0154,-122 422.0154,-86 577.9846,-86 577.9846,-122"/>
<text text-anchor="middle" x="500" y="-99.8" font-family="Times,serif" font-size="14.00" fill="#000000">DialogModalComponent</text>
</g>
<!-- DialogModalComponent&#45;&gt;DialogModule -->
<g id="edge7" class="edge">
<title>DialogModalComponent&#45;&gt;DialogModule</title>
<path fill="none" stroke="#000000" d="M530.6597,-122.2396C530.6597,-137.5706 530.6597,-157 530.6597,-157 530.6597,-157 685.3228,-157 685.3228,-157"/>
<polygon fill="#000000" stroke="#000000" points="685.3229,-160.5001 695.3228,-157 685.3228,-153.5001 685.3229,-160.5001"/>
</g>
<!-- DialogSubtitleComponent -->
<g id="node8" class="node">
<title>DialogSubtitleComponent</title>
<polygon fill="#ffffb3" stroke="#000000" points="404.4944,-122 241.5056,-122 241.5056,-86 404.4944,-86 404.4944,-122"/>
<text text-anchor="middle" x="323" y="-99.8" font-family="Times,serif" font-size="14.00" fill="#000000">DialogSubtitleComponent</text>
</g>
<!-- DialogSubtitleComponent&#45;&gt;DialogModule -->
<g id="edge8" class="edge">
<title>DialogSubtitleComponent&#45;&gt;DialogModule</title>
<path fill="none" stroke="#000000" d="M351.625,-122.0336C351.625,-139.0597 351.625,-162 351.625,-162 351.625,-162 685.0988,-162 685.0988,-162"/>
<polygon fill="#000000" stroke="#000000" points="685.0988,-165.5001 695.0988,-162 685.0988,-158.5001 685.0988,-165.5001"/>
</g>
<!-- DialogComponent  -->
<g id="node12" class="node">
<title>DialogComponent </title>
<polygon fill="#fb8072" stroke="#000000" points="1161.4348,-252 1038.5652,-252 1038.5652,-216 1161.4348,-216 1161.4348,-252"/>
<text text-anchor="middle" x="1100" y="-229.8" font-family="Times,serif" font-size="14.00" fill="#000000">DialogComponent </text>
</g>
<!-- DialogModule&#45;&gt;DialogComponent  -->
<g id="edge11" class="edge">
<title>DialogModule&#45;&gt;DialogComponent </title>
<path fill="none" stroke="#000000" stroke-dasharray="5,2" d="M792.9138,-177C881.4651,-177 1059.2621,-177 1059.2621,-177 1059.2621,-177 1059.2621,-205.9648 1059.2621,-205.9648"/>
<polygon fill="#000000" stroke="#000000" points="1055.7622,-205.9648 1059.2621,-215.9648 1062.7622,-205.9649 1055.7622,-205.9648"/>
</g>
<!-- DialogContainerComponent  -->
<g id="node13" class="node">
<title>DialogContainerComponent </title>
<polygon fill="#fb8072" stroke="#000000" points="1020.1425,-252 841.8575,-252 841.8575,-216 1020.1425,-216 1020.1425,-252"/>
<text text-anchor="middle" x="931" y="-229.8" font-family="Times,serif" font-size="14.00" fill="#000000">DialogContainerComponent </text>
</g>
<!-- DialogModule&#45;&gt;DialogContainerComponent  -->
<g id="edge12" class="edge">
<title>DialogModule&#45;&gt;DialogContainerComponent </title>
<path fill="none" stroke="#000000" stroke-dasharray="5,2" d="M792.7492,-182C829.6162,-182 873.9259,-182 873.9259,-182 873.9259,-182 873.9259,-205.8129 873.9259,-205.8129"/>
<polygon fill="#000000" stroke="#000000" points="870.4259,-205.8129 873.9259,-215.8129 877.4259,-205.813 870.4259,-205.8129"/>
</g>
<!-- DialogFooterComponent  -->
<g id="node14" class="node">
<title>DialogFooterComponent </title>
<polygon fill="#fb8072" stroke="#000000" points="823.9839,-252 664.0161,-252 664.0161,-216 823.9839,-216 823.9839,-252"/>
<text text-anchor="middle" x="744" y="-229.8" font-family="Times,serif" font-size="14.00" fill="#000000">DialogFooterComponent </text>
</g>
<!-- DialogModule&#45;&gt;DialogFooterComponent  -->
<g id="edge13" class="edge">
<title>DialogModule&#45;&gt;DialogFooterComponent </title>
<path fill="none" stroke="#000000" stroke-dasharray="5,2" d="M744,-187.1061C744,-187.1061 744,-205.991 744,-205.991"/>
<polygon fill="#000000" stroke="#000000" points="740.5001,-205.9909 744,-215.991 747.5001,-205.991 740.5001,-205.9909"/>
</g>
<!-- DialogHeaderComponent  -->
<g id="node15" class="node">
<title>DialogHeaderComponent </title>
<polygon fill="#fb8072" stroke="#000000" points="646.8462,-252 483.1538,-252 483.1538,-216 646.8462,-216 646.8462,-252"/>
<text text-anchor="middle" x="565" y="-229.8" font-family="Times,serif" font-size="14.00" fill="#000000">DialogHeaderComponent </text>
</g>
<!-- DialogModule&#45;&gt;DialogHeaderComponent  -->
<g id="edge14" class="edge">
<title>DialogModule&#45;&gt;DialogHeaderComponent </title>
<path fill="none" stroke="#000000" stroke-dasharray="5,2" d="M695.1053,-182C660.8546,-182 621.1797,-182 621.1797,-182 621.1797,-182 621.1797,-205.8129 621.1797,-205.8129"/>
<polygon fill="#000000" stroke="#000000" points="617.6798,-205.8129 621.1797,-215.8129 624.6798,-205.813 617.6798,-205.8129"/>
</g>
<!-- DialogSubtitleComponent  -->
<g id="node16" class="node">
<title>DialogSubtitleComponent </title>
<polygon fill="#fb8072" stroke="#000000" points="465.4951,-252 298.5049,-252 298.5049,-216 465.4951,-216 465.4951,-252"/>
<text text-anchor="middle" x="382" y="-229.8" font-family="Times,serif" font-size="14.00" fill="#000000">DialogSubtitleComponent </text>
</g>
<!-- DialogModule&#45;&gt;DialogSubtitleComponent  -->
<g id="edge15" class="edge">
<title>DialogModule&#45;&gt;DialogSubtitleComponent </title>
<path fill="none" stroke="#000000" stroke-dasharray="5,2" d="M695.0714,-177C609.9573,-177 443.6275,-177 443.6275,-177 443.6275,-177 443.6275,-205.9648 443.6275,-205.9648"/>
<polygon fill="#000000" stroke="#000000" points="440.1275,-205.9648 443.6275,-215.9648 447.1275,-205.9649 440.1275,-205.9648"/>
</g>
<!-- IconsModule -->
<g id="node10" class="node">
<title>IconsModule</title>
<polygon fill="#8dd3c7" stroke="#000000" points="217.8697,-122 214.8697,-126 193.8697,-126 190.8697,-122 128.1303,-122 128.1303,-86 217.8697,-86 217.8697,-122"/>
<text text-anchor="middle" x="173" y="-99.8" font-family="Times,serif" font-size="14.00" fill="#000000">IconsModule</text>
</g>
<!-- IconsModule&#45;&gt;DialogModule -->
<g id="edge9" class="edge">
<title>IconsModule&#45;&gt;DialogModule</title>
<path fill="none" stroke="#000000" d="M173,-122.2222C173,-140.8285 173,-167 173,-167 173,-167 685.3169,-167 685.3169,-167"/>
<polygon fill="#000000" stroke="#000000" points="685.3169,-170.5001 695.3169,-167 685.3168,-163.5001 685.3169,-170.5001"/>
</g>
<!-- UtilsModule -->
<g id="node11" class="node">
<title>UtilsModule</title>
<polygon fill="#8dd3c7" stroke="#000000" points="110.2731,-122 107.2731,-126 86.2731,-126 83.2731,-122 23.7269,-122 23.7269,-86 110.2731,-86 110.2731,-122"/>
<text text-anchor="middle" x="67" y="-99.8" font-family="Times,serif" font-size="14.00" fill="#000000">UtilsModule</text>
</g>
<!-- UtilsModule&#45;&gt;DialogModule -->
<g id="edge10" class="edge">
<title>UtilsModule&#45;&gt;DialogModule</title>
<path fill="none" stroke="#000000" d="M67,-122.2228C67,-142.3652 67,-172 67,-172 67,-172 685.3118,-172 685.3118,-172"/>
<polygon fill="#000000" stroke="#000000" points="685.3119,-175.5001 695.3118,-172 685.3118,-168.5001 685.3119,-175.5001"/>
</g>
</g>
</svg>
