<?xml version="1.0" encoding="UTF-8" standalone="no"?>
<!DOCTYPE svg PUBLIC "-//W3C//DTD SVG 1.1//EN"
 "http://www.w3.org/Graphics/SVG/1.1/DTD/svg11.dtd">
<!-- Generated by graphviz version 2.40.1 (20161225.0304)
 -->
<!-- Title: dependencies Pages: 1 -->
<svg width="1973pt" height="211pt"
 viewBox="0.00 0.00 1973.00 211.00" xmlns="http://www.w3.org/2000/svg" xmlns:xlink="http://www.w3.org/1999/xlink">
<g id="graph0" class="graph" transform="scale(1 1) rotate(0) translate(4 207)">
<title>dependencies</title>
<polygon fill="#ffffff" stroke="transparent" points="-4,4 -4,-207 1969,-207 1969,4 -4,4"/>
<text text-anchor="start" x="961.5091" y="-42.4" font-family="sans-serif" font-weight="bold" font-size="14.00" fill="#000000">Legend</text>
<polygon fill="#ffffb3" stroke="transparent" points="748.5,-10 748.5,-30 768.5,-30 768.5,-10 748.5,-10"/>
<text text-anchor="start" x="772.129" y="-15.4" font-family="sans-serif" font-size="14.00" fill="#000000"> &#160;Declarations</text>
<polygon fill="#8dd3c7" stroke="transparent" points="861.5,-10 861.5,-30 881.5,-30 881.5,-10 861.5,-10"/>
<text text-anchor="start" x="885.2251" y="-15.4" font-family="sans-serif" font-size="14.00" fill="#000000"> &#160;Module</text>
<polygon fill="#80b1d3" stroke="transparent" points="947.5,-10 947.5,-30 967.5,-30 967.5,-10 947.5,-10"/>
<text text-anchor="start" x="971.2812" y="-15.4" font-family="sans-serif" font-size="14.00" fill="#000000"> &#160;Bootstrap</text>
<polygon fill="#fdb462" stroke="transparent" points="1044.5,-10 1044.5,-30 1064.5,-30 1064.5,-10 1044.5,-10"/>
<text text-anchor="start" x="1068.1732" y="-15.4" font-family="sans-serif" font-size="14.00" fill="#000000"> &#160;Providers</text>
<polygon fill="#fb8072" stroke="transparent" points="1140.5,-10 1140.5,-30 1160.5,-30 1160.5,-10 1140.5,-10"/>
<text text-anchor="start" x="1164.2258" y="-15.4" font-family="sans-serif" font-size="14.00" fill="#000000"> &#160;Exports</text>
<g id="clust1" class="cluster">
<title>cluster_GlobalServicesModule</title>
<polygon fill="none" stroke="#000000" stroke-dasharray="1,5" points="8,-70 8,-195 1957,-195 1957,-70 8,-70"/>
</g>
<g id="clust6" class="cluster">
<title>cluster_GlobalServicesModule_providers</title>
<polygon fill="none" stroke="#000000" points="16,-78 16,-130 1949,-130 1949,-78 16,-78"/>
</g>
<!-- CategoryService -->
<g id="node1" class="node">
<title>CategoryService</title>
<ellipse fill="#fdb462" stroke="#000000" cx="1866" cy="-104" rx="75.279" ry="18"/>
<text text-anchor="middle" x="1866" y="-99.8" font-family="Times,serif" font-size="14.00" fill="#000000">CategoryService</text>
</g>
<!-- GlobalServicesModule -->
<g id="node13" class="node">
<title>GlobalServicesModule</title>
<polygon fill="#8dd3c7" stroke="#000000" points="1033.5744,-187 1030.5744,-191 1009.5744,-191 1006.5744,-187 888.4256,-187 888.4256,-151 1033.5744,-151 1033.5744,-187"/>
<text text-anchor="middle" x="961" y="-164.8" font-family="Times,serif" font-size="14.00" fill="#000000">GlobalServicesModule</text>
</g>
<!-- CategoryService&#45;&gt;GlobalServicesModule -->
<g id="edge1" class="edge">
<title>CategoryService&#45;&gt;GlobalServicesModule</title>
<path fill="none" stroke="#000000" d="M1866,-122.0908C1866,-145.1328 1866,-182 1866,-182 1866,-182 1043.9113,-182 1043.9113,-182"/>
<polygon fill="#000000" stroke="#000000" points="1043.9114,-178.5001 1033.9113,-182 1043.9113,-185.5001 1043.9114,-178.5001"/>
</g>
<!-- ContactService -->
<g id="node2" class="node">
<title>ContactService</title>
<ellipse fill="#fdb462" stroke="#000000" cx="1703" cy="-104" rx="70.0596" ry="18"/>
<text text-anchor="middle" x="1703" y="-99.8" font-family="Times,serif" font-size="14.00" fill="#000000">ContactService</text>
</g>
<!-- ContactService&#45;&gt;GlobalServicesModule -->
<g id="edge2" class="edge">
<title>ContactService&#45;&gt;GlobalServicesModule</title>
<path fill="none" stroke="#000000" d="M1703,-122.2843C1703,-143.3211 1703,-175 1703,-175 1703,-175 1043.8365,-175 1043.8365,-175"/>
<polygon fill="#000000" stroke="#000000" points="1043.8365,-171.5001 1033.8365,-175 1043.8364,-178.5001 1043.8365,-171.5001"/>
</g>
<!-- EventService -->
<g id="node3" class="node">
<title>EventService</title>
<ellipse fill="#fdb462" stroke="#000000" cx="1552" cy="-104" rx="62.5373" ry="18"/>
<text text-anchor="middle" x="1552" y="-99.8" font-family="Times,serif" font-size="14.00" fill="#000000">EventService</text>
</g>
<!-- EventService&#45;&gt;GlobalServicesModule -->
<g id="edge3" class="edge">
<title>EventService&#45;&gt;GlobalServicesModule</title>
<path fill="none" stroke="#000000" d="M1552,-122.1061C1552,-141.3391 1552,-169 1552,-169 1552,-169 1043.7643,-169 1043.7643,-169"/>
<polygon fill="#000000" stroke="#000000" points="1043.7644,-165.5001 1033.7643,-169 1043.7643,-172.5001 1043.7644,-165.5001"/>
</g>
<!-- ProductService -->
<g id="node4" class="node">
<title>ProductService</title>
<ellipse fill="#fdb462" stroke="#000000" cx="1401" cy="-104" rx="70.0616" ry="18"/>
<text text-anchor="middle" x="1401" y="-99.8" font-family="Times,serif" font-size="14.00" fill="#000000">ProductService</text>
</g>
<!-- ProductService&#45;&gt;GlobalServicesModule -->
<g id="edge4" class="edge">
<title>ProductService&#45;&gt;GlobalServicesModule</title>
<path fill="none" stroke="#000000" d="M1401,-122.0225C1401,-139.3734 1401,-163 1401,-163 1401,-163 1043.6571,-163 1043.6571,-163"/>
<polygon fill="#000000" stroke="#000000" points="1043.6571,-159.5001 1033.6571,-163 1043.657,-166.5001 1043.6571,-159.5001"/>
</g>
<!-- ProductStatusService -->
<g id="node5" class="node">
<title>ProductStatusService</title>
<ellipse fill="#fdb462" stroke="#000000" cx="1219" cy="-104" rx="93.7746" ry="18"/>
<text text-anchor="middle" x="1219" y="-99.8" font-family="Times,serif" font-size="14.00" fill="#000000">ProductStatusService</text>
</g>
<!-- ProductStatusService&#45;&gt;GlobalServicesModule -->
<g id="edge5" class="edge">
<title>ProductStatusService&#45;&gt;GlobalServicesModule</title>
<path fill="none" stroke="#000000" d="M1219,-122.2396C1219,-137.5706 1219,-157 1219,-157 1219,-157 1043.554,-157 1043.554,-157"/>
<polygon fill="#000000" stroke="#000000" points="1043.554,-153.5001 1033.554,-157 1043.5539,-160.5001 1043.554,-153.5001"/>
</g>
<!-- ProjectService -->
<g id="node6" class="node">
<title>ProjectService</title>
<ellipse fill="#fdb462" stroke="#000000" cx="1040" cy="-104" rx="67.1888" ry="18"/>
<text text-anchor="middle" x="1040" y="-99.8" font-family="Times,serif" font-size="14.00" fill="#000000">ProjectService</text>
</g>
<!-- ProjectService&#45;&gt;GlobalServicesModule -->
<g id="edge6" class="edge">
<title>ProjectService&#45;&gt;GlobalServicesModule</title>
<path fill="none" stroke="#000000" d="M1003.0965,-119.0757C1003.0965,-119.0757 1003.0965,-140.7642 1003.0965,-140.7642"/>
<polygon fill="#000000" stroke="#000000" points="999.5966,-140.7642 1003.0965,-150.7642 1006.5966,-140.7642 999.5966,-140.7642"/>
</g>
<!-- SupplierService -->
<g id="node7" class="node">
<title>SupplierService</title>
<ellipse fill="#fdb462" stroke="#000000" cx="882" cy="-104" rx="72.9295" ry="18"/>
<text text-anchor="middle" x="882" y="-99.8" font-family="Times,serif" font-size="14.00" fill="#000000">SupplierService</text>
</g>
<!-- SupplierService&#45;&gt;GlobalServicesModule -->
<g id="edge7" class="edge">
<title>SupplierService&#45;&gt;GlobalServicesModule</title>
<path fill="none" stroke="#000000" d="M921.5886,-119.4041C921.5886,-119.4041 921.5886,-140.9397 921.5886,-140.9397"/>
<polygon fill="#000000" stroke="#000000" points="918.0887,-140.9397 921.5886,-150.9397 925.0887,-140.9398 918.0887,-140.9397"/>
</g>
<!-- SupplierTypeService -->
<g id="node8" class="node">
<title>SupplierTypeService</title>
<ellipse fill="#fdb462" stroke="#000000" cx="699" cy="-104" rx="92.6151" ry="18"/>
<text text-anchor="middle" x="699" y="-99.8" font-family="Times,serif" font-size="14.00" fill="#000000">SupplierTypeService</text>
</g>
<!-- SupplierTypeService&#45;&gt;GlobalServicesModule -->
<g id="edge8" class="edge">
<title>SupplierTypeService&#45;&gt;GlobalServicesModule</title>
<path fill="none" stroke="#000000" d="M699,-122.2396C699,-137.5706 699,-157 699,-157 699,-157 878.3663,-157 878.3663,-157"/>
<polygon fill="#000000" stroke="#000000" points="878.3664,-160.5001 888.3663,-157 878.3663,-153.5001 878.3664,-160.5001"/>
</g>
<!-- TagService -->
<g id="node9" class="node">
<title>TagService</title>
<ellipse fill="#fdb462" stroke="#000000" cx="533" cy="-104" rx="55.013" ry="18"/>
<text text-anchor="middle" x="533" y="-99.8" font-family="Times,serif" font-size="14.00" fill="#000000">TagService</text>
</g>
<!-- TagService&#45;&gt;GlobalServicesModule -->
<g id="edge9" class="edge">
<title>TagService&#45;&gt;GlobalServicesModule</title>
<path fill="none" stroke="#000000" d="M533,-122.0225C533,-139.3734 533,-163 533,-163 533,-163 878.3956,-163 878.3956,-163"/>
<polygon fill="#000000" stroke="#000000" points="878.3957,-166.5001 888.3956,-163 878.3956,-159.5001 878.3957,-166.5001"/>
</g>
<!-- TeamService -->
<g id="node10" class="node">
<title>TeamService</title>
<ellipse fill="#fdb462" stroke="#000000" cx="398" cy="-104" rx="61.9538" ry="18"/>
<text text-anchor="middle" x="398" y="-99.8" font-family="Times,serif" font-size="14.00" fill="#000000">TeamService</text>
</g>
<!-- TeamService&#45;&gt;GlobalServicesModule -->
<g id="edge10" class="edge">
<title>TeamService&#45;&gt;GlobalServicesModule</title>
<path fill="none" stroke="#000000" d="M398,-122.1061C398,-141.3391 398,-169 398,-169 398,-169 878.2627,-169 878.2627,-169"/>
<polygon fill="#000000" stroke="#000000" points="878.2627,-172.5001 888.2627,-169 878.2627,-165.5001 878.2627,-172.5001"/>
</g>
<!-- TeamUserService -->
<g id="node11" class="node">
<title>TeamUserService</title>
<ellipse fill="#fdb462" stroke="#000000" cx="238" cy="-104" rx="80.4112" ry="18"/>
<text text-anchor="middle" x="238" y="-99.8" font-family="Times,serif" font-size="14.00" fill="#000000">TeamUserService</text>
</g>
<!-- TeamUserService&#45;&gt;GlobalServicesModule -->
<g id="edge11" class="edge">
<title>TeamUserService&#45;&gt;GlobalServicesModule</title>
<path fill="none" stroke="#000000" d="M238,-122.2843C238,-143.3211 238,-175 238,-175 238,-175 878.3657,-175 878.3657,-175"/>
<polygon fill="#000000" stroke="#000000" points="878.3657,-178.5001 888.3657,-175 878.3657,-171.5001 878.3657,-178.5001"/>
</g>
<!-- UserService -->
<g id="node12" class="node">
<title>UserService</title>
<ellipse fill="#fdb462" stroke="#000000" cx="82" cy="-104" rx="58.4415" ry="18"/>
<text text-anchor="middle" x="82" y="-99.8" font-family="Times,serif" font-size="14.00" fill="#000000">UserService</text>
</g>
<!-- UserService&#45;&gt;GlobalServicesModule -->
<g id="edge12" class="edge">
<title>UserService&#45;&gt;GlobalServicesModule</title>
<path fill="none" stroke="#000000" d="M82,-122.0908C82,-145.1328 82,-182 82,-182 82,-182 878.3199,-182 878.3199,-182"/>
<polygon fill="#000000" stroke="#000000" points="878.3199,-185.5001 888.3199,-182 878.3199,-178.5001 878.3199,-185.5001"/>
</g>
</g>
</svg>
