<?xml version="1.0" encoding="UTF-8" standalone="no"?>
<!DOCTYPE svg PUBLIC "-//W3C//DTD SVG 1.1//EN"
 "http://www.w3.org/Graphics/SVG/1.1/DTD/svg11.dtd">
<!-- Generated by graphviz version 2.40.1 (20161225.0304)
 -->
<!-- Title: dependencies Pages: 1 -->
<svg width="504pt" height="284pt"
 viewBox="0.00 0.00 504.00 284.00" xmlns="http://www.w3.org/2000/svg" xmlns:xlink="http://www.w3.org/1999/xlink">
<g id="graph0" class="graph" transform="scale(1 1) rotate(0) translate(4 280)">
<title>dependencies</title>
<polygon fill="#ffffff" stroke="transparent" points="-4,4 -4,-280 500,-280 500,4 -4,4"/>
<text text-anchor="start" x="227.0091" y="-42.4" font-family="sans-serif" font-weight="bold" font-size="14.00" fill="#000000">Legend</text>
<polygon fill="#ffffb3" stroke="transparent" points="14,-10 14,-30 34,-30 34,-10 14,-10"/>
<text text-anchor="start" x="37.629" y="-15.4" font-family="sans-serif" font-size="14.00" fill="#000000"> &#160;Declarations</text>
<polygon fill="#8dd3c7" stroke="transparent" points="127,-10 127,-30 147,-30 147,-10 127,-10"/>
<text text-anchor="start" x="150.7251" y="-15.4" font-family="sans-serif" font-size="14.00" fill="#000000"> &#160;Module</text>
<polygon fill="#80b1d3" stroke="transparent" points="213,-10 213,-30 233,-30 233,-10 213,-10"/>
<text text-anchor="start" x="236.7812" y="-15.4" font-family="sans-serif" font-size="14.00" fill="#000000"> &#160;Bootstrap</text>
<polygon fill="#fdb462" stroke="transparent" points="310,-10 310,-30 330,-30 330,-10 310,-10"/>
<text text-anchor="start" x="333.6732" y="-15.4" font-family="sans-serif" font-size="14.00" fill="#000000"> &#160;Providers</text>
<polygon fill="#fb8072" stroke="transparent" points="406,-10 406,-30 426,-30 426,-10 406,-10"/>
<text text-anchor="start" x="429.7258" y="-15.4" font-family="sans-serif" font-size="14.00" fill="#000000"> &#160;Exports</text>
<g id="clust1" class="cluster">
<title>cluster_TagModule</title>
<polygon fill="none" stroke="#000000" stroke-dasharray="1,5" points="106,-70 106,-268 390,-268 390,-70 106,-70"/>
</g>
<g id="clust2" class="cluster">
<title>cluster_TagModule_declarations</title>
<polygon fill="none" stroke="#000000" points="117,-78 117,-130 379,-130 379,-78 117,-78"/>
</g>
<g id="clust6" class="cluster">
<title>cluster_TagModule_exports</title>
<polygon fill="none" stroke="#000000" points="114,-208 114,-260 382,-260 382,-208 114,-208"/>
</g>
<!-- TagComponent -->
<g id="node1" class="node">
<title>TagComponent</title>
<polygon fill="#ffffb3" stroke="#000000" points="370.5996,-122 267.4004,-122 267.4004,-86 370.5996,-86 370.5996,-122"/>
<text text-anchor="middle" x="319" y="-99.8" font-family="Times,serif" font-size="14.00" fill="#000000">TagComponent</text>
</g>
<!-- TagModule -->
<g id="node3" class="node">
<title>TagModule</title>
<polygon fill="#8dd3c7" stroke="#000000" points="228.8176,-187 225.8176,-191 204.8176,-191 201.8176,-187 147.1824,-187 147.1824,-151 228.8176,-151 228.8176,-187"/>
<text text-anchor="middle" x="188" y="-164.8" font-family="Times,serif" font-size="14.00" fill="#000000">TagModule</text>
</g>
<!-- TagComponent&#45;&gt;TagModule -->
<g id="edge1" class="edge">
<title>TagComponent&#45;&gt;TagModule</title>
<path fill="none" stroke="#000000" d="M336.2666,-122.0225C336.2666,-139.3734 336.2666,-163 336.2666,-163 336.2666,-163 238.907,-163 238.907,-163"/>
<polygon fill="#000000" stroke="#000000" points="238.907,-159.5001 228.907,-163 238.9069,-166.5001 238.907,-159.5001"/>
</g>
<!-- TagListComponent -->
<g id="node2" class="node">
<title>TagListComponent</title>
<polygon fill="#ffffb3" stroke="#000000" points="249.3781,-122 124.6219,-122 124.6219,-86 249.3781,-86 249.3781,-122"/>
<text text-anchor="middle" x="187" y="-99.8" font-family="Times,serif" font-size="14.00" fill="#000000">TagListComponent</text>
</g>
<!-- TagListComponent&#45;&gt;TagModule -->
<g id="edge2" class="edge">
<title>TagListComponent&#45;&gt;TagModule</title>
<path fill="none" stroke="#000000" d="M188,-122.1061C188,-122.1061 188,-140.991 188,-140.991"/>
<polygon fill="#000000" stroke="#000000" points="184.5001,-140.9909 188,-150.991 191.5001,-140.991 184.5001,-140.9909"/>
</g>
<!-- TagComponent  -->
<g id="node4" class="node">
<title>TagComponent </title>
<polygon fill="#fb8072" stroke="#000000" points="374.1003,-252 267.8997,-252 267.8997,-216 374.1003,-216 374.1003,-252"/>
<text text-anchor="middle" x="321" y="-229.8" font-family="Times,serif" font-size="14.00" fill="#000000">TagComponent </text>
</g>
<!-- TagModule&#45;&gt;TagComponent  -->
<g id="edge3" class="edge">
<title>TagModule&#45;&gt;TagComponent </title>
<path fill="none" stroke="#000000" stroke-dasharray="5,2" d="M228.8287,-175C261.535,-175 301.9834,-175 301.9834,-175 301.9834,-175 301.9834,-205.9775 301.9834,-205.9775"/>
<polygon fill="#000000" stroke="#000000" points="298.4835,-205.9774 301.9834,-215.9775 305.4835,-205.9775 298.4835,-205.9774"/>
</g>
<!-- TagListComponent  -->
<g id="node5" class="node">
<title>TagListComponent </title>
<polygon fill="#fb8072" stroke="#000000" points="250.3786,-252 121.6214,-252 121.6214,-216 250.3786,-216 250.3786,-252"/>
<text text-anchor="middle" x="186" y="-229.8" font-family="Times,serif" font-size="14.00" fill="#000000">TagListComponent </text>
</g>
<!-- TagModule&#45;&gt;TagListComponent  -->
<g id="edge4" class="edge">
<title>TagModule&#45;&gt;TagListComponent </title>
<path fill="none" stroke="#000000" stroke-dasharray="5,2" d="M188,-187.1061C188,-187.1061 188,-205.991 188,-205.991"/>
<polygon fill="#000000" stroke="#000000" points="184.5001,-205.9909 188,-215.991 191.5001,-205.991 184.5001,-205.9909"/>
</g>
</g>
</svg>
