<?xml version="1.0" encoding="UTF-8" standalone="no"?>
<!DOCTYPE svg PUBLIC "-//W3C//DTD SVG 1.1//EN"
 "http://www.w3.org/Graphics/SVG/1.1/DTD/svg11.dtd">
<!-- Generated by graphviz version 2.40.1 (20161225.0304)
 -->
<!-- Title: dependencies Pages: 1 -->
<svg width="1085pt" height="284pt"
 viewBox="0.00 0.00 1085.00 284.00" xmlns="http://www.w3.org/2000/svg" xmlns:xlink="http://www.w3.org/1999/xlink">
<g id="graph0" class="graph" transform="scale(1 1) rotate(0) translate(4 280)">
<title>dependencies</title>
<polygon fill="#ffffff" stroke="transparent" points="-4,4 -4,-280 1081,-280 1081,4 -4,4"/>
<text text-anchor="start" x="517.5091" y="-42.4" font-family="sans-serif" font-weight="bold" font-size="14.00" fill="#000000">Legend</text>
<polygon fill="#ffffb3" stroke="transparent" points="304.5,-10 304.5,-30 324.5,-30 324.5,-10 304.5,-10"/>
<text text-anchor="start" x="328.129" y="-15.4" font-family="sans-serif" font-size="14.00" fill="#000000"> &#160;Declarations</text>
<polygon fill="#8dd3c7" stroke="transparent" points="417.5,-10 417.5,-30 437.5,-30 437.5,-10 417.5,-10"/>
<text text-anchor="start" x="441.2251" y="-15.4" font-family="sans-serif" font-size="14.00" fill="#000000"> &#160;Module</text>
<polygon fill="#80b1d3" stroke="transparent" points="503.5,-10 503.5,-30 523.5,-30 523.5,-10 503.5,-10"/>
<text text-anchor="start" x="527.2812" y="-15.4" font-family="sans-serif" font-size="14.00" fill="#000000"> &#160;Bootstrap</text>
<polygon fill="#fdb462" stroke="transparent" points="600.5,-10 600.5,-30 620.5,-30 620.5,-10 600.5,-10"/>
<text text-anchor="start" x="624.1732" y="-15.4" font-family="sans-serif" font-size="14.00" fill="#000000"> &#160;Providers</text>
<polygon fill="#fb8072" stroke="transparent" points="696.5,-10 696.5,-30 716.5,-30 716.5,-10 696.5,-10"/>
<text text-anchor="start" x="720.2258" y="-15.4" font-family="sans-serif" font-size="14.00" fill="#000000"> &#160;Exports</text>
<g id="clust1" class="cluster">
<title>cluster_ContextMenuModule</title>
<polygon fill="none" stroke="#000000" stroke-dasharray="1,5" points="8,-70 8,-268 1069,-268 1069,-70 8,-70"/>
</g>
<g id="clust2" class="cluster">
<title>cluster_ContextMenuModule_declarations</title>
<polygon fill="none" stroke="#000000" points="247,-78 247,-130 1061,-130 1061,-78 247,-78"/>
</g>
<g id="clust7" class="cluster">
<title>cluster_ContextMenuModule_imports</title>
<polygon fill="none" stroke="#000000" points="16,-78 16,-130 239,-130 239,-78 16,-78"/>
</g>
<g id="clust8" class="cluster">
<title>cluster_ContextMenuModule_exports</title>
<polygon fill="none" stroke="#000000" points="74,-208 74,-260 902,-260 902,-208 74,-208"/>
</g>
<!-- ContextMenuComponent -->
<g id="node1" class="node">
<title>ContextMenuComponent</title>
<polygon fill="#ffffb3" stroke="#000000" points="1053.3243,-122 894.6757,-122 894.6757,-86 1053.3243,-86 1053.3243,-122"/>
<text text-anchor="middle" x="974" y="-99.8" font-family="Times,serif" font-size="14.00" fill="#000000">ContextMenuComponent</text>
</g>
<!-- ContextMenuModule -->
<g id="node5" class="node">
<title>ContextMenuModule</title>
<polygon fill="#8dd3c7" stroke="#000000" points="524.0422,-187 521.0422,-191 500.0422,-191 497.0422,-187 387.9578,-187 387.9578,-151 524.0422,-151 524.0422,-187"/>
<text text-anchor="middle" x="456" y="-164.8" font-family="Times,serif" font-size="14.00" fill="#000000">ContextMenuModule</text>
</g>
<!-- ContextMenuComponent&#45;&gt;ContextMenuModule -->
<g id="edge1" class="edge">
<title>ContextMenuComponent&#45;&gt;ContextMenuModule</title>
<path fill="none" stroke="#000000" d="M974,-122.1061C974,-141.3391 974,-169 974,-169 974,-169 534.2521,-169 534.2521,-169"/>
<polygon fill="#000000" stroke="#000000" points="534.2522,-165.5001 524.2521,-169 534.2521,-172.5001 534.2522,-165.5001"/>
</g>
<!-- ContextMenuDividerComponent -->
<g id="node2" class="node">
<title>ContextMenuDividerComponent</title>
<polygon fill="#ffffb3" stroke="#000000" points="876.587,-122 675.413,-122 675.413,-86 876.587,-86 876.587,-122"/>
<text text-anchor="middle" x="776" y="-99.8" font-family="Times,serif" font-size="14.00" fill="#000000">ContextMenuDividerComponent</text>
</g>
<!-- ContextMenuDividerComponent&#45;&gt;ContextMenuModule -->
<g id="edge2" class="edge">
<title>ContextMenuDividerComponent&#45;&gt;ContextMenuModule</title>
<path fill="none" stroke="#000000" d="M694.875,-122.027C694.875,-138.3976 694.875,-160 694.875,-160 694.875,-160 534.1323,-160 534.1323,-160"/>
<polygon fill="#000000" stroke="#000000" points="534.1323,-156.5001 524.1323,-160 534.1323,-163.5001 534.1323,-156.5001"/>
</g>
<!-- ContextMenuItemComponent -->
<g id="node3" class="node">
<title>ContextMenuItemComponent</title>
<polygon fill="#ffffb3" stroke="#000000" points="656.9804,-122 473.0196,-122 473.0196,-86 656.9804,-86 656.9804,-122"/>
<text text-anchor="middle" x="565" y="-99.8" font-family="Times,serif" font-size="14.00" fill="#000000">ContextMenuItemComponent</text>
</g>
<!-- ContextMenuItemComponent&#45;&gt;ContextMenuModule -->
<g id="edge3" class="edge">
<title>ContextMenuItemComponent&#45;&gt;ContextMenuModule</title>
<path fill="none" stroke="#000000" d="M498.6403,-122.1061C498.6403,-122.1061 498.6403,-140.991 498.6403,-140.991"/>
<polygon fill="#000000" stroke="#000000" points="495.1403,-140.9909 498.6403,-150.991 502.1403,-140.991 495.1403,-140.9909"/>
</g>
<!-- ContextMenuTriggerComponent -->
<g id="node4" class="node">
<title>ContextMenuTriggerComponent</title>
<polygon fill="#ffffb3" stroke="#000000" points="455.3032,-122 254.6968,-122 254.6968,-86 455.3032,-86 455.3032,-122"/>
<text text-anchor="middle" x="355" y="-99.8" font-family="Times,serif" font-size="14.00" fill="#000000">ContextMenuTriggerComponent</text>
</g>
<!-- ContextMenuTriggerComponent&#45;&gt;ContextMenuModule -->
<g id="edge4" class="edge">
<title>ContextMenuTriggerComponent&#45;&gt;ContextMenuModule</title>
<path fill="none" stroke="#000000" d="M421.4404,-122.1061C421.4404,-122.1061 421.4404,-140.991 421.4404,-140.991"/>
<polygon fill="#000000" stroke="#000000" points="417.9405,-140.9909 421.4404,-150.991 424.9405,-140.991 417.9405,-140.9909"/>
</g>
<!-- ContextMenuComponent  -->
<g id="node8" class="node">
<title>ContextMenuComponent </title>
<polygon fill="#fb8072" stroke="#000000" points="893.8241,-252 732.1759,-252 732.1759,-216 893.8241,-216 893.8241,-252"/>
<text text-anchor="middle" x="813" y="-229.8" font-family="Times,serif" font-size="14.00" fill="#000000">ContextMenuComponent </text>
</g>
<!-- ContextMenuModule&#45;&gt;ContextMenuComponent  -->
<g id="edge7" class="edge">
<title>ContextMenuModule&#45;&gt;ContextMenuComponent </title>
<path fill="none" stroke="#000000" stroke-dasharray="5,2" d="M524.4004,-178C625.8392,-178 804.3158,-178 804.3158,-178 804.3158,-178 804.3158,-205.973 804.3158,-205.973"/>
<polygon fill="#000000" stroke="#000000" points="800.8158,-205.973 804.3158,-215.973 807.8158,-205.973 800.8158,-205.973"/>
</g>
<!-- ContextMenuDividerComponent  -->
<g id="node9" class="node">
<title>ContextMenuDividerComponent </title>
<polygon fill="#fb8072" stroke="#000000" points="714.0874,-252 509.9126,-252 509.9126,-216 714.0874,-216 714.0874,-252"/>
<text text-anchor="middle" x="612" y="-229.8" font-family="Times,serif" font-size="14.00" fill="#000000">ContextMenuDividerComponent </text>
</g>
<!-- ContextMenuModule&#45;&gt;ContextMenuDividerComponent  -->
<g id="edge8" class="edge">
<title>ContextMenuModule&#45;&gt;ContextMenuDividerComponent </title>
<path fill="none" stroke="#000000" stroke-dasharray="5,2" d="M516.9886,-187.1061C516.9886,-187.1061 516.9886,-205.991 516.9886,-205.991"/>
<polygon fill="#000000" stroke="#000000" points="513.4887,-205.9909 516.9886,-215.991 520.4887,-205.991 513.4887,-205.9909"/>
</g>
<!-- ContextMenuItemComponent  -->
<g id="node10" class="node">
<title>ContextMenuItemComponent </title>
<polygon fill="#fb8072" stroke="#000000" points="491.981,-252 304.019,-252 304.019,-216 491.981,-216 491.981,-252"/>
<text text-anchor="middle" x="398" y="-229.8" font-family="Times,serif" font-size="14.00" fill="#000000">ContextMenuItemComponent </text>
</g>
<!-- ContextMenuModule&#45;&gt;ContextMenuItemComponent  -->
<g id="edge9" class="edge">
<title>ContextMenuModule&#45;&gt;ContextMenuItemComponent </title>
<path fill="none" stroke="#000000" stroke-dasharray="5,2" d="M439.7348,-187.1061C439.7348,-187.1061 439.7348,-205.991 439.7348,-205.991"/>
<polygon fill="#000000" stroke="#000000" points="436.2348,-205.9909 439.7348,-215.991 443.2348,-205.991 436.2348,-205.9909"/>
</g>
<!-- ContextMenuTriggerComponent  -->
<g id="node11" class="node">
<title>ContextMenuTriggerComponent </title>
<polygon fill="#fb8072" stroke="#000000" points="285.8031,-252 82.1969,-252 82.1969,-216 285.8031,-216 285.8031,-252"/>
<text text-anchor="middle" x="184" y="-229.8" font-family="Times,serif" font-size="14.00" fill="#000000">ContextMenuTriggerComponent </text>
</g>
<!-- ContextMenuModule&#45;&gt;ContextMenuTriggerComponent  -->
<g id="edge10" class="edge">
<title>ContextMenuModule&#45;&gt;ContextMenuTriggerComponent </title>
<path fill="none" stroke="#000000" stroke-dasharray="5,2" d="M387.9341,-178C334.9568,-178 270.375,-178 270.375,-178 270.375,-178 270.375,-205.973 270.375,-205.973"/>
<polygon fill="#000000" stroke="#000000" points="266.8751,-205.973 270.375,-215.973 273.8751,-205.973 266.8751,-205.973"/>
</g>
<!-- DividerModule -->
<g id="node6" class="node">
<title>DividerModule</title>
<polygon fill="#8dd3c7" stroke="#000000" points="231.3133,-122 228.3133,-126 207.3133,-126 204.3133,-122 128.6867,-122 128.6867,-86 231.3133,-86 231.3133,-122"/>
<text text-anchor="middle" x="180" y="-99.8" font-family="Times,serif" font-size="14.00" fill="#000000">DividerModule</text>
</g>
<!-- DividerModule&#45;&gt;ContextMenuModule -->
<g id="edge5" class="edge">
<title>DividerModule&#45;&gt;ContextMenuModule</title>
<path fill="none" stroke="#000000" d="M180,-122.027C180,-138.3976 180,-160 180,-160 180,-160 377.7753,-160 377.7753,-160"/>
<polygon fill="#000000" stroke="#000000" points="377.7753,-163.5001 387.7753,-160 377.7752,-156.5001 377.7753,-163.5001"/>
</g>
<!-- UtilsModule -->
<g id="node7" class="node">
<title>UtilsModule</title>
<polygon fill="#8dd3c7" stroke="#000000" points="110.2731,-122 107.2731,-126 86.2731,-126 83.2731,-122 23.7269,-122 23.7269,-86 110.2731,-86 110.2731,-122"/>
<text text-anchor="middle" x="67" y="-99.8" font-family="Times,serif" font-size="14.00" fill="#000000">UtilsModule</text>
</g>
<!-- UtilsModule&#45;&gt;ContextMenuModule -->
<g id="edge6" class="edge">
<title>UtilsModule&#45;&gt;ContextMenuModule</title>
<path fill="none" stroke="#000000" d="M96.2424,-122.1061C96.2424,-141.3391 96.2424,-169 96.2424,-169 96.2424,-169 377.9094,-169 377.9094,-169"/>
<polygon fill="#000000" stroke="#000000" points="377.9094,-172.5001 387.9094,-169 377.9094,-165.5001 377.9094,-172.5001"/>
</g>
</g>
</svg>
