<?xml version="1.0" encoding="UTF-8" standalone="no"?>
<!DOCTYPE svg PUBLIC "-//W3C//DTD SVG 1.1//EN"
 "http://www.w3.org/Graphics/SVG/1.1/DTD/svg11.dtd">
<!-- Generated by graphviz version 2.40.1 (20161225.0304)
 -->
<!-- Title: dependencies Pages: 1 -->
<svg width="1388pt" height="211pt"
 viewBox="0.00 0.00 1388.00 211.00" xmlns="http://www.w3.org/2000/svg" xmlns:xlink="http://www.w3.org/1999/xlink">
<g id="graph0" class="graph" transform="scale(1 1) rotate(0) translate(4 207)">
<title>dependencies</title>
<polygon fill="#ffffff" stroke="transparent" points="-4,4 -4,-207 1384,-207 1384,4 -4,4"/>
<text text-anchor="start" x="669.0091" y="-42.4" font-family="sans-serif" font-weight="bold" font-size="14.00" fill="#000000">Legend</text>
<polygon fill="#ffffb3" stroke="transparent" points="456,-10 456,-30 476,-30 476,-10 456,-10"/>
<text text-anchor="start" x="479.629" y="-15.4" font-family="sans-serif" font-size="14.00" fill="#000000"> &#160;Declarations</text>
<polygon fill="#8dd3c7" stroke="transparent" points="569,-10 569,-30 589,-30 589,-10 569,-10"/>
<text text-anchor="start" x="592.7251" y="-15.4" font-family="sans-serif" font-size="14.00" fill="#000000"> &#160;Module</text>
<polygon fill="#80b1d3" stroke="transparent" points="655,-10 655,-30 675,-30 675,-10 655,-10"/>
<text text-anchor="start" x="678.7812" y="-15.4" font-family="sans-serif" font-size="14.00" fill="#000000"> &#160;Bootstrap</text>
<polygon fill="#fdb462" stroke="transparent" points="752,-10 752,-30 772,-30 772,-10 752,-10"/>
<text text-anchor="start" x="775.6732" y="-15.4" font-family="sans-serif" font-size="14.00" fill="#000000"> &#160;Providers</text>
<polygon fill="#fb8072" stroke="transparent" points="848,-10 848,-30 868,-30 868,-10 848,-10"/>
<text text-anchor="start" x="871.7258" y="-15.4" font-family="sans-serif" font-size="14.00" fill="#000000"> &#160;Exports</text>
<g id="clust1" class="cluster">
<title>cluster_WorkflowModule</title>
<polygon fill="none" stroke="#000000" stroke-dasharray="1,5" points="8,-70 8,-195 1372,-195 1372,-70 8,-70"/>
</g>
<g id="clust2" class="cluster">
<title>cluster_WorkflowModule_declarations</title>
<polygon fill="none" stroke="#000000" points="650,-78 650,-130 1364,-130 1364,-78 650,-78"/>
</g>
<g id="clust7" class="cluster">
<title>cluster_WorkflowModule_imports</title>
<polygon fill="none" stroke="#000000" points="180,-78 180,-130 642,-130 642,-78 180,-78"/>
</g>
<g id="clust10" class="cluster">
<title>cluster_WorkflowModule_providers</title>
<polygon fill="none" stroke="#000000" points="16,-78 16,-130 172,-130 172,-78 16,-78"/>
</g>
<!-- KanbanColComponent -->
<g id="node1" class="node">
<title>KanbanColComponent</title>
<polygon fill="#ffffb3" stroke="#000000" points="1355.5954,-122 1210.4046,-122 1210.4046,-86 1355.5954,-86 1355.5954,-122"/>
<text text-anchor="middle" x="1283" y="-99.8" font-family="Times,serif" font-size="14.00" fill="#000000">KanbanColComponent</text>
</g>
<!-- WorkflowModule -->
<g id="node5" class="node">
<title>WorkflowModule</title>
<polygon fill="#8dd3c7" stroke="#000000" points="649.5828,-187 646.5828,-191 625.5828,-191 622.5828,-187 532.4172,-187 532.4172,-151 649.5828,-151 649.5828,-187"/>
<text text-anchor="middle" x="591" y="-164.8" font-family="Times,serif" font-size="14.00" fill="#000000">WorkflowModule</text>
</g>
<!-- KanbanColComponent&#45;&gt;WorkflowModule -->
<g id="edge1" class="edge">
<title>KanbanColComponent&#45;&gt;WorkflowModule</title>
<path fill="none" stroke="#000000" d="M1283,-122.2921C1283,-144.2057 1283,-178 1283,-178 1283,-178 659.701,-178 659.701,-178"/>
<polygon fill="#000000" stroke="#000000" points="659.7011,-174.5001 649.701,-178 659.701,-181.5001 659.7011,-174.5001"/>
</g>
<!-- KanbanItemComponent -->
<g id="node2" class="node">
<title>KanbanItemComponent</title>
<polygon fill="#ffffb3" stroke="#000000" points="1192.0253,-122 1041.9747,-122 1041.9747,-86 1192.0253,-86 1192.0253,-122"/>
<text text-anchor="middle" x="1117" y="-99.8" font-family="Times,serif" font-size="14.00" fill="#000000">KanbanItemComponent</text>
</g>
<!-- KanbanItemComponent&#45;&gt;WorkflowModule -->
<g id="edge2" class="edge">
<title>KanbanItemComponent&#45;&gt;WorkflowModule</title>
<path fill="none" stroke="#000000" d="M1117,-122.1061C1117,-141.3391 1117,-169 1117,-169 1117,-169 659.5542,-169 659.5542,-169"/>
<polygon fill="#000000" stroke="#000000" points="659.5542,-165.5001 649.5542,-169 659.5541,-172.5001 659.5542,-165.5001"/>
</g>
<!-- WorkflowKanbanComponent -->
<g id="node3" class="node">
<title>WorkflowKanbanComponent</title>
<polygon fill="#ffffb3" stroke="#000000" points="1024.4016,-122 841.5984,-122 841.5984,-86 1024.4016,-86 1024.4016,-122"/>
<text text-anchor="middle" x="933" y="-99.8" font-family="Times,serif" font-size="14.00" fill="#000000">WorkflowKanbanComponent</text>
</g>
<!-- WorkflowKanbanComponent&#45;&gt;WorkflowModule -->
<g id="edge3" class="edge">
<title>WorkflowKanbanComponent&#45;&gt;WorkflowModule</title>
<path fill="none" stroke="#000000" d="M933,-122.027C933,-138.3976 933,-160 933,-160 933,-160 659.7919,-160 659.7919,-160"/>
<polygon fill="#000000" stroke="#000000" points="659.7919,-156.5001 649.7919,-160 659.7919,-163.5001 659.7919,-156.5001"/>
</g>
<!-- WorkflowPageComponent -->
<g id="node4" class="node">
<title>WorkflowPageComponent</title>
<polygon fill="#ffffb3" stroke="#000000" points="824.0772,-122 657.9228,-122 657.9228,-86 824.0772,-86 824.0772,-122"/>
<text text-anchor="middle" x="741" y="-99.8" font-family="Times,serif" font-size="14.00" fill="#000000">WorkflowPageComponent</text>
</g>
<!-- WorkflowPageComponent&#45;&gt;WorkflowModule -->
<g id="edge4" class="edge">
<title>WorkflowPageComponent&#45;&gt;WorkflowModule</title>
<path fill="none" stroke="#000000" d="M657.8734,-104C648.346,-104 641.9611,-104 641.9611,-104 641.9611,-104 641.9611,-140.8939 641.9611,-140.8939"/>
<polygon fill="#000000" stroke="#000000" points="638.4612,-140.8938 641.9611,-150.8939 645.4612,-140.8939 638.4612,-140.8938"/>
</g>
<!-- CardModule -->
<g id="node6" class="node">
<title>CardModule</title>
<polygon fill="#8dd3c7" stroke="#000000" points="634.2619,-122 631.2619,-126 610.2619,-126 607.2619,-122 547.7381,-122 547.7381,-86 634.2619,-86 634.2619,-122"/>
<text text-anchor="middle" x="591" y="-99.8" font-family="Times,serif" font-size="14.00" fill="#000000">CardModule</text>
</g>
<!-- CardModule&#45;&gt;WorkflowModule -->
<g id="edge5" class="edge">
<title>CardModule&#45;&gt;WorkflowModule</title>
<path fill="none" stroke="#000000" d="M591,-122.1061C591,-122.1061 591,-140.991 591,-140.991"/>
<polygon fill="#000000" stroke="#000000" points="587.5001,-140.9909 591,-150.991 594.5001,-140.991 587.5001,-140.9909"/>
</g>
<!-- IconsModule -->
<g id="node7" class="node">
<title>IconsModule</title>
<polygon fill="#8dd3c7" stroke="#000000" points="529.8697,-122 526.8697,-126 505.8697,-126 502.8697,-122 440.1303,-122 440.1303,-86 529.8697,-86 529.8697,-122"/>
<text text-anchor="middle" x="485" y="-99.8" font-family="Times,serif" font-size="14.00" fill="#000000">IconsModule</text>
</g>
<!-- IconsModule&#45;&gt;WorkflowModule -->
<g id="edge6" class="edge">
<title>IconsModule&#45;&gt;WorkflowModule</title>
<path fill="none" stroke="#000000" d="M529.9439,-104C535.9237,-104 540.0389,-104 540.0389,-104 540.0389,-104 540.0389,-140.8939 540.0389,-140.8939"/>
<polygon fill="#000000" stroke="#000000" points="536.539,-140.8938 540.0389,-150.8939 543.539,-140.8939 536.539,-140.8938"/>
</g>
<!-- ProductModule -->
<g id="node8" class="node">
<title>ProductModule</title>
<polygon fill="#8dd3c7" stroke="#000000" points="422.5982,-122 419.5982,-126 398.5982,-126 395.5982,-122 319.4018,-122 319.4018,-86 422.5982,-86 422.5982,-122"/>
<text text-anchor="middle" x="371" y="-99.8" font-family="Times,serif" font-size="14.00" fill="#000000">ProductModule</text>
</g>
<!-- ProductModule&#45;&gt;WorkflowModule -->
<g id="edge7" class="edge">
<title>ProductModule&#45;&gt;WorkflowModule</title>
<path fill="none" stroke="#000000" d="M371,-122.027C371,-138.3976 371,-160 371,-160 371,-160 522.333,-160 522.333,-160"/>
<polygon fill="#000000" stroke="#000000" points="522.3331,-163.5001 532.333,-160 522.333,-156.5001 522.3331,-163.5001"/>
</g>
<!-- TopPanelModule -->
<g id="node9" class="node">
<title>TopPanelModule</title>
<polygon fill="#8dd3c7" stroke="#000000" points="301.705,-122 298.705,-126 277.705,-126 274.705,-122 188.295,-122 188.295,-86 301.705,-86 301.705,-122"/>
<text text-anchor="middle" x="245" y="-99.8" font-family="Times,serif" font-size="14.00" fill="#000000">TopPanelModule</text>
</g>
<!-- TopPanelModule&#45;&gt;WorkflowModule -->
<g id="edge8" class="edge">
<title>TopPanelModule&#45;&gt;WorkflowModule</title>
<path fill="none" stroke="#000000" d="M245,-122.1061C245,-141.3391 245,-169 245,-169 245,-169 522.3058,-169 522.3058,-169"/>
<polygon fill="#000000" stroke="#000000" points="522.3059,-172.5001 532.3058,-169 522.3058,-165.5001 522.3059,-172.5001"/>
</g>
<!-- KanbanService -->
<g id="node10" class="node">
<title>KanbanService</title>
<ellipse fill="#fdb462" stroke="#000000" cx="94" cy="-104" rx="70.0442" ry="18"/>
<text text-anchor="middle" x="94" y="-99.8" font-family="Times,serif" font-size="14.00" fill="#000000">KanbanService</text>
</g>
<!-- KanbanService&#45;&gt;WorkflowModule -->
<g id="edge9" class="edge">
<title>KanbanService&#45;&gt;WorkflowModule</title>
<path fill="none" stroke="#000000" d="M94,-122.2921C94,-144.2057 94,-178 94,-178 94,-178 522.0359,-178 522.0359,-178"/>
<polygon fill="#000000" stroke="#000000" points="522.0359,-181.5001 532.0359,-178 522.0359,-174.5001 522.0359,-181.5001"/>
</g>
</g>
</svg>
