<?xml version="1.0" encoding="UTF-8" standalone="no"?>
<!DOCTYPE svg PUBLIC "-//W3C//DTD SVG 1.1//EN"
 "http://www.w3.org/Graphics/SVG/1.1/DTD/svg11.dtd">
<!-- Generated by graphviz version 2.40.1 (20161225.0304)
 -->
<!-- Title: dependencies Pages: 1 -->
<svg width="678pt" height="284pt"
 viewBox="0.00 0.00 678.00 284.00" xmlns="http://www.w3.org/2000/svg" xmlns:xlink="http://www.w3.org/1999/xlink">
<g id="graph0" class="graph" transform="scale(1 1) rotate(0) translate(4 280)">
<title>dependencies</title>
<polygon fill="#ffffff" stroke="transparent" points="-4,4 -4,-280 674,-280 674,4 -4,4"/>
<text text-anchor="start" x="314.0091" y="-42.4" font-family="sans-serif" font-weight="bold" font-size="14.00" fill="#000000">Legend</text>
<polygon fill="#ffffb3" stroke="transparent" points="101,-10 101,-30 121,-30 121,-10 101,-10"/>
<text text-anchor="start" x="124.629" y="-15.4" font-family="sans-serif" font-size="14.00" fill="#000000"> &#160;Declarations</text>
<polygon fill="#8dd3c7" stroke="transparent" points="214,-10 214,-30 234,-30 234,-10 214,-10"/>
<text text-anchor="start" x="237.7251" y="-15.4" font-family="sans-serif" font-size="14.00" fill="#000000"> &#160;Module</text>
<polygon fill="#80b1d3" stroke="transparent" points="300,-10 300,-30 320,-30 320,-10 300,-10"/>
<text text-anchor="start" x="323.7812" y="-15.4" font-family="sans-serif" font-size="14.00" fill="#000000"> &#160;Bootstrap</text>
<polygon fill="#fdb462" stroke="transparent" points="397,-10 397,-30 417,-30 417,-10 397,-10"/>
<text text-anchor="start" x="420.6732" y="-15.4" font-family="sans-serif" font-size="14.00" fill="#000000"> &#160;Providers</text>
<polygon fill="#fb8072" stroke="transparent" points="493,-10 493,-30 513,-30 513,-10 493,-10"/>
<text text-anchor="start" x="516.7258" y="-15.4" font-family="sans-serif" font-size="14.00" fill="#000000"> &#160;Exports</text>
<g id="clust1" class="cluster">
<title>cluster_StatusModule</title>
<polygon fill="none" stroke="#000000" stroke-dasharray="1,5" points="8,-70 8,-268 662,-268 662,-70 8,-70"/>
</g>
<g id="clust2" class="cluster">
<title>cluster_StatusModule_declarations</title>
<polygon fill="none" stroke="#000000" points="234,-78 234,-130 654,-130 654,-78 234,-78"/>
</g>
<g id="clust5" class="cluster">
<title>cluster_StatusModule_imports</title>
<polygon fill="none" stroke="#000000" points="16,-78 16,-130 226,-130 226,-78 16,-78"/>
</g>
<g id="clust6" class="cluster">
<title>cluster_StatusModule_exports</title>
<polygon fill="none" stroke="#000000" points="82,-208 82,-260 508,-260 508,-208 82,-208"/>
</g>
<!-- StatusSelectorBadgeComponent -->
<g id="node1" class="node">
<title>StatusSelectorBadgeComponent</title>
<polygon fill="#ffffb3" stroke="#000000" points="645.6895,-122 448.3105,-122 448.3105,-86 645.6895,-86 645.6895,-122"/>
<text text-anchor="middle" x="547" y="-99.8" font-family="Times,serif" font-size="14.00" fill="#000000">StatusSelectorBadgeComponent</text>
</g>
<!-- StatusModule -->
<g id="node3" class="node">
<title>StatusModule</title>
<polygon fill="#8dd3c7" stroke="#000000" points="298.7731,-187 295.7731,-191 274.7731,-191 271.7731,-187 205.2269,-187 205.2269,-151 298.7731,-151 298.7731,-187"/>
<text text-anchor="middle" x="252" y="-164.8" font-family="Times,serif" font-size="14.00" fill="#000000">StatusModule</text>
</g>
<!-- StatusSelectorBadgeComponent&#45;&gt;StatusModule -->
<g id="edge1" class="edge">
<title>StatusSelectorBadgeComponent&#45;&gt;StatusModule</title>
<path fill="none" stroke="#000000" d="M474.375,-122.1061C474.375,-141.3391 474.375,-169 474.375,-169 474.375,-169 308.8883,-169 308.8883,-169"/>
<polygon fill="#000000" stroke="#000000" points="308.8883,-165.5001 298.8883,-169 308.8883,-172.5001 308.8883,-165.5001"/>
</g>
<!-- SupplierStatusIconComponent -->
<g id="node2" class="node">
<title>SupplierStatusIconComponent</title>
<polygon fill="#ffffb3" stroke="#000000" points="429.8696,-122 242.1304,-122 242.1304,-86 429.8696,-86 429.8696,-122"/>
<text text-anchor="middle" x="336" y="-99.8" font-family="Times,serif" font-size="14.00" fill="#000000">SupplierStatusIconComponent</text>
</g>
<!-- SupplierStatusIconComponent&#45;&gt;StatusModule -->
<g id="edge2" class="edge">
<title>SupplierStatusIconComponent&#45;&gt;StatusModule</title>
<path fill="none" stroke="#000000" d="M270.4758,-122.1061C270.4758,-122.1061 270.4758,-140.991 270.4758,-140.991"/>
<polygon fill="#000000" stroke="#000000" points="266.9759,-140.9909 270.4758,-150.991 273.9759,-140.991 266.9759,-140.9909"/>
</g>
<!-- StatusSelectorBadgeComponent  -->
<g id="node6" class="node">
<title>StatusSelectorBadgeComponent </title>
<polygon fill="#fb8072" stroke="#000000" points="500.1896,-252 299.8104,-252 299.8104,-216 500.1896,-216 500.1896,-252"/>
<text text-anchor="middle" x="400" y="-229.8" font-family="Times,serif" font-size="14.00" fill="#000000">StatusSelectorBadgeComponent </text>
</g>
<!-- StatusModule&#45;&gt;StatusSelectorBadgeComponent  -->
<g id="edge5" class="edge">
<title>StatusModule&#45;&gt;StatusSelectorBadgeComponent </title>
<path fill="none" stroke="#000000" stroke-dasharray="5,2" d="M290.2856,-187.1061C290.2856,-206.3391 290.2856,-234 290.2856,-234 290.2856,-234 291.221,-234 291.221,-234"/>
<polygon fill="#000000" stroke="#000000" points="289.6398,-237.5001 299.6398,-234 289.6397,-230.5001 289.6398,-237.5001"/>
</g>
<!-- SupplierStatusIconComponent  -->
<g id="node7" class="node">
<title>SupplierStatusIconComponent </title>
<polygon fill="#fb8072" stroke="#000000" points="281.87,-252 90.13,-252 90.13,-216 281.87,-216 281.87,-252"/>
<text text-anchor="middle" x="186" y="-229.8" font-family="Times,serif" font-size="14.00" fill="#000000">SupplierStatusIconComponent </text>
</g>
<!-- StatusModule&#45;&gt;SupplierStatusIconComponent  -->
<g id="edge6" class="edge">
<title>StatusModule&#45;&gt;SupplierStatusIconComponent </title>
<path fill="none" stroke="#000000" stroke-dasharray="5,2" d="M243.3992,-187.1061C243.3992,-187.1061 243.3992,-205.991 243.3992,-205.991"/>
<polygon fill="#000000" stroke="#000000" points="239.8993,-205.9909 243.3992,-215.991 246.8993,-205.991 239.8993,-205.9909"/>
</g>
<!-- IconsModule -->
<g id="node4" class="node">
<title>IconsModule</title>
<polygon fill="#8dd3c7" stroke="#000000" points="217.8697,-122 214.8697,-126 193.8697,-126 190.8697,-122 128.1303,-122 128.1303,-86 217.8697,-86 217.8697,-122"/>
<text text-anchor="middle" x="173" y="-99.8" font-family="Times,serif" font-size="14.00" fill="#000000">IconsModule</text>
</g>
<!-- IconsModule&#45;&gt;StatusModule -->
<g id="edge3" class="edge">
<title>IconsModule&#45;&gt;StatusModule</title>
<path fill="none" stroke="#000000" d="M211.5242,-122.1061C211.5242,-122.1061 211.5242,-140.991 211.5242,-140.991"/>
<polygon fill="#000000" stroke="#000000" points="208.0243,-140.9909 211.5242,-150.991 215.0243,-140.991 208.0243,-140.9909"/>
</g>
<!-- UtilsModule -->
<g id="node5" class="node">
<title>UtilsModule</title>
<polygon fill="#8dd3c7" stroke="#000000" points="110.2731,-122 107.2731,-126 86.2731,-126 83.2731,-122 23.7269,-122 23.7269,-86 110.2731,-86 110.2731,-122"/>
<text text-anchor="middle" x="67" y="-99.8" font-family="Times,serif" font-size="14.00" fill="#000000">UtilsModule</text>
</g>
<!-- UtilsModule&#45;&gt;StatusModule -->
<g id="edge4" class="edge">
<title>UtilsModule&#45;&gt;StatusModule</title>
<path fill="none" stroke="#000000" d="M100.3508,-122.1061C100.3508,-141.3391 100.3508,-169 100.3508,-169 100.3508,-169 194.8485,-169 194.8485,-169"/>
<polygon fill="#000000" stroke="#000000" points="194.8486,-172.5001 204.8485,-169 194.8485,-165.5001 194.8486,-172.5001"/>
</g>
</g>
</svg>
