<?xml version="1.0" encoding="UTF-8" standalone="no"?>
<!DOCTYPE svg PUBLIC "-//W3C//DTD SVG 1.1//EN"
 "http://www.w3.org/Graphics/SVG/1.1/DTD/svg11.dtd">
<!-- Generated by graphviz version 2.40.1 (20161225.0304)
 -->
<!-- Title: dependencies Pages: 1 -->
<svg width="620pt" height="284pt"
 viewBox="0.00 0.00 620.00 284.00" xmlns="http://www.w3.org/2000/svg" xmlns:xlink="http://www.w3.org/1999/xlink">
<g id="graph0" class="graph" transform="scale(1 1) rotate(0) translate(4 280)">
<title>dependencies</title>
<polygon fill="#ffffff" stroke="transparent" points="-4,4 -4,-280 616,-280 616,4 -4,4"/>
<text text-anchor="start" x="285.0091" y="-42.4" font-family="sans-serif" font-weight="bold" font-size="14.00" fill="#000000">Legend</text>
<polygon fill="#ffffb3" stroke="transparent" points="72,-10 72,-30 92,-30 92,-10 72,-10"/>
<text text-anchor="start" x="95.629" y="-15.4" font-family="sans-serif" font-size="14.00" fill="#000000"> &#160;Declarations</text>
<polygon fill="#8dd3c7" stroke="transparent" points="185,-10 185,-30 205,-30 205,-10 185,-10"/>
<text text-anchor="start" x="208.7251" y="-15.4" font-family="sans-serif" font-size="14.00" fill="#000000"> &#160;Module</text>
<polygon fill="#80b1d3" stroke="transparent" points="271,-10 271,-30 291,-30 291,-10 271,-10"/>
<text text-anchor="start" x="294.7812" y="-15.4" font-family="sans-serif" font-size="14.00" fill="#000000"> &#160;Bootstrap</text>
<polygon fill="#fdb462" stroke="transparent" points="368,-10 368,-30 388,-30 388,-10 368,-10"/>
<text text-anchor="start" x="391.6732" y="-15.4" font-family="sans-serif" font-size="14.00" fill="#000000"> &#160;Providers</text>
<polygon fill="#fb8072" stroke="transparent" points="464,-10 464,-30 484,-30 484,-10 464,-10"/>
<text text-anchor="start" x="487.7258" y="-15.4" font-family="sans-serif" font-size="14.00" fill="#000000"> &#160;Exports</text>
<g id="clust1" class="cluster">
<title>cluster_CardModule</title>
<polygon fill="none" stroke="#000000" stroke-dasharray="1,5" points="8,-70 8,-268 604,-268 604,-70 8,-70"/>
</g>
<g id="clust2" class="cluster">
<title>cluster_CardModule_declarations</title>
<polygon fill="none" stroke="#000000" points="142,-78 142,-130 596,-130 596,-78 142,-78"/>
</g>
<g id="clust6" class="cluster">
<title>cluster_CardModule_imports</title>
<polygon fill="none" stroke="#000000" points="16,-78 16,-130 134,-130 134,-78 16,-78"/>
</g>
<g id="clust7" class="cluster">
<title>cluster_CardModule_exports</title>
<polygon fill="none" stroke="#000000" points="73,-208 73,-260 538,-260 538,-208 73,-208"/>
</g>
<!-- CardComponent -->
<g id="node1" class="node">
<title>CardComponent</title>
<polygon fill="#ffffb3" stroke="#000000" points="588.0452,-122 479.9548,-122 479.9548,-86 588.0452,-86 588.0452,-122"/>
<text text-anchor="middle" x="534" y="-99.8" font-family="Times,serif" font-size="14.00" fill="#000000">CardComponent</text>
</g>
<!-- CardModule -->
<g id="node4" class="node">
<title>CardModule</title>
<polygon fill="#8dd3c7" stroke="#000000" points="369.2619,-187 366.2619,-191 345.2619,-191 342.2619,-187 282.7381,-187 282.7381,-151 369.2619,-151 369.2619,-187"/>
<text text-anchor="middle" x="326" y="-164.8" font-family="Times,serif" font-size="14.00" fill="#000000">CardModule</text>
</g>
<!-- CardComponent&#45;&gt;CardModule -->
<g id="edge1" class="edge">
<title>CardComponent&#45;&gt;CardModule</title>
<path fill="none" stroke="#000000" d="M504.875,-122.0225C504.875,-139.3734 504.875,-163 504.875,-163 504.875,-163 379.3006,-163 379.3006,-163"/>
<polygon fill="#000000" stroke="#000000" points="379.3007,-159.5001 369.3006,-163 379.3006,-166.5001 379.3007,-159.5001"/>
</g>
<!-- CardFooterComponent -->
<g id="node2" class="node">
<title>CardFooterComponent</title>
<polygon fill="#ffffb3" stroke="#000000" points="461.5926,-122 316.4074,-122 316.4074,-86 461.5926,-86 461.5926,-122"/>
<text text-anchor="middle" x="389" y="-99.8" font-family="Times,serif" font-size="14.00" fill="#000000">CardFooterComponent</text>
</g>
<!-- CardFooterComponent&#45;&gt;CardModule -->
<g id="edge2" class="edge">
<title>CardFooterComponent&#45;&gt;CardModule</title>
<path fill="none" stroke="#000000" d="M342.9173,-122.1061C342.9173,-122.1061 342.9173,-140.991 342.9173,-140.991"/>
<polygon fill="#000000" stroke="#000000" points="339.4173,-140.9909 342.9173,-150.991 346.4173,-140.991 339.4173,-140.9909"/>
</g>
<!-- CardHeaderComponent -->
<g id="node3" class="node">
<title>CardHeaderComponent</title>
<polygon fill="#ffffb3" stroke="#000000" points="298.4552,-122 149.5448,-122 149.5448,-86 298.4552,-86 298.4552,-122"/>
<text text-anchor="middle" x="224" y="-99.8" font-family="Times,serif" font-size="14.00" fill="#000000">CardHeaderComponent</text>
</g>
<!-- CardHeaderComponent&#45;&gt;CardModule -->
<g id="edge3" class="edge">
<title>CardHeaderComponent&#45;&gt;CardModule</title>
<path fill="none" stroke="#000000" d="M290.5484,-122.1061C290.5484,-122.1061 290.5484,-140.991 290.5484,-140.991"/>
<polygon fill="#000000" stroke="#000000" points="287.0485,-140.9909 290.5484,-150.991 294.0485,-140.991 287.0485,-140.9909"/>
</g>
<!-- CardComponent  -->
<g id="node6" class="node">
<title>CardComponent </title>
<polygon fill="#fb8072" stroke="#000000" points="530.0442,-252 417.9558,-252 417.9558,-216 530.0442,-216 530.0442,-252"/>
<text text-anchor="middle" x="474" y="-229.8" font-family="Times,serif" font-size="14.00" fill="#000000">CardComponent </text>
</g>
<!-- CardModule&#45;&gt;CardComponent  -->
<g id="edge5" class="edge">
<title>CardModule&#45;&gt;CardComponent </title>
<path fill="none" stroke="#000000" stroke-dasharray="5,2" d="M369.3331,-175C401.4822,-175 439.7621,-175 439.7621,-175 439.7621,-175 439.7621,-205.9775 439.7621,-205.9775"/>
<polygon fill="#000000" stroke="#000000" points="436.2622,-205.9774 439.7621,-215.9775 443.2622,-205.9775 436.2622,-205.9774"/>
</g>
<!-- CardFooterComponent  -->
<g id="node7" class="node">
<title>CardFooterComponent </title>
<polygon fill="#fb8072" stroke="#000000" points="400.0932,-252 251.9068,-252 251.9068,-216 400.0932,-216 400.0932,-252"/>
<text text-anchor="middle" x="326" y="-229.8" font-family="Times,serif" font-size="14.00" fill="#000000">CardFooterComponent </text>
</g>
<!-- CardModule&#45;&gt;CardFooterComponent  -->
<g id="edge6" class="edge">
<title>CardModule&#45;&gt;CardFooterComponent </title>
<path fill="none" stroke="#000000" stroke-dasharray="5,2" d="M326,-187.1061C326,-187.1061 326,-205.991 326,-205.991"/>
<polygon fill="#000000" stroke="#000000" points="322.5001,-205.9909 326,-215.991 329.5001,-205.991 322.5001,-205.9909"/>
</g>
<!-- CardHeaderComponent  -->
<g id="node8" class="node">
<title>CardHeaderComponent </title>
<polygon fill="#fb8072" stroke="#000000" points="233.4559,-252 80.5441,-252 80.5441,-216 233.4559,-216 233.4559,-252"/>
<text text-anchor="middle" x="157" y="-229.8" font-family="Times,serif" font-size="14.00" fill="#000000">CardHeaderComponent </text>
</g>
<!-- CardModule&#45;&gt;CardHeaderComponent  -->
<g id="edge7" class="edge">
<title>CardModule&#45;&gt;CardHeaderComponent </title>
<path fill="none" stroke="#000000" stroke-dasharray="5,2" d="M282.6628,-175C243.3076,-175 191.375,-175 191.375,-175 191.375,-175 191.375,-205.9775 191.375,-205.9775"/>
<polygon fill="#000000" stroke="#000000" points="187.8751,-205.9774 191.375,-215.9775 194.8751,-205.9775 187.8751,-205.9774"/>
</g>
<!-- DividerModule -->
<g id="node5" class="node">
<title>DividerModule</title>
<polygon fill="#8dd3c7" stroke="#000000" points="126.3133,-122 123.3133,-126 102.3133,-126 99.3133,-122 23.6867,-122 23.6867,-86 126.3133,-86 126.3133,-122"/>
<text text-anchor="middle" x="75" y="-99.8" font-family="Times,serif" font-size="14.00" fill="#000000">DividerModule</text>
</g>
<!-- DividerModule&#45;&gt;CardModule -->
<g id="edge4" class="edge">
<title>DividerModule&#45;&gt;CardModule</title>
<path fill="none" stroke="#000000" d="M103.4644,-122.0225C103.4644,-139.3734 103.4644,-163 103.4644,-163 103.4644,-163 272.5646,-163 272.5646,-163"/>
<polygon fill="#000000" stroke="#000000" points="272.5647,-166.5001 282.5646,-163 272.5646,-159.5001 272.5647,-166.5001"/>
</g>
</g>
</svg>
