<?xml version="1.0" encoding="UTF-8" standalone="no"?>
<!DOCTYPE svg PUBLIC "-//W3C//DTD SVG 1.1//EN"
 "http://www.w3.org/Graphics/SVG/1.1/DTD/svg11.dtd">
<!-- Generated by graphviz version 2.40.1 (20161225.0304)
 -->
<!-- Title: dependencies Pages: 1 -->
<svg width="942pt" height="284pt"
 viewBox="0.00 0.00 942.00 284.00" xmlns="http://www.w3.org/2000/svg" xmlns:xlink="http://www.w3.org/1999/xlink">
<g id="graph0" class="graph" transform="scale(1 1) rotate(0) translate(4 280)">
<title>dependencies</title>
<polygon fill="#ffffff" stroke="transparent" points="-4,4 -4,-280 938,-280 938,4 -4,4"/>
<text text-anchor="start" x="446.0091" y="-42.4" font-family="sans-serif" font-weight="bold" font-size="14.00" fill="#000000">Legend</text>
<polygon fill="#ffffb3" stroke="transparent" points="233,-10 233,-30 253,-30 253,-10 233,-10"/>
<text text-anchor="start" x="256.629" y="-15.4" font-family="sans-serif" font-size="14.00" fill="#000000"> &#160;Declarations</text>
<polygon fill="#8dd3c7" stroke="transparent" points="346,-10 346,-30 366,-30 366,-10 346,-10"/>
<text text-anchor="start" x="369.7251" y="-15.4" font-family="sans-serif" font-size="14.00" fill="#000000"> &#160;Module</text>
<polygon fill="#80b1d3" stroke="transparent" points="432,-10 432,-30 452,-30 452,-10 432,-10"/>
<text text-anchor="start" x="455.7812" y="-15.4" font-family="sans-serif" font-size="14.00" fill="#000000"> &#160;Bootstrap</text>
<polygon fill="#fdb462" stroke="transparent" points="529,-10 529,-30 549,-30 549,-10 529,-10"/>
<text text-anchor="start" x="552.6732" y="-15.4" font-family="sans-serif" font-size="14.00" fill="#000000"> &#160;Providers</text>
<polygon fill="#fb8072" stroke="transparent" points="625,-10 625,-30 645,-30 645,-10 625,-10"/>
<text text-anchor="start" x="648.7258" y="-15.4" font-family="sans-serif" font-size="14.00" fill="#000000"> &#160;Exports</text>
<g id="clust1" class="cluster">
<title>cluster_LikesChartModule</title>
<polygon fill="none" stroke="#000000" stroke-dasharray="1,5" points="8,-70 8,-268 926,-268 926,-70 8,-70"/>
</g>
<g id="clust2" class="cluster">
<title>cluster_LikesChartModule_declarations</title>
<polygon fill="none" stroke="#000000" points="352,-78 352,-130 918,-130 918,-78 352,-78"/>
</g>
<g id="clust7" class="cluster">
<title>cluster_LikesChartModule_imports</title>
<polygon fill="none" stroke="#000000" points="16,-78 16,-130 344,-130 344,-78 16,-78"/>
</g>
<g id="clust8" class="cluster">
<title>cluster_LikesChartModule_exports</title>
<polygon fill="none" stroke="#000000" points="350,-208 350,-260 510,-260 510,-208 350,-208"/>
</g>
<!-- ChartComponent -->
<g id="node1" class="node">
<title>ChartComponent</title>
<polygon fill="#ffffb3" stroke="#000000" points="910.4356,-122 797.5644,-122 797.5644,-86 910.4356,-86 910.4356,-122"/>
<text text-anchor="middle" x="854" y="-99.8" font-family="Times,serif" font-size="14.00" fill="#000000">ChartComponent</text>
</g>
<!-- LikesChartModule -->
<g id="node5" class="node">
<title>LikesChartModule</title>
<polygon fill="#8dd3c7" stroke="#000000" points="490.7548,-187 487.7548,-191 466.7548,-191 463.7548,-187 369.2452,-187 369.2452,-151 490.7548,-151 490.7548,-187"/>
<text text-anchor="middle" x="430" y="-164.8" font-family="Times,serif" font-size="14.00" fill="#000000">LikesChartModule</text>
</g>
<!-- ChartComponent&#45;&gt;LikesChartModule -->
<g id="edge1" class="edge">
<title>ChartComponent&#45;&gt;LikesChartModule</title>
<path fill="none" stroke="#000000" d="M854,-122.2921C854,-144.2057 854,-178 854,-178 854,-178 501.2004,-178 501.2004,-178"/>
<polygon fill="#000000" stroke="#000000" points="501.2005,-174.5001 491.2004,-178 501.2004,-181.5001 501.2005,-174.5001"/>
</g>
<!-- DetailsComponent -->
<g id="node2" class="node">
<title>DetailsComponent</title>
<polygon fill="#ffffb3" stroke="#000000" points="779.4846,-122 658.5154,-122 658.5154,-86 779.4846,-86 779.4846,-122"/>
<text text-anchor="middle" x="719" y="-99.8" font-family="Times,serif" font-size="14.00" fill="#000000">DetailsComponent</text>
</g>
<!-- DetailsComponent&#45;&gt;LikesChartModule -->
<g id="edge2" class="edge">
<title>DetailsComponent&#45;&gt;LikesChartModule</title>
<path fill="none" stroke="#000000" d="M719,-122.1061C719,-141.3391 719,-169 719,-169 719,-169 500.9363,-169 500.9363,-169"/>
<polygon fill="#000000" stroke="#000000" points="500.9364,-165.5001 490.9363,-169 500.9363,-172.5001 500.9364,-165.5001"/>
</g>
<!-- LegendComponent -->
<g id="node3" class="node">
<title>LegendComponent</title>
<polygon fill="#ffffb3" stroke="#000000" points="640.8146,-122 517.1854,-122 517.1854,-86 640.8146,-86 640.8146,-122"/>
<text text-anchor="middle" x="579" y="-99.8" font-family="Times,serif" font-size="14.00" fill="#000000">LegendComponent</text>
</g>
<!-- LegendComponent&#45;&gt;LikesChartModule -->
<g id="edge3" class="edge">
<title>LegendComponent&#45;&gt;LikesChartModule</title>
<path fill="none" stroke="#000000" d="M579,-122.027C579,-138.3976 579,-160 579,-160 579,-160 501.0339,-160 501.0339,-160"/>
<polygon fill="#000000" stroke="#000000" points="501.034,-156.5001 491.0339,-160 501.0339,-163.5001 501.034,-156.5001"/>
</g>
<!-- LikesCardComponent -->
<g id="node4" class="node">
<title>LikesCardComponent</title>
<polygon fill="#ffffb3" stroke="#000000" points="499.647,-122 360.353,-122 360.353,-86 499.647,-86 499.647,-122"/>
<text text-anchor="middle" x="430" y="-99.8" font-family="Times,serif" font-size="14.00" fill="#000000">LikesCardComponent</text>
</g>
<!-- LikesCardComponent&#45;&gt;LikesChartModule -->
<g id="edge4" class="edge">
<title>LikesCardComponent&#45;&gt;LikesChartModule</title>
<path fill="none" stroke="#000000" d="M430,-122.1061C430,-122.1061 430,-140.991 430,-140.991"/>
<polygon fill="#000000" stroke="#000000" points="426.5001,-140.9909 430,-150.991 433.5001,-140.991 426.5001,-140.9909"/>
</g>
<!-- LikesCardComponent  -->
<g id="node9" class="node">
<title>LikesCardComponent </title>
<polygon fill="#fb8072" stroke="#000000" points="501.6467,-252 358.3533,-252 358.3533,-216 501.6467,-216 501.6467,-252"/>
<text text-anchor="middle" x="430" y="-229.8" font-family="Times,serif" font-size="14.00" fill="#000000">LikesCardComponent </text>
</g>
<!-- LikesChartModule&#45;&gt;LikesCardComponent  -->
<g id="edge8" class="edge">
<title>LikesChartModule&#45;&gt;LikesCardComponent </title>
<path fill="none" stroke="#000000" stroke-dasharray="5,2" d="M430,-187.1061C430,-187.1061 430,-205.991 430,-205.991"/>
<polygon fill="#000000" stroke="#000000" points="426.5001,-205.9909 430,-215.991 433.5001,-205.991 426.5001,-205.9909"/>
</g>
<!-- LoadersModule -->
<g id="node6" class="node">
<title>LoadersModule</title>
<polygon fill="#8dd3c7" stroke="#000000" points="336.1374,-122 333.1374,-126 312.1374,-126 309.1374,-122 231.8626,-122 231.8626,-86 336.1374,-86 336.1374,-122"/>
<text text-anchor="middle" x="284" y="-99.8" font-family="Times,serif" font-size="14.00" fill="#000000">LoadersModule</text>
</g>
<!-- LoadersModule&#45;&gt;LikesChartModule -->
<g id="edge5" class="edge">
<title>LoadersModule&#45;&gt;LikesChartModule</title>
<path fill="none" stroke="#000000" d="M284,-122.027C284,-138.3976 284,-160 284,-160 284,-160 358.9288,-160 358.9288,-160"/>
<polygon fill="#000000" stroke="#000000" points="358.9288,-163.5001 368.9288,-160 358.9288,-156.5001 358.9288,-163.5001"/>
</g>
<!-- UserModule -->
<g id="node7" class="node">
<title>UserModule</title>
<polygon fill="#8dd3c7" stroke="#000000" points="213.9762,-122 210.9762,-126 189.9762,-126 186.9762,-122 128.0238,-122 128.0238,-86 213.9762,-86 213.9762,-122"/>
<text text-anchor="middle" x="171" y="-99.8" font-family="Times,serif" font-size="14.00" fill="#000000">UserModule</text>
</g>
<!-- UserModule&#45;&gt;LikesChartModule -->
<g id="edge6" class="edge">
<title>UserModule&#45;&gt;LikesChartModule</title>
<path fill="none" stroke="#000000" d="M171,-122.1061C171,-141.3391 171,-169 171,-169 171,-169 358.9486,-169 358.9486,-169"/>
<polygon fill="#000000" stroke="#000000" points="358.9486,-172.5001 368.9486,-169 358.9485,-165.5001 358.9486,-172.5001"/>
</g>
<!-- UtilsModule -->
<g id="node8" class="node">
<title>UtilsModule</title>
<polygon fill="#8dd3c7" stroke="#000000" points="110.2731,-122 107.2731,-126 86.2731,-126 83.2731,-122 23.7269,-122 23.7269,-86 110.2731,-86 110.2731,-122"/>
<text text-anchor="middle" x="67" y="-99.8" font-family="Times,serif" font-size="14.00" fill="#000000">UtilsModule</text>
</g>
<!-- UtilsModule&#45;&gt;LikesChartModule -->
<g id="edge7" class="edge">
<title>UtilsModule&#45;&gt;LikesChartModule</title>
<path fill="none" stroke="#000000" d="M67,-122.2921C67,-144.2057 67,-178 67,-178 67,-178 359.242,-178 359.242,-178"/>
<polygon fill="#000000" stroke="#000000" points="359.242,-181.5001 369.242,-178 359.2419,-174.5001 359.242,-181.5001"/>
</g>
</g>
</svg>
