<?xml version="1.0" encoding="UTF-8" standalone="no"?>
<!DOCTYPE svg PUBLIC "-//W3C//DTD SVG 1.1//EN"
 "http://www.w3.org/Graphics/SVG/1.1/DTD/svg11.dtd">
<!-- Generated by graphviz version 2.40.1 (20161225.0304)
 -->
<!-- Title: dependencies Pages: 1 -->
<svg width="530pt" height="284pt"
 viewBox="0.00 0.00 530.00 284.00" xmlns="http://www.w3.org/2000/svg" xmlns:xlink="http://www.w3.org/1999/xlink">
<g id="graph0" class="graph" transform="scale(1 1) rotate(0) translate(4 280)">
<title>dependencies</title>
<polygon fill="#ffffff" stroke="transparent" points="-4,4 -4,-280 526,-280 526,4 -4,4"/>
<text text-anchor="start" x="240.0091" y="-42.4" font-family="sans-serif" font-weight="bold" font-size="14.00" fill="#000000">Legend</text>
<polygon fill="#ffffb3" stroke="transparent" points="27,-10 27,-30 47,-30 47,-10 27,-10"/>
<text text-anchor="start" x="50.629" y="-15.4" font-family="sans-serif" font-size="14.00" fill="#000000"> &#160;Declarations</text>
<polygon fill="#8dd3c7" stroke="transparent" points="140,-10 140,-30 160,-30 160,-10 140,-10"/>
<text text-anchor="start" x="163.7251" y="-15.4" font-family="sans-serif" font-size="14.00" fill="#000000"> &#160;Module</text>
<polygon fill="#80b1d3" stroke="transparent" points="226,-10 226,-30 246,-30 246,-10 226,-10"/>
<text text-anchor="start" x="249.7812" y="-15.4" font-family="sans-serif" font-size="14.00" fill="#000000"> &#160;Bootstrap</text>
<polygon fill="#fdb462" stroke="transparent" points="323,-10 323,-30 343,-30 343,-10 323,-10"/>
<text text-anchor="start" x="346.6732" y="-15.4" font-family="sans-serif" font-size="14.00" fill="#000000"> &#160;Providers</text>
<polygon fill="#fb8072" stroke="transparent" points="419,-10 419,-30 439,-30 439,-10 419,-10"/>
<text text-anchor="start" x="442.7258" y="-15.4" font-family="sans-serif" font-size="14.00" fill="#000000"> &#160;Exports</text>
<g id="clust1" class="cluster">
<title>cluster_SearchBarModule</title>
<polygon fill="none" stroke="#000000" stroke-dasharray="1,5" points="8,-70 8,-268 514,-268 514,-70 8,-70"/>
</g>
<g id="clust2" class="cluster">
<title>cluster_SearchBarModule_declarations</title>
<polygon fill="none" stroke="#000000" points="138,-78 138,-130 506,-130 506,-78 138,-78"/>
</g>
<g id="clust5" class="cluster">
<title>cluster_SearchBarModule_imports</title>
<polygon fill="none" stroke="#000000" points="16,-78 16,-130 130,-130 130,-78 16,-78"/>
</g>
<g id="clust6" class="cluster">
<title>cluster_SearchBarModule_exports</title>
<polygon fill="none" stroke="#000000" points="73,-208 73,-260 449,-260 449,-208 73,-208"/>
</g>
<!-- SearchBarAnimatedComponent -->
<g id="node1" class="node">
<title>SearchBarAnimatedComponent</title>
<polygon fill="#ffffb3" stroke="#000000" points="498.3389,-122 303.6611,-122 303.6611,-86 498.3389,-86 498.3389,-122"/>
<text text-anchor="middle" x="401" y="-99.8" font-family="Times,serif" font-size="14.00" fill="#000000">SearchBarAnimatedComponent</text>
</g>
<!-- SearchBarModule -->
<g id="node3" class="node">
<title>SearchBarModule</title>
<polygon fill="#8dd3c7" stroke="#000000" points="274.8487,-187 271.8487,-191 250.8487,-191 247.8487,-187 157.1513,-187 157.1513,-151 274.8487,-151 274.8487,-187"/>
<text text-anchor="middle" x="216" y="-164.8" font-family="Times,serif" font-size="14.00" fill="#000000">SearchBarModule</text>
</g>
<!-- SearchBarAnimatedComponent&#45;&gt;SearchBarModule -->
<g id="edge1" class="edge">
<title>SearchBarAnimatedComponent&#45;&gt;SearchBarModule</title>
<path fill="none" stroke="#000000" d="M372.375,-122.1061C372.375,-141.3391 372.375,-169 372.375,-169 372.375,-169 285.1187,-169 285.1187,-169"/>
<polygon fill="#000000" stroke="#000000" points="285.1187,-165.5001 275.1187,-169 285.1186,-172.5001 285.1187,-165.5001"/>
</g>
<!-- SearchBarComponent -->
<g id="node2" class="node">
<title>SearchBarComponent</title>
<polygon fill="#ffffb3" stroke="#000000" points="285.6317,-122 146.3683,-122 146.3683,-86 285.6317,-86 285.6317,-122"/>
<text text-anchor="middle" x="216" y="-99.8" font-family="Times,serif" font-size="14.00" fill="#000000">SearchBarComponent</text>
</g>
<!-- SearchBarComponent&#45;&gt;SearchBarModule -->
<g id="edge2" class="edge">
<title>SearchBarComponent&#45;&gt;SearchBarModule</title>
<path fill="none" stroke="#000000" d="M216,-122.1061C216,-122.1061 216,-140.991 216,-140.991"/>
<polygon fill="#000000" stroke="#000000" points="212.5001,-140.9909 216,-150.991 219.5001,-140.991 212.5001,-140.9909"/>
</g>
<!-- SearchBarAnimatedComponent  -->
<g id="node5" class="node">
<title>SearchBarAnimatedComponent </title>
<polygon fill="#fb8072" stroke="#000000" points="441.3391,-252 242.6609,-252 242.6609,-216 441.3391,-216 441.3391,-252"/>
<text text-anchor="middle" x="342" y="-229.8" font-family="Times,serif" font-size="14.00" fill="#000000">SearchBarAnimatedComponent </text>
</g>
<!-- SearchBarModule&#45;&gt;SearchBarAnimatedComponent  -->
<g id="edge4" class="edge">
<title>SearchBarModule&#45;&gt;SearchBarAnimatedComponent </title>
<path fill="none" stroke="#000000" stroke-dasharray="5,2" d="M258.8775,-187.1061C258.8775,-187.1061 258.8775,-205.991 258.8775,-205.991"/>
<polygon fill="#000000" stroke="#000000" points="255.3775,-205.9909 258.8775,-215.991 262.3775,-205.991 255.3775,-205.9909"/>
</g>
<!-- SearchBarComponent  -->
<g id="node6" class="node">
<title>SearchBarComponent </title>
<polygon fill="#fb8072" stroke="#000000" points="224.6313,-252 81.3687,-252 81.3687,-216 224.6313,-216 224.6313,-252"/>
<text text-anchor="middle" x="153" y="-229.8" font-family="Times,serif" font-size="14.00" fill="#000000">SearchBarComponent </text>
</g>
<!-- SearchBarModule&#45;&gt;SearchBarComponent  -->
<g id="edge5" class="edge">
<title>SearchBarModule&#45;&gt;SearchBarComponent </title>
<path fill="none" stroke="#000000" stroke-dasharray="5,2" d="M190.8207,-187.1061C190.8207,-187.1061 190.8207,-205.991 190.8207,-205.991"/>
<polygon fill="#000000" stroke="#000000" points="187.3207,-205.9909 190.8207,-215.991 194.3207,-205.991 187.3207,-205.9909"/>
</g>
<!-- SharedModule -->
<g id="node4" class="node">
<title>SharedModule</title>
<polygon fill="#8dd3c7" stroke="#000000" points="122.4231,-122 119.4231,-126 98.4231,-126 95.4231,-122 23.5769,-122 23.5769,-86 122.4231,-86 122.4231,-122"/>
<text text-anchor="middle" x="73" y="-99.8" font-family="Times,serif" font-size="14.00" fill="#000000">SharedModule</text>
</g>
<!-- SharedModule&#45;&gt;SearchBarModule -->
<g id="edge3" class="edge">
<title>SharedModule&#45;&gt;SearchBarModule</title>
<path fill="none" stroke="#000000" d="M101.8228,-122.1061C101.8228,-141.3391 101.8228,-169 101.8228,-169 101.8228,-169 146.9047,-169 146.9047,-169"/>
<polygon fill="#000000" stroke="#000000" points="146.9048,-172.5001 156.9047,-169 146.9047,-165.5001 146.9048,-172.5001"/>
</g>
</g>
</svg>
