<?xml version="1.0" encoding="UTF-8" standalone="no"?>
<!DOCTYPE svg PUBLIC "-//W3C//DTD SVG 1.1//EN"
 "http://www.w3.org/Graphics/SVG/1.1/DTD/svg11.dtd">
<!-- Generated by graphviz version 2.40.1 (20161225.0304)
 -->
<!-- Title: dependencies Pages: 1 -->
<svg width="921pt" height="284pt"
 viewBox="0.00 0.00 921.00 284.00" xmlns="http://www.w3.org/2000/svg" xmlns:xlink="http://www.w3.org/1999/xlink">
<g id="graph0" class="graph" transform="scale(1 1) rotate(0) translate(4 280)">
<title>dependencies</title>
<polygon fill="#ffffff" stroke="transparent" points="-4,4 -4,-280 917,-280 917,4 -4,4"/>
<text text-anchor="start" x="435.5091" y="-42.4" font-family="sans-serif" font-weight="bold" font-size="14.00" fill="#000000">Legend</text>
<polygon fill="#ffffb3" stroke="transparent" points="222.5,-10 222.5,-30 242.5,-30 242.5,-10 222.5,-10"/>
<text text-anchor="start" x="246.129" y="-15.4" font-family="sans-serif" font-size="14.00" fill="#000000"> &#160;Declarations</text>
<polygon fill="#8dd3c7" stroke="transparent" points="335.5,-10 335.5,-30 355.5,-30 355.5,-10 335.5,-10"/>
<text text-anchor="start" x="359.2251" y="-15.4" font-family="sans-serif" font-size="14.00" fill="#000000"> &#160;Module</text>
<polygon fill="#80b1d3" stroke="transparent" points="421.5,-10 421.5,-30 441.5,-30 441.5,-10 421.5,-10"/>
<text text-anchor="start" x="445.2812" y="-15.4" font-family="sans-serif" font-size="14.00" fill="#000000"> &#160;Bootstrap</text>
<polygon fill="#fdb462" stroke="transparent" points="518.5,-10 518.5,-30 538.5,-30 538.5,-10 518.5,-10"/>
<text text-anchor="start" x="542.1732" y="-15.4" font-family="sans-serif" font-size="14.00" fill="#000000"> &#160;Providers</text>
<polygon fill="#fb8072" stroke="transparent" points="614.5,-10 614.5,-30 634.5,-30 634.5,-10 614.5,-10"/>
<text text-anchor="start" x="638.2258" y="-15.4" font-family="sans-serif" font-size="14.00" fill="#000000"> &#160;Exports</text>
<g id="clust1" class="cluster">
<title>cluster_UtilsModule</title>
<polygon fill="none" stroke="#000000" stroke-dasharray="1,5" points="8,-70 8,-268 905,-268 905,-70 8,-70"/>
</g>
<g id="clust2" class="cluster">
<title>cluster_UtilsModule_declarations</title>
<polygon fill="none" stroke="#000000" points="28,-78 28,-130 884,-130 884,-78 28,-78"/>
</g>
<g id="clust11" class="cluster">
<title>cluster_UtilsModule_exports</title>
<polygon fill="none" stroke="#000000" points="16,-208 16,-260 897,-260 897,-208 16,-208"/>
</g>
<!-- ClickOutsideDirective -->
<g id="node1" class="node">
<title>ClickOutsideDirective</title>
<polygon fill="#ffffb3" stroke="#000000" points="875.9622,-122 734.0378,-122 734.0378,-86 875.9622,-86 875.9622,-122"/>
<text text-anchor="middle" x="805" y="-99.8" font-family="Times,serif" font-size="14.00" fill="#000000">ClickOutsideDirective</text>
</g>
<!-- UtilsModule -->
<g id="node8" class="node">
<title>UtilsModule</title>
<polygon fill="#8dd3c7" stroke="#000000" points="475.2731,-187 472.2731,-191 451.2731,-191 448.2731,-187 388.7269,-187 388.7269,-151 475.2731,-151 475.2731,-187"/>
<text text-anchor="middle" x="432" y="-164.8" font-family="Times,serif" font-size="14.00" fill="#000000">UtilsModule</text>
</g>
<!-- ClickOutsideDirective&#45;&gt;UtilsModule -->
<g id="edge1" class="edge">
<title>ClickOutsideDirective&#45;&gt;UtilsModule</title>
<path fill="none" stroke="#000000" d="M738.6439,-122.2222C738.6439,-140.8285 738.6439,-167 738.6439,-167 738.6439,-167 485.2842,-167 485.2842,-167"/>
<polygon fill="#000000" stroke="#000000" points="485.2842,-163.5001 475.2842,-167 485.2842,-170.5001 485.2842,-163.5001"/>
</g>
<!-- ConstPipe -->
<g id="node2" class="node">
<title>ConstPipe</title>
<polygon fill="#ffffb3" stroke="#000000" points="715.5609,-122 642.4391,-122 642.4391,-86 715.5609,-86 715.5609,-122"/>
<text text-anchor="middle" x="679" y="-99.8" font-family="Times,serif" font-size="14.00" fill="#000000">ConstPipe</text>
</g>
<!-- ConstPipe&#45;&gt;UtilsModule -->
<g id="edge2" class="edge">
<title>ConstPipe&#45;&gt;UtilsModule</title>
<path fill="none" stroke="#000000" d="M693.3433,-122.0336C693.3433,-139.0597 693.3433,-162 693.3433,-162 693.3433,-162 485.4489,-162 485.4489,-162"/>
<polygon fill="#000000" stroke="#000000" points="485.4489,-158.5001 475.4489,-162 485.4489,-165.5001 485.4489,-158.5001"/>
</g>
<!-- DateToTimeAgoPipe -->
<g id="node3" class="node">
<title>DateToTimeAgoPipe</title>
<polygon fill="#ffffb3" stroke="#000000" points="624.0226,-122 487.9774,-122 487.9774,-86 624.0226,-86 624.0226,-122"/>
<text text-anchor="middle" x="556" y="-99.8" font-family="Times,serif" font-size="14.00" fill="#000000">DateToTimeAgoPipe</text>
</g>
<!-- DateToTimeAgoPipe&#45;&gt;UtilsModule -->
<g id="edge3" class="edge">
<title>DateToTimeAgoPipe&#45;&gt;UtilsModule</title>
<path fill="none" stroke="#000000" d="M579.5036,-122.2396C579.5036,-137.5706 579.5036,-157 579.5036,-157 579.5036,-157 485.4582,-157 485.4582,-157"/>
<polygon fill="#000000" stroke="#000000" points="485.4582,-153.5001 475.4582,-157 485.4581,-160.5001 485.4582,-153.5001"/>
</g>
<!-- ImagePipe -->
<g id="node4" class="node">
<title>ImagePipe</title>
<polygon fill="#ffffb3" stroke="#000000" points="469.8683,-122 394.1317,-122 394.1317,-86 469.8683,-86 469.8683,-122"/>
<text text-anchor="middle" x="432" y="-99.8" font-family="Times,serif" font-size="14.00" fill="#000000">ImagePipe</text>
</g>
<!-- ImagePipe&#45;&gt;UtilsModule -->
<g id="edge4" class="edge">
<title>ImagePipe&#45;&gt;UtilsModule</title>
<path fill="none" stroke="#000000" d="M432,-122.1061C432,-122.1061 432,-140.991 432,-140.991"/>
<polygon fill="#000000" stroke="#000000" points="428.5001,-140.9909 432,-150.991 435.5001,-140.991 428.5001,-140.9909"/>
</g>
<!-- InfiniScrollDirective -->
<g id="node5" class="node">
<title>InfiniScrollDirective</title>
<polygon fill="#ffffb3" stroke="#000000" points="376.1247,-122 243.8753,-122 243.8753,-86 376.1247,-86 376.1247,-122"/>
<text text-anchor="middle" x="310" y="-99.8" font-family="Times,serif" font-size="14.00" fill="#000000">InfiniScrollDirective</text>
</g>
<!-- InfiniScrollDirective&#45;&gt;UtilsModule -->
<g id="edge5" class="edge">
<title>InfiniScrollDirective&#45;&gt;UtilsModule</title>
<path fill="none" stroke="#000000" d="M330.604,-122.2396C330.604,-137.5706 330.604,-157 330.604,-157 330.604,-157 378.7049,-157 378.7049,-157"/>
<polygon fill="#000000" stroke="#000000" points="378.7049,-160.5001 388.7049,-157 378.7048,-153.5001 378.7049,-160.5001"/>
</g>
<!-- LogoPipe -->
<g id="node6" class="node">
<title>LogoPipe</title>
<polygon fill="#ffffb3" stroke="#000000" points="225.4418,-122 154.5582,-122 154.5582,-86 225.4418,-86 225.4418,-122"/>
<text text-anchor="middle" x="190" y="-99.8" font-family="Times,serif" font-size="14.00" fill="#000000">LogoPipe</text>
</g>
<!-- LogoPipe&#45;&gt;UtilsModule -->
<g id="edge6" class="edge">
<title>LogoPipe&#45;&gt;UtilsModule</title>
<path fill="none" stroke="#000000" d="M198.2401,-122.0336C198.2401,-139.0597 198.2401,-162 198.2401,-162 198.2401,-162 378.5794,-162 378.5794,-162"/>
<polygon fill="#000000" stroke="#000000" points="378.5794,-165.5001 388.5794,-162 378.5794,-158.5001 378.5794,-165.5001"/>
</g>
<!-- UserNamePipe -->
<g id="node7" class="node">
<title>UserNamePipe</title>
<polygon fill="#ffffb3" stroke="#000000" points="136.2409,-122 35.7591,-122 35.7591,-86 136.2409,-86 136.2409,-122"/>
<text text-anchor="middle" x="86" y="-99.8" font-family="Times,serif" font-size="14.00" fill="#000000">UserNamePipe</text>
</g>
<!-- UserNamePipe&#45;&gt;UtilsModule -->
<g id="edge7" class="edge">
<title>UserNamePipe&#45;&gt;UtilsModule</title>
<path fill="none" stroke="#000000" d="M132.2453,-122.2222C132.2453,-140.8285 132.2453,-167 132.2453,-167 132.2453,-167 378.4131,-167 378.4131,-167"/>
<polygon fill="#000000" stroke="#000000" points="378.4131,-170.5001 388.4131,-167 378.4131,-163.5001 378.4131,-170.5001"/>
</g>
<!-- ClickOutsideDirective  -->
<g id="node9" class="node">
<title>ClickOutsideDirective </title>
<polygon fill="#fb8072" stroke="#000000" points="888.9629,-252 743.0371,-252 743.0371,-216 888.9629,-216 888.9629,-252"/>
<text text-anchor="middle" x="816" y="-229.8" font-family="Times,serif" font-size="14.00" fill="#000000">ClickOutsideDirective </text>
</g>
<!-- UtilsModule&#45;&gt;ClickOutsideDirective  -->
<g id="edge8" class="edge">
<title>UtilsModule&#45;&gt;ClickOutsideDirective </title>
<path fill="none" stroke="#000000" stroke-dasharray="5,2" d="M475.3184,-172C574.5083,-172 809.625,-172 809.625,-172 809.625,-172 809.625,-205.7333 809.625,-205.7333"/>
<polygon fill="#000000" stroke="#000000" points="806.1251,-205.7333 809.625,-215.7333 813.1251,-205.7333 806.1251,-205.7333"/>
</g>
<!-- ConstPipe  -->
<g id="node10" class="node">
<title>ConstPipe </title>
<polygon fill="#fb8072" stroke="#000000" points="725.5596,-252 648.4404,-252 648.4404,-216 725.5596,-216 725.5596,-252"/>
<text text-anchor="middle" x="687" y="-229.8" font-family="Times,serif" font-size="14.00" fill="#000000">ConstPipe </text>
</g>
<!-- UtilsModule&#45;&gt;ConstPipe  -->
<g id="edge9" class="edge">
<title>UtilsModule&#45;&gt;ConstPipe </title>
<path fill="none" stroke="#000000" stroke-dasharray="5,2" d="M475.5414,-177C544.4503,-177 670.9067,-177 670.9067,-177 670.9067,-177 670.9067,-205.9648 670.9067,-205.9648"/>
<polygon fill="#000000" stroke="#000000" points="667.4068,-205.9648 670.9067,-215.9648 674.4068,-205.9649 667.4068,-205.9648"/>
</g>
<!-- DateToTimeAgoPipe  -->
<g id="node11" class="node">
<title>DateToTimeAgoPipe </title>
<polygon fill="#fb8072" stroke="#000000" points="630.0218,-252 489.9782,-252 489.9782,-216 630.0218,-216 630.0218,-252"/>
<text text-anchor="middle" x="560" y="-229.8" font-family="Times,serif" font-size="14.00" fill="#000000">DateToTimeAgoPipe </text>
</g>
<!-- UtilsModule&#45;&gt;DateToTimeAgoPipe  -->
<g id="edge10" class="edge">
<title>UtilsModule&#45;&gt;DateToTimeAgoPipe </title>
<path fill="none" stroke="#000000" stroke-dasharray="5,2" d="M475.2759,-182C503.3558,-182 534.7464,-182 534.7464,-182 534.7464,-182 534.7464,-205.8129 534.7464,-205.8129"/>
<polygon fill="#000000" stroke="#000000" points="531.2465,-205.8129 534.7464,-215.8129 538.2465,-205.813 531.2465,-205.8129"/>
</g>
<!-- ImagePipe  -->
<g id="node12" class="node">
<title>ImagePipe </title>
<polygon fill="#fb8072" stroke="#000000" points="471.8691,-252 392.1309,-252 392.1309,-216 471.8691,-216 471.8691,-252"/>
<text text-anchor="middle" x="432" y="-229.8" font-family="Times,serif" font-size="14.00" fill="#000000">ImagePipe </text>
</g>
<!-- UtilsModule&#45;&gt;ImagePipe  -->
<g id="edge11" class="edge">
<title>UtilsModule&#45;&gt;ImagePipe </title>
<path fill="none" stroke="#000000" stroke-dasharray="5,2" d="M432,-187.1061C432,-187.1061 432,-205.991 432,-205.991"/>
<polygon fill="#000000" stroke="#000000" points="428.5001,-205.9909 432,-215.991 435.5001,-205.991 428.5001,-205.9909"/>
</g>
<!-- InfiniScrollDirective  -->
<g id="node13" class="node">
<title>InfiniScrollDirective </title>
<polygon fill="#fb8072" stroke="#000000" points="374.1243,-252 237.8757,-252 237.8757,-216 374.1243,-216 374.1243,-252"/>
<text text-anchor="middle" x="306" y="-229.8" font-family="Times,serif" font-size="14.00" fill="#000000">InfiniScrollDirective </text>
</g>
<!-- UtilsModule&#45;&gt;InfiniScrollDirective  -->
<g id="edge12" class="edge">
<title>UtilsModule&#45;&gt;InfiniScrollDirective </title>
<path fill="none" stroke="#000000" stroke-dasharray="5,2" d="M388.539,-182C345.8714,-182 287.146,-182 287.146,-182 287.146,-182 287.146,-205.8129 287.146,-205.8129"/>
<polygon fill="#000000" stroke="#000000" points="283.6461,-205.8129 287.146,-215.8129 290.6461,-205.813 283.6461,-205.8129"/>
</g>
<!-- LogoPipe  -->
<g id="node14" class="node">
<title>LogoPipe </title>
<polygon fill="#fb8072" stroke="#000000" points="219.9404,-252 146.0596,-252 146.0596,-216 219.9404,-216 219.9404,-252"/>
<text text-anchor="middle" x="183" y="-229.8" font-family="Times,serif" font-size="14.00" fill="#000000">LogoPipe </text>
</g>
<!-- UtilsModule&#45;&gt;LogoPipe  -->
<g id="edge13" class="edge">
<title>UtilsModule&#45;&gt;LogoPipe </title>
<path fill="none" stroke="#000000" stroke-dasharray="5,2" d="M388.6596,-177C315.7671,-177 176.5099,-177 176.5099,-177 176.5099,-177 176.5099,-205.9648 176.5099,-205.9648"/>
<polygon fill="#000000" stroke="#000000" points="173.01,-205.9648 176.5099,-215.9648 180.01,-205.9649 173.01,-205.9648"/>
</g>
<!-- UserNamePipe  -->
<g id="node15" class="node">
<title>UserNamePipe </title>
<polygon fill="#fb8072" stroke="#000000" points="128.2409,-252 23.7591,-252 23.7591,-216 128.2409,-216 128.2409,-252"/>
<text text-anchor="middle" x="76" y="-229.8" font-family="Times,serif" font-size="14.00" fill="#000000">UserNamePipe </text>
</g>
<!-- UtilsModule&#45;&gt;UserNamePipe  -->
<g id="edge14" class="edge">
<title>UtilsModule&#45;&gt;UserNamePipe </title>
<path fill="none" stroke="#000000" stroke-dasharray="5,2" d="M388.7166,-172C295.0404,-172 81.875,-172 81.875,-172 81.875,-172 81.875,-205.7333 81.875,-205.7333"/>
<polygon fill="#000000" stroke="#000000" points="78.3751,-205.7333 81.875,-215.7333 85.3751,-205.7333 78.3751,-205.7333"/>
</g>
</g>
</svg>
