<svg xmlns="http://www.w3.org/2000/svg" width="20" height="20" viewBox="0 0 20 20">
    <path fill="#CBCBCB" fill-rule="nonzero" d="M10.194 1.708C5.004 1.708.782 5.186.782 9.46c0 2.018.923 3.91 2.608 5.357L1.5 18.591c-.167.332.185.687.516.53l5.048-2.348c1.003.29 2.054.437 3.13.437 5.19 0 9.411-3.477 9.411-7.75 0-4.274-4.222-7.752-9.411-7.752zM6.667 7.275h5.098a.392.392 0 0 1 0 .784H6.667a.392.392 0 0 1 0-.784zm7.45 5.49h-7.45a.392.392 0 0 1 0-.785h7.45a.392.392 0 0 1 0 .785zm0-2.353h-7.45a.392.392 0 0 1 0-.785h7.45a.392.392 0 0 1 0 .785z"/>
</svg>
