
<svg width="16px" height="18px" viewBox="0 0 16 18" version="1.1" xmlns="http://www.w3.org/2000/svg" xmlns:xlink="http://www.w3.org/1999/xlink">
    <!-- Generator: Sketch 49 (51002) - http://www.bohemiancoding.com/sketch -->
    <desc>Created with Sketch.</desc>
    <defs></defs>
    <g id="Maquettes" stroke="none" stroke-width="1" fill="none" fill-rule="evenodd">
        <g id="Product-Full-Screen" transform="translate(-941.000000, -254.000000)" fill="#5D6D8B">
            <g id="Group-7" transform="translate(50.000000, 187.000000)">
                <g id="Stacked-Group-2" transform="translate(452.000000, 0.000000)">
                    <g id="Group-20">
                        <g id="Group-9" transform="translate(32.000000, 32.000000)">
                            <g id="Group-19">
                                <g id="Stacked-Group">
                                    <g id="Group-21-Copy-3" transform="translate(373.000000, 0.000000)">
                                        <g id="Icons/Tasks" transform="translate(34.000000, 35.000000)">
                                            <g id="clipboards-(1)">
                                                <polygon id="Shape" fill-rule="nonzero" points="2.54030464 7.45407529 2.54030464 8.80936941 9.34503034 8.80936941 10.1489734 7.95024 10.1489734 7.45407529"></polygon>
                                                <polygon id="Shape" fill-rule="nonzero" points="2.54030464 10.1646635 2.54030464 11.5199576 6.80872817 11.5199576 8.07691889 10.1646635"></polygon>
                                                <rect id="Rectangle-path" fill-rule="nonzero" x="2.54034427" y="12.8752094" width="3.80433437" height="1.35529412"></rect>
                                                <path d="M15.661652,5.89163294 L14.7649387,4.93331294 C14.5174588,4.66881882 14.1157845,4.66881882 13.8683046,4.93331294 C13.6293449,5.18870118 13.4098824,5.42325176 13.1994947,5.64810353 L14.9928817,7.56478588 C15.2048941,7.33819765 15.4249115,7.10305412 15.661652,6.84999529 C15.9092111,6.58545882 15.9092111,6.15616941 15.661652,5.89163294 Z" id="Shape" fill-rule="nonzero"></path>
                                                <path d="M12.7523269,6.12847059 C10.4764632,8.56084235 9.80571146,9.27520941 6.97869474,12.2966682 C6.97869474,13.4692941 6.97869474,13.2151765 6.97869474,14.2305882 C8.50510464,14.2305459 8.11896471,14.2313082 8.75868731,14.2276235 C8.89936842,14.0772706 9.03323344,13.9342024 9.16444334,13.7939718 L11.4170848,11.38752 L11.4170848,16.2635294 L1.27219319,16.2635294 L1.27219319,4.06588235 L2.5403839,4.06588235 L2.5403839,5.42117647 L10.1489734,5.42117647 L10.1489734,4.06588235 L11.4170848,4.06588235 L11.4170848,6.59507294 L12.6851963,5.23982118 L12.6851963,4.06588235 C12.6851963,3.31733647 12.1174786,2.71058824 11.4170848,2.71058824 L9.6566291,2.71058824 C9.42179071,2.43177882 9.1201387,2.21844706 8.77354799,2.11188706 C8.48156533,2.02218353 8.25687183,1.78204235 8.1729387,1.46998588 C7.9444805,0.621063529 7.21242353,0 6.34463901,0 C5.47685449,0 4.74483715,0.621063529 4.51633932,1.46994353 C4.43228731,1.78233882 4.20703901,2.02218353 3.91473932,2.11218353 C3.56846563,2.21882824 3.26713065,2.43194824 3.03253003,2.71058824 L1.27219319,2.71058824 C0.571839009,2.71058824 0.00408173375,3.31733647 0.00408173375,4.06588235 L0.00408173375,16.2635294 C0.00408173375,17.0120329 0.571839009,17.6188235 1.27219319,17.6188235 L11.4170848,17.6188235 C12.1174786,17.6188235 12.6851963,17.0120329 12.6851963,16.2635294 L12.6851963,10.0327765 L14.5457536,8.04515294 L12.7523269,6.12847059 Z M8.49452384,13.5515435 C8.25825882,13.5529835 8.23059814,13.5529835 7.62515418,13.5528988 L7.61275046,13.5529412 L7.61275046,13.1735435 L7.61275046,12.5772988 L7.81937337,12.3564282 L8.71604706,13.3147906 L8.49452384,13.5515435 Z M6.35276285,1.35525176 C6.70295975,1.35525176 6.98681858,1.65862588 6.98681858,2.03289882 C6.98681858,2.40712941 6.70295975,2.71054588 6.35276285,2.71054588 C6.00256594,2.71054588 5.71870712,2.40712941 5.71870712,2.03289882 C5.71870712,1.65862588 6.00260557,1.35525176 6.35276285,1.35525176 Z" id="Shape" fill-rule="nonzero"></path>
                                            </g>
                                        </g>
                                    </g>
                                </g>
                            </g>
                        </g>
                    </g>
                </g>
            </g>
        </g>
    </g>
</svg>
