<?xml version="1.0" encoding="UTF-8" standalone="no"?>
<!DOCTYPE svg PUBLIC "-//W3C//DTD SVG 1.1//EN"
 "http://www.w3.org/Graphics/SVG/1.1/DTD/svg11.dtd">
<!-- Generated by graphviz version 2.40.1 (20161225.0304)
 -->
<!-- Title: dependencies Pages: 1 -->
<svg width="625pt" height="284pt"
 viewBox="0.00 0.00 625.00 284.00" xmlns="http://www.w3.org/2000/svg" xmlns:xlink="http://www.w3.org/1999/xlink">
<g id="graph0" class="graph" transform="scale(1 1) rotate(0) translate(4 280)">
<title>dependencies</title>
<polygon fill="#ffffff" stroke="transparent" points="-4,4 -4,-280 621,-280 621,4 -4,4"/>
<text text-anchor="start" x="287.5091" y="-42.4" font-family="sans-serif" font-weight="bold" font-size="14.00" fill="#000000">Legend</text>
<polygon fill="#ffffb3" stroke="transparent" points="74.5,-10 74.5,-30 94.5,-30 94.5,-10 74.5,-10"/>
<text text-anchor="start" x="98.129" y="-15.4" font-family="sans-serif" font-size="14.00" fill="#000000"> &#160;Declarations</text>
<polygon fill="#8dd3c7" stroke="transparent" points="187.5,-10 187.5,-30 207.5,-30 207.5,-10 187.5,-10"/>
<text text-anchor="start" x="211.2251" y="-15.4" font-family="sans-serif" font-size="14.00" fill="#000000"> &#160;Module</text>
<polygon fill="#80b1d3" stroke="transparent" points="273.5,-10 273.5,-30 293.5,-30 293.5,-10 273.5,-10"/>
<text text-anchor="start" x="297.2812" y="-15.4" font-family="sans-serif" font-size="14.00" fill="#000000"> &#160;Bootstrap</text>
<polygon fill="#fdb462" stroke="transparent" points="370.5,-10 370.5,-30 390.5,-30 390.5,-10 370.5,-10"/>
<text text-anchor="start" x="394.1732" y="-15.4" font-family="sans-serif" font-size="14.00" fill="#000000"> &#160;Providers</text>
<polygon fill="#fb8072" stroke="transparent" points="466.5,-10 466.5,-30 486.5,-30 486.5,-10 466.5,-10"/>
<text text-anchor="start" x="490.2258" y="-15.4" font-family="sans-serif" font-size="14.00" fill="#000000"> &#160;Exports</text>
<g id="clust1" class="cluster">
<title>cluster_NotificationsModule</title>
<polygon fill="none" stroke="#000000" stroke-dasharray="1,5" points="8,-70 8,-268 609,-268 609,-70 8,-70"/>
</g>
<g id="clust2" class="cluster">
<title>cluster_NotificationsModule_declarations</title>
<polygon fill="none" stroke="#000000" points="214,-78 214,-130 601,-130 601,-78 214,-78"/>
</g>
<g id="clust6" class="cluster">
<title>cluster_NotificationsModule_exports</title>
<polygon fill="none" stroke="#000000" points="212,-208 212,-260 436,-260 436,-208 212,-208"/>
</g>
<g id="clust8" class="cluster">
<title>cluster_NotificationsModule_providers</title>
<polygon fill="none" stroke="#000000" points="16,-78 16,-130 206,-130 206,-78 16,-78"/>
</g>
<!-- NotificationComponent -->
<g id="node1" class="node">
<title>NotificationComponent</title>
<polygon fill="#ffffb3" stroke="#000000" points="593.4818,-122 444.5182,-122 444.5182,-86 593.4818,-86 593.4818,-122"/>
<text text-anchor="middle" x="519" y="-99.8" font-family="Times,serif" font-size="14.00" fill="#000000">NotificationComponent</text>
</g>
<!-- NotificationsModule -->
<g id="node3" class="node">
<title>NotificationsModule</title>
<polygon fill="#8dd3c7" stroke="#000000" points="390.1443,-187 387.1443,-191 366.1443,-191 363.1443,-187 257.8557,-187 257.8557,-151 390.1443,-151 390.1443,-187"/>
<text text-anchor="middle" x="324" y="-164.8" font-family="Times,serif" font-size="14.00" fill="#000000">NotificationsModule</text>
</g>
<!-- NotificationComponent&#45;&gt;NotificationsModule -->
<g id="edge1" class="edge">
<title>NotificationComponent&#45;&gt;NotificationsModule</title>
<path fill="none" stroke="#000000" d="M519,-122.1061C519,-141.3391 519,-169 519,-169 519,-169 400.2902,-169 400.2902,-169"/>
<polygon fill="#000000" stroke="#000000" points="400.2902,-165.5001 390.2902,-169 400.2902,-172.5001 400.2902,-165.5001"/>
</g>
<!-- NotificationContainerComponent -->
<g id="node2" class="node">
<title>NotificationContainerComponent</title>
<polygon fill="#ffffb3" stroke="#000000" points="426.1895,-122 221.8105,-122 221.8105,-86 426.1895,-86 426.1895,-122"/>
<text text-anchor="middle" x="324" y="-99.8" font-family="Times,serif" font-size="14.00" fill="#000000">NotificationContainerComponent</text>
</g>
<!-- NotificationContainerComponent&#45;&gt;NotificationsModule -->
<g id="edge2" class="edge">
<title>NotificationContainerComponent&#45;&gt;NotificationsModule</title>
<path fill="none" stroke="#000000" d="M324,-122.1061C324,-122.1061 324,-140.991 324,-140.991"/>
<polygon fill="#000000" stroke="#000000" points="320.5001,-140.9909 324,-150.991 327.5001,-140.991 320.5001,-140.9909"/>
</g>
<!-- NotificationContainerComponent  -->
<g id="node4" class="node">
<title>NotificationContainerComponent </title>
<polygon fill="#fb8072" stroke="#000000" points="427.6896,-252 220.3104,-252 220.3104,-216 427.6896,-216 427.6896,-252"/>
<text text-anchor="middle" x="324" y="-229.8" font-family="Times,serif" font-size="14.00" fill="#000000">NotificationContainerComponent </text>
</g>
<!-- NotificationsModule&#45;&gt;NotificationContainerComponent  -->
<g id="edge3" class="edge">
<title>NotificationsModule&#45;&gt;NotificationContainerComponent </title>
<path fill="none" stroke="#000000" stroke-dasharray="5,2" d="M324,-187.1061C324,-187.1061 324,-205.991 324,-205.991"/>
<polygon fill="#000000" stroke="#000000" points="320.5001,-205.9909 324,-215.991 327.5001,-205.991 320.5001,-205.9909"/>
</g>
<!-- NotificationService -->
<g id="node5" class="node">
<title>NotificationService</title>
<ellipse fill="#fdb462" stroke="#000000" cx="111" cy="-104" rx="86.8107" ry="18"/>
<text text-anchor="middle" x="111" y="-99.8" font-family="Times,serif" font-size="14.00" fill="#000000">NotificationService</text>
</g>
<!-- NotificationService&#45;&gt;NotificationsModule -->
<g id="edge4" class="edge">
<title>NotificationService&#45;&gt;NotificationsModule</title>
<path fill="none" stroke="#000000" d="M111,-122.1061C111,-141.3391 111,-169 111,-169 111,-169 247.773,-169 247.773,-169"/>
<polygon fill="#000000" stroke="#000000" points="247.7731,-172.5001 257.773,-169 247.773,-165.5001 247.7731,-172.5001"/>
</g>
</g>
</svg>
