<?xml version="1.0" encoding="UTF-8" standalone="no"?>
<!DOCTYPE svg PUBLIC "-//W3C//DTD SVG 1.1//EN"
 "http://www.w3.org/Graphics/SVG/1.1/DTD/svg11.dtd">
<!-- Generated by graphviz version 2.40.1 (20161225.0304)
 -->
<!-- Title: dependencies Pages: 1 -->
<svg width="2910pt" height="284pt"
 viewBox="0.00 0.00 2910.00 284.00" xmlns="http://www.w3.org/2000/svg" xmlns:xlink="http://www.w3.org/1999/xlink">
<g id="graph0" class="graph" transform="scale(1 1) rotate(0) translate(4 280)">
<title>dependencies</title>
<polygon fill="#ffffff" stroke="transparent" points="-4,4 -4,-280 2906,-280 2906,4 -4,4"/>
<text text-anchor="start" x="1430.0091" y="-42.4" font-family="sans-serif" font-weight="bold" font-size="14.00" fill="#000000">Legend</text>
<polygon fill="#ffffb3" stroke="transparent" points="1217,-10 1217,-30 1237,-30 1237,-10 1217,-10"/>
<text text-anchor="start" x="1240.629" y="-15.4" font-family="sans-serif" font-size="14.00" fill="#000000"> &#160;Declarations</text>
<polygon fill="#8dd3c7" stroke="transparent" points="1330,-10 1330,-30 1350,-30 1350,-10 1330,-10"/>
<text text-anchor="start" x="1353.7251" y="-15.4" font-family="sans-serif" font-size="14.00" fill="#000000"> &#160;Module</text>
<polygon fill="#80b1d3" stroke="transparent" points="1416,-10 1416,-30 1436,-30 1436,-10 1416,-10"/>
<text text-anchor="start" x="1439.7812" y="-15.4" font-family="sans-serif" font-size="14.00" fill="#000000"> &#160;Bootstrap</text>
<polygon fill="#fdb462" stroke="transparent" points="1513,-10 1513,-30 1533,-30 1533,-10 1513,-10"/>
<text text-anchor="start" x="1536.6732" y="-15.4" font-family="sans-serif" font-size="14.00" fill="#000000"> &#160;Providers</text>
<polygon fill="#fb8072" stroke="transparent" points="1609,-10 1609,-30 1629,-30 1629,-10 1609,-10"/>
<text text-anchor="start" x="1632.7258" y="-15.4" font-family="sans-serif" font-size="14.00" fill="#000000"> &#160;Exports</text>
<g id="clust1" class="cluster">
<title>cluster_DynamicFormsModule</title>
<polygon fill="none" stroke="#000000" stroke-dasharray="1,5" points="8,-70 8,-268 2894,-268 2894,-70 8,-70"/>
</g>
<g id="clust2" class="cluster">
<title>cluster_DynamicFormsModule_declarations</title>
<polygon fill="none" stroke="#000000" points="1099,-78 1099,-130 2886,-130 2886,-78 1099,-78"/>
</g>
<g id="clust12" class="cluster">
<title>cluster_DynamicFormsModule_imports</title>
<polygon fill="none" stroke="#000000" points="240,-78 240,-130 1091,-130 1091,-78 240,-78"/>
</g>
<g id="clust13" class="cluster">
<title>cluster_DynamicFormsModule_exports</title>
<polygon fill="none" stroke="#000000" points="1083,-208 1083,-260 1265,-260 1265,-208 1083,-208"/>
</g>
<g id="clust15" class="cluster">
<title>cluster_DynamicFormsModule_providers</title>
<polygon fill="none" stroke="#000000" points="16,-78 16,-130 232,-130 232,-78 16,-78"/>
</g>
<!-- DynamicEditableTextComponent -->
<g id="node1" class="node">
<title>DynamicEditableTextComponent</title>
<polygon fill="#ffffb3" stroke="#000000" points="2878.4608,-122 2673.5392,-122 2673.5392,-86 2878.4608,-86 2878.4608,-122"/>
<text text-anchor="middle" x="2776" y="-99.8" font-family="Times,serif" font-size="14.00" fill="#000000">DynamicEditableTextComponent</text>
</g>
<!-- DynamicFormsModule -->
<g id="node10" class="node">
<title>DynamicFormsModule</title>
<polygon fill="#8dd3c7" stroke="#000000" points="1247.1456,-187 1244.1456,-191 1223.1456,-191 1220.1456,-187 1100.8544,-187 1100.8544,-151 1247.1456,-151 1247.1456,-187"/>
<text text-anchor="middle" x="1174" y="-164.8" font-family="Times,serif" font-size="14.00" fill="#000000">DynamicFormsModule</text>
</g>
<!-- DynamicEditableTextComponent&#45;&gt;DynamicFormsModule -->
<g id="edge1" class="edge">
<title>DynamicEditableTextComponent&#45;&gt;DynamicFormsModule</title>
<path fill="none" stroke="#000000" d="M2776,-122.3228C2776,-145.6602 2776,-183 2776,-183 2776,-183 1257.2612,-183 1257.2612,-183"/>
<polygon fill="#000000" stroke="#000000" points="1257.2612,-179.5001 1247.2612,-183 1257.2611,-186.5001 1257.2612,-179.5001"/>
</g>
<!-- DynamicFormComponent -->
<g id="node2" class="node">
<title>DynamicFormComponent</title>
<polygon fill="#ffffb3" stroke="#000000" points="2655.4832,-122 2492.5168,-122 2492.5168,-86 2655.4832,-86 2655.4832,-122"/>
<text text-anchor="middle" x="2574" y="-99.8" font-family="Times,serif" font-size="14.00" fill="#000000">DynamicFormComponent</text>
</g>
<!-- DynamicFormComponent&#45;&gt;DynamicFormsModule -->
<g id="edge2" class="edge">
<title>DynamicFormComponent&#45;&gt;DynamicFormsModule</title>
<path fill="none" stroke="#000000" d="M2574,-122.1554C2574,-144.3519 2574,-179 2574,-179 2574,-179 1257.2989,-179 1257.2989,-179"/>
<polygon fill="#000000" stroke="#000000" points="1257.299,-175.5001 1247.2989,-179 1257.2989,-182.5001 1257.299,-175.5001"/>
</g>
<!-- DynamicFormFieldComponent -->
<g id="node3" class="node">
<title>DynamicFormFieldComponent</title>
<polygon fill="#ffffb3" stroke="#000000" points="2474.7617,-122 2283.2383,-122 2283.2383,-86 2474.7617,-86 2474.7617,-122"/>
<text text-anchor="middle" x="2379" y="-99.8" font-family="Times,serif" font-size="14.00" fill="#000000">DynamicFormFieldComponent</text>
</g>
<!-- DynamicFormFieldComponent&#45;&gt;DynamicFormsModule -->
<g id="edge3" class="edge">
<title>DynamicFormFieldComponent&#45;&gt;DynamicFormsModule</title>
<path fill="none" stroke="#000000" d="M2379,-122.2843C2379,-143.3211 2379,-175 2379,-175 2379,-175 1257.5642,-175 1257.5642,-175"/>
<polygon fill="#000000" stroke="#000000" points="1257.5643,-171.5001 1247.5642,-175 1257.5642,-178.5001 1257.5643,-171.5001"/>
</g>
<!-- EditablePackagingComponent -->
<g id="node4" class="node">
<title>EditablePackagingComponent</title>
<polygon fill="#ffffb3" stroke="#000000" points="2265.3032,-122 2078.6968,-122 2078.6968,-86 2265.3032,-86 2265.3032,-122"/>
<text text-anchor="middle" x="2172" y="-99.8" font-family="Times,serif" font-size="14.00" fill="#000000">EditablePackagingComponent</text>
</g>
<!-- EditablePackagingComponent&#45;&gt;DynamicFormsModule -->
<g id="edge4" class="edge">
<title>EditablePackagingComponent&#45;&gt;DynamicFormsModule</title>
<path fill="none" stroke="#000000" d="M2172,-122.308C2172,-142.1455 2172,-171 2172,-171 2172,-171 1257.3853,-171 1257.3853,-171"/>
<polygon fill="#000000" stroke="#000000" points="1257.3854,-167.5001 1247.3853,-171 1257.3853,-174.5001 1257.3854,-167.5001"/>
</g>
<!-- EditablePriceComponent -->
<g id="node5" class="node">
<title>EditablePriceComponent</title>
<polygon fill="#ffffb3" stroke="#000000" points="2060.2492,-122 1903.7508,-122 1903.7508,-86 2060.2492,-86 2060.2492,-122"/>
<text text-anchor="middle" x="1982" y="-99.8" font-family="Times,serif" font-size="14.00" fill="#000000">EditablePriceComponent</text>
</g>
<!-- EditablePriceComponent&#45;&gt;DynamicFormsModule -->
<g id="edge5" class="edge">
<title>EditablePriceComponent&#45;&gt;DynamicFormsModule</title>
<path fill="none" stroke="#000000" d="M1982,-122.2222C1982,-140.8285 1982,-167 1982,-167 1982,-167 1257.4878,-167 1257.4878,-167"/>
<polygon fill="#000000" stroke="#000000" points="1257.4878,-163.5001 1247.4878,-167 1257.4877,-170.5001 1257.4878,-163.5001"/>
</g>
<!-- EditablePriceMatrixComponent -->
<g id="node6" class="node">
<title>EditablePriceMatrixComponent</title>
<polygon fill="#ffffb3" stroke="#000000" points="1885.3501,-122 1690.6499,-122 1690.6499,-86 1885.3501,-86 1885.3501,-122"/>
<text text-anchor="middle" x="1788" y="-99.8" font-family="Times,serif" font-size="14.00" fill="#000000">EditablePriceMatrixComponent</text>
</g>
<!-- EditablePriceMatrixComponent&#45;&gt;DynamicFormsModule -->
<g id="edge6" class="edge">
<title>EditablePriceMatrixComponent&#45;&gt;DynamicFormsModule</title>
<path fill="none" stroke="#000000" d="M1788,-122.0225C1788,-139.3734 1788,-163 1788,-163 1788,-163 1257.1487,-163 1257.1487,-163"/>
<polygon fill="#000000" stroke="#000000" points="1257.1487,-159.5001 1247.1487,-163 1257.1487,-166.5001 1257.1487,-159.5001"/>
</g>
<!-- EditablePriceMatrixRowComponent -->
<g id="node7" class="node">
<title>EditablePriceMatrixRowComponent</title>
<polygon fill="#ffffb3" stroke="#000000" points="1672.7934,-122 1451.2066,-122 1451.2066,-86 1672.7934,-86 1672.7934,-122"/>
<text text-anchor="middle" x="1562" y="-99.8" font-family="Times,serif" font-size="14.00" fill="#000000">EditablePriceMatrixRowComponent</text>
</g>
<!-- EditablePriceMatrixRowComponent&#45;&gt;DynamicFormsModule -->
<g id="edge7" class="edge">
<title>EditablePriceMatrixRowComponent&#45;&gt;DynamicFormsModule</title>
<path fill="none" stroke="#000000" d="M1562,-122.0091C1562,-138.0494 1562,-159 1562,-159 1562,-159 1257.436,-159 1257.436,-159"/>
<polygon fill="#000000" stroke="#000000" points="1257.436,-155.5001 1247.436,-159 1257.4359,-162.5001 1257.436,-155.5001"/>
</g>
<!-- EditableSelectorComponent -->
<g id="node8" class="node">
<title>EditableSelectorComponent</title>
<polygon fill="#ffffb3" stroke="#000000" points="1432.8543,-122 1259.1457,-122 1259.1457,-86 1432.8543,-86 1432.8543,-122"/>
<text text-anchor="middle" x="1346" y="-99.8" font-family="Times,serif" font-size="14.00" fill="#000000">EditableSelectorComponent</text>
</g>
<!-- EditableSelectorComponent&#45;&gt;DynamicFormsModule -->
<g id="edge8" class="edge">
<title>EditableSelectorComponent&#45;&gt;DynamicFormsModule</title>
<path fill="none" stroke="#000000" d="M1346,-122.1243C1346,-136.7832 1346,-155 1346,-155 1346,-155 1257.4424,-155 1257.4424,-155"/>
<polygon fill="#000000" stroke="#000000" points="1257.4424,-151.5001 1247.4424,-155 1257.4424,-158.5001 1257.4424,-151.5001"/>
</g>
<!-- FieldCellComponent -->
<g id="node9" class="node">
<title>FieldCellComponent</title>
<polygon fill="#ffffb3" stroke="#000000" points="1240.9439,-122 1107.0561,-122 1107.0561,-86 1240.9439,-86 1240.9439,-122"/>
<text text-anchor="middle" x="1174" y="-99.8" font-family="Times,serif" font-size="14.00" fill="#000000">FieldCellComponent</text>
</g>
<!-- FieldCellComponent&#45;&gt;DynamicFormsModule -->
<g id="edge9" class="edge">
<title>FieldCellComponent&#45;&gt;DynamicFormsModule</title>
<path fill="none" stroke="#000000" d="M1174,-122.1061C1174,-122.1061 1174,-140.991 1174,-140.991"/>
<polygon fill="#000000" stroke="#000000" points="1170.5001,-140.9909 1174,-150.991 1177.5001,-140.991 1170.5001,-140.9909"/>
</g>
<!-- DynamicFormComponent  -->
<g id="node18" class="node">
<title>DynamicFormComponent </title>
<polygon fill="#fb8072" stroke="#000000" points="1257.4839,-252 1090.5161,-252 1090.5161,-216 1257.4839,-216 1257.4839,-252"/>
<text text-anchor="middle" x="1174" y="-229.8" font-family="Times,serif" font-size="14.00" fill="#000000">DynamicFormComponent </text>
</g>
<!-- DynamicFormsModule&#45;&gt;DynamicFormComponent  -->
<g id="edge17" class="edge">
<title>DynamicFormsModule&#45;&gt;DynamicFormComponent </title>
<path fill="none" stroke="#000000" stroke-dasharray="5,2" d="M1174,-187.1061C1174,-187.1061 1174,-205.991 1174,-205.991"/>
<polygon fill="#000000" stroke="#000000" points="1170.5001,-205.9909 1174,-215.991 1177.5001,-205.991 1170.5001,-205.9909"/>
</g>
<!-- EditableFieldModule -->
<g id="node11" class="node">
<title>EditableFieldModule</title>
<polygon fill="#8dd3c7" stroke="#000000" points="1083.4818,-122 1080.4818,-126 1059.4818,-126 1056.4818,-122 948.5182,-122 948.5182,-86 1083.4818,-86 1083.4818,-122"/>
<text text-anchor="middle" x="1016" y="-99.8" font-family="Times,serif" font-size="14.00" fill="#000000">EditableFieldModule</text>
</g>
<!-- EditableFieldModule&#45;&gt;DynamicFormsModule -->
<g id="edge10" class="edge">
<title>EditableFieldModule&#45;&gt;DynamicFormsModule</title>
<path fill="none" stroke="#000000" d="M1016,-122.1243C1016,-136.7832 1016,-155 1016,-155 1016,-155 1090.5506,-155 1090.5506,-155"/>
<polygon fill="#000000" stroke="#000000" points="1090.5507,-158.5001 1100.5506,-155 1090.5506,-151.5001 1090.5507,-158.5001"/>
</g>
<!-- FileModule -->
<g id="node12" class="node">
<title>FileModule</title>
<polygon fill="#8dd3c7" stroke="#000000" points="930.8289,-122 927.8289,-126 906.8289,-126 903.8289,-122 849.1711,-122 849.1711,-86 930.8289,-86 930.8289,-122"/>
<text text-anchor="middle" x="890" y="-99.8" font-family="Times,serif" font-size="14.00" fill="#000000">FileModule</text>
</g>
<!-- FileModule&#45;&gt;DynamicFormsModule -->
<g id="edge11" class="edge">
<title>FileModule&#45;&gt;DynamicFormsModule</title>
<path fill="none" stroke="#000000" d="M890,-122.0091C890,-138.0494 890,-159 890,-159 890,-159 1090.4936,-159 1090.4936,-159"/>
<polygon fill="#000000" stroke="#000000" points="1090.4936,-162.5001 1100.4936,-159 1090.4936,-155.5001 1090.4936,-162.5001"/>
</g>
<!-- InputsCustomModule -->
<g id="node13" class="node">
<title>InputsCustomModule</title>
<polygon fill="#8dd3c7" stroke="#000000" points="831.108,-122 828.108,-126 807.108,-126 804.108,-122 692.892,-122 692.892,-86 831.108,-86 831.108,-122"/>
<text text-anchor="middle" x="762" y="-99.8" font-family="Times,serif" font-size="14.00" fill="#000000">InputsCustomModule</text>
</g>
<!-- InputsCustomModule&#45;&gt;DynamicFormsModule -->
<g id="edge12" class="edge">
<title>InputsCustomModule&#45;&gt;DynamicFormsModule</title>
<path fill="none" stroke="#000000" d="M762,-122.0225C762,-139.3734 762,-163 762,-163 762,-163 1090.8174,-163 1090.8174,-163"/>
<polygon fill="#000000" stroke="#000000" points="1090.8174,-166.5001 1100.8174,-163 1090.8174,-159.5001 1090.8174,-166.5001"/>
</g>
<!-- InputsModule -->
<g id="node14" class="node">
<title>InputsModule</title>
<polygon fill="#8dd3c7" stroke="#000000" points="675.0467,-122 672.0467,-126 651.0467,-126 648.0467,-122 580.9533,-122 580.9533,-86 675.0467,-86 675.0467,-122"/>
<text text-anchor="middle" x="628" y="-99.8" font-family="Times,serif" font-size="14.00" fill="#000000">InputsModule</text>
</g>
<!-- InputsModule&#45;&gt;DynamicFormsModule -->
<g id="edge13" class="edge">
<title>InputsModule&#45;&gt;DynamicFormsModule</title>
<path fill="none" stroke="#000000" d="M628,-122.2222C628,-140.8285 628,-167 628,-167 628,-167 1090.6475,-167 1090.6475,-167"/>
<polygon fill="#000000" stroke="#000000" points="1090.6475,-170.5001 1100.6475,-167 1090.6475,-163.5001 1090.6475,-170.5001"/>
</g>
<!-- SelectorsModule -->
<g id="node15" class="node">
<title>SelectorsModule</title>
<polygon fill="#8dd3c7" stroke="#000000" points="562.3627,-122 559.3627,-126 538.3627,-126 535.3627,-122 451.6373,-122 451.6373,-86 562.3627,-86 562.3627,-122"/>
<text text-anchor="middle" x="507" y="-99.8" font-family="Times,serif" font-size="14.00" fill="#000000">SelectorsModule</text>
</g>
<!-- SelectorsModule&#45;&gt;DynamicFormsModule -->
<g id="edge14" class="edge">
<title>SelectorsModule&#45;&gt;DynamicFormsModule</title>
<path fill="none" stroke="#000000" d="M507,-122.308C507,-142.1455 507,-171 507,-171 507,-171 1090.7113,-171 1090.7113,-171"/>
<polygon fill="#000000" stroke="#000000" points="1090.7114,-174.5001 1100.7113,-171 1090.7113,-167.5001 1090.7114,-174.5001"/>
</g>
<!-- TagModule -->
<g id="node16" class="node">
<title>TagModule</title>
<polygon fill="#8dd3c7" stroke="#000000" points="433.8176,-122 430.8176,-126 409.8176,-126 406.8176,-122 352.1824,-122 352.1824,-86 433.8176,-86 433.8176,-122"/>
<text text-anchor="middle" x="393" y="-99.8" font-family="Times,serif" font-size="14.00" fill="#000000">TagModule</text>
</g>
<!-- TagModule&#45;&gt;DynamicFormsModule -->
<g id="edge15" class="edge">
<title>TagModule&#45;&gt;DynamicFormsModule</title>
<path fill="none" stroke="#000000" d="M393,-122.2843C393,-143.3211 393,-175 393,-175 393,-175 1090.5254,-175 1090.5254,-175"/>
<polygon fill="#000000" stroke="#000000" points="1090.5255,-178.5001 1100.5254,-175 1090.5254,-171.5001 1090.5255,-178.5001"/>
</g>
<!-- UtilsModule -->
<g id="node17" class="node">
<title>UtilsModule</title>
<polygon fill="#8dd3c7" stroke="#000000" points="334.2731,-122 331.2731,-126 310.2731,-126 307.2731,-122 247.7269,-122 247.7269,-86 334.2731,-86 334.2731,-122"/>
<text text-anchor="middle" x="291" y="-99.8" font-family="Times,serif" font-size="14.00" fill="#000000">UtilsModule</text>
</g>
<!-- UtilsModule&#45;&gt;DynamicFormsModule -->
<g id="edge16" class="edge">
<title>UtilsModule&#45;&gt;DynamicFormsModule</title>
<path fill="none" stroke="#000000" d="M291,-122.1554C291,-144.3519 291,-179 291,-179 291,-179 1090.6123,-179 1090.6123,-179"/>
<polygon fill="#000000" stroke="#000000" points="1090.6124,-182.5001 1100.6123,-179 1090.6123,-175.5001 1090.6124,-182.5001"/>
</g>
<!-- DynamicFormsService -->
<g id="node19" class="node">
<title>DynamicFormsService</title>
<ellipse fill="#fdb462" stroke="#000000" cx="124" cy="-104" rx="100.1375" ry="18"/>
<text text-anchor="middle" x="124" y="-99.8" font-family="Times,serif" font-size="14.00" fill="#000000">DynamicFormsService</text>
</g>
<!-- DynamicFormsService&#45;&gt;DynamicFormsModule -->
<g id="edge18" class="edge">
<title>DynamicFormsService&#45;&gt;DynamicFormsModule</title>
<path fill="none" stroke="#000000" d="M124,-122.3228C124,-145.6602 124,-183 124,-183 124,-183 1090.5834,-183 1090.5834,-183"/>
<polygon fill="#000000" stroke="#000000" points="1090.5834,-186.5001 1100.5834,-183 1090.5833,-179.5001 1090.5834,-186.5001"/>
</g>
</g>
</svg>
