<?xml version="1.0" encoding="UTF-8" standalone="no"?>
<!DOCTYPE svg PUBLIC "-//W3C//DTD SVG 1.1//EN"
 "http://www.w3.org/Graphics/SVG/1.1/DTD/svg11.dtd">
<!-- Generated by graphviz version 2.40.1 (20161225.0304)
 -->
<!-- Title: dependencies Pages: 1 -->
<svg width="504pt" height="284pt"
 viewBox="0.00 0.00 504.00 284.00" xmlns="http://www.w3.org/2000/svg" xmlns:xlink="http://www.w3.org/1999/xlink">
<g id="graph0" class="graph" transform="scale(1 1) rotate(0) translate(4 280)">
<title>dependencies</title>
<polygon fill="#ffffff" stroke="transparent" points="-4,4 -4,-280 500,-280 500,4 -4,4"/>
<text text-anchor="start" x="227.0091" y="-42.4" font-family="sans-serif" font-weight="bold" font-size="14.00" fill="#000000">Legend</text>
<polygon fill="#ffffb3" stroke="transparent" points="14,-10 14,-30 34,-30 34,-10 14,-10"/>
<text text-anchor="start" x="37.629" y="-15.4" font-family="sans-serif" font-size="14.00" fill="#000000"> &#160;Declarations</text>
<polygon fill="#8dd3c7" stroke="transparent" points="127,-10 127,-30 147,-30 147,-10 127,-10"/>
<text text-anchor="start" x="150.7251" y="-15.4" font-family="sans-serif" font-size="14.00" fill="#000000"> &#160;Module</text>
<polygon fill="#80b1d3" stroke="transparent" points="213,-10 213,-30 233,-30 233,-10 213,-10"/>
<text text-anchor="start" x="236.7812" y="-15.4" font-family="sans-serif" font-size="14.00" fill="#000000"> &#160;Bootstrap</text>
<polygon fill="#fdb462" stroke="transparent" points="310,-10 310,-30 330,-30 330,-10 310,-10"/>
<text text-anchor="start" x="333.6732" y="-15.4" font-family="sans-serif" font-size="14.00" fill="#000000"> &#160;Providers</text>
<polygon fill="#fb8072" stroke="transparent" points="406,-10 406,-30 426,-30 426,-10 406,-10"/>
<text text-anchor="start" x="429.7258" y="-15.4" font-family="sans-serif" font-size="14.00" fill="#000000"> &#160;Exports</text>
<g id="clust1" class="cluster">
<title>cluster_SelectionBarModule</title>
<polygon fill="none" stroke="#000000" stroke-dasharray="1,5" points="98,-70 98,-268 398,-268 398,-70 98,-70"/>
</g>
<g id="clust2" class="cluster">
<title>cluster_SelectionBarModule_declarations</title>
<polygon fill="none" stroke="#000000" points="220,-78 220,-130 390,-130 390,-78 220,-78"/>
</g>
<g id="clust4" class="cluster">
<title>cluster_SelectionBarModule_imports</title>
<polygon fill="none" stroke="#000000" points="106,-78 106,-130 212,-130 212,-78 106,-78"/>
</g>
<g id="clust5" class="cluster">
<title>cluster_SelectionBarModule_exports</title>
<polygon fill="none" stroke="#000000" points="161,-208 161,-260 335,-260 335,-208 161,-208"/>
</g>
<!-- SelectionBarComponent -->
<g id="node1" class="node">
<title>SelectionBarComponent</title>
<polygon fill="#ffffb3" stroke="#000000" points="381.6428,-122 228.3572,-122 228.3572,-86 381.6428,-86 381.6428,-122"/>
<text text-anchor="middle" x="305" y="-99.8" font-family="Times,serif" font-size="14.00" fill="#000000">SelectionBarComponent</text>
</g>
<!-- SelectionBarModule -->
<g id="node2" class="node">
<title>SelectionBarModule</title>
<polygon fill="#8dd3c7" stroke="#000000" points="313.8599,-187 310.8599,-191 289.8599,-191 286.8599,-187 182.1401,-187 182.1401,-151 313.8599,-151 313.8599,-187"/>
<text text-anchor="middle" x="248" y="-164.8" font-family="Times,serif" font-size="14.00" fill="#000000">SelectionBarModule</text>
</g>
<!-- SelectionBarComponent&#45;&gt;SelectionBarModule -->
<g id="edge1" class="edge">
<title>SelectionBarComponent&#45;&gt;SelectionBarModule</title>
<path fill="none" stroke="#000000" d="M271.0544,-122.1061C271.0544,-122.1061 271.0544,-140.991 271.0544,-140.991"/>
<polygon fill="#000000" stroke="#000000" points="267.5544,-140.9909 271.0544,-150.991 274.5544,-140.991 267.5544,-140.9909"/>
</g>
<!-- SelectionBarComponent  -->
<g id="node4" class="node">
<title>SelectionBarComponent </title>
<polygon fill="#fb8072" stroke="#000000" points="326.6425,-252 169.3575,-252 169.3575,-216 326.6425,-216 326.6425,-252"/>
<text text-anchor="middle" x="248" y="-229.8" font-family="Times,serif" font-size="14.00" fill="#000000">SelectionBarComponent </text>
</g>
<!-- SelectionBarModule&#45;&gt;SelectionBarComponent  -->
<g id="edge3" class="edge">
<title>SelectionBarModule&#45;&gt;SelectionBarComponent </title>
<path fill="none" stroke="#000000" stroke-dasharray="5,2" d="M248,-187.1061C248,-187.1061 248,-205.991 248,-205.991"/>
<polygon fill="#000000" stroke="#000000" points="244.5001,-205.9909 248,-215.991 251.5001,-205.991 244.5001,-205.9909"/>
</g>
<!-- IconsModule -->
<g id="node3" class="node">
<title>IconsModule</title>
<polygon fill="#8dd3c7" stroke="#000000" points="203.8697,-122 200.8697,-126 179.8697,-126 176.8697,-122 114.1303,-122 114.1303,-86 203.8697,-86 203.8697,-122"/>
<text text-anchor="middle" x="159" y="-99.8" font-family="Times,serif" font-size="14.00" fill="#000000">IconsModule</text>
</g>
<!-- IconsModule&#45;&gt;SelectionBarModule -->
<g id="edge2" class="edge">
<title>IconsModule&#45;&gt;SelectionBarModule</title>
<path fill="none" stroke="#000000" d="M193.0025,-122.1061C193.0025,-122.1061 193.0025,-140.991 193.0025,-140.991"/>
<polygon fill="#000000" stroke="#000000" points="189.5025,-140.9909 193.0025,-150.991 196.5025,-140.991 189.5025,-140.9909"/>
</g>
</g>
</svg>
