<?xml version="1.0" encoding="UTF-8" standalone="no"?>
<!DOCTYPE svg PUBLIC "-//W3C//DTD SVG 1.1//EN"
 "http://www.w3.org/Graphics/SVG/1.1/DTD/svg11.dtd">
<!-- Generated by graphviz version 2.40.1 (20161225.0304)
 -->
<!-- Title: dependencies Pages: 1 -->
<svg width="2075pt" height="284pt"
 viewBox="0.00 0.00 2075.00 284.00" xmlns="http://www.w3.org/2000/svg" xmlns:xlink="http://www.w3.org/1999/xlink">
<g id="graph0" class="graph" transform="scale(1 1) rotate(0) translate(4 280)">
<title>dependencies</title>
<polygon fill="#ffffff" stroke="transparent" points="-4,4 -4,-280 2071,-280 2071,4 -4,4"/>
<text text-anchor="start" x="1012.5091" y="-42.4" font-family="sans-serif" font-weight="bold" font-size="14.00" fill="#000000">Legend</text>
<polygon fill="#ffffb3" stroke="transparent" points="799.5,-10 799.5,-30 819.5,-30 819.5,-10 799.5,-10"/>
<text text-anchor="start" x="823.129" y="-15.4" font-family="sans-serif" font-size="14.00" fill="#000000"> &#160;Declarations</text>
<polygon fill="#8dd3c7" stroke="transparent" points="912.5,-10 912.5,-30 932.5,-30 932.5,-10 912.5,-10"/>
<text text-anchor="start" x="936.2251" y="-15.4" font-family="sans-serif" font-size="14.00" fill="#000000"> &#160;Module</text>
<polygon fill="#80b1d3" stroke="transparent" points="998.5,-10 998.5,-30 1018.5,-30 1018.5,-10 998.5,-10"/>
<text text-anchor="start" x="1022.2812" y="-15.4" font-family="sans-serif" font-size="14.00" fill="#000000"> &#160;Bootstrap</text>
<polygon fill="#fdb462" stroke="transparent" points="1095.5,-10 1095.5,-30 1115.5,-30 1115.5,-10 1095.5,-10"/>
<text text-anchor="start" x="1119.1732" y="-15.4" font-family="sans-serif" font-size="14.00" fill="#000000"> &#160;Providers</text>
<polygon fill="#fb8072" stroke="transparent" points="1191.5,-10 1191.5,-30 1211.5,-30 1211.5,-10 1191.5,-10"/>
<text text-anchor="start" x="1215.2258" y="-15.4" font-family="sans-serif" font-size="14.00" fill="#000000"> &#160;Exports</text>
<g id="clust1" class="cluster">
<title>cluster_FiltersModule</title>
<polygon fill="none" stroke="#000000" stroke-dasharray="1,5" points="8,-70 8,-268 2059,-268 2059,-70 8,-70"/>
</g>
<g id="clust2" class="cluster">
<title>cluster_FiltersModule_declarations</title>
<polygon fill="none" stroke="#000000" points="575,-78 575,-130 2051,-130 2051,-78 575,-78"/>
</g>
<g id="clust11" class="cluster">
<title>cluster_FiltersModule_imports</title>
<polygon fill="none" stroke="#000000" points="338,-78 338,-130 567,-130 567,-78 338,-78"/>
</g>
<g id="clust12" class="cluster">
<title>cluster_FiltersModule_exports</title>
<polygon fill="none" stroke="#000000" points="159,-208 159,-260 1662,-260 1662,-208 159,-208"/>
</g>
<g id="clust14" class="cluster">
<title>cluster_FiltersModule_providers</title>
<polygon fill="none" stroke="#000000" points="16,-78 16,-130 330,-130 330,-78 16,-78"/>
</g>
<!-- FilterBtnComponent -->
<g id="node1" class="node">
<title>FilterBtnComponent</title>
<polygon fill="#ffffb3" stroke="#000000" points="2042.8892,-122 1911.1108,-122 1911.1108,-86 2042.8892,-86 2042.8892,-122"/>
<text text-anchor="middle" x="1977" y="-99.8" font-family="Times,serif" font-size="14.00" fill="#000000">FilterBtnComponent</text>
</g>
<!-- FiltersModule -->
<g id="node9" class="node">
<title>FiltersModule</title>
<polygon fill="#8dd3c7" stroke="#000000" points="972.8246,-187 969.8246,-191 948.8246,-191 945.8246,-187 877.1754,-187 877.1754,-151 972.8246,-151 972.8246,-187"/>
<text text-anchor="middle" x="925" y="-164.8" font-family="Times,serif" font-size="14.00" fill="#000000">FiltersModule</text>
</g>
<!-- FilterBtnComponent&#45;&gt;FiltersModule -->
<g id="edge1" class="edge">
<title>FilterBtnComponent&#45;&gt;FiltersModule</title>
<path fill="none" stroke="#000000" d="M1977,-122.308C1977,-142.1455 1977,-171 1977,-171 1977,-171 982.9359,-171 982.9359,-171"/>
<polygon fill="#000000" stroke="#000000" points="982.9359,-167.5001 972.9359,-171 982.9359,-174.5001 982.9359,-167.5001"/>
</g>
<!-- FilterBtnsPanelComponent -->
<g id="node2" class="node">
<title>FilterBtnsPanelComponent</title>
<polygon fill="#ffffb3" stroke="#000000" points="1893.4368,-122 1724.5632,-122 1724.5632,-86 1893.4368,-86 1893.4368,-122"/>
<text text-anchor="middle" x="1809" y="-99.8" font-family="Times,serif" font-size="14.00" fill="#000000">FilterBtnsPanelComponent</text>
</g>
<!-- FilterBtnsPanelComponent&#45;&gt;FiltersModule -->
<g id="edge2" class="edge">
<title>FilterBtnsPanelComponent&#45;&gt;FiltersModule</title>
<path fill="none" stroke="#000000" d="M1809,-122.2222C1809,-140.8285 1809,-167 1809,-167 1809,-167 982.8411,-167 982.8411,-167"/>
<polygon fill="#000000" stroke="#000000" points="982.8412,-163.5001 972.8411,-167 982.8411,-170.5001 982.8412,-163.5001"/>
</g>
<!-- FilterEntityPanelComponent -->
<g id="node3" class="node">
<title>FilterEntityPanelComponent</title>
<polygon fill="#ffffb3" stroke="#000000" points="1706.4888,-122 1529.5112,-122 1529.5112,-86 1706.4888,-86 1706.4888,-122"/>
<text text-anchor="middle" x="1618" y="-99.8" font-family="Times,serif" font-size="14.00" fill="#000000">FilterEntityPanelComponent</text>
</g>
<!-- FilterEntityPanelComponent&#45;&gt;FiltersModule -->
<g id="edge3" class="edge">
<title>FilterEntityPanelComponent&#45;&gt;FiltersModule</title>
<path fill="none" stroke="#000000" d="M1591.6001,-122.0225C1591.6001,-139.3734 1591.6001,-163 1591.6001,-163 1591.6001,-163 982.6727,-163 982.6727,-163"/>
<polygon fill="#000000" stroke="#000000" points="982.6728,-159.5001 972.6727,-163 982.6727,-166.5001 982.6728,-159.5001"/>
</g>
<!-- FilterPricePanelComponent -->
<g id="node4" class="node">
<title>FilterPricePanelComponent</title>
<polygon fill="#ffffb3" stroke="#000000" points="1511.528,-122 1340.472,-122 1340.472,-86 1511.528,-86 1511.528,-122"/>
<text text-anchor="middle" x="1426" y="-99.8" font-family="Times,serif" font-size="14.00" fill="#000000">FilterPricePanelComponent</text>
</g>
<!-- FilterPricePanelComponent&#45;&gt;FiltersModule -->
<g id="edge4" class="edge">
<title>FilterPricePanelComponent&#45;&gt;FiltersModule</title>
<path fill="none" stroke="#000000" d="M1420.1022,-122.0091C1420.1022,-138.0494 1420.1022,-159 1420.1022,-159 1420.1022,-159 982.9223,-159 982.9223,-159"/>
<polygon fill="#000000" stroke="#000000" points="982.9224,-155.5001 972.9223,-159 982.9223,-162.5001 982.9224,-155.5001"/>
</g>
<!-- FilterRatingPanelComponent -->
<g id="node5" class="node">
<title>FilterRatingPanelComponent</title>
<polygon fill="#ffffb3" stroke="#000000" points="1322.0968,-122 1141.9032,-122 1141.9032,-86 1322.0968,-86 1322.0968,-122"/>
<text text-anchor="middle" x="1232" y="-99.8" font-family="Times,serif" font-size="14.00" fill="#000000">FilterRatingPanelComponent</text>
</g>
<!-- FilterRatingPanelComponent&#45;&gt;FiltersModule -->
<g id="edge5" class="edge">
<title>FilterRatingPanelComponent&#45;&gt;FiltersModule</title>
<path fill="none" stroke="#000000" d="M1226.098,-122.1243C1226.098,-136.7832 1226.098,-155 1226.098,-155 1226.098,-155 982.7099,-155 982.7099,-155"/>
<polygon fill="#000000" stroke="#000000" points="982.7099,-151.5001 972.7099,-155 982.7098,-158.5001 982.7099,-151.5001"/>
</g>
<!-- FilterSelectionPanelComponent -->
<g id="node6" class="node">
<title>FilterSelectionPanelComponent</title>
<polygon fill="#ffffb3" stroke="#000000" points="1124.3626,-122 929.6374,-122 929.6374,-86 1124.3626,-86 1124.3626,-122"/>
<text text-anchor="middle" x="1027" y="-99.8" font-family="Times,serif" font-size="14.00" fill="#000000">FilterSelectionPanelComponent</text>
</g>
<!-- FilterSelectionPanelComponent&#45;&gt;FiltersModule -->
<g id="edge6" class="edge">
<title>FilterSelectionPanelComponent&#45;&gt;FiltersModule</title>
<path fill="none" stroke="#000000" d="M951.1154,-122.1061C951.1154,-122.1061 951.1154,-140.991 951.1154,-140.991"/>
<polygon fill="#000000" stroke="#000000" points="947.6154,-140.9909 951.1154,-150.991 954.6154,-140.991 947.6154,-140.9909"/>
</g>
<!-- FilterSmartPanelComponent -->
<g id="node7" class="node">
<title>FilterSmartPanelComponent</title>
<polygon fill="#ffffb3" stroke="#000000" points="911.2035,-122 734.7965,-122 734.7965,-86 911.2035,-86 911.2035,-122"/>
<text text-anchor="middle" x="823" y="-99.8" font-family="Times,serif" font-size="14.00" fill="#000000">FilterSmartPanelComponent</text>
</g>
<!-- FilterSmartPanelComponent&#45;&gt;FiltersModule -->
<g id="edge7" class="edge">
<title>FilterSmartPanelComponent&#45;&gt;FiltersModule</title>
<path fill="none" stroke="#000000" d="M894.2199,-122.1061C894.2199,-122.1061 894.2199,-140.991 894.2199,-140.991"/>
<polygon fill="#000000" stroke="#000000" points="890.7199,-140.9909 894.2199,-150.991 897.7199,-140.991 890.7199,-140.9909"/>
</g>
<!-- FilterTagComponent -->
<g id="node8" class="node">
<title>FilterTagComponent</title>
<polygon fill="#ffffb3" stroke="#000000" points="716.9299,-122 583.0701,-122 583.0701,-86 716.9299,-86 716.9299,-122"/>
<text text-anchor="middle" x="650" y="-99.8" font-family="Times,serif" font-size="14.00" fill="#000000">FilterTagComponent</text>
</g>
<!-- FilterTagComponent&#45;&gt;FiltersModule -->
<g id="edge8" class="edge">
<title>FilterTagComponent&#45;&gt;FiltersModule</title>
<path fill="none" stroke="#000000" d="M672.2382,-122.1243C672.2382,-136.7832 672.2382,-155 672.2382,-155 672.2382,-155 867.1603,-155 867.1603,-155"/>
<polygon fill="#000000" stroke="#000000" points="867.1603,-158.5001 877.1603,-155 867.1602,-151.5001 867.1603,-158.5001"/>
</g>
<!-- FilterBtnComponent  -->
<g id="node12" class="node">
<title>FilterBtnComponent </title>
<polygon fill="#fb8072" stroke="#000000" points="1653.8898,-252 1518.1102,-252 1518.1102,-216 1653.8898,-216 1653.8898,-252"/>
<text text-anchor="middle" x="1586" y="-229.8" font-family="Times,serif" font-size="14.00" fill="#000000">FilterBtnComponent </text>
</g>
<!-- FiltersModule&#45;&gt;FilterBtnComponent  -->
<g id="edge11" class="edge">
<title>FiltersModule&#45;&gt;FilterBtnComponent </title>
<path fill="none" stroke="#000000" stroke-dasharray="5,2" d="M972.7469,-175C1114.6332,-175 1523.9055,-175 1523.9055,-175 1523.9055,-175 1523.9055,-205.9775 1523.9055,-205.9775"/>
<polygon fill="#000000" stroke="#000000" points="1520.4056,-205.9774 1523.9055,-215.9775 1527.4056,-205.9775 1520.4056,-205.9774"/>
</g>
<!-- FilterBtnsPanelComponent  -->
<g id="node13" class="node">
<title>FilterBtnsPanelComponent </title>
<polygon fill="#fb8072" stroke="#000000" points="1499.9362,-252 1328.0638,-252 1328.0638,-216 1499.9362,-216 1499.9362,-252"/>
<text text-anchor="middle" x="1414" y="-229.8" font-family="Times,serif" font-size="14.00" fill="#000000">FilterBtnsPanelComponent </text>
</g>
<!-- FiltersModule&#45;&gt;FilterBtnsPanelComponent  -->
<g id="edge12" class="edge">
<title>FiltersModule&#45;&gt;FilterBtnsPanelComponent </title>
<path fill="none" stroke="#000000" stroke-dasharray="5,2" d="M972.7336,-179C1080.6587,-179 1334.1341,-179 1334.1341,-179 1334.1341,-179 1334.1341,-205.9909 1334.1341,-205.9909"/>
<polygon fill="#000000" stroke="#000000" points="1330.6342,-205.9909 1334.1341,-215.9909 1337.6342,-205.991 1330.6342,-205.9909"/>
</g>
<!-- FilterEntityPanelComponent  -->
<g id="node14" class="node">
<title>FilterEntityPanelComponent </title>
<polygon fill="#fb8072" stroke="#000000" points="1310.4895,-252 1129.5105,-252 1129.5105,-216 1310.4895,-216 1310.4895,-252"/>
<text text-anchor="middle" x="1220" y="-229.8" font-family="Times,serif" font-size="14.00" fill="#000000">FilterEntityPanelComponent </text>
</g>
<!-- FiltersModule&#45;&gt;FilterEntityPanelComponent  -->
<g id="edge13" class="edge">
<title>FiltersModule&#45;&gt;FilterEntityPanelComponent </title>
<path fill="none" stroke="#000000" stroke-dasharray="5,2" d="M972.8459,-183C1035.0566,-183 1135.8536,-183 1135.8536,-183 1135.8536,-183 1135.8536,-205.8757 1135.8536,-205.8757"/>
<polygon fill="#000000" stroke="#000000" points="1132.3537,-205.8757 1135.8536,-215.8757 1139.3537,-205.8757 1132.3537,-205.8757"/>
</g>
<!-- FilterPricePanelComponent  -->
<g id="node15" class="node">
<title>FilterPricePanelComponent </title>
<polygon fill="#fb8072" stroke="#000000" points="1111.5274,-252 936.4726,-252 936.4726,-216 1111.5274,-216 1111.5274,-252"/>
<text text-anchor="middle" x="1024" y="-229.8" font-family="Times,serif" font-size="14.00" fill="#000000">FilterPricePanelComponent </text>
</g>
<!-- FiltersModule&#45;&gt;FilterPricePanelComponent  -->
<g id="edge14" class="edge">
<title>FiltersModule&#45;&gt;FilterPricePanelComponent </title>
<path fill="none" stroke="#000000" stroke-dasharray="5,2" d="M954.5742,-187.1061C954.5742,-187.1061 954.5742,-205.991 954.5742,-205.991"/>
<polygon fill="#000000" stroke="#000000" points="951.0742,-205.9909 954.5742,-215.991 958.0742,-205.991 951.0742,-205.9909"/>
</g>
<!-- FilterRatingPanelComponent  -->
<g id="node16" class="node">
<title>FilterRatingPanelComponent </title>
<polygon fill="#fb8072" stroke="#000000" points="918.5972,-252 735.4028,-252 735.4028,-216 918.5972,-216 918.5972,-252"/>
<text text-anchor="middle" x="827" y="-229.8" font-family="Times,serif" font-size="14.00" fill="#000000">FilterRatingPanelComponent </text>
</g>
<!-- FiltersModule&#45;&gt;FilterRatingPanelComponent  -->
<g id="edge15" class="edge">
<title>FiltersModule&#45;&gt;FilterRatingPanelComponent </title>
<path fill="none" stroke="#000000" stroke-dasharray="5,2" d="M898.0682,-187.1061C898.0682,-187.1061 898.0682,-205.991 898.0682,-205.991"/>
<polygon fill="#000000" stroke="#000000" points="894.5683,-205.9909 898.0682,-215.991 901.5683,-205.991 894.5683,-205.9909"/>
</g>
<!-- FilterSelectionPanelComponent  -->
<g id="node17" class="node">
<title>FilterSelectionPanelComponent </title>
<polygon fill="#fb8072" stroke="#000000" points="717.3629,-252 518.6371,-252 518.6371,-216 717.3629,-216 717.3629,-252"/>
<text text-anchor="middle" x="618" y="-229.8" font-family="Times,serif" font-size="14.00" fill="#000000">FilterSelectionPanelComponent </text>
</g>
<!-- FiltersModule&#45;&gt;FilterSelectionPanelComponent  -->
<g id="edge16" class="edge">
<title>FiltersModule&#45;&gt;FilterSelectionPanelComponent </title>
<path fill="none" stroke="#000000" stroke-dasharray="5,2" d="M877.2435,-183C793.2212,-183 627.7618,-183 627.7618,-183 627.7618,-183 627.7618,-205.8757 627.7618,-205.8757"/>
<polygon fill="#000000" stroke="#000000" points="624.2619,-205.8757 627.7618,-215.8757 631.2619,-205.8757 624.2619,-205.8757"/>
</g>
<!-- FilterSmartPanelComponent  -->
<g id="node18" class="node">
<title>FilterSmartPanelComponent </title>
<polygon fill="#fb8072" stroke="#000000" points="500.7036,-252 321.2964,-252 321.2964,-216 500.7036,-216 500.7036,-252"/>
<text text-anchor="middle" x="411" y="-229.8" font-family="Times,serif" font-size="14.00" fill="#000000">FilterSmartPanelComponent </text>
</g>
<!-- FiltersModule&#45;&gt;FilterSmartPanelComponent  -->
<g id="edge17" class="edge">
<title>FiltersModule&#45;&gt;FilterSmartPanelComponent </title>
<path fill="none" stroke="#000000" stroke-dasharray="5,2" d="M877.1385,-179C762.5122,-179 481.7053,-179 481.7053,-179 481.7053,-179 481.7053,-205.9909 481.7053,-205.9909"/>
<polygon fill="#000000" stroke="#000000" points="478.2054,-205.9909 481.7053,-215.9909 485.2054,-205.991 478.2054,-205.9909"/>
</g>
<!-- FilterTagComponent  -->
<g id="node19" class="node">
<title>FilterTagComponent </title>
<polygon fill="#fb8072" stroke="#000000" points="303.4292,-252 166.5708,-252 166.5708,-216 303.4292,-216 303.4292,-252"/>
<text text-anchor="middle" x="235" y="-229.8" font-family="Times,serif" font-size="14.00" fill="#000000">FilterTagComponent </text>
</g>
<!-- FiltersModule&#45;&gt;FilterTagComponent  -->
<g id="edge18" class="edge">
<title>FiltersModule&#45;&gt;FilterTagComponent </title>
<path fill="none" stroke="#000000" stroke-dasharray="5,2" d="M877.3013,-175C721.1171,-175 235,-175 235,-175 235,-175 235,-205.9775 235,-205.9775"/>
<polygon fill="#000000" stroke="#000000" points="231.5001,-205.9774 235,-215.9775 238.5001,-205.9775 231.5001,-205.9774"/>
</g>
<!-- RatingModule -->
<g id="node10" class="node">
<title>RatingModule</title>
<polygon fill="#8dd3c7" stroke="#000000" points="559.3823,-122 556.3823,-126 535.3823,-126 532.3823,-122 462.6177,-122 462.6177,-86 559.3823,-86 559.3823,-122"/>
<text text-anchor="middle" x="511" y="-99.8" font-family="Times,serif" font-size="14.00" fill="#000000">RatingModule</text>
</g>
<!-- RatingModule&#45;&gt;FiltersModule -->
<g id="edge9" class="edge">
<title>RatingModule&#45;&gt;FiltersModule</title>
<path fill="none" stroke="#000000" d="M539.1299,-122.0091C539.1299,-138.0494 539.1299,-159 539.1299,-159 539.1299,-159 867.2977,-159 867.2977,-159"/>
<polygon fill="#000000" stroke="#000000" points="867.2978,-162.5001 877.2977,-159 867.2977,-155.5001 867.2978,-162.5001"/>
</g>
<!-- SharedModule -->
<g id="node11" class="node">
<title>SharedModule</title>
<polygon fill="#8dd3c7" stroke="#000000" points="444.4231,-122 441.4231,-126 420.4231,-126 417.4231,-122 345.5769,-122 345.5769,-86 444.4231,-86 444.4231,-122"/>
<text text-anchor="middle" x="395" y="-99.8" font-family="Times,serif" font-size="14.00" fill="#000000">SharedModule</text>
</g>
<!-- SharedModule&#45;&gt;FiltersModule -->
<g id="edge10" class="edge">
<title>SharedModule&#45;&gt;FiltersModule</title>
<path fill="none" stroke="#000000" d="M395,-122.0225C395,-139.3734 395,-163 395,-163 395,-163 867.0313,-163 867.0313,-163"/>
<polygon fill="#000000" stroke="#000000" points="867.0313,-166.5001 877.0313,-163 867.0312,-159.5001 867.0313,-166.5001"/>
</g>
<!-- FilterDataService -->
<g id="node20" class="node">
<title>FilterDataService</title>
<ellipse fill="#fdb462" stroke="#000000" cx="243" cy="-104" rx="79.2825" ry="18"/>
<text text-anchor="middle" x="243" y="-99.8" font-family="Times,serif" font-size="14.00" fill="#000000">FilterDataService</text>
</g>
<!-- FilterDataService&#45;&gt;FiltersModule -->
<g id="edge19" class="edge">
<title>FilterDataService&#45;&gt;FiltersModule</title>
<path fill="none" stroke="#000000" d="M312.3065,-112.7599C312.3065,-130.0706 312.3065,-167 312.3065,-167 312.3065,-167 867.1782,-167 867.1782,-167"/>
<polygon fill="#000000" stroke="#000000" points="867.1782,-170.5001 877.1782,-167 867.1781,-163.5001 867.1782,-170.5001"/>
</g>
<!-- FilterService -->
<g id="node21" class="node">
<title>FilterService</title>
<ellipse fill="#fdb462" stroke="#000000" cx="85" cy="-104" rx="60.8255" ry="18"/>
<text text-anchor="middle" x="85" y="-99.8" font-family="Times,serif" font-size="14.00" fill="#000000">FilterService</text>
</g>
<!-- FilterService&#45;&gt;FiltersModule -->
<g id="edge20" class="edge">
<title>FilterService&#45;&gt;FiltersModule</title>
<path fill="none" stroke="#000000" d="M85,-122.308C85,-142.1455 85,-171 85,-171 85,-171 867.1265,-171 867.1265,-171"/>
<polygon fill="#000000" stroke="#000000" points="867.1265,-174.5001 877.1265,-171 867.1265,-167.5001 867.1265,-174.5001"/>
</g>
</g>
</svg>
