<?xml version="1.0" encoding="UTF-8" standalone="no"?>
<!DOCTYPE svg PUBLIC "-//W3C//DTD SVG 1.1//EN"
 "http://www.w3.org/Graphics/SVG/1.1/DTD/svg11.dtd">
<!-- Generated by graphviz version 2.40.1 (20161225.0304)
 -->
<!-- Title: dependencies Pages: 1 -->
<svg width="615pt" height="211pt"
 viewBox="0.00 0.00 615.00 211.00" xmlns="http://www.w3.org/2000/svg" xmlns:xlink="http://www.w3.org/1999/xlink">
<g id="graph0" class="graph" transform="scale(1 1) rotate(0) translate(4 207)">
<title>dependencies</title>
<polygon fill="#ffffff" stroke="transparent" points="-4,4 -4,-207 611,-207 611,4 -4,4"/>
<text text-anchor="start" x="282.5091" y="-42.4" font-family="sans-serif" font-weight="bold" font-size="14.00" fill="#000000">Legend</text>
<polygon fill="#ffffb3" stroke="transparent" points="69.5,-10 69.5,-30 89.5,-30 89.5,-10 69.5,-10"/>
<text text-anchor="start" x="93.129" y="-15.4" font-family="sans-serif" font-size="14.00" fill="#000000"> &#160;Declarations</text>
<polygon fill="#8dd3c7" stroke="transparent" points="182.5,-10 182.5,-30 202.5,-30 202.5,-10 182.5,-10"/>
<text text-anchor="start" x="206.2251" y="-15.4" font-family="sans-serif" font-size="14.00" fill="#000000"> &#160;Module</text>
<polygon fill="#80b1d3" stroke="transparent" points="268.5,-10 268.5,-30 288.5,-30 288.5,-10 268.5,-10"/>
<text text-anchor="start" x="292.2812" y="-15.4" font-family="sans-serif" font-size="14.00" fill="#000000"> &#160;Bootstrap</text>
<polygon fill="#fdb462" stroke="transparent" points="365.5,-10 365.5,-30 385.5,-30 385.5,-10 365.5,-10"/>
<text text-anchor="start" x="389.1732" y="-15.4" font-family="sans-serif" font-size="14.00" fill="#000000"> &#160;Providers</text>
<polygon fill="#fb8072" stroke="transparent" points="461.5,-10 461.5,-30 481.5,-30 481.5,-10 461.5,-10"/>
<text text-anchor="start" x="485.2258" y="-15.4" font-family="sans-serif" font-size="14.00" fill="#000000"> &#160;Exports</text>
<g id="clust1" class="cluster">
<title>cluster_TemplateModule</title>
<polygon fill="none" stroke="#000000" stroke-dasharray="1,5" points="8,-70 8,-195 599,-195 599,-70 8,-70"/>
</g>
<g id="clust2" class="cluster">
<title>cluster_TemplateModule_declarations</title>
<polygon fill="none" stroke="#000000" points="256,-78 256,-130 591,-130 591,-78 256,-78"/>
</g>
<g id="clust5" class="cluster">
<title>cluster_TemplateModule_imports</title>
<polygon fill="none" stroke="#000000" points="16,-78 16,-130 248,-130 248,-78 16,-78"/>
</g>
<!-- GuestTemplateComponent -->
<g id="node1" class="node">
<title>GuestTemplateComponent</title>
<polygon fill="#ffffb3" stroke="#000000" points="583.3571,-122 416.6429,-122 416.6429,-86 583.3571,-86 583.3571,-122"/>
<text text-anchor="middle" x="500" y="-99.8" font-family="Times,serif" font-size="14.00" fill="#000000">GuestTemplateComponent</text>
</g>
<!-- TemplateModule -->
<g id="node3" class="node">
<title>TemplateModule</title>
<polygon fill="#8dd3c7" stroke="#000000" points="316.4188,-187 313.4188,-191 292.4188,-191 289.4188,-187 203.5812,-187 203.5812,-151 316.4188,-151 316.4188,-187"/>
<text text-anchor="middle" x="260" y="-164.8" font-family="Times,serif" font-size="14.00" fill="#000000">TemplateModule</text>
</g>
<!-- GuestTemplateComponent&#45;&gt;TemplateModule -->
<g id="edge1" class="edge">
<title>GuestTemplateComponent&#45;&gt;TemplateModule</title>
<path fill="none" stroke="#000000" d="M500,-122.1061C500,-141.3391 500,-169 500,-169 500,-169 326.2693,-169 326.2693,-169"/>
<polygon fill="#000000" stroke="#000000" points="326.2694,-165.5001 316.2693,-169 326.2693,-172.5001 326.2694,-165.5001"/>
</g>
<!-- TemplateComponent -->
<g id="node2" class="node">
<title>TemplateComponent</title>
<polygon fill="#ffffb3" stroke="#000000" points="398.2008,-122 263.7992,-122 263.7992,-86 398.2008,-86 398.2008,-122"/>
<text text-anchor="middle" x="331" y="-99.8" font-family="Times,serif" font-size="14.00" fill="#000000">TemplateComponent</text>
</g>
<!-- TemplateComponent&#45;&gt;TemplateModule -->
<g id="edge2" class="edge">
<title>TemplateComponent&#45;&gt;TemplateModule</title>
<path fill="none" stroke="#000000" d="M290.0544,-122.1061C290.0544,-122.1061 290.0544,-140.991 290.0544,-140.991"/>
<polygon fill="#000000" stroke="#000000" points="286.5544,-140.9909 290.0544,-150.991 293.5544,-140.991 286.5544,-140.9909"/>
</g>
<!-- HeaderModule -->
<g id="node4" class="node">
<title>HeaderModule</title>
<polygon fill="#8dd3c7" stroke="#000000" points="239.9608,-122 236.9608,-126 215.9608,-126 212.9608,-122 140.0392,-122 140.0392,-86 239.9608,-86 239.9608,-122"/>
<text text-anchor="middle" x="190" y="-99.8" font-family="Times,serif" font-size="14.00" fill="#000000">HeaderModule</text>
</g>
<!-- HeaderModule&#45;&gt;TemplateModule -->
<g id="edge3" class="edge">
<title>HeaderModule&#45;&gt;TemplateModule</title>
<path fill="none" stroke="#000000" d="M221.8857,-122.1061C221.8857,-122.1061 221.8857,-140.991 221.8857,-140.991"/>
<polygon fill="#000000" stroke="#000000" points="218.3858,-140.9909 221.8857,-150.991 225.3858,-140.991 218.3858,-140.9909"/>
</g>
<!-- SharedModule -->
<g id="node5" class="node">
<title>SharedModule</title>
<polygon fill="#8dd3c7" stroke="#000000" points="122.4231,-122 119.4231,-126 98.4231,-126 95.4231,-122 23.5769,-122 23.5769,-86 122.4231,-86 122.4231,-122"/>
<text text-anchor="middle" x="73" y="-99.8" font-family="Times,serif" font-size="14.00" fill="#000000">SharedModule</text>
</g>
<!-- SharedModule&#45;&gt;TemplateModule -->
<g id="edge4" class="edge">
<title>SharedModule&#45;&gt;TemplateModule</title>
<path fill="none" stroke="#000000" d="M73,-122.1061C73,-141.3391 73,-169 73,-169 73,-169 193.6402,-169 193.6402,-169"/>
<polygon fill="#000000" stroke="#000000" points="193.6403,-172.5001 203.6402,-169 193.6402,-165.5001 193.6403,-172.5001"/>
</g>
</g>
</svg>
