<?xml version="1.0" encoding="UTF-8" standalone="no"?>
<!DOCTYPE svg PUBLIC "-//W3C//DTD SVG 1.1//EN"
 "http://www.w3.org/Graphics/SVG/1.1/DTD/svg11.dtd">
<!-- Generated by graphviz version 2.40.1 (20161225.0304)
 -->
<!-- Title: dependencies Pages: 1 -->
<svg width="504pt" height="284pt"
 viewBox="0.00 0.00 504.00 284.00" xmlns="http://www.w3.org/2000/svg" xmlns:xlink="http://www.w3.org/1999/xlink">
<g id="graph0" class="graph" transform="scale(1 1) rotate(0) translate(4 280)">
<title>dependencies</title>
<polygon fill="#ffffff" stroke="transparent" points="-4,4 -4,-280 500,-280 500,4 -4,4"/>
<text text-anchor="start" x="227.0091" y="-42.4" font-family="sans-serif" font-weight="bold" font-size="14.00" fill="#000000">Legend</text>
<polygon fill="#ffffb3" stroke="transparent" points="14,-10 14,-30 34,-30 34,-10 14,-10"/>
<text text-anchor="start" x="37.629" y="-15.4" font-family="sans-serif" font-size="14.00" fill="#000000"> &#160;Declarations</text>
<polygon fill="#8dd3c7" stroke="transparent" points="127,-10 127,-30 147,-30 147,-10 127,-10"/>
<text text-anchor="start" x="150.7251" y="-15.4" font-family="sans-serif" font-size="14.00" fill="#000000"> &#160;Module</text>
<polygon fill="#80b1d3" stroke="transparent" points="213,-10 213,-30 233,-30 233,-10 213,-10"/>
<text text-anchor="start" x="236.7812" y="-15.4" font-family="sans-serif" font-size="14.00" fill="#000000"> &#160;Bootstrap</text>
<polygon fill="#fdb462" stroke="transparent" points="310,-10 310,-30 330,-30 330,-10 310,-10"/>
<text text-anchor="start" x="333.6732" y="-15.4" font-family="sans-serif" font-size="14.00" fill="#000000"> &#160;Providers</text>
<polygon fill="#fb8072" stroke="transparent" points="406,-10 406,-30 426,-30 426,-10 406,-10"/>
<text text-anchor="start" x="429.7258" y="-15.4" font-family="sans-serif" font-size="14.00" fill="#000000"> &#160;Exports</text>
<g id="clust1" class="cluster">
<title>cluster_RatingModule</title>
<polygon fill="none" stroke="#000000" stroke-dasharray="1,5" points="8,-70 8,-268 488,-268 488,-70 8,-70"/>
</g>
<g id="clust2" class="cluster">
<title>cluster_RatingModule_declarations</title>
<polygon fill="none" stroke="#000000" points="130,-78 130,-130 480,-130 480,-78 130,-78"/>
</g>
<g id="clust5" class="cluster">
<title>cluster_RatingModule_imports</title>
<polygon fill="none" stroke="#000000" points="16,-78 16,-130 122,-130 122,-78 16,-78"/>
</g>
<g id="clust6" class="cluster">
<title>cluster_RatingModule_exports</title>
<polygon fill="none" stroke="#000000" points="70,-208 70,-260 426,-260 426,-208 70,-208"/>
</g>
<!-- RatingHeartComponent -->
<g id="node1" class="node">
<title>RatingHeartComponent</title>
<polygon fill="#ffffb3" stroke="#000000" points="471.752,-122 322.248,-122 322.248,-86 471.752,-86 471.752,-122"/>
<text text-anchor="middle" x="397" y="-99.8" font-family="Times,serif" font-size="14.00" fill="#000000">RatingHeartComponent</text>
</g>
<!-- RatingModule -->
<g id="node3" class="node">
<title>RatingModule</title>
<polygon fill="#8dd3c7" stroke="#000000" points="269.3823,-187 266.3823,-191 245.3823,-191 242.3823,-187 172.6177,-187 172.6177,-151 269.3823,-151 269.3823,-187"/>
<text text-anchor="middle" x="221" y="-164.8" font-family="Times,serif" font-size="14.00" fill="#000000">RatingModule</text>
</g>
<!-- RatingHeartComponent&#45;&gt;RatingModule -->
<g id="edge1" class="edge">
<title>RatingHeartComponent&#45;&gt;RatingModule</title>
<path fill="none" stroke="#000000" d="M369.875,-122.1061C369.875,-141.3391 369.875,-169 369.875,-169 369.875,-169 279.7472,-169 279.7472,-169"/>
<polygon fill="#000000" stroke="#000000" points="279.7473,-165.5001 269.7472,-169 279.7472,-172.5001 279.7473,-165.5001"/>
</g>
<!-- ThumbButtonsComponent -->
<g id="node2" class="node">
<title>ThumbButtonsComponent</title>
<polygon fill="#ffffb3" stroke="#000000" points="303.8383,-122 138.1617,-122 138.1617,-86 303.8383,-86 303.8383,-122"/>
<text text-anchor="middle" x="221" y="-99.8" font-family="Times,serif" font-size="14.00" fill="#000000">ThumbButtonsComponent</text>
</g>
<!-- ThumbButtonsComponent&#45;&gt;RatingModule -->
<g id="edge2" class="edge">
<title>ThumbButtonsComponent&#45;&gt;RatingModule</title>
<path fill="none" stroke="#000000" d="M221,-122.1061C221,-122.1061 221,-140.991 221,-140.991"/>
<polygon fill="#000000" stroke="#000000" points="217.5001,-140.9909 221,-150.991 224.5001,-140.991 217.5001,-140.9909"/>
</g>
<!-- RatingHeartComponent  -->
<g id="node5" class="node">
<title>RatingHeartComponent </title>
<polygon fill="#fb8072" stroke="#000000" points="417.752,-252 264.248,-252 264.248,-216 417.752,-216 417.752,-252"/>
<text text-anchor="middle" x="341" y="-229.8" font-family="Times,serif" font-size="14.00" fill="#000000">RatingHeartComponent </text>
</g>
<!-- RatingModule&#45;&gt;RatingHeartComponent  -->
<g id="edge4" class="edge">
<title>RatingModule&#45;&gt;RatingHeartComponent </title>
<path fill="none" stroke="#000000" stroke-dasharray="5,2" d="M255.3966,-187.1061C255.3966,-206.3391 255.3966,-234 255.3966,-234 255.3966,-234 256.2804,-234 256.2804,-234"/>
<polygon fill="#000000" stroke="#000000" points="254.2352,-237.5001 264.2352,-234 254.2352,-230.5001 254.2352,-237.5001"/>
</g>
<!-- ThumbButtonsComponent  -->
<g id="node6" class="node">
<title>ThumbButtonsComponent </title>
<polygon fill="#fb8072" stroke="#000000" points="246.3381,-252 77.6619,-252 77.6619,-216 246.3381,-216 246.3381,-252"/>
<text text-anchor="middle" x="162" y="-229.8" font-family="Times,serif" font-size="14.00" fill="#000000">ThumbButtonsComponent </text>
</g>
<!-- RatingModule&#45;&gt;ThumbButtonsComponent  -->
<g id="edge5" class="edge">
<title>RatingModule&#45;&gt;ThumbButtonsComponent </title>
<path fill="none" stroke="#000000" stroke-dasharray="5,2" d="M209.489,-187.1061C209.489,-187.1061 209.489,-205.991 209.489,-205.991"/>
<polygon fill="#000000" stroke="#000000" points="205.989,-205.9909 209.489,-215.991 212.989,-205.991 205.989,-205.9909"/>
</g>
<!-- IconsModule -->
<g id="node4" class="node">
<title>IconsModule</title>
<polygon fill="#8dd3c7" stroke="#000000" points="113.8697,-122 110.8697,-126 89.8697,-126 86.8697,-122 24.1303,-122 24.1303,-86 113.8697,-86 113.8697,-122"/>
<text text-anchor="middle" x="69" y="-99.8" font-family="Times,serif" font-size="14.00" fill="#000000">IconsModule</text>
</g>
<!-- IconsModule&#45;&gt;RatingModule -->
<g id="edge3" class="edge">
<title>IconsModule&#45;&gt;RatingModule</title>
<path fill="none" stroke="#000000" d="M95.7579,-122.1061C95.7579,-141.3391 95.7579,-169 95.7579,-169 95.7579,-169 162.5781,-169 162.5781,-169"/>
<polygon fill="#000000" stroke="#000000" points="162.5782,-172.5001 172.5781,-169 162.5781,-165.5001 162.5782,-172.5001"/>
</g>
</g>
</svg>
