<?xml version="1.0" encoding="UTF-8" standalone="no"?>
<!DOCTYPE svg PUBLIC "-//W3C//DTD SVG 1.1//EN"
 "http://www.w3.org/Graphics/SVG/1.1/DTD/svg11.dtd">
<!-- Generated by graphviz version 2.40.1 (20161225.0304)
 -->
<!-- Title: dependencies Pages: 1 -->
<svg width="1019pt" height="284pt"
 viewBox="0.00 0.00 1019.00 284.00" xmlns="http://www.w3.org/2000/svg" xmlns:xlink="http://www.w3.org/1999/xlink">
<g id="graph0" class="graph" transform="scale(1 1) rotate(0) translate(4 280)">
<title>dependencies</title>
<polygon fill="#ffffff" stroke="transparent" points="-4,4 -4,-280 1015,-280 1015,4 -4,4"/>
<text text-anchor="start" x="484.5091" y="-42.4" font-family="sans-serif" font-weight="bold" font-size="14.00" fill="#000000">Legend</text>
<polygon fill="#ffffb3" stroke="transparent" points="271.5,-10 271.5,-30 291.5,-30 291.5,-10 271.5,-10"/>
<text text-anchor="start" x="295.129" y="-15.4" font-family="sans-serif" font-size="14.00" fill="#000000"> &#160;Declarations</text>
<polygon fill="#8dd3c7" stroke="transparent" points="384.5,-10 384.5,-30 404.5,-30 404.5,-10 384.5,-10"/>
<text text-anchor="start" x="408.2251" y="-15.4" font-family="sans-serif" font-size="14.00" fill="#000000"> &#160;Module</text>
<polygon fill="#80b1d3" stroke="transparent" points="470.5,-10 470.5,-30 490.5,-30 490.5,-10 470.5,-10"/>
<text text-anchor="start" x="494.2812" y="-15.4" font-family="sans-serif" font-size="14.00" fill="#000000"> &#160;Bootstrap</text>
<polygon fill="#fdb462" stroke="transparent" points="567.5,-10 567.5,-30 587.5,-30 587.5,-10 567.5,-10"/>
<text text-anchor="start" x="591.1732" y="-15.4" font-family="sans-serif" font-size="14.00" fill="#000000"> &#160;Providers</text>
<polygon fill="#fb8072" stroke="transparent" points="663.5,-10 663.5,-30 683.5,-30 683.5,-10 663.5,-10"/>
<text text-anchor="start" x="687.2258" y="-15.4" font-family="sans-serif" font-size="14.00" fill="#000000"> &#160;Exports</text>
<g id="clust1" class="cluster">
<title>cluster_HeaderModule</title>
<polygon fill="none" stroke="#000000" stroke-dasharray="1,5" points="8,-70 8,-268 1003,-268 1003,-70 8,-70"/>
</g>
<g id="clust2" class="cluster">
<title>cluster_HeaderModule_declarations</title>
<polygon fill="none" stroke="#000000" points="572,-78 572,-130 995,-130 995,-78 572,-78"/>
</g>
<g id="clust6" class="cluster">
<title>cluster_HeaderModule_imports</title>
<polygon fill="none" stroke="#000000" points="16,-78 16,-130 564,-130 564,-78 16,-78"/>
</g>
<g id="clust7" class="cluster">
<title>cluster_HeaderModule_exports</title>
<polygon fill="none" stroke="#000000" points="417,-208 417,-260 559,-260 559,-208 417,-208"/>
</g>
<!-- HeaderComponent -->
<g id="node1" class="node">
<title>HeaderComponent</title>
<polygon fill="#ffffb3" stroke="#000000" points="986.7437,-122 865.2563,-122 865.2563,-86 986.7437,-86 986.7437,-122"/>
<text text-anchor="middle" x="926" y="-99.8" font-family="Times,serif" font-size="14.00" fill="#000000">HeaderComponent</text>
</g>
<!-- HeaderModule -->
<g id="node4" class="node">
<title>HeaderModule</title>
<polygon fill="#8dd3c7" stroke="#000000" points="537.9608,-187 534.9608,-191 513.9608,-191 510.9608,-187 438.0392,-187 438.0392,-151 537.9608,-151 537.9608,-187"/>
<text text-anchor="middle" x="488" y="-164.8" font-family="Times,serif" font-size="14.00" fill="#000000">HeaderModule</text>
</g>
<!-- HeaderComponent&#45;&gt;HeaderModule -->
<g id="edge1" class="edge">
<title>HeaderComponent&#45;&gt;HeaderModule</title>
<path fill="none" stroke="#000000" d="M926,-122.2921C926,-144.2057 926,-178 926,-178 926,-178 548.2442,-178 548.2442,-178"/>
<polygon fill="#000000" stroke="#000000" points="548.2442,-174.5001 538.2442,-178 548.2441,-181.5001 548.2442,-174.5001"/>
</g>
<!-- NotifComponent -->
<g id="node2" class="node">
<title>NotifComponent</title>
<polygon fill="#ffffb3" stroke="#000000" points="847.3809,-122 736.6191,-122 736.6191,-86 847.3809,-86 847.3809,-122"/>
<text text-anchor="middle" x="792" y="-99.8" font-family="Times,serif" font-size="14.00" fill="#000000">NotifComponent</text>
</g>
<!-- NotifComponent&#45;&gt;HeaderModule -->
<g id="edge2" class="edge">
<title>NotifComponent&#45;&gt;HeaderModule</title>
<path fill="none" stroke="#000000" d="M792,-122.1061C792,-141.3391 792,-169 792,-169 792,-169 548.1994,-169 548.1994,-169"/>
<polygon fill="#000000" stroke="#000000" points="548.1995,-165.5001 538.1994,-169 548.1994,-172.5001 548.1995,-165.5001"/>
</g>
<!-- UserPanelComponent -->
<g id="node3" class="node">
<title>UserPanelComponent</title>
<polygon fill="#ffffb3" stroke="#000000" points="718.3613,-122 579.6387,-122 579.6387,-86 718.3613,-86 718.3613,-122"/>
<text text-anchor="middle" x="649" y="-99.8" font-family="Times,serif" font-size="14.00" fill="#000000">UserPanelComponent</text>
</g>
<!-- UserPanelComponent&#45;&gt;HeaderModule -->
<g id="edge3" class="edge">
<title>UserPanelComponent&#45;&gt;HeaderModule</title>
<path fill="none" stroke="#000000" d="M649,-122.027C649,-138.3976 649,-160 649,-160 649,-160 548.0589,-160 548.0589,-160"/>
<polygon fill="#000000" stroke="#000000" points="548.0589,-156.5001 538.0589,-160 548.0588,-163.5001 548.0589,-156.5001"/>
</g>
<!-- HeaderComponent  -->
<g id="node9" class="node">
<title>HeaderComponent </title>
<polygon fill="#fb8072" stroke="#000000" points="550.7436,-252 425.2564,-252 425.2564,-216 550.7436,-216 550.7436,-252"/>
<text text-anchor="middle" x="488" y="-229.8" font-family="Times,serif" font-size="14.00" fill="#000000">HeaderComponent </text>
</g>
<!-- HeaderModule&#45;&gt;HeaderComponent  -->
<g id="edge8" class="edge">
<title>HeaderModule&#45;&gt;HeaderComponent </title>
<path fill="none" stroke="#000000" stroke-dasharray="5,2" d="M488,-187.1061C488,-187.1061 488,-205.991 488,-205.991"/>
<polygon fill="#000000" stroke="#000000" points="484.5001,-205.9909 488,-215.991 491.5001,-205.991 484.5001,-205.9909"/>
</g>
<!-- ContextMenuModule -->
<g id="node5" class="node">
<title>ContextMenuModule</title>
<polygon fill="#8dd3c7" stroke="#000000" points="556.0422,-122 553.0422,-126 532.0422,-126 529.0422,-122 419.9578,-122 419.9578,-86 556.0422,-86 556.0422,-122"/>
<text text-anchor="middle" x="488" y="-99.8" font-family="Times,serif" font-size="14.00" fill="#000000">ContextMenuModule</text>
</g>
<!-- ContextMenuModule&#45;&gt;HeaderModule -->
<g id="edge4" class="edge">
<title>ContextMenuModule&#45;&gt;HeaderModule</title>
<path fill="none" stroke="#000000" d="M488,-122.1061C488,-122.1061 488,-140.991 488,-140.991"/>
<polygon fill="#000000" stroke="#000000" points="484.5001,-140.9909 488,-150.991 491.5001,-140.991 484.5001,-140.9909"/>
</g>
<!-- SearchBarModule -->
<g id="node6" class="node">
<title>SearchBarModule</title>
<polygon fill="#8dd3c7" stroke="#000000" points="401.8487,-122 398.8487,-126 377.8487,-126 374.8487,-122 284.1513,-122 284.1513,-86 401.8487,-86 401.8487,-122"/>
<text text-anchor="middle" x="343" y="-99.8" font-family="Times,serif" font-size="14.00" fill="#000000">SearchBarModule</text>
</g>
<!-- SearchBarModule&#45;&gt;HeaderModule -->
<g id="edge5" class="edge">
<title>SearchBarModule&#45;&gt;HeaderModule</title>
<path fill="none" stroke="#000000" d="M343,-122.027C343,-138.3976 343,-160 343,-160 343,-160 427.693,-160 427.693,-160"/>
<polygon fill="#000000" stroke="#000000" points="427.693,-163.5001 437.693,-160 427.6929,-156.5001 427.693,-163.5001"/>
</g>
<!-- SharedModule -->
<g id="node7" class="node">
<title>SharedModule</title>
<polygon fill="#8dd3c7" stroke="#000000" points="266.4231,-122 263.4231,-126 242.4231,-126 239.4231,-122 167.5769,-122 167.5769,-86 266.4231,-86 266.4231,-122"/>
<text text-anchor="middle" x="217" y="-99.8" font-family="Times,serif" font-size="14.00" fill="#000000">SharedModule</text>
</g>
<!-- SharedModule&#45;&gt;HeaderModule -->
<g id="edge6" class="edge">
<title>SharedModule&#45;&gt;HeaderModule</title>
<path fill="none" stroke="#000000" d="M217,-122.1061C217,-141.3391 217,-169 217,-169 217,-169 427.9786,-169 427.9786,-169"/>
<polygon fill="#000000" stroke="#000000" points="427.9786,-172.5001 437.9786,-169 427.9786,-165.5001 427.9786,-172.5001"/>
</g>
<!-- UserPictureModule -->
<g id="node8" class="node">
<title>UserPictureModule</title>
<polygon fill="#8dd3c7" stroke="#000000" points="149.6303,-122 146.6303,-126 125.6303,-126 122.6303,-122 24.3697,-122 24.3697,-86 149.6303,-86 149.6303,-122"/>
<text text-anchor="middle" x="87" y="-99.8" font-family="Times,serif" font-size="14.00" fill="#000000">UserPictureModule</text>
</g>
<!-- UserPictureModule&#45;&gt;HeaderModule -->
<g id="edge7" class="edge">
<title>UserPictureModule&#45;&gt;HeaderModule</title>
<path fill="none" stroke="#000000" d="M87,-122.2921C87,-144.2057 87,-178 87,-178 87,-178 428.0239,-178 428.0239,-178"/>
<polygon fill="#000000" stroke="#000000" points="428.0239,-181.5001 438.0239,-178 428.0238,-174.5001 428.0239,-181.5001"/>
</g>
</g>
</svg>
