<?xml version="1.0" encoding="UTF-8" standalone="no"?>
<!DOCTYPE svg PUBLIC "-//W3C//DTD SVG 1.1//EN"
 "http://www.w3.org/Graphics/SVG/1.1/DTD/svg11.dtd">
<!-- Generated by graphviz version 2.40.1 (20161225.0304)
 -->
<!-- Title: dependencies Pages: 1 -->
<svg width="504pt" height="284pt"
 viewBox="0.00 0.00 504.00 284.00" xmlns="http://www.w3.org/2000/svg" xmlns:xlink="http://www.w3.org/1999/xlink">
<g id="graph0" class="graph" transform="scale(1 1) rotate(0) translate(4 280)">
<title>dependencies</title>
<polygon fill="#ffffff" stroke="transparent" points="-4,4 -4,-280 500,-280 500,4 -4,4"/>
<text text-anchor="start" x="227.0091" y="-42.4" font-family="sans-serif" font-weight="bold" font-size="14.00" fill="#000000">Legend</text>
<polygon fill="#ffffb3" stroke="transparent" points="14,-10 14,-30 34,-30 34,-10 14,-10"/>
<text text-anchor="start" x="37.629" y="-15.4" font-family="sans-serif" font-size="14.00" fill="#000000"> &#160;Declarations</text>
<polygon fill="#8dd3c7" stroke="transparent" points="127,-10 127,-30 147,-30 147,-10 127,-10"/>
<text text-anchor="start" x="150.7251" y="-15.4" font-family="sans-serif" font-size="14.00" fill="#000000"> &#160;Module</text>
<polygon fill="#80b1d3" stroke="transparent" points="213,-10 213,-30 233,-30 233,-10 213,-10"/>
<text text-anchor="start" x="236.7812" y="-15.4" font-family="sans-serif" font-size="14.00" fill="#000000"> &#160;Bootstrap</text>
<polygon fill="#fdb462" stroke="transparent" points="310,-10 310,-30 330,-30 330,-10 310,-10"/>
<text text-anchor="start" x="333.6732" y="-15.4" font-family="sans-serif" font-size="14.00" fill="#000000"> &#160;Providers</text>
<polygon fill="#fb8072" stroke="transparent" points="406,-10 406,-30 426,-30 426,-10 406,-10"/>
<text text-anchor="start" x="429.7258" y="-15.4" font-family="sans-serif" font-size="14.00" fill="#000000"> &#160;Exports</text>
<g id="clust1" class="cluster">
<title>cluster_InputsCustomModule</title>
<polygon fill="none" stroke="#000000" stroke-dasharray="1,5" points="69,-70 69,-268 427,-268 427,-70 69,-70"/>
</g>
<g id="clust2" class="cluster">
<title>cluster_InputsCustomModule_declarations</title>
<polygon fill="none" stroke="#000000" points="211,-78 211,-130 419,-130 419,-78 211,-78"/>
</g>
<g id="clust4" class="cluster">
<title>cluster_InputsCustomModule_imports</title>
<polygon fill="none" stroke="#000000" points="77,-78 77,-130 203,-130 203,-78 77,-78"/>
</g>
<g id="clust5" class="cluster">
<title>cluster_InputsCustomModule_exports</title>
<polygon fill="none" stroke="#000000" points="142,-208 142,-260 354,-260 354,-208 142,-208"/>
</g>
<!-- InputPriceCurrencyComponent -->
<g id="node1" class="node">
<title>InputPriceCurrencyComponent</title>
<polygon fill="#ffffb3" stroke="#000000" points="410.7338,-122 219.2662,-122 219.2662,-86 410.7338,-86 410.7338,-122"/>
<text text-anchor="middle" x="315" y="-99.8" font-family="Times,serif" font-size="14.00" fill="#000000">InputPriceCurrencyComponent</text>
</g>
<!-- InputsCustomModule -->
<g id="node2" class="node">
<title>InputsCustomModule</title>
<polygon fill="#8dd3c7" stroke="#000000" points="317.108,-187 314.108,-191 293.108,-191 290.108,-187 178.892,-187 178.892,-151 317.108,-151 317.108,-187"/>
<text text-anchor="middle" x="248" y="-164.8" font-family="Times,serif" font-size="14.00" fill="#000000">InputsCustomModule</text>
</g>
<!-- InputPriceCurrencyComponent&#45;&gt;InputsCustomModule -->
<g id="edge1" class="edge">
<title>InputPriceCurrencyComponent&#45;&gt;InputsCustomModule</title>
<path fill="none" stroke="#000000" d="M268.0936,-122.1061C268.0936,-122.1061 268.0936,-140.991 268.0936,-140.991"/>
<polygon fill="#000000" stroke="#000000" points="264.5937,-140.9909 268.0936,-150.991 271.5937,-140.991 264.5937,-140.9909"/>
</g>
<!-- InputPriceCurrencyComponent  -->
<g id="node4" class="node">
<title>InputPriceCurrencyComponent </title>
<polygon fill="#fb8072" stroke="#000000" points="345.7337,-252 150.2663,-252 150.2663,-216 345.7337,-216 345.7337,-252"/>
<text text-anchor="middle" x="248" y="-229.8" font-family="Times,serif" font-size="14.00" fill="#000000">InputPriceCurrencyComponent </text>
</g>
<!-- InputsCustomModule&#45;&gt;InputPriceCurrencyComponent  -->
<g id="edge3" class="edge">
<title>InputsCustomModule&#45;&gt;InputPriceCurrencyComponent </title>
<path fill="none" stroke="#000000" stroke-dasharray="5,2" d="M248,-187.1061C248,-187.1061 248,-205.991 248,-205.991"/>
<polygon fill="#000000" stroke="#000000" points="244.5001,-205.9909 248,-215.991 251.5001,-205.991 244.5001,-205.9909"/>
</g>
<!-- SelectorsModule -->
<g id="node3" class="node">
<title>SelectorsModule</title>
<polygon fill="#8dd3c7" stroke="#000000" points="195.3627,-122 192.3627,-126 171.3627,-126 168.3627,-122 84.6373,-122 84.6373,-86 195.3627,-86 195.3627,-122"/>
<text text-anchor="middle" x="140" y="-99.8" font-family="Times,serif" font-size="14.00" fill="#000000">SelectorsModule</text>
</g>
<!-- SelectorsModule&#45;&gt;InputsCustomModule -->
<g id="edge2" class="edge">
<title>SelectorsModule&#45;&gt;InputsCustomModule</title>
<path fill="none" stroke="#000000" d="M187.1887,-122.1061C187.1887,-122.1061 187.1887,-140.991 187.1887,-140.991"/>
<polygon fill="#000000" stroke="#000000" points="183.6887,-140.9909 187.1887,-150.991 190.6887,-140.991 183.6887,-140.9909"/>
</g>
</g>
</svg>
