<?xml version="1.0" encoding="UTF-8" standalone="no"?>
<!DOCTYPE svg PUBLIC "-//W3C//DTD SVG 1.1//EN"
 "http://www.w3.org/Graphics/SVG/1.1/DTD/svg11.dtd">
<!-- Generated by graphviz version 2.40.1 (20161225.0304)
 -->
<!-- Title: dependencies Pages: 1 -->
<svg width="860pt" height="284pt"
 viewBox="0.00 0.00 860.00 284.00" xmlns="http://www.w3.org/2000/svg" xmlns:xlink="http://www.w3.org/1999/xlink">
<g id="graph0" class="graph" transform="scale(1 1) rotate(0) translate(4 280)">
<title>dependencies</title>
<polygon fill="#ffffff" stroke="transparent" points="-4,4 -4,-280 856,-280 856,4 -4,4"/>
<text text-anchor="start" x="405.0091" y="-42.4" font-family="sans-serif" font-weight="bold" font-size="14.00" fill="#000000">Legend</text>
<polygon fill="#ffffb3" stroke="transparent" points="192,-10 192,-30 212,-30 212,-10 192,-10"/>
<text text-anchor="start" x="215.629" y="-15.4" font-family="sans-serif" font-size="14.00" fill="#000000"> &#160;Declarations</text>
<polygon fill="#8dd3c7" stroke="transparent" points="305,-10 305,-30 325,-30 325,-10 305,-10"/>
<text text-anchor="start" x="328.7251" y="-15.4" font-family="sans-serif" font-size="14.00" fill="#000000"> &#160;Module</text>
<polygon fill="#80b1d3" stroke="transparent" points="391,-10 391,-30 411,-30 411,-10 391,-10"/>
<text text-anchor="start" x="414.7812" y="-15.4" font-family="sans-serif" font-size="14.00" fill="#000000"> &#160;Bootstrap</text>
<polygon fill="#fdb462" stroke="transparent" points="488,-10 488,-30 508,-30 508,-10 488,-10"/>
<text text-anchor="start" x="511.6732" y="-15.4" font-family="sans-serif" font-size="14.00" fill="#000000"> &#160;Providers</text>
<polygon fill="#fb8072" stroke="transparent" points="584,-10 584,-30 604,-30 604,-10 584,-10"/>
<text text-anchor="start" x="607.7258" y="-15.4" font-family="sans-serif" font-size="14.00" fill="#000000"> &#160;Exports</text>
<g id="clust1" class="cluster">
<title>cluster_CommentModule</title>
<polygon fill="none" stroke="#000000" stroke-dasharray="1,5" points="8,-70 8,-268 844,-268 844,-70 8,-70"/>
</g>
<g id="clust2" class="cluster">
<title>cluster_CommentModule_declarations</title>
<polygon fill="none" stroke="#000000" points="138,-78 138,-130 836,-130 836,-78 138,-78"/>
</g>
<g id="clust7" class="cluster">
<title>cluster_CommentModule_imports</title>
<polygon fill="none" stroke="#000000" points="16,-78 16,-130 130,-130 130,-78 16,-78"/>
</g>
<g id="clust8" class="cluster">
<title>cluster_CommentModule_exports</title>
<polygon fill="none" stroke="#000000" points="313,-208 313,-260 493,-260 493,-208 313,-208"/>
</g>
<!-- CommentBadgeComponent -->
<g id="node1" class="node">
<title>CommentBadgeComponent</title>
<polygon fill="#ffffb3" stroke="#000000" points="828.3215,-122 655.6785,-122 655.6785,-86 828.3215,-86 828.3215,-122"/>
<text text-anchor="middle" x="742" y="-99.8" font-family="Times,serif" font-size="14.00" fill="#000000">CommentBadgeComponent</text>
</g>
<!-- CommentModule -->
<g id="node5" class="node">
<title>CommentModule</title>
<polygon fill="#8dd3c7" stroke="#000000" points="460.273,-187 457.273,-191 436.273,-191 433.273,-187 345.727,-187 345.727,-151 460.273,-151 460.273,-187"/>
<text text-anchor="middle" x="403" y="-164.8" font-family="Times,serif" font-size="14.00" fill="#000000">CommentModule</text>
</g>
<!-- CommentBadgeComponent&#45;&gt;CommentModule -->
<g id="edge1" class="edge">
<title>CommentBadgeComponent&#45;&gt;CommentModule</title>
<path fill="none" stroke="#000000" d="M742,-122.2843C742,-143.3211 742,-175 742,-175 742,-175 470.5067,-175 470.5067,-175"/>
<polygon fill="#000000" stroke="#000000" points="470.5068,-171.5001 460.5067,-175 470.5067,-178.5001 470.5068,-171.5001"/>
</g>
<!-- CommentComponent -->
<g id="node2" class="node">
<title>CommentComponent</title>
<polygon fill="#ffffb3" stroke="#000000" points="638.0561,-122 501.9439,-122 501.9439,-86 638.0561,-86 638.0561,-122"/>
<text text-anchor="middle" x="570" y="-99.8" font-family="Times,serif" font-size="14.00" fill="#000000">CommentComponent</text>
</g>
<!-- CommentComponent&#45;&gt;CommentModule -->
<g id="edge2" class="edge">
<title>CommentComponent&#45;&gt;CommentModule</title>
<path fill="none" stroke="#000000" d="M570,-122.0225C570,-139.3734 570,-163 570,-163 570,-163 470.4719,-163 470.4719,-163"/>
<polygon fill="#000000" stroke="#000000" points="470.472,-159.5001 460.4719,-163 470.4719,-166.5001 470.472,-159.5001"/>
</g>
<!-- CommentCtnrComponent -->
<g id="node3" class="node">
<title>CommentCtnrComponent</title>
<polygon fill="#ffffb3" stroke="#000000" points="483.9438,-122 322.0562,-122 322.0562,-86 483.9438,-86 483.9438,-122"/>
<text text-anchor="middle" x="403" y="-99.8" font-family="Times,serif" font-size="14.00" fill="#000000">CommentCtnrComponent</text>
</g>
<!-- CommentCtnrComponent&#45;&gt;CommentModule -->
<g id="edge3" class="edge">
<title>CommentCtnrComponent&#45;&gt;CommentModule</title>
<path fill="none" stroke="#000000" d="M403,-122.1061C403,-122.1061 403,-140.991 403,-140.991"/>
<polygon fill="#000000" stroke="#000000" points="399.5001,-140.9909 403,-150.991 406.5001,-140.991 399.5001,-140.9909"/>
</g>
<!-- CommentListComponent -->
<g id="node4" class="node">
<title>CommentListComponent</title>
<polygon fill="#ffffb3" stroke="#000000" points="304.3342,-122 145.6658,-122 145.6658,-86 304.3342,-86 304.3342,-122"/>
<text text-anchor="middle" x="225" y="-99.8" font-family="Times,serif" font-size="14.00" fill="#000000">CommentListComponent</text>
</g>
<!-- CommentListComponent&#45;&gt;CommentModule -->
<g id="edge4" class="edge">
<title>CommentListComponent&#45;&gt;CommentModule</title>
<path fill="none" stroke="#000000" d="M225,-122.0225C225,-139.3734 225,-163 225,-163 225,-163 335.6999,-163 335.6999,-163"/>
<polygon fill="#000000" stroke="#000000" points="335.6999,-166.5001 345.6999,-163 335.6999,-159.5001 335.6999,-166.5001"/>
</g>
<!-- CommentCtnrComponent  -->
<g id="node7" class="node">
<title>CommentCtnrComponent </title>
<polygon fill="#fb8072" stroke="#000000" points="485.4432,-252 320.5568,-252 320.5568,-216 485.4432,-216 485.4432,-252"/>
<text text-anchor="middle" x="403" y="-229.8" font-family="Times,serif" font-size="14.00" fill="#000000">CommentCtnrComponent </text>
</g>
<!-- CommentModule&#45;&gt;CommentCtnrComponent  -->
<g id="edge6" class="edge">
<title>CommentModule&#45;&gt;CommentCtnrComponent </title>
<path fill="none" stroke="#000000" stroke-dasharray="5,2" d="M403,-187.1061C403,-187.1061 403,-205.991 403,-205.991"/>
<polygon fill="#000000" stroke="#000000" points="399.5001,-205.9909 403,-215.991 406.5001,-205.991 399.5001,-205.9909"/>
</g>
<!-- SharedModule -->
<g id="node6" class="node">
<title>SharedModule</title>
<polygon fill="#8dd3c7" stroke="#000000" points="122.4231,-122 119.4231,-126 98.4231,-126 95.4231,-122 23.5769,-122 23.5769,-86 122.4231,-86 122.4231,-122"/>
<text text-anchor="middle" x="73" y="-99.8" font-family="Times,serif" font-size="14.00" fill="#000000">SharedModule</text>
</g>
<!-- SharedModule&#45;&gt;CommentModule -->
<g id="edge5" class="edge">
<title>SharedModule&#45;&gt;CommentModule</title>
<path fill="none" stroke="#000000" d="M73,-122.2843C73,-143.3211 73,-175 73,-175 73,-175 335.5184,-175 335.5184,-175"/>
<polygon fill="#000000" stroke="#000000" points="335.5184,-178.5001 345.5184,-175 335.5184,-171.5001 335.5184,-178.5001"/>
</g>
</g>
</svg>
