<?xml version="1.0" encoding="UTF-8" standalone="no"?>
<!DOCTYPE svg PUBLIC "-//W3C//DTD SVG 1.1//EN"
 "http://www.w3.org/Graphics/SVG/1.1/DTD/svg11.dtd">
<!-- Generated by graphviz version 2.40.1 (20161225.0304)
 -->
<!-- Title: dependencies Pages: 1 -->
<svg width="504pt" height="284pt"
 viewBox="0.00 0.00 504.00 284.00" xmlns="http://www.w3.org/2000/svg" xmlns:xlink="http://www.w3.org/1999/xlink">
<g id="graph0" class="graph" transform="scale(1 1) rotate(0) translate(4 280)">
<title>dependencies</title>
<polygon fill="#ffffff" stroke="transparent" points="-4,4 -4,-280 500,-280 500,4 -4,4"/>
<text text-anchor="start" x="227.0091" y="-42.4" font-family="sans-serif" font-weight="bold" font-size="14.00" fill="#000000">Legend</text>
<polygon fill="#ffffb3" stroke="transparent" points="14,-10 14,-30 34,-30 34,-10 14,-10"/>
<text text-anchor="start" x="37.629" y="-15.4" font-family="sans-serif" font-size="14.00" fill="#000000"> &#160;Declarations</text>
<polygon fill="#8dd3c7" stroke="transparent" points="127,-10 127,-30 147,-30 147,-10 127,-10"/>
<text text-anchor="start" x="150.7251" y="-15.4" font-family="sans-serif" font-size="14.00" fill="#000000"> &#160;Module</text>
<polygon fill="#80b1d3" stroke="transparent" points="213,-10 213,-30 233,-30 233,-10 213,-10"/>
<text text-anchor="start" x="236.7812" y="-15.4" font-family="sans-serif" font-size="14.00" fill="#000000"> &#160;Bootstrap</text>
<polygon fill="#fdb462" stroke="transparent" points="310,-10 310,-30 330,-30 330,-10 310,-10"/>
<text text-anchor="start" x="333.6732" y="-15.4" font-family="sans-serif" font-size="14.00" fill="#000000"> &#160;Providers</text>
<polygon fill="#fb8072" stroke="transparent" points="406,-10 406,-30 426,-30 426,-10 406,-10"/>
<text text-anchor="start" x="429.7258" y="-15.4" font-family="sans-serif" font-size="14.00" fill="#000000"> &#160;Exports</text>
<g id="clust1" class="cluster">
<title>cluster_LoadersModule</title>
<polygon fill="none" stroke="#000000" stroke-dasharray="1,5" points="82,-70 82,-268 414,-268 414,-70 82,-70"/>
</g>
<g id="clust2" class="cluster">
<title>cluster_LoadersModule_declarations</title>
<polygon fill="none" stroke="#000000" points="94,-78 94,-130 402,-130 402,-78 94,-78"/>
</g>
<g id="clust6" class="cluster">
<title>cluster_LoadersModule_exports</title>
<polygon fill="none" stroke="#000000" points="90,-208 90,-260 406,-260 406,-208 90,-208"/>
</g>
<!-- ProgressBarComponent -->
<g id="node1" class="node">
<title>ProgressBarComponent</title>
<polygon fill="#ffffb3" stroke="#000000" points="393.752,-122 244.248,-122 244.248,-86 393.752,-86 393.752,-122"/>
<text text-anchor="middle" x="319" y="-99.8" font-family="Times,serif" font-size="14.00" fill="#000000">ProgressBarComponent</text>
</g>
<!-- LoadersModule -->
<g id="node3" class="node">
<title>LoadersModule</title>
<polygon fill="#8dd3c7" stroke="#000000" points="217.1374,-187 214.1374,-191 193.1374,-191 190.1374,-187 112.8626,-187 112.8626,-151 217.1374,-151 217.1374,-187"/>
<text text-anchor="middle" x="165" y="-164.8" font-family="Times,serif" font-size="14.00" fill="#000000">LoadersModule</text>
</g>
<!-- ProgressBarComponent&#45;&gt;LoadersModule -->
<g id="edge1" class="edge">
<title>ProgressBarComponent&#45;&gt;LoadersModule</title>
<path fill="none" stroke="#000000" d="M344.042,-122.0225C344.042,-139.3734 344.042,-163 344.042,-163 344.042,-163 227.2677,-163 227.2677,-163"/>
<polygon fill="#000000" stroke="#000000" points="227.2677,-159.5001 217.2677,-163 227.2676,-166.5001 227.2677,-159.5001"/>
</g>
<!-- SpinnerComponent -->
<g id="node2" class="node">
<title>SpinnerComponent</title>
<polygon fill="#ffffb3" stroke="#000000" points="226.3809,-122 101.6191,-122 101.6191,-86 226.3809,-86 226.3809,-122"/>
<text text-anchor="middle" x="164" y="-99.8" font-family="Times,serif" font-size="14.00" fill="#000000">SpinnerComponent</text>
</g>
<!-- SpinnerComponent&#45;&gt;LoadersModule -->
<g id="edge2" class="edge">
<title>SpinnerComponent&#45;&gt;LoadersModule</title>
<path fill="none" stroke="#000000" d="M165,-122.1061C165,-122.1061 165,-140.991 165,-140.991"/>
<polygon fill="#000000" stroke="#000000" points="161.5001,-140.9909 165,-150.991 168.5001,-140.991 161.5001,-140.9909"/>
</g>
<!-- ProgressBarComponent  -->
<g id="node4" class="node">
<title>ProgressBarComponent </title>
<polygon fill="#fb8072" stroke="#000000" points="397.752,-252 244.248,-252 244.248,-216 397.752,-216 397.752,-252"/>
<text text-anchor="middle" x="321" y="-229.8" font-family="Times,serif" font-size="14.00" fill="#000000">ProgressBarComponent </text>
</g>
<!-- LoadersModule&#45;&gt;ProgressBarComponent  -->
<g id="edge3" class="edge">
<title>LoadersModule&#45;&gt;ProgressBarComponent </title>
<path fill="none" stroke="#000000" stroke-dasharray="5,2" d="M217.1814,-175C253.0414,-175 294.208,-175 294.208,-175 294.208,-175 294.208,-205.9775 294.208,-205.9775"/>
<polygon fill="#000000" stroke="#000000" points="290.7081,-205.9774 294.208,-215.9775 297.7081,-205.9775 290.7081,-205.9774"/>
</g>
<!-- SpinnerComponent  -->
<g id="node5" class="node">
<title>SpinnerComponent </title>
<polygon fill="#fb8072" stroke="#000000" points="226.3814,-252 97.6186,-252 97.6186,-216 226.3814,-216 226.3814,-252"/>
<text text-anchor="middle" x="162" y="-229.8" font-family="Times,serif" font-size="14.00" fill="#000000">SpinnerComponent </text>
</g>
<!-- LoadersModule&#45;&gt;SpinnerComponent  -->
<g id="edge4" class="edge">
<title>LoadersModule&#45;&gt;SpinnerComponent </title>
<path fill="none" stroke="#000000" stroke-dasharray="5,2" d="M165,-187.1061C165,-187.1061 165,-205.991 165,-205.991"/>
<polygon fill="#000000" stroke="#000000" points="161.5001,-205.9909 165,-215.991 168.5001,-205.991 161.5001,-205.9909"/>
</g>
</g>
</svg>
