<?xml version="1.0" encoding="UTF-8" standalone="no"?>
<!DOCTYPE svg PUBLIC "-//W3C//DTD SVG 1.1//EN"
 "http://www.w3.org/Graphics/SVG/1.1/DTD/svg11.dtd">
<!-- Generated by graphviz version 2.40.1 (20161225.0304)
 -->
<!-- Title: dependencies Pages: 1 -->
<svg width="504pt" height="284pt"
 viewBox="0.00 0.00 504.00 284.00" xmlns="http://www.w3.org/2000/svg" xmlns:xlink="http://www.w3.org/1999/xlink">
<g id="graph0" class="graph" transform="scale(1 1) rotate(0) translate(4 280)">
<title>dependencies</title>
<polygon fill="#ffffff" stroke="transparent" points="-4,4 -4,-280 500,-280 500,4 -4,4"/>
<text text-anchor="start" x="227.0091" y="-42.4" font-family="sans-serif" font-weight="bold" font-size="14.00" fill="#000000">Legend</text>
<polygon fill="#ffffb3" stroke="transparent" points="14,-10 14,-30 34,-30 34,-10 14,-10"/>
<text text-anchor="start" x="37.629" y="-15.4" font-family="sans-serif" font-size="14.00" fill="#000000"> &#160;Declarations</text>
<polygon fill="#8dd3c7" stroke="transparent" points="127,-10 127,-30 147,-30 147,-10 127,-10"/>
<text text-anchor="start" x="150.7251" y="-15.4" font-family="sans-serif" font-size="14.00" fill="#000000"> &#160;Module</text>
<polygon fill="#80b1d3" stroke="transparent" points="213,-10 213,-30 233,-30 233,-10 213,-10"/>
<text text-anchor="start" x="236.7812" y="-15.4" font-family="sans-serif" font-size="14.00" fill="#000000"> &#160;Bootstrap</text>
<polygon fill="#fdb462" stroke="transparent" points="310,-10 310,-30 330,-30 330,-10 310,-10"/>
<text text-anchor="start" x="333.6732" y="-15.4" font-family="sans-serif" font-size="14.00" fill="#000000"> &#160;Providers</text>
<polygon fill="#fb8072" stroke="transparent" points="406,-10 406,-30 426,-30 426,-10 406,-10"/>
<text text-anchor="start" x="429.7258" y="-15.4" font-family="sans-serif" font-size="14.00" fill="#000000"> &#160;Exports</text>
<g id="clust1" class="cluster">
<title>cluster_SideMenuModule</title>
<polygon fill="none" stroke="#000000" stroke-dasharray="1,5" points="68,-70 68,-268 428,-268 428,-70 68,-70"/>
</g>
<g id="clust2" class="cluster">
<title>cluster_SideMenuModule_declarations</title>
<polygon fill="none" stroke="#000000" points="80,-78 80,-130 417,-130 417,-78 80,-78"/>
</g>
<g id="clust6" class="cluster">
<title>cluster_SideMenuModule_exports</title>
<polygon fill="none" stroke="#000000" points="76,-208 76,-260 420,-260 420,-208 76,-208"/>
</g>
<!-- SideMenuComponent -->
<g id="node1" class="node">
<title>SideMenuComponent</title>
<polygon fill="#ffffb3" stroke="#000000" points="409.3795,-122 270.6205,-122 270.6205,-86 409.3795,-86 409.3795,-122"/>
<text text-anchor="middle" x="340" y="-99.8" font-family="Times,serif" font-size="14.00" fill="#000000">SideMenuComponent</text>
</g>
<!-- SideMenuModule -->
<g id="node3" class="node">
<title>SideMenuModule</title>
<polygon fill="#8dd3c7" stroke="#000000" points="229.5968,-187 226.5968,-191 205.5968,-191 202.5968,-187 112.4032,-187 112.4032,-151 229.5968,-151 229.5968,-187"/>
<text text-anchor="middle" x="171" y="-164.8" font-family="Times,serif" font-size="14.00" fill="#000000">SideMenuModule</text>
</g>
<!-- SideMenuComponent&#45;&gt;SideMenuModule -->
<g id="edge1" class="edge">
<title>SideMenuComponent&#45;&gt;SideMenuModule</title>
<path fill="none" stroke="#000000" d="M363.1466,-122.0225C363.1466,-139.3734 363.1466,-163 363.1466,-163 363.1466,-163 239.6944,-163 239.6944,-163"/>
<polygon fill="#000000" stroke="#000000" points="239.6944,-159.5001 229.6944,-163 239.6943,-166.5001 239.6944,-159.5001"/>
</g>
<!-- SideMenuItemComponent -->
<g id="node2" class="node">
<title>SideMenuItemComponent</title>
<polygon fill="#ffffb3" stroke="#000000" points="252.0365,-122 87.9635,-122 87.9635,-86 252.0365,-86 252.0365,-122"/>
<text text-anchor="middle" x="170" y="-99.8" font-family="Times,serif" font-size="14.00" fill="#000000">SideMenuItemComponent</text>
</g>
<!-- SideMenuItemComponent&#45;&gt;SideMenuModule -->
<g id="edge2" class="edge">
<title>SideMenuItemComponent&#45;&gt;SideMenuModule</title>
<path fill="none" stroke="#000000" d="M171,-122.1061C171,-122.1061 171,-140.991 171,-140.991"/>
<polygon fill="#000000" stroke="#000000" points="167.5001,-140.9909 171,-150.991 174.5001,-140.991 167.5001,-140.9909"/>
</g>
<!-- SideMenuComponent  -->
<g id="node4" class="node">
<title>SideMenuComponent </title>
<polygon fill="#fb8072" stroke="#000000" points="412.3799,-252 269.6201,-252 269.6201,-216 412.3799,-216 412.3799,-252"/>
<text text-anchor="middle" x="341" y="-229.8" font-family="Times,serif" font-size="14.00" fill="#000000">SideMenuComponent </text>
</g>
<!-- SideMenuModule&#45;&gt;SideMenuComponent  -->
<g id="edge3" class="edge">
<title>SideMenuModule&#45;&gt;SideMenuComponent </title>
<path fill="none" stroke="#000000" stroke-dasharray="5,2" d="M229.9038,-175C270.3835,-175 316.8534,-175 316.8534,-175 316.8534,-175 316.8534,-205.9775 316.8534,-205.9775"/>
<polygon fill="#000000" stroke="#000000" points="313.3535,-205.9774 316.8534,-215.9775 320.3535,-205.9775 313.3535,-205.9774"/>
</g>
<!-- SideMenuItemComponent  -->
<g id="node5" class="node">
<title>SideMenuItemComponent </title>
<polygon fill="#fb8072" stroke="#000000" points="252.0358,-252 83.9642,-252 83.9642,-216 252.0358,-216 252.0358,-252"/>
<text text-anchor="middle" x="168" y="-229.8" font-family="Times,serif" font-size="14.00" fill="#000000">SideMenuItemComponent </text>
</g>
<!-- SideMenuModule&#45;&gt;SideMenuItemComponent  -->
<g id="edge4" class="edge">
<title>SideMenuModule&#45;&gt;SideMenuItemComponent </title>
<path fill="none" stroke="#000000" stroke-dasharray="5,2" d="M171,-187.1061C171,-187.1061 171,-205.991 171,-205.991"/>
<polygon fill="#000000" stroke="#000000" points="167.5001,-205.9909 171,-215.991 174.5001,-205.991 167.5001,-205.9909"/>
</g>
</g>
</svg>
