<svg xmlns="http://www.w3.org/2000/svg" width="100" height="100" viewBox="0 0 100 100">
    <g fill="none" fill-rule="evenodd">
        <path fill="#FFF" d="M-500-405H957V689H-500z"/>
        <path fill="#F9FAFC" stroke="#E6EBF5" stroke-width=".676" d="M.338.338h99.324v99.324H.338z"/>
        <g fill="#E6EBF5" fill-rule="nonzero">
            <path d="M23.893 16.461h6.326v6.326h-6.326zM63.506 10.135v3.295h-3.239v3.295h3.239v13.179h3.238v3.294h-3.238v3.295h6.476v-6.59h9.715v3.295h3.238V10.135h-19.43zM79.697 26.61H66.744v-13.18h12.953v13.18z"/>
            <path d="M69.756 16.461h6.326v6.326h-6.326zM23.893 62.324h6.326v6.326h-6.326zM63.43 55.998h3.163v3.163H63.43zM47.088 72.34h3.163v3.163h-3.163zM50.251 59.16h3.163v3.164h-3.163zM50.251 66.014h3.163v3.163h-3.163zM79.772 49.145h3.163v3.163h-3.163zM17.568 49.145h3.163v3.163h-3.163zM17.568 32.803h3.163v3.163h-3.163zM53.414 13.298v3.163h-6.326v3.163h9.49v-6.326z"/>
            <path d="M79.65 36.493v3.268h-6.569v3.269h-9.853V39.76h-3.285v3.269h-6.57v3.268h9.855v3.269h-9.854v-3.269h-3.285v3.269h-3.284v-3.269H43.52v3.269h-3.285v3.268h6.57v3.268h3.284v-3.268h6.57v3.268h-3.285v3.269h3.284v6.537h3.285v3.268h3.285v-3.268h9.853v-6.537h3.285v-3.269h-3.285v-6.536h-6.569v-3.269h6.57v3.269h3.284v-3.269h3.285V43.03h3.284v-6.537h-3.284zm-9.853 16.342v9.805h-9.854v-9.805h9.854zM59.74 29.64h-3.163v3.163h-3.163v6.326h3.163v-3.163h3.163v-3.163h3.163V29.64zM53.414 72.34h6.326v3.163h-6.326zM43.926 13.298h3.162v3.163h-3.162z"/>
            <path d="M69.756 36.493h3.163v3.163h-3.163zM73.446 32.803h3.163v3.163h-3.163zM30.747 49.145h3.162v3.163h-3.162zM37.336 72.265V59.312h3.295v-6.477h-3.295v3.238h-9.884v-3.238h-6.59v3.238h-3.294v19.43h26.358v-3.238h-6.59zm-3.295 0H20.862V59.312h13.18v12.953zM37.072 29.64h3.163v3.163h-3.163z"/>
            <path d="M40.63 10.135H17.569v19.43h3.294v3.238h3.295v-3.238h3.295v3.238h3.295v-3.238h6.589v-6.477h3.295V19.85h-3.295v-6.477h6.59v-3.238H40.63zm-6.589 16.191H20.862V13.373h13.18v12.953zM56.577 19.624h3.163v3.163h-3.163zM50.251 10.135h3.163v3.163h-3.163z"/>
            <path d="M56.577 29.904v-3.295h-3.25v-3.295h-3.251v3.295h-6.502v-3.295h-3.25v6.59h3.25v6.59h-9.752v-3.296H30.57v3.295h-9.753v3.295h6.502v3.295h-9.752v3.294h9.752v3.295h3.25v-3.295h3.252v3.295h3.25v-3.295h6.502v-3.294h-3.25v-3.295h6.5v3.295h6.502v-3.295h-3.25v-3.295h-3.251v-6.59h9.752zM37.072 43.083h-6.501v-3.295h6.501v3.295zM46.561 62.587v-6.589h-3.163v3.295h-3.163v3.294h3.163v3.295h-3.163v3.295h6.326v-3.295h3.163v-3.295zM76.434 69.177v-3.163h-3.251v3.163H63.43v3.163h6.502v3.163h3.25V72.34h6.502v3.163h3.251v-6.326zM79.772 55.998v3.163H76.61v3.163h6.326v-6.326z"/>
        </g>
        <text fill="#A3AFC6" font-family="SourceSansPro-SemiBold, Source Sans Pro" font-size="12.838" font-weight="500">
            <tspan x="27.142" y="90.703">ABC-123</tspan>
        </text>
    </g>
</svg>
