<?xml version="1.0" encoding="UTF-8" standalone="no"?>
<!DOCTYPE svg PUBLIC "-//W3C//DTD SVG 1.1//EN"
 "http://www.w3.org/Graphics/SVG/1.1/DTD/svg11.dtd">
<!-- Generated by graphviz version 2.40.1 (20161225.0304)
 -->
<!-- Title: dependencies Pages: 1 -->
<svg width="746pt" height="284pt"
 viewBox="0.00 0.00 746.00 284.00" xmlns="http://www.w3.org/2000/svg" xmlns:xlink="http://www.w3.org/1999/xlink">
<g id="graph0" class="graph" transform="scale(1 1) rotate(0) translate(4 280)">
<title>dependencies</title>
<polygon fill="#ffffff" stroke="transparent" points="-4,4 -4,-280 742,-280 742,4 -4,4"/>
<text text-anchor="start" x="348.0091" y="-42.4" font-family="sans-serif" font-weight="bold" font-size="14.00" fill="#000000">Legend</text>
<polygon fill="#ffffb3" stroke="transparent" points="135,-10 135,-30 155,-30 155,-10 135,-10"/>
<text text-anchor="start" x="158.629" y="-15.4" font-family="sans-serif" font-size="14.00" fill="#000000"> &#160;Declarations</text>
<polygon fill="#8dd3c7" stroke="transparent" points="248,-10 248,-30 268,-30 268,-10 248,-10"/>
<text text-anchor="start" x="271.7251" y="-15.4" font-family="sans-serif" font-size="14.00" fill="#000000"> &#160;Module</text>
<polygon fill="#80b1d3" stroke="transparent" points="334,-10 334,-30 354,-30 354,-10 334,-10"/>
<text text-anchor="start" x="357.7812" y="-15.4" font-family="sans-serif" font-size="14.00" fill="#000000"> &#160;Bootstrap</text>
<polygon fill="#fdb462" stroke="transparent" points="431,-10 431,-30 451,-30 451,-10 431,-10"/>
<text text-anchor="start" x="454.6732" y="-15.4" font-family="sans-serif" font-size="14.00" fill="#000000"> &#160;Providers</text>
<polygon fill="#fb8072" stroke="transparent" points="527,-10 527,-30 547,-30 547,-10 527,-10"/>
<text text-anchor="start" x="550.7258" y="-15.4" font-family="sans-serif" font-size="14.00" fill="#000000"> &#160;Exports</text>
<g id="clust1" class="cluster">
<title>cluster_FileModule</title>
<polygon fill="none" stroke="#000000" stroke-dasharray="1,5" points="8,-70 8,-268 730,-268 730,-70 8,-70"/>
</g>
<g id="clust2" class="cluster">
<title>cluster_FileModule_declarations</title>
<polygon fill="none" stroke="#000000" points="138,-78 138,-130 722,-130 722,-78 138,-78"/>
</g>
<g id="clust7" class="cluster">
<title>cluster_FileModule_imports</title>
<polygon fill="none" stroke="#000000" points="16,-78 16,-130 130,-130 130,-78 16,-78"/>
</g>
<g id="clust8" class="cluster">
<title>cluster_FileModule_exports</title>
<polygon fill="none" stroke="#000000" points="70,-208 70,-260 668,-260 668,-208 70,-208"/>
</g>
<!-- FileDropDirective -->
<g id="node1" class="node">
<title>FileDropDirective</title>
<polygon fill="#ffffb3" stroke="#000000" points="714.129,-122 595.871,-122 595.871,-86 714.129,-86 714.129,-122"/>
<text text-anchor="middle" x="655" y="-99.8" font-family="Times,serif" font-size="14.00" fill="#000000">FileDropDirective</text>
</g>
<!-- FileModule -->
<g id="node5" class="node">
<title>FileModule</title>
<polygon fill="#8dd3c7" stroke="#000000" points="408.8289,-187 405.8289,-191 384.8289,-191 381.8289,-187 327.1711,-187 327.1711,-151 408.8289,-151 408.8289,-187"/>
<text text-anchor="middle" x="368" y="-164.8" font-family="Times,serif" font-size="14.00" fill="#000000">FileModule</text>
</g>
<!-- FileDropDirective&#45;&gt;FileModule -->
<g id="edge1" class="edge">
<title>FileDropDirective&#45;&gt;FileModule</title>
<path fill="none" stroke="#000000" d="M627.875,-122.1061C627.875,-141.3391 627.875,-169 627.875,-169 627.875,-169 418.8913,-169 418.8913,-169"/>
<polygon fill="#000000" stroke="#000000" points="418.8914,-165.5001 408.8913,-169 418.8913,-172.5001 418.8914,-165.5001"/>
</g>
<!-- FileSelectDirective -->
<g id="node2" class="node">
<title>FileSelectDirective</title>
<polygon fill="#ffffb3" stroke="#000000" points="578.0688,-122 453.9312,-122 453.9312,-86 578.0688,-86 578.0688,-122"/>
<text text-anchor="middle" x="516" y="-99.8" font-family="Times,serif" font-size="14.00" fill="#000000">FileSelectDirective</text>
</g>
<!-- FileSelectDirective&#45;&gt;FileModule -->
<g id="edge2" class="edge">
<title>FileSelectDirective&#45;&gt;FileModule</title>
<path fill="none" stroke="#000000" d="M486.875,-122.027C486.875,-138.3976 486.875,-160 486.875,-160 486.875,-160 418.91,-160 418.91,-160"/>
<polygon fill="#000000" stroke="#000000" points="418.9101,-156.5001 408.91,-160 418.91,-163.5001 418.9101,-156.5001"/>
</g>
<!-- FilesCardComponent -->
<g id="node3" class="node">
<title>FilesCardComponent</title>
<polygon fill="#ffffb3" stroke="#000000" points="435.7674,-122 300.2326,-122 300.2326,-86 435.7674,-86 435.7674,-122"/>
<text text-anchor="middle" x="368" y="-99.8" font-family="Times,serif" font-size="14.00" fill="#000000">FilesCardComponent</text>
</g>
<!-- FilesCardComponent&#45;&gt;FileModule -->
<g id="edge3" class="edge">
<title>FilesCardComponent&#45;&gt;FileModule</title>
<path fill="none" stroke="#000000" d="M368,-122.1061C368,-122.1061 368,-140.991 368,-140.991"/>
<polygon fill="#000000" stroke="#000000" points="364.5001,-140.9909 368,-150.991 371.5001,-140.991 364.5001,-140.9909"/>
</g>
<!-- FilesPageComponent -->
<g id="node4" class="node">
<title>FilesPageComponent</title>
<polygon fill="#ffffb3" stroke="#000000" points="281.7674,-122 146.2326,-122 146.2326,-86 281.7674,-86 281.7674,-122"/>
<text text-anchor="middle" x="214" y="-99.8" font-family="Times,serif" font-size="14.00" fill="#000000">FilesPageComponent</text>
</g>
<!-- FilesPageComponent&#45;&gt;FileModule -->
<g id="edge4" class="edge">
<title>FilesPageComponent&#45;&gt;FileModule</title>
<path fill="none" stroke="#000000" d="M258.625,-122.027C258.625,-138.3976 258.625,-160 258.625,-160 258.625,-160 317.2728,-160 317.2728,-160"/>
<polygon fill="#000000" stroke="#000000" points="317.2728,-163.5001 327.2728,-160 317.2728,-156.5001 317.2728,-163.5001"/>
</g>
<!-- FileDropDirective  -->
<g id="node7" class="node">
<title>FileDropDirective </title>
<polygon fill="#fb8072" stroke="#000000" points="660.1285,-252 537.8715,-252 537.8715,-216 660.1285,-216 660.1285,-252"/>
<text text-anchor="middle" x="599" y="-229.8" font-family="Times,serif" font-size="14.00" fill="#000000">FileDropDirective </text>
</g>
<!-- FileModule&#45;&gt;FileDropDirective  -->
<g id="edge6" class="edge">
<title>FileModule&#45;&gt;FileDropDirective </title>
<path fill="none" stroke="#000000" stroke-dasharray="5,2" d="M408.7566,-178C464.5804,-178 557.9851,-178 557.9851,-178 557.9851,-178 557.9851,-205.973 557.9851,-205.973"/>
<polygon fill="#000000" stroke="#000000" points="554.4852,-205.973 557.9851,-215.973 561.4852,-205.973 554.4852,-205.973"/>
</g>
<!-- FileSelectDirective  -->
<g id="node8" class="node">
<title>FileSelectDirective </title>
<polygon fill="#fb8072" stroke="#000000" points="519.5695,-252 392.4305,-252 392.4305,-216 519.5695,-216 519.5695,-252"/>
<text text-anchor="middle" x="456" y="-229.8" font-family="Times,serif" font-size="14.00" fill="#000000">FileSelectDirective </text>
</g>
<!-- FileModule&#45;&gt;FileSelectDirective  -->
<g id="edge7" class="edge">
<title>FileModule&#45;&gt;FileSelectDirective </title>
<path fill="none" stroke="#000000" stroke-dasharray="5,2" d="M400.4399,-187.1061C400.4399,-187.1061 400.4399,-205.991 400.4399,-205.991"/>
<polygon fill="#000000" stroke="#000000" points="396.9399,-205.9909 400.4399,-215.991 403.9399,-205.991 396.9399,-205.9909"/>
</g>
<!-- FilesCardComponent  -->
<g id="node9" class="node">
<title>FilesCardComponent </title>
<polygon fill="#fb8072" stroke="#000000" points="374.7675,-252 235.2325,-252 235.2325,-216 374.7675,-216 374.7675,-252"/>
<text text-anchor="middle" x="305" y="-229.8" font-family="Times,serif" font-size="14.00" fill="#000000">FilesCardComponent </text>
</g>
<!-- FileModule&#45;&gt;FilesCardComponent  -->
<g id="edge8" class="edge">
<title>FileModule&#45;&gt;FilesCardComponent </title>
<path fill="none" stroke="#000000" stroke-dasharray="5,2" d="M350.9847,-187.1061C350.9847,-187.1061 350.9847,-205.991 350.9847,-205.991"/>
<polygon fill="#000000" stroke="#000000" points="347.4848,-205.9909 350.9847,-215.991 354.4848,-205.991 347.4848,-205.9909"/>
</g>
<!-- FilesPageComponent  -->
<g id="node10" class="node">
<title>FilesPageComponent </title>
<polygon fill="#fb8072" stroke="#000000" points="217.7675,-252 78.2325,-252 78.2325,-216 217.7675,-216 217.7675,-252"/>
<text text-anchor="middle" x="148" y="-229.8" font-family="Times,serif" font-size="14.00" fill="#000000">FilesPageComponent </text>
</g>
<!-- FileModule&#45;&gt;FilesPageComponent  -->
<g id="edge9" class="edge">
<title>FileModule&#45;&gt;FilesPageComponent </title>
<path fill="none" stroke="#000000" stroke-dasharray="5,2" d="M327.1541,-178C272.3651,-178 181.875,-178 181.875,-178 181.875,-178 181.875,-205.973 181.875,-205.973"/>
<polygon fill="#000000" stroke="#000000" points="178.3751,-205.973 181.875,-215.973 185.3751,-205.973 178.3751,-205.973"/>
</g>
<!-- SharedModule -->
<g id="node6" class="node">
<title>SharedModule</title>
<polygon fill="#8dd3c7" stroke="#000000" points="122.4231,-122 119.4231,-126 98.4231,-126 95.4231,-122 23.5769,-122 23.5769,-86 122.4231,-86 122.4231,-122"/>
<text text-anchor="middle" x="73" y="-99.8" font-family="Times,serif" font-size="14.00" fill="#000000">SharedModule</text>
</g>
<!-- SharedModule&#45;&gt;FileModule -->
<g id="edge5" class="edge">
<title>SharedModule&#45;&gt;FileModule</title>
<path fill="none" stroke="#000000" d="M100.2887,-122.1061C100.2887,-141.3391 100.2887,-169 100.2887,-169 100.2887,-169 317.049,-169 317.049,-169"/>
<polygon fill="#000000" stroke="#000000" points="317.049,-172.5001 327.049,-169 317.049,-165.5001 317.049,-172.5001"/>
</g>
</g>
</svg>
