<?xml version="1.0" encoding="UTF-8" standalone="no"?>
<!DOCTYPE svg PUBLIC "-//W3C//DTD SVG 1.1//EN"
 "http://www.w3.org/Graphics/SVG/1.1/DTD/svg11.dtd">
<!-- Generated by graphviz version 2.40.1 (20161225.0304)
 -->
<!-- Title: dependencies Pages: 1 -->
<svg width="598pt" height="284pt"
 viewBox="0.00 0.00 598.00 284.00" xmlns="http://www.w3.org/2000/svg" xmlns:xlink="http://www.w3.org/1999/xlink">
<g id="graph0" class="graph" transform="scale(1 1) rotate(0) translate(4 280)">
<title>dependencies</title>
<polygon fill="#ffffff" stroke="transparent" points="-4,4 -4,-280 594,-280 594,4 -4,4"/>
<text text-anchor="start" x="274.0091" y="-42.4" font-family="sans-serif" font-weight="bold" font-size="14.00" fill="#000000">Legend</text>
<polygon fill="#ffffb3" stroke="transparent" points="61,-10 61,-30 81,-30 81,-10 61,-10"/>
<text text-anchor="start" x="84.629" y="-15.4" font-family="sans-serif" font-size="14.00" fill="#000000"> &#160;Declarations</text>
<polygon fill="#8dd3c7" stroke="transparent" points="174,-10 174,-30 194,-30 194,-10 174,-10"/>
<text text-anchor="start" x="197.7251" y="-15.4" font-family="sans-serif" font-size="14.00" fill="#000000"> &#160;Module</text>
<polygon fill="#80b1d3" stroke="transparent" points="260,-10 260,-30 280,-30 280,-10 260,-10"/>
<text text-anchor="start" x="283.7812" y="-15.4" font-family="sans-serif" font-size="14.00" fill="#000000"> &#160;Bootstrap</text>
<polygon fill="#fdb462" stroke="transparent" points="357,-10 357,-30 377,-30 377,-10 357,-10"/>
<text text-anchor="start" x="380.6732" y="-15.4" font-family="sans-serif" font-size="14.00" fill="#000000"> &#160;Providers</text>
<polygon fill="#fb8072" stroke="transparent" points="453,-10 453,-30 473,-30 473,-10 453,-10"/>
<text text-anchor="start" x="476.7258" y="-15.4" font-family="sans-serif" font-size="14.00" fill="#000000"> &#160;Exports</text>
<g id="clust1" class="cluster">
<title>cluster_TableModule</title>
<polygon fill="none" stroke="#000000" stroke-dasharray="1,5" points="8,-70 8,-268 582,-268 582,-70 8,-70"/>
</g>
<g id="clust2" class="cluster">
<title>cluster_TableModule_declarations</title>
<polygon fill="none" stroke="#000000" points="138,-78 138,-130 574,-130 574,-78 138,-78"/>
</g>
<g id="clust6" class="cluster">
<title>cluster_TableModule_imports</title>
<polygon fill="none" stroke="#000000" points="16,-78 16,-130 130,-130 130,-78 16,-78"/>
</g>
<g id="clust7" class="cluster">
<title>cluster_TableModule_exports</title>
<polygon fill="none" stroke="#000000" points="73,-208 73,-260 517,-260 517,-208 73,-208"/>
</g>
<!-- ColumnDirective -->
<g id="node1" class="node">
<title>ColumnDirective</title>
<polygon fill="#ffffb3" stroke="#000000" points="565.7008,-122 452.2992,-122 452.2992,-86 565.7008,-86 565.7008,-122"/>
<text text-anchor="middle" x="509" y="-99.8" font-family="Times,serif" font-size="14.00" fill="#000000">ColumnDirective</text>
</g>
<!-- TableModule -->
<g id="node4" class="node">
<title>TableModule</title>
<polygon fill="#8dd3c7" stroke="#000000" points="340.9232,-187 337.9232,-191 316.9232,-191 313.9232,-187 249.0768,-187 249.0768,-151 340.9232,-151 340.9232,-187"/>
<text text-anchor="middle" x="295" y="-164.8" font-family="Times,serif" font-size="14.00" fill="#000000">TableModule</text>
</g>
<!-- ColumnDirective&#45;&gt;TableModule -->
<g id="edge1" class="edge">
<title>ColumnDirective&#45;&gt;TableModule</title>
<path fill="none" stroke="#000000" d="M480.875,-122.0225C480.875,-139.3734 480.875,-163 480.875,-163 480.875,-163 350.9466,-163 350.9466,-163"/>
<polygon fill="#000000" stroke="#000000" points="350.9467,-159.5001 340.9466,-163 350.9466,-166.5001 350.9467,-159.5001"/>
</g>
<!-- CustomTableComponent -->
<g id="node2" class="node">
<title>CustomTableComponent</title>
<polygon fill="#ffffb3" stroke="#000000" points="434.2674,-122 277.7326,-122 277.7326,-86 434.2674,-86 434.2674,-122"/>
<text text-anchor="middle" x="356" y="-99.8" font-family="Times,serif" font-size="14.00" fill="#000000">CustomTableComponent</text>
</g>
<!-- CustomTableComponent&#45;&gt;TableModule -->
<g id="edge2" class="edge">
<title>CustomTableComponent&#45;&gt;TableModule</title>
<path fill="none" stroke="#000000" d="M309.1638,-122.1061C309.1638,-122.1061 309.1638,-140.991 309.1638,-140.991"/>
<polygon fill="#000000" stroke="#000000" points="305.6638,-140.9909 309.1638,-150.991 312.6638,-140.991 305.6638,-140.9909"/>
</g>
<!-- TableComponent -->
<g id="node3" class="node">
<title>TableComponent</title>
<polygon fill="#ffffb3" stroke="#000000" points="259.705,-122 146.295,-122 146.295,-86 259.705,-86 259.705,-122"/>
<text text-anchor="middle" x="203" y="-99.8" font-family="Times,serif" font-size="14.00" fill="#000000">TableComponent</text>
</g>
<!-- TableComponent&#45;&gt;TableModule -->
<g id="edge3" class="edge">
<title>TableComponent&#45;&gt;TableModule</title>
<path fill="none" stroke="#000000" d="M254.4457,-122.1061C254.4457,-122.1061 254.4457,-140.991 254.4457,-140.991"/>
<polygon fill="#000000" stroke="#000000" points="250.9457,-140.9909 254.4457,-150.991 257.9457,-140.991 250.9457,-140.9909"/>
</g>
<!-- ColumnDirective  -->
<g id="node6" class="node">
<title>ColumnDirective </title>
<polygon fill="#fb8072" stroke="#000000" points="509.201,-252 392.799,-252 392.799,-216 509.201,-216 509.201,-252"/>
<text text-anchor="middle" x="451" y="-229.8" font-family="Times,serif" font-size="14.00" fill="#000000">ColumnDirective </text>
</g>
<!-- TableModule&#45;&gt;ColumnDirective  -->
<g id="edge5" class="edge">
<title>TableModule&#45;&gt;ColumnDirective </title>
<path fill="none" stroke="#000000" stroke-dasharray="5,2" d="M340.8216,-175C374.1722,-175 413.5167,-175 413.5167,-175 413.5167,-175 413.5167,-205.9775 413.5167,-205.9775"/>
<polygon fill="#000000" stroke="#000000" points="410.0167,-205.9774 413.5167,-215.9775 417.0167,-205.9775 410.0167,-205.9774"/>
</g>
<!-- CustomTableComponent  -->
<g id="node7" class="node">
<title>CustomTableComponent </title>
<polygon fill="#fb8072" stroke="#000000" points="375.2674,-252 214.7326,-252 214.7326,-216 375.2674,-216 375.2674,-252"/>
<text text-anchor="middle" x="295" y="-229.8" font-family="Times,serif" font-size="14.00" fill="#000000">CustomTableComponent </text>
</g>
<!-- TableModule&#45;&gt;CustomTableComponent  -->
<g id="edge6" class="edge">
<title>TableModule&#45;&gt;CustomTableComponent </title>
<path fill="none" stroke="#000000" stroke-dasharray="5,2" d="M295,-187.1061C295,-187.1061 295,-205.991 295,-205.991"/>
<polygon fill="#000000" stroke="#000000" points="291.5001,-205.9909 295,-215.991 298.5001,-205.991 291.5001,-205.9909"/>
</g>
<!-- TableComponent  -->
<g id="node8" class="node">
<title>TableComponent </title>
<polygon fill="#fb8072" stroke="#000000" points="197.2052,-252 80.7948,-252 80.7948,-216 197.2052,-216 197.2052,-252"/>
<text text-anchor="middle" x="139" y="-229.8" font-family="Times,serif" font-size="14.00" fill="#000000">TableComponent </text>
</g>
<!-- TableModule&#45;&gt;TableComponent  -->
<g id="edge7" class="edge">
<title>TableModule&#45;&gt;TableComponent </title>
<path fill="none" stroke="#000000" stroke-dasharray="5,2" d="M249.1528,-175C214.1466,-175 171.875,-175 171.875,-175 171.875,-175 171.875,-205.9775 171.875,-205.9775"/>
<polygon fill="#000000" stroke="#000000" points="168.3751,-205.9774 171.875,-215.9775 175.3751,-205.9775 168.3751,-205.9774"/>
</g>
<!-- SharedModule -->
<g id="node5" class="node">
<title>SharedModule</title>
<polygon fill="#8dd3c7" stroke="#000000" points="122.4231,-122 119.4231,-126 98.4231,-126 95.4231,-122 23.5769,-122 23.5769,-86 122.4231,-86 122.4231,-122"/>
<text text-anchor="middle" x="73" y="-99.8" font-family="Times,serif" font-size="14.00" fill="#000000">SharedModule</text>
</g>
<!-- SharedModule&#45;&gt;TableModule -->
<g id="edge4" class="edge">
<title>SharedModule&#45;&gt;TableModule</title>
<path fill="none" stroke="#000000" d="M101.4294,-122.0225C101.4294,-139.3734 101.4294,-163 101.4294,-163 101.4294,-163 239.1265,-163 239.1265,-163"/>
<polygon fill="#000000" stroke="#000000" points="239.1265,-166.5001 249.1265,-163 239.1264,-159.5001 239.1265,-166.5001"/>
</g>
</g>
</svg>
