<?xml version="1.0" encoding="UTF-8" standalone="no"?>
<svg
   xmlns:dc="http://purl.org/dc/elements/1.1/"
   xmlns:cc="http://creativecommons.org/ns#"
   xmlns:rdf="http://www.w3.org/1999/02/22-rdf-syntax-ns#"
   xmlns:svg="http://www.w3.org/2000/svg"
   xmlns="http://www.w3.org/2000/svg"
   xmlns:sodipodi="http://sodipodi.sourceforge.net/DTD/sodipodi-0.dtd"
   xmlns:inkscape="http://www.inkscape.org/namespaces/inkscape"
   width="19px"
   height="23px"
   viewBox="0 0 19 23"
   version="1.1"
   id="svg30"
   sodipodi:docname="bell.svg"
   inkscape:version="0.92.3 (2405546, 2018-03-11)">
  <metadata
     id="metadata34">
    <rdf:RDF>
      <cc:Work
         rdf:about="">
        <dc:format>image/svg+xml</dc:format>
        <dc:type
           rdf:resource="http://purl.org/dc/dcmitype/StillImage" />
      </cc:Work>
    </rdf:RDF>
  </metadata>
  <sodipodi:namedview
     pagecolor="#ffffff"
     bordercolor="#666666"
     borderopacity="1"
     objecttolerance="10"
     gridtolerance="10"
     guidetolerance="10"
     inkscape:pageopacity="0"
     inkscape:pageshadow="2"
     inkscape:window-width="1858"
     inkscape:window-height="1057"
     id="namedview32"
     showgrid="false"
     inkscape:zoom="38.608696"
     inkscape:cx="9.5"
     inkscape:cy="11.5"
     inkscape:window-x="54"
     inkscape:window-y="-8"
     inkscape:window-maximized="1"
     inkscape:current-layer="svg30" />
  <!-- Generator: Sketch 48.2 (47327) - http://www.bohemiancoding.com/sketch -->
  <desc
     id="desc23">Created with Sketch.</desc>
  <defs
     id="defs25" />
  <path
     style="color:#000000;font-style:normal;font-variant:normal;font-weight:normal;font-stretch:normal;font-size:medium;line-height:normal;font-family:sans-serif;font-variant-ligatures:normal;font-variant-position:normal;font-variant-caps:normal;font-variant-numeric:normal;font-variant-alternates:normal;font-feature-settings:normal;text-indent:0;text-align:start;text-decoration:none;text-decoration-line:none;text-decoration-style:solid;text-decoration-color:#000000;letter-spacing:normal;word-spacing:normal;text-transform:none;writing-mode:lr-tb;direction:ltr;text-orientation:mixed;dominant-baseline:auto;baseline-shift:baseline;text-anchor:start;white-space:normal;shape-padding:0;clip-rule:nonzero;display:inline;overflow:visible;visibility:visible;opacity:1;isolation:auto;mix-blend-mode:normal;color-interpolation:sRGB;color-interpolation-filters:linearRGB;solid-color:#000000;solid-opacity:1;vector-effect:none;fill:#a3afc6;fill-opacity:1;fill-rule:nonzero;stroke:none;stroke-width:0.80000001;stroke-linecap:butt;stroke-linejoin:miter;stroke-miterlimit:4;stroke-dasharray:none;stroke-dashoffset:0;stroke-opacity:1;color-rendering:auto;image-rendering:auto;shape-rendering:auto;text-rendering:auto;enable-background:accumulate"
     d="m 9.498047,0.9238281 c -1.190098,0 -2.1640626,0.9739637 -2.1640626,2.1640625 V 4.4492188 C 4.782659,5.3546575 2.921875,7.7328684 2.921875,10.587891 v 2.21289 c 0,1.287197 -0.3501272,2.548869 -1.0117188,3.652345 l -1.515625,2.525391 c -0.1572159,0.260309 -0.1600884,0.584737 -0.011719,0.847656 0.1495208,0.26369 0.4298499,0.425781 0.7324219,0.425781 h 5.7851562 c -2.014e-4,0.01667 -0.00789,0.02596 -0.00781,0.04297 0.00111,1.432607 1.1725757,2.605469 2.6054687,2.605469 1.433542,0 2.605302,-1.172297 2.607422,-2.605469 v -0.002 c 0,-0.01451 -0.01148,-0.02652 -0.01172,-0.04102 h 5.787109 c 0.302497,0 0.582905,-0.161874 0.732422,-0.425781 v -0.002 c 0.148258,-0.26282 0.145477,-0.585371 -0.01172,-0.845703 L 18.484375,18.78506 17.085938,16.453029 C 16.424346,15.34965 16.074219,14.087978 16.074219,12.800781 v -2.21289 c 0,-2.8550226 -1.860784,-5.2332335 -4.41211,-6.1386722 V 3.0878906 c 0,-1.1900987 -0.973963,-2.1640625 -2.164062,-2.1640625 z m 0,1.6816407 c 0.270636,0 0.482422,0.2117856 0.482422,0.4824218 V 4.109375 C 9.812698,4.096447 9.669034,4.011719 9.498047,4.011719 c -0.170987,0 -0.314651,0.084729 -0.482422,0.097656 V 3.0878906 c 0,-0.2706356 0.211787,-0.4824218 0.482422,-0.4824218 z m 0,3.0878906 c 2.702812,0 4.894531,2.1917189 4.894531,4.8945316 v 2.21289 c 0,1.59187 0.431861,3.15309 1.25,4.517579 l 0.751953,1.251953 H 2.6015625 l 0.75,-1.251953 c 0.8190933,-1.364563 1.2519531,-2.925709 1.2519531,-4.517579 v -2.21289 c 0,-2.7028126 2.1917199,-4.8945316 4.8945314,-4.8945316 z M 8.576172,20.251995 h 1.833984 c 7.43e-4,0.01443 0.01172,0.02673 0.01172,0.04102 0,0.512712 -0.411116,0.923828 -0.923828,0.923828 -0.512712,0 -0.921875,-0.411117 -0.921875,-0.923828 z"
     id="Combined-Shape-7"
     inkscape:connector-curvature="0"
     sodipodi:nodetypes="sscsscccsccscscscccccsscsssscscsssssccccsssccsscc" />
</svg>
