<?xml version="1.0" encoding="UTF-8" standalone="no"?>
<svg
   xmlns:dc="http://purl.org/dc/elements/1.1/"
   xmlns:cc="http://creativecommons.org/ns#"
   xmlns:rdf="http://www.w3.org/1999/02/22-rdf-syntax-ns#"
   xmlns:svg="http://www.w3.org/2000/svg"
   xmlns="http://www.w3.org/2000/svg"
   xmlns:xlink="http://www.w3.org/1999/xlink"
   xmlns:sodipodi="http://sodipodi.sourceforge.net/DTD/sodipodi-0.dtd"
   xmlns:inkscape="http://www.inkscape.org/namespaces/inkscape"
   width="20"
   height="20"
   viewBox="0 0 20 20"
   version="1.1"
   id="svg864"
   sodipodi:docname="check-square-2.svg"
   inkscape:version="0.92.3 (2405546, 2018-03-11)">
  <metadata
     id="metadata868">
    <rdf:RDF>
      <cc:Work
         rdf:about="">
        <dc:format>image/svg+xml</dc:format>
        <dc:type
           rdf:resource="http://purl.org/dc/dcmitype/StillImage" />
        <dc:title></dc:title>
      </cc:Work>
    </rdf:RDF>
  </metadata>
  <sodipodi:namedview
     pagecolor="#ffffff"
     bordercolor="#666666"
     borderopacity="1"
     objecttolerance="10"
     gridtolerance="10"
     guidetolerance="10"
     inkscape:pageopacity="0"
     inkscape:pageshadow="2"
     inkscape:window-width="1858"
     inkscape:window-height="1057"
     id="namedview866"
     showgrid="false"
     inkscape:zoom="44.4"
     inkscape:cx="10.506393"
     inkscape:cy="10.242012"
     inkscape:window-x="54"
     inkscape:window-y="-8"
     inkscape:window-maximized="1"
     inkscape:current-layer="svg864" />
  <defs
     id="defs853">
    <path
       id="a"
       d="M.029.095v19.81H19.81V.096z" />
  </defs>
  <g
     id="g862"
     transform="translate(0.13513514,0.02252252)"
     style="fill:#0000ff;fill-rule:evenodd">
    <mask
       id="b"
       fill="#fff">
      <use
         xlink:href="#a"
         id="use855"
         x="0"
         y="0"
         width="100%"
         height="100%" />
    </mask>
    <path
       style="fill:#0000ff"
       mask="url(#b)"
       d="M 3.3203125 0.1171875 A 3.186 3.186 0 0 0 0.13476562 3.3027344 L 0.13476562 16.742188 A 3.187 3.187 0 0 0 3.3203125 19.927734 L 16.759766 19.927734 L 16.759766 19.929688 A 3.187 3.187 0 0 0 19.945312 16.742188 L 19.945312 3.3027344 A 3.187 3.187 0 0 0 16.759766 0.1171875 L 3.3203125 0.1171875 z M 16.636719 4.3085938 A 1.094 1.094 0 0 1 17.308594 4.5742188 C 17.768594 4.9692187 17.821781 5.6581875 17.425781 6.1171875 L 9.9238281 14.873047 C 9.7038281 15.125047 9.3998437 15.257812 9.0898438 15.257812 C 8.8598437 15.257812 8.6286406 15.181109 8.4316406 15.037109 L 3.4296875 11.279297 A 1.094 1.094 0 0 1 4.7421875 9.5332031 L 8.9238281 12.669922 L 15.763672 4.6914062 A 1.094 1.094 0 0 1 16.636719 4.3085938 z "
       transform="translate(-0.13513514,-0.02252252)"
       id="path858" />
  </g>
</svg>
