<svg xmlns="http://www.w3.org/2000/svg" width="24" height="24" viewBox="0 0 24 24">
    <g fill="#5D6D8B" fill-rule="nonzero">
        <path d="M22.64 1.358a1.204 1.204 0 0 0-1.652.027L9.794 12.472l-.211-.202a.802.802 0 0 0-1.101 0 .72.72 0 0 0-.155.832c-.39-.138-.8-.22-1.223-.22-.937 0-1.837.357-2.5.993l-3.443 3.3a.518.518 0 0 0 0 .747l.645.618 3.365-2.443-2.549 3.225 1.54 1.475 2.11-1.533-1.599 2.023.71.681a.57.57 0 0 0 .781 0l3.442-3.3a3.282 3.282 0 0 0 .81-3.565.794.794 0 0 0 .866-.15.724.724 0 0 0 0-1.056l-.211-.202L22.64 2.968c.476-.47.463-1.18 0-1.61zM1.46 9.59a.095.095 0 0 0 .031.112.102.102 0 0 0 .12.004l1.572-1.07 1.782.7c.042.017.09.005.118-.029a.092.092 0 0 0 .004-.116L3.97 7.685l.73-1.708a.095.095 0 0 0-.03-.112.102.102 0 0 0-.12-.004l-1.572 1.07-1.783-.7a.104.104 0 0 0-.117.029.093.093 0 0 0-.004.116L2.191 7.88l-.73 1.709zM17.89 15.668l-1.295-.092-.613-1.098a.102.102 0 0 0-.11-.049.097.097 0 0 0-.08.087l-.095 1.242-1.146.587a.095.095 0 0 0-.05.105.099.099 0 0 0 .09.076l1.295.092.613 1.098a.102.102 0 0 0 .11.049.098.098 0 0 0 .08-.087l.096-1.242 1.145-.587a.094.094 0 0 0 .051-.105.099.099 0 0 0-.09-.076zM8.653 3.18l-.04.69a.097.097 0 0 0 .068.097c.042.014.09 0 .115-.035l.419-.563.72.038a.101.101 0 0 0 .1-.064.094.094 0 0 0-.036-.11l-.587-.402.04-.69a.096.096 0 0 0-.068-.097.103.103 0 0 0-.115.035l-.42.563-.72-.037a.101.101 0 0 0-.1.064c-.015.04 0 .086.037.11l.587.402z"/>
    </g>
</svg>
