<svg xmlns="http://www.w3.org/2000/svg" width="15" height="16" viewBox="0 0 15 16">
    <path fill="#A3AFC6" fill-rule="nonzero" d="M14.516 2.623a1.097 1.097 0 0 0-.803-.339h-1.142v-.856c0-.393-.14-.729-.42-1.009C11.873.14 11.537 0 11.144 0h-.57c-.393 0-.73.14-1.009.42-.28.279-.42.615-.42 1.008v.856H5.72v-.856c0-.393-.14-.729-.42-1.009C5.02.14 4.685 0 4.292 0h-.57c-.393 0-.73.14-1.009.42-.28.279-.42.615-.42 1.008v.856H1.152c-.31 0-.577.113-.803.34-.226.225-.34.493-.34.802v11.42c0 .31.114.577.34.804.226.226.493.339.803.339h12.562c.31 0 .577-.113.803-.34.226-.225.339-.493.339-.802V3.427c0-.31-.113-.578-.339-.804zM3.72 14.846H1.15v-2.57h2.57v2.57zm0-3.14H1.15V8.85h2.57v2.855zm0-3.426H1.15V5.71h2.57v2.57zm-.2-4.082a.274.274 0 0 1-.085-.2v-2.57c0-.078.028-.145.085-.201a.274.274 0 0 1 .2-.085h.571c.078 0 .145.028.201.085a.274.274 0 0 1 .085.2v2.57a.275.275 0 0 1-.085.2.274.274 0 0 1-.2.086H3.72a.274.274 0 0 1-.2-.085zm3.626 10.648H4.291v-2.57h2.855v2.57zm0-3.14H4.291V8.85h2.855v2.855zm0-3.426H4.291V5.71h2.855v2.57zm3.427 6.567H7.717v-2.57h2.856v2.57zm0-3.141H7.717V8.85h2.856v2.855zm0-3.426H7.717V5.71h2.856v2.57zm-.201-4.082a.274.274 0 0 1-.085-.2v-2.57c0-.078.028-.145.085-.201a.274.274 0 0 1 .2-.085h.571c.078 0 .145.028.201.085a.274.274 0 0 1 .085.2v2.57a.274.274 0 0 1-.085.2.274.274 0 0 1-.2.086h-.571a.274.274 0 0 1-.201-.085zm3.34 10.648h-2.569v-2.57h2.57v2.57zm0-3.14h-2.569V8.85h2.57v2.855zm0-3.426h-2.569V5.71h2.57v2.57z"/>
</svg>
