<svg xmlns="http://www.w3.org/2000/svg" width="16" height="16" viewBox="0 0 16 16">
    <g fill="#45ADFF" fill-rule="nonzero">
        <path d="M8.006 15.985h5.891c.607 0 1.099-.446 1.099-.996V.996c0-.55-.492-.996-1.099-.996h-7.85v.33c.005.033.007.07.007.105v2.727c0 .774-.694 1.403-1.548 1.403h-3.01a1.62 1.62 0 0 1-.095-.004h-.382v10.428c0 .55.492.996 1.099.996h5.888zm.222-3.385h-3.84c-.287 0-.52-.21-.52-.47s.233-.47.52-.47H8.23c.286 0 .519.21.519.47s-.235.47-.522.47zm3.843-2.401H4.388c-.287 0-.52-.211-.52-.471s.233-.47.52-.47h7.683c.287 0 .52.21.52.47s-.233.47-.52.47zM4.388 6.707h7.683c.287 0 .52.21.52.47s-.233.471-.52.471H4.388c-.287 0-.52-.21-.52-.47s.233-.471.52-.471z"/>
        <path d="M1.496 4H4.515c.502-.004.91-.373.913-.828V.434c0-.251-.228-.419-.465-.419A.475.475 0 0 0 4.64.14L1.17 3.285c-.292.263-.086.715.327.715z"/>
    </g>
</svg>
