<?xml version="1.0" encoding="UTF-8"?>
<svg width="24px" height="24px" viewBox="0 0 24 24" version="1.1" xmlns="http://www.w3.org/2000/svg" xmlns:xlink="http://www.w3.org/1999/xlink">
    <!-- Generator: Sketch 52.6 (67491) - http://www.bohemiancoding.com/sketch -->
    <title>Mask</title>
    <desc>Created with Sketch.</desc>
    <defs>
        <path d="M11.2389549,1 L1.42517815,1 C1.2517324,1 1.0157245,1.28804974 1.00075017,1.73634204 L12.1723891,1.73634204 C11.9470587,1.26109248 11.5837612,1 11.2389549,1 Z M13.1344418,1.43942993 L13.6731591,2.73634204 L8.8817842e-15,2.73634204 L8.8817842e-15,1.78147268 C8.8817842e-15,0.798099762 0.63847981,0 1.42517815,0 L11.2389549,0 C12.0342043,0 12.7667458,0.555819477 13.1344418,1.43942993 Z M1,7 L1,22.2480047 C1,22.7029893 1.24175317,23 1.42602439,23 L22.5739661,23 C22.7582373,23 22.9999905,22.7029893 22.9999905,22.2480047 L22.9999948,7.74904627 C23.001331,7.29598216 22.7607511,7 22.5768181,7 L1,7 Z M22.5768181,6 C23.3639836,6 24.0028425,6.78489391 23.9999905,7.75199533 L23.9999905,22.2480047 C23.9999905,23.2151411 23.3611316,24 22.5739661,24 L1.42602439,24 C0.638858927,24 8.8817842e-15,23.2151411 8.8817842e-15,22.2480047 L8.8817842e-15,6 L22.5768181,6 Z" id="path-1"></path>
    </defs>
    <g id="Symbols" stroke="none" stroke-width="1" fill="none" fill-rule="evenodd">
        <g id="Artboard">
            <mask id="mask-2" fill="white">
                <use xlink:href="#path-1"></use>
            </mask>
            <use id="Mask" fill="#FFFFFF" fill-rule="nonzero" xlink:href="#path-1"></use>
        </g>
    </g>
</svg>