<svg xmlns="http://www.w3.org/2000/svg" width="16" height="14" viewBox="0 0 16 14">
    <path fill="#000" fill-rule="nonzero" d="M9.13 11.623c.242-.205 1.827-1.503 2.303-1.91 2.602-2.22 3.9-3.92 3.9-5.529C15.333 2.44 13.825 1 11.964 1 10.2 1 8.9 1.939 8.642 2.855c-.188.664-1.135.642-1.291-.03C7.168 2.043 5.619 1 4.036 1 2.156 1 .666 2.422.666 4.184c0 .2.024.407.07.619C1.05 6.25 2.349 7.847 4.595 9.81c-.252-.22 2.185 1.81 3.359 2.884.296-.307.679-.652 1.175-1.071zM7.59 1.925c-.1.185-.177.375-.232.568l.59.014c.022.057.04.113.052.167a1.69 1.69 0 0 1 .056-.165l.593.014a2.25 2.25 0 0 0-.247-.61c.59-.775 1.767-1.58 3.562-1.58C14.187.333 16 2.063 16 4.184c0 3.902-6.578 7.481-8 9.483-1.511-1.798-8-5.717-8-9.483C0 2.047 1.796.334 4.036.334c1.588 0 2.906.803 3.554 1.59z"/>
</svg>
