<svg xmlns="http://www.w3.org/2000/svg" width="17" height="15" viewBox="0 0 17 15">
    <path fill="#4A4A4A" fill-rule="nonzero" d="M14.144 4.77l2.758-1.532-.609-.329L11.26.167 8.487 1.68 5.638.13 0 3.197l.6.338 2.198 1.221-.026.013H2.77v.002L.048 6.254 2.77 7.716v3.677l5.68 2.829 5.68-2.829V7.726l2.745-1.473-2.731-1.483zM11.26 1.033l4.061 2.211-1.965 1.094L9.248 2.13l2.012-1.098zM1.575 3.204L5.637.994l2.014 1.097-4.11 2.208-1.966-1.095zm.069 3.046l2.012-1.1L7.76 7.37 5.752 8.455 1.644 6.25zm1.887 4.67V8.127L5.76 9.323 8.07 8.039v5.14l-4.54-2.26zm9.84 0l-4.538 2.259V8.032l2.322 1.291 2.217-1.19v2.787zm1.904-4.672l-4.11 2.207L9.19 7.37l4.066-2.22 2.018 1.098z"/>
</svg>
