<?xml version="1.0" encoding="UTF-8" standalone="no"?>
<svg
   xmlns:dc="http://purl.org/dc/elements/1.1/"
   xmlns:cc="http://creativecommons.org/ns#"
   xmlns:rdf="http://www.w3.org/1999/02/22-rdf-syntax-ns#"
   xmlns:svg="http://www.w3.org/2000/svg"
   xmlns="http://www.w3.org/2000/svg"
   xmlns:sodipodi="http://sodipodi.sourceforge.net/DTD/sodipodi-0.dtd"
   xmlns:inkscape="http://www.inkscape.org/namespaces/inkscape"
   width="48"
   height="48"
   viewBox="0 0 48 48"
   version="1.1"
   id="svg979"
   sodipodi:docname="supplier.svg"
   inkscape:version="0.92.3 (2405546, 2018-03-11)">
  <metadata
     id="metadata985">
    <rdf:RDF>
      <cc:Work
         rdf:about="">
        <dc:format>image/svg+xml</dc:format>
        <dc:type
           rdf:resource="http://purl.org/dc/dcmitype/StillImage" />
      </cc:Work>
    </rdf:RDF>
  </metadata>
  <defs
     id="defs983" />
  <sodipodi:namedview
     pagecolor="#ffffff"
     bordercolor="#666666"
     borderopacity="1"
     objecttolerance="10"
     gridtolerance="10"
     guidetolerance="10"
     inkscape:pageopacity="0"
     inkscape:pageshadow="2"
     inkscape:window-width="1858"
     inkscape:window-height="1057"
     id="namedview981"
     showgrid="false"
     inkscape:zoom="4.9166667"
     inkscape:cx="24"
     inkscape:cy="24"
     inkscape:window-x="54"
     inkscape:window-y="-8"
     inkscape:window-maximized="1"
     inkscape:current-layer="svg979" />
  <g
     fill="none"
     fill-rule="evenodd"
     id="g977">
    <g
       fill="#A3AFC6"
       fill-rule="nonzero"
       id="g975">
      <path
         d="M19.162 12h-6.469a.693.693 0 0 0-.693.693v1.617h7.855v-1.617a.693.693 0 0 0-.693-.693zM35.31 18.607a.693.693 0 0 0-.695.003l-6.858 4.01v-3.412a.693.693 0 0 0-1.043-.598l-6.859 4.01v-6.923H12v19.268c0 .383.31.693.693.693h22.272c.383 0 .693-.31.693-.693V19.208a.693.693 0 0 0-.348-.6zM22.628 30.783c0 .383-.31.693-.693.693h-2.773a.693.693 0 0 1-.693-.693v-2.772c0-.383.31-.693.693-.693h2.773c.382 0 .693.31.693.693v2.772zm7.901 0c0 .383-.31.693-.693.693h-2.772a.693.693 0 0 1-.694-.693v-2.772c0-.383.31-.693.694-.693h2.772c.383 0 .693.31.693.693v2.772z"
         id="path973" />
    </g>
  </g>
</svg>
