<svg xmlns="http://www.w3.org/2000/svg" width="24" height="24" viewBox="0 0 24 24">
    <g fill="#5D6D8B" fill-rule="nonzero" transform="translate(3 4)">
        <circle cx="9" cy="2.241" r="2.241"/>
        <path d="M12.357 10.574l-.508-3.962a1.116 1.116 0 0 0-1.114-1.009h-.614a.564.564 0 0 0-.397.164L9 6.49l-.724-.724a.564.564 0 0 0-.397-.164h-.613c-.578 0-1.058.434-1.114.994l-.51 3.978a.559.559 0 0 0 .556.631h.606l.468 5.716a1.117 1.117 0 0 0 1.115 1.008h1.227a1.12 1.12 0 0 0 1.116-1.019l.468-5.705h.604a.559.559 0 0 0 .555-.632z"/>
        <circle cx="14.603" cy="2.241" r="2.241"/>
        <path d="M3.397 0a2.244 2.244 0 0 0-2.241 2.241 2.244 2.244 0 0 0 2.24 2.242A2.244 2.244 0 0 0 5.639 2.24 2.244 2.244 0 0 0 3.397.001zM17.96 10.574l-.508-3.961a1.116 1.116 0 0 0-1.114-1.01h-.614a.564.564 0 0 0-.397.164l-.724.724-.724-.724a.564.564 0 0 0-.395-.164h-.615c-.069 0-.132.025-.198.037.145.256.258.533.291.843l.508 3.95c.063.48-.087.964-.41 1.328a1.624 1.624 0 0 1-.556.395l.372 3.645a1.117 1.117 0 0 0 1.115 1.009h1.227a1.12 1.12 0 0 0 1.116-1.02l.467-4.584h.604a.559.559 0 0 0 .555-.632zM4.937 11.756a1.678 1.678 0 0 1-.406-1.322l.51-3.979c.029-.298.139-.567.279-.816-.063-.011-.122-.036-.188-.036h-.615a.564.564 0 0 0-.396.164l-.724.724-.724-.724a.564.564 0 0 0-.396-.164h-.614c-.578 0-1.058.434-1.114.994l-.51 3.978a.559.559 0 0 0 .556.631H1.2l.469 4.595a1.117 1.117 0 0 0 1.115 1.009H4.01a1.12 1.12 0 0 0 1.116-1.02l.372-3.636a1.68 1.68 0 0 1-.562-.398z"/>
    </g>
</svg>
