<svg xmlns="http://www.w3.org/2000/svg" width="15" height="15" viewBox="0 0 15 15">
    <path fill="#000" fill-rule="nonzero" d="M1.25 5.182v8.212h1.74V5.182H1.25zm1.866-.667c.274 0 .498.214.498.477v8.591a.488.488 0 0 1-.498.478H1.123a.488.488 0 0 1-.498-.478v-8.59c0-.264.224-.478.498-.478h1.993zm1.721 7.546h6.86c.536 0 .885-.617.634-1.077l-.306-.56.516-.341a.744.744 0 0 0 .239-.958l-.306-.56.516-.342a.744.744 0 0 0 .239-.957l-.306-.56.516-.342c.527-.35.349-1.234-.286-1.345.026.004-.963.002-1.627.004a871.478 871.478 0 0 0-1.478.004h-.25l-.908.004.32-.906.473-1.335c.26-.736.03-1.716-.493-2.005-.185-.102-.442-.144-.603-.102a.124.124 0 0 0-.072.054.898.898 0 0 0-.03.193l-.003.024a3.557 3.557 0 0 1-.977 2.086c-.254.257-.706.693-1.304 1.262l-.035.033a304.687 304.687 0 0 1-1.329 1.257v6.469zm5.43-9.036l-.472 1.336.43-.002h.239c.99-.003 2.738-.007 2.79.002 1.197.21 1.54 1.89.515 2.57.348.636.145 1.465-.45 1.859.348.636.145 1.465-.448 1.859.498.912-.164 2.079-1.174 2.078H4.212V5.29s2.166-2.03 2.863-2.734c.4-.404.658-.941.762-1.507.04-.223.029-.458.144-.659a.752.752 0 0 1 .457-.355c.333-.087.745-.005 1.04.158.905.501 1.116 1.91.79 2.832z"/>
</svg>
