<svg xmlns="http://www.w3.org/2000/svg" width="15" height="15" viewBox="0 0 15 15">
    <path fill="#000" fill-rule="nonzero" d="M13.75 8.879V.667h-1.74v8.212h1.74zm-1.866.666a.489.489 0 0 1-.498-.477V.478c0-.264.223-.478.498-.478h1.993c.275 0 .498.214.498.477v8.591a.489.489 0 0 1-.498.477h-1.993zM10.163 2h-6.86c-.536 0-.885.617-.634 1.076l.306.56-.516.342a.744.744 0 0 0-.239.957l.306.56-.516.342a.744.744 0 0 0-.239.958l.306.56-.516.342c-.527.35-.349 1.234.286 1.345-.026-.005.963-.003 1.627-.004a871.152 871.152 0 0 0 1.478-.004h.25l.908-.004-.32.905-.473 1.336c-.26.736-.03 1.716.493 2.004.185.102.442.145.603.103a.124.124 0 0 0 .072-.054.898.898 0 0 0 .03-.193l.003-.024a3.557 3.557 0 0 1 .977-2.086c.254-.257.706-.694 1.304-1.263l.035-.033a304.678 304.678 0 0 1 1.329-1.256V2zm-5.11 8.13l.152-.43-.43.001-.239.001c-.99.003-2.738.007-2.79-.002C.55 9.49.206 7.81 1.231 7.13c-.348-.636-.145-1.465.45-1.859-.348-.636-.145-1.466.448-1.86-.498-.91.164-2.078 1.174-2.078h7.485V8.77s-2.166 2.03-2.863 2.735a2.88 2.88 0 0 0-.762 1.507c-.04.223-.029.457-.144.659a.752.752 0 0 1-.457.355c-.333.086-.745.004-1.04-.159-.905-.5-1.116-1.91-.79-2.832l.237-.668.084-.238z"/>
</svg>
