<svg xmlns="http://www.w3.org/2000/svg" width="16" height="16" viewBox="0 0 16 16">
    <g fill="none" fill-rule="nonzero" style="transform-origin: right bottom;
transform: rotate(90deg) translate(0, -100%) rotate(90deg) scale(-1,1) translate(-100%,100%);">
        <circle cx="8" cy="8" r="8" fill="#ec495d"/>
        <g fill="#FFF">
            <path d="M5.461 6.425H4.292c-.16 0-.292.117-.292.26v4.678c0 .144.131.26.292.26h1.17c.16 0 .292-.116.292-.26V6.685c0-.143-.132-.26-.293-.26zM11.409 6.374c-.043-.006-2.03 0-2.03 0l.278-.727c.192-.502.068-1.269-.464-1.542a.944.944 0 0 0-.61-.086.438.438 0 0 0-.268.193c-.067.11-.06.238-.084.36-.06.307-.212.6-.447.82-.409.383-1.68 1.489-1.68 1.489v4.049h4.392c.592 0 .98-.635.688-1.132a.749.749 0 0 0 .264-1.012.749.749 0 0 0 .263-1.012c.601-.37.4-1.285-.302-1.4z"/>
        </g>
    </g>
</svg>
