<?xml version="1.0" encoding="UTF-8" standalone="no"?>
<svg
   xmlns:dc="http://purl.org/dc/elements/1.1/"
   xmlns:cc="http://creativecommons.org/ns#"
   xmlns:rdf="http://www.w3.org/1999/02/22-rdf-syntax-ns#"
   xmlns:svg="http://www.w3.org/2000/svg"
   xmlns="http://www.w3.org/2000/svg"
   xmlns:sodipodi="http://sodipodi.sourceforge.net/DTD/sodipodi-0.dtd"
   xmlns:inkscape="http://www.inkscape.org/namespaces/inkscape"
   width="16"
   height="16"
   viewBox="0 0 16 16"
   version="1.1"
   id="svg2377"
   sodipodi:docname="thumbs-up-background.svg"
   inkscape:version="0.92.3 (2405546, 2018-03-11)">
  <metadata
     id="metadata2383">
    <rdf:RDF>
      <cc:Work
         rdf:about="">
        <dc:format>image/svg+xml</dc:format>
        <dc:type
           rdf:resource="http://purl.org/dc/dcmitype/StillImage" />
      </cc:Work>
    </rdf:RDF>
  </metadata>
  <defs
     id="defs2381" />
  <sodipodi:namedview
     pagecolor="#ffffff"
     bordercolor="#666666"
     borderopacity="1"
     objecttolerance="10"
     gridtolerance="10"
     guidetolerance="10"
     inkscape:pageopacity="0"
     inkscape:pageshadow="2"
     inkscape:window-width="1858"
     inkscape:window-height="1057"
     id="namedview2379"
     showgrid="false"
     inkscape:zoom="14.75"
     inkscape:cx="8"
     inkscape:cy="8"
     inkscape:window-x="54"
     inkscape:window-y="-8"
     inkscape:window-maximized="1"
     inkscape:current-layer="svg2377" />
  <g
     fill="none"
     fill-rule="nonzero"
     id="g2375">
    <path
       d="M 8 0 A 8 8 0 0 0 0 8 A 8 8 0 0 0 8 16 A 8 8 0 0 0 16 8 A 8 8 0 0 0 8 0 z M 8.7382812 4.0019531 A 0.944 0.944 0 0 1 9.1933594 4.1054688 C 9.7253594 4.3784688 9.84825 5.1444844 9.65625 5.6464844 L 9.3789062 6.3730469 C 9.3789063 6.3730469 11.365203 6.3670469 11.408203 6.3730469 C 12.110203 6.4880469 12.311937 7.4034375 11.710938 7.7734375 A 0.749 0.749 0 0 1 11.447266 8.7851562 A 0.749 0.749 0 0 1 11.183594 9.7988281 C 11.475594 10.295828 11.088094 10.929688 10.496094 10.929688 L 6.1035156 10.929688 L 6.1035156 6.8808594 C 6.1035156 6.8808594 7.3742031 5.7755781 7.7832031 5.3925781 C 8.0182031 5.1725781 8.1704687 4.8792656 8.2304688 4.5722656 C 8.2544687 4.4502656 8.2474531 4.3228906 8.3144531 4.2128906 A 0.438 0.438 0 0 1 8.5820312 4.0195312 A 0.944 0.944 0 0 1 8.7382812 4.0019531 z M 4.2929688 6.4257812 L 5.4609375 6.4257812 C 5.6219375 6.4257813 5.7539062 6.5425469 5.7539062 6.6855469 L 5.7539062 11.363281 C 5.7539062 11.507281 5.6228906 11.623047 5.4628906 11.623047 L 4.2929688 11.623047 C 4.1319688 11.623047 4 11.507281 4 11.363281 L 4 6.6855469 C 4 6.5425469 4.1329687 6.4257812 4.2929688 6.4257812 z "
       id="circle2369"
       style="fill:#71e591;fill-opacity:1" />
    <g
       fill="#FFF"
       id="g2373" />
  </g>
</svg>
