<?xml version="1.0" encoding="UTF-8" standalone="no"?>
<!DOCTYPE svg PUBLIC "-//W3C//DTD SVG 1.1//EN"
 "http://www.w3.org/Graphics/SVG/1.1/DTD/svg11.dtd">
<!-- Generated by graphviz version 2.40.1 (20161225.0304)
 -->
<!-- Title: dependencies Pages: 1 -->
<svg width="6635pt" height="284pt"
 viewBox="0.00 0.00 6635.00 284.00" xmlns="http://www.w3.org/2000/svg" xmlns:xlink="http://www.w3.org/1999/xlink">
<g id="graph0" class="graph" transform="scale(1 1) rotate(0) translate(4 280)">
<title>dependencies</title>
<polygon fill="#ffffff" stroke="transparent" points="-4,4 -4,-280 6631,-280 6631,4 -4,4"/>
<text text-anchor="start" x="3292.5091" y="-42.4" font-family="sans-serif" font-weight="bold" font-size="14.00" fill="#000000">Legend</text>
<polygon fill="#ffffb3" stroke="transparent" points="3079.5,-10 3079.5,-30 3099.5,-30 3099.5,-10 3079.5,-10"/>
<text text-anchor="start" x="3103.129" y="-15.4" font-family="sans-serif" font-size="14.00" fill="#000000"> &#160;Declarations</text>
<polygon fill="#8dd3c7" stroke="transparent" points="3192.5,-10 3192.5,-30 3212.5,-30 3212.5,-10 3192.5,-10"/>
<text text-anchor="start" x="3216.2251" y="-15.4" font-family="sans-serif" font-size="14.00" fill="#000000"> &#160;Module</text>
<polygon fill="#80b1d3" stroke="transparent" points="3278.5,-10 3278.5,-30 3298.5,-30 3298.5,-10 3278.5,-10"/>
<text text-anchor="start" x="3302.2812" y="-15.4" font-family="sans-serif" font-size="14.00" fill="#000000"> &#160;Bootstrap</text>
<polygon fill="#fdb462" stroke="transparent" points="3375.5,-10 3375.5,-30 3395.5,-30 3395.5,-10 3375.5,-10"/>
<text text-anchor="start" x="3399.1732" y="-15.4" font-family="sans-serif" font-size="14.00" fill="#000000"> &#160;Providers</text>
<polygon fill="#fb8072" stroke="transparent" points="3471.5,-10 3471.5,-30 3491.5,-30 3491.5,-10 3471.5,-10"/>
<text text-anchor="start" x="3495.2258" y="-15.4" font-family="sans-serif" font-size="14.00" fill="#000000"> &#160;Exports</text>
<g id="clust1" class="cluster">
<title>cluster_ProductModule</title>
<polygon fill="none" stroke="#000000" stroke-dasharray="1,5" points="8,-70 8,-268 6619,-268 6619,-70 8,-70"/>
</g>
<g id="clust2" class="cluster">
<title>cluster_ProductModule_declarations</title>
<polygon fill="none" stroke="#000000" points="2305,-78 2305,-130 6611,-130 6611,-78 2305,-78"/>
</g>
<g id="clust25" class="cluster">
<title>cluster_ProductModule_imports</title>
<polygon fill="none" stroke="#000000" points="700,-78 700,-130 2297,-130 2297,-78 700,-78"/>
</g>
<g id="clust26" class="cluster">
<title>cluster_ProductModule_exports</title>
<polygon fill="none" stroke="#000000" points="2666,-208 2666,-260 2870,-260 2870,-208 2666,-208"/>
</g>
<g id="clust28" class="cluster">
<title>cluster_ProductModule_providers</title>
<polygon fill="none" stroke="#000000" points="16,-78 16,-130 692,-130 692,-78 16,-78"/>
</g>
<!-- GroupByPipe -->
<g id="node1" class="node">
<title>GroupByPipe</title>
<polygon fill="#ffffb3" stroke="#000000" points="6603.4916,-122 6510.5084,-122 6510.5084,-86 6603.4916,-86 6603.4916,-122"/>
<text text-anchor="middle" x="6557" y="-99.8" font-family="Times,serif" font-size="14.00" fill="#000000">GroupByPipe</text>
</g>
<!-- ProductModule -->
<g id="node23" class="node">
<title>ProductModule</title>
<polygon fill="#8dd3c7" stroke="#000000" points="2819.5982,-187 2816.5982,-191 2795.5982,-191 2792.5982,-187 2716.4018,-187 2716.4018,-151 2819.5982,-151 2819.5982,-187"/>
<text text-anchor="middle" x="2768" y="-164.8" font-family="Times,serif" font-size="14.00" fill="#000000">ProductModule</text>
</g>
<!-- GroupByPipe&#45;&gt;ProductModule -->
<g id="edge1" class="edge">
<title>GroupByPipe&#45;&gt;ProductModule</title>
<path fill="none" stroke="#000000" d="M6557,-122.1985C6557,-146.3563 6557,-186 6557,-186 6557,-186 2829.763,-186 2829.763,-186"/>
<polygon fill="#000000" stroke="#000000" points="2829.763,-182.5001 2819.763,-186 2829.763,-189.5001 2829.763,-182.5001"/>
</g>
<!-- NewProductDialogComponent -->
<g id="node2" class="node">
<title>NewProductDialogComponent</title>
<polygon fill="#ffffb3" stroke="#000000" points="6492.9114,-122 6303.0886,-122 6303.0886,-86 6492.9114,-86 6492.9114,-122"/>
<text text-anchor="middle" x="6398" y="-99.8" font-family="Times,serif" font-size="14.00" fill="#000000">NewProductDialogComponent</text>
</g>
<!-- NewProductDialogComponent&#45;&gt;ProductModule -->
<g id="edge2" class="edge">
<title>NewProductDialogComponent&#45;&gt;ProductModule</title>
<path fill="none" stroke="#000000" d="M6398,-122.1532C6398,-145.7566 6398,-184 6398,-184 6398,-184 2829.663,-184 2829.663,-184"/>
<polygon fill="#000000" stroke="#000000" points="2829.663,-180.5001 2819.663,-184 2829.6629,-187.5001 2829.663,-180.5001"/>
</g>
<!-- ProductAddToProjectDlgComponent -->
<g id="node3" class="node">
<title>ProductAddToProjectDlgComponent</title>
<polygon fill="#ffffb3" stroke="#000000" points="6285.6909,-122 6060.3091,-122 6060.3091,-86 6285.6909,-86 6285.6909,-122"/>
<text text-anchor="middle" x="6173" y="-99.8" font-family="Times,serif" font-size="14.00" fill="#000000">ProductAddToProjectDlgComponent</text>
</g>
<!-- ProductAddToProjectDlgComponent&#45;&gt;ProductModule -->
<g id="edge3" class="edge">
<title>ProductAddToProjectDlgComponent&#45;&gt;ProductModule</title>
<path fill="none" stroke="#000000" d="M6173,-122.0908C6173,-145.1328 6173,-182 6173,-182 6173,-182 2829.7838,-182 2829.7838,-182"/>
<polygon fill="#000000" stroke="#000000" points="2829.7839,-178.5001 2819.7838,-182 2829.7838,-185.5001 2829.7839,-178.5001"/>
</g>
<!-- ProductCardViewComponent -->
<g id="node4" class="node">
<title>ProductCardViewComponent</title>
<polygon fill="#ffffb3" stroke="#000000" points="6042.4115,-122 5859.5885,-122 5859.5885,-86 6042.4115,-86 6042.4115,-122"/>
<text text-anchor="middle" x="5951" y="-99.8" font-family="Times,serif" font-size="14.00" fill="#000000">ProductCardViewComponent</text>
</g>
<!-- ProductCardViewComponent&#45;&gt;ProductModule -->
<g id="edge4" class="edge">
<title>ProductCardViewComponent&#45;&gt;ProductModule</title>
<path fill="none" stroke="#000000" d="M5951,-122.0109C5951,-144.4852 5951,-180 5951,-180 5951,-180 2829.6113,-180 2829.6113,-180"/>
<polygon fill="#000000" stroke="#000000" points="2829.6113,-176.5001 2819.6113,-180 2829.6112,-183.5001 2829.6113,-176.5001"/>
</g>
<!-- ProductDetailsComponent -->
<g id="node5" class="node">
<title>ProductDetailsComponent</title>
<polygon fill="#ffffb3" stroke="#000000" points="5842.0337,-122 5677.9663,-122 5677.9663,-86 5842.0337,-86 5842.0337,-122"/>
<text text-anchor="middle" x="5760" y="-99.8" font-family="Times,serif" font-size="14.00" fill="#000000">ProductDetailsComponent</text>
</g>
<!-- ProductDetailsComponent&#45;&gt;ProductModule -->
<g id="edge5" class="edge">
<title>ProductDetailsComponent&#45;&gt;ProductModule</title>
<path fill="none" stroke="#000000" d="M5760,-122.2921C5760,-144.2057 5760,-178 5760,-178 5760,-178 2829.6166,-178 2829.6166,-178"/>
<polygon fill="#000000" stroke="#000000" points="2829.6166,-174.5001 2819.6166,-178 2829.6165,-181.5001 2829.6166,-174.5001"/>
</g>
<!-- ProductExportDlgComponent -->
<g id="node6" class="node">
<title>ProductExportDlgComponent</title>
<polygon fill="#ffffb3" stroke="#000000" points="5659.9818,-122 5476.0182,-122 5476.0182,-86 5659.9818,-86 5659.9818,-122"/>
<text text-anchor="middle" x="5568" y="-99.8" font-family="Times,serif" font-size="14.00" fill="#000000">ProductExportDlgComponent</text>
</g>
<!-- ProductExportDlgComponent&#45;&gt;ProductModule -->
<g id="edge6" class="edge">
<title>ProductExportDlgComponent&#45;&gt;ProductModule</title>
<path fill="none" stroke="#000000" d="M5568,-122.0449C5568,-143.6623 5568,-177 5568,-177 5568,-177 2829.5954,-177 2829.5954,-177"/>
<polygon fill="#000000" stroke="#000000" points="2829.5954,-173.5001 2819.5954,-177 2829.5954,-180.5001 2829.5954,-173.5001"/>
</g>
<!-- ProductFiltersComponent -->
<g id="node7" class="node">
<title>ProductFiltersComponent</title>
<polygon fill="#ffffb3" stroke="#000000" points="5458.1554,-122 5297.8446,-122 5297.8446,-86 5458.1554,-86 5458.1554,-122"/>
<text text-anchor="middle" x="5378" y="-99.8" font-family="Times,serif" font-size="14.00" fill="#000000">ProductFiltersComponent</text>
</g>
<!-- ProductFiltersComponent&#45;&gt;ProductModule -->
<g id="edge7" class="edge">
<title>ProductFiltersComponent&#45;&gt;ProductModule</title>
<path fill="none" stroke="#000000" d="M5378,-122.2843C5378,-143.3211 5378,-175 5378,-175 5378,-175 2829.842,-175 2829.842,-175"/>
<polygon fill="#000000" stroke="#000000" points="2829.842,-171.5001 2819.842,-175 2829.842,-178.5001 2829.842,-171.5001"/>
</g>
<!-- ProductGeneralInfoComponent -->
<g id="node8" class="node">
<title>ProductGeneralInfoComponent</title>
<polygon fill="#ffffb3" stroke="#000000" points="5279.0042,-122 5086.9958,-122 5086.9958,-86 5279.0042,-86 5279.0042,-122"/>
<text text-anchor="middle" x="5183" y="-99.8" font-family="Times,serif" font-size="14.00" fill="#000000">ProductGeneralInfoComponent</text>
</g>
<!-- ProductGeneralInfoComponent&#45;&gt;ProductModule -->
<g id="edge8" class="edge">
<title>ProductGeneralInfoComponent&#45;&gt;ProductModule</title>
<path fill="none" stroke="#000000" d="M5183,-122.1289C5183,-142.5724 5183,-173 5183,-173 5183,-173 2829.558,-173 2829.558,-173"/>
<polygon fill="#000000" stroke="#000000" points="2829.558,-169.5001 2819.558,-173 2829.5579,-176.5001 2829.558,-169.5001"/>
</g>
<!-- ProductIconsComponent -->
<g id="node9" class="node">
<title>ProductIconsComponent</title>
<polygon fill="#ffffb3" stroke="#000000" points="5068.7007,-122 4913.2993,-122 4913.2993,-86 5068.7007,-86 5068.7007,-122"/>
<text text-anchor="middle" x="4991" y="-99.8" font-family="Times,serif" font-size="14.00" fill="#000000">ProductIconsComponent</text>
</g>
<!-- ProductIconsComponent&#45;&gt;ProductModule -->
<g id="edge9" class="edge">
<title>ProductIconsComponent&#45;&gt;ProductModule</title>
<path fill="none" stroke="#000000" d="M4991,-122.308C4991,-142.1455 4991,-171 4991,-171 4991,-171 2829.6775,-171 2829.6775,-171"/>
<polygon fill="#000000" stroke="#000000" points="2829.6776,-167.5001 2819.6775,-171 2829.6775,-174.5001 2829.6776,-167.5001"/>
</g>
<!-- ProductListViewComponent -->
<g id="node10" class="node">
<title>ProductListViewComponent</title>
<polygon fill="#ffffb3" stroke="#000000" points="4895.4776,-122 4718.5224,-122 4718.5224,-86 4895.4776,-86 4895.4776,-122"/>
<text text-anchor="middle" x="4807" y="-99.8" font-family="Times,serif" font-size="14.00" fill="#000000">ProductListViewComponent</text>
</g>
<!-- ProductListViewComponent&#45;&gt;ProductModule -->
<g id="edge10" class="edge">
<title>ProductListViewComponent&#45;&gt;ProductModule</title>
<path fill="none" stroke="#000000" d="M4807,-122.1061C4807,-141.3391 4807,-169 4807,-169 4807,-169 2829.6787,-169 2829.6787,-169"/>
<polygon fill="#000000" stroke="#000000" points="2829.6788,-165.5001 2819.6787,-169 2829.6787,-172.5001 2829.6788,-165.5001"/>
</g>
<!-- ProductNavigationComponent -->
<g id="node11" class="node">
<title>ProductNavigationComponent</title>
<polygon fill="#ffffb3" stroke="#000000" points="4700.5884,-122 4513.4116,-122 4513.4116,-86 4700.5884,-86 4700.5884,-122"/>
<text text-anchor="middle" x="4607" y="-99.8" font-family="Times,serif" font-size="14.00" fill="#000000">ProductNavigationComponent</text>
</g>
<!-- ProductNavigationComponent&#45;&gt;ProductModule -->
<g id="edge11" class="edge">
<title>ProductNavigationComponent&#45;&gt;ProductModule</title>
<path fill="none" stroke="#000000" d="M4607,-122.1686C4607,-141.0898 4607,-168 4607,-168 4607,-168 2829.589,-168 2829.589,-168"/>
<polygon fill="#000000" stroke="#000000" points="2829.5891,-164.5001 2819.589,-168 2829.589,-171.5001 2829.5891,-164.5001"/>
</g>
<!-- ProductPreviewComponent -->
<g id="node12" class="node">
<title>ProductPreviewComponent</title>
<polygon fill="#ffffb3" stroke="#000000" points="4495.2506,-122 4324.7494,-122 4324.7494,-86 4495.2506,-86 4495.2506,-122"/>
<text text-anchor="middle" x="4410" y="-99.8" font-family="Times,serif" font-size="14.00" fill="#000000">ProductPreviewComponent</text>
</g>
<!-- ProductPreviewComponent&#45;&gt;ProductModule -->
<g id="edge12" class="edge">
<title>ProductPreviewComponent&#45;&gt;ProductModule</title>
<path fill="none" stroke="#000000" d="M4410,-122.2667C4410,-140.5552 4410,-166 4410,-166 4410,-166 2829.8538,-166 2829.8538,-166"/>
<polygon fill="#000000" stroke="#000000" points="2829.8538,-162.5001 2819.8538,-166 2829.8537,-169.5001 2829.8538,-162.5001"/>
</g>
<!-- ProductRequestTeamFeedbackDlgComponent -->
<g id="node13" class="node">
<title>ProductRequestTeamFeedbackDlgComponent</title>
<polygon fill="#ffffb3" stroke="#000000" points="4306.4928,-122 4029.5072,-122 4029.5072,-86 4306.4928,-86 4306.4928,-122"/>
<text text-anchor="middle" x="4168" y="-99.8" font-family="Times,serif" font-size="14.00" fill="#000000">ProductRequestTeamFeedbackDlgComponent</text>
</g>
<!-- ProductRequestTeamFeedbackDlgComponent&#45;&gt;ProductModule -->
<g id="edge13" class="edge">
<title>ProductRequestTeamFeedbackDlgComponent&#45;&gt;ProductModule</title>
<path fill="none" stroke="#000000" d="M4168,-122.002C4168,-139.6754 4168,-164 4168,-164 4168,-164 2829.906,-164 2829.906,-164"/>
<polygon fill="#000000" stroke="#000000" points="2829.9061,-160.5001 2819.906,-164 2829.906,-167.5001 2829.9061,-160.5001"/>
</g>
<!-- ProductSelectableCardComponent -->
<g id="node14" class="node">
<title>ProductSelectableCardComponent</title>
<polygon fill="#ffffb3" stroke="#000000" points="4011.6203,-122 3802.3797,-122 3802.3797,-86 4011.6203,-86 4011.6203,-122"/>
<text text-anchor="middle" x="3907" y="-99.8" font-family="Times,serif" font-size="14.00" fill="#000000">ProductSelectableCardComponent</text>
</g>
<!-- ProductSelectableCardComponent&#45;&gt;ProductModule -->
<g id="edge14" class="edge">
<title>ProductSelectableCardComponent&#45;&gt;ProductModule</title>
<path fill="none" stroke="#000000" d="M3907,-122.0336C3907,-139.0597 3907,-162 3907,-162 3907,-162 2829.9002,-162 2829.9002,-162"/>
<polygon fill="#000000" stroke="#000000" points="2829.9002,-158.5001 2819.9002,-162 2829.9001,-165.5001 2829.9002,-158.5001"/>
</g>
<!-- ProductSmallCardComponent -->
<g id="node15" class="node">
<title>ProductSmallCardComponent</title>
<polygon fill="#ffffb3" stroke="#000000" points="3784.2618,-122 3599.7382,-122 3599.7382,-86 3784.2618,-86 3784.2618,-122"/>
<text text-anchor="middle" x="3692" y="-99.8" font-family="Times,serif" font-size="14.00" fill="#000000">ProductSmallCardComponent</text>
</g>
<!-- ProductSmallCardComponent&#45;&gt;ProductModule -->
<g id="edge15" class="edge">
<title>ProductSmallCardComponent&#45;&gt;ProductModule</title>
<path fill="none" stroke="#000000" d="M3692,-122.027C3692,-138.3976 3692,-160 3692,-160 3692,-160 2829.6582,-160 2829.6582,-160"/>
<polygon fill="#000000" stroke="#000000" points="2829.6582,-156.5001 2819.6582,-160 2829.6581,-163.5001 2829.6582,-156.5001"/>
</g>
<!-- ProductSubInfoComponent -->
<g id="node16" class="node">
<title>ProductSubInfoComponent</title>
<polygon fill="#ffffb3" stroke="#000000" points="3581.9846,-122 3412.0154,-122 3412.0154,-86 3581.9846,-86 3581.9846,-122"/>
<text text-anchor="middle" x="3497" y="-99.8" font-family="Times,serif" font-size="14.00" fill="#000000">ProductSubInfoComponent</text>
</g>
<!-- ProductSubInfoComponent&#45;&gt;ProductModule -->
<g id="edge16" class="edge">
<title>ProductSubInfoComponent&#45;&gt;ProductModule</title>
<path fill="none" stroke="#000000" d="M3497,-122.0091C3497,-138.0494 3497,-159 3497,-159 3497,-159 2829.5523,-159 2829.5523,-159"/>
<polygon fill="#000000" stroke="#000000" points="2829.5523,-155.5001 2819.5523,-159 2829.5523,-162.5001 2829.5523,-155.5001"/>
</g>
<!-- ProductSummaryComponent -->
<g id="node17" class="node">
<title>ProductSummaryComponent</title>
<polygon fill="#ffffb3" stroke="#000000" points="3393.8201,-122 3214.1799,-122 3214.1799,-86 3393.8201,-86 3393.8201,-122"/>
<text text-anchor="middle" x="3304" y="-99.8" font-family="Times,serif" font-size="14.00" fill="#000000">ProductSummaryComponent</text>
</g>
<!-- ProductSummaryComponent&#45;&gt;ProductModule -->
<g id="edge17" class="edge">
<title>ProductSummaryComponent&#45;&gt;ProductModule</title>
<path fill="none" stroke="#000000" d="M3304,-122.2396C3304,-137.5706 3304,-157 3304,-157 3304,-157 2829.881,-157 2829.881,-157"/>
<polygon fill="#000000" stroke="#000000" points="2829.881,-153.5001 2819.881,-157 2829.8809,-160.5001 2829.881,-153.5001"/>
</g>
<!-- ProductsPageComponent -->
<g id="node18" class="node">
<title>ProductsPageComponent</title>
<polygon fill="#ffffb3" stroke="#000000" points="3196.5379,-122 3039.4621,-122 3039.4621,-86 3196.5379,-86 3196.5379,-122"/>
<text text-anchor="middle" x="3118" y="-99.8" font-family="Times,serif" font-size="14.00" fill="#000000">ProductsPageComponent</text>
</g>
<!-- ProductsPageComponent&#45;&gt;ProductModule -->
<g id="edge18" class="edge">
<title>ProductsPageComponent&#45;&gt;ProductModule</title>
<path fill="none" stroke="#000000" d="M3118,-122.1243C3118,-136.7832 3118,-155 3118,-155 3118,-155 2829.6437,-155 2829.6437,-155"/>
<polygon fill="#000000" stroke="#000000" points="2829.6437,-151.5001 2819.6437,-155 2829.6437,-158.5001 2829.6437,-151.5001"/>
</g>
<!-- ProjectCardComponent -->
<g id="node19" class="node">
<title>ProjectCardComponent</title>
<polygon fill="#ffffb3" stroke="#000000" points="3021.1979,-122 2872.8021,-122 2872.8021,-86 3021.1979,-86 3021.1979,-122"/>
<text text-anchor="middle" x="2947" y="-99.8" font-family="Times,serif" font-size="14.00" fill="#000000">ProjectCardComponent</text>
</g>
<!-- ProjectCardComponent&#45;&gt;ProductModule -->
<g id="edge19" class="edge">
<title>ProjectCardComponent&#45;&gt;ProductModule</title>
<path fill="none" stroke="#000000" d="M2947,-122.2458C2947,-136.1772 2947,-153 2947,-153 2947,-153 2829.7742,-153 2829.7742,-153"/>
<polygon fill="#000000" stroke="#000000" points="2829.7743,-149.5001 2819.7742,-153 2829.7742,-156.5001 2829.7743,-149.5001"/>
</g>
<!-- SelectableImageComponent -->
<g id="node20" class="node">
<title>SelectableImageComponent</title>
<polygon fill="#ffffb3" stroke="#000000" points="2854.8403,-122 2681.1597,-122 2681.1597,-86 2854.8403,-86 2854.8403,-122"/>
<text text-anchor="middle" x="2768" y="-99.8" font-family="Times,serif" font-size="14.00" fill="#000000">SelectableImageComponent</text>
</g>
<!-- SelectableImageComponent&#45;&gt;ProductModule -->
<g id="edge20" class="edge">
<title>SelectableImageComponent&#45;&gt;ProductModule</title>
<path fill="none" stroke="#000000" d="M2768,-122.1061C2768,-122.1061 2768,-140.991 2768,-140.991"/>
<polygon fill="#000000" stroke="#000000" points="2764.5001,-140.9909 2768,-150.991 2771.5001,-140.991 2764.5001,-140.9909"/>
</g>
<!-- SelectionActionsComponent -->
<g id="node21" class="node">
<title>SelectionActionsComponent</title>
<polygon fill="#ffffb3" stroke="#000000" points="2663.4776,-122 2486.5224,-122 2486.5224,-86 2663.4776,-86 2663.4776,-122"/>
<text text-anchor="middle" x="2575" y="-99.8" font-family="Times,serif" font-size="14.00" fill="#000000">SelectionActionsComponent</text>
</g>
<!-- SelectionActionsComponent&#45;&gt;ProductModule -->
<g id="edge21" class="edge">
<title>SelectionActionsComponent&#45;&gt;ProductModule</title>
<path fill="none" stroke="#000000" d="M2575,-122.2458C2575,-136.1772 2575,-153 2575,-153 2575,-153 2706.2795,-153 2706.2795,-153"/>
<polygon fill="#000000" stroke="#000000" points="2706.2796,-156.5001 2716.2795,-153 2706.2795,-149.5001 2706.2796,-156.5001"/>
</g>
<!-- SupplierCardComponent -->
<g id="node22" class="node">
<title>SupplierCardComponent</title>
<polygon fill="#ffffb3" stroke="#000000" points="2468.9832,-122 2313.0168,-122 2313.0168,-86 2468.9832,-86 2468.9832,-122"/>
<text text-anchor="middle" x="2391" y="-99.8" font-family="Times,serif" font-size="14.00" fill="#000000">SupplierCardComponent</text>
</g>
<!-- SupplierCardComponent&#45;&gt;ProductModule -->
<g id="edge22" class="edge">
<title>SupplierCardComponent&#45;&gt;ProductModule</title>
<path fill="none" stroke="#000000" d="M2391,-122.1243C2391,-136.7832 2391,-155 2391,-155 2391,-155 2706.3702,-155 2706.3702,-155"/>
<polygon fill="#000000" stroke="#000000" points="2706.3703,-158.5001 2716.3702,-155 2706.3702,-151.5001 2706.3703,-158.5001"/>
</g>
<!-- ProductSmallCardComponent  -->
<g id="node37" class="node">
<title>ProductSmallCardComponent </title>
<polygon fill="#fb8072" stroke="#000000" points="2862.2618,-252 2673.7382,-252 2673.7382,-216 2862.2618,-216 2862.2618,-252"/>
<text text-anchor="middle" x="2768" y="-229.8" font-family="Times,serif" font-size="14.00" fill="#000000">ProductSmallCardComponent </text>
</g>
<!-- ProductModule&#45;&gt;ProductSmallCardComponent  -->
<g id="edge36" class="edge">
<title>ProductModule&#45;&gt;ProductSmallCardComponent </title>
<path fill="none" stroke="#000000" stroke-dasharray="5,2" d="M2768,-187.1061C2768,-187.1061 2768,-205.991 2768,-205.991"/>
<polygon fill="#000000" stroke="#000000" points="2764.5001,-205.9909 2768,-215.991 2771.5001,-205.991 2764.5001,-205.9909"/>
</g>
<!-- BadgeModule -->
<g id="node24" class="node">
<title>BadgeModule</title>
<polygon fill="#8dd3c7" stroke="#000000" points="2288.8161,-122 2285.8161,-126 2264.8161,-126 2261.8161,-122 2193.1839,-122 2193.1839,-86 2288.8161,-86 2288.8161,-122"/>
<text text-anchor="middle" x="2241" y="-99.8" font-family="Times,serif" font-size="14.00" fill="#000000">BadgeModule</text>
</g>
<!-- BadgeModule&#45;&gt;ProductModule -->
<g id="edge23" class="edge">
<title>BadgeModule&#45;&gt;ProductModule</title>
<path fill="none" stroke="#000000" d="M2241,-122.2396C2241,-137.5706 2241,-157 2241,-157 2241,-157 2706.0269,-157 2706.0269,-157"/>
<polygon fill="#000000" stroke="#000000" points="2706.027,-160.5001 2716.0269,-157 2706.0269,-153.5001 2706.027,-160.5001"/>
</g>
<!-- CarouselModule -->
<g id="node25" class="node">
<title>CarouselModule</title>
<polygon fill="#8dd3c7" stroke="#000000" points="2175.8118,-122 2172.8118,-126 2151.8118,-126 2148.8118,-122 2066.1882,-122 2066.1882,-86 2175.8118,-86 2175.8118,-122"/>
<text text-anchor="middle" x="2121" y="-99.8" font-family="Times,serif" font-size="14.00" fill="#000000">CarouselModule</text>
</g>
<!-- CarouselModule&#45;&gt;ProductModule -->
<g id="edge24" class="edge">
<title>CarouselModule&#45;&gt;ProductModule</title>
<path fill="none" stroke="#000000" d="M2121,-122.0091C2121,-138.0494 2121,-159 2121,-159 2121,-159 2706.4189,-159 2706.4189,-159"/>
<polygon fill="#000000" stroke="#000000" points="2706.4189,-162.5001 2716.4189,-159 2706.4188,-155.5001 2706.4189,-162.5001"/>
</g>
<!-- CommentModule -->
<g id="node26" class="node">
<title>CommentModule</title>
<polygon fill="#8dd3c7" stroke="#000000" points="2048.273,-122 2045.273,-126 2024.273,-126 2021.273,-122 1933.727,-122 1933.727,-86 2048.273,-86 2048.273,-122"/>
<text text-anchor="middle" x="1991" y="-99.8" font-family="Times,serif" font-size="14.00" fill="#000000">CommentModule</text>
</g>
<!-- CommentModule&#45;&gt;ProductModule -->
<g id="edge25" class="edge">
<title>CommentModule&#45;&gt;ProductModule</title>
<path fill="none" stroke="#000000" d="M1991,-122.027C1991,-138.3976 1991,-160 1991,-160 1991,-160 2706.4171,-160 2706.4171,-160"/>
<polygon fill="#000000" stroke="#000000" points="2706.4172,-163.5001 2716.4171,-160 2706.4171,-156.5001 2706.4172,-163.5001"/>
</g>
<!-- DialogModule -->
<g id="node27" class="node">
<title>DialogModule</title>
<polygon fill="#8dd3c7" stroke="#000000" points="1915.6528,-122 1912.6528,-126 1891.6528,-126 1888.6528,-122 1818.3472,-122 1818.3472,-86 1915.6528,-86 1915.6528,-122"/>
<text text-anchor="middle" x="1867" y="-99.8" font-family="Times,serif" font-size="14.00" fill="#000000">DialogModule</text>
</g>
<!-- DialogModule&#45;&gt;ProductModule -->
<g id="edge26" class="edge">
<title>DialogModule&#45;&gt;ProductModule</title>
<path fill="none" stroke="#000000" d="M1867,-122.0336C1867,-139.0597 1867,-162 1867,-162 1867,-162 2706.3222,-162 2706.3222,-162"/>
<polygon fill="#000000" stroke="#000000" points="2706.3222,-165.5001 2716.3222,-162 2706.3222,-158.5001 2706.3222,-165.5001"/>
</g>
<!-- DynamicFormsModule -->
<g id="node28" class="node">
<title>DynamicFormsModule</title>
<polygon fill="#8dd3c7" stroke="#000000" points="1800.1456,-122 1797.1456,-126 1776.1456,-126 1773.1456,-122 1653.8544,-122 1653.8544,-86 1800.1456,-86 1800.1456,-122"/>
<text text-anchor="middle" x="1727" y="-99.8" font-family="Times,serif" font-size="14.00" fill="#000000">DynamicFormsModule</text>
</g>
<!-- DynamicFormsModule&#45;&gt;ProductModule -->
<g id="edge27" class="edge">
<title>DynamicFormsModule&#45;&gt;ProductModule</title>
<path fill="none" stroke="#000000" d="M1727,-122.002C1727,-139.6754 1727,-164 1727,-164 1727,-164 2706.3766,-164 2706.3766,-164"/>
<polygon fill="#000000" stroke="#000000" points="2706.3767,-167.5001 2716.3766,-164 2706.3766,-160.5001 2706.3767,-167.5001"/>
</g>
<!-- FileModule -->
<g id="node29" class="node">
<title>FileModule</title>
<polygon fill="#8dd3c7" stroke="#000000" points="1635.8289,-122 1632.8289,-126 1611.8289,-126 1608.8289,-122 1554.1711,-122 1554.1711,-86 1635.8289,-86 1635.8289,-122"/>
<text text-anchor="middle" x="1595" y="-99.8" font-family="Times,serif" font-size="14.00" fill="#000000">FileModule</text>
</g>
<!-- FileModule&#45;&gt;ProductModule -->
<g id="edge28" class="edge">
<title>FileModule&#45;&gt;ProductModule</title>
<path fill="none" stroke="#000000" d="M1595,-122.2667C1595,-140.5552 1595,-166 1595,-166 1595,-166 2706.0841,-166 2706.0841,-166"/>
<polygon fill="#000000" stroke="#000000" points="2706.0842,-169.5001 2716.0841,-166 2706.0841,-162.5001 2706.0842,-169.5001"/>
</g>
<!-- FiltersModule -->
<g id="node30" class="node">
<title>FiltersModule</title>
<polygon fill="#8dd3c7" stroke="#000000" points="1536.8246,-122 1533.8246,-126 1512.8246,-126 1509.8246,-122 1441.1754,-122 1441.1754,-86 1536.8246,-86 1536.8246,-122"/>
<text text-anchor="middle" x="1489" y="-99.8" font-family="Times,serif" font-size="14.00" fill="#000000">FiltersModule</text>
</g>
<!-- FiltersModule&#45;&gt;ProductModule -->
<g id="edge29" class="edge">
<title>FiltersModule&#45;&gt;ProductModule</title>
<path fill="none" stroke="#000000" d="M1489,-122.1686C1489,-141.0898 1489,-168 1489,-168 1489,-168 2706.2776,-168 2706.2776,-168"/>
<polygon fill="#000000" stroke="#000000" points="2706.2776,-171.5001 2716.2776,-168 2706.2776,-164.5001 2706.2776,-171.5001"/>
</g>
<!-- RatingModule -->
<g id="node31" class="node">
<title>RatingModule</title>
<polygon fill="#8dd3c7" stroke="#000000" points="1423.3823,-122 1420.3823,-126 1399.3823,-126 1396.3823,-122 1326.6177,-122 1326.6177,-86 1423.3823,-86 1423.3823,-122"/>
<text text-anchor="middle" x="1375" y="-99.8" font-family="Times,serif" font-size="14.00" fill="#000000">RatingModule</text>
</g>
<!-- RatingModule&#45;&gt;ProductModule -->
<g id="edge30" class="edge">
<title>RatingModule&#45;&gt;ProductModule</title>
<path fill="none" stroke="#000000" d="M1375,-122.1061C1375,-141.3391 1375,-169 1375,-169 1375,-169 2706.3535,-169 2706.3535,-169"/>
<polygon fill="#000000" stroke="#000000" points="2706.3535,-172.5001 2716.3535,-169 2706.3535,-165.5001 2706.3535,-172.5001"/>
</g>
<!-- SelectionBarModule -->
<g id="node32" class="node">
<title>SelectionBarModule</title>
<polygon fill="#8dd3c7" stroke="#000000" points="1308.8599,-122 1305.8599,-126 1284.8599,-126 1281.8599,-122 1177.1401,-122 1177.1401,-86 1308.8599,-86 1308.8599,-122"/>
<text text-anchor="middle" x="1243" y="-99.8" font-family="Times,serif" font-size="14.00" fill="#000000">SelectionBarModule</text>
</g>
<!-- SelectionBarModule&#45;&gt;ProductModule -->
<g id="edge31" class="edge">
<title>SelectionBarModule&#45;&gt;ProductModule</title>
<path fill="none" stroke="#000000" d="M1243,-122.308C1243,-142.1455 1243,-171 1243,-171 1243,-171 2706.3867,-171 2706.3867,-171"/>
<polygon fill="#000000" stroke="#000000" points="2706.3867,-174.5001 2716.3867,-171 2706.3866,-167.5001 2706.3867,-174.5001"/>
</g>
<!-- SharedModule -->
<g id="node33" class="node">
<title>SharedModule</title>
<polygon fill="#8dd3c7" stroke="#000000" points="1159.4231,-122 1156.4231,-126 1135.4231,-126 1132.4231,-122 1060.5769,-122 1060.5769,-86 1159.4231,-86 1159.4231,-122"/>
<text text-anchor="middle" x="1110" y="-99.8" font-family="Times,serif" font-size="14.00" fill="#000000">SharedModule</text>
</g>
<!-- SharedModule&#45;&gt;ProductModule -->
<g id="edge32" class="edge">
<title>SharedModule&#45;&gt;ProductModule</title>
<path fill="none" stroke="#000000" d="M1110,-122.1289C1110,-142.5724 1110,-173 1110,-173 1110,-173 2706.102,-173 2706.102,-173"/>
<polygon fill="#000000" stroke="#000000" points="2706.1021,-176.5001 2716.102,-173 2706.102,-169.5001 2706.1021,-176.5001"/>
</g>
<!-- StatusModule -->
<g id="node34" class="node">
<title>StatusModule</title>
<polygon fill="#8dd3c7" stroke="#000000" points="1042.7731,-122 1039.7731,-126 1018.7731,-126 1015.7731,-122 949.2269,-122 949.2269,-86 1042.7731,-86 1042.7731,-122"/>
<text text-anchor="middle" x="996" y="-99.8" font-family="Times,serif" font-size="14.00" fill="#000000">StatusModule</text>
</g>
<!-- StatusModule&#45;&gt;ProductModule -->
<g id="edge33" class="edge">
<title>StatusModule&#45;&gt;ProductModule</title>
<path fill="none" stroke="#000000" d="M996,-122.2843C996,-143.3211 996,-175 996,-175 996,-175 2706.4038,-175 2706.4038,-175"/>
<polygon fill="#000000" stroke="#000000" points="2706.4038,-178.5001 2716.4038,-175 2706.4038,-171.5001 2706.4038,-178.5001"/>
</g>
<!-- TableModule -->
<g id="node35" class="node">
<title>TableModule</title>
<polygon fill="#8dd3c7" stroke="#000000" points="930.9232,-122 927.9232,-126 906.9232,-126 903.9232,-122 839.0768,-122 839.0768,-86 930.9232,-86 930.9232,-122"/>
<text text-anchor="middle" x="885" y="-99.8" font-family="Times,serif" font-size="14.00" fill="#000000">TableModule</text>
</g>
<!-- TableModule&#45;&gt;ProductModule -->
<g id="edge34" class="edge">
<title>TableModule&#45;&gt;ProductModule</title>
<path fill="none" stroke="#000000" d="M885,-122.0449C885,-143.6623 885,-177 885,-177 885,-177 2706.1662,-177 2706.1662,-177"/>
<polygon fill="#000000" stroke="#000000" points="2706.1662,-180.5001 2716.1662,-177 2706.1662,-173.5001 2706.1662,-180.5001"/>
</g>
<!-- TopPanelModule -->
<g id="node36" class="node">
<title>TopPanelModule</title>
<polygon fill="#8dd3c7" stroke="#000000" points="821.705,-122 818.705,-126 797.705,-126 794.705,-122 708.295,-122 708.295,-86 821.705,-86 821.705,-122"/>
<text text-anchor="middle" x="765" y="-99.8" font-family="Times,serif" font-size="14.00" fill="#000000">TopPanelModule</text>
</g>
<!-- TopPanelModule&#45;&gt;ProductModule -->
<g id="edge35" class="edge">
<title>TopPanelModule&#45;&gt;ProductModule</title>
<path fill="none" stroke="#000000" d="M765,-122.2921C765,-144.2057 765,-178 765,-178 765,-178 2706.2203,-178 2706.2203,-178"/>
<polygon fill="#000000" stroke="#000000" points="2706.2203,-181.5001 2716.2203,-178 2706.2203,-174.5001 2706.2203,-181.5001"/>
</g>
<!-- ExportService -->
<g id="node38" class="node">
<title>ExportService</title>
<ellipse fill="#fdb462" stroke="#000000" cx="618" cy="-104" rx="66.0512" ry="18"/>
<text text-anchor="middle" x="618" y="-99.8" font-family="Times,serif" font-size="14.00" fill="#000000">ExportService</text>
</g>
<!-- ExportService&#45;&gt;ProductModule -->
<g id="edge37" class="edge">
<title>ExportService&#45;&gt;ProductModule</title>
<path fill="none" stroke="#000000" d="M618,-122.0109C618,-144.4852 618,-180 618,-180 618,-180 2706.4478,-180 2706.4478,-180"/>
<polygon fill="#000000" stroke="#000000" points="2706.4479,-183.5001 2716.4478,-180 2706.4478,-176.5001 2706.4479,-183.5001"/>
</g>
<!-- ProductFeatureService -->
<g id="node39" class="node">
<title>ProductFeatureService</title>
<ellipse fill="#fdb462" stroke="#000000" cx="435" cy="-104" rx="98.9723" ry="18"/>
<text text-anchor="middle" x="435" y="-99.8" font-family="Times,serif" font-size="14.00" fill="#000000">ProductFeatureService</text>
</g>
<!-- ProductFeatureService&#45;&gt;ProductModule -->
<g id="edge38" class="edge">
<title>ProductFeatureService&#45;&gt;ProductModule</title>
<path fill="none" stroke="#000000" d="M435,-122.0908C435,-145.1328 435,-182 435,-182 435,-182 2706.2773,-182 2706.2773,-182"/>
<polygon fill="#000000" stroke="#000000" points="2706.2773,-185.5001 2716.2773,-182 2706.2773,-178.5001 2706.2773,-185.5001"/>
</g>
<!-- SelectionService -->
<g id="node40" class="node">
<title>SelectionService</title>
<ellipse fill="#fdb462" stroke="#000000" cx="242" cy="-104" rx="75.8566" ry="18"/>
<text text-anchor="middle" x="242" y="-99.8" font-family="Times,serif" font-size="14.00" fill="#000000">SelectionService</text>
</g>
<!-- SelectionService&#45;&gt;ProductModule -->
<g id="edge39" class="edge">
<title>SelectionService&#45;&gt;ProductModule</title>
<path fill="none" stroke="#000000" d="M242,-122.1532C242,-145.7566 242,-184 242,-184 242,-184 2706.3975,-184 2706.3975,-184"/>
<polygon fill="#000000" stroke="#000000" points="2706.3976,-187.5001 2716.3975,-184 2706.3975,-180.5001 2706.3976,-187.5001"/>
</g>
<!-- TeamService -->
<g id="node41" class="node">
<title>TeamService</title>
<ellipse fill="#fdb462" stroke="#000000" cx="86" cy="-104" rx="61.9538" ry="18"/>
<text text-anchor="middle" x="86" y="-99.8" font-family="Times,serif" font-size="14.00" fill="#000000">TeamService</text>
</g>
<!-- TeamService&#45;&gt;ProductModule -->
<g id="edge40" class="edge">
<title>TeamService&#45;&gt;ProductModule</title>
<path fill="none" stroke="#000000" d="M86,-122.1985C86,-146.3563 86,-186 86,-186 86,-186 2706.2251,-186 2706.2251,-186"/>
<polygon fill="#000000" stroke="#000000" points="2706.2251,-189.5001 2716.2251,-186 2706.2251,-182.5001 2706.2251,-189.5001"/>
</g>
</g>
</svg>
