<?xml version="1.0" encoding="UTF-8" standalone="no"?>
<!DOCTYPE svg PUBLIC "-//W3C//DTD SVG 1.1//EN"
 "http://www.w3.org/Graphics/SVG/1.1/DTD/svg11.dtd">
<!-- Generated by graphviz version 2.40.1 (20161225.0304)
 -->
<!-- Title: dependencies Pages: 1 -->
<svg width="6465pt" height="284pt"
 viewBox="0.00 0.00 6465.00 284.00" xmlns="http://www.w3.org/2000/svg" xmlns:xlink="http://www.w3.org/1999/xlink">
<g id="graph0" class="graph" transform="scale(1 1) rotate(0) translate(4 280)">
<title>dependencies</title>
<polygon fill="#ffffff" stroke="transparent" points="-4,4 -4,-280 6461,-280 6461,4 -4,4"/>
<text text-anchor="start" x="3207.5091" y="-42.4" font-family="sans-serif" font-weight="bold" font-size="14.00" fill="#000000">Legend</text>
<polygon fill="#ffffb3" stroke="transparent" points="2994.5,-10 2994.5,-30 3014.5,-30 3014.5,-10 2994.5,-10"/>
<text text-anchor="start" x="3018.129" y="-15.4" font-family="sans-serif" font-size="14.00" fill="#000000"> &#160;Declarations</text>
<polygon fill="#8dd3c7" stroke="transparent" points="3107.5,-10 3107.5,-30 3127.5,-30 3127.5,-10 3107.5,-10"/>
<text text-anchor="start" x="3131.2251" y="-15.4" font-family="sans-serif" font-size="14.00" fill="#000000"> &#160;Module</text>
<polygon fill="#80b1d3" stroke="transparent" points="3193.5,-10 3193.5,-30 3213.5,-30 3213.5,-10 3193.5,-10"/>
<text text-anchor="start" x="3217.2812" y="-15.4" font-family="sans-serif" font-size="14.00" fill="#000000"> &#160;Bootstrap</text>
<polygon fill="#fdb462" stroke="transparent" points="3290.5,-10 3290.5,-30 3310.5,-30 3310.5,-10 3290.5,-10"/>
<text text-anchor="start" x="3314.1732" y="-15.4" font-family="sans-serif" font-size="14.00" fill="#000000"> &#160;Providers</text>
<polygon fill="#fb8072" stroke="transparent" points="3386.5,-10 3386.5,-30 3406.5,-30 3406.5,-10 3386.5,-10"/>
<text text-anchor="start" x="3410.2258" y="-15.4" font-family="sans-serif" font-size="14.00" fill="#000000"> &#160;Exports</text>
<g id="clust1" class="cluster">
<title>cluster_ProductModule</title>
<polygon fill="none" stroke="#000000" stroke-dasharray="1,5" points="8,-70 8,-268 6449,-268 6449,-70 8,-70"/>
</g>
<g id="clust2" class="cluster">
<title>cluster_ProductModule_declarations</title>
<polygon fill="none" stroke="#000000" points="2135,-78 2135,-130 6441,-130 6441,-78 2135,-78"/>
</g>
<g id="clust25" class="cluster">
<title>cluster_ProductModule_imports</title>
<polygon fill="none" stroke="#000000" points="530,-78 530,-130 2127,-130 2127,-78 530,-78"/>
</g>
<g id="clust26" class="cluster">
<title>cluster_ProductModule_exports</title>
<polygon fill="none" stroke="#000000" points="2585,-208 2585,-260 2789,-260 2789,-208 2585,-208"/>
</g>
<g id="clust28" class="cluster">
<title>cluster_ProductModule_providers</title>
<polygon fill="none" stroke="#000000" points="16,-78 16,-130 522,-130 522,-78 16,-78"/>
</g>
<!-- GroupByPipe -->
<g id="node1" class="node">
<title>GroupByPipe</title>
<polygon fill="#ffffb3" stroke="#000000" points="6433.4916,-122 6340.5084,-122 6340.5084,-86 6433.4916,-86 6433.4916,-122"/>
<text text-anchor="middle" x="6387" y="-99.8" font-family="Times,serif" font-size="14.00" fill="#000000">GroupByPipe</text>
</g>
<!-- ProductModule -->
<g id="node23" class="node">
<title>ProductModule</title>
<polygon fill="#8dd3c7" stroke="#000000" points="2738.5982,-187 2735.5982,-191 2714.5982,-191 2711.5982,-187 2635.4018,-187 2635.4018,-151 2738.5982,-151 2738.5982,-187"/>
<text text-anchor="middle" x="2687" y="-164.8" font-family="Times,serif" font-size="14.00" fill="#000000">ProductModule</text>
</g>
<!-- GroupByPipe&#45;&gt;ProductModule -->
<g id="edge1" class="edge">
<title>GroupByPipe&#45;&gt;ProductModule</title>
<path fill="none" stroke="#000000" d="M6387,-122.1985C6387,-146.3563 6387,-186 6387,-186 6387,-186 2748.5981,-186 2748.5981,-186"/>
<polygon fill="#000000" stroke="#000000" points="2748.5981,-182.5001 2738.5981,-186 2748.598,-189.5001 2748.5981,-182.5001"/>
</g>
<!-- NewProductDialogComponent -->
<g id="node2" class="node">
<title>NewProductDialogComponent</title>
<polygon fill="#ffffb3" stroke="#000000" points="6322.9114,-122 6133.0886,-122 6133.0886,-86 6322.9114,-86 6322.9114,-122"/>
<text text-anchor="middle" x="6228" y="-99.8" font-family="Times,serif" font-size="14.00" fill="#000000">NewProductDialogComponent</text>
</g>
<!-- NewProductDialogComponent&#45;&gt;ProductModule -->
<g id="edge2" class="edge">
<title>NewProductDialogComponent&#45;&gt;ProductModule</title>
<path fill="none" stroke="#000000" d="M6228,-122.1532C6228,-145.7566 6228,-184 6228,-184 6228,-184 2748.7656,-184 2748.7656,-184"/>
<polygon fill="#000000" stroke="#000000" points="2748.7657,-180.5001 2738.7656,-184 2748.7656,-187.5001 2748.7657,-180.5001"/>
</g>
<!-- ProductAddToProjectDlgComponent -->
<g id="node3" class="node">
<title>ProductAddToProjectDlgComponent</title>
<polygon fill="#ffffb3" stroke="#000000" points="6115.6909,-122 5890.3091,-122 5890.3091,-86 6115.6909,-86 6115.6909,-122"/>
<text text-anchor="middle" x="6003" y="-99.8" font-family="Times,serif" font-size="14.00" fill="#000000">ProductAddToProjectDlgComponent</text>
</g>
<!-- ProductAddToProjectDlgComponent&#45;&gt;ProductModule -->
<g id="edge3" class="edge">
<title>ProductAddToProjectDlgComponent&#45;&gt;ProductModule</title>
<path fill="none" stroke="#000000" d="M6003,-122.0908C6003,-145.1328 6003,-182 6003,-182 6003,-182 2748.7532,-182 2748.7532,-182"/>
<polygon fill="#000000" stroke="#000000" points="2748.7532,-178.5001 2738.7532,-182 2748.7532,-185.5001 2748.7532,-178.5001"/>
</g>
<!-- ProductCardViewComponent -->
<g id="node4" class="node">
<title>ProductCardViewComponent</title>
<polygon fill="#ffffb3" stroke="#000000" points="5872.4115,-122 5689.5885,-122 5689.5885,-86 5872.4115,-86 5872.4115,-122"/>
<text text-anchor="middle" x="5781" y="-99.8" font-family="Times,serif" font-size="14.00" fill="#000000">ProductCardViewComponent</text>
</g>
<!-- ProductCardViewComponent&#45;&gt;ProductModule -->
<g id="edge4" class="edge">
<title>ProductCardViewComponent&#45;&gt;ProductModule</title>
<path fill="none" stroke="#000000" d="M5781,-122.0109C5781,-144.4852 5781,-180 5781,-180 5781,-180 2748.7605,-180 2748.7605,-180"/>
<polygon fill="#000000" stroke="#000000" points="2748.7605,-176.5001 2738.7605,-180 2748.7604,-183.5001 2748.7605,-176.5001"/>
</g>
<!-- ProductDetailsComponent -->
<g id="node5" class="node">
<title>ProductDetailsComponent</title>
<polygon fill="#ffffb3" stroke="#000000" points="5672.0337,-122 5507.9663,-122 5507.9663,-86 5672.0337,-86 5672.0337,-122"/>
<text text-anchor="middle" x="5590" y="-99.8" font-family="Times,serif" font-size="14.00" fill="#000000">ProductDetailsComponent</text>
</g>
<!-- ProductDetailsComponent&#45;&gt;ProductModule -->
<g id="edge5" class="edge">
<title>ProductDetailsComponent&#45;&gt;ProductModule</title>
<path fill="none" stroke="#000000" d="M5590,-122.2921C5590,-144.2057 5590,-178 5590,-178 5590,-178 2748.6191,-178 2748.6191,-178"/>
<polygon fill="#000000" stroke="#000000" points="2748.6191,-174.5001 2738.6191,-178 2748.619,-181.5001 2748.6191,-174.5001"/>
</g>
<!-- ProductExportDlgComponent -->
<g id="node6" class="node">
<title>ProductExportDlgComponent</title>
<polygon fill="#ffffb3" stroke="#000000" points="5489.9818,-122 5306.0182,-122 5306.0182,-86 5489.9818,-86 5489.9818,-122"/>
<text text-anchor="middle" x="5398" y="-99.8" font-family="Times,serif" font-size="14.00" fill="#000000">ProductExportDlgComponent</text>
</g>
<!-- ProductExportDlgComponent&#45;&gt;ProductModule -->
<g id="edge6" class="edge">
<title>ProductExportDlgComponent&#45;&gt;ProductModule</title>
<path fill="none" stroke="#000000" d="M5398,-122.1686C5398,-143.498 5398,-176 5398,-176 5398,-176 2748.735,-176 2748.735,-176"/>
<polygon fill="#000000" stroke="#000000" points="2748.7351,-172.5001 2738.735,-176 2748.735,-179.5001 2748.7351,-172.5001"/>
</g>
<!-- ProductFiltersComponent -->
<g id="node7" class="node">
<title>ProductFiltersComponent</title>
<polygon fill="#ffffb3" stroke="#000000" points="5288.1554,-122 5127.8446,-122 5127.8446,-86 5288.1554,-86 5288.1554,-122"/>
<text text-anchor="middle" x="5208" y="-99.8" font-family="Times,serif" font-size="14.00" fill="#000000">ProductFiltersComponent</text>
</g>
<!-- ProductFiltersComponent&#45;&gt;ProductModule -->
<g id="edge7" class="edge">
<title>ProductFiltersComponent&#45;&gt;ProductModule</title>
<path fill="none" stroke="#000000" d="M5208,-122.0267C5208,-142.7672 5208,-174 5208,-174 5208,-174 2748.7878,-174 2748.7878,-174"/>
<polygon fill="#000000" stroke="#000000" points="2748.7878,-170.5001 2738.7878,-174 2748.7877,-177.5001 2748.7878,-170.5001"/>
</g>
<!-- ProductGeneralInfoComponent -->
<g id="node8" class="node">
<title>ProductGeneralInfoComponent</title>
<polygon fill="#ffffb3" stroke="#000000" points="5109.0042,-122 4916.9958,-122 4916.9958,-86 5109.0042,-86 5109.0042,-122"/>
<text text-anchor="middle" x="5013" y="-99.8" font-family="Times,serif" font-size="14.00" fill="#000000">ProductGeneralInfoComponent</text>
</g>
<!-- ProductGeneralInfoComponent&#45;&gt;ProductModule -->
<g id="edge8" class="edge">
<title>ProductGeneralInfoComponent&#45;&gt;ProductModule</title>
<path fill="none" stroke="#000000" d="M5013,-122.2228C5013,-142.3652 5013,-172 5013,-172 5013,-172 2748.5675,-172 2748.5675,-172"/>
<polygon fill="#000000" stroke="#000000" points="2748.5675,-168.5001 2738.5675,-172 2748.5675,-175.5001 2748.5675,-168.5001"/>
</g>
<!-- ProductIconsComponent -->
<g id="node9" class="node">
<title>ProductIconsComponent</title>
<polygon fill="#ffffb3" stroke="#000000" points="4898.7007,-122 4743.2993,-122 4743.2993,-86 4898.7007,-86 4898.7007,-122"/>
<text text-anchor="middle" x="4821" y="-99.8" font-family="Times,serif" font-size="14.00" fill="#000000">ProductIconsComponent</text>
</g>
<!-- ProductIconsComponent&#45;&gt;ProductModule -->
<g id="edge9" class="edge">
<title>ProductIconsComponent&#45;&gt;ProductModule</title>
<path fill="none" stroke="#000000" d="M4821,-122.0348C4821,-141.5762 4821,-170 4821,-170 4821,-170 2748.6935,-170 2748.6935,-170"/>
<polygon fill="#000000" stroke="#000000" points="2748.6935,-166.5001 2738.6935,-170 2748.6934,-173.5001 2748.6935,-166.5001"/>
</g>
<!-- ProductListViewComponent -->
<g id="node10" class="node">
<title>ProductListViewComponent</title>
<polygon fill="#ffffb3" stroke="#000000" points="4725.4776,-122 4548.5224,-122 4548.5224,-86 4725.4776,-86 4725.4776,-122"/>
<text text-anchor="middle" x="4637" y="-99.8" font-family="Times,serif" font-size="14.00" fill="#000000">ProductListViewComponent</text>
</g>
<!-- ProductListViewComponent&#45;&gt;ProductModule -->
<g id="edge10" class="edge">
<title>ProductListViewComponent&#45;&gt;ProductModule</title>
<path fill="none" stroke="#000000" d="M4637,-122.1061C4637,-141.3391 4637,-169 4637,-169 4637,-169 2748.6555,-169 2748.6555,-169"/>
<polygon fill="#000000" stroke="#000000" points="2748.6555,-165.5001 2738.6555,-169 2748.6555,-172.5001 2748.6555,-165.5001"/>
</g>
<!-- ProductNavigationComponent -->
<g id="node11" class="node">
<title>ProductNavigationComponent</title>
<polygon fill="#ffffb3" stroke="#000000" points="4530.5884,-122 4343.4116,-122 4343.4116,-86 4530.5884,-86 4530.5884,-122"/>
<text text-anchor="middle" x="4437" y="-99.8" font-family="Times,serif" font-size="14.00" fill="#000000">ProductNavigationComponent</text>
</g>
<!-- ProductNavigationComponent&#45;&gt;ProductModule -->
<g id="edge11" class="edge">
<title>ProductNavigationComponent&#45;&gt;ProductModule</title>
<path fill="none" stroke="#000000" d="M4437,-122.2222C4437,-140.8285 4437,-167 4437,-167 4437,-167 2748.8992,-167 2748.8992,-167"/>
<polygon fill="#000000" stroke="#000000" points="2748.8993,-163.5001 2738.8992,-167 2748.8992,-170.5001 2748.8993,-163.5001"/>
</g>
<!-- ProductPreviewComponent -->
<g id="node12" class="node">
<title>ProductPreviewComponent</title>
<polygon fill="#ffffb3" stroke="#000000" points="4325.2506,-122 4154.7494,-122 4154.7494,-86 4325.2506,-86 4325.2506,-122"/>
<text text-anchor="middle" x="4240" y="-99.8" font-family="Times,serif" font-size="14.00" fill="#000000">ProductPreviewComponent</text>
</g>
<!-- ProductPreviewComponent&#45;&gt;ProductModule -->
<g id="edge12" class="edge">
<title>ProductPreviewComponent&#45;&gt;ProductModule</title>
<path fill="none" stroke="#000000" d="M4240,-122.302C4240,-140.2699 4240,-165 4240,-165 4240,-165 2748.6711,-165 2748.6711,-165"/>
<polygon fill="#000000" stroke="#000000" points="2748.6711,-161.5001 2738.6711,-165 2748.6711,-168.5001 2748.6711,-161.5001"/>
</g>
<!-- ProductRequestTeamFeedbackDlgComponent -->
<g id="node13" class="node">
<title>ProductRequestTeamFeedbackDlgComponent</title>
<polygon fill="#ffffb3" stroke="#000000" points="4136.4928,-122 3859.5072,-122 3859.5072,-86 4136.4928,-86 4136.4928,-122"/>
<text text-anchor="middle" x="3998" y="-99.8" font-family="Times,serif" font-size="14.00" fill="#000000">ProductRequestTeamFeedbackDlgComponent</text>
</g>
<!-- ProductRequestTeamFeedbackDlgComponent&#45;&gt;ProductModule -->
<g id="edge13" class="edge">
<title>ProductRequestTeamFeedbackDlgComponent&#45;&gt;ProductModule</title>
<path fill="none" stroke="#000000" d="M3998,-122.0225C3998,-139.3734 3998,-163 3998,-163 3998,-163 2748.7965,-163 2748.7965,-163"/>
<polygon fill="#000000" stroke="#000000" points="2748.7966,-159.5001 2738.7965,-163 2748.7965,-166.5001 2748.7966,-159.5001"/>
</g>
<!-- ProductSelectableCardComponent -->
<g id="node14" class="node">
<title>ProductSelectableCardComponent</title>
<polygon fill="#ffffb3" stroke="#000000" points="3841.6203,-122 3632.3797,-122 3632.3797,-86 3841.6203,-86 3841.6203,-122"/>
<text text-anchor="middle" x="3737" y="-99.8" font-family="Times,serif" font-size="14.00" fill="#000000">ProductSelectableCardComponent</text>
</g>
<!-- ProductSelectableCardComponent&#45;&gt;ProductModule -->
<g id="edge14" class="edge">
<title>ProductSelectableCardComponent&#45;&gt;ProductModule</title>
<path fill="none" stroke="#000000" d="M3737,-122.0352C3737,-138.7344 3737,-161 3737,-161 3737,-161 2748.7115,-161 2748.7115,-161"/>
<polygon fill="#000000" stroke="#000000" points="2748.7116,-157.5001 2738.7115,-161 2748.7115,-164.5001 2748.7116,-157.5001"/>
</g>
<!-- ProductSmallCardComponent -->
<g id="node15" class="node">
<title>ProductSmallCardComponent</title>
<polygon fill="#ffffb3" stroke="#000000" points="3614.2618,-122 3429.7382,-122 3429.7382,-86 3614.2618,-86 3614.2618,-122"/>
<text text-anchor="middle" x="3522" y="-99.8" font-family="Times,serif" font-size="14.00" fill="#000000">ProductSmallCardComponent</text>
</g>
<!-- ProductSmallCardComponent&#45;&gt;ProductModule -->
<g id="edge15" class="edge">
<title>ProductSmallCardComponent&#45;&gt;ProductModule</title>
<path fill="none" stroke="#000000" d="M3522,-122.0091C3522,-138.0494 3522,-159 3522,-159 3522,-159 2748.6028,-159 2748.6028,-159"/>
<polygon fill="#000000" stroke="#000000" points="2748.6029,-155.5001 2738.6028,-159 2748.6028,-162.5001 2748.6029,-155.5001"/>
</g>
<!-- ProductSubInfoComponent -->
<g id="node16" class="node">
<title>ProductSubInfoComponent</title>
<polygon fill="#ffffb3" stroke="#000000" points="3411.9846,-122 3242.0154,-122 3242.0154,-86 3411.9846,-86 3411.9846,-122"/>
<text text-anchor="middle" x="3327" y="-99.8" font-family="Times,serif" font-size="14.00" fill="#000000">ProductSubInfoComponent</text>
</g>
<!-- ProductSubInfoComponent&#45;&gt;ProductModule -->
<g id="edge16" class="edge">
<title>ProductSubInfoComponent&#45;&gt;ProductModule</title>
<path fill="none" stroke="#000000" d="M3327,-122.2396C3327,-137.5706 3327,-157 3327,-157 3327,-157 2748.5616,-157 2748.5616,-157"/>
<polygon fill="#000000" stroke="#000000" points="2748.5616,-153.5001 2738.5616,-157 2748.5616,-160.5001 2748.5616,-153.5001"/>
</g>
<!-- ProductSummaryComponent -->
<g id="node17" class="node">
<title>ProductSummaryComponent</title>
<polygon fill="#ffffb3" stroke="#000000" points="3223.8201,-122 3044.1799,-122 3044.1799,-86 3223.8201,-86 3223.8201,-122"/>
<text text-anchor="middle" x="3134" y="-99.8" font-family="Times,serif" font-size="14.00" fill="#000000">ProductSummaryComponent</text>
</g>
<!-- ProductSummaryComponent&#45;&gt;ProductModule -->
<g id="edge17" class="edge">
<title>ProductSummaryComponent&#45;&gt;ProductModule</title>
<path fill="none" stroke="#000000" d="M3134,-122.1243C3134,-136.7832 3134,-155 3134,-155 3134,-155 2748.7133,-155 2748.7133,-155"/>
<polygon fill="#000000" stroke="#000000" points="2748.7133,-151.5001 2738.7133,-155 2748.7132,-158.5001 2748.7133,-151.5001"/>
</g>
<!-- ProductsPageComponent -->
<g id="node18" class="node">
<title>ProductsPageComponent</title>
<polygon fill="#ffffb3" stroke="#000000" points="3026.5379,-122 2869.4621,-122 2869.4621,-86 3026.5379,-86 3026.5379,-122"/>
<text text-anchor="middle" x="2948" y="-99.8" font-family="Times,serif" font-size="14.00" fill="#000000">ProductsPageComponent</text>
</g>
<!-- ProductsPageComponent&#45;&gt;ProductModule -->
<g id="edge18" class="edge">
<title>ProductsPageComponent&#45;&gt;ProductModule</title>
<path fill="none" stroke="#000000" d="M2948,-122.2458C2948,-136.1772 2948,-153 2948,-153 2948,-153 2748.5652,-153 2748.5652,-153"/>
<polygon fill="#000000" stroke="#000000" points="2748.5652,-149.5001 2738.5652,-153 2748.5652,-156.5001 2748.5652,-149.5001"/>
</g>
<!-- ProjectCardComponent -->
<g id="node19" class="node">
<title>ProjectCardComponent</title>
<polygon fill="#ffffb3" stroke="#000000" points="2851.1979,-122 2702.8021,-122 2702.8021,-86 2851.1979,-86 2851.1979,-122"/>
<text text-anchor="middle" x="2777" y="-99.8" font-family="Times,serif" font-size="14.00" fill="#000000">ProjectCardComponent</text>
</g>
<!-- ProjectCardComponent&#45;&gt;ProductModule -->
<g id="edge19" class="edge">
<title>ProjectCardComponent&#45;&gt;ProductModule</title>
<path fill="none" stroke="#000000" d="M2720.7251,-122.1061C2720.7251,-122.1061 2720.7251,-140.991 2720.7251,-140.991"/>
<polygon fill="#000000" stroke="#000000" points="2717.2252,-140.9909 2720.7251,-150.991 2724.2252,-140.991 2717.2252,-140.9909"/>
</g>
<!-- SelectableImageComponent -->
<g id="node20" class="node">
<title>SelectableImageComponent</title>
<polygon fill="#ffffb3" stroke="#000000" points="2684.8403,-122 2511.1597,-122 2511.1597,-86 2684.8403,-86 2684.8403,-122"/>
<text text-anchor="middle" x="2598" y="-99.8" font-family="Times,serif" font-size="14.00" fill="#000000">SelectableImageComponent</text>
</g>
<!-- SelectableImageComponent&#45;&gt;ProductModule -->
<g id="edge20" class="edge">
<title>SelectableImageComponent&#45;&gt;ProductModule</title>
<path fill="none" stroke="#000000" d="M2660.1855,-122.1061C2660.1855,-122.1061 2660.1855,-140.991 2660.1855,-140.991"/>
<polygon fill="#000000" stroke="#000000" points="2656.6856,-140.9909 2660.1855,-150.991 2663.6856,-140.991 2656.6856,-140.9909"/>
</g>
<!-- SelectionActionsComponent -->
<g id="node21" class="node">
<title>SelectionActionsComponent</title>
<polygon fill="#ffffb3" stroke="#000000" points="2493.4776,-122 2316.5224,-122 2316.5224,-86 2493.4776,-86 2493.4776,-122"/>
<text text-anchor="middle" x="2405" y="-99.8" font-family="Times,serif" font-size="14.00" fill="#000000">SelectionActionsComponent</text>
</g>
<!-- SelectionActionsComponent&#45;&gt;ProductModule -->
<g id="edge21" class="edge">
<title>SelectionActionsComponent&#45;&gt;ProductModule</title>
<path fill="none" stroke="#000000" d="M2405,-122.2458C2405,-136.1772 2405,-153 2405,-153 2405,-153 2625.2769,-153 2625.2769,-153"/>
<polygon fill="#000000" stroke="#000000" points="2625.2769,-156.5001 2635.2769,-153 2625.2768,-149.5001 2625.2769,-156.5001"/>
</g>
<!-- SupplierCardComponent -->
<g id="node22" class="node">
<title>SupplierCardComponent</title>
<polygon fill="#ffffb3" stroke="#000000" points="2298.9832,-122 2143.0168,-122 2143.0168,-86 2298.9832,-86 2298.9832,-122"/>
<text text-anchor="middle" x="2221" y="-99.8" font-family="Times,serif" font-size="14.00" fill="#000000">SupplierCardComponent</text>
</g>
<!-- SupplierCardComponent&#45;&gt;ProductModule -->
<g id="edge22" class="edge">
<title>SupplierCardComponent&#45;&gt;ProductModule</title>
<path fill="none" stroke="#000000" d="M2221,-122.1243C2221,-136.7832 2221,-155 2221,-155 2221,-155 2625.3494,-155 2625.3494,-155"/>
<polygon fill="#000000" stroke="#000000" points="2625.3494,-158.5001 2635.3494,-155 2625.3493,-151.5001 2625.3494,-158.5001"/>
</g>
<!-- ProductSmallCardComponent  -->
<g id="node37" class="node">
<title>ProductSmallCardComponent </title>
<polygon fill="#fb8072" stroke="#000000" points="2781.2618,-252 2592.7382,-252 2592.7382,-216 2781.2618,-216 2781.2618,-252"/>
<text text-anchor="middle" x="2687" y="-229.8" font-family="Times,serif" font-size="14.00" fill="#000000">ProductSmallCardComponent </text>
</g>
<!-- ProductModule&#45;&gt;ProductSmallCardComponent  -->
<g id="edge36" class="edge">
<title>ProductModule&#45;&gt;ProductSmallCardComponent </title>
<path fill="none" stroke="#000000" stroke-dasharray="5,2" d="M2687,-187.1061C2687,-187.1061 2687,-205.991 2687,-205.991"/>
<polygon fill="#000000" stroke="#000000" points="2683.5001,-205.9909 2687,-215.991 2690.5001,-205.991 2683.5001,-205.9909"/>
</g>
<!-- BadgeModule -->
<g id="node24" class="node">
<title>BadgeModule</title>
<polygon fill="#8dd3c7" stroke="#000000" points="2118.8161,-122 2115.8161,-126 2094.8161,-126 2091.8161,-122 2023.1839,-122 2023.1839,-86 2118.8161,-86 2118.8161,-122"/>
<text text-anchor="middle" x="2071" y="-99.8" font-family="Times,serif" font-size="14.00" fill="#000000">BadgeModule</text>
</g>
<!-- BadgeModule&#45;&gt;ProductModule -->
<g id="edge23" class="edge">
<title>BadgeModule&#45;&gt;ProductModule</title>
<path fill="none" stroke="#000000" d="M2071,-122.2396C2071,-137.5706 2071,-157 2071,-157 2071,-157 2625.2757,-157 2625.2757,-157"/>
<polygon fill="#000000" stroke="#000000" points="2625.2757,-160.5001 2635.2757,-157 2625.2756,-153.5001 2625.2757,-160.5001"/>
</g>
<!-- CarouselModule -->
<g id="node25" class="node">
<title>CarouselModule</title>
<polygon fill="#8dd3c7" stroke="#000000" points="2005.8118,-122 2002.8118,-126 1981.8118,-126 1978.8118,-122 1896.1882,-122 1896.1882,-86 2005.8118,-86 2005.8118,-122"/>
<text text-anchor="middle" x="1951" y="-99.8" font-family="Times,serif" font-size="14.00" fill="#000000">CarouselModule</text>
</g>
<!-- CarouselModule&#45;&gt;ProductModule -->
<g id="edge24" class="edge">
<title>CarouselModule&#45;&gt;ProductModule</title>
<path fill="none" stroke="#000000" d="M1951,-122.0091C1951,-138.0494 1951,-159 1951,-159 1951,-159 2625.2459,-159 2625.2459,-159"/>
<polygon fill="#000000" stroke="#000000" points="2625.2459,-162.5001 2635.2459,-159 2625.2459,-155.5001 2625.2459,-162.5001"/>
</g>
<!-- CommentModule -->
<g id="node26" class="node">
<title>CommentModule</title>
<polygon fill="#8dd3c7" stroke="#000000" points="1878.273,-122 1875.273,-126 1854.273,-126 1851.273,-122 1763.727,-122 1763.727,-86 1878.273,-86 1878.273,-122"/>
<text text-anchor="middle" x="1821" y="-99.8" font-family="Times,serif" font-size="14.00" fill="#000000">CommentModule</text>
</g>
<!-- CommentModule&#45;&gt;ProductModule -->
<g id="edge25" class="edge">
<title>CommentModule&#45;&gt;ProductModule</title>
<path fill="none" stroke="#000000" d="M1821,-122.0352C1821,-138.7344 1821,-161 1821,-161 1821,-161 2625.4212,-161 2625.4212,-161"/>
<polygon fill="#000000" stroke="#000000" points="2625.4212,-164.5001 2635.4212,-161 2625.4212,-157.5001 2625.4212,-164.5001"/>
</g>
<!-- DialogModule -->
<g id="node27" class="node">
<title>DialogModule</title>
<polygon fill="#8dd3c7" stroke="#000000" points="1745.6528,-122 1742.6528,-126 1721.6528,-126 1718.6528,-122 1648.3472,-122 1648.3472,-86 1745.6528,-86 1745.6528,-122"/>
<text text-anchor="middle" x="1697" y="-99.8" font-family="Times,serif" font-size="14.00" fill="#000000">DialogModule</text>
</g>
<!-- DialogModule&#45;&gt;ProductModule -->
<g id="edge26" class="edge">
<title>DialogModule&#45;&gt;ProductModule</title>
<path fill="none" stroke="#000000" d="M1697,-122.0225C1697,-139.3734 1697,-163 1697,-163 1697,-163 2625.1672,-163 2625.1672,-163"/>
<polygon fill="#000000" stroke="#000000" points="2625.1672,-166.5001 2635.1672,-163 2625.1672,-159.5001 2625.1672,-166.5001"/>
</g>
<!-- DynamicFormsModule -->
<g id="node28" class="node">
<title>DynamicFormsModule</title>
<polygon fill="#8dd3c7" stroke="#000000" points="1630.1456,-122 1627.1456,-126 1606.1456,-126 1603.1456,-122 1483.8544,-122 1483.8544,-86 1630.1456,-86 1630.1456,-122"/>
<text text-anchor="middle" x="1557" y="-99.8" font-family="Times,serif" font-size="14.00" fill="#000000">DynamicFormsModule</text>
</g>
<!-- DynamicFormsModule&#45;&gt;ProductModule -->
<g id="edge27" class="edge">
<title>DynamicFormsModule&#45;&gt;ProductModule</title>
<path fill="none" stroke="#000000" d="M1557,-122.302C1557,-140.2699 1557,-165 1557,-165 1557,-165 2625.1376,-165 2625.1376,-165"/>
<polygon fill="#000000" stroke="#000000" points="2625.1376,-168.5001 2635.1376,-165 2625.1375,-161.5001 2625.1376,-168.5001"/>
</g>
<!-- FileModule -->
<g id="node29" class="node">
<title>FileModule</title>
<polygon fill="#8dd3c7" stroke="#000000" points="1465.8289,-122 1462.8289,-126 1441.8289,-126 1438.8289,-122 1384.1711,-122 1384.1711,-86 1465.8289,-86 1465.8289,-122"/>
<text text-anchor="middle" x="1425" y="-99.8" font-family="Times,serif" font-size="14.00" fill="#000000">FileModule</text>
</g>
<!-- FileModule&#45;&gt;ProductModule -->
<g id="edge28" class="edge">
<title>FileModule&#45;&gt;ProductModule</title>
<path fill="none" stroke="#000000" d="M1425,-122.2222C1425,-140.8285 1425,-167 1425,-167 1425,-167 2625.1753,-167 2625.1753,-167"/>
<polygon fill="#000000" stroke="#000000" points="2625.1754,-170.5001 2635.1753,-167 2625.1753,-163.5001 2625.1754,-170.5001"/>
</g>
<!-- FiltersModule -->
<g id="node30" class="node">
<title>FiltersModule</title>
<polygon fill="#8dd3c7" stroke="#000000" points="1366.8246,-122 1363.8246,-126 1342.8246,-126 1339.8246,-122 1271.1754,-122 1271.1754,-86 1366.8246,-86 1366.8246,-122"/>
<text text-anchor="middle" x="1319" y="-99.8" font-family="Times,serif" font-size="14.00" fill="#000000">FiltersModule</text>
</g>
<!-- FiltersModule&#45;&gt;ProductModule -->
<g id="edge29" class="edge">
<title>FiltersModule&#45;&gt;ProductModule</title>
<path fill="none" stroke="#000000" d="M1319,-122.1061C1319,-141.3391 1319,-169 1319,-169 1319,-169 2625.0433,-169 2625.0433,-169"/>
<polygon fill="#000000" stroke="#000000" points="2625.0433,-172.5001 2635.0433,-169 2625.0432,-165.5001 2625.0433,-172.5001"/>
</g>
<!-- RatingModule -->
<g id="node31" class="node">
<title>RatingModule</title>
<polygon fill="#8dd3c7" stroke="#000000" points="1253.3823,-122 1250.3823,-126 1229.3823,-126 1226.3823,-122 1156.6177,-122 1156.6177,-86 1253.3823,-86 1253.3823,-122"/>
<text text-anchor="middle" x="1205" y="-99.8" font-family="Times,serif" font-size="14.00" fill="#000000">RatingModule</text>
</g>
<!-- RatingModule&#45;&gt;ProductModule -->
<g id="edge30" class="edge">
<title>RatingModule&#45;&gt;ProductModule</title>
<path fill="none" stroke="#000000" d="M1205,-122.0348C1205,-141.5762 1205,-170 1205,-170 1205,-170 2625.1238,-170 2625.1238,-170"/>
<polygon fill="#000000" stroke="#000000" points="2625.1238,-173.5001 2635.1238,-170 2625.1238,-166.5001 2625.1238,-173.5001"/>
</g>
<!-- SelectionBarModule -->
<g id="node32" class="node">
<title>SelectionBarModule</title>
<polygon fill="#8dd3c7" stroke="#000000" points="1138.8599,-122 1135.8599,-126 1114.8599,-126 1111.8599,-122 1007.1401,-122 1007.1401,-86 1138.8599,-86 1138.8599,-122"/>
<text text-anchor="middle" x="1073" y="-99.8" font-family="Times,serif" font-size="14.00" fill="#000000">SelectionBarModule</text>
</g>
<!-- SelectionBarModule&#45;&gt;ProductModule -->
<g id="edge31" class="edge">
<title>SelectionBarModule&#45;&gt;ProductModule</title>
<path fill="none" stroke="#000000" d="M1073,-122.2228C1073,-142.3652 1073,-172 1073,-172 1073,-172 2625.1273,-172 2625.1273,-172"/>
<polygon fill="#000000" stroke="#000000" points="2625.1274,-175.5001 2635.1273,-172 2625.1273,-168.5001 2625.1274,-175.5001"/>
</g>
<!-- SharedModule -->
<g id="node33" class="node">
<title>SharedModule</title>
<polygon fill="#8dd3c7" stroke="#000000" points="989.4231,-122 986.4231,-126 965.4231,-126 962.4231,-122 890.5769,-122 890.5769,-86 989.4231,-86 989.4231,-122"/>
<text text-anchor="middle" x="940" y="-99.8" font-family="Times,serif" font-size="14.00" fill="#000000">SharedModule</text>
</g>
<!-- SharedModule&#45;&gt;ProductModule -->
<g id="edge32" class="edge">
<title>SharedModule&#45;&gt;ProductModule</title>
<path fill="none" stroke="#000000" d="M940,-122.0267C940,-142.7672 940,-174 940,-174 940,-174 2625.1897,-174 2625.1897,-174"/>
<polygon fill="#000000" stroke="#000000" points="2625.1898,-177.5001 2635.1897,-174 2625.1897,-170.5001 2625.1898,-177.5001"/>
</g>
<!-- StatusModule -->
<g id="node34" class="node">
<title>StatusModule</title>
<polygon fill="#8dd3c7" stroke="#000000" points="872.7731,-122 869.7731,-126 848.7731,-126 845.7731,-122 779.2269,-122 779.2269,-86 872.7731,-86 872.7731,-122"/>
<text text-anchor="middle" x="826" y="-99.8" font-family="Times,serif" font-size="14.00" fill="#000000">StatusModule</text>
</g>
<!-- StatusModule&#45;&gt;ProductModule -->
<g id="edge33" class="edge">
<title>StatusModule&#45;&gt;ProductModule</title>
<path fill="none" stroke="#000000" d="M826,-122.1686C826,-143.498 826,-176 826,-176 826,-176 2625.2839,-176 2625.2839,-176"/>
<polygon fill="#000000" stroke="#000000" points="2625.2839,-179.5001 2635.2839,-176 2625.2838,-172.5001 2625.2839,-179.5001"/>
</g>
<!-- TableModule -->
<g id="node35" class="node">
<title>TableModule</title>
<polygon fill="#8dd3c7" stroke="#000000" points="760.9232,-122 757.9232,-126 736.9232,-126 733.9232,-122 669.0768,-122 669.0768,-86 760.9232,-86 760.9232,-122"/>
<text text-anchor="middle" x="715" y="-99.8" font-family="Times,serif" font-size="14.00" fill="#000000">TableModule</text>
</g>
<!-- TableModule&#45;&gt;ProductModule -->
<g id="edge34" class="edge">
<title>TableModule&#45;&gt;ProductModule</title>
<path fill="none" stroke="#000000" d="M715,-122.2921C715,-144.2057 715,-178 715,-178 715,-178 2625.2674,-178 2625.2674,-178"/>
<polygon fill="#000000" stroke="#000000" points="2625.2674,-181.5001 2635.2674,-178 2625.2674,-174.5001 2625.2674,-181.5001"/>
</g>
<!-- TopPanelModule -->
<g id="node36" class="node">
<title>TopPanelModule</title>
<polygon fill="#8dd3c7" stroke="#000000" points="651.705,-122 648.705,-126 627.705,-126 624.705,-122 538.295,-122 538.295,-86 651.705,-86 651.705,-122"/>
<text text-anchor="middle" x="595" y="-99.8" font-family="Times,serif" font-size="14.00" fill="#000000">TopPanelModule</text>
</g>
<!-- TopPanelModule&#45;&gt;ProductModule -->
<g id="edge35" class="edge">
<title>TopPanelModule&#45;&gt;ProductModule</title>
<path fill="none" stroke="#000000" d="M595,-122.0109C595,-144.4852 595,-180 595,-180 595,-180 2625.2874,-180 2625.2874,-180"/>
<polygon fill="#000000" stroke="#000000" points="2625.2874,-183.5001 2635.2874,-180 2625.2873,-176.5001 2625.2874,-183.5001"/>
</g>
<!-- ExportService -->
<g id="node38" class="node">
<title>ExportService</title>
<ellipse fill="#fdb462" stroke="#000000" cx="448" cy="-104" rx="66.0512" ry="18"/>
<text text-anchor="middle" x="448" y="-99.8" font-family="Times,serif" font-size="14.00" fill="#000000">ExportService</text>
</g>
<!-- ExportService&#45;&gt;ProductModule -->
<g id="edge37" class="edge">
<title>ExportService&#45;&gt;ProductModule</title>
<path fill="none" stroke="#000000" d="M448,-122.0908C448,-145.1328 448,-182 448,-182 448,-182 2625.221,-182 2625.221,-182"/>
<polygon fill="#000000" stroke="#000000" points="2625.221,-185.5001 2635.221,-182 2625.221,-178.5001 2625.221,-185.5001"/>
</g>
<!-- ProductFeatureService -->
<g id="node39" class="node">
<title>ProductFeatureService</title>
<ellipse fill="#fdb462" stroke="#000000" cx="265" cy="-104" rx="98.9723" ry="18"/>
<text text-anchor="middle" x="265" y="-99.8" font-family="Times,serif" font-size="14.00" fill="#000000">ProductFeatureService</text>
</g>
<!-- ProductFeatureService&#45;&gt;ProductModule -->
<g id="edge38" class="edge">
<title>ProductFeatureService&#45;&gt;ProductModule</title>
<path fill="none" stroke="#000000" d="M265,-122.1532C265,-145.7566 265,-184 265,-184 265,-184 2625.2926,-184 2625.2926,-184"/>
<polygon fill="#000000" stroke="#000000" points="2625.2926,-187.5001 2635.2926,-184 2625.2926,-180.5001 2625.2926,-187.5001"/>
</g>
<!-- TeamService -->
<g id="node40" class="node">
<title>TeamService</title>
<ellipse fill="#fdb462" stroke="#000000" cx="86" cy="-104" rx="61.9538" ry="18"/>
<text text-anchor="middle" x="86" y="-99.8" font-family="Times,serif" font-size="14.00" fill="#000000">TeamService</text>
</g>
<!-- TeamService&#45;&gt;ProductModule -->
<g id="edge39" class="edge">
<title>TeamService&#45;&gt;ProductModule</title>
<path fill="none" stroke="#000000" d="M86,-122.1985C86,-146.3563 86,-186 86,-186 86,-186 2625.3368,-186 2625.3368,-186"/>
<polygon fill="#000000" stroke="#000000" points="2625.3368,-189.5001 2635.3368,-186 2625.3367,-182.5001 2625.3368,-189.5001"/>
</g>
</g>
</svg>
