<?xml version="1.0" encoding="UTF-8" standalone="no"?>
<!DOCTYPE svg PUBLIC "-//W3C//DTD SVG 1.1//EN"
 "http://www.w3.org/Graphics/SVG/1.1/DTD/svg11.dtd">
<!-- Generated by graphviz version 2.40.1 (20161225.0304)
 -->
<!-- Title: dependencies Pages: 1 -->
<svg width="964pt" height="284pt"
 viewBox="0.00 0.00 964.00 284.00" xmlns="http://www.w3.org/2000/svg" xmlns:xlink="http://www.w3.org/1999/xlink">
<g id="graph0" class="graph" transform="scale(1 1) rotate(0) translate(4 280)">
<title>dependencies</title>
<polygon fill="#ffffff" stroke="transparent" points="-4,4 -4,-280 960,-280 960,4 -4,4"/>
<text text-anchor="start" x="457.0091" y="-42.4" font-family="sans-serif" font-weight="bold" font-size="14.00" fill="#000000">Legend</text>
<polygon fill="#ffffb3" stroke="transparent" points="244,-10 244,-30 264,-30 264,-10 244,-10"/>
<text text-anchor="start" x="267.629" y="-15.4" font-family="sans-serif" font-size="14.00" fill="#000000"> &#160;Declarations</text>
<polygon fill="#8dd3c7" stroke="transparent" points="357,-10 357,-30 377,-30 377,-10 357,-10"/>
<text text-anchor="start" x="380.7251" y="-15.4" font-family="sans-serif" font-size="14.00" fill="#000000"> &#160;Module</text>
<polygon fill="#80b1d3" stroke="transparent" points="443,-10 443,-30 463,-30 463,-10 443,-10"/>
<text text-anchor="start" x="466.7812" y="-15.4" font-family="sans-serif" font-size="14.00" fill="#000000"> &#160;Bootstrap</text>
<polygon fill="#fdb462" stroke="transparent" points="540,-10 540,-30 560,-30 560,-10 540,-10"/>
<text text-anchor="start" x="563.6732" y="-15.4" font-family="sans-serif" font-size="14.00" fill="#000000"> &#160;Providers</text>
<polygon fill="#fb8072" stroke="transparent" points="636,-10 636,-30 656,-30 656,-10 636,-10"/>
<text text-anchor="start" x="659.7258" y="-15.4" font-family="sans-serif" font-size="14.00" fill="#000000"> &#160;Exports</text>
<g id="clust1" class="cluster">
<title>cluster_SidenavModule</title>
<polygon fill="none" stroke="#000000" stroke-dasharray="1,5" points="8,-70 8,-268 948,-268 948,-70 8,-70"/>
</g>
<g id="clust2" class="cluster">
<title>cluster_SidenavModule_declarations</title>
<polygon fill="none" stroke="#000000" points="234,-78 234,-130 940,-130 940,-78 234,-78"/>
</g>
<g id="clust7" class="cluster">
<title>cluster_SidenavModule_imports</title>
<polygon fill="none" stroke="#000000" points="16,-78 16,-130 226,-130 226,-78 16,-78"/>
</g>
<g id="clust8" class="cluster">
<title>cluster_SidenavModule_exports</title>
<polygon fill="none" stroke="#000000" points="71,-208 71,-260 792,-260 792,-208 71,-208"/>
</g>
<!-- SidenavComponent -->
<g id="node1" class="node">
<title>SidenavComponent</title>
<polygon fill="#ffffb3" stroke="#000000" points="932.4356,-122 805.5644,-122 805.5644,-86 932.4356,-86 932.4356,-122"/>
<text text-anchor="middle" x="869" y="-99.8" font-family="Times,serif" font-size="14.00" fill="#000000">SidenavComponent</text>
</g>
<!-- SidenavModule -->
<g id="node5" class="node">
<title>SidenavModule</title>
<polygon fill="#8dd3c7" stroke="#000000" points="473.1528,-187 470.1528,-191 449.1528,-191 446.1528,-187 368.8472,-187 368.8472,-151 473.1528,-151 473.1528,-187"/>
<text text-anchor="middle" x="421" y="-164.8" font-family="Times,serif" font-size="14.00" fill="#000000">SidenavModule</text>
</g>
<!-- SidenavComponent&#45;&gt;SidenavModule -->
<g id="edge1" class="edge">
<title>SidenavComponent&#45;&gt;SidenavModule</title>
<path fill="none" stroke="#000000" d="M869,-122.1061C869,-141.3391 869,-169 869,-169 869,-169 483.2681,-169 483.2681,-169"/>
<polygon fill="#000000" stroke="#000000" points="483.2681,-165.5001 473.2681,-169 483.268,-172.5001 483.2681,-165.5001"/>
</g>
<!-- SidenavItemComponent -->
<g id="node2" class="node">
<title>SidenavItemComponent</title>
<polygon fill="#ffffb3" stroke="#000000" points="788.0912,-122 635.9088,-122 635.9088,-86 788.0912,-86 788.0912,-122"/>
<text text-anchor="middle" x="712" y="-99.8" font-family="Times,serif" font-size="14.00" fill="#000000">SidenavItemComponent</text>
</g>
<!-- SidenavItemComponent&#45;&gt;SidenavModule -->
<g id="edge2" class="edge">
<title>SidenavItemComponent&#45;&gt;SidenavModule</title>
<path fill="none" stroke="#000000" d="M644.9935,-122.027C644.9935,-138.3976 644.9935,-160 644.9935,-160 644.9935,-160 483.2338,-160 483.2338,-160"/>
<polygon fill="#000000" stroke="#000000" points="483.2339,-156.5001 473.2338,-160 483.2338,-163.5001 483.2339,-156.5001"/>
</g>
<!-- SidenavItemGroupComponent -->
<g id="node3" class="node">
<title>SidenavItemGroupComponent</title>
<polygon fill="#ffffb3" stroke="#000000" points="617.8585,-122 430.1415,-122 430.1415,-86 617.8585,-86 617.8585,-122"/>
<text text-anchor="middle" x="524" y="-99.8" font-family="Times,serif" font-size="14.00" fill="#000000">SidenavItemGroupComponent</text>
</g>
<!-- SidenavItemGroupComponent&#45;&gt;SidenavModule -->
<g id="edge3" class="edge">
<title>SidenavItemGroupComponent&#45;&gt;SidenavModule</title>
<path fill="none" stroke="#000000" d="M451.6985,-122.1061C451.6985,-122.1061 451.6985,-140.991 451.6985,-140.991"/>
<polygon fill="#000000" stroke="#000000" points="448.1985,-140.9909 451.6985,-150.991 455.1985,-140.991 448.1985,-140.9909"/>
</g>
<!-- SidenavItemLabelDirective -->
<g id="node4" class="node">
<title>SidenavItemLabelDirective</title>
<polygon fill="#ffffb3" stroke="#000000" points="412.2142,-122 241.7858,-122 241.7858,-86 412.2142,-86 412.2142,-122"/>
<text text-anchor="middle" x="327" y="-99.8" font-family="Times,serif" font-size="14.00" fill="#000000">SidenavItemLabelDirective</text>
</g>
<!-- SidenavItemLabelDirective&#45;&gt;SidenavModule -->
<g id="edge4" class="edge">
<title>SidenavItemLabelDirective&#45;&gt;SidenavModule</title>
<path fill="none" stroke="#000000" d="M390.5155,-122.1061C390.5155,-122.1061 390.5155,-140.991 390.5155,-140.991"/>
<polygon fill="#000000" stroke="#000000" points="387.0155,-140.9909 390.5155,-150.991 394.0155,-140.991 387.0155,-140.9909"/>
</g>
<!-- SidenavComponent  -->
<g id="node8" class="node">
<title>SidenavComponent </title>
<polygon fill="#fb8072" stroke="#000000" points="783.9348,-252 654.0652,-252 654.0652,-216 783.9348,-216 783.9348,-252"/>
<text text-anchor="middle" x="719" y="-229.8" font-family="Times,serif" font-size="14.00" fill="#000000">SidenavComponent </text>
</g>
<!-- SidenavModule&#45;&gt;SidenavComponent  -->
<g id="edge7" class="edge">
<title>SidenavModule&#45;&gt;SidenavComponent </title>
<path fill="none" stroke="#000000" stroke-dasharray="5,2" d="M473.2486,-178C558.7138,-178 719,-178 719,-178 719,-178 719,-205.973 719,-205.973"/>
<polygon fill="#000000" stroke="#000000" points="715.5001,-205.973 719,-215.973 722.5001,-205.973 715.5001,-205.973"/>
</g>
<!-- SidenavItemComponent  -->
<g id="node9" class="node">
<title>SidenavItemComponent </title>
<polygon fill="#fb8072" stroke="#000000" points="635.5917,-252 480.4083,-252 480.4083,-216 635.5917,-216 635.5917,-252"/>
<text text-anchor="middle" x="558" y="-229.8" font-family="Times,serif" font-size="14.00" fill="#000000">SidenavItemComponent </text>
</g>
<!-- SidenavModule&#45;&gt;SidenavItemComponent  -->
<g id="edge8" class="edge">
<title>SidenavModule&#45;&gt;SidenavItemComponent </title>
<path fill="none" stroke="#000000" stroke-dasharray="5,2" d="M468.0027,-187.1061C468.0027,-206.3391 468.0027,-234 468.0027,-234 468.0027,-234 470.1401,-234 470.1401,-234"/>
<polygon fill="#000000" stroke="#000000" points="470.1401,-237.5001 480.1401,-234 470.1401,-230.5001 470.1401,-237.5001"/>
</g>
<!-- SidenavItemGroupComponent  -->
<g id="node10" class="node">
<title>SidenavItemGroupComponent </title>
<polygon fill="#fb8072" stroke="#000000" points="462.8587,-252 271.1413,-252 271.1413,-216 462.8587,-216 462.8587,-252"/>
<text text-anchor="middle" x="367" y="-229.8" font-family="Times,serif" font-size="14.00" fill="#000000">SidenavItemGroupComponent </text>
</g>
<!-- SidenavModule&#45;&gt;SidenavItemGroupComponent  -->
<g id="edge9" class="edge">
<title>SidenavModule&#45;&gt;SidenavItemGroupComponent </title>
<path fill="none" stroke="#000000" stroke-dasharray="5,2" d="M415.6766,-187.1061C415.6766,-187.1061 415.6766,-205.991 415.6766,-205.991"/>
<polygon fill="#000000" stroke="#000000" points="412.1766,-205.9909 415.6766,-215.991 419.1766,-205.991 412.1766,-205.9909"/>
</g>
<!-- SidenavItemLabelDirective  -->
<g id="node11" class="node">
<title>SidenavItemLabelDirective </title>
<polygon fill="#fb8072" stroke="#000000" points="253.2141,-252 78.7859,-252 78.7859,-216 253.2141,-216 253.2141,-252"/>
<text text-anchor="middle" x="166" y="-229.8" font-family="Times,serif" font-size="14.00" fill="#000000">SidenavItemLabelDirective </text>
</g>
<!-- SidenavModule&#45;&gt;SidenavItemLabelDirective  -->
<g id="edge10" class="edge">
<title>SidenavModule&#45;&gt;SidenavItemLabelDirective </title>
<path fill="none" stroke="#000000" stroke-dasharray="5,2" d="M368.4356,-178C317.3333,-178 247.375,-178 247.375,-178 247.375,-178 247.375,-205.973 247.375,-205.973"/>
<polygon fill="#000000" stroke="#000000" points="243.8751,-205.973 247.375,-215.973 250.8751,-205.973 243.8751,-205.973"/>
</g>
<!-- IconsModule -->
<g id="node6" class="node">
<title>IconsModule</title>
<polygon fill="#8dd3c7" stroke="#000000" points="217.8697,-122 214.8697,-126 193.8697,-126 190.8697,-122 128.1303,-122 128.1303,-86 217.8697,-86 217.8697,-122"/>
<text text-anchor="middle" x="173" y="-99.8" font-family="Times,serif" font-size="14.00" fill="#000000">IconsModule</text>
</g>
<!-- IconsModule&#45;&gt;SidenavModule -->
<g id="edge5" class="edge">
<title>IconsModule&#45;&gt;SidenavModule</title>
<path fill="none" stroke="#000000" d="M173,-122.027C173,-138.3976 173,-160 173,-160 173,-160 358.7086,-160 358.7086,-160"/>
<polygon fill="#000000" stroke="#000000" points="358.7087,-163.5001 368.7086,-160 358.7086,-156.5001 358.7087,-163.5001"/>
</g>
<!-- UtilsModule -->
<g id="node7" class="node">
<title>UtilsModule</title>
<polygon fill="#8dd3c7" stroke="#000000" points="110.2731,-122 107.2731,-126 86.2731,-126 83.2731,-122 23.7269,-122 23.7269,-86 110.2731,-86 110.2731,-122"/>
<text text-anchor="middle" x="67" y="-99.8" font-family="Times,serif" font-size="14.00" fill="#000000">UtilsModule</text>
</g>
<!-- UtilsModule&#45;&gt;SidenavModule -->
<g id="edge6" class="edge">
<title>UtilsModule&#45;&gt;SidenavModule</title>
<path fill="none" stroke="#000000" d="M94.6397,-122.1061C94.6397,-141.3391 94.6397,-169 94.6397,-169 94.6397,-169 358.5646,-169 358.5646,-169"/>
<polygon fill="#000000" stroke="#000000" points="358.5646,-172.5001 368.5646,-169 358.5645,-165.5001 358.5646,-172.5001"/>
</g>
</g>
</svg>
