<?xml version="1.0" encoding="UTF-8" standalone="no"?>
<!DOCTYPE svg PUBLIC "-//W3C//DTD SVG 1.1//EN"
 "http://www.w3.org/Graphics/SVG/1.1/DTD/svg11.dtd">
<!-- Generated by graphviz version 2.40.1 (20161225.0304)
 -->
<!-- Title: dependencies Pages: 1 -->
<svg width="1350pt" height="284pt"
 viewBox="0.00 0.00 1350.00 284.00" xmlns="http://www.w3.org/2000/svg" xmlns:xlink="http://www.w3.org/1999/xlink">
<g id="graph0" class="graph" transform="scale(1 1) rotate(0) translate(4 280)">
<title>dependencies</title>
<polygon fill="#ffffff" stroke="transparent" points="-4,4 -4,-280 1346,-280 1346,4 -4,4"/>
<text text-anchor="start" x="650.0091" y="-42.4" font-family="sans-serif" font-weight="bold" font-size="14.00" fill="#000000">Legend</text>
<polygon fill="#ffffb3" stroke="transparent" points="437,-10 437,-30 457,-30 457,-10 437,-10"/>
<text text-anchor="start" x="460.629" y="-15.4" font-family="sans-serif" font-size="14.00" fill="#000000"> &#160;Declarations</text>
<polygon fill="#8dd3c7" stroke="transparent" points="550,-10 550,-30 570,-30 570,-10 550,-10"/>
<text text-anchor="start" x="573.7251" y="-15.4" font-family="sans-serif" font-size="14.00" fill="#000000"> &#160;Module</text>
<polygon fill="#80b1d3" stroke="transparent" points="636,-10 636,-30 656,-30 656,-10 636,-10"/>
<text text-anchor="start" x="659.7812" y="-15.4" font-family="sans-serif" font-size="14.00" fill="#000000"> &#160;Bootstrap</text>
<polygon fill="#fdb462" stroke="transparent" points="733,-10 733,-30 753,-30 753,-10 733,-10"/>
<text text-anchor="start" x="756.6732" y="-15.4" font-family="sans-serif" font-size="14.00" fill="#000000"> &#160;Providers</text>
<polygon fill="#fb8072" stroke="transparent" points="829,-10 829,-30 849,-30 849,-10 829,-10"/>
<text text-anchor="start" x="852.7258" y="-15.4" font-family="sans-serif" font-size="14.00" fill="#000000"> &#160;Exports</text>
<g id="clust1" class="cluster">
<title>cluster_DataManagementModule</title>
<polygon fill="none" stroke="#000000" stroke-dasharray="1,5" points="8,-70 8,-268 1334,-268 1334,-70 8,-70"/>
</g>
<g id="clust2" class="cluster">
<title>cluster_DataManagementModule_declarations</title>
<polygon fill="none" stroke="#000000" points="858,-78 858,-130 1326,-130 1326,-78 858,-78"/>
</g>
<g id="clust5" class="cluster">
<title>cluster_DataManagementModule_imports</title>
<polygon fill="none" stroke="#000000" points="360,-78 360,-130 850,-130 850,-78 360,-78"/>
</g>
<g id="clust6" class="cluster">
<title>cluster_DataManagementModule_exports</title>
<polygon fill="none" stroke="#000000" points="492,-208 492,-260 720,-260 720,-208 492,-208"/>
</g>
<g id="clust8" class="cluster">
<title>cluster_DataManagementModule_providers</title>
<polygon fill="none" stroke="#000000" points="16,-78 16,-130 352,-130 352,-78 16,-78"/>
</g>
<!-- DataManagementPageComponent -->
<g id="node1" class="node">
<title>DataManagementPageComponent</title>
<polygon fill="#ffffb3" stroke="#000000" points="1318.0548,-122 1109.9452,-122 1109.9452,-86 1318.0548,-86 1318.0548,-122"/>
<text text-anchor="middle" x="1214" y="-99.8" font-family="Times,serif" font-size="14.00" fill="#000000">DataManagementPageComponent</text>
</g>
<!-- DataManagementModule -->
<g id="node3" class="node">
<title>DataManagementModule</title>
<polygon fill="#8dd3c7" stroke="#000000" points="685.5604,-187 682.5604,-191 661.5604,-191 658.5604,-187 526.4396,-187 526.4396,-151 685.5604,-151 685.5604,-187"/>
<text text-anchor="middle" x="606" y="-164.8" font-family="Times,serif" font-size="14.00" fill="#000000">DataManagementModule</text>
</g>
<!-- DataManagementPageComponent&#45;&gt;DataManagementModule -->
<g id="edge1" class="edge">
<title>DataManagementPageComponent&#45;&gt;DataManagementModule</title>
<path fill="none" stroke="#000000" d="M1214,-122.2921C1214,-144.2057 1214,-178 1214,-178 1214,-178 695.7978,-178 695.7978,-178"/>
<polygon fill="#000000" stroke="#000000" points="695.7978,-174.5001 685.7978,-178 695.7977,-181.5001 695.7978,-174.5001"/>
</g>
<!-- DataMananagementTableComponent -->
<g id="node2" class="node">
<title>DataMananagementTableComponent</title>
<polygon fill="#ffffb3" stroke="#000000" points="1091.93,-122 866.07,-122 866.07,-86 1091.93,-86 1091.93,-122"/>
<text text-anchor="middle" x="979" y="-99.8" font-family="Times,serif" font-size="14.00" fill="#000000">DataMananagementTableComponent</text>
</g>
<!-- DataMananagementTableComponent&#45;&gt;DataManagementModule -->
<g id="edge2" class="edge">
<title>DataMananagementTableComponent&#45;&gt;DataManagementModule</title>
<path fill="none" stroke="#000000" d="M979,-122.1061C979,-141.3391 979,-169 979,-169 979,-169 695.5604,-169 695.5604,-169"/>
<polygon fill="#000000" stroke="#000000" points="695.5604,-165.5001 685.5604,-169 695.5603,-172.5001 695.5604,-165.5001"/>
</g>
<!-- DataManagementPageComponent  -->
<g id="node8" class="node">
<title>DataManagementPageComponent </title>
<polygon fill="#fb8072" stroke="#000000" points="711.5553,-252 500.4447,-252 500.4447,-216 711.5553,-216 711.5553,-252"/>
<text text-anchor="middle" x="606" y="-229.8" font-family="Times,serif" font-size="14.00" fill="#000000">DataManagementPageComponent </text>
</g>
<!-- DataManagementModule&#45;&gt;DataManagementPageComponent  -->
<g id="edge7" class="edge">
<title>DataManagementModule&#45;&gt;DataManagementPageComponent </title>
<path fill="none" stroke="#000000" stroke-dasharray="5,2" d="M606,-187.1061C606,-187.1061 606,-205.991 606,-205.991"/>
<polygon fill="#000000" stroke="#000000" points="602.5001,-205.9909 606,-215.991 609.5001,-205.991 602.5001,-205.9909"/>
</g>
<!-- SharedModule -->
<g id="node4" class="node">
<title>SharedModule</title>
<polygon fill="#8dd3c7" stroke="#000000" points="842.4231,-122 839.4231,-126 818.4231,-126 815.4231,-122 743.5769,-122 743.5769,-86 842.4231,-86 842.4231,-122"/>
<text text-anchor="middle" x="793" y="-99.8" font-family="Times,serif" font-size="14.00" fill="#000000">SharedModule</text>
</g>
<!-- SharedModule&#45;&gt;DataManagementModule -->
<g id="edge3" class="edge">
<title>SharedModule&#45;&gt;DataManagementModule</title>
<path fill="none" stroke="#000000" d="M793,-122.027C793,-138.3976 793,-160 793,-160 793,-160 695.576,-160 695.576,-160"/>
<polygon fill="#000000" stroke="#000000" points="695.576,-156.5001 685.576,-160 695.576,-163.5001 695.576,-156.5001"/>
</g>
<!-- SideMenuModule -->
<g id="node5" class="node">
<title>SideMenuModule</title>
<polygon fill="#8dd3c7" stroke="#000000" points="725.5968,-122 722.5968,-126 701.5968,-126 698.5968,-122 608.4032,-122 608.4032,-86 725.5968,-86 725.5968,-122"/>
<text text-anchor="middle" x="667" y="-99.8" font-family="Times,serif" font-size="14.00" fill="#000000">SideMenuModule</text>
</g>
<!-- SideMenuModule&#45;&gt;DataManagementModule -->
<g id="edge4" class="edge">
<title>SideMenuModule&#45;&gt;DataManagementModule</title>
<path fill="none" stroke="#000000" d="M646.9909,-122.1061C646.9909,-122.1061 646.9909,-140.991 646.9909,-140.991"/>
<polygon fill="#000000" stroke="#000000" points="643.491,-140.9909 646.9909,-150.991 650.491,-140.991 643.491,-140.9909"/>
</g>
<!-- TableModule -->
<g id="node6" class="node">
<title>TableModule</title>
<polygon fill="#8dd3c7" stroke="#000000" points="590.9232,-122 587.9232,-126 566.9232,-126 563.9232,-122 499.0768,-122 499.0768,-86 590.9232,-86 590.9232,-122"/>
<text text-anchor="middle" x="545" y="-99.8" font-family="Times,serif" font-size="14.00" fill="#000000">TableModule</text>
</g>
<!-- TableModule&#45;&gt;DataManagementModule -->
<g id="edge5" class="edge">
<title>TableModule&#45;&gt;DataManagementModule</title>
<path fill="none" stroke="#000000" d="M558.5904,-122.1061C558.5904,-122.1061 558.5904,-140.991 558.5904,-140.991"/>
<polygon fill="#000000" stroke="#000000" points="555.0905,-140.9909 558.5904,-150.991 562.0905,-140.991 555.0905,-140.9909"/>
</g>
<!-- TopPanelModule -->
<g id="node7" class="node">
<title>TopPanelModule</title>
<polygon fill="#8dd3c7" stroke="#000000" points="481.705,-122 478.705,-126 457.705,-126 454.705,-122 368.295,-122 368.295,-86 481.705,-86 481.705,-122"/>
<text text-anchor="middle" x="425" y="-99.8" font-family="Times,serif" font-size="14.00" fill="#000000">TopPanelModule</text>
</g>
<!-- TopPanelModule&#45;&gt;DataManagementModule -->
<g id="edge6" class="edge">
<title>TopPanelModule&#45;&gt;DataManagementModule</title>
<path fill="none" stroke="#000000" d="M425,-122.027C425,-138.3976 425,-160 425,-160 425,-160 516.3474,-160 516.3474,-160"/>
<polygon fill="#000000" stroke="#000000" points="516.3474,-163.5001 526.3474,-160 516.3473,-156.5001 516.3474,-163.5001"/>
</g>
<!-- CategoryService -->
<g id="node9" class="node">
<title>CategoryService</title>
<ellipse fill="#fdb462" stroke="#000000" cx="269" cy="-104" rx="75.279" ry="18"/>
<text text-anchor="middle" x="269" y="-99.8" font-family="Times,serif" font-size="14.00" fill="#000000">CategoryService</text>
</g>
<!-- CategoryService&#45;&gt;DataManagementModule -->
<g id="edge8" class="edge">
<title>CategoryService&#45;&gt;DataManagementModule</title>
<path fill="none" stroke="#000000" d="M269,-122.1061C269,-141.3391 269,-169 269,-169 269,-169 516.1357,-169 516.1357,-169"/>
<polygon fill="#000000" stroke="#000000" points="516.1357,-172.5001 526.1357,-169 516.1357,-165.5001 516.1357,-172.5001"/>
</g>
<!-- SelectionService -->
<g id="node10" class="node">
<title>SelectionService</title>
<ellipse fill="#fdb462" stroke="#000000" cx="100" cy="-104" rx="75.8566" ry="18"/>
<text text-anchor="middle" x="100" y="-99.8" font-family="Times,serif" font-size="14.00" fill="#000000">SelectionService</text>
</g>
<!-- SelectionService&#45;&gt;DataManagementModule -->
<g id="edge9" class="edge">
<title>SelectionService&#45;&gt;DataManagementModule</title>
<path fill="none" stroke="#000000" d="M100,-122.2921C100,-144.2057 100,-178 100,-178 100,-178 516.3809,-178 516.3809,-178"/>
<polygon fill="#000000" stroke="#000000" points="516.3809,-181.5001 526.3809,-178 516.3808,-174.5001 516.3809,-181.5001"/>
</g>
</g>
</svg>
