<?xml version="1.0" encoding="UTF-8" standalone="no"?>
<!DOCTYPE svg PUBLIC "-//W3C//DTD SVG 1.1//EN"
 "http://www.w3.org/Graphics/SVG/1.1/DTD/svg11.dtd">
<!-- Generated by graphviz version 2.40.1 (20161225.0304)
 -->
<!-- Title: dependencies Pages: 1 -->
<svg width="1180pt" height="284pt"
 viewBox="0.00 0.00 1180.00 284.00" xmlns="http://www.w3.org/2000/svg" xmlns:xlink="http://www.w3.org/1999/xlink">
<g id="graph0" class="graph" transform="scale(1 1) rotate(0) translate(4 280)">
<title>dependencies</title>
<polygon fill="#ffffff" stroke="transparent" points="-4,4 -4,-280 1176,-280 1176,4 -4,4"/>
<text text-anchor="start" x="565.0091" y="-42.4" font-family="sans-serif" font-weight="bold" font-size="14.00" fill="#000000">Legend</text>
<polygon fill="#ffffb3" stroke="transparent" points="352,-10 352,-30 372,-30 372,-10 352,-10"/>
<text text-anchor="start" x="375.629" y="-15.4" font-family="sans-serif" font-size="14.00" fill="#000000"> &#160;Declarations</text>
<polygon fill="#8dd3c7" stroke="transparent" points="465,-10 465,-30 485,-30 485,-10 465,-10"/>
<text text-anchor="start" x="488.7251" y="-15.4" font-family="sans-serif" font-size="14.00" fill="#000000"> &#160;Module</text>
<polygon fill="#80b1d3" stroke="transparent" points="551,-10 551,-30 571,-30 571,-10 551,-10"/>
<text text-anchor="start" x="574.7812" y="-15.4" font-family="sans-serif" font-size="14.00" fill="#000000"> &#160;Bootstrap</text>
<polygon fill="#fdb462" stroke="transparent" points="648,-10 648,-30 668,-30 668,-10 648,-10"/>
<text text-anchor="start" x="671.6732" y="-15.4" font-family="sans-serif" font-size="14.00" fill="#000000"> &#160;Providers</text>
<polygon fill="#fb8072" stroke="transparent" points="744,-10 744,-30 764,-30 764,-10 744,-10"/>
<text text-anchor="start" x="767.7258" y="-15.4" font-family="sans-serif" font-size="14.00" fill="#000000"> &#160;Exports</text>
<g id="clust1" class="cluster">
<title>cluster_DataManagementModule</title>
<polygon fill="none" stroke="#000000" stroke-dasharray="1,5" points="8,-70 8,-268 1164,-268 1164,-70 8,-70"/>
</g>
<g id="clust2" class="cluster">
<title>cluster_DataManagementModule_declarations</title>
<polygon fill="none" stroke="#000000" points="688,-78 688,-130 1156,-130 1156,-78 688,-78"/>
</g>
<g id="clust5" class="cluster">
<title>cluster_DataManagementModule_imports</title>
<polygon fill="none" stroke="#000000" points="190,-78 190,-130 680,-130 680,-78 190,-78"/>
</g>
<g id="clust6" class="cluster">
<title>cluster_DataManagementModule_exports</title>
<polygon fill="none" stroke="#000000" points="383,-208 383,-260 611,-260 611,-208 383,-208"/>
</g>
<g id="clust8" class="cluster">
<title>cluster_DataManagementModule_providers</title>
<polygon fill="none" stroke="#000000" points="16,-78 16,-130 182,-130 182,-78 16,-78"/>
</g>
<!-- DataManagementPageComponent -->
<g id="node1" class="node">
<title>DataManagementPageComponent</title>
<polygon fill="#ffffb3" stroke="#000000" points="1148.0548,-122 939.9452,-122 939.9452,-86 1148.0548,-86 1148.0548,-122"/>
<text text-anchor="middle" x="1044" y="-99.8" font-family="Times,serif" font-size="14.00" fill="#000000">DataManagementPageComponent</text>
</g>
<!-- DataManagementModule -->
<g id="node3" class="node">
<title>DataManagementModule</title>
<polygon fill="#8dd3c7" stroke="#000000" points="576.5604,-187 573.5604,-191 552.5604,-191 549.5604,-187 417.4396,-187 417.4396,-151 576.5604,-151 576.5604,-187"/>
<text text-anchor="middle" x="497" y="-164.8" font-family="Times,serif" font-size="14.00" fill="#000000">DataManagementModule</text>
</g>
<!-- DataManagementPageComponent&#45;&gt;DataManagementModule -->
<g id="edge1" class="edge">
<title>DataManagementPageComponent&#45;&gt;DataManagementModule</title>
<path fill="none" stroke="#000000" d="M1044,-122.2843C1044,-143.3211 1044,-175 1044,-175 1044,-175 586.5385,-175 586.5385,-175"/>
<polygon fill="#000000" stroke="#000000" points="586.5385,-171.5001 576.5385,-175 586.5385,-178.5001 586.5385,-171.5001"/>
</g>
<!-- DataMananagementTableComponent -->
<g id="node2" class="node">
<title>DataMananagementTableComponent</title>
<polygon fill="#ffffb3" stroke="#000000" points="921.93,-122 696.07,-122 696.07,-86 921.93,-86 921.93,-122"/>
<text text-anchor="middle" x="809" y="-99.8" font-family="Times,serif" font-size="14.00" fill="#000000">DataMananagementTableComponent</text>
</g>
<!-- DataMananagementTableComponent&#45;&gt;DataManagementModule -->
<g id="edge2" class="edge">
<title>DataMananagementTableComponent&#45;&gt;DataManagementModule</title>
<path fill="none" stroke="#000000" d="M809,-122.0225C809,-139.3734 809,-163 809,-163 809,-163 586.538,-163 586.538,-163"/>
<polygon fill="#000000" stroke="#000000" points="586.5381,-159.5001 576.538,-163 586.538,-166.5001 586.5381,-159.5001"/>
</g>
<!-- DataManagementPageComponent  -->
<g id="node8" class="node">
<title>DataManagementPageComponent </title>
<polygon fill="#fb8072" stroke="#000000" points="602.5553,-252 391.4447,-252 391.4447,-216 602.5553,-216 602.5553,-252"/>
<text text-anchor="middle" x="497" y="-229.8" font-family="Times,serif" font-size="14.00" fill="#000000">DataManagementPageComponent </text>
</g>
<!-- DataManagementModule&#45;&gt;DataManagementPageComponent  -->
<g id="edge7" class="edge">
<title>DataManagementModule&#45;&gt;DataManagementPageComponent </title>
<path fill="none" stroke="#000000" stroke-dasharray="5,2" d="M497,-187.1061C497,-187.1061 497,-205.991 497,-205.991"/>
<polygon fill="#000000" stroke="#000000" points="493.5001,-205.9909 497,-215.991 500.5001,-205.991 493.5001,-205.9909"/>
</g>
<!-- SharedModule -->
<g id="node4" class="node">
<title>SharedModule</title>
<polygon fill="#8dd3c7" stroke="#000000" points="672.4231,-122 669.4231,-126 648.4231,-126 645.4231,-122 573.5769,-122 573.5769,-86 672.4231,-86 672.4231,-122"/>
<text text-anchor="middle" x="623" y="-99.8" font-family="Times,serif" font-size="14.00" fill="#000000">SharedModule</text>
</g>
<!-- SharedModule&#45;&gt;DataManagementModule -->
<g id="edge3" class="edge">
<title>SharedModule&#45;&gt;DataManagementModule</title>
<path fill="none" stroke="#000000" d="M573.7829,-104C568.3144,-104 564.6687,-104 564.6687,-104 564.6687,-104 564.6687,-140.8939 564.6687,-140.8939"/>
<polygon fill="#000000" stroke="#000000" points="561.1687,-140.8938 564.6687,-150.8939 568.1687,-140.8939 561.1687,-140.8938"/>
</g>
<!-- SideMenuModule -->
<g id="node5" class="node">
<title>SideMenuModule</title>
<polygon fill="#8dd3c7" stroke="#000000" points="555.5968,-122 552.5968,-126 531.5968,-126 528.5968,-122 438.4032,-122 438.4032,-86 555.5968,-86 555.5968,-122"/>
<text text-anchor="middle" x="497" y="-99.8" font-family="Times,serif" font-size="14.00" fill="#000000">SideMenuModule</text>
</g>
<!-- SideMenuModule&#45;&gt;DataManagementModule -->
<g id="edge4" class="edge">
<title>SideMenuModule&#45;&gt;DataManagementModule</title>
<path fill="none" stroke="#000000" d="M497,-122.1061C497,-122.1061 497,-140.991 497,-140.991"/>
<polygon fill="#000000" stroke="#000000" points="493.5001,-140.9909 497,-150.991 500.5001,-140.991 493.5001,-140.9909"/>
</g>
<!-- TableModule -->
<g id="node6" class="node">
<title>TableModule</title>
<polygon fill="#8dd3c7" stroke="#000000" points="420.9232,-122 417.9232,-126 396.9232,-126 393.9232,-122 329.0768,-122 329.0768,-86 420.9232,-86 420.9232,-122"/>
<text text-anchor="middle" x="375" y="-99.8" font-family="Times,serif" font-size="14.00" fill="#000000">TableModule</text>
</g>
<!-- TableModule&#45;&gt;DataManagementModule -->
<g id="edge5" class="edge">
<title>TableModule&#45;&gt;DataManagementModule</title>
<path fill="none" stroke="#000000" d="M421.053,-104C426.17,-104 429.5814,-104 429.5814,-104 429.5814,-104 429.5814,-140.8939 429.5814,-140.8939"/>
<polygon fill="#000000" stroke="#000000" points="426.0814,-140.8938 429.5814,-150.8939 433.0814,-140.8939 426.0814,-140.8938"/>
</g>
<!-- TopPanelModule -->
<g id="node7" class="node">
<title>TopPanelModule</title>
<polygon fill="#8dd3c7" stroke="#000000" points="311.705,-122 308.705,-126 287.705,-126 284.705,-122 198.295,-122 198.295,-86 311.705,-86 311.705,-122"/>
<text text-anchor="middle" x="255" y="-99.8" font-family="Times,serif" font-size="14.00" fill="#000000">TopPanelModule</text>
</g>
<!-- TopPanelModule&#45;&gt;DataManagementModule -->
<g id="edge6" class="edge">
<title>TopPanelModule&#45;&gt;DataManagementModule</title>
<path fill="none" stroke="#000000" d="M255,-122.0225C255,-139.3734 255,-163 255,-163 255,-163 407.425,-163 407.425,-163"/>
<polygon fill="#000000" stroke="#000000" points="407.425,-166.5001 417.425,-163 407.4249,-159.5001 407.425,-166.5001"/>
</g>
<!-- CategoryService -->
<g id="node9" class="node">
<title>CategoryService</title>
<ellipse fill="#fdb462" stroke="#000000" cx="99" cy="-104" rx="75.279" ry="18"/>
<text text-anchor="middle" x="99" y="-99.8" font-family="Times,serif" font-size="14.00" fill="#000000">CategoryService</text>
</g>
<!-- CategoryService&#45;&gt;DataManagementModule -->
<g id="edge8" class="edge">
<title>CategoryService&#45;&gt;DataManagementModule</title>
<path fill="none" stroke="#000000" d="M99,-122.2843C99,-143.3211 99,-175 99,-175 99,-175 407.4153,-175 407.4153,-175"/>
<polygon fill="#000000" stroke="#000000" points="407.4154,-178.5001 417.4153,-175 407.4153,-171.5001 407.4154,-178.5001"/>
</g>
</g>
</svg>
