<svg xmlns="http://www.w3.org/2000/svg" width="49" height="39" viewBox="0 0 49 39">
    <g fill="none" fill-rule="evenodd">
        <path fill="#FFF" d="M-509-384H948V710H-509z"/>
        <g fill="#A3AFC6" fill-rule="nonzero">
            <path d="M20 31.548l-4.949-3.43L.903 37.72c.514.378 1.208.613 1.974.613h34.246c.763 0 1.454-.235 1.966-.613l-14.14-9.601L20 31.548zM39.097 12.33c-.514-.412-1.206-.663-1.974-.663H2.877c-.763 0-1.454.254-1.968.667l19.091 14 19.097-14.005zM0 14.3v21.591l13.809-10.673zM26.191 25.218L40 35.89v-21.6z"/>
        </g>
        <rect width="20" height="20" x=".143" y=".929" fill="#F3596C" rx="10" transform="translate(28)"/>
        <text fill="#FFF" font-family="SourceSansPro-Black, Source Sans Pro" font-size="12" font-weight="700" transform="translate(28)">
            <tspan x="4" y="15">02</tspan>
        </text>
    </g>
</svg>
