<?xml version="1.0" encoding="UTF-8" standalone="no"?>
<!DOCTYPE svg PUBLIC "-//W3C//DTD SVG 1.1//EN"
 "http://www.w3.org/Graphics/SVG/1.1/DTD/svg11.dtd">
<!-- Generated by graphviz version 2.40.1 (20161225.0304)
 -->
<!-- Title: dependencies Pages: 1 -->
<svg width="4336pt" height="284pt"
 viewBox="0.00 0.00 4336.00 284.00" xmlns="http://www.w3.org/2000/svg" xmlns:xlink="http://www.w3.org/1999/xlink">
<g id="graph0" class="graph" transform="scale(1 1) rotate(0) translate(4 280)">
<title>dependencies</title>
<polygon fill="#ffffff" stroke="transparent" points="-4,4 -4,-280 4332,-280 4332,4 -4,4"/>
<text text-anchor="start" x="2143.0091" y="-42.4" font-family="sans-serif" font-weight="bold" font-size="14.00" fill="#000000">Legend</text>
<polygon fill="#ffffb3" stroke="transparent" points="1930,-10 1930,-30 1950,-30 1950,-10 1930,-10"/>
<text text-anchor="start" x="1953.629" y="-15.4" font-family="sans-serif" font-size="14.00" fill="#000000"> &#160;Declarations</text>
<polygon fill="#8dd3c7" stroke="transparent" points="2043,-10 2043,-30 2063,-30 2063,-10 2043,-10"/>
<text text-anchor="start" x="2066.7251" y="-15.4" font-family="sans-serif" font-size="14.00" fill="#000000"> &#160;Module</text>
<polygon fill="#80b1d3" stroke="transparent" points="2129,-10 2129,-30 2149,-30 2149,-10 2129,-10"/>
<text text-anchor="start" x="2152.7812" y="-15.4" font-family="sans-serif" font-size="14.00" fill="#000000"> &#160;Bootstrap</text>
<polygon fill="#fdb462" stroke="transparent" points="2226,-10 2226,-30 2246,-30 2246,-10 2226,-10"/>
<text text-anchor="start" x="2249.6732" y="-15.4" font-family="sans-serif" font-size="14.00" fill="#000000"> &#160;Providers</text>
<polygon fill="#fb8072" stroke="transparent" points="2322,-10 2322,-30 2342,-30 2342,-10 2322,-10"/>
<text text-anchor="start" x="2345.7258" y="-15.4" font-family="sans-serif" font-size="14.00" fill="#000000"> &#160;Exports</text>
<g id="clust1" class="cluster">
<title>cluster_SuppliersModule</title>
<polygon fill="none" stroke="#000000" stroke-dasharray="1,5" points="8,-70 8,-268 4320,-268 4320,-70 8,-70"/>
</g>
<g id="clust2" class="cluster">
<title>cluster_SuppliersModule_declarations</title>
<polygon fill="none" stroke="#000000" points="1759,-78 1759,-130 4312,-130 4312,-78 1759,-78"/>
</g>
<g id="clust16" class="cluster">
<title>cluster_SuppliersModule_imports</title>
<polygon fill="none" stroke="#000000" points="414,-78 414,-130 1751,-130 1751,-78 414,-78"/>
</g>
<g id="clust17" class="cluster">
<title>cluster_SuppliersModule_exports</title>
<polygon fill="none" stroke="#000000" points="1678,-208 1678,-260 1858,-260 1858,-208 1678,-208"/>
</g>
<g id="clust19" class="cluster">
<title>cluster_SuppliersModule_providers</title>
<polygon fill="none" stroke="#000000" points="16,-78 16,-130 406,-130 406,-78 16,-78"/>
</g>
<!-- NewContactDlgComponent -->
<g id="node1" class="node">
<title>NewContactDlgComponent</title>
<polygon fill="#ffffb3" stroke="#000000" points="4304.3047,-122 4131.6953,-122 4131.6953,-86 4304.3047,-86 4304.3047,-122"/>
<text text-anchor="middle" x="4218" y="-99.8" font-family="Times,serif" font-size="14.00" fill="#000000">NewContactDlgComponent</text>
</g>
<!-- SuppliersModule -->
<g id="node14" class="node">
<title>SuppliersModule</title>
<polygon fill="#8dd3c7" stroke="#000000" points="1824.4342,-187 1821.4342,-191 1800.4342,-191 1797.4342,-187 1711.5658,-187 1711.5658,-151 1824.4342,-151 1824.4342,-187"/>
<text text-anchor="middle" x="1768" y="-164.8" font-family="Times,serif" font-size="14.00" fill="#000000">SuppliersModule</text>
</g>
<!-- NewContactDlgComponent&#45;&gt;SuppliersModule -->
<g id="edge1" class="edge">
<title>NewContactDlgComponent&#45;&gt;SuppliersModule</title>
<path fill="none" stroke="#000000" d="M4218,-122.3802C4218,-146.2785 4218,-185 4218,-185 4218,-185 1834.3633,-185 1834.3633,-185"/>
<polygon fill="#000000" stroke="#000000" points="1834.3633,-181.5001 1824.3633,-185 1834.3633,-188.5001 1834.3633,-181.5001"/>
</g>
<!-- NewSupplierDlgComponent -->
<g id="node2" class="node">
<title>NewSupplierDlgComponent</title>
<polygon fill="#ffffb3" stroke="#000000" points="4114.1965,-122 3937.8035,-122 3937.8035,-86 4114.1965,-86 4114.1965,-122"/>
<text text-anchor="middle" x="4026" y="-99.8" font-family="Times,serif" font-size="14.00" fill="#000000">NewSupplierDlgComponent</text>
</g>
<!-- NewSupplierDlgComponent&#45;&gt;SuppliersModule -->
<g id="edge2" class="edge">
<title>NewSupplierDlgComponent&#45;&gt;SuppliersModule</title>
<path fill="none" stroke="#000000" d="M4026,-122.0908C4026,-145.1328 4026,-182 4026,-182 4026,-182 1834.3794,-182 1834.3794,-182"/>
<polygon fill="#000000" stroke="#000000" points="1834.3794,-178.5001 1824.3794,-182 1834.3794,-185.5001 1834.3794,-178.5001"/>
</g>
<!-- SupplierContactCardComponent -->
<g id="node3" class="node">
<title>SupplierContactCardComponent</title>
<polygon fill="#ffffb3" stroke="#000000" points="3919.5308,-122 3720.4692,-122 3720.4692,-86 3919.5308,-86 3919.5308,-122"/>
<text text-anchor="middle" x="3820" y="-99.8" font-family="Times,serif" font-size="14.00" fill="#000000">SupplierContactCardComponent</text>
</g>
<!-- SupplierContactCardComponent&#45;&gt;SuppliersModule -->
<g id="edge3" class="edge">
<title>SupplierContactCardComponent&#45;&gt;SuppliersModule</title>
<path fill="none" stroke="#000000" d="M3820,-122.1554C3820,-144.3519 3820,-179 3820,-179 3820,-179 1834.2178,-179 1834.2178,-179"/>
<polygon fill="#000000" stroke="#000000" points="1834.2178,-175.5001 1824.2178,-179 1834.2178,-182.5001 1834.2178,-175.5001"/>
</g>
<!-- SupplierContactComponent -->
<g id="node4" class="node">
<title>SupplierContactComponent</title>
<polygon fill="#ffffb3" stroke="#000000" points="3702.3187,-122 3529.6813,-122 3529.6813,-86 3702.3187,-86 3702.3187,-122"/>
<text text-anchor="middle" x="3616" y="-99.8" font-family="Times,serif" font-size="14.00" fill="#000000">SupplierContactComponent</text>
</g>
<!-- SupplierContactComponent&#45;&gt;SuppliersModule -->
<g id="edge4" class="edge">
<title>SupplierContactComponent&#45;&gt;SuppliersModule</title>
<path fill="none" stroke="#000000" d="M3616,-122.1686C3616,-143.498 3616,-176 3616,-176 3616,-176 1834.316,-176 1834.316,-176"/>
<polygon fill="#000000" stroke="#000000" points="1834.316,-172.5001 1824.316,-176 1834.316,-179.5001 1834.316,-172.5001"/>
</g>
<!-- SupplierDescriptionComponent -->
<g id="node5" class="node">
<title>SupplierDescriptionComponent</title>
<polygon fill="#ffffb3" stroke="#000000" points="3512.0842,-122 3317.9158,-122 3317.9158,-86 3512.0842,-86 3512.0842,-122"/>
<text text-anchor="middle" x="3415" y="-99.8" font-family="Times,serif" font-size="14.00" fill="#000000">SupplierDescriptionComponent</text>
</g>
<!-- SupplierDescriptionComponent&#45;&gt;SuppliersModule -->
<g id="edge5" class="edge">
<title>SupplierDescriptionComponent&#45;&gt;SuppliersModule</title>
<path fill="none" stroke="#000000" d="M3415,-122.0267C3415,-142.7672 3415,-174 3415,-174 3415,-174 1834.217,-174 1834.217,-174"/>
<polygon fill="#000000" stroke="#000000" points="1834.217,-170.5001 1824.217,-174 1834.217,-177.5001 1834.217,-170.5001"/>
</g>
<!-- SupplierDetailsComponent -->
<g id="node6" class="node">
<title>SupplierDetailsComponent</title>
<polygon fill="#ffffb3" stroke="#000000" points="3300.4241,-122 3131.5759,-122 3131.5759,-86 3300.4241,-86 3300.4241,-122"/>
<text text-anchor="middle" x="3216" y="-99.8" font-family="Times,serif" font-size="14.00" fill="#000000">SupplierDetailsComponent</text>
</g>
<!-- SupplierDetailsComponent&#45;&gt;SuppliersModule -->
<g id="edge6" class="edge">
<title>SupplierDetailsComponent&#45;&gt;SuppliersModule</title>
<path fill="none" stroke="#000000" d="M3216,-122.308C3216,-142.1455 3216,-171 3216,-171 3216,-171 1834.3189,-171 1834.3189,-171"/>
<polygon fill="#000000" stroke="#000000" points="1834.3189,-167.5001 1824.3189,-171 1834.3189,-174.5001 1834.3189,-167.5001"/>
</g>
<!-- SupplierInfosComponent -->
<g id="node7" class="node">
<title>SupplierInfosComponent</title>
<polygon fill="#ffffb3" stroke="#000000" points="3113.5379,-122 2956.4621,-122 2956.4621,-86 3113.5379,-86 3113.5379,-122"/>
<text text-anchor="middle" x="3035" y="-99.8" font-family="Times,serif" font-size="14.00" fill="#000000">SupplierInfosComponent</text>
</g>
<!-- SupplierInfosComponent&#45;&gt;SuppliersModule -->
<g id="edge7" class="edge">
<title>SupplierInfosComponent&#45;&gt;SuppliersModule</title>
<path fill="none" stroke="#000000" d="M3035,-122.1686C3035,-141.0898 3035,-168 3035,-168 3035,-168 1834.4883,-168 1834.4883,-168"/>
<polygon fill="#000000" stroke="#000000" points="1834.4883,-164.5001 1824.4883,-168 1834.4883,-171.5001 1834.4883,-164.5001"/>
</g>
<!-- SupplierLatestProductsComponent -->
<g id="node8" class="node">
<title>SupplierLatestProductsComponent</title>
<polygon fill="#ffffb3" stroke="#000000" points="2937.972,-122 2726.028,-122 2726.028,-86 2937.972,-86 2937.972,-122"/>
<text text-anchor="middle" x="2832" y="-99.8" font-family="Times,serif" font-size="14.00" fill="#000000">SupplierLatestProductsComponent</text>
</g>
<!-- SupplierLatestProductsComponent&#45;&gt;SuppliersModule -->
<g id="edge8" class="edge">
<title>SupplierLatestProductsComponent&#45;&gt;SuppliersModule</title>
<path fill="none" stroke="#000000" d="M2832,-122.302C2832,-140.2699 2832,-165 2832,-165 2832,-165 1834.454,-165 1834.454,-165"/>
<polygon fill="#000000" stroke="#000000" points="1834.4541,-161.5001 1824.454,-165 1834.454,-168.5001 1834.4541,-161.5001"/>
</g>
<!-- SupplierListViewComponent -->
<g id="node9" class="node">
<title>SupplierListViewComponent</title>
<polygon fill="#ffffb3" stroke="#000000" points="2708.3682,-122 2527.6318,-122 2527.6318,-86 2708.3682,-86 2708.3682,-122"/>
<text text-anchor="middle" x="2618" y="-99.8" font-family="Times,serif" font-size="14.00" fill="#000000">SupplierListViewComponent</text>
</g>
<!-- SupplierListViewComponent&#45;&gt;SuppliersModule -->
<g id="edge9" class="edge">
<title>SupplierListViewComponent&#45;&gt;SuppliersModule</title>
<path fill="none" stroke="#000000" d="M2618,-122.0225C2618,-139.3734 2618,-163 2618,-163 2618,-163 1834.4291,-163 1834.4291,-163"/>
<polygon fill="#000000" stroke="#000000" points="1834.4292,-159.5001 1824.4291,-163 1834.4291,-166.5001 1834.4292,-159.5001"/>
</g>
<!-- SupplierMainComponent -->
<g id="node10" class="node">
<title>SupplierMainComponent</title>
<polygon fill="#ffffb3" stroke="#000000" points="2509.3215,-122 2350.6785,-122 2350.6785,-86 2509.3215,-86 2509.3215,-122"/>
<text text-anchor="middle" x="2430" y="-99.8" font-family="Times,serif" font-size="14.00" fill="#000000">SupplierMainComponent</text>
</g>
<!-- SupplierMainComponent&#45;&gt;SuppliersModule -->
<g id="edge10" class="edge">
<title>SupplierMainComponent&#45;&gt;SuppliersModule</title>
<path fill="none" stroke="#000000" d="M2430,-122.027C2430,-138.3976 2430,-160 2430,-160 2430,-160 1834.4417,-160 1834.4417,-160"/>
<polygon fill="#000000" stroke="#000000" points="1834.4418,-156.5001 1824.4417,-160 1834.4417,-163.5001 1834.4418,-156.5001"/>
</g>
<!-- SupplierMainTitleComponent -->
<g id="node11" class="node">
<title>SupplierMainTitleComponent</title>
<polygon fill="#ffffb3" stroke="#000000" points="2332.2604,-122 2147.7396,-122 2147.7396,-86 2332.2604,-86 2332.2604,-122"/>
<text text-anchor="middle" x="2240" y="-99.8" font-family="Times,serif" font-size="14.00" fill="#000000">SupplierMainTitleComponent</text>
</g>
<!-- SupplierMainTitleComponent&#45;&gt;SuppliersModule -->
<g id="edge11" class="edge">
<title>SupplierMainTitleComponent&#45;&gt;SuppliersModule</title>
<path fill="none" stroke="#000000" d="M2240,-122.2396C2240,-137.5706 2240,-157 2240,-157 2240,-157 1834.4654,-157 1834.4654,-157"/>
<polygon fill="#000000" stroke="#000000" points="1834.4654,-153.5001 1824.4654,-157 1834.4654,-160.5001 1834.4654,-153.5001"/>
</g>
<!-- SupplierSummaryComponent -->
<g id="node12" class="node">
<title>SupplierSummaryComponent</title>
<polygon fill="#ffffb3" stroke="#000000" points="2129.7105,-122 1946.2895,-122 1946.2895,-86 2129.7105,-86 2129.7105,-122"/>
<text text-anchor="middle" x="2038" y="-99.8" font-family="Times,serif" font-size="14.00" fill="#000000">SupplierSummaryComponent</text>
</g>
<!-- SupplierSummaryComponent&#45;&gt;SuppliersModule -->
<g id="edge12" class="edge">
<title>SupplierSummaryComponent&#45;&gt;SuppliersModule</title>
<path fill="none" stroke="#000000" d="M2038,-122.0511C2038,-136.373 2038,-154 2038,-154 2038,-154 1834.2722,-154 1834.2722,-154"/>
<polygon fill="#000000" stroke="#000000" points="1834.2722,-150.5001 1824.2722,-154 1834.2722,-157.5001 1834.2722,-150.5001"/>
</g>
<!-- SuppliersPageComponent -->
<g id="node13" class="node">
<title>SuppliersPageComponent</title>
<polygon fill="#ffffb3" stroke="#000000" points="1928.9284,-122 1767.0716,-122 1767.0716,-86 1928.9284,-86 1928.9284,-122"/>
<text text-anchor="middle" x="1848" y="-99.8" font-family="Times,serif" font-size="14.00" fill="#000000">SuppliersPageComponent</text>
</g>
<!-- SuppliersPageComponent&#45;&gt;SuppliersModule -->
<g id="edge13" class="edge">
<title>SuppliersPageComponent&#45;&gt;SuppliersModule</title>
<path fill="none" stroke="#000000" d="M1795.7514,-122.1061C1795.7514,-122.1061 1795.7514,-140.991 1795.7514,-140.991"/>
<polygon fill="#000000" stroke="#000000" points="1792.2515,-140.9909 1795.7514,-150.991 1799.2515,-140.991 1792.2515,-140.9909"/>
</g>
<!-- SuppliersPageComponent  -->
<g id="node26" class="node">
<title>SuppliersPageComponent </title>
<polygon fill="#fb8072" stroke="#000000" points="1850.4278,-252 1685.5722,-252 1685.5722,-216 1850.4278,-216 1850.4278,-252"/>
<text text-anchor="middle" x="1768" y="-229.8" font-family="Times,serif" font-size="14.00" fill="#000000">SuppliersPageComponent </text>
</g>
<!-- SuppliersModule&#45;&gt;SuppliersPageComponent  -->
<g id="edge25" class="edge">
<title>SuppliersModule&#45;&gt;SuppliersPageComponent </title>
<path fill="none" stroke="#000000" stroke-dasharray="5,2" d="M1768,-187.1061C1768,-187.1061 1768,-205.991 1768,-205.991"/>
<polygon fill="#000000" stroke="#000000" points="1764.5001,-205.9909 1768,-215.991 1771.5001,-205.991 1764.5001,-205.9909"/>
</g>
<!-- CarouselModule -->
<g id="node15" class="node">
<title>CarouselModule</title>
<polygon fill="#8dd3c7" stroke="#000000" points="1742.8118,-122 1739.8118,-126 1718.8118,-126 1715.8118,-122 1633.1882,-122 1633.1882,-86 1742.8118,-86 1742.8118,-122"/>
<text text-anchor="middle" x="1688" y="-99.8" font-family="Times,serif" font-size="14.00" fill="#000000">CarouselModule</text>
</g>
<!-- CarouselModule&#45;&gt;SuppliersModule -->
<g id="edge14" class="edge">
<title>CarouselModule&#45;&gt;SuppliersModule</title>
<path fill="none" stroke="#000000" d="M1727.2195,-122.1061C1727.2195,-122.1061 1727.2195,-140.991 1727.2195,-140.991"/>
<polygon fill="#000000" stroke="#000000" points="1723.7196,-140.9909 1727.2195,-150.991 1730.7196,-140.991 1723.7196,-140.9909"/>
</g>
<!-- DialogModule -->
<g id="node16" class="node">
<title>DialogModule</title>
<polygon fill="#8dd3c7" stroke="#000000" points="1615.6528,-122 1612.6528,-126 1591.6528,-126 1588.6528,-122 1518.3472,-122 1518.3472,-86 1615.6528,-86 1615.6528,-122"/>
<text text-anchor="middle" x="1567" y="-99.8" font-family="Times,serif" font-size="14.00" fill="#000000">DialogModule</text>
</g>
<!-- DialogModule&#45;&gt;SuppliersModule -->
<g id="edge15" class="edge">
<title>DialogModule&#45;&gt;SuppliersModule</title>
<path fill="none" stroke="#000000" d="M1567,-122.0511C1567,-136.373 1567,-154 1567,-154 1567,-154 1701.743,-154 1701.743,-154"/>
<polygon fill="#000000" stroke="#000000" points="1701.7431,-157.5001 1711.743,-154 1701.743,-150.5001 1701.7431,-157.5001"/>
</g>
<!-- DynamicFormsModule -->
<g id="node17" class="node">
<title>DynamicFormsModule</title>
<polygon fill="#8dd3c7" stroke="#000000" points="1500.1456,-122 1497.1456,-126 1476.1456,-126 1473.1456,-122 1353.8544,-122 1353.8544,-86 1500.1456,-86 1500.1456,-122"/>
<text text-anchor="middle" x="1427" y="-99.8" font-family="Times,serif" font-size="14.00" fill="#000000">DynamicFormsModule</text>
</g>
<!-- DynamicFormsModule&#45;&gt;SuppliersModule -->
<g id="edge16" class="edge">
<title>DynamicFormsModule&#45;&gt;SuppliersModule</title>
<path fill="none" stroke="#000000" d="M1427,-122.2396C1427,-137.5706 1427,-157 1427,-157 1427,-157 1701.6908,-157 1701.6908,-157"/>
<polygon fill="#000000" stroke="#000000" points="1701.6908,-160.5001 1711.6908,-157 1701.6908,-153.5001 1701.6908,-160.5001"/>
</g>
<!-- FileModule -->
<g id="node18" class="node">
<title>FileModule</title>
<polygon fill="#8dd3c7" stroke="#000000" points="1335.8289,-122 1332.8289,-126 1311.8289,-126 1308.8289,-122 1254.1711,-122 1254.1711,-86 1335.8289,-86 1335.8289,-122"/>
<text text-anchor="middle" x="1295" y="-99.8" font-family="Times,serif" font-size="14.00" fill="#000000">FileModule</text>
</g>
<!-- FileModule&#45;&gt;SuppliersModule -->
<g id="edge17" class="edge">
<title>FileModule&#45;&gt;SuppliersModule</title>
<path fill="none" stroke="#000000" d="M1295,-122.027C1295,-138.3976 1295,-160 1295,-160 1295,-160 1701.415,-160 1701.415,-160"/>
<polygon fill="#000000" stroke="#000000" points="1701.415,-163.5001 1711.415,-160 1701.4149,-156.5001 1701.415,-163.5001"/>
</g>
<!-- RatingModule -->
<g id="node19" class="node">
<title>RatingModule</title>
<polygon fill="#8dd3c7" stroke="#000000" points="1236.3823,-122 1233.3823,-126 1212.3823,-126 1209.3823,-122 1139.6177,-122 1139.6177,-86 1236.3823,-86 1236.3823,-122"/>
<text text-anchor="middle" x="1188" y="-99.8" font-family="Times,serif" font-size="14.00" fill="#000000">RatingModule</text>
</g>
<!-- RatingModule&#45;&gt;SuppliersModule -->
<g id="edge18" class="edge">
<title>RatingModule&#45;&gt;SuppliersModule</title>
<path fill="none" stroke="#000000" d="M1188,-122.0225C1188,-139.3734 1188,-163 1188,-163 1188,-163 1701.5959,-163 1701.5959,-163"/>
<polygon fill="#000000" stroke="#000000" points="1701.5959,-166.5001 1711.5959,-163 1701.5959,-159.5001 1701.5959,-166.5001"/>
</g>
<!-- SelectionBarModule -->
<g id="node20" class="node">
<title>SelectionBarModule</title>
<polygon fill="#8dd3c7" stroke="#000000" points="1121.8599,-122 1118.8599,-126 1097.8599,-126 1094.8599,-122 990.1401,-122 990.1401,-86 1121.8599,-86 1121.8599,-122"/>
<text text-anchor="middle" x="1056" y="-99.8" font-family="Times,serif" font-size="14.00" fill="#000000">SelectionBarModule</text>
</g>
<!-- SelectionBarModule&#45;&gt;SuppliersModule -->
<g id="edge19" class="edge">
<title>SelectionBarModule&#45;&gt;SuppliersModule</title>
<path fill="none" stroke="#000000" d="M1056,-122.302C1056,-140.2699 1056,-165 1056,-165 1056,-165 1701.5354,-165 1701.5354,-165"/>
<polygon fill="#000000" stroke="#000000" points="1701.5355,-168.5001 1711.5354,-165 1701.5354,-161.5001 1701.5355,-168.5001"/>
</g>
<!-- SharedModule -->
<g id="node21" class="node">
<title>SharedModule</title>
<polygon fill="#8dd3c7" stroke="#000000" points="972.4231,-122 969.4231,-126 948.4231,-126 945.4231,-122 873.5769,-122 873.5769,-86 972.4231,-86 972.4231,-122"/>
<text text-anchor="middle" x="923" y="-99.8" font-family="Times,serif" font-size="14.00" fill="#000000">SharedModule</text>
</g>
<!-- SharedModule&#45;&gt;SuppliersModule -->
<g id="edge20" class="edge">
<title>SharedModule&#45;&gt;SuppliersModule</title>
<path fill="none" stroke="#000000" d="M923,-122.1686C923,-141.0898 923,-168 923,-168 923,-168 1701.5743,-168 1701.5743,-168"/>
<polygon fill="#000000" stroke="#000000" points="1701.5744,-171.5001 1711.5743,-168 1701.5743,-164.5001 1701.5744,-171.5001"/>
</g>
<!-- StatusModule -->
<g id="node22" class="node">
<title>StatusModule</title>
<polygon fill="#8dd3c7" stroke="#000000" points="855.7731,-122 852.7731,-126 831.7731,-126 828.7731,-122 762.2269,-122 762.2269,-86 855.7731,-86 855.7731,-122"/>
<text text-anchor="middle" x="809" y="-99.8" font-family="Times,serif" font-size="14.00" fill="#000000">StatusModule</text>
</g>
<!-- StatusModule&#45;&gt;SuppliersModule -->
<g id="edge21" class="edge">
<title>StatusModule&#45;&gt;SuppliersModule</title>
<path fill="none" stroke="#000000" d="M809,-122.308C809,-142.1455 809,-171 809,-171 809,-171 1701.5905,-171 1701.5905,-171"/>
<polygon fill="#000000" stroke="#000000" points="1701.5905,-174.5001 1711.5905,-171 1701.5904,-167.5001 1701.5905,-174.5001"/>
</g>
<!-- TableModule -->
<g id="node23" class="node">
<title>TableModule</title>
<polygon fill="#8dd3c7" stroke="#000000" points="743.9232,-122 740.9232,-126 719.9232,-126 716.9232,-122 652.0768,-122 652.0768,-86 743.9232,-86 743.9232,-122"/>
<text text-anchor="middle" x="698" y="-99.8" font-family="Times,serif" font-size="14.00" fill="#000000">TableModule</text>
</g>
<!-- TableModule&#45;&gt;SuppliersModule -->
<g id="edge22" class="edge">
<title>TableModule&#45;&gt;SuppliersModule</title>
<path fill="none" stroke="#000000" d="M698,-122.0267C698,-142.7672 698,-174 698,-174 698,-174 1701.6037,-174 1701.6037,-174"/>
<polygon fill="#000000" stroke="#000000" points="1701.6037,-177.5001 1711.6037,-174 1701.6037,-170.5001 1701.6037,-177.5001"/>
</g>
<!-- TagModule -->
<g id="node24" class="node">
<title>TagModule</title>
<polygon fill="#8dd3c7" stroke="#000000" points="634.8176,-122 631.8176,-126 610.8176,-126 607.8176,-122 553.1824,-122 553.1824,-86 634.8176,-86 634.8176,-122"/>
<text text-anchor="middle" x="594" y="-99.8" font-family="Times,serif" font-size="14.00" fill="#000000">TagModule</text>
</g>
<!-- TagModule&#45;&gt;SuppliersModule -->
<g id="edge23" class="edge">
<title>TagModule&#45;&gt;SuppliersModule</title>
<path fill="none" stroke="#000000" d="M594,-122.1686C594,-143.498 594,-176 594,-176 594,-176 1701.7711,-176 1701.7711,-176"/>
<polygon fill="#000000" stroke="#000000" points="1701.7711,-179.5001 1711.7711,-176 1701.771,-172.5001 1701.7711,-179.5001"/>
</g>
<!-- TopPanelModule -->
<g id="node25" class="node">
<title>TopPanelModule</title>
<polygon fill="#8dd3c7" stroke="#000000" points="535.705,-122 532.705,-126 511.705,-126 508.705,-122 422.295,-122 422.295,-86 535.705,-86 535.705,-122"/>
<text text-anchor="middle" x="479" y="-99.8" font-family="Times,serif" font-size="14.00" fill="#000000">TopPanelModule</text>
</g>
<!-- TopPanelModule&#45;&gt;SuppliersModule -->
<g id="edge24" class="edge">
<title>TopPanelModule&#45;&gt;SuppliersModule</title>
<path fill="none" stroke="#000000" d="M479,-122.1554C479,-144.3519 479,-179 479,-179 479,-179 1701.3679,-179 1701.3679,-179"/>
<polygon fill="#000000" stroke="#000000" points="1701.368,-182.5001 1711.3679,-179 1701.3679,-175.5001 1701.368,-182.5001"/>
</g>
<!-- SelectionService -->
<g id="node27" class="node">
<title>SelectionService</title>
<ellipse fill="#fdb462" stroke="#000000" cx="322" cy="-104" rx="75.8566" ry="18"/>
<text text-anchor="middle" x="322" y="-99.8" font-family="Times,serif" font-size="14.00" fill="#000000">SelectionService</text>
</g>
<!-- SelectionService&#45;&gt;SuppliersModule -->
<g id="edge26" class="edge">
<title>SelectionService&#45;&gt;SuppliersModule</title>
<path fill="none" stroke="#000000" d="M322,-122.0908C322,-145.1328 322,-182 322,-182 322,-182 1701.7589,-182 1701.7589,-182"/>
<polygon fill="#000000" stroke="#000000" points="1701.7589,-185.5001 1711.7589,-182 1701.7588,-178.5001 1701.7589,-185.5001"/>
</g>
<!-- SupplierFeatureService -->
<g id="node28" class="node">
<title>SupplierFeatureService</title>
<ellipse fill="#fdb462" stroke="#000000" cx="126" cy="-104" rx="101.8399" ry="18"/>
<text text-anchor="middle" x="126" y="-99.8" font-family="Times,serif" font-size="14.00" fill="#000000">SupplierFeatureService</text>
</g>
<!-- SupplierFeatureService&#45;&gt;SuppliersModule -->
<g id="edge27" class="edge">
<title>SupplierFeatureService&#45;&gt;SuppliersModule</title>
<path fill="none" stroke="#000000" d="M126,-122.3802C126,-146.2785 126,-185 126,-185 126,-185 1701.4786,-185 1701.4786,-185"/>
<polygon fill="#000000" stroke="#000000" points="1701.4787,-188.5001 1711.4786,-185 1701.4786,-181.5001 1701.4787,-188.5001"/>
</g>
</g>
</svg>
