<?xml version="1.0" encoding="UTF-8" standalone="no"?>
<!DOCTYPE svg PUBLIC "-//W3C//DTD SVG 1.1//EN"
 "http://www.w3.org/Graphics/SVG/1.1/DTD/svg11.dtd">
<!-- Generated by graphviz version 2.40.1 (20161225.0304)
 -->
<!-- Title: dependencies Pages: 1 -->
<svg width="4166pt" height="284pt"
 viewBox="0.00 0.00 4166.00 284.00" xmlns="http://www.w3.org/2000/svg" xmlns:xlink="http://www.w3.org/1999/xlink">
<g id="graph0" class="graph" transform="scale(1 1) rotate(0) translate(4 280)">
<title>dependencies</title>
<polygon fill="#ffffff" stroke="transparent" points="-4,4 -4,-280 4162,-280 4162,4 -4,4"/>
<text text-anchor="start" x="2058.0091" y="-42.4" font-family="sans-serif" font-weight="bold" font-size="14.00" fill="#000000">Legend</text>
<polygon fill="#ffffb3" stroke="transparent" points="1845,-10 1845,-30 1865,-30 1865,-10 1845,-10"/>
<text text-anchor="start" x="1868.629" y="-15.4" font-family="sans-serif" font-size="14.00" fill="#000000"> &#160;Declarations</text>
<polygon fill="#8dd3c7" stroke="transparent" points="1958,-10 1958,-30 1978,-30 1978,-10 1958,-10"/>
<text text-anchor="start" x="1981.7251" y="-15.4" font-family="sans-serif" font-size="14.00" fill="#000000"> &#160;Module</text>
<polygon fill="#80b1d3" stroke="transparent" points="2044,-10 2044,-30 2064,-30 2064,-10 2044,-10"/>
<text text-anchor="start" x="2067.7812" y="-15.4" font-family="sans-serif" font-size="14.00" fill="#000000"> &#160;Bootstrap</text>
<polygon fill="#fdb462" stroke="transparent" points="2141,-10 2141,-30 2161,-30 2161,-10 2141,-10"/>
<text text-anchor="start" x="2164.6732" y="-15.4" font-family="sans-serif" font-size="14.00" fill="#000000"> &#160;Providers</text>
<polygon fill="#fb8072" stroke="transparent" points="2237,-10 2237,-30 2257,-30 2257,-10 2237,-10"/>
<text text-anchor="start" x="2260.7258" y="-15.4" font-family="sans-serif" font-size="14.00" fill="#000000"> &#160;Exports</text>
<g id="clust1" class="cluster">
<title>cluster_SuppliersModule</title>
<polygon fill="none" stroke="#000000" stroke-dasharray="1,5" points="8,-70 8,-268 4150,-268 4150,-70 8,-70"/>
</g>
<g id="clust2" class="cluster">
<title>cluster_SuppliersModule_declarations</title>
<polygon fill="none" stroke="#000000" points="1589,-78 1589,-130 4142,-130 4142,-78 1589,-78"/>
</g>
<g id="clust16" class="cluster">
<title>cluster_SuppliersModule_imports</title>
<polygon fill="none" stroke="#000000" points="244,-78 244,-130 1581,-130 1581,-78 244,-78"/>
</g>
<g id="clust17" class="cluster">
<title>cluster_SuppliersModule_exports</title>
<polygon fill="none" stroke="#000000" points="1588,-208 1588,-260 1768,-260 1768,-208 1588,-208"/>
</g>
<g id="clust19" class="cluster">
<title>cluster_SuppliersModule_providers</title>
<polygon fill="none" stroke="#000000" points="16,-78 16,-130 236,-130 236,-78 16,-78"/>
</g>
<!-- NewContactDlgComponent -->
<g id="node1" class="node">
<title>NewContactDlgComponent</title>
<polygon fill="#ffffb3" stroke="#000000" points="4134.3047,-122 3961.6953,-122 3961.6953,-86 4134.3047,-86 4134.3047,-122"/>
<text text-anchor="middle" x="4048" y="-99.8" font-family="Times,serif" font-size="14.00" fill="#000000">NewContactDlgComponent</text>
</g>
<!-- SuppliersModule -->
<g id="node14" class="node">
<title>SuppliersModule</title>
<polygon fill="#8dd3c7" stroke="#000000" points="1734.4342,-187 1731.4342,-191 1710.4342,-191 1707.4342,-187 1621.5658,-187 1621.5658,-151 1734.4342,-151 1734.4342,-187"/>
<text text-anchor="middle" x="1678" y="-164.8" font-family="Times,serif" font-size="14.00" fill="#000000">SuppliersModule</text>
</g>
<!-- NewContactDlgComponent&#45;&gt;SuppliersModule -->
<g id="edge1" class="edge">
<title>NewContactDlgComponent&#45;&gt;SuppliersModule</title>
<path fill="none" stroke="#000000" d="M4048,-122.3802C4048,-146.2785 4048,-185 4048,-185 4048,-185 1744.247,-185 1744.247,-185"/>
<polygon fill="#000000" stroke="#000000" points="1744.247,-181.5001 1734.247,-185 1744.247,-188.5001 1744.247,-181.5001"/>
</g>
<!-- NewSupplierDlgComponent -->
<g id="node2" class="node">
<title>NewSupplierDlgComponent</title>
<polygon fill="#ffffb3" stroke="#000000" points="3944.1965,-122 3767.8035,-122 3767.8035,-86 3944.1965,-86 3944.1965,-122"/>
<text text-anchor="middle" x="3856" y="-99.8" font-family="Times,serif" font-size="14.00" fill="#000000">NewSupplierDlgComponent</text>
</g>
<!-- NewSupplierDlgComponent&#45;&gt;SuppliersModule -->
<g id="edge2" class="edge">
<title>NewSupplierDlgComponent&#45;&gt;SuppliersModule</title>
<path fill="none" stroke="#000000" d="M3856,-122.0908C3856,-145.1328 3856,-182 3856,-182 3856,-182 1744.3036,-182 1744.3036,-182"/>
<polygon fill="#000000" stroke="#000000" points="1744.3037,-178.5001 1734.3036,-182 1744.3036,-185.5001 1744.3037,-178.5001"/>
</g>
<!-- SupplierContactCardComponent -->
<g id="node3" class="node">
<title>SupplierContactCardComponent</title>
<polygon fill="#ffffb3" stroke="#000000" points="3749.5308,-122 3550.4692,-122 3550.4692,-86 3749.5308,-86 3749.5308,-122"/>
<text text-anchor="middle" x="3650" y="-99.8" font-family="Times,serif" font-size="14.00" fill="#000000">SupplierContactCardComponent</text>
</g>
<!-- SupplierContactCardComponent&#45;&gt;SuppliersModule -->
<g id="edge3" class="edge">
<title>SupplierContactCardComponent&#45;&gt;SuppliersModule</title>
<path fill="none" stroke="#000000" d="M3650,-122.1554C3650,-144.3519 3650,-179 3650,-179 3650,-179 1744.3654,-179 1744.3654,-179"/>
<polygon fill="#000000" stroke="#000000" points="1744.3654,-175.5001 1734.3654,-179 1744.3653,-182.5001 1744.3654,-175.5001"/>
</g>
<!-- SupplierContactComponent -->
<g id="node4" class="node">
<title>SupplierContactComponent</title>
<polygon fill="#ffffb3" stroke="#000000" points="3532.3187,-122 3359.6813,-122 3359.6813,-86 3532.3187,-86 3532.3187,-122"/>
<text text-anchor="middle" x="3446" y="-99.8" font-family="Times,serif" font-size="14.00" fill="#000000">SupplierContactComponent</text>
</g>
<!-- SupplierContactComponent&#45;&gt;SuppliersModule -->
<g id="edge4" class="edge">
<title>SupplierContactComponent&#45;&gt;SuppliersModule</title>
<path fill="none" stroke="#000000" d="M3446,-122.1686C3446,-143.498 3446,-176 3446,-176 3446,-176 1744.3265,-176 1744.3265,-176"/>
<polygon fill="#000000" stroke="#000000" points="1744.3265,-172.5001 1734.3265,-176 1744.3264,-179.5001 1744.3265,-172.5001"/>
</g>
<!-- SupplierDescriptionComponent -->
<g id="node5" class="node">
<title>SupplierDescriptionComponent</title>
<polygon fill="#ffffb3" stroke="#000000" points="3342.0842,-122 3147.9158,-122 3147.9158,-86 3342.0842,-86 3342.0842,-122"/>
<text text-anchor="middle" x="3245" y="-99.8" font-family="Times,serif" font-size="14.00" fill="#000000">SupplierDescriptionComponent</text>
</g>
<!-- SupplierDescriptionComponent&#45;&gt;SuppliersModule -->
<g id="edge5" class="edge">
<title>SupplierDescriptionComponent&#45;&gt;SuppliersModule</title>
<path fill="none" stroke="#000000" d="M3245,-122.0267C3245,-142.7672 3245,-174 3245,-174 3245,-174 1744.2324,-174 1744.2324,-174"/>
<polygon fill="#000000" stroke="#000000" points="1744.2324,-170.5001 1734.2324,-174 1744.2323,-177.5001 1744.2324,-170.5001"/>
</g>
<!-- SupplierDetailsComponent -->
<g id="node6" class="node">
<title>SupplierDetailsComponent</title>
<polygon fill="#ffffb3" stroke="#000000" points="3130.4241,-122 2961.5759,-122 2961.5759,-86 3130.4241,-86 3130.4241,-122"/>
<text text-anchor="middle" x="3046" y="-99.8" font-family="Times,serif" font-size="14.00" fill="#000000">SupplierDetailsComponent</text>
</g>
<!-- SupplierDetailsComponent&#45;&gt;SuppliersModule -->
<g id="edge6" class="edge">
<title>SupplierDetailsComponent&#45;&gt;SuppliersModule</title>
<path fill="none" stroke="#000000" d="M3046,-122.308C3046,-142.1455 3046,-171 3046,-171 3046,-171 1744.6079,-171 1744.6079,-171"/>
<polygon fill="#000000" stroke="#000000" points="1744.6079,-167.5001 1734.6079,-171 1744.6078,-174.5001 1744.6079,-167.5001"/>
</g>
<!-- SupplierInfosComponent -->
<g id="node7" class="node">
<title>SupplierInfosComponent</title>
<polygon fill="#ffffb3" stroke="#000000" points="2943.5379,-122 2786.4621,-122 2786.4621,-86 2943.5379,-86 2943.5379,-122"/>
<text text-anchor="middle" x="2865" y="-99.8" font-family="Times,serif" font-size="14.00" fill="#000000">SupplierInfosComponent</text>
</g>
<!-- SupplierInfosComponent&#45;&gt;SuppliersModule -->
<g id="edge7" class="edge">
<title>SupplierInfosComponent&#45;&gt;SuppliersModule</title>
<path fill="none" stroke="#000000" d="M2865,-122.1686C2865,-141.0898 2865,-168 2865,-168 2865,-168 1744.4529,-168 1744.4529,-168"/>
<polygon fill="#000000" stroke="#000000" points="1744.453,-164.5001 1734.4529,-168 1744.4529,-171.5001 1744.453,-164.5001"/>
</g>
<!-- SupplierLatestProductsComponent -->
<g id="node8" class="node">
<title>SupplierLatestProductsComponent</title>
<polygon fill="#ffffb3" stroke="#000000" points="2767.972,-122 2556.028,-122 2556.028,-86 2767.972,-86 2767.972,-122"/>
<text text-anchor="middle" x="2662" y="-99.8" font-family="Times,serif" font-size="14.00" fill="#000000">SupplierLatestProductsComponent</text>
</g>
<!-- SupplierLatestProductsComponent&#45;&gt;SuppliersModule -->
<g id="edge8" class="edge">
<title>SupplierLatestProductsComponent&#45;&gt;SuppliersModule</title>
<path fill="none" stroke="#000000" d="M2662,-122.302C2662,-140.2699 2662,-165 2662,-165 2662,-165 1744.4383,-165 1744.4383,-165"/>
<polygon fill="#000000" stroke="#000000" points="1744.4384,-161.5001 1734.4383,-165 1744.4383,-168.5001 1744.4384,-161.5001"/>
</g>
<!-- SupplierListViewComponent -->
<g id="node9" class="node">
<title>SupplierListViewComponent</title>
<polygon fill="#ffffb3" stroke="#000000" points="2538.3682,-122 2357.6318,-122 2357.6318,-86 2538.3682,-86 2538.3682,-122"/>
<text text-anchor="middle" x="2448" y="-99.8" font-family="Times,serif" font-size="14.00" fill="#000000">SupplierListViewComponent</text>
</g>
<!-- SupplierListViewComponent&#45;&gt;SuppliersModule -->
<g id="edge9" class="edge">
<title>SupplierListViewComponent&#45;&gt;SuppliersModule</title>
<path fill="none" stroke="#000000" d="M2448,-122.0225C2448,-139.3734 2448,-163 2448,-163 2448,-163 1744.308,-163 1744.308,-163"/>
<polygon fill="#000000" stroke="#000000" points="1744.308,-159.5001 1734.308,-163 1744.3079,-166.5001 1744.308,-159.5001"/>
</g>
<!-- SupplierMainComponent -->
<g id="node10" class="node">
<title>SupplierMainComponent</title>
<polygon fill="#ffffb3" stroke="#000000" points="2339.3215,-122 2180.6785,-122 2180.6785,-86 2339.3215,-86 2339.3215,-122"/>
<text text-anchor="middle" x="2260" y="-99.8" font-family="Times,serif" font-size="14.00" fill="#000000">SupplierMainComponent</text>
</g>
<!-- SupplierMainComponent&#45;&gt;SuppliersModule -->
<g id="edge10" class="edge">
<title>SupplierMainComponent&#45;&gt;SuppliersModule</title>
<path fill="none" stroke="#000000" d="M2260,-122.027C2260,-138.3976 2260,-160 2260,-160 2260,-160 1744.3334,-160 1744.3334,-160"/>
<polygon fill="#000000" stroke="#000000" points="1744.3335,-156.5001 1734.3334,-160 1744.3334,-163.5001 1744.3335,-156.5001"/>
</g>
<!-- SupplierMainTitleComponent -->
<g id="node11" class="node">
<title>SupplierMainTitleComponent</title>
<polygon fill="#ffffb3" stroke="#000000" points="2162.2604,-122 1977.7396,-122 1977.7396,-86 2162.2604,-86 2162.2604,-122"/>
<text text-anchor="middle" x="2070" y="-99.8" font-family="Times,serif" font-size="14.00" fill="#000000">SupplierMainTitleComponent</text>
</g>
<!-- SupplierMainTitleComponent&#45;&gt;SuppliersModule -->
<g id="edge11" class="edge">
<title>SupplierMainTitleComponent&#45;&gt;SuppliersModule</title>
<path fill="none" stroke="#000000" d="M2070,-122.2396C2070,-137.5706 2070,-157 2070,-157 2070,-157 1744.5815,-157 1744.5815,-157"/>
<polygon fill="#000000" stroke="#000000" points="1744.5816,-153.5001 1734.5815,-157 1744.5815,-160.5001 1744.5816,-153.5001"/>
</g>
<!-- SupplierSummaryComponent -->
<g id="node12" class="node">
<title>SupplierSummaryComponent</title>
<polygon fill="#ffffb3" stroke="#000000" points="1959.7105,-122 1776.2895,-122 1776.2895,-86 1959.7105,-86 1959.7105,-122"/>
<text text-anchor="middle" x="1868" y="-99.8" font-family="Times,serif" font-size="14.00" fill="#000000">SupplierSummaryComponent</text>
</g>
<!-- SupplierSummaryComponent&#45;&gt;SuppliersModule -->
<g id="edge12" class="edge">
<title>SupplierSummaryComponent&#45;&gt;SuppliersModule</title>
<path fill="none" stroke="#000000" d="M1868,-122.0511C1868,-136.373 1868,-154 1868,-154 1868,-154 1744.2351,-154 1744.2351,-154"/>
<polygon fill="#000000" stroke="#000000" points="1744.2351,-150.5001 1734.2351,-154 1744.235,-157.5001 1744.2351,-150.5001"/>
</g>
<!-- SuppliersPageComponent -->
<g id="node13" class="node">
<title>SuppliersPageComponent</title>
<polygon fill="#ffffb3" stroke="#000000" points="1758.9284,-122 1597.0716,-122 1597.0716,-86 1758.9284,-86 1758.9284,-122"/>
<text text-anchor="middle" x="1678" y="-99.8" font-family="Times,serif" font-size="14.00" fill="#000000">SuppliersPageComponent</text>
</g>
<!-- SuppliersPageComponent&#45;&gt;SuppliersModule -->
<g id="edge13" class="edge">
<title>SuppliersPageComponent&#45;&gt;SuppliersModule</title>
<path fill="none" stroke="#000000" d="M1678,-122.1061C1678,-122.1061 1678,-140.991 1678,-140.991"/>
<polygon fill="#000000" stroke="#000000" points="1674.5001,-140.9909 1678,-150.991 1681.5001,-140.991 1674.5001,-140.9909"/>
</g>
<!-- SuppliersPageComponent  -->
<g id="node26" class="node">
<title>SuppliersPageComponent </title>
<polygon fill="#fb8072" stroke="#000000" points="1760.4278,-252 1595.5722,-252 1595.5722,-216 1760.4278,-216 1760.4278,-252"/>
<text text-anchor="middle" x="1678" y="-229.8" font-family="Times,serif" font-size="14.00" fill="#000000">SuppliersPageComponent </text>
</g>
<!-- SuppliersModule&#45;&gt;SuppliersPageComponent  -->
<g id="edge25" class="edge">
<title>SuppliersModule&#45;&gt;SuppliersPageComponent </title>
<path fill="none" stroke="#000000" stroke-dasharray="5,2" d="M1678,-187.1061C1678,-187.1061 1678,-205.991 1678,-205.991"/>
<polygon fill="#000000" stroke="#000000" points="1674.5001,-205.9909 1678,-215.991 1681.5001,-205.991 1674.5001,-205.9909"/>
</g>
<!-- CarouselModule -->
<g id="node15" class="node">
<title>CarouselModule</title>
<polygon fill="#8dd3c7" stroke="#000000" points="1572.8118,-122 1569.8118,-126 1548.8118,-126 1545.8118,-122 1463.1882,-122 1463.1882,-86 1572.8118,-86 1572.8118,-122"/>
<text text-anchor="middle" x="1518" y="-99.8" font-family="Times,serif" font-size="14.00" fill="#000000">CarouselModule</text>
</g>
<!-- CarouselModule&#45;&gt;SuppliersModule -->
<g id="edge14" class="edge">
<title>CarouselModule&#45;&gt;SuppliersModule</title>
<path fill="none" stroke="#000000" d="M1518,-122.0511C1518,-136.373 1518,-154 1518,-154 1518,-154 1611.59,-154 1611.59,-154"/>
<polygon fill="#000000" stroke="#000000" points="1611.59,-157.5001 1621.59,-154 1611.59,-150.5001 1611.59,-157.5001"/>
</g>
<!-- DialogModule -->
<g id="node16" class="node">
<title>DialogModule</title>
<polygon fill="#8dd3c7" stroke="#000000" points="1445.6528,-122 1442.6528,-126 1421.6528,-126 1418.6528,-122 1348.3472,-122 1348.3472,-86 1445.6528,-86 1445.6528,-122"/>
<text text-anchor="middle" x="1397" y="-99.8" font-family="Times,serif" font-size="14.00" fill="#000000">DialogModule</text>
</g>
<!-- DialogModule&#45;&gt;SuppliersModule -->
<g id="edge15" class="edge">
<title>DialogModule&#45;&gt;SuppliersModule</title>
<path fill="none" stroke="#000000" d="M1397,-122.2396C1397,-137.5706 1397,-157 1397,-157 1397,-157 1611.4735,-157 1611.4735,-157"/>
<polygon fill="#000000" stroke="#000000" points="1611.4735,-160.5001 1621.4735,-157 1611.4734,-153.5001 1611.4735,-160.5001"/>
</g>
<!-- DynamicFormsModule -->
<g id="node17" class="node">
<title>DynamicFormsModule</title>
<polygon fill="#8dd3c7" stroke="#000000" points="1330.1456,-122 1327.1456,-126 1306.1456,-126 1303.1456,-122 1183.8544,-122 1183.8544,-86 1330.1456,-86 1330.1456,-122"/>
<text text-anchor="middle" x="1257" y="-99.8" font-family="Times,serif" font-size="14.00" fill="#000000">DynamicFormsModule</text>
</g>
<!-- DynamicFormsModule&#45;&gt;SuppliersModule -->
<g id="edge16" class="edge">
<title>DynamicFormsModule&#45;&gt;SuppliersModule</title>
<path fill="none" stroke="#000000" d="M1257,-122.027C1257,-138.3976 1257,-160 1257,-160 1257,-160 1611.6589,-160 1611.6589,-160"/>
<polygon fill="#000000" stroke="#000000" points="1611.6589,-163.5001 1621.6589,-160 1611.6589,-156.5001 1611.6589,-163.5001"/>
</g>
<!-- FileModule -->
<g id="node18" class="node">
<title>FileModule</title>
<polygon fill="#8dd3c7" stroke="#000000" points="1165.8289,-122 1162.8289,-126 1141.8289,-126 1138.8289,-122 1084.1711,-122 1084.1711,-86 1165.8289,-86 1165.8289,-122"/>
<text text-anchor="middle" x="1125" y="-99.8" font-family="Times,serif" font-size="14.00" fill="#000000">FileModule</text>
</g>
<!-- FileModule&#45;&gt;SuppliersModule -->
<g id="edge17" class="edge">
<title>FileModule&#45;&gt;SuppliersModule</title>
<path fill="none" stroke="#000000" d="M1125,-122.0225C1125,-139.3734 1125,-163 1125,-163 1125,-163 1611.6754,-163 1611.6754,-163"/>
<polygon fill="#000000" stroke="#000000" points="1611.6754,-166.5001 1621.6754,-163 1611.6753,-159.5001 1611.6754,-166.5001"/>
</g>
<!-- RatingModule -->
<g id="node19" class="node">
<title>RatingModule</title>
<polygon fill="#8dd3c7" stroke="#000000" points="1066.3823,-122 1063.3823,-126 1042.3823,-126 1039.3823,-122 969.6177,-122 969.6177,-86 1066.3823,-86 1066.3823,-122"/>
<text text-anchor="middle" x="1018" y="-99.8" font-family="Times,serif" font-size="14.00" fill="#000000">RatingModule</text>
</g>
<!-- RatingModule&#45;&gt;SuppliersModule -->
<g id="edge18" class="edge">
<title>RatingModule&#45;&gt;SuppliersModule</title>
<path fill="none" stroke="#000000" d="M1018,-122.302C1018,-140.2699 1018,-165 1018,-165 1018,-165 1611.7288,-165 1611.7288,-165"/>
<polygon fill="#000000" stroke="#000000" points="1611.7288,-168.5001 1621.7288,-165 1611.7287,-161.5001 1611.7288,-168.5001"/>
</g>
<!-- SelectionBarModule -->
<g id="node20" class="node">
<title>SelectionBarModule</title>
<polygon fill="#8dd3c7" stroke="#000000" points="951.8599,-122 948.8599,-126 927.8599,-126 924.8599,-122 820.1401,-122 820.1401,-86 951.8599,-86 951.8599,-122"/>
<text text-anchor="middle" x="886" y="-99.8" font-family="Times,serif" font-size="14.00" fill="#000000">SelectionBarModule</text>
</g>
<!-- SelectionBarModule&#45;&gt;SuppliersModule -->
<g id="edge19" class="edge">
<title>SelectionBarModule&#45;&gt;SuppliersModule</title>
<path fill="none" stroke="#000000" d="M886,-122.1686C886,-141.0898 886,-168 886,-168 886,-168 1611.6762,-168 1611.6762,-168"/>
<polygon fill="#000000" stroke="#000000" points="1611.6763,-171.5001 1621.6762,-168 1611.6762,-164.5001 1611.6763,-171.5001"/>
</g>
<!-- SharedModule -->
<g id="node21" class="node">
<title>SharedModule</title>
<polygon fill="#8dd3c7" stroke="#000000" points="802.4231,-122 799.4231,-126 778.4231,-126 775.4231,-122 703.5769,-122 703.5769,-86 802.4231,-86 802.4231,-122"/>
<text text-anchor="middle" x="753" y="-99.8" font-family="Times,serif" font-size="14.00" fill="#000000">SharedModule</text>
</g>
<!-- SharedModule&#45;&gt;SuppliersModule -->
<g id="edge20" class="edge">
<title>SharedModule&#45;&gt;SuppliersModule</title>
<path fill="none" stroke="#000000" d="M753,-122.308C753,-142.1455 753,-171 753,-171 753,-171 1611.5295,-171 1611.5295,-171"/>
<polygon fill="#000000" stroke="#000000" points="1611.5296,-174.5001 1621.5295,-171 1611.5295,-167.5001 1611.5296,-174.5001"/>
</g>
<!-- StatusModule -->
<g id="node22" class="node">
<title>StatusModule</title>
<polygon fill="#8dd3c7" stroke="#000000" points="685.7731,-122 682.7731,-126 661.7731,-126 658.7731,-122 592.2269,-122 592.2269,-86 685.7731,-86 685.7731,-122"/>
<text text-anchor="middle" x="639" y="-99.8" font-family="Times,serif" font-size="14.00" fill="#000000">StatusModule</text>
</g>
<!-- StatusModule&#45;&gt;SuppliersModule -->
<g id="edge21" class="edge">
<title>StatusModule&#45;&gt;SuppliersModule</title>
<path fill="none" stroke="#000000" d="M639,-122.0267C639,-142.7672 639,-174 639,-174 639,-174 1611.7705,-174 1611.7705,-174"/>
<polygon fill="#000000" stroke="#000000" points="1611.7705,-177.5001 1621.7705,-174 1611.7704,-170.5001 1611.7705,-177.5001"/>
</g>
<!-- TableModule -->
<g id="node23" class="node">
<title>TableModule</title>
<polygon fill="#8dd3c7" stroke="#000000" points="573.9232,-122 570.9232,-126 549.9232,-126 546.9232,-122 482.0768,-122 482.0768,-86 573.9232,-86 573.9232,-122"/>
<text text-anchor="middle" x="528" y="-99.8" font-family="Times,serif" font-size="14.00" fill="#000000">TableModule</text>
</g>
<!-- TableModule&#45;&gt;SuppliersModule -->
<g id="edge22" class="edge">
<title>TableModule&#45;&gt;SuppliersModule</title>
<path fill="none" stroke="#000000" d="M528,-122.1686C528,-143.498 528,-176 528,-176 528,-176 1611.7546,-176 1611.7546,-176"/>
<polygon fill="#000000" stroke="#000000" points="1611.7547,-179.5001 1621.7546,-176 1611.7546,-172.5001 1611.7547,-179.5001"/>
</g>
<!-- TagModule -->
<g id="node24" class="node">
<title>TagModule</title>
<polygon fill="#8dd3c7" stroke="#000000" points="464.8176,-122 461.8176,-126 440.8176,-126 437.8176,-122 383.1824,-122 383.1824,-86 464.8176,-86 464.8176,-122"/>
<text text-anchor="middle" x="424" y="-99.8" font-family="Times,serif" font-size="14.00" fill="#000000">TagModule</text>
</g>
<!-- TagModule&#45;&gt;SuppliersModule -->
<g id="edge23" class="edge">
<title>TagModule&#45;&gt;SuppliersModule</title>
<path fill="none" stroke="#000000" d="M424,-122.1554C424,-144.3519 424,-179 424,-179 424,-179 1611.6821,-179 1611.6821,-179"/>
<polygon fill="#000000" stroke="#000000" points="1611.6821,-182.5001 1621.6821,-179 1611.682,-175.5001 1611.6821,-182.5001"/>
</g>
<!-- TopPanelModule -->
<g id="node25" class="node">
<title>TopPanelModule</title>
<polygon fill="#8dd3c7" stroke="#000000" points="365.705,-122 362.705,-126 341.705,-126 338.705,-122 252.295,-122 252.295,-86 365.705,-86 365.705,-122"/>
<text text-anchor="middle" x="309" y="-99.8" font-family="Times,serif" font-size="14.00" fill="#000000">TopPanelModule</text>
</g>
<!-- TopPanelModule&#45;&gt;SuppliersModule -->
<g id="edge24" class="edge">
<title>TopPanelModule&#45;&gt;SuppliersModule</title>
<path fill="none" stroke="#000000" d="M309,-122.0908C309,-145.1328 309,-182 309,-182 309,-182 1611.7813,-182 1611.7813,-182"/>
<polygon fill="#000000" stroke="#000000" points="1611.7814,-185.5001 1621.7813,-182 1611.7813,-178.5001 1611.7814,-185.5001"/>
</g>
<!-- SupplierFeatureService -->
<g id="node27" class="node">
<title>SupplierFeatureService</title>
<ellipse fill="#fdb462" stroke="#000000" cx="126" cy="-104" rx="101.8399" ry="18"/>
<text text-anchor="middle" x="126" y="-99.8" font-family="Times,serif" font-size="14.00" fill="#000000">SupplierFeatureService</text>
</g>
<!-- SupplierFeatureService&#45;&gt;SuppliersModule -->
<g id="edge26" class="edge">
<title>SupplierFeatureService&#45;&gt;SuppliersModule</title>
<path fill="none" stroke="#000000" d="M126,-122.3802C126,-146.2785 126,-185 126,-185 126,-185 1611.3856,-185 1611.3856,-185"/>
<polygon fill="#000000" stroke="#000000" points="1611.3856,-188.5001 1621.3856,-185 1611.3856,-181.5001 1611.3856,-188.5001"/>
</g>
</g>
</svg>
