<?xml version="1.0" encoding="UTF-8" standalone="no"?>
<!DOCTYPE svg PUBLIC "-//W3C//DTD SVG 1.1//EN"
 "http://www.w3.org/Graphics/SVG/1.1/DTD/svg11.dtd">
<!-- Generated by graphviz version 2.40.1 (20161225.0304)
 -->
<!-- Title: dependencies Pages: 1 -->
<svg width="1432pt" height="284pt"
 viewBox="0.00 0.00 1432.00 284.00" xmlns="http://www.w3.org/2000/svg" xmlns:xlink="http://www.w3.org/1999/xlink">
<g id="graph0" class="graph" transform="scale(1 1) rotate(0) translate(4 280)">
<title>dependencies</title>
<polygon fill="#ffffff" stroke="transparent" points="-4,4 -4,-280 1428,-280 1428,4 -4,4"/>
<text text-anchor="start" x="691.0091" y="-42.4" font-family="sans-serif" font-weight="bold" font-size="14.00" fill="#000000">Legend</text>
<polygon fill="#ffffb3" stroke="transparent" points="478,-10 478,-30 498,-30 498,-10 478,-10"/>
<text text-anchor="start" x="501.629" y="-15.4" font-family="sans-serif" font-size="14.00" fill="#000000"> &#160;Declarations</text>
<polygon fill="#8dd3c7" stroke="transparent" points="591,-10 591,-30 611,-30 611,-10 591,-10"/>
<text text-anchor="start" x="614.7251" y="-15.4" font-family="sans-serif" font-size="14.00" fill="#000000"> &#160;Module</text>
<polygon fill="#80b1d3" stroke="transparent" points="677,-10 677,-30 697,-30 697,-10 677,-10"/>
<text text-anchor="start" x="700.7812" y="-15.4" font-family="sans-serif" font-size="14.00" fill="#000000"> &#160;Bootstrap</text>
<polygon fill="#fdb462" stroke="transparent" points="774,-10 774,-30 794,-30 794,-10 774,-10"/>
<text text-anchor="start" x="797.6732" y="-15.4" font-family="sans-serif" font-size="14.00" fill="#000000"> &#160;Providers</text>
<polygon fill="#fb8072" stroke="transparent" points="870,-10 870,-30 890,-30 890,-10 870,-10"/>
<text text-anchor="start" x="893.7258" y="-15.4" font-family="sans-serif" font-size="14.00" fill="#000000"> &#160;Exports</text>
<g id="clust1" class="cluster">
<title>cluster_ProjectModule</title>
<polygon fill="none" stroke="#000000" stroke-dasharray="1,5" points="8,-70 8,-268 1416,-268 1416,-70 8,-70"/>
</g>
<g id="clust2" class="cluster">
<title>cluster_ProjectModule_declarations</title>
<polygon fill="none" stroke="#000000" points="880,-78 880,-130 1408,-130 1408,-78 880,-78"/>
</g>
<g id="clust6" class="cluster">
<title>cluster_ProjectModule_imports</title>
<polygon fill="none" stroke="#000000" points="232,-78 232,-130 872,-130 872,-78 232,-78"/>
</g>
<g id="clust7" class="cluster">
<title>cluster_ProjectModule_exports</title>
<polygon fill="none" stroke="#000000" points="578,-208 578,-260 752,-260 752,-208 578,-208"/>
</g>
<g id="clust9" class="cluster">
<title>cluster_ProjectModule_providers</title>
<polygon fill="none" stroke="#000000" points="16,-78 16,-130 224,-130 224,-78 16,-78"/>
</g>
<!-- ProjectNavComponent -->
<g id="node1" class="node">
<title>ProjectNavComponent</title>
<polygon fill="#ffffb3" stroke="#000000" points="1400.3075,-122 1255.6925,-122 1255.6925,-86 1400.3075,-86 1400.3075,-122"/>
<text text-anchor="middle" x="1328" y="-99.8" font-family="Times,serif" font-size="14.00" fill="#000000">ProjectNavComponent</text>
</g>
<!-- ProjectModule -->
<g id="node4" class="node">
<title>ProjectModule</title>
<polygon fill="#8dd3c7" stroke="#000000" points="714.7036,-187 711.7036,-191 690.7036,-191 687.7036,-187 615.2964,-187 615.2964,-151 714.7036,-151 714.7036,-187"/>
<text text-anchor="middle" x="665" y="-164.8" font-family="Times,serif" font-size="14.00" fill="#000000">ProjectModule</text>
</g>
<!-- ProjectNavComponent&#45;&gt;ProjectModule -->
<g id="edge1" class="edge">
<title>ProjectNavComponent&#45;&gt;ProjectModule</title>
<path fill="none" stroke="#000000" d="M1328,-122.0109C1328,-144.4852 1328,-180 1328,-180 1328,-180 724.8328,-180 724.8328,-180"/>
<polygon fill="#000000" stroke="#000000" points="724.8328,-176.5001 714.8328,-180 724.8327,-183.5001 724.8328,-176.5001"/>
</g>
<!-- ProjectsListViewComponent -->
<g id="node2" class="node">
<title>ProjectsListViewComponent</title>
<polygon fill="#ffffb3" stroke="#000000" points="1238.028,-122 1059.972,-122 1059.972,-86 1238.028,-86 1238.028,-122"/>
<text text-anchor="middle" x="1149" y="-99.8" font-family="Times,serif" font-size="14.00" fill="#000000">ProjectsListViewComponent</text>
</g>
<!-- ProjectsListViewComponent&#45;&gt;ProjectModule -->
<g id="edge2" class="edge">
<title>ProjectsListViewComponent&#45;&gt;ProjectModule</title>
<path fill="none" stroke="#000000" d="M1149,-122.1289C1149,-142.5724 1149,-173 1149,-173 1149,-173 724.9735,-173 724.9735,-173"/>
<polygon fill="#000000" stroke="#000000" points="724.9736,-169.5001 714.9735,-173 724.9735,-176.5001 724.9736,-169.5001"/>
</g>
<!-- ProjectsPageComponent -->
<g id="node3" class="node">
<title>ProjectsPageComponent</title>
<polygon fill="#ffffb3" stroke="#000000" points="1041.6428,-122 888.3572,-122 888.3572,-86 1041.6428,-86 1041.6428,-122"/>
<text text-anchor="middle" x="965" y="-99.8" font-family="Times,serif" font-size="14.00" fill="#000000">ProjectsPageComponent</text>
</g>
<!-- ProjectsPageComponent&#45;&gt;ProjectModule -->
<g id="edge3" class="edge">
<title>ProjectsPageComponent&#45;&gt;ProjectModule</title>
<path fill="none" stroke="#000000" d="M965,-122.2667C965,-140.5552 965,-166 965,-166 965,-166 724.8757,-166 724.8757,-166"/>
<polygon fill="#000000" stroke="#000000" points="724.8757,-162.5001 714.8757,-166 724.8756,-169.5001 724.8757,-162.5001"/>
</g>
<!-- ProjectsPageComponent  -->
<g id="node10" class="node">
<title>ProjectsPageComponent </title>
<polygon fill="#fb8072" stroke="#000000" points="743.6425,-252 586.3575,-252 586.3575,-216 743.6425,-216 743.6425,-252"/>
<text text-anchor="middle" x="665" y="-229.8" font-family="Times,serif" font-size="14.00" fill="#000000">ProjectsPageComponent </text>
</g>
<!-- ProjectModule&#45;&gt;ProjectsPageComponent  -->
<g id="edge9" class="edge">
<title>ProjectModule&#45;&gt;ProjectsPageComponent </title>
<path fill="none" stroke="#000000" stroke-dasharray="5,2" d="M665,-187.1061C665,-187.1061 665,-205.991 665,-205.991"/>
<polygon fill="#000000" stroke="#000000" points="661.5001,-205.9909 665,-215.991 668.5001,-205.991 661.5001,-205.9909"/>
</g>
<!-- SelectionBarModule -->
<g id="node5" class="node">
<title>SelectionBarModule</title>
<polygon fill="#8dd3c7" stroke="#000000" points="863.8599,-122 860.8599,-126 839.8599,-126 836.8599,-122 732.1401,-122 732.1401,-86 863.8599,-86 863.8599,-122"/>
<text text-anchor="middle" x="798" y="-99.8" font-family="Times,serif" font-size="14.00" fill="#000000">SelectionBarModule</text>
</g>
<!-- SelectionBarModule&#45;&gt;ProjectModule -->
<g id="edge4" class="edge">
<title>SelectionBarModule&#45;&gt;ProjectModule</title>
<path fill="none" stroke="#000000" d="M737.8207,-122.0091C737.8207,-138.0494 737.8207,-159 737.8207,-159 737.8207,-159 724.7797,-159 724.7797,-159"/>
<polygon fill="#000000" stroke="#000000" points="724.7798,-155.5001 714.7797,-159 724.7797,-162.5001 724.7798,-155.5001"/>
</g>
<!-- SharedModule -->
<g id="node6" class="node">
<title>SharedModule</title>
<polygon fill="#8dd3c7" stroke="#000000" points="714.4231,-122 711.4231,-126 690.4231,-126 687.4231,-122 615.5769,-122 615.5769,-86 714.4231,-86 714.4231,-122"/>
<text text-anchor="middle" x="665" y="-99.8" font-family="Times,serif" font-size="14.00" fill="#000000">SharedModule</text>
</g>
<!-- SharedModule&#45;&gt;ProjectModule -->
<g id="edge5" class="edge">
<title>SharedModule&#45;&gt;ProjectModule</title>
<path fill="none" stroke="#000000" d="M665,-122.1061C665,-122.1061 665,-140.991 665,-140.991"/>
<polygon fill="#000000" stroke="#000000" points="661.5001,-140.9909 665,-150.991 668.5001,-140.991 661.5001,-140.9909"/>
</g>
<!-- SideMenuModule -->
<g id="node7" class="node">
<title>SideMenuModule</title>
<polygon fill="#8dd3c7" stroke="#000000" points="597.5968,-122 594.5968,-126 573.5968,-126 570.5968,-122 480.4032,-122 480.4032,-86 597.5968,-86 597.5968,-122"/>
<text text-anchor="middle" x="539" y="-99.8" font-family="Times,serif" font-size="14.00" fill="#000000">SideMenuModule</text>
</g>
<!-- SideMenuModule&#45;&gt;ProjectModule -->
<g id="edge6" class="edge">
<title>SideMenuModule&#45;&gt;ProjectModule</title>
<path fill="none" stroke="#000000" d="M591.9886,-122.0091C591.9886,-138.0494 591.9886,-159 591.9886,-159 591.9886,-159 605.0899,-159 605.0899,-159"/>
<polygon fill="#000000" stroke="#000000" points="605.0899,-162.5001 615.0899,-159 605.0898,-155.5001 605.0899,-162.5001"/>
</g>
<!-- TableModule -->
<g id="node8" class="node">
<title>TableModule</title>
<polygon fill="#8dd3c7" stroke="#000000" points="462.9232,-122 459.9232,-126 438.9232,-126 435.9232,-122 371.0768,-122 371.0768,-86 462.9232,-86 462.9232,-122"/>
<text text-anchor="middle" x="417" y="-99.8" font-family="Times,serif" font-size="14.00" fill="#000000">TableModule</text>
</g>
<!-- TableModule&#45;&gt;ProjectModule -->
<g id="edge7" class="edge">
<title>TableModule&#45;&gt;ProjectModule</title>
<path fill="none" stroke="#000000" d="M417,-122.2667C417,-140.5552 417,-166 417,-166 417,-166 605.1118,-166 605.1118,-166"/>
<polygon fill="#000000" stroke="#000000" points="605.1119,-169.5001 615.1118,-166 605.1118,-162.5001 605.1119,-169.5001"/>
</g>
<!-- TopPanelModule -->
<g id="node9" class="node">
<title>TopPanelModule</title>
<polygon fill="#8dd3c7" stroke="#000000" points="353.705,-122 350.705,-126 329.705,-126 326.705,-122 240.295,-122 240.295,-86 353.705,-86 353.705,-122"/>
<text text-anchor="middle" x="297" y="-99.8" font-family="Times,serif" font-size="14.00" fill="#000000">TopPanelModule</text>
</g>
<!-- TopPanelModule&#45;&gt;ProjectModule -->
<g id="edge8" class="edge">
<title>TopPanelModule&#45;&gt;ProjectModule</title>
<path fill="none" stroke="#000000" d="M297,-122.1289C297,-142.5724 297,-173 297,-173 297,-173 605.3699,-173 605.3699,-173"/>
<polygon fill="#000000" stroke="#000000" points="605.3699,-176.5001 615.3699,-173 605.3698,-169.5001 605.3699,-176.5001"/>
</g>
<!-- ProjectFeatureService -->
<g id="node11" class="node">
<title>ProjectFeatureService</title>
<ellipse fill="#fdb462" stroke="#000000" cx="120" cy="-104" rx="96.0996" ry="18"/>
<text text-anchor="middle" x="120" y="-99.8" font-family="Times,serif" font-size="14.00" fill="#000000">ProjectFeatureService</text>
</g>
<!-- ProjectFeatureService&#45;&gt;ProjectModule -->
<g id="edge10" class="edge">
<title>ProjectFeatureService&#45;&gt;ProjectModule</title>
<path fill="none" stroke="#000000" d="M120,-122.0109C120,-144.4852 120,-180 120,-180 120,-180 605.1901,-180 605.1901,-180"/>
<polygon fill="#000000" stroke="#000000" points="605.1901,-183.5001 615.1901,-180 605.1901,-176.5001 605.1901,-183.5001"/>
</g>
</g>
</svg>
