<?xml version="1.0" encoding="UTF-8" standalone="no"?>
<!DOCTYPE svg PUBLIC "-//W3C//DTD SVG 1.1//EN"
 "http://www.w3.org/Graphics/SVG/1.1/DTD/svg11.dtd">
<!-- Generated by graphviz version 2.40.1 (20161225.0304)
 -->
<!-- Title: dependencies Pages: 1 -->
<svg width="1216pt" height="284pt"
 viewBox="0.00 0.00 1216.00 284.00" xmlns="http://www.w3.org/2000/svg" xmlns:xlink="http://www.w3.org/1999/xlink">
<g id="graph0" class="graph" transform="scale(1 1) rotate(0) translate(4 280)">
<title>dependencies</title>
<polygon fill="#ffffff" stroke="transparent" points="-4,4 -4,-280 1212,-280 1212,4 -4,4"/>
<text text-anchor="start" x="583.0091" y="-42.4" font-family="sans-serif" font-weight="bold" font-size="14.00" fill="#000000">Legend</text>
<polygon fill="#ffffb3" stroke="transparent" points="370,-10 370,-30 390,-30 390,-10 370,-10"/>
<text text-anchor="start" x="393.629" y="-15.4" font-family="sans-serif" font-size="14.00" fill="#000000"> &#160;Declarations</text>
<polygon fill="#8dd3c7" stroke="transparent" points="483,-10 483,-30 503,-30 503,-10 483,-10"/>
<text text-anchor="start" x="506.7251" y="-15.4" font-family="sans-serif" font-size="14.00" fill="#000000"> &#160;Module</text>
<polygon fill="#80b1d3" stroke="transparent" points="569,-10 569,-30 589,-30 589,-10 569,-10"/>
<text text-anchor="start" x="592.7812" y="-15.4" font-family="sans-serif" font-size="14.00" fill="#000000"> &#160;Bootstrap</text>
<polygon fill="#fdb462" stroke="transparent" points="666,-10 666,-30 686,-30 686,-10 666,-10"/>
<text text-anchor="start" x="689.6732" y="-15.4" font-family="sans-serif" font-size="14.00" fill="#000000"> &#160;Providers</text>
<polygon fill="#fb8072" stroke="transparent" points="762,-10 762,-30 782,-30 782,-10 762,-10"/>
<text text-anchor="start" x="785.7258" y="-15.4" font-family="sans-serif" font-size="14.00" fill="#000000"> &#160;Exports</text>
<g id="clust1" class="cluster">
<title>cluster_ProjectModule</title>
<polygon fill="none" stroke="#000000" stroke-dasharray="1,5" points="8,-70 8,-268 1200,-268 1200,-70 8,-70"/>
</g>
<g id="clust2" class="cluster">
<title>cluster_ProjectModule_declarations</title>
<polygon fill="none" stroke="#000000" points="664,-78 664,-130 1192,-130 1192,-78 664,-78"/>
</g>
<g id="clust6" class="cluster">
<title>cluster_ProjectModule_imports</title>
<polygon fill="none" stroke="#000000" points="16,-78 16,-130 656,-130 656,-78 16,-78"/>
</g>
<g id="clust7" class="cluster">
<title>cluster_ProjectModule_exports</title>
<polygon fill="none" stroke="#000000" points="428,-208 428,-260 602,-260 602,-208 428,-208"/>
</g>
<!-- ProjectNavComponent -->
<g id="node1" class="node">
<title>ProjectNavComponent</title>
<polygon fill="#ffffb3" stroke="#000000" points="1184.3075,-122 1039.6925,-122 1039.6925,-86 1184.3075,-86 1184.3075,-122"/>
<text text-anchor="middle" x="1112" y="-99.8" font-family="Times,serif" font-size="14.00" fill="#000000">ProjectNavComponent</text>
</g>
<!-- ProjectModule -->
<g id="node4" class="node">
<title>ProjectModule</title>
<polygon fill="#8dd3c7" stroke="#000000" points="564.7036,-187 561.7036,-191 540.7036,-191 537.7036,-187 465.2964,-187 465.2964,-151 564.7036,-151 564.7036,-187"/>
<text text-anchor="middle" x="515" y="-164.8" font-family="Times,serif" font-size="14.00" fill="#000000">ProjectModule</text>
</g>
<!-- ProjectNavComponent&#45;&gt;ProjectModule -->
<g id="edge1" class="edge">
<title>ProjectNavComponent&#45;&gt;ProjectModule</title>
<path fill="none" stroke="#000000" d="M1112,-122.2921C1112,-144.2057 1112,-178 1112,-178 1112,-178 574.6177,-178 574.6177,-178"/>
<polygon fill="#000000" stroke="#000000" points="574.6177,-174.5001 564.6177,-178 574.6177,-181.5001 574.6177,-174.5001"/>
</g>
<!-- ProjectsListViewComponent -->
<g id="node2" class="node">
<title>ProjectsListViewComponent</title>
<polygon fill="#ffffb3" stroke="#000000" points="1022.028,-122 843.972,-122 843.972,-86 1022.028,-86 1022.028,-122"/>
<text text-anchor="middle" x="933" y="-99.8" font-family="Times,serif" font-size="14.00" fill="#000000">ProjectsListViewComponent</text>
</g>
<!-- ProjectsListViewComponent&#45;&gt;ProjectModule -->
<g id="edge2" class="edge">
<title>ProjectsListViewComponent&#45;&gt;ProjectModule</title>
<path fill="none" stroke="#000000" d="M933,-122.1061C933,-141.3391 933,-169 933,-169 933,-169 575.0054,-169 575.0054,-169"/>
<polygon fill="#000000" stroke="#000000" points="575.0054,-165.5001 565.0054,-169 575.0053,-172.5001 575.0054,-165.5001"/>
</g>
<!-- ProjectsPageComponent -->
<g id="node3" class="node">
<title>ProjectsPageComponent</title>
<polygon fill="#ffffb3" stroke="#000000" points="825.6428,-122 672.3572,-122 672.3572,-86 825.6428,-86 825.6428,-122"/>
<text text-anchor="middle" x="749" y="-99.8" font-family="Times,serif" font-size="14.00" fill="#000000">ProjectsPageComponent</text>
</g>
<!-- ProjectsPageComponent&#45;&gt;ProjectModule -->
<g id="edge3" class="edge">
<title>ProjectsPageComponent&#45;&gt;ProjectModule</title>
<path fill="none" stroke="#000000" d="M749,-122.027C749,-138.3976 749,-160 749,-160 749,-160 574.6254,-160 574.6254,-160"/>
<polygon fill="#000000" stroke="#000000" points="574.6254,-156.5001 564.6254,-160 574.6253,-163.5001 574.6254,-156.5001"/>
</g>
<!-- ProjectsPageComponent  -->
<g id="node10" class="node">
<title>ProjectsPageComponent </title>
<polygon fill="#fb8072" stroke="#000000" points="593.6425,-252 436.3575,-252 436.3575,-216 593.6425,-216 593.6425,-252"/>
<text text-anchor="middle" x="515" y="-229.8" font-family="Times,serif" font-size="14.00" fill="#000000">ProjectsPageComponent </text>
</g>
<!-- ProjectModule&#45;&gt;ProjectsPageComponent  -->
<g id="edge9" class="edge">
<title>ProjectModule&#45;&gt;ProjectsPageComponent </title>
<path fill="none" stroke="#000000" stroke-dasharray="5,2" d="M515,-187.1061C515,-187.1061 515,-205.991 515,-205.991"/>
<polygon fill="#000000" stroke="#000000" points="511.5001,-205.9909 515,-215.991 518.5001,-205.991 511.5001,-205.9909"/>
</g>
<!-- SelectionBarModule -->
<g id="node5" class="node">
<title>SelectionBarModule</title>
<polygon fill="#8dd3c7" stroke="#000000" points="647.8599,-122 644.8599,-126 623.8599,-126 620.8599,-122 516.1401,-122 516.1401,-86 647.8599,-86 647.8599,-122"/>
<text text-anchor="middle" x="582" y="-99.8" font-family="Times,serif" font-size="14.00" fill="#000000">SelectionBarModule</text>
</g>
<!-- SelectionBarModule&#45;&gt;ProjectModule -->
<g id="edge4" class="edge">
<title>SelectionBarModule&#45;&gt;ProjectModule</title>
<path fill="none" stroke="#000000" d="M540.3359,-122.1061C540.3359,-122.1061 540.3359,-140.991 540.3359,-140.991"/>
<polygon fill="#000000" stroke="#000000" points="536.836,-140.9909 540.3359,-150.991 543.836,-140.991 536.836,-140.9909"/>
</g>
<!-- SharedModule -->
<g id="node6" class="node">
<title>SharedModule</title>
<polygon fill="#8dd3c7" stroke="#000000" points="498.4231,-122 495.4231,-126 474.4231,-126 471.4231,-122 399.5769,-122 399.5769,-86 498.4231,-86 498.4231,-122"/>
<text text-anchor="middle" x="449" y="-99.8" font-family="Times,serif" font-size="14.00" fill="#000000">SharedModule</text>
</g>
<!-- SharedModule&#45;&gt;ProjectModule -->
<g id="edge5" class="edge">
<title>SharedModule&#45;&gt;ProjectModule</title>
<path fill="none" stroke="#000000" d="M481.8047,-122.1061C481.8047,-122.1061 481.8047,-140.991 481.8047,-140.991"/>
<polygon fill="#000000" stroke="#000000" points="478.3048,-140.9909 481.8047,-150.991 485.3048,-140.991 478.3048,-140.9909"/>
</g>
<!-- SideMenuModule -->
<g id="node7" class="node">
<title>SideMenuModule</title>
<polygon fill="#8dd3c7" stroke="#000000" points="381.5968,-122 378.5968,-126 357.5968,-126 354.5968,-122 264.4032,-122 264.4032,-86 381.5968,-86 381.5968,-122"/>
<text text-anchor="middle" x="323" y="-99.8" font-family="Times,serif" font-size="14.00" fill="#000000">SideMenuModule</text>
</g>
<!-- SideMenuModule&#45;&gt;ProjectModule -->
<g id="edge6" class="edge">
<title>SideMenuModule&#45;&gt;ProjectModule</title>
<path fill="none" stroke="#000000" d="M323,-122.027C323,-138.3976 323,-160 323,-160 323,-160 455.0555,-160 455.0555,-160"/>
<polygon fill="#000000" stroke="#000000" points="455.0555,-163.5001 465.0555,-160 455.0554,-156.5001 455.0555,-163.5001"/>
</g>
<!-- TableModule -->
<g id="node8" class="node">
<title>TableModule</title>
<polygon fill="#8dd3c7" stroke="#000000" points="246.9232,-122 243.9232,-126 222.9232,-126 219.9232,-122 155.0768,-122 155.0768,-86 246.9232,-86 246.9232,-122"/>
<text text-anchor="middle" x="201" y="-99.8" font-family="Times,serif" font-size="14.00" fill="#000000">TableModule</text>
</g>
<!-- TableModule&#45;&gt;ProjectModule -->
<g id="edge7" class="edge">
<title>TableModule&#45;&gt;ProjectModule</title>
<path fill="none" stroke="#000000" d="M201,-122.1061C201,-141.3391 201,-169 201,-169 201,-169 455.2458,-169 455.2458,-169"/>
<polygon fill="#000000" stroke="#000000" points="455.2458,-172.5001 465.2458,-169 455.2457,-165.5001 455.2458,-172.5001"/>
</g>
<!-- TopPanelModule -->
<g id="node9" class="node">
<title>TopPanelModule</title>
<polygon fill="#8dd3c7" stroke="#000000" points="137.705,-122 134.705,-126 113.705,-126 110.705,-122 24.295,-122 24.295,-86 137.705,-86 137.705,-122"/>
<text text-anchor="middle" x="81" y="-99.8" font-family="Times,serif" font-size="14.00" fill="#000000">TopPanelModule</text>
</g>
<!-- TopPanelModule&#45;&gt;ProjectModule -->
<g id="edge8" class="edge">
<title>TopPanelModule&#45;&gt;ProjectModule</title>
<path fill="none" stroke="#000000" d="M81,-122.2921C81,-144.2057 81,-178 81,-178 81,-178 455.2147,-178 455.2147,-178"/>
<polygon fill="#000000" stroke="#000000" points="455.2147,-181.5001 465.2147,-178 455.2146,-174.5001 455.2147,-181.5001"/>
</g>
</g>
</svg>
