<?xml version="1.0" encoding="UTF-8" standalone="no"?>
<!DOCTYPE svg PUBLIC "-//W3C//DTD SVG 1.1//EN"
 "http://www.w3.org/Graphics/SVG/1.1/DTD/svg11.dtd">
<!-- Generated by graphviz version 2.40.1 (20161225.0304)
 -->
<!-- Title: dependencies Pages: 1 -->
<svg width="727pt" height="284pt"
 viewBox="0.00 0.00 727.00 284.00" xmlns="http://www.w3.org/2000/svg" xmlns:xlink="http://www.w3.org/1999/xlink">
<g id="graph0" class="graph" transform="scale(1 1) rotate(0) translate(4 280)">
<title>dependencies</title>
<polygon fill="#ffffff" stroke="transparent" points="-4,4 -4,-280 723,-280 723,4 -4,4"/>
<text text-anchor="start" x="338.5091" y="-42.4" font-family="sans-serif" font-weight="bold" font-size="14.00" fill="#000000">Legend</text>
<polygon fill="#ffffb3" stroke="transparent" points="125.5,-10 125.5,-30 145.5,-30 145.5,-10 125.5,-10"/>
<text text-anchor="start" x="149.129" y="-15.4" font-family="sans-serif" font-size="14.00" fill="#000000"> &#160;Declarations</text>
<polygon fill="#8dd3c7" stroke="transparent" points="238.5,-10 238.5,-30 258.5,-30 258.5,-10 238.5,-10"/>
<text text-anchor="start" x="262.2251" y="-15.4" font-family="sans-serif" font-size="14.00" fill="#000000"> &#160;Module</text>
<polygon fill="#80b1d3" stroke="transparent" points="324.5,-10 324.5,-30 344.5,-30 344.5,-10 324.5,-10"/>
<text text-anchor="start" x="348.2812" y="-15.4" font-family="sans-serif" font-size="14.00" fill="#000000"> &#160;Bootstrap</text>
<polygon fill="#fdb462" stroke="transparent" points="421.5,-10 421.5,-30 441.5,-30 441.5,-10 421.5,-10"/>
<text text-anchor="start" x="445.1732" y="-15.4" font-family="sans-serif" font-size="14.00" fill="#000000"> &#160;Providers</text>
<polygon fill="#fb8072" stroke="transparent" points="517.5,-10 517.5,-30 537.5,-30 537.5,-10 517.5,-10"/>
<text text-anchor="start" x="541.2258" y="-15.4" font-family="sans-serif" font-size="14.00" fill="#000000"> &#160;Exports</text>
<g id="clust1" class="cluster">
<title>cluster_PickATeamModule</title>
<polygon fill="none" stroke="#000000" stroke-dasharray="1,5" points="8,-70 8,-268 711,-268 711,-70 8,-70"/>
</g>
<g id="clust2" class="cluster">
<title>cluster_PickATeamModule_declarations</title>
<polygon fill="none" stroke="#000000" points="306,-78 306,-130 703,-130 703,-78 306,-78"/>
</g>
<g id="clust5" class="cluster">
<title>cluster_PickATeamModule_imports</title>
<polygon fill="none" stroke="#000000" points="184,-78 184,-130 298,-130 298,-78 184,-78"/>
</g>
<g id="clust6" class="cluster">
<title>cluster_PickATeamModule_exports</title>
<polygon fill="none" stroke="#000000" points="121,-208 121,-260 524,-260 524,-208 121,-208"/>
</g>
<g id="clust8" class="cluster">
<title>cluster_PickATeamModule_providers</title>
<polygon fill="none" stroke="#000000" points="16,-78 16,-130 176,-130 176,-78 16,-78"/>
</g>
<!-- CreateATeamPageComponent -->
<g id="node1" class="node">
<title>CreateATeamPageComponent</title>
<polygon fill="#ffffb3" stroke="#000000" points="694.5548,-122 507.4452,-122 507.4452,-86 694.5548,-86 694.5548,-122"/>
<text text-anchor="middle" x="601" y="-99.8" font-family="Times,serif" font-size="14.00" fill="#000000">CreateATeamPageComponent</text>
</g>
<!-- PickATeamModule -->
<g id="node3" class="node">
<title>PickATeamModule</title>
<polygon fill="#8dd3c7" stroke="#000000" points="382.4173,-187 379.4173,-191 358.4173,-191 355.4173,-187 255.5827,-187 255.5827,-151 382.4173,-151 382.4173,-187"/>
<text text-anchor="middle" x="319" y="-164.8" font-family="Times,serif" font-size="14.00" fill="#000000">PickATeamModule</text>
</g>
<!-- CreateATeamPageComponent&#45;&gt;PickATeamModule -->
<g id="edge1" class="edge">
<title>CreateATeamPageComponent&#45;&gt;PickATeamModule</title>
<path fill="none" stroke="#000000" d="M511.875,-122.1061C511.875,-141.3391 511.875,-169 511.875,-169 511.875,-169 392.4216,-169 392.4216,-169"/>
<polygon fill="#000000" stroke="#000000" points="392.4217,-165.5001 382.4216,-169 392.4216,-172.5001 392.4217,-165.5001"/>
</g>
<!-- PickATeamPageComponent -->
<g id="node2" class="node">
<title>PickATeamPageComponent</title>
<polygon fill="#ffffb3" stroke="#000000" points="489.9115,-122 314.0885,-122 314.0885,-86 489.9115,-86 489.9115,-122"/>
<text text-anchor="middle" x="402" y="-99.8" font-family="Times,serif" font-size="14.00" fill="#000000">PickATeamPageComponent</text>
</g>
<!-- PickATeamPageComponent&#45;&gt;PickATeamModule -->
<g id="edge2" class="edge">
<title>PickATeamPageComponent&#45;&gt;PickATeamModule</title>
<path fill="none" stroke="#000000" d="M348.2514,-122.1061C348.2514,-122.1061 348.2514,-140.991 348.2514,-140.991"/>
<polygon fill="#000000" stroke="#000000" points="344.7515,-140.9909 348.2514,-150.991 351.7515,-140.991 344.7515,-140.9909"/>
</g>
<!-- CreateATeamPageComponent  -->
<g id="node5" class="node">
<title>CreateATeamPageComponent </title>
<polygon fill="#fb8072" stroke="#000000" points="516.0553,-252 325.9447,-252 325.9447,-216 516.0553,-216 516.0553,-252"/>
<text text-anchor="middle" x="421" y="-229.8" font-family="Times,serif" font-size="14.00" fill="#000000">CreateATeamPageComponent </text>
</g>
<!-- PickATeamModule&#45;&gt;CreateATeamPageComponent  -->
<g id="edge4" class="edge">
<title>PickATeamModule&#45;&gt;CreateATeamPageComponent </title>
<path fill="none" stroke="#000000" stroke-dasharray="5,2" d="M353.9655,-187.1061C353.9655,-187.1061 353.9655,-205.991 353.9655,-205.991"/>
<polygon fill="#000000" stroke="#000000" points="350.4655,-205.9909 353.9655,-215.991 357.4655,-205.991 350.4655,-205.9909"/>
</g>
<!-- PickATeamPageComponent  -->
<g id="node6" class="node">
<title>PickATeamPageComponent </title>
<polygon fill="#fb8072" stroke="#000000" points="307.411,-252 128.589,-252 128.589,-216 307.411,-216 307.411,-252"/>
<text text-anchor="middle" x="218" y="-229.8" font-family="Times,serif" font-size="14.00" fill="#000000">PickATeamPageComponent </text>
</g>
<!-- PickATeamModule&#45;&gt;PickATeamPageComponent  -->
<g id="edge5" class="edge">
<title>PickATeamModule&#45;&gt;PickATeamPageComponent </title>
<path fill="none" stroke="#000000" stroke-dasharray="5,2" d="M281.6236,-187.1061C281.6236,-187.1061 281.6236,-205.991 281.6236,-205.991"/>
<polygon fill="#000000" stroke="#000000" points="278.1237,-205.9909 281.6236,-215.991 285.1237,-205.991 278.1237,-205.9909"/>
</g>
<!-- SharedModule -->
<g id="node4" class="node">
<title>SharedModule</title>
<polygon fill="#8dd3c7" stroke="#000000" points="290.4231,-122 287.4231,-126 266.4231,-126 263.4231,-122 191.5769,-122 191.5769,-86 290.4231,-86 290.4231,-122"/>
<text text-anchor="middle" x="241" y="-99.8" font-family="Times,serif" font-size="14.00" fill="#000000">SharedModule</text>
</g>
<!-- SharedModule&#45;&gt;PickATeamModule -->
<g id="edge3" class="edge">
<title>SharedModule&#45;&gt;PickATeamModule</title>
<path fill="none" stroke="#000000" d="M273.0014,-122.1061C273.0014,-122.1061 273.0014,-140.991 273.0014,-140.991"/>
<polygon fill="#000000" stroke="#000000" points="269.5015,-140.9909 273.0014,-150.991 276.5015,-140.991 269.5015,-140.9909"/>
</g>
<!-- HasTeamGuard -->
<g id="node7" class="node">
<title>HasTeamGuard</title>
<ellipse fill="#fdb462" stroke="#000000" cx="96" cy="-104" rx="72.3303" ry="18"/>
<text text-anchor="middle" x="96" y="-99.8" font-family="Times,serif" font-size="14.00" fill="#000000">HasTeamGuard</text>
</g>
<!-- HasTeamGuard&#45;&gt;PickATeamModule -->
<g id="edge6" class="edge">
<title>HasTeamGuard&#45;&gt;PickATeamModule</title>
<path fill="none" stroke="#000000" d="M148.3547,-116.5327C148.3547,-135.4209 148.3547,-169 148.3547,-169 148.3547,-169 245.458,-169 245.458,-169"/>
<polygon fill="#000000" stroke="#000000" points="245.458,-172.5001 255.458,-169 245.458,-165.5001 245.458,-172.5001"/>
</g>
</g>
</svg>
