<?xml version="1.0" encoding="UTF-8" standalone="no"?>
<!DOCTYPE svg PUBLIC "-//W3C//DTD SVG 1.1//EN"
 "http://www.w3.org/Graphics/SVG/1.1/DTD/svg11.dtd">
<!-- Generated by graphviz version 2.40.1 (20161225.0304)
 -->
<!-- Title: dependencies Pages: 1 -->
<svg width="504pt" height="284pt"
 viewBox="0.00 0.00 504.00 284.00" xmlns="http://www.w3.org/2000/svg" xmlns:xlink="http://www.w3.org/1999/xlink">
<g id="graph0" class="graph" transform="scale(1 1) rotate(0) translate(4 280)">
<title>dependencies</title>
<polygon fill="#ffffff" stroke="transparent" points="-4,4 -4,-280 500,-280 500,4 -4,4"/>
<text text-anchor="start" x="227.0091" y="-42.4" font-family="sans-serif" font-weight="bold" font-size="14.00" fill="#000000">Legend</text>
<polygon fill="#ffffb3" stroke="transparent" points="14,-10 14,-30 34,-30 34,-10 14,-10"/>
<text text-anchor="start" x="37.629" y="-15.4" font-family="sans-serif" font-size="14.00" fill="#000000"> &#160;Declarations</text>
<polygon fill="#8dd3c7" stroke="transparent" points="127,-10 127,-30 147,-30 147,-10 127,-10"/>
<text text-anchor="start" x="150.7251" y="-15.4" font-family="sans-serif" font-size="14.00" fill="#000000"> &#160;Module</text>
<polygon fill="#80b1d3" stroke="transparent" points="213,-10 213,-30 233,-30 233,-10 213,-10"/>
<text text-anchor="start" x="236.7812" y="-15.4" font-family="sans-serif" font-size="14.00" fill="#000000"> &#160;Bootstrap</text>
<polygon fill="#fdb462" stroke="transparent" points="310,-10 310,-30 330,-30 330,-10 310,-10"/>
<text text-anchor="start" x="333.6732" y="-15.4" font-family="sans-serif" font-size="14.00" fill="#000000"> &#160;Providers</text>
<polygon fill="#fb8072" stroke="transparent" points="406,-10 406,-30 426,-30 426,-10 406,-10"/>
<text text-anchor="start" x="429.7258" y="-15.4" font-family="sans-serif" font-size="14.00" fill="#000000"> &#160;Exports</text>
<g id="clust1" class="cluster">
<title>cluster_IconsModule</title>
<polygon fill="none" stroke="#000000" stroke-dasharray="1,5" points="89,-70 89,-268 407,-268 407,-70 89,-70"/>
</g>
<g id="clust2" class="cluster">
<title>cluster_IconsModule_declarations</title>
<polygon fill="none" stroke="#000000" points="100,-78 100,-130 396,-130 396,-78 100,-78"/>
</g>
<g id="clust6" class="cluster">
<title>cluster_IconsModule_exports</title>
<polygon fill="none" stroke="#000000" points="97,-208 97,-260 399,-260 399,-208 97,-208"/>
</g>
<!-- IconComponent -->
<g id="node1" class="node">
<title>IconComponent</title>
<polygon fill="#ffffb3" stroke="#000000" points="388.2078,-122 281.7922,-122 281.7922,-86 388.2078,-86 388.2078,-122"/>
<text text-anchor="middle" x="335" y="-99.8" font-family="Times,serif" font-size="14.00" fill="#000000">IconComponent</text>
</g>
<!-- IconsModule -->
<g id="node3" class="node">
<title>IconsModule</title>
<polygon fill="#8dd3c7" stroke="#000000" points="230.8697,-187 227.8697,-191 206.8697,-191 203.8697,-187 141.1303,-187 141.1303,-151 230.8697,-151 230.8697,-187"/>
<text text-anchor="middle" x="186" y="-164.8" font-family="Times,serif" font-size="14.00" fill="#000000">IconsModule</text>
</g>
<!-- IconComponent&#45;&gt;IconsModule -->
<g id="edge1" class="edge">
<title>IconComponent&#45;&gt;IconsModule</title>
<path fill="none" stroke="#000000" d="M352.7013,-122.0225C352.7013,-139.3734 352.7013,-163 352.7013,-163 352.7013,-163 241.1118,-163 241.1118,-163"/>
<polygon fill="#000000" stroke="#000000" points="241.1118,-159.5001 231.1118,-163 241.1117,-166.5001 241.1118,-159.5001"/>
</g>
<!-- IconSymbolsComponent -->
<g id="node2" class="node">
<title>IconSymbolsComponent</title>
<polygon fill="#ffffb3" stroke="#000000" points="263.7162,-122 108.2838,-122 108.2838,-86 263.7162,-86 263.7162,-122"/>
<text text-anchor="middle" x="186" y="-99.8" font-family="Times,serif" font-size="14.00" fill="#000000">IconSymbolsComponent</text>
</g>
<!-- IconSymbolsComponent&#45;&gt;IconsModule -->
<g id="edge2" class="edge">
<title>IconSymbolsComponent&#45;&gt;IconsModule</title>
<path fill="none" stroke="#000000" d="M186,-122.1061C186,-122.1061 186,-140.991 186,-140.991"/>
<polygon fill="#000000" stroke="#000000" points="182.5001,-140.9909 186,-150.991 189.5001,-140.991 182.5001,-140.9909"/>
</g>
<!-- IconComponent  -->
<g id="node4" class="node">
<title>IconComponent </title>
<polygon fill="#fb8072" stroke="#000000" points="390.708,-252 281.292,-252 281.292,-216 390.708,-216 390.708,-252"/>
<text text-anchor="middle" x="336" y="-229.8" font-family="Times,serif" font-size="14.00" fill="#000000">IconComponent </text>
</g>
<!-- IconsModule&#45;&gt;IconComponent  -->
<g id="edge3" class="edge">
<title>IconsModule&#45;&gt;IconComponent </title>
<path fill="none" stroke="#000000" stroke-dasharray="5,2" d="M231.1856,-175C269.1656,-175 317.2987,-175 317.2987,-175 317.2987,-175 317.2987,-205.9775 317.2987,-205.9775"/>
<polygon fill="#000000" stroke="#000000" points="313.7988,-205.9774 317.2987,-215.9775 320.7988,-205.9775 313.7988,-205.9774"/>
</g>
<!-- IconSymbolsComponent  -->
<g id="node5" class="node">
<title>IconSymbolsComponent </title>
<polygon fill="#fb8072" stroke="#000000" points="263.2163,-252 104.7837,-252 104.7837,-216 263.2163,-216 263.2163,-252"/>
<text text-anchor="middle" x="184" y="-229.8" font-family="Times,serif" font-size="14.00" fill="#000000">IconSymbolsComponent </text>
</g>
<!-- IconsModule&#45;&gt;IconSymbolsComponent  -->
<g id="edge4" class="edge">
<title>IconsModule&#45;&gt;IconSymbolsComponent </title>
<path fill="none" stroke="#000000" stroke-dasharray="5,2" d="M186,-187.1061C186,-187.1061 186,-205.991 186,-205.991"/>
<polygon fill="#000000" stroke="#000000" points="182.5001,-205.9909 186,-215.991 189.5001,-205.991 182.5001,-205.9909"/>
</g>
</g>
</svg>
