<?xml version="1.0" encoding="UTF-8" standalone="no"?>
<!DOCTYPE svg PUBLIC "-//W3C//DTD SVG 1.1//EN"
 "http://www.w3.org/Graphics/SVG/1.1/DTD/svg11.dtd">
<!-- Generated by graphviz version 2.40.1 (20161225.0304)
 -->
<!-- Title: dependencies Pages: 1 -->
<svg width="1406pt" height="284pt"
 viewBox="0.00 0.00 1406.00 284.00" xmlns="http://www.w3.org/2000/svg" xmlns:xlink="http://www.w3.org/1999/xlink">
<g id="graph0" class="graph" transform="scale(1 1) rotate(0) translate(4 280)">
<title>dependencies</title>
<polygon fill="#ffffff" stroke="transparent" points="-4,4 -4,-280 1402,-280 1402,4 -4,4"/>
<text text-anchor="start" x="678.0091" y="-42.4" font-family="sans-serif" font-weight="bold" font-size="14.00" fill="#000000">Legend</text>
<polygon fill="#ffffb3" stroke="transparent" points="465,-10 465,-30 485,-30 485,-10 465,-10"/>
<text text-anchor="start" x="488.629" y="-15.4" font-family="sans-serif" font-size="14.00" fill="#000000"> &#160;Declarations</text>
<polygon fill="#8dd3c7" stroke="transparent" points="578,-10 578,-30 598,-30 598,-10 578,-10"/>
<text text-anchor="start" x="601.7251" y="-15.4" font-family="sans-serif" font-size="14.00" fill="#000000"> &#160;Module</text>
<polygon fill="#80b1d3" stroke="transparent" points="664,-10 664,-30 684,-30 684,-10 664,-10"/>
<text text-anchor="start" x="687.7812" y="-15.4" font-family="sans-serif" font-size="14.00" fill="#000000"> &#160;Bootstrap</text>
<polygon fill="#fdb462" stroke="transparent" points="761,-10 761,-30 781,-30 781,-10 761,-10"/>
<text text-anchor="start" x="784.6732" y="-15.4" font-family="sans-serif" font-size="14.00" fill="#000000"> &#160;Providers</text>
<polygon fill="#fb8072" stroke="transparent" points="857,-10 857,-30 877,-30 877,-10 857,-10"/>
<text text-anchor="start" x="880.7258" y="-15.4" font-family="sans-serif" font-size="14.00" fill="#000000"> &#160;Exports</text>
<g id="clust1" class="cluster">
<title>cluster_TopPanelModule</title>
<polygon fill="none" stroke="#000000" stroke-dasharray="1,5" points="8,-70 8,-268 1390,-268 1390,-70 8,-70"/>
</g>
<g id="clust2" class="cluster">
<title>cluster_TopPanelModule_declarations</title>
<polygon fill="none" stroke="#000000" points="727,-78 727,-130 1382,-130 1382,-78 727,-78"/>
</g>
<g id="clust7" class="cluster">
<title>cluster_TopPanelModule_imports</title>
<polygon fill="none" stroke="#000000" points="16,-78 16,-130 719,-130 719,-78 16,-78"/>
</g>
<g id="clust8" class="cluster">
<title>cluster_TopPanelModule_exports</title>
<polygon fill="none" stroke="#000000" points="378,-208 378,-260 863,-260 863,-208 378,-208"/>
</g>
<!-- BreadCrumbComponent -->
<g id="node1" class="node">
<title>BreadCrumbComponent</title>
<polygon fill="#ffffb3" stroke="#000000" points="1373.647,-122 1220.353,-122 1220.353,-86 1373.647,-86 1373.647,-122"/>
<text text-anchor="middle" x="1297" y="-99.8" font-family="Times,serif" font-size="14.00" fill="#000000">BreadCrumbComponent</text>
</g>
<!-- TopPanelModule -->
<g id="node5" class="node">
<title>TopPanelModule</title>
<polygon fill="#8dd3c7" stroke="#000000" points="667.705,-187 664.705,-191 643.705,-191 640.705,-187 554.295,-187 554.295,-151 667.705,-151 667.705,-187"/>
<text text-anchor="middle" x="611" y="-164.8" font-family="Times,serif" font-size="14.00" fill="#000000">TopPanelModule</text>
</g>
<!-- BreadCrumbComponent&#45;&gt;TopPanelModule -->
<g id="edge1" class="edge">
<title>BreadCrumbComponent&#45;&gt;TopPanelModule</title>
<path fill="none" stroke="#000000" d="M1297,-122.2843C1297,-143.3211 1297,-175 1297,-175 1297,-175 677.7219,-175 677.7219,-175"/>
<polygon fill="#000000" stroke="#000000" points="677.7219,-171.5001 667.7219,-175 677.7219,-178.5001 677.7219,-171.5001"/>
</g>
<!-- SubPanelComponent -->
<g id="node2" class="node">
<title>SubPanelComponent</title>
<polygon fill="#ffffb3" stroke="#000000" points="1202.2176,-122 1067.7824,-122 1067.7824,-86 1202.2176,-86 1202.2176,-122"/>
<text text-anchor="middle" x="1135" y="-99.8" font-family="Times,serif" font-size="14.00" fill="#000000">SubPanelComponent</text>
</g>
<!-- SubPanelComponent&#45;&gt;TopPanelModule -->
<g id="edge2" class="edge">
<title>SubPanelComponent&#45;&gt;TopPanelModule</title>
<path fill="none" stroke="#000000" d="M1135,-122.1061C1135,-141.3391 1135,-169 1135,-169 1135,-169 678.0747,-169 678.0747,-169"/>
<polygon fill="#000000" stroke="#000000" points="678.0747,-165.5001 668.0747,-169 678.0747,-172.5001 678.0747,-165.5001"/>
</g>
<!-- TopPanelComponent -->
<g id="node3" class="node">
<title>TopPanelComponent</title>
<polygon fill="#ffffb3" stroke="#000000" points="1049.4874,-122 914.5126,-122 914.5126,-86 1049.4874,-86 1049.4874,-122"/>
<text text-anchor="middle" x="982" y="-99.8" font-family="Times,serif" font-size="14.00" fill="#000000">TopPanelComponent</text>
</g>
<!-- TopPanelComponent&#45;&gt;TopPanelModule -->
<g id="edge3" class="edge">
<title>TopPanelComponent&#45;&gt;TopPanelModule</title>
<path fill="none" stroke="#000000" d="M982,-122.0225C982,-139.3734 982,-163 982,-163 982,-163 677.7508,-163 677.7508,-163"/>
<polygon fill="#000000" stroke="#000000" points="677.7508,-159.5001 667.7508,-163 677.7507,-166.5001 677.7508,-159.5001"/>
</g>
<!-- ViewSwitcherComponent -->
<g id="node4" class="node">
<title>ViewSwitcherComponent</title>
<polygon fill="#ffffb3" stroke="#000000" points="896.9115,-122 735.0885,-122 735.0885,-86 896.9115,-86 896.9115,-122"/>
<text text-anchor="middle" x="816" y="-99.8" font-family="Times,serif" font-size="14.00" fill="#000000">ViewSwitcherComponent</text>
</g>
<!-- ViewSwitcherComponent&#45;&gt;TopPanelModule -->
<g id="edge4" class="edge">
<title>ViewSwitcherComponent&#45;&gt;TopPanelModule</title>
<path fill="none" stroke="#000000" d="M794.9339,-122.2396C794.9339,-137.5706 794.9339,-157 794.9339,-157 794.9339,-157 677.6871,-157 677.6871,-157"/>
<polygon fill="#000000" stroke="#000000" points="677.6871,-153.5001 667.6871,-157 677.687,-160.5001 677.6871,-153.5001"/>
</g>
<!-- BreadCrumbComponent  -->
<g id="node12" class="node">
<title>BreadCrumbComponent </title>
<polygon fill="#fb8072" stroke="#000000" points="854.6467,-252 697.3533,-252 697.3533,-216 854.6467,-216 854.6467,-252"/>
<text text-anchor="middle" x="776" y="-229.8" font-family="Times,serif" font-size="14.00" fill="#000000">BreadCrumbComponent </text>
</g>
<!-- TopPanelModule&#45;&gt;BreadCrumbComponent  -->
<g id="edge11" class="edge">
<title>TopPanelModule&#45;&gt;BreadCrumbComponent </title>
<path fill="none" stroke="#000000" stroke-dasharray="5,2" d="M667.7562,-181C687.3149,-181 704.4037,-181 704.4037,-181 704.4037,-181 704.4037,-205.7604 704.4037,-205.7604"/>
<polygon fill="#000000" stroke="#000000" points="700.9038,-205.7604 704.4037,-215.7604 707.9038,-205.7604 700.9038,-205.7604"/>
</g>
<!-- SubPanelComponent  -->
<g id="node13" class="node">
<title>SubPanelComponent </title>
<polygon fill="#fb8072" stroke="#000000" points="679.7177,-252 542.2823,-252 542.2823,-216 679.7177,-216 679.7177,-252"/>
<text text-anchor="middle" x="611" y="-229.8" font-family="Times,serif" font-size="14.00" fill="#000000">SubPanelComponent </text>
</g>
<!-- TopPanelModule&#45;&gt;SubPanelComponent  -->
<g id="edge12" class="edge">
<title>TopPanelModule&#45;&gt;SubPanelComponent </title>
<path fill="none" stroke="#000000" stroke-dasharray="5,2" d="M611,-187.1061C611,-187.1061 611,-205.991 611,-205.991"/>
<polygon fill="#000000" stroke="#000000" points="607.5001,-205.9909 611,-215.991 614.5001,-205.991 607.5001,-205.9909"/>
</g>
<!-- TopPanelComponent  -->
<g id="node14" class="node">
<title>TopPanelComponent </title>
<polygon fill="#fb8072" stroke="#000000" points="524.4883,-252 385.5117,-252 385.5117,-216 524.4883,-216 524.4883,-252"/>
<text text-anchor="middle" x="455" y="-229.8" font-family="Times,serif" font-size="14.00" fill="#000000">TopPanelComponent </text>
</g>
<!-- TopPanelModule&#45;&gt;TopPanelComponent  -->
<g id="edge13" class="edge">
<title>TopPanelModule&#45;&gt;TopPanelComponent </title>
<path fill="none" stroke="#000000" stroke-dasharray="5,2" d="M554.3196,-181C533.1021,-181 514.0437,-181 514.0437,-181 514.0437,-181 514.0437,-205.7604 514.0437,-205.7604"/>
<polygon fill="#000000" stroke="#000000" points="510.5437,-205.7604 514.0437,-215.7604 517.5437,-205.7604 510.5437,-205.7604"/>
</g>
<!-- CardModule -->
<g id="node6" class="node">
<title>CardModule</title>
<polygon fill="#8dd3c7" stroke="#000000" points="711.2619,-122 708.2619,-126 687.2619,-126 684.2619,-122 624.7381,-122 624.7381,-86 711.2619,-86 711.2619,-122"/>
<text text-anchor="middle" x="668" y="-99.8" font-family="Times,serif" font-size="14.00" fill="#000000">CardModule</text>
</g>
<!-- CardModule&#45;&gt;TopPanelModule -->
<g id="edge5" class="edge">
<title>CardModule&#45;&gt;TopPanelModule</title>
<path fill="none" stroke="#000000" d="M646.1108,-122.1061C646.1108,-122.1061 646.1108,-140.991 646.1108,-140.991"/>
<polygon fill="#000000" stroke="#000000" points="642.6109,-140.9909 646.1108,-150.991 649.6109,-140.991 642.6109,-140.9909"/>
</g>
<!-- DividerModule -->
<g id="node7" class="node">
<title>DividerModule</title>
<polygon fill="#8dd3c7" stroke="#000000" points="606.3133,-122 603.3133,-126 582.3133,-126 579.3133,-122 503.6867,-122 503.6867,-86 606.3133,-86 606.3133,-122"/>
<text text-anchor="middle" x="555" y="-99.8" font-family="Times,serif" font-size="14.00" fill="#000000">DividerModule</text>
</g>
<!-- DividerModule&#45;&gt;TopPanelModule -->
<g id="edge6" class="edge">
<title>DividerModule&#45;&gt;TopPanelModule</title>
<path fill="none" stroke="#000000" d="M580.277,-122.1061C580.277,-122.1061 580.277,-140.991 580.277,-140.991"/>
<polygon fill="#000000" stroke="#000000" points="576.7771,-140.9909 580.277,-150.991 583.7771,-140.991 576.7771,-140.9909"/>
</g>
<!-- FiltersModule -->
<g id="node8" class="node">
<title>FiltersModule</title>
<polygon fill="#8dd3c7" stroke="#000000" points="485.8246,-122 482.8246,-126 461.8246,-126 458.8246,-122 390.1754,-122 390.1754,-86 485.8246,-86 485.8246,-122"/>
<text text-anchor="middle" x="438" y="-99.8" font-family="Times,serif" font-size="14.00" fill="#000000">FiltersModule</text>
</g>
<!-- FiltersModule&#45;&gt;TopPanelModule -->
<g id="edge7" class="edge">
<title>FiltersModule&#45;&gt;TopPanelModule</title>
<path fill="none" stroke="#000000" d="M438,-122.2396C438,-137.5706 438,-157 438,-157 438,-157 544.3533,-157 544.3533,-157"/>
<polygon fill="#000000" stroke="#000000" points="544.3534,-160.5001 554.3533,-157 544.3533,-153.5001 544.3534,-160.5001"/>
</g>
<!-- IconsModule -->
<g id="node9" class="node">
<title>IconsModule</title>
<polygon fill="#8dd3c7" stroke="#000000" points="371.8697,-122 368.8697,-126 347.8697,-126 344.8697,-122 282.1303,-122 282.1303,-86 371.8697,-86 371.8697,-122"/>
<text text-anchor="middle" x="327" y="-99.8" font-family="Times,serif" font-size="14.00" fill="#000000">IconsModule</text>
</g>
<!-- IconsModule&#45;&gt;TopPanelModule -->
<g id="edge8" class="edge">
<title>IconsModule&#45;&gt;TopPanelModule</title>
<path fill="none" stroke="#000000" d="M327,-122.0225C327,-139.3734 327,-163 327,-163 327,-163 544.2109,-163 544.2109,-163"/>
<polygon fill="#000000" stroke="#000000" points="544.211,-166.5001 554.2109,-163 544.2109,-159.5001 544.211,-166.5001"/>
</g>
<!-- LoadersModule -->
<g id="node10" class="node">
<title>LoadersModule</title>
<polygon fill="#8dd3c7" stroke="#000000" points="264.1374,-122 261.1374,-126 240.1374,-126 237.1374,-122 159.8626,-122 159.8626,-86 264.1374,-86 264.1374,-122"/>
<text text-anchor="middle" x="212" y="-99.8" font-family="Times,serif" font-size="14.00" fill="#000000">LoadersModule</text>
</g>
<!-- LoadersModule&#45;&gt;TopPanelModule -->
<g id="edge9" class="edge">
<title>LoadersModule&#45;&gt;TopPanelModule</title>
<path fill="none" stroke="#000000" d="M212,-122.1061C212,-141.3391 212,-169 212,-169 212,-169 544.2568,-169 544.2568,-169"/>
<polygon fill="#000000" stroke="#000000" points="544.2568,-172.5001 554.2568,-169 544.2567,-165.5001 544.2568,-172.5001"/>
</g>
<!-- SearchBarModule -->
<g id="node11" class="node">
<title>SearchBarModule</title>
<polygon fill="#8dd3c7" stroke="#000000" points="141.8487,-122 138.8487,-126 117.8487,-126 114.8487,-122 24.1513,-122 24.1513,-86 141.8487,-86 141.8487,-122"/>
<text text-anchor="middle" x="83" y="-99.8" font-family="Times,serif" font-size="14.00" fill="#000000">SearchBarModule</text>
</g>
<!-- SearchBarModule&#45;&gt;TopPanelModule -->
<g id="edge10" class="edge">
<title>SearchBarModule&#45;&gt;TopPanelModule</title>
<path fill="none" stroke="#000000" d="M83,-122.2843C83,-143.3211 83,-175 83,-175 83,-175 544.2441,-175 544.2441,-175"/>
<polygon fill="#000000" stroke="#000000" points="544.2442,-178.5001 554.2441,-175 544.2441,-171.5001 544.2442,-178.5001"/>
</g>
</g>
</svg>
