<?xml version="1.0" encoding="UTF-8" standalone="no"?>
<!DOCTYPE svg PUBLIC "-//W3C//DTD SVG 1.1//EN"
 "http://www.w3.org/Graphics/SVG/1.1/DTD/svg11.dtd">
<!-- Generated by graphviz version 2.40.1 (20161225.0304)
 -->
<!-- Title: dependencies Pages: 1 -->
<svg width="530pt" height="284pt"
 viewBox="0.00 0.00 530.00 284.00" xmlns="http://www.w3.org/2000/svg" xmlns:xlink="http://www.w3.org/1999/xlink">
<g id="graph0" class="graph" transform="scale(1 1) rotate(0) translate(4 280)">
<title>dependencies</title>
<polygon fill="#ffffff" stroke="transparent" points="-4,4 -4,-280 526,-280 526,4 -4,4"/>
<text text-anchor="start" x="240.0091" y="-42.4" font-family="sans-serif" font-weight="bold" font-size="14.00" fill="#000000">Legend</text>
<polygon fill="#ffffb3" stroke="transparent" points="27,-10 27,-30 47,-30 47,-10 27,-10"/>
<text text-anchor="start" x="50.629" y="-15.4" font-family="sans-serif" font-size="14.00" fill="#000000"> &#160;Declarations</text>
<polygon fill="#8dd3c7" stroke="transparent" points="140,-10 140,-30 160,-30 160,-10 140,-10"/>
<text text-anchor="start" x="163.7251" y="-15.4" font-family="sans-serif" font-size="14.00" fill="#000000"> &#160;Module</text>
<polygon fill="#80b1d3" stroke="transparent" points="226,-10 226,-30 246,-30 246,-10 226,-10"/>
<text text-anchor="start" x="249.7812" y="-15.4" font-family="sans-serif" font-size="14.00" fill="#000000"> &#160;Bootstrap</text>
<polygon fill="#fdb462" stroke="transparent" points="323,-10 323,-30 343,-30 343,-10 323,-10"/>
<text text-anchor="start" x="346.6732" y="-15.4" font-family="sans-serif" font-size="14.00" fill="#000000"> &#160;Providers</text>
<polygon fill="#fb8072" stroke="transparent" points="419,-10 419,-30 439,-30 439,-10 419,-10"/>
<text text-anchor="start" x="442.7258" y="-15.4" font-family="sans-serif" font-size="14.00" fill="#000000"> &#160;Exports</text>
<g id="clust1" class="cluster">
<title>cluster_AppApolloModule</title>
<polygon fill="none" stroke="#000000" stroke-dasharray="1,5" points="8,-70 8,-268 514,-268 514,-70 8,-70"/>
</g>
<g id="clust2" class="cluster">
<title>cluster_AppApolloModule_declarations</title>
<polygon fill="none" stroke="#000000" points="314,-78 314,-130 506,-130 506,-78 314,-78"/>
</g>
<g id="clust5" class="cluster">
<title>cluster_AppApolloModule_exports</title>
<polygon fill="none" stroke="#000000" points="139,-208 139,-260 335,-260 335,-208 139,-208"/>
</g>
<g id="clust7" class="cluster">
<title>cluster_AppApolloModule_providers</title>
<polygon fill="none" stroke="#000000" points="16,-78 16,-130 306,-130 306,-78 16,-78"/>
</g>
<!-- ApolloIssuePageComponent -->
<g id="node1" class="node">
<title>ApolloIssuePageComponent</title>
<polygon fill="#ffffb3" stroke="#000000" points="498.1965,-122 321.8035,-122 321.8035,-86 498.1965,-86 498.1965,-122"/>
<text text-anchor="middle" x="410" y="-99.8" font-family="Times,serif" font-size="14.00" fill="#000000">ApolloIssuePageComponent</text>
</g>
<!-- AppApolloModule -->
<g id="node2" class="node">
<title>AppApolloModule</title>
<polygon fill="#8dd3c7" stroke="#000000" points="298.045,-187 295.045,-191 274.045,-191 271.045,-187 175.955,-187 175.955,-151 298.045,-151 298.045,-187"/>
<text text-anchor="middle" x="237" y="-164.8" font-family="Times,serif" font-size="14.00" fill="#000000">AppApolloModule</text>
</g>
<!-- ApolloIssuePageComponent&#45;&gt;AppApolloModule -->
<g id="edge1" class="edge">
<title>ApolloIssuePageComponent&#45;&gt;AppApolloModule</title>
<path fill="none" stroke="#000000" d="M412.4732,-122.1061C412.4732,-141.3391 412.4732,-169 412.4732,-169 412.4732,-169 308.372,-169 308.372,-169"/>
<polygon fill="#000000" stroke="#000000" points="308.372,-165.5001 298.372,-169 308.372,-172.5001 308.372,-165.5001"/>
</g>
<!-- ApolloIssuePageComponent  -->
<g id="node3" class="node">
<title>ApolloIssuePageComponent </title>
<polygon fill="#fb8072" stroke="#000000" points="326.6967,-252 147.3033,-252 147.3033,-216 326.6967,-216 326.6967,-252"/>
<text text-anchor="middle" x="237" y="-229.8" font-family="Times,serif" font-size="14.00" fill="#000000">ApolloIssuePageComponent </text>
</g>
<!-- AppApolloModule&#45;&gt;ApolloIssuePageComponent  -->
<g id="edge2" class="edge">
<title>AppApolloModule&#45;&gt;ApolloIssuePageComponent </title>
<path fill="none" stroke="#000000" stroke-dasharray="5,2" d="M237,-187.1061C237,-187.1061 237,-205.991 237,-205.991"/>
<polygon fill="#000000" stroke="#000000" points="233.5001,-205.9909 237,-215.991 240.5001,-205.991 233.5001,-205.9909"/>
</g>
<!-- ApolloClient -->
<g id="node4" class="node">
<title>ApolloClient</title>
<ellipse fill="#fdb462" stroke="#000000" cx="237" cy="-104" rx="61.434" ry="18"/>
<text text-anchor="middle" x="237" y="-99.8" font-family="Times,serif" font-size="14.00" fill="#000000">ApolloClient</text>
</g>
<!-- ApolloClient&#45;&gt;AppApolloModule -->
<g id="edge3" class="edge">
<title>ApolloClient&#45;&gt;AppApolloModule</title>
<path fill="none" stroke="#000000" d="M237,-122.1061C237,-122.1061 237,-140.991 237,-140.991"/>
<polygon fill="#000000" stroke="#000000" points="233.5001,-140.9909 237,-150.991 240.5001,-140.991 233.5001,-140.9909"/>
</g>
<!-- ApolloService -->
<g id="node5" class="node">
<title>ApolloService</title>
<ellipse fill="#fdb462" stroke="#000000" cx="91" cy="-104" rx="66.6325" ry="18"/>
<text text-anchor="middle" x="91" y="-99.8" font-family="Times,serif" font-size="14.00" fill="#000000">ApolloService</text>
</g>
<!-- ApolloService&#45;&gt;AppApolloModule -->
<g id="edge4" class="edge">
<title>ApolloService&#45;&gt;AppApolloModule</title>
<path fill="none" stroke="#000000" d="M152.4839,-111.2045C152.4839,-128.128 152.4839,-169 152.4839,-169 152.4839,-169 165.5783,-169 165.5783,-169"/>
<polygon fill="#000000" stroke="#000000" points="165.5783,-172.5001 175.5783,-169 165.5783,-165.5001 165.5783,-172.5001"/>
</g>
</g>
</svg>
