<?xml version="1.0" encoding="UTF-8" standalone="no"?>
<!DOCTYPE svg PUBLIC "-//W3C//DTD SVG 1.1//EN"
 "http://www.w3.org/Graphics/SVG/1.1/DTD/svg11.dtd">
<!-- Generated by graphviz version 2.40.1 (20161225.0304)
 -->
<!-- Title: dependencies Pages: 1 -->
<svg width="1229pt" height="284pt"
 viewBox="0.00 0.00 1229.00 284.00" xmlns="http://www.w3.org/2000/svg" xmlns:xlink="http://www.w3.org/1999/xlink">
<g id="graph0" class="graph" transform="scale(1 1) rotate(0) translate(4 280)">
<title>dependencies</title>
<polygon fill="#ffffff" stroke="transparent" points="-4,4 -4,-280 1225,-280 1225,4 -4,4"/>
<text text-anchor="start" x="589.5091" y="-42.4" font-family="sans-serif" font-weight="bold" font-size="14.00" fill="#000000">Legend</text>
<polygon fill="#ffffb3" stroke="transparent" points="376.5,-10 376.5,-30 396.5,-30 396.5,-10 376.5,-10"/>
<text text-anchor="start" x="400.129" y="-15.4" font-family="sans-serif" font-size="14.00" fill="#000000"> &#160;Declarations</text>
<polygon fill="#8dd3c7" stroke="transparent" points="489.5,-10 489.5,-30 509.5,-30 509.5,-10 489.5,-10"/>
<text text-anchor="start" x="513.2251" y="-15.4" font-family="sans-serif" font-size="14.00" fill="#000000"> &#160;Module</text>
<polygon fill="#80b1d3" stroke="transparent" points="575.5,-10 575.5,-30 595.5,-30 595.5,-10 575.5,-10"/>
<text text-anchor="start" x="599.2812" y="-15.4" font-family="sans-serif" font-size="14.00" fill="#000000"> &#160;Bootstrap</text>
<polygon fill="#fdb462" stroke="transparent" points="672.5,-10 672.5,-30 692.5,-30 692.5,-10 672.5,-10"/>
<text text-anchor="start" x="696.1732" y="-15.4" font-family="sans-serif" font-size="14.00" fill="#000000"> &#160;Providers</text>
<polygon fill="#fb8072" stroke="transparent" points="768.5,-10 768.5,-30 788.5,-30 788.5,-10 768.5,-10"/>
<text text-anchor="start" x="792.2258" y="-15.4" font-family="sans-serif" font-size="14.00" fill="#000000"> &#160;Exports</text>
<g id="clust1" class="cluster">
<title>cluster_InputsModule</title>
<polygon fill="none" stroke="#000000" stroke-dasharray="1,5" points="8,-70 8,-268 1213,-268 1213,-70 8,-70"/>
</g>
<g id="clust2" class="cluster">
<title>cluster_InputsModule_declarations</title>
<polygon fill="none" stroke="#000000" points="234,-78 234,-130 1205,-130 1205,-78 234,-78"/>
</g>
<g id="clust10" class="cluster">
<title>cluster_InputsModule_imports</title>
<polygon fill="none" stroke="#000000" points="16,-78 16,-130 226,-130 226,-78 16,-78"/>
</g>
<g id="clust11" class="cluster">
<title>cluster_InputsModule_exports</title>
<polygon fill="none" stroke="#000000" points="102,-208 102,-260 1098,-260 1098,-208 102,-208"/>
</g>
<!-- CheckboxComponent -->
<g id="node1" class="node">
<title>CheckboxComponent</title>
<polygon fill="#ffffb3" stroke="#000000" points="1197.0982,-122 1058.9018,-122 1058.9018,-86 1197.0982,-86 1197.0982,-122"/>
<text text-anchor="middle" x="1128" y="-99.8" font-family="Times,serif" font-size="14.00" fill="#000000">CheckboxComponent</text>
</g>
<!-- InputsModule -->
<g id="node8" class="node">
<title>InputsModule</title>
<polygon fill="#8dd3c7" stroke="#000000" points="628.0467,-187 625.0467,-191 604.0467,-191 601.0467,-187 533.9533,-187 533.9533,-151 628.0467,-151 628.0467,-187"/>
<text text-anchor="middle" x="581" y="-164.8" font-family="Times,serif" font-size="14.00" fill="#000000">InputsModule</text>
</g>
<!-- CheckboxComponent&#45;&gt;InputsModule -->
<g id="edge1" class="edge">
<title>CheckboxComponent&#45;&gt;InputsModule</title>
<path fill="none" stroke="#000000" d="M1074.375,-122.1061C1074.375,-141.3391 1074.375,-169 1074.375,-169 1074.375,-169 638.3069,-169 638.3069,-169"/>
<polygon fill="#000000" stroke="#000000" points="638.3069,-165.5001 628.3069,-169 638.3068,-172.5001 638.3069,-165.5001"/>
</g>
<!-- ErrorComponent -->
<g id="node2" class="node">
<title>ErrorComponent</title>
<polygon fill="#ffffb3" stroke="#000000" points="1041.3669,-122 930.6331,-122 930.6331,-86 1041.3669,-86 1041.3669,-122"/>
<text text-anchor="middle" x="986" y="-99.8" font-family="Times,serif" font-size="14.00" fill="#000000">ErrorComponent</text>
</g>
<!-- ErrorComponent&#45;&gt;InputsModule -->
<g id="edge2" class="edge">
<title>ErrorComponent&#45;&gt;InputsModule</title>
<path fill="none" stroke="#000000" d="M939.3838,-122.302C939.3838,-140.2699 939.3838,-165 939.3838,-165 939.3838,-165 638.2209,-165 638.2209,-165"/>
<polygon fill="#000000" stroke="#000000" points="638.221,-161.5001 628.2209,-165 638.2209,-168.5001 638.221,-161.5001"/>
</g>
<!-- FormFieldComponent -->
<g id="node3" class="node">
<title>FormFieldComponent</title>
<polygon fill="#ffffb3" stroke="#000000" points="912.4453,-122 771.5547,-122 771.5547,-86 912.4453,-86 912.4453,-122"/>
<text text-anchor="middle" x="842" y="-99.8" font-family="Times,serif" font-size="14.00" fill="#000000">FormFieldComponent</text>
</g>
<!-- FormFieldComponent&#45;&gt;InputsModule -->
<g id="edge3" class="edge">
<title>FormFieldComponent&#45;&gt;InputsModule</title>
<path fill="none" stroke="#000000" d="M784.875,-122.027C784.875,-138.3976 784.875,-160 784.875,-160 784.875,-160 638.2855,-160 638.2855,-160"/>
<polygon fill="#000000" stroke="#000000" points="638.2855,-156.5001 628.2855,-160 638.2854,-163.5001 638.2855,-156.5001"/>
</g>
<!-- HintComponent -->
<g id="node4" class="node">
<title>HintComponent</title>
<polygon fill="#ffffb3" stroke="#000000" points="754.2204,-122 647.7796,-122 647.7796,-86 754.2204,-86 754.2204,-122"/>
<text text-anchor="middle" x="701" y="-99.8" font-family="Times,serif" font-size="14.00" fill="#000000">HintComponent</text>
</g>
<!-- HintComponent&#45;&gt;InputsModule -->
<g id="edge4" class="edge">
<title>HintComponent&#45;&gt;InputsModule</title>
<path fill="none" stroke="#000000" d="M720.7493,-122.1871C720.7493,-137.1824 720.7493,-156 720.7493,-156 720.7493,-156 638.3127,-156 638.3127,-156"/>
<polygon fill="#000000" stroke="#000000" points="638.3128,-152.5001 628.3127,-156 638.3127,-159.5001 638.3128,-152.5001"/>
</g>
<!-- InputDirective -->
<g id="node5" class="node">
<title>InputDirective</title>
<polygon fill="#ffffb3" stroke="#000000" points="629.6347,-122 532.3653,-122 532.3653,-86 629.6347,-86 629.6347,-122"/>
<text text-anchor="middle" x="581" y="-99.8" font-family="Times,serif" font-size="14.00" fill="#000000">InputDirective</text>
</g>
<!-- InputDirective&#45;&gt;InputsModule -->
<g id="edge5" class="edge">
<title>InputDirective&#45;&gt;InputsModule</title>
<path fill="none" stroke="#000000" d="M581,-122.1061C581,-122.1061 581,-140.991 581,-140.991"/>
<polygon fill="#000000" stroke="#000000" points="577.5001,-140.9909 581,-150.991 584.5001,-140.991 577.5001,-140.9909"/>
</g>
<!-- LabelComponent -->
<g id="node6" class="node">
<title>LabelComponent</title>
<polygon fill="#ffffb3" stroke="#000000" points="514.705,-122 401.295,-122 401.295,-86 514.705,-86 514.705,-122"/>
<text text-anchor="middle" x="458" y="-99.8" font-family="Times,serif" font-size="14.00" fill="#000000">LabelComponent</text>
</g>
<!-- LabelComponent&#45;&gt;InputsModule -->
<g id="edge6" class="edge">
<title>LabelComponent&#45;&gt;InputsModule</title>
<path fill="none" stroke="#000000" d="M441.1443,-122.1871C441.1443,-137.1824 441.1443,-156 441.1443,-156 441.1443,-156 523.6513,-156 523.6513,-156"/>
<polygon fill="#000000" stroke="#000000" points="523.6513,-159.5001 533.6513,-156 523.6512,-152.5001 523.6513,-159.5001"/>
</g>
<!-- RestrictInputDirective -->
<g id="node7" class="node">
<title>RestrictInputDirective</title>
<polygon fill="#ffffb3" stroke="#000000" points="383.6769,-122 242.3231,-122 242.3231,-86 383.6769,-86 383.6769,-122"/>
<text text-anchor="middle" x="313" y="-99.8" font-family="Times,serif" font-size="14.00" fill="#000000">RestrictInputDirective</text>
</g>
<!-- RestrictInputDirective&#45;&gt;InputsModule -->
<g id="edge7" class="edge">
<title>RestrictInputDirective&#45;&gt;InputsModule</title>
<path fill="none" stroke="#000000" d="M309.6279,-122.027C309.6279,-138.3976 309.6279,-160 309.6279,-160 309.6279,-160 523.7306,-160 523.7306,-160"/>
<polygon fill="#000000" stroke="#000000" points="523.7306,-163.5001 533.7306,-160 523.7305,-156.5001 523.7306,-163.5001"/>
</g>
<!-- CheckboxComponent  -->
<g id="node11" class="node">
<title>CheckboxComponent </title>
<polygon fill="#fb8072" stroke="#000000" points="1089.5988,-252 948.4012,-252 948.4012,-216 1089.5988,-216 1089.5988,-252"/>
<text text-anchor="middle" x="1019" y="-229.8" font-family="Times,serif" font-size="14.00" fill="#000000">CheckboxComponent </text>
</g>
<!-- InputsModule&#45;&gt;CheckboxComponent  -->
<g id="edge10" class="edge">
<title>InputsModule&#45;&gt;CheckboxComponent </title>
<path fill="none" stroke="#000000" stroke-dasharray="5,2" d="M628.0672,-174C736.5283,-174 994.8172,-174 994.8172,-174 994.8172,-174 994.8172,-205.998 994.8172,-205.998"/>
<polygon fill="#000000" stroke="#000000" points="991.3172,-205.998 994.8172,-215.998 998.3172,-205.9981 991.3172,-205.998"/>
</g>
<!-- ErrorComponent  -->
<g id="node12" class="node">
<title>ErrorComponent </title>
<polygon fill="#fb8072" stroke="#000000" points="930.3674,-252 815.6326,-252 815.6326,-216 930.3674,-216 930.3674,-252"/>
<text text-anchor="middle" x="873" y="-229.8" font-family="Times,serif" font-size="14.00" fill="#000000">ErrorComponent </text>
</g>
<!-- InputsModule&#45;&gt;ErrorComponent  -->
<g id="edge11" class="edge">
<title>InputsModule&#45;&gt;ErrorComponent </title>
<path fill="none" stroke="#000000" stroke-dasharray="5,2" d="M628.0526,-178C708.5304,-178 864.0195,-178 864.0195,-178 864.0195,-178 864.0195,-205.973 864.0195,-205.973"/>
<polygon fill="#000000" stroke="#000000" points="860.5195,-205.973 864.0195,-215.973 867.5195,-205.973 860.5195,-205.973"/>
</g>
<!-- FormFieldComponent  -->
<g id="node13" class="node">
<title>FormFieldComponent </title>
<polygon fill="#fb8072" stroke="#000000" points="797.9446,-252 654.0554,-252 654.0554,-216 797.9446,-216 797.9446,-252"/>
<text text-anchor="middle" x="726" y="-229.8" font-family="Times,serif" font-size="14.00" fill="#000000">FormFieldComponent </text>
</g>
<!-- InputsModule&#45;&gt;FormFieldComponent  -->
<g id="edge12" class="edge">
<title>InputsModule&#45;&gt;FormFieldComponent </title>
<path fill="none" stroke="#000000" stroke-dasharray="5,2" d="M628.2831,-183C656.6969,-183 687.3885,-183 687.3885,-183 687.3885,-183 687.3885,-205.8757 687.3885,-205.8757"/>
<polygon fill="#000000" stroke="#000000" points="683.8886,-205.8757 687.3885,-215.8757 690.8886,-205.8757 683.8886,-205.8757"/>
</g>
<!-- HintComponent  -->
<g id="node14" class="node">
<title>HintComponent </title>
<polygon fill="#fb8072" stroke="#000000" points="635.7206,-252 526.2794,-252 526.2794,-216 635.7206,-216 635.7206,-252"/>
<text text-anchor="middle" x="581" y="-229.8" font-family="Times,serif" font-size="14.00" fill="#000000">HintComponent </text>
</g>
<!-- InputsModule&#45;&gt;HintComponent  -->
<g id="edge13" class="edge">
<title>InputsModule&#45;&gt;HintComponent </title>
<path fill="none" stroke="#000000" stroke-dasharray="5,2" d="M581,-187.1061C581,-187.1061 581,-205.991 581,-205.991"/>
<polygon fill="#000000" stroke="#000000" points="577.5001,-205.9909 581,-215.991 584.5001,-205.991 577.5001,-205.9909"/>
</g>
<!-- InputDirective  -->
<g id="node15" class="node">
<title>InputDirective </title>
<polygon fill="#fb8072" stroke="#000000" points="508.6341,-252 407.3659,-252 407.3659,-216 508.6341,-216 508.6341,-252"/>
<text text-anchor="middle" x="458" y="-229.8" font-family="Times,serif" font-size="14.00" fill="#000000">InputDirective </text>
</g>
<!-- InputsModule&#45;&gt;InputDirective  -->
<g id="edge14" class="edge">
<title>InputsModule&#45;&gt;InputDirective </title>
<path fill="none" stroke="#000000" stroke-dasharray="5,2" d="M533.8254,-183C505.4769,-183 474.8557,-183 474.8557,-183 474.8557,-183 474.8557,-205.8757 474.8557,-205.8757"/>
<polygon fill="#000000" stroke="#000000" points="471.3558,-205.8757 474.8557,-215.8757 478.3558,-205.8757 471.3558,-205.8757"/>
</g>
<!-- LabelComponent  -->
<g id="node16" class="node">
<title>LabelComponent </title>
<polygon fill="#fb8072" stroke="#000000" points="389.2052,-252 272.7948,-252 272.7948,-216 389.2052,-216 389.2052,-252"/>
<text text-anchor="middle" x="331" y="-229.8" font-family="Times,serif" font-size="14.00" fill="#000000">LabelComponent </text>
</g>
<!-- InputsModule&#45;&gt;LabelComponent  -->
<g id="edge15" class="edge">
<title>InputsModule&#45;&gt;LabelComponent </title>
<path fill="none" stroke="#000000" stroke-dasharray="5,2" d="M533.8493,-178C465.403,-178 346.6081,-178 346.6081,-178 346.6081,-178 346.6081,-205.973 346.6081,-205.973"/>
<polygon fill="#000000" stroke="#000000" points="343.1082,-205.973 346.6081,-215.973 350.1082,-205.973 343.1082,-205.973"/>
</g>
<!-- RestrictInputDirective  -->
<g id="node17" class="node">
<title>RestrictInputDirective </title>
<polygon fill="#fb8072" stroke="#000000" points="254.1772,-252 109.8228,-252 109.8228,-216 254.1772,-216 254.1772,-252"/>
<text text-anchor="middle" x="182" y="-229.8" font-family="Times,serif" font-size="14.00" fill="#000000">RestrictInputDirective </text>
</g>
<!-- InputsModule&#45;&gt;RestrictInputDirective  -->
<g id="edge16" class="edge">
<title>InputsModule&#45;&gt;RestrictInputDirective </title>
<path fill="none" stroke="#000000" stroke-dasharray="5,2" d="M533.6962,-174C441.8643,-174 248.375,-174 248.375,-174 248.375,-174 248.375,-205.998 248.375,-205.998"/>
<polygon fill="#000000" stroke="#000000" points="244.8751,-205.998 248.375,-215.998 251.8751,-205.9981 244.8751,-205.998"/>
</g>
<!-- IconsModule -->
<g id="node9" class="node">
<title>IconsModule</title>
<polygon fill="#8dd3c7" stroke="#000000" points="217.8697,-122 214.8697,-126 193.8697,-126 190.8697,-122 128.1303,-122 128.1303,-86 217.8697,-86 217.8697,-122"/>
<text text-anchor="middle" x="173" y="-99.8" font-family="Times,serif" font-size="14.00" fill="#000000">IconsModule</text>
</g>
<!-- IconsModule&#45;&gt;InputsModule -->
<g id="edge8" class="edge">
<title>IconsModule&#45;&gt;InputsModule</title>
<path fill="none" stroke="#000000" d="M173,-122.302C173,-140.2699 173,-165 173,-165 173,-165 523.7986,-165 523.7986,-165"/>
<polygon fill="#000000" stroke="#000000" points="523.7987,-168.5001 533.7986,-165 523.7986,-161.5001 523.7987,-168.5001"/>
</g>
<!-- UtilsModule -->
<g id="node10" class="node">
<title>UtilsModule</title>
<polygon fill="#8dd3c7" stroke="#000000" points="110.2731,-122 107.2731,-126 86.2731,-126 83.2731,-122 23.7269,-122 23.7269,-86 110.2731,-86 110.2731,-122"/>
<text text-anchor="middle" x="67" y="-99.8" font-family="Times,serif" font-size="14.00" fill="#000000">UtilsModule</text>
</g>
<!-- UtilsModule&#45;&gt;InputsModule -->
<g id="edge9" class="edge">
<title>UtilsModule&#45;&gt;InputsModule</title>
<path fill="none" stroke="#000000" d="M66.6376,-122.1061C66.6376,-141.3391 66.6376,-169 66.6376,-169 66.6376,-169 523.532,-169 523.532,-169"/>
<polygon fill="#000000" stroke="#000000" points="523.532,-172.5001 533.532,-169 523.532,-165.5001 523.532,-172.5001"/>
</g>
</g>
</svg>
